M48
; DRILL file {KiCad 9.0.7-9.0.7~ubuntu24.04.1} date 2026-01-22T09:15:25-0500
; FORMAT={-:-/ absolute / metric / decimal}
; #@! TF.CreationDate,2026-01-22T09:15:25-05:00
; #@! TF.GenerationSoftware,Kicad,Pcbnew,9.0.7-9.0.7~ubuntu24.04.1
; #@! TF.FileFunction,Plated,1,2,PTH
FMAT,2
METRIC
; #@! TA.AperFunction,Plated,PTH,ViaDrill
T1C0.300
; #@! TA.AperFunction,Plated,PTH,ComponentDrill
T2C0.800
; #@! TA.AperFunction,Plated,PTH,ComponentDrill
T3C0.900
; #@! TA.AperFunction,Plated,PTH,ComponentDrill
T4C1.000
; #@! TA.AperFunction,Plated,PTH,ComponentDrill
T5C1.500
%
G90
G05
T1
X151.13Y-109.855
X154.305Y-75.565
X154.305Y-80.645
X154.305Y-85.725
X154.305Y-90.805
X154.305Y-95.885
X158.115Y-124.46
X161.29Y-75.565
X161.29Y-85.725
X161.29Y-95.885
X161.29Y-123.825
X161.507Y-91.022
X161.925Y-80.645
X165.735Y-132.08
X167.005Y-133.35
X168.91Y-75.565
X168.91Y-85.725
X168.91Y-90.805
X168.91Y-95.885
X169.545Y-80.645
X170.349Y-131.276
X171.45Y-101.6
X171.45Y-121.92
X173.99Y-74.295
X173.99Y-108.585
X176.53Y-75.565
X176.53Y-85.725
X176.53Y-90.805
X176.53Y-125.095
X176.748Y-96.102
X177.165Y-80.645
X179.07Y-109.855
X179.07Y-132.08
X179.705Y-121.285
X180.171Y-100.33
X181.61Y-71.755
X181.61Y-109.22
X181.61Y-133.35
X184.15Y-75.565
X184.15Y-90.805
X184.15Y-95.885
X184.15Y-123.825
X184.785Y-80.645
X184.785Y-85.725
X187.96Y-108.585
X189.23Y-108.585
X190.5Y-109.855
X191.77Y-75.565
X191.77Y-90.805
X191.77Y-95.885
X191.77Y-131.445
X192.405Y-80.645
X192.405Y-85.725
X192.405Y-118.745
X193.675Y-107.95
X194.31Y-109.855
X196.632Y-79.375
X196.85Y-106.68
X199.39Y-90.805
X199.39Y-95.885
X200.025Y-75.565
X200.025Y-80.645
X200.025Y-85.725
X204.252Y-84.455
X205.105Y-125.095
X207.01Y-75.565
X207.01Y-85.725
X207.01Y-90.805
X207.01Y-95.885
X207.645Y-80.645
X212.09Y-74.295
X212.09Y-80.01
X212.09Y-100.33
X213.36Y-101.6
X214.63Y-109.855
X217.805Y-111.125
X219.075Y-90.17
X219.71Y-71.755
X219.71Y-84.455
X219.71Y-108.585
X222.25Y-109.855
X224.79Y-74.295
X224.79Y-90.17
T2
X168.91Y-113.03
X168.91Y-128.27
X171.45Y-113.03
X171.45Y-128.27
X173.99Y-113.03
X173.99Y-128.27
X176.53Y-113.03
X176.53Y-128.27
X179.07Y-113.03
X179.07Y-128.27
X181.61Y-113.03
X181.61Y-128.27
X184.15Y-113.03
X184.15Y-128.27
X186.69Y-113.03
X186.69Y-128.27
X189.23Y-113.03
X189.23Y-128.27
X191.77Y-113.03
X191.77Y-128.27
X194.31Y-113.03
X194.31Y-128.27
X196.85Y-113.03
X196.85Y-128.27
X199.39Y-113.03
X199.39Y-128.27
X201.93Y-113.03
X201.93Y-128.27
T3
X151.13Y-62.23
X152.4Y-69.85
X152.4Y-72.39
X153.67Y-62.23
X158.75Y-62.23
X161.29Y-62.23
X166.37Y-62.23
X168.91Y-62.23
X173.99Y-62.23
X176.53Y-62.23
X181.61Y-62.23
X184.15Y-62.23
X189.23Y-62.23
X190.5Y-69.855
X190.5Y-72.395
X191.77Y-62.23
X196.85Y-62.23
X199.39Y-62.23
X204.47Y-62.23
X207.01Y-62.23
X212.09Y-62.23
X214.63Y-62.23
X219.71Y-62.23
X222.25Y-62.23
T4
X156.21Y-105.41
X156.21Y-116.84
X156.21Y-119.38
X156.21Y-153.67
X158.75Y-105.41
X158.75Y-153.67
X161.29Y-105.41
X161.29Y-153.67
X163.83Y-105.41
X163.83Y-153.67
X166.37Y-105.41
X166.37Y-153.67
X168.91Y-105.41
X168.91Y-153.67
X171.45Y-153.67
X173.99Y-105.41
X173.99Y-153.67
X176.53Y-105.41
X178.05Y-153.67
X179.07Y-105.41
X180.59Y-153.67
X181.61Y-105.41
X183.13Y-153.67
X184.15Y-105.41
X185.67Y-153.67
X186.69Y-105.41
X188.21Y-153.67
X189.23Y-105.41
X190.75Y-153.67
X191.77Y-105.41
X193.29Y-153.67
X195.83Y-153.67
X198.37Y-153.67
X200.91Y-153.67
T5
X160.94Y-132.08
T2
G00X155.04Y-127.23
M15
G01X153.84Y-127.23
M16
G05
G00X155.04Y-136.93
M15
G01X153.84Y-136.93
M16
G05
G00X154.94Y-130.98
M15
G01X154.94Y-133.18
M16
G05
G00X159.74Y-127.23
M15
G01X158.54Y-127.23
M16
G05
G00X159.74Y-136.93
M15
G01X158.54Y-136.93
M16
G05
M30
