%TF.GenerationSoftware,KiCad,Pcbnew,9.0.7-9.0.7~ubuntu24.04.1*%
%TF.CreationDate,2026-01-22T09:15:27-05:00*%
%TF.ProjectId,LED_proto_sector,4c45445f-7072-46f7-946f-5f736563746f,rev?*%
%TF.SameCoordinates,Original*%
%TF.FileFunction,Legend,Top*%
%TF.FilePolarity,Positive*%
%FSLAX46Y46*%
G04 Gerber Fmt 4.6, Leading zero omitted, Abs format (unit mm)*
G04 Created by KiCad (PCBNEW 9.0.7-9.0.7~ubuntu24.04.1) date 2026-01-22 09:15:27*
%MOMM*%
%LPD*%
G01*
G04 APERTURE LIST*
%ADD10C,0.203200*%
%ADD11C,0.150000*%
%ADD12C,0.120000*%
%ADD13C,0.127000*%
%ADD14C,0.200000*%
G04 APERTURE END LIST*
D10*
X176935826Y-137477925D02*
X176845112Y-137568640D01*
X176845112Y-137568640D02*
X176572969Y-137659354D01*
X176572969Y-137659354D02*
X176391541Y-137659354D01*
X176391541Y-137659354D02*
X176119398Y-137568640D01*
X176119398Y-137568640D02*
X175937969Y-137387211D01*
X175937969Y-137387211D02*
X175847255Y-137205782D01*
X175847255Y-137205782D02*
X175756541Y-136842925D01*
X175756541Y-136842925D02*
X175756541Y-136570782D01*
X175756541Y-136570782D02*
X175847255Y-136207925D01*
X175847255Y-136207925D02*
X175937969Y-136026497D01*
X175937969Y-136026497D02*
X176119398Y-135845068D01*
X176119398Y-135845068D02*
X176391541Y-135754354D01*
X176391541Y-135754354D02*
X176572969Y-135754354D01*
X176572969Y-135754354D02*
X176845112Y-135845068D01*
X176845112Y-135845068D02*
X176935826Y-135935782D01*
X178659398Y-137659354D02*
X177752255Y-137659354D01*
X177752255Y-137659354D02*
X177752255Y-135754354D01*
X179657255Y-135754354D02*
X180020112Y-135754354D01*
X180020112Y-135754354D02*
X180201541Y-135845068D01*
X180201541Y-135845068D02*
X180382969Y-136026497D01*
X180382969Y-136026497D02*
X180473684Y-136389354D01*
X180473684Y-136389354D02*
X180473684Y-137024354D01*
X180473684Y-137024354D02*
X180382969Y-137387211D01*
X180382969Y-137387211D02*
X180201541Y-137568640D01*
X180201541Y-137568640D02*
X180020112Y-137659354D01*
X180020112Y-137659354D02*
X179657255Y-137659354D01*
X179657255Y-137659354D02*
X179475827Y-137568640D01*
X179475827Y-137568640D02*
X179294398Y-137387211D01*
X179294398Y-137387211D02*
X179203684Y-137024354D01*
X179203684Y-137024354D02*
X179203684Y-136389354D01*
X179203684Y-136389354D02*
X179294398Y-136026497D01*
X179294398Y-136026497D02*
X179475827Y-135845068D01*
X179475827Y-135845068D02*
X179657255Y-135754354D01*
X182378683Y-137477925D02*
X182287969Y-137568640D01*
X182287969Y-137568640D02*
X182015826Y-137659354D01*
X182015826Y-137659354D02*
X181834398Y-137659354D01*
X181834398Y-137659354D02*
X181562255Y-137568640D01*
X181562255Y-137568640D02*
X181380826Y-137387211D01*
X181380826Y-137387211D02*
X181290112Y-137205782D01*
X181290112Y-137205782D02*
X181199398Y-136842925D01*
X181199398Y-136842925D02*
X181199398Y-136570782D01*
X181199398Y-136570782D02*
X181290112Y-136207925D01*
X181290112Y-136207925D02*
X181380826Y-136026497D01*
X181380826Y-136026497D02*
X181562255Y-135845068D01*
X181562255Y-135845068D02*
X181834398Y-135754354D01*
X181834398Y-135754354D02*
X182015826Y-135754354D01*
X182015826Y-135754354D02*
X182287969Y-135845068D01*
X182287969Y-135845068D02*
X182378683Y-135935782D01*
X183195112Y-137659354D02*
X183195112Y-135754354D01*
X184283683Y-137659354D02*
X183467255Y-136570782D01*
X184283683Y-135754354D02*
X183195112Y-136842925D01*
X186279398Y-135754354D02*
X186914398Y-137659354D01*
X186914398Y-137659354D02*
X187549398Y-135754354D01*
X188547255Y-135754354D02*
X188728684Y-135754354D01*
X188728684Y-135754354D02*
X188910112Y-135845068D01*
X188910112Y-135845068D02*
X189000827Y-135935782D01*
X189000827Y-135935782D02*
X189091541Y-136117211D01*
X189091541Y-136117211D02*
X189182255Y-136480068D01*
X189182255Y-136480068D02*
X189182255Y-136933640D01*
X189182255Y-136933640D02*
X189091541Y-137296497D01*
X189091541Y-137296497D02*
X189000827Y-137477925D01*
X189000827Y-137477925D02*
X188910112Y-137568640D01*
X188910112Y-137568640D02*
X188728684Y-137659354D01*
X188728684Y-137659354D02*
X188547255Y-137659354D01*
X188547255Y-137659354D02*
X188365827Y-137568640D01*
X188365827Y-137568640D02*
X188275112Y-137477925D01*
X188275112Y-137477925D02*
X188184398Y-137296497D01*
X188184398Y-137296497D02*
X188093684Y-136933640D01*
X188093684Y-136933640D02*
X188093684Y-136480068D01*
X188093684Y-136480068D02*
X188184398Y-136117211D01*
X188184398Y-136117211D02*
X188275112Y-135935782D01*
X188275112Y-135935782D02*
X188365827Y-135845068D01*
X188365827Y-135845068D02*
X188547255Y-135754354D01*
X189998684Y-137477925D02*
X190089398Y-137568640D01*
X190089398Y-137568640D02*
X189998684Y-137659354D01*
X189998684Y-137659354D02*
X189907970Y-137568640D01*
X189907970Y-137568640D02*
X189998684Y-137477925D01*
X189998684Y-137477925D02*
X189998684Y-137659354D01*
X191903684Y-137659354D02*
X190815113Y-137659354D01*
X191359398Y-137659354D02*
X191359398Y-135754354D01*
X191359398Y-135754354D02*
X191177970Y-136026497D01*
X191177970Y-136026497D02*
X190996541Y-136207925D01*
X190996541Y-136207925D02*
X190815113Y-136298640D01*
X175847255Y-139728440D02*
X176482255Y-139728440D01*
X176754398Y-140726297D02*
X175847255Y-140726297D01*
X175847255Y-140726297D02*
X175847255Y-138821297D01*
X175847255Y-138821297D02*
X176754398Y-138821297D01*
X177480112Y-140635583D02*
X177752255Y-140726297D01*
X177752255Y-140726297D02*
X178205826Y-140726297D01*
X178205826Y-140726297D02*
X178387255Y-140635583D01*
X178387255Y-140635583D02*
X178477969Y-140544868D01*
X178477969Y-140544868D02*
X178568683Y-140363440D01*
X178568683Y-140363440D02*
X178568683Y-140182011D01*
X178568683Y-140182011D02*
X178477969Y-140000583D01*
X178477969Y-140000583D02*
X178387255Y-139909868D01*
X178387255Y-139909868D02*
X178205826Y-139819154D01*
X178205826Y-139819154D02*
X177842969Y-139728440D01*
X177842969Y-139728440D02*
X177661540Y-139637725D01*
X177661540Y-139637725D02*
X177570826Y-139547011D01*
X177570826Y-139547011D02*
X177480112Y-139365583D01*
X177480112Y-139365583D02*
X177480112Y-139184154D01*
X177480112Y-139184154D02*
X177570826Y-139002725D01*
X177570826Y-139002725D02*
X177661540Y-138912011D01*
X177661540Y-138912011D02*
X177842969Y-138821297D01*
X177842969Y-138821297D02*
X178296540Y-138821297D01*
X178296540Y-138821297D02*
X178568683Y-138912011D01*
X179385112Y-140726297D02*
X179385112Y-138821297D01*
X179385112Y-139728440D02*
X180473683Y-139728440D01*
X180473683Y-140726297D02*
X180473683Y-138821297D01*
X182741541Y-139002725D02*
X182832255Y-138912011D01*
X182832255Y-138912011D02*
X183013684Y-138821297D01*
X183013684Y-138821297D02*
X183467255Y-138821297D01*
X183467255Y-138821297D02*
X183648684Y-138912011D01*
X183648684Y-138912011D02*
X183739398Y-139002725D01*
X183739398Y-139002725D02*
X183830112Y-139184154D01*
X183830112Y-139184154D02*
X183830112Y-139365583D01*
X183830112Y-139365583D02*
X183739398Y-139637725D01*
X183739398Y-139637725D02*
X182650826Y-140726297D01*
X182650826Y-140726297D02*
X183830112Y-140726297D01*
X185009398Y-138821297D02*
X185190827Y-138821297D01*
X185190827Y-138821297D02*
X185372255Y-138912011D01*
X185372255Y-138912011D02*
X185462970Y-139002725D01*
X185462970Y-139002725D02*
X185553684Y-139184154D01*
X185553684Y-139184154D02*
X185644398Y-139547011D01*
X185644398Y-139547011D02*
X185644398Y-140000583D01*
X185644398Y-140000583D02*
X185553684Y-140363440D01*
X185553684Y-140363440D02*
X185462970Y-140544868D01*
X185462970Y-140544868D02*
X185372255Y-140635583D01*
X185372255Y-140635583D02*
X185190827Y-140726297D01*
X185190827Y-140726297D02*
X185009398Y-140726297D01*
X185009398Y-140726297D02*
X184827970Y-140635583D01*
X184827970Y-140635583D02*
X184737255Y-140544868D01*
X184737255Y-140544868D02*
X184646541Y-140363440D01*
X184646541Y-140363440D02*
X184555827Y-140000583D01*
X184555827Y-140000583D02*
X184555827Y-139547011D01*
X184555827Y-139547011D02*
X184646541Y-139184154D01*
X184646541Y-139184154D02*
X184737255Y-139002725D01*
X184737255Y-139002725D02*
X184827970Y-138912011D01*
X184827970Y-138912011D02*
X185009398Y-138821297D01*
X186370113Y-139002725D02*
X186460827Y-138912011D01*
X186460827Y-138912011D02*
X186642256Y-138821297D01*
X186642256Y-138821297D02*
X187095827Y-138821297D01*
X187095827Y-138821297D02*
X187277256Y-138912011D01*
X187277256Y-138912011D02*
X187367970Y-139002725D01*
X187367970Y-139002725D02*
X187458684Y-139184154D01*
X187458684Y-139184154D02*
X187458684Y-139365583D01*
X187458684Y-139365583D02*
X187367970Y-139637725D01*
X187367970Y-139637725D02*
X186279398Y-140726297D01*
X186279398Y-140726297D02*
X187458684Y-140726297D01*
X189091542Y-138821297D02*
X188728684Y-138821297D01*
X188728684Y-138821297D02*
X188547256Y-138912011D01*
X188547256Y-138912011D02*
X188456542Y-139002725D01*
X188456542Y-139002725D02*
X188275113Y-139274868D01*
X188275113Y-139274868D02*
X188184399Y-139637725D01*
X188184399Y-139637725D02*
X188184399Y-140363440D01*
X188184399Y-140363440D02*
X188275113Y-140544868D01*
X188275113Y-140544868D02*
X188365827Y-140635583D01*
X188365827Y-140635583D02*
X188547256Y-140726297D01*
X188547256Y-140726297D02*
X188910113Y-140726297D01*
X188910113Y-140726297D02*
X189091542Y-140635583D01*
X189091542Y-140635583D02*
X189182256Y-140544868D01*
X189182256Y-140544868D02*
X189272970Y-140363440D01*
X189272970Y-140363440D02*
X189272970Y-139909868D01*
X189272970Y-139909868D02*
X189182256Y-139728440D01*
X189182256Y-139728440D02*
X189091542Y-139637725D01*
X189091542Y-139637725D02*
X188910113Y-139547011D01*
X188910113Y-139547011D02*
X188547256Y-139547011D01*
X188547256Y-139547011D02*
X188365827Y-139637725D01*
X188365827Y-139637725D02*
X188275113Y-139728440D01*
X188275113Y-139728440D02*
X188184399Y-139909868D01*
X190089399Y-140000583D02*
X191540828Y-140000583D01*
X192810827Y-138821297D02*
X192992256Y-138821297D01*
X192992256Y-138821297D02*
X193173684Y-138912011D01*
X193173684Y-138912011D02*
X193264399Y-139002725D01*
X193264399Y-139002725D02*
X193355113Y-139184154D01*
X193355113Y-139184154D02*
X193445827Y-139547011D01*
X193445827Y-139547011D02*
X193445827Y-140000583D01*
X193445827Y-140000583D02*
X193355113Y-140363440D01*
X193355113Y-140363440D02*
X193264399Y-140544868D01*
X193264399Y-140544868D02*
X193173684Y-140635583D01*
X193173684Y-140635583D02*
X192992256Y-140726297D01*
X192992256Y-140726297D02*
X192810827Y-140726297D01*
X192810827Y-140726297D02*
X192629399Y-140635583D01*
X192629399Y-140635583D02*
X192538684Y-140544868D01*
X192538684Y-140544868D02*
X192447970Y-140363440D01*
X192447970Y-140363440D02*
X192357256Y-140000583D01*
X192357256Y-140000583D02*
X192357256Y-139547011D01*
X192357256Y-139547011D02*
X192447970Y-139184154D01*
X192447970Y-139184154D02*
X192538684Y-139002725D01*
X192538684Y-139002725D02*
X192629399Y-138912011D01*
X192629399Y-138912011D02*
X192810827Y-138821297D01*
X195260113Y-140726297D02*
X194171542Y-140726297D01*
X194715827Y-140726297D02*
X194715827Y-138821297D01*
X194715827Y-138821297D02*
X194534399Y-139093440D01*
X194534399Y-139093440D02*
X194352970Y-139274868D01*
X194352970Y-139274868D02*
X194171542Y-139365583D01*
D11*
X142748095Y-57434819D02*
X142748095Y-56434819D01*
X142748095Y-56911009D02*
X143319523Y-56911009D01*
X143319523Y-57434819D02*
X143319523Y-56434819D01*
X144271904Y-56434819D02*
X143795714Y-56434819D01*
X143795714Y-56434819D02*
X143748095Y-56911009D01*
X143748095Y-56911009D02*
X143795714Y-56863390D01*
X143795714Y-56863390D02*
X143890952Y-56815771D01*
X143890952Y-56815771D02*
X144129047Y-56815771D01*
X144129047Y-56815771D02*
X144224285Y-56863390D01*
X144224285Y-56863390D02*
X144271904Y-56911009D01*
X144271904Y-56911009D02*
X144319523Y-57006247D01*
X144319523Y-57006247D02*
X144319523Y-57244342D01*
X144319523Y-57244342D02*
X144271904Y-57339580D01*
X144271904Y-57339580D02*
X144224285Y-57387200D01*
X144224285Y-57387200D02*
X144129047Y-57434819D01*
X144129047Y-57434819D02*
X143890952Y-57434819D01*
X143890952Y-57434819D02*
X143795714Y-57387200D01*
X143795714Y-57387200D02*
X143748095Y-57339580D01*
X155376666Y-113914819D02*
X155376666Y-114629104D01*
X155376666Y-114629104D02*
X155329047Y-114771961D01*
X155329047Y-114771961D02*
X155233809Y-114867200D01*
X155233809Y-114867200D02*
X155090952Y-114914819D01*
X155090952Y-114914819D02*
X154995714Y-114914819D01*
X155852857Y-114914819D02*
X155852857Y-113914819D01*
X155852857Y-113914819D02*
X156233809Y-113914819D01*
X156233809Y-113914819D02*
X156329047Y-113962438D01*
X156329047Y-113962438D02*
X156376666Y-114010057D01*
X156376666Y-114010057D02*
X156424285Y-114105295D01*
X156424285Y-114105295D02*
X156424285Y-114248152D01*
X156424285Y-114248152D02*
X156376666Y-114343390D01*
X156376666Y-114343390D02*
X156329047Y-114391009D01*
X156329047Y-114391009D02*
X156233809Y-114438628D01*
X156233809Y-114438628D02*
X155852857Y-114438628D01*
X157376666Y-114914819D02*
X156805238Y-114914819D01*
X157090952Y-114914819D02*
X157090952Y-113914819D01*
X157090952Y-113914819D02*
X156995714Y-114057676D01*
X156995714Y-114057676D02*
X156900476Y-114152914D01*
X156900476Y-114152914D02*
X156805238Y-114200533D01*
X181665714Y-76094819D02*
X181665714Y-75094819D01*
X181665714Y-75094819D02*
X181903809Y-75094819D01*
X181903809Y-75094819D02*
X182046666Y-75142438D01*
X182046666Y-75142438D02*
X182141904Y-75237676D01*
X182141904Y-75237676D02*
X182189523Y-75332914D01*
X182189523Y-75332914D02*
X182237142Y-75523390D01*
X182237142Y-75523390D02*
X182237142Y-75666247D01*
X182237142Y-75666247D02*
X182189523Y-75856723D01*
X182189523Y-75856723D02*
X182141904Y-75951961D01*
X182141904Y-75951961D02*
X182046666Y-76047200D01*
X182046666Y-76047200D02*
X181903809Y-76094819D01*
X181903809Y-76094819D02*
X181665714Y-76094819D01*
X182618095Y-75190057D02*
X182665714Y-75142438D01*
X182665714Y-75142438D02*
X182760952Y-75094819D01*
X182760952Y-75094819D02*
X182999047Y-75094819D01*
X182999047Y-75094819D02*
X183094285Y-75142438D01*
X183094285Y-75142438D02*
X183141904Y-75190057D01*
X183141904Y-75190057D02*
X183189523Y-75285295D01*
X183189523Y-75285295D02*
X183189523Y-75380533D01*
X183189523Y-75380533D02*
X183141904Y-75523390D01*
X183141904Y-75523390D02*
X182570476Y-76094819D01*
X182570476Y-76094819D02*
X183189523Y-76094819D01*
X184094285Y-75094819D02*
X183618095Y-75094819D01*
X183618095Y-75094819D02*
X183570476Y-75571009D01*
X183570476Y-75571009D02*
X183618095Y-75523390D01*
X183618095Y-75523390D02*
X183713333Y-75475771D01*
X183713333Y-75475771D02*
X183951428Y-75475771D01*
X183951428Y-75475771D02*
X184046666Y-75523390D01*
X184046666Y-75523390D02*
X184094285Y-75571009D01*
X184094285Y-75571009D02*
X184141904Y-75666247D01*
X184141904Y-75666247D02*
X184141904Y-75904342D01*
X184141904Y-75904342D02*
X184094285Y-75999580D01*
X184094285Y-75999580D02*
X184046666Y-76047200D01*
X184046666Y-76047200D02*
X183951428Y-76094819D01*
X183951428Y-76094819D02*
X183713333Y-76094819D01*
X183713333Y-76094819D02*
X183618095Y-76047200D01*
X183618095Y-76047200D02*
X183570476Y-75999580D01*
X229108095Y-105059819D02*
X229108095Y-104059819D01*
X229108095Y-104536009D02*
X229679523Y-104536009D01*
X229679523Y-105059819D02*
X229679523Y-104059819D01*
X230679523Y-105059819D02*
X230108095Y-105059819D01*
X230393809Y-105059819D02*
X230393809Y-104059819D01*
X230393809Y-104059819D02*
X230298571Y-104202676D01*
X230298571Y-104202676D02*
X230203333Y-104297914D01*
X230203333Y-104297914D02*
X230108095Y-104345533D01*
X181665714Y-81174819D02*
X181665714Y-80174819D01*
X181665714Y-80174819D02*
X181903809Y-80174819D01*
X181903809Y-80174819D02*
X182046666Y-80222438D01*
X182046666Y-80222438D02*
X182141904Y-80317676D01*
X182141904Y-80317676D02*
X182189523Y-80412914D01*
X182189523Y-80412914D02*
X182237142Y-80603390D01*
X182237142Y-80603390D02*
X182237142Y-80746247D01*
X182237142Y-80746247D02*
X182189523Y-80936723D01*
X182189523Y-80936723D02*
X182141904Y-81031961D01*
X182141904Y-81031961D02*
X182046666Y-81127200D01*
X182046666Y-81127200D02*
X181903809Y-81174819D01*
X181903809Y-81174819D02*
X181665714Y-81174819D01*
X182570476Y-80174819D02*
X183189523Y-80174819D01*
X183189523Y-80174819D02*
X182856190Y-80555771D01*
X182856190Y-80555771D02*
X182999047Y-80555771D01*
X182999047Y-80555771D02*
X183094285Y-80603390D01*
X183094285Y-80603390D02*
X183141904Y-80651009D01*
X183141904Y-80651009D02*
X183189523Y-80746247D01*
X183189523Y-80746247D02*
X183189523Y-80984342D01*
X183189523Y-80984342D02*
X183141904Y-81079580D01*
X183141904Y-81079580D02*
X183094285Y-81127200D01*
X183094285Y-81127200D02*
X182999047Y-81174819D01*
X182999047Y-81174819D02*
X182713333Y-81174819D01*
X182713333Y-81174819D02*
X182618095Y-81127200D01*
X182618095Y-81127200D02*
X182570476Y-81079580D01*
X184094285Y-80174819D02*
X183618095Y-80174819D01*
X183618095Y-80174819D02*
X183570476Y-80651009D01*
X183570476Y-80651009D02*
X183618095Y-80603390D01*
X183618095Y-80603390D02*
X183713333Y-80555771D01*
X183713333Y-80555771D02*
X183951428Y-80555771D01*
X183951428Y-80555771D02*
X184046666Y-80603390D01*
X184046666Y-80603390D02*
X184094285Y-80651009D01*
X184094285Y-80651009D02*
X184141904Y-80746247D01*
X184141904Y-80746247D02*
X184141904Y-80984342D01*
X184141904Y-80984342D02*
X184094285Y-81079580D01*
X184094285Y-81079580D02*
X184046666Y-81127200D01*
X184046666Y-81127200D02*
X183951428Y-81174819D01*
X183951428Y-81174819D02*
X183713333Y-81174819D01*
X183713333Y-81174819D02*
X183618095Y-81127200D01*
X183618095Y-81127200D02*
X183570476Y-81079580D01*
X166425714Y-96414819D02*
X166425714Y-95414819D01*
X166425714Y-95414819D02*
X166663809Y-95414819D01*
X166663809Y-95414819D02*
X166806666Y-95462438D01*
X166806666Y-95462438D02*
X166901904Y-95557676D01*
X166901904Y-95557676D02*
X166949523Y-95652914D01*
X166949523Y-95652914D02*
X166997142Y-95843390D01*
X166997142Y-95843390D02*
X166997142Y-95986247D01*
X166997142Y-95986247D02*
X166949523Y-96176723D01*
X166949523Y-96176723D02*
X166901904Y-96271961D01*
X166901904Y-96271961D02*
X166806666Y-96367200D01*
X166806666Y-96367200D02*
X166663809Y-96414819D01*
X166663809Y-96414819D02*
X166425714Y-96414819D01*
X167854285Y-95414819D02*
X167663809Y-95414819D01*
X167663809Y-95414819D02*
X167568571Y-95462438D01*
X167568571Y-95462438D02*
X167520952Y-95510057D01*
X167520952Y-95510057D02*
X167425714Y-95652914D01*
X167425714Y-95652914D02*
X167378095Y-95843390D01*
X167378095Y-95843390D02*
X167378095Y-96224342D01*
X167378095Y-96224342D02*
X167425714Y-96319580D01*
X167425714Y-96319580D02*
X167473333Y-96367200D01*
X167473333Y-96367200D02*
X167568571Y-96414819D01*
X167568571Y-96414819D02*
X167759047Y-96414819D01*
X167759047Y-96414819D02*
X167854285Y-96367200D01*
X167854285Y-96367200D02*
X167901904Y-96319580D01*
X167901904Y-96319580D02*
X167949523Y-96224342D01*
X167949523Y-96224342D02*
X167949523Y-95986247D01*
X167949523Y-95986247D02*
X167901904Y-95891009D01*
X167901904Y-95891009D02*
X167854285Y-95843390D01*
X167854285Y-95843390D02*
X167759047Y-95795771D01*
X167759047Y-95795771D02*
X167568571Y-95795771D01*
X167568571Y-95795771D02*
X167473333Y-95843390D01*
X167473333Y-95843390D02*
X167425714Y-95891009D01*
X167425714Y-95891009D02*
X167378095Y-95986247D01*
X168282857Y-95414819D02*
X168901904Y-95414819D01*
X168901904Y-95414819D02*
X168568571Y-95795771D01*
X168568571Y-95795771D02*
X168711428Y-95795771D01*
X168711428Y-95795771D02*
X168806666Y-95843390D01*
X168806666Y-95843390D02*
X168854285Y-95891009D01*
X168854285Y-95891009D02*
X168901904Y-95986247D01*
X168901904Y-95986247D02*
X168901904Y-96224342D01*
X168901904Y-96224342D02*
X168854285Y-96319580D01*
X168854285Y-96319580D02*
X168806666Y-96367200D01*
X168806666Y-96367200D02*
X168711428Y-96414819D01*
X168711428Y-96414819D02*
X168425714Y-96414819D01*
X168425714Y-96414819D02*
X168330476Y-96367200D01*
X168330476Y-96367200D02*
X168282857Y-96319580D01*
X189285714Y-91334819D02*
X189285714Y-90334819D01*
X189285714Y-90334819D02*
X189523809Y-90334819D01*
X189523809Y-90334819D02*
X189666666Y-90382438D01*
X189666666Y-90382438D02*
X189761904Y-90477676D01*
X189761904Y-90477676D02*
X189809523Y-90572914D01*
X189809523Y-90572914D02*
X189857142Y-90763390D01*
X189857142Y-90763390D02*
X189857142Y-90906247D01*
X189857142Y-90906247D02*
X189809523Y-91096723D01*
X189809523Y-91096723D02*
X189761904Y-91191961D01*
X189761904Y-91191961D02*
X189666666Y-91287200D01*
X189666666Y-91287200D02*
X189523809Y-91334819D01*
X189523809Y-91334819D02*
X189285714Y-91334819D01*
X190761904Y-90334819D02*
X190285714Y-90334819D01*
X190285714Y-90334819D02*
X190238095Y-90811009D01*
X190238095Y-90811009D02*
X190285714Y-90763390D01*
X190285714Y-90763390D02*
X190380952Y-90715771D01*
X190380952Y-90715771D02*
X190619047Y-90715771D01*
X190619047Y-90715771D02*
X190714285Y-90763390D01*
X190714285Y-90763390D02*
X190761904Y-90811009D01*
X190761904Y-90811009D02*
X190809523Y-90906247D01*
X190809523Y-90906247D02*
X190809523Y-91144342D01*
X190809523Y-91144342D02*
X190761904Y-91239580D01*
X190761904Y-91239580D02*
X190714285Y-91287200D01*
X190714285Y-91287200D02*
X190619047Y-91334819D01*
X190619047Y-91334819D02*
X190380952Y-91334819D01*
X190380952Y-91334819D02*
X190285714Y-91287200D01*
X190285714Y-91287200D02*
X190238095Y-91239580D01*
X191666666Y-90334819D02*
X191476190Y-90334819D01*
X191476190Y-90334819D02*
X191380952Y-90382438D01*
X191380952Y-90382438D02*
X191333333Y-90430057D01*
X191333333Y-90430057D02*
X191238095Y-90572914D01*
X191238095Y-90572914D02*
X191190476Y-90763390D01*
X191190476Y-90763390D02*
X191190476Y-91144342D01*
X191190476Y-91144342D02*
X191238095Y-91239580D01*
X191238095Y-91239580D02*
X191285714Y-91287200D01*
X191285714Y-91287200D02*
X191380952Y-91334819D01*
X191380952Y-91334819D02*
X191571428Y-91334819D01*
X191571428Y-91334819D02*
X191666666Y-91287200D01*
X191666666Y-91287200D02*
X191714285Y-91239580D01*
X191714285Y-91239580D02*
X191761904Y-91144342D01*
X191761904Y-91144342D02*
X191761904Y-90906247D01*
X191761904Y-90906247D02*
X191714285Y-90811009D01*
X191714285Y-90811009D02*
X191666666Y-90763390D01*
X191666666Y-90763390D02*
X191571428Y-90715771D01*
X191571428Y-90715771D02*
X191380952Y-90715771D01*
X191380952Y-90715771D02*
X191285714Y-90763390D01*
X191285714Y-90763390D02*
X191238095Y-90811009D01*
X191238095Y-90811009D02*
X191190476Y-90906247D01*
X212145714Y-96414819D02*
X212145714Y-95414819D01*
X212145714Y-95414819D02*
X212383809Y-95414819D01*
X212383809Y-95414819D02*
X212526666Y-95462438D01*
X212526666Y-95462438D02*
X212621904Y-95557676D01*
X212621904Y-95557676D02*
X212669523Y-95652914D01*
X212669523Y-95652914D02*
X212717142Y-95843390D01*
X212717142Y-95843390D02*
X212717142Y-95986247D01*
X212717142Y-95986247D02*
X212669523Y-96176723D01*
X212669523Y-96176723D02*
X212621904Y-96271961D01*
X212621904Y-96271961D02*
X212526666Y-96367200D01*
X212526666Y-96367200D02*
X212383809Y-96414819D01*
X212383809Y-96414819D02*
X212145714Y-96414819D01*
X213574285Y-95414819D02*
X213383809Y-95414819D01*
X213383809Y-95414819D02*
X213288571Y-95462438D01*
X213288571Y-95462438D02*
X213240952Y-95510057D01*
X213240952Y-95510057D02*
X213145714Y-95652914D01*
X213145714Y-95652914D02*
X213098095Y-95843390D01*
X213098095Y-95843390D02*
X213098095Y-96224342D01*
X213098095Y-96224342D02*
X213145714Y-96319580D01*
X213145714Y-96319580D02*
X213193333Y-96367200D01*
X213193333Y-96367200D02*
X213288571Y-96414819D01*
X213288571Y-96414819D02*
X213479047Y-96414819D01*
X213479047Y-96414819D02*
X213574285Y-96367200D01*
X213574285Y-96367200D02*
X213621904Y-96319580D01*
X213621904Y-96319580D02*
X213669523Y-96224342D01*
X213669523Y-96224342D02*
X213669523Y-95986247D01*
X213669523Y-95986247D02*
X213621904Y-95891009D01*
X213621904Y-95891009D02*
X213574285Y-95843390D01*
X213574285Y-95843390D02*
X213479047Y-95795771D01*
X213479047Y-95795771D02*
X213288571Y-95795771D01*
X213288571Y-95795771D02*
X213193333Y-95843390D01*
X213193333Y-95843390D02*
X213145714Y-95891009D01*
X213145714Y-95891009D02*
X213098095Y-95986247D01*
X214145714Y-96414819D02*
X214336190Y-96414819D01*
X214336190Y-96414819D02*
X214431428Y-96367200D01*
X214431428Y-96367200D02*
X214479047Y-96319580D01*
X214479047Y-96319580D02*
X214574285Y-96176723D01*
X214574285Y-96176723D02*
X214621904Y-95986247D01*
X214621904Y-95986247D02*
X214621904Y-95605295D01*
X214621904Y-95605295D02*
X214574285Y-95510057D01*
X214574285Y-95510057D02*
X214526666Y-95462438D01*
X214526666Y-95462438D02*
X214431428Y-95414819D01*
X214431428Y-95414819D02*
X214240952Y-95414819D01*
X214240952Y-95414819D02*
X214145714Y-95462438D01*
X214145714Y-95462438D02*
X214098095Y-95510057D01*
X214098095Y-95510057D02*
X214050476Y-95605295D01*
X214050476Y-95605295D02*
X214050476Y-95843390D01*
X214050476Y-95843390D02*
X214098095Y-95938628D01*
X214098095Y-95938628D02*
X214145714Y-95986247D01*
X214145714Y-95986247D02*
X214240952Y-96033866D01*
X214240952Y-96033866D02*
X214431428Y-96033866D01*
X214431428Y-96033866D02*
X214526666Y-95986247D01*
X214526666Y-95986247D02*
X214574285Y-95938628D01*
X214574285Y-95938628D02*
X214621904Y-95843390D01*
X142748095Y-152684819D02*
X142748095Y-151684819D01*
X142748095Y-152161009D02*
X143319523Y-152161009D01*
X143319523Y-152684819D02*
X143319523Y-151684819D01*
X144224285Y-152018152D02*
X144224285Y-152684819D01*
X143986190Y-151637200D02*
X143748095Y-152351485D01*
X143748095Y-152351485D02*
X144367142Y-152351485D01*
X212145714Y-91334819D02*
X212145714Y-90334819D01*
X212145714Y-90334819D02*
X212383809Y-90334819D01*
X212383809Y-90334819D02*
X212526666Y-90382438D01*
X212526666Y-90382438D02*
X212621904Y-90477676D01*
X212621904Y-90477676D02*
X212669523Y-90572914D01*
X212669523Y-90572914D02*
X212717142Y-90763390D01*
X212717142Y-90763390D02*
X212717142Y-90906247D01*
X212717142Y-90906247D02*
X212669523Y-91096723D01*
X212669523Y-91096723D02*
X212621904Y-91191961D01*
X212621904Y-91191961D02*
X212526666Y-91287200D01*
X212526666Y-91287200D02*
X212383809Y-91334819D01*
X212383809Y-91334819D02*
X212145714Y-91334819D01*
X213621904Y-90334819D02*
X213145714Y-90334819D01*
X213145714Y-90334819D02*
X213098095Y-90811009D01*
X213098095Y-90811009D02*
X213145714Y-90763390D01*
X213145714Y-90763390D02*
X213240952Y-90715771D01*
X213240952Y-90715771D02*
X213479047Y-90715771D01*
X213479047Y-90715771D02*
X213574285Y-90763390D01*
X213574285Y-90763390D02*
X213621904Y-90811009D01*
X213621904Y-90811009D02*
X213669523Y-90906247D01*
X213669523Y-90906247D02*
X213669523Y-91144342D01*
X213669523Y-91144342D02*
X213621904Y-91239580D01*
X213621904Y-91239580D02*
X213574285Y-91287200D01*
X213574285Y-91287200D02*
X213479047Y-91334819D01*
X213479047Y-91334819D02*
X213240952Y-91334819D01*
X213240952Y-91334819D02*
X213145714Y-91287200D01*
X213145714Y-91287200D02*
X213098095Y-91239580D01*
X214145714Y-91334819D02*
X214336190Y-91334819D01*
X214336190Y-91334819D02*
X214431428Y-91287200D01*
X214431428Y-91287200D02*
X214479047Y-91239580D01*
X214479047Y-91239580D02*
X214574285Y-91096723D01*
X214574285Y-91096723D02*
X214621904Y-90906247D01*
X214621904Y-90906247D02*
X214621904Y-90525295D01*
X214621904Y-90525295D02*
X214574285Y-90430057D01*
X214574285Y-90430057D02*
X214526666Y-90382438D01*
X214526666Y-90382438D02*
X214431428Y-90334819D01*
X214431428Y-90334819D02*
X214240952Y-90334819D01*
X214240952Y-90334819D02*
X214145714Y-90382438D01*
X214145714Y-90382438D02*
X214098095Y-90430057D01*
X214098095Y-90430057D02*
X214050476Y-90525295D01*
X214050476Y-90525295D02*
X214050476Y-90763390D01*
X214050476Y-90763390D02*
X214098095Y-90858628D01*
X214098095Y-90858628D02*
X214145714Y-90906247D01*
X214145714Y-90906247D02*
X214240952Y-90953866D01*
X214240952Y-90953866D02*
X214431428Y-90953866D01*
X214431428Y-90953866D02*
X214526666Y-90906247D01*
X214526666Y-90906247D02*
X214574285Y-90858628D01*
X214574285Y-90858628D02*
X214621904Y-90763390D01*
X151185714Y-76094819D02*
X151185714Y-75094819D01*
X151185714Y-75094819D02*
X151423809Y-75094819D01*
X151423809Y-75094819D02*
X151566666Y-75142438D01*
X151566666Y-75142438D02*
X151661904Y-75237676D01*
X151661904Y-75237676D02*
X151709523Y-75332914D01*
X151709523Y-75332914D02*
X151757142Y-75523390D01*
X151757142Y-75523390D02*
X151757142Y-75666247D01*
X151757142Y-75666247D02*
X151709523Y-75856723D01*
X151709523Y-75856723D02*
X151661904Y-75951961D01*
X151661904Y-75951961D02*
X151566666Y-76047200D01*
X151566666Y-76047200D02*
X151423809Y-76094819D01*
X151423809Y-76094819D02*
X151185714Y-76094819D01*
X152138095Y-75190057D02*
X152185714Y-75142438D01*
X152185714Y-75142438D02*
X152280952Y-75094819D01*
X152280952Y-75094819D02*
X152519047Y-75094819D01*
X152519047Y-75094819D02*
X152614285Y-75142438D01*
X152614285Y-75142438D02*
X152661904Y-75190057D01*
X152661904Y-75190057D02*
X152709523Y-75285295D01*
X152709523Y-75285295D02*
X152709523Y-75380533D01*
X152709523Y-75380533D02*
X152661904Y-75523390D01*
X152661904Y-75523390D02*
X152090476Y-76094819D01*
X152090476Y-76094819D02*
X152709523Y-76094819D01*
X153661904Y-76094819D02*
X153090476Y-76094819D01*
X153376190Y-76094819D02*
X153376190Y-75094819D01*
X153376190Y-75094819D02*
X153280952Y-75237676D01*
X153280952Y-75237676D02*
X153185714Y-75332914D01*
X153185714Y-75332914D02*
X153090476Y-75380533D01*
X166425714Y-81174819D02*
X166425714Y-80174819D01*
X166425714Y-80174819D02*
X166663809Y-80174819D01*
X166663809Y-80174819D02*
X166806666Y-80222438D01*
X166806666Y-80222438D02*
X166901904Y-80317676D01*
X166901904Y-80317676D02*
X166949523Y-80412914D01*
X166949523Y-80412914D02*
X166997142Y-80603390D01*
X166997142Y-80603390D02*
X166997142Y-80746247D01*
X166997142Y-80746247D02*
X166949523Y-80936723D01*
X166949523Y-80936723D02*
X166901904Y-81031961D01*
X166901904Y-81031961D02*
X166806666Y-81127200D01*
X166806666Y-81127200D02*
X166663809Y-81174819D01*
X166663809Y-81174819D02*
X166425714Y-81174819D01*
X167330476Y-80174819D02*
X167949523Y-80174819D01*
X167949523Y-80174819D02*
X167616190Y-80555771D01*
X167616190Y-80555771D02*
X167759047Y-80555771D01*
X167759047Y-80555771D02*
X167854285Y-80603390D01*
X167854285Y-80603390D02*
X167901904Y-80651009D01*
X167901904Y-80651009D02*
X167949523Y-80746247D01*
X167949523Y-80746247D02*
X167949523Y-80984342D01*
X167949523Y-80984342D02*
X167901904Y-81079580D01*
X167901904Y-81079580D02*
X167854285Y-81127200D01*
X167854285Y-81127200D02*
X167759047Y-81174819D01*
X167759047Y-81174819D02*
X167473333Y-81174819D01*
X167473333Y-81174819D02*
X167378095Y-81127200D01*
X167378095Y-81127200D02*
X167330476Y-81079580D01*
X168282857Y-80174819D02*
X168901904Y-80174819D01*
X168901904Y-80174819D02*
X168568571Y-80555771D01*
X168568571Y-80555771D02*
X168711428Y-80555771D01*
X168711428Y-80555771D02*
X168806666Y-80603390D01*
X168806666Y-80603390D02*
X168854285Y-80651009D01*
X168854285Y-80651009D02*
X168901904Y-80746247D01*
X168901904Y-80746247D02*
X168901904Y-80984342D01*
X168901904Y-80984342D02*
X168854285Y-81079580D01*
X168854285Y-81079580D02*
X168806666Y-81127200D01*
X168806666Y-81127200D02*
X168711428Y-81174819D01*
X168711428Y-81174819D02*
X168425714Y-81174819D01*
X168425714Y-81174819D02*
X168330476Y-81127200D01*
X168330476Y-81127200D02*
X168282857Y-81079580D01*
X219765714Y-96414819D02*
X219765714Y-95414819D01*
X219765714Y-95414819D02*
X220003809Y-95414819D01*
X220003809Y-95414819D02*
X220146666Y-95462438D01*
X220146666Y-95462438D02*
X220241904Y-95557676D01*
X220241904Y-95557676D02*
X220289523Y-95652914D01*
X220289523Y-95652914D02*
X220337142Y-95843390D01*
X220337142Y-95843390D02*
X220337142Y-95986247D01*
X220337142Y-95986247D02*
X220289523Y-96176723D01*
X220289523Y-96176723D02*
X220241904Y-96271961D01*
X220241904Y-96271961D02*
X220146666Y-96367200D01*
X220146666Y-96367200D02*
X220003809Y-96414819D01*
X220003809Y-96414819D02*
X219765714Y-96414819D01*
X220670476Y-95414819D02*
X221337142Y-95414819D01*
X221337142Y-95414819D02*
X220908571Y-96414819D01*
X221908571Y-95414819D02*
X222003809Y-95414819D01*
X222003809Y-95414819D02*
X222099047Y-95462438D01*
X222099047Y-95462438D02*
X222146666Y-95510057D01*
X222146666Y-95510057D02*
X222194285Y-95605295D01*
X222194285Y-95605295D02*
X222241904Y-95795771D01*
X222241904Y-95795771D02*
X222241904Y-96033866D01*
X222241904Y-96033866D02*
X222194285Y-96224342D01*
X222194285Y-96224342D02*
X222146666Y-96319580D01*
X222146666Y-96319580D02*
X222099047Y-96367200D01*
X222099047Y-96367200D02*
X222003809Y-96414819D01*
X222003809Y-96414819D02*
X221908571Y-96414819D01*
X221908571Y-96414819D02*
X221813333Y-96367200D01*
X221813333Y-96367200D02*
X221765714Y-96319580D01*
X221765714Y-96319580D02*
X221718095Y-96224342D01*
X221718095Y-96224342D02*
X221670476Y-96033866D01*
X221670476Y-96033866D02*
X221670476Y-95795771D01*
X221670476Y-95795771D02*
X221718095Y-95605295D01*
X221718095Y-95605295D02*
X221765714Y-95510057D01*
X221765714Y-95510057D02*
X221813333Y-95462438D01*
X221813333Y-95462438D02*
X221908571Y-95414819D01*
X151185714Y-96414819D02*
X151185714Y-95414819D01*
X151185714Y-95414819D02*
X151423809Y-95414819D01*
X151423809Y-95414819D02*
X151566666Y-95462438D01*
X151566666Y-95462438D02*
X151661904Y-95557676D01*
X151661904Y-95557676D02*
X151709523Y-95652914D01*
X151709523Y-95652914D02*
X151757142Y-95843390D01*
X151757142Y-95843390D02*
X151757142Y-95986247D01*
X151757142Y-95986247D02*
X151709523Y-96176723D01*
X151709523Y-96176723D02*
X151661904Y-96271961D01*
X151661904Y-96271961D02*
X151566666Y-96367200D01*
X151566666Y-96367200D02*
X151423809Y-96414819D01*
X151423809Y-96414819D02*
X151185714Y-96414819D01*
X152614285Y-95414819D02*
X152423809Y-95414819D01*
X152423809Y-95414819D02*
X152328571Y-95462438D01*
X152328571Y-95462438D02*
X152280952Y-95510057D01*
X152280952Y-95510057D02*
X152185714Y-95652914D01*
X152185714Y-95652914D02*
X152138095Y-95843390D01*
X152138095Y-95843390D02*
X152138095Y-96224342D01*
X152138095Y-96224342D02*
X152185714Y-96319580D01*
X152185714Y-96319580D02*
X152233333Y-96367200D01*
X152233333Y-96367200D02*
X152328571Y-96414819D01*
X152328571Y-96414819D02*
X152519047Y-96414819D01*
X152519047Y-96414819D02*
X152614285Y-96367200D01*
X152614285Y-96367200D02*
X152661904Y-96319580D01*
X152661904Y-96319580D02*
X152709523Y-96224342D01*
X152709523Y-96224342D02*
X152709523Y-95986247D01*
X152709523Y-95986247D02*
X152661904Y-95891009D01*
X152661904Y-95891009D02*
X152614285Y-95843390D01*
X152614285Y-95843390D02*
X152519047Y-95795771D01*
X152519047Y-95795771D02*
X152328571Y-95795771D01*
X152328571Y-95795771D02*
X152233333Y-95843390D01*
X152233333Y-95843390D02*
X152185714Y-95891009D01*
X152185714Y-95891009D02*
X152138095Y-95986247D01*
X153661904Y-96414819D02*
X153090476Y-96414819D01*
X153376190Y-96414819D02*
X153376190Y-95414819D01*
X153376190Y-95414819D02*
X153280952Y-95557676D01*
X153280952Y-95557676D02*
X153185714Y-95652914D01*
X153185714Y-95652914D02*
X153090476Y-95700533D01*
X219765714Y-59724819D02*
X219765714Y-58724819D01*
X219765714Y-58724819D02*
X220003809Y-58724819D01*
X220003809Y-58724819D02*
X220146666Y-58772438D01*
X220146666Y-58772438D02*
X220241904Y-58867676D01*
X220241904Y-58867676D02*
X220289523Y-58962914D01*
X220289523Y-58962914D02*
X220337142Y-59153390D01*
X220337142Y-59153390D02*
X220337142Y-59296247D01*
X220337142Y-59296247D02*
X220289523Y-59486723D01*
X220289523Y-59486723D02*
X220241904Y-59581961D01*
X220241904Y-59581961D02*
X220146666Y-59677200D01*
X220146666Y-59677200D02*
X220003809Y-59724819D01*
X220003809Y-59724819D02*
X219765714Y-59724819D01*
X221289523Y-59724819D02*
X220718095Y-59724819D01*
X221003809Y-59724819D02*
X221003809Y-58724819D01*
X221003809Y-58724819D02*
X220908571Y-58867676D01*
X220908571Y-58867676D02*
X220813333Y-58962914D01*
X220813333Y-58962914D02*
X220718095Y-59010533D01*
X221908571Y-58724819D02*
X222003809Y-58724819D01*
X222003809Y-58724819D02*
X222099047Y-58772438D01*
X222099047Y-58772438D02*
X222146666Y-58820057D01*
X222146666Y-58820057D02*
X222194285Y-58915295D01*
X222194285Y-58915295D02*
X222241904Y-59105771D01*
X222241904Y-59105771D02*
X222241904Y-59343866D01*
X222241904Y-59343866D02*
X222194285Y-59534342D01*
X222194285Y-59534342D02*
X222146666Y-59629580D01*
X222146666Y-59629580D02*
X222099047Y-59677200D01*
X222099047Y-59677200D02*
X222003809Y-59724819D01*
X222003809Y-59724819D02*
X221908571Y-59724819D01*
X221908571Y-59724819D02*
X221813333Y-59677200D01*
X221813333Y-59677200D02*
X221765714Y-59629580D01*
X221765714Y-59629580D02*
X221718095Y-59534342D01*
X221718095Y-59534342D02*
X221670476Y-59343866D01*
X221670476Y-59343866D02*
X221670476Y-59105771D01*
X221670476Y-59105771D02*
X221718095Y-58915295D01*
X221718095Y-58915295D02*
X221765714Y-58820057D01*
X221765714Y-58820057D02*
X221813333Y-58772438D01*
X221813333Y-58772438D02*
X221908571Y-58724819D01*
X219765714Y-81174819D02*
X219765714Y-80174819D01*
X219765714Y-80174819D02*
X220003809Y-80174819D01*
X220003809Y-80174819D02*
X220146666Y-80222438D01*
X220146666Y-80222438D02*
X220241904Y-80317676D01*
X220241904Y-80317676D02*
X220289523Y-80412914D01*
X220289523Y-80412914D02*
X220337142Y-80603390D01*
X220337142Y-80603390D02*
X220337142Y-80746247D01*
X220337142Y-80746247D02*
X220289523Y-80936723D01*
X220289523Y-80936723D02*
X220241904Y-81031961D01*
X220241904Y-81031961D02*
X220146666Y-81127200D01*
X220146666Y-81127200D02*
X220003809Y-81174819D01*
X220003809Y-81174819D02*
X219765714Y-81174819D01*
X221194285Y-80508152D02*
X221194285Y-81174819D01*
X220956190Y-80127200D02*
X220718095Y-80841485D01*
X220718095Y-80841485D02*
X221337142Y-80841485D01*
X221908571Y-80174819D02*
X222003809Y-80174819D01*
X222003809Y-80174819D02*
X222099047Y-80222438D01*
X222099047Y-80222438D02*
X222146666Y-80270057D01*
X222146666Y-80270057D02*
X222194285Y-80365295D01*
X222194285Y-80365295D02*
X222241904Y-80555771D01*
X222241904Y-80555771D02*
X222241904Y-80793866D01*
X222241904Y-80793866D02*
X222194285Y-80984342D01*
X222194285Y-80984342D02*
X222146666Y-81079580D01*
X222146666Y-81079580D02*
X222099047Y-81127200D01*
X222099047Y-81127200D02*
X222003809Y-81174819D01*
X222003809Y-81174819D02*
X221908571Y-81174819D01*
X221908571Y-81174819D02*
X221813333Y-81127200D01*
X221813333Y-81127200D02*
X221765714Y-81079580D01*
X221765714Y-81079580D02*
X221718095Y-80984342D01*
X221718095Y-80984342D02*
X221670476Y-80793866D01*
X221670476Y-80793866D02*
X221670476Y-80555771D01*
X221670476Y-80555771D02*
X221718095Y-80365295D01*
X221718095Y-80365295D02*
X221765714Y-80270057D01*
X221765714Y-80270057D02*
X221813333Y-80222438D01*
X221813333Y-80222438D02*
X221908571Y-80174819D01*
X151185714Y-81174819D02*
X151185714Y-80174819D01*
X151185714Y-80174819D02*
X151423809Y-80174819D01*
X151423809Y-80174819D02*
X151566666Y-80222438D01*
X151566666Y-80222438D02*
X151661904Y-80317676D01*
X151661904Y-80317676D02*
X151709523Y-80412914D01*
X151709523Y-80412914D02*
X151757142Y-80603390D01*
X151757142Y-80603390D02*
X151757142Y-80746247D01*
X151757142Y-80746247D02*
X151709523Y-80936723D01*
X151709523Y-80936723D02*
X151661904Y-81031961D01*
X151661904Y-81031961D02*
X151566666Y-81127200D01*
X151566666Y-81127200D02*
X151423809Y-81174819D01*
X151423809Y-81174819D02*
X151185714Y-81174819D01*
X152090476Y-80174819D02*
X152709523Y-80174819D01*
X152709523Y-80174819D02*
X152376190Y-80555771D01*
X152376190Y-80555771D02*
X152519047Y-80555771D01*
X152519047Y-80555771D02*
X152614285Y-80603390D01*
X152614285Y-80603390D02*
X152661904Y-80651009D01*
X152661904Y-80651009D02*
X152709523Y-80746247D01*
X152709523Y-80746247D02*
X152709523Y-80984342D01*
X152709523Y-80984342D02*
X152661904Y-81079580D01*
X152661904Y-81079580D02*
X152614285Y-81127200D01*
X152614285Y-81127200D02*
X152519047Y-81174819D01*
X152519047Y-81174819D02*
X152233333Y-81174819D01*
X152233333Y-81174819D02*
X152138095Y-81127200D01*
X152138095Y-81127200D02*
X152090476Y-81079580D01*
X153661904Y-81174819D02*
X153090476Y-81174819D01*
X153376190Y-81174819D02*
X153376190Y-80174819D01*
X153376190Y-80174819D02*
X153280952Y-80317676D01*
X153280952Y-80317676D02*
X153185714Y-80412914D01*
X153185714Y-80412914D02*
X153090476Y-80460533D01*
X204525714Y-91334819D02*
X204525714Y-90334819D01*
X204525714Y-90334819D02*
X204763809Y-90334819D01*
X204763809Y-90334819D02*
X204906666Y-90382438D01*
X204906666Y-90382438D02*
X205001904Y-90477676D01*
X205001904Y-90477676D02*
X205049523Y-90572914D01*
X205049523Y-90572914D02*
X205097142Y-90763390D01*
X205097142Y-90763390D02*
X205097142Y-90906247D01*
X205097142Y-90906247D02*
X205049523Y-91096723D01*
X205049523Y-91096723D02*
X205001904Y-91191961D01*
X205001904Y-91191961D02*
X204906666Y-91287200D01*
X204906666Y-91287200D02*
X204763809Y-91334819D01*
X204763809Y-91334819D02*
X204525714Y-91334819D01*
X206001904Y-90334819D02*
X205525714Y-90334819D01*
X205525714Y-90334819D02*
X205478095Y-90811009D01*
X205478095Y-90811009D02*
X205525714Y-90763390D01*
X205525714Y-90763390D02*
X205620952Y-90715771D01*
X205620952Y-90715771D02*
X205859047Y-90715771D01*
X205859047Y-90715771D02*
X205954285Y-90763390D01*
X205954285Y-90763390D02*
X206001904Y-90811009D01*
X206001904Y-90811009D02*
X206049523Y-90906247D01*
X206049523Y-90906247D02*
X206049523Y-91144342D01*
X206049523Y-91144342D02*
X206001904Y-91239580D01*
X206001904Y-91239580D02*
X205954285Y-91287200D01*
X205954285Y-91287200D02*
X205859047Y-91334819D01*
X205859047Y-91334819D02*
X205620952Y-91334819D01*
X205620952Y-91334819D02*
X205525714Y-91287200D01*
X205525714Y-91287200D02*
X205478095Y-91239580D01*
X206620952Y-90763390D02*
X206525714Y-90715771D01*
X206525714Y-90715771D02*
X206478095Y-90668152D01*
X206478095Y-90668152D02*
X206430476Y-90572914D01*
X206430476Y-90572914D02*
X206430476Y-90525295D01*
X206430476Y-90525295D02*
X206478095Y-90430057D01*
X206478095Y-90430057D02*
X206525714Y-90382438D01*
X206525714Y-90382438D02*
X206620952Y-90334819D01*
X206620952Y-90334819D02*
X206811428Y-90334819D01*
X206811428Y-90334819D02*
X206906666Y-90382438D01*
X206906666Y-90382438D02*
X206954285Y-90430057D01*
X206954285Y-90430057D02*
X207001904Y-90525295D01*
X207001904Y-90525295D02*
X207001904Y-90572914D01*
X207001904Y-90572914D02*
X206954285Y-90668152D01*
X206954285Y-90668152D02*
X206906666Y-90715771D01*
X206906666Y-90715771D02*
X206811428Y-90763390D01*
X206811428Y-90763390D02*
X206620952Y-90763390D01*
X206620952Y-90763390D02*
X206525714Y-90811009D01*
X206525714Y-90811009D02*
X206478095Y-90858628D01*
X206478095Y-90858628D02*
X206430476Y-90953866D01*
X206430476Y-90953866D02*
X206430476Y-91144342D01*
X206430476Y-91144342D02*
X206478095Y-91239580D01*
X206478095Y-91239580D02*
X206525714Y-91287200D01*
X206525714Y-91287200D02*
X206620952Y-91334819D01*
X206620952Y-91334819D02*
X206811428Y-91334819D01*
X206811428Y-91334819D02*
X206906666Y-91287200D01*
X206906666Y-91287200D02*
X206954285Y-91239580D01*
X206954285Y-91239580D02*
X207001904Y-91144342D01*
X207001904Y-91144342D02*
X207001904Y-90953866D01*
X207001904Y-90953866D02*
X206954285Y-90858628D01*
X206954285Y-90858628D02*
X206906666Y-90811009D01*
X206906666Y-90811009D02*
X206811428Y-90763390D01*
X174521905Y-59724819D02*
X174521905Y-58724819D01*
X174521905Y-58724819D02*
X174760000Y-58724819D01*
X174760000Y-58724819D02*
X174902857Y-58772438D01*
X174902857Y-58772438D02*
X174998095Y-58867676D01*
X174998095Y-58867676D02*
X175045714Y-58962914D01*
X175045714Y-58962914D02*
X175093333Y-59153390D01*
X175093333Y-59153390D02*
X175093333Y-59296247D01*
X175093333Y-59296247D02*
X175045714Y-59486723D01*
X175045714Y-59486723D02*
X174998095Y-59581961D01*
X174998095Y-59581961D02*
X174902857Y-59677200D01*
X174902857Y-59677200D02*
X174760000Y-59724819D01*
X174760000Y-59724819D02*
X174521905Y-59724819D01*
X175950476Y-59058152D02*
X175950476Y-59724819D01*
X175712381Y-58677200D02*
X175474286Y-59391485D01*
X175474286Y-59391485D02*
X176093333Y-59391485D01*
X212145714Y-86254819D02*
X212145714Y-85254819D01*
X212145714Y-85254819D02*
X212383809Y-85254819D01*
X212383809Y-85254819D02*
X212526666Y-85302438D01*
X212526666Y-85302438D02*
X212621904Y-85397676D01*
X212621904Y-85397676D02*
X212669523Y-85492914D01*
X212669523Y-85492914D02*
X212717142Y-85683390D01*
X212717142Y-85683390D02*
X212717142Y-85826247D01*
X212717142Y-85826247D02*
X212669523Y-86016723D01*
X212669523Y-86016723D02*
X212621904Y-86111961D01*
X212621904Y-86111961D02*
X212526666Y-86207200D01*
X212526666Y-86207200D02*
X212383809Y-86254819D01*
X212383809Y-86254819D02*
X212145714Y-86254819D01*
X213574285Y-85588152D02*
X213574285Y-86254819D01*
X213336190Y-85207200D02*
X213098095Y-85921485D01*
X213098095Y-85921485D02*
X213717142Y-85921485D01*
X214145714Y-86254819D02*
X214336190Y-86254819D01*
X214336190Y-86254819D02*
X214431428Y-86207200D01*
X214431428Y-86207200D02*
X214479047Y-86159580D01*
X214479047Y-86159580D02*
X214574285Y-86016723D01*
X214574285Y-86016723D02*
X214621904Y-85826247D01*
X214621904Y-85826247D02*
X214621904Y-85445295D01*
X214621904Y-85445295D02*
X214574285Y-85350057D01*
X214574285Y-85350057D02*
X214526666Y-85302438D01*
X214526666Y-85302438D02*
X214431428Y-85254819D01*
X214431428Y-85254819D02*
X214240952Y-85254819D01*
X214240952Y-85254819D02*
X214145714Y-85302438D01*
X214145714Y-85302438D02*
X214098095Y-85350057D01*
X214098095Y-85350057D02*
X214050476Y-85445295D01*
X214050476Y-85445295D02*
X214050476Y-85683390D01*
X214050476Y-85683390D02*
X214098095Y-85778628D01*
X214098095Y-85778628D02*
X214145714Y-85826247D01*
X214145714Y-85826247D02*
X214240952Y-85873866D01*
X214240952Y-85873866D02*
X214431428Y-85873866D01*
X214431428Y-85873866D02*
X214526666Y-85826247D01*
X214526666Y-85826247D02*
X214574285Y-85778628D01*
X214574285Y-85778628D02*
X214621904Y-85683390D01*
X229108095Y-152684819D02*
X229108095Y-151684819D01*
X229108095Y-152161009D02*
X229679523Y-152161009D01*
X229679523Y-152684819D02*
X229679523Y-151684819D01*
X230060476Y-151684819D02*
X230679523Y-151684819D01*
X230679523Y-151684819D02*
X230346190Y-152065771D01*
X230346190Y-152065771D02*
X230489047Y-152065771D01*
X230489047Y-152065771D02*
X230584285Y-152113390D01*
X230584285Y-152113390D02*
X230631904Y-152161009D01*
X230631904Y-152161009D02*
X230679523Y-152256247D01*
X230679523Y-152256247D02*
X230679523Y-152494342D01*
X230679523Y-152494342D02*
X230631904Y-152589580D01*
X230631904Y-152589580D02*
X230584285Y-152637200D01*
X230584285Y-152637200D02*
X230489047Y-152684819D01*
X230489047Y-152684819D02*
X230203333Y-152684819D01*
X230203333Y-152684819D02*
X230108095Y-152637200D01*
X230108095Y-152637200D02*
X230060476Y-152589580D01*
X189285714Y-76094819D02*
X189285714Y-75094819D01*
X189285714Y-75094819D02*
X189523809Y-75094819D01*
X189523809Y-75094819D02*
X189666666Y-75142438D01*
X189666666Y-75142438D02*
X189761904Y-75237676D01*
X189761904Y-75237676D02*
X189809523Y-75332914D01*
X189809523Y-75332914D02*
X189857142Y-75523390D01*
X189857142Y-75523390D02*
X189857142Y-75666247D01*
X189857142Y-75666247D02*
X189809523Y-75856723D01*
X189809523Y-75856723D02*
X189761904Y-75951961D01*
X189761904Y-75951961D02*
X189666666Y-76047200D01*
X189666666Y-76047200D02*
X189523809Y-76094819D01*
X189523809Y-76094819D02*
X189285714Y-76094819D01*
X190238095Y-75190057D02*
X190285714Y-75142438D01*
X190285714Y-75142438D02*
X190380952Y-75094819D01*
X190380952Y-75094819D02*
X190619047Y-75094819D01*
X190619047Y-75094819D02*
X190714285Y-75142438D01*
X190714285Y-75142438D02*
X190761904Y-75190057D01*
X190761904Y-75190057D02*
X190809523Y-75285295D01*
X190809523Y-75285295D02*
X190809523Y-75380533D01*
X190809523Y-75380533D02*
X190761904Y-75523390D01*
X190761904Y-75523390D02*
X190190476Y-76094819D01*
X190190476Y-76094819D02*
X190809523Y-76094819D01*
X191666666Y-75094819D02*
X191476190Y-75094819D01*
X191476190Y-75094819D02*
X191380952Y-75142438D01*
X191380952Y-75142438D02*
X191333333Y-75190057D01*
X191333333Y-75190057D02*
X191238095Y-75332914D01*
X191238095Y-75332914D02*
X191190476Y-75523390D01*
X191190476Y-75523390D02*
X191190476Y-75904342D01*
X191190476Y-75904342D02*
X191238095Y-75999580D01*
X191238095Y-75999580D02*
X191285714Y-76047200D01*
X191285714Y-76047200D02*
X191380952Y-76094819D01*
X191380952Y-76094819D02*
X191571428Y-76094819D01*
X191571428Y-76094819D02*
X191666666Y-76047200D01*
X191666666Y-76047200D02*
X191714285Y-75999580D01*
X191714285Y-75999580D02*
X191761904Y-75904342D01*
X191761904Y-75904342D02*
X191761904Y-75666247D01*
X191761904Y-75666247D02*
X191714285Y-75571009D01*
X191714285Y-75571009D02*
X191666666Y-75523390D01*
X191666666Y-75523390D02*
X191571428Y-75475771D01*
X191571428Y-75475771D02*
X191380952Y-75475771D01*
X191380952Y-75475771D02*
X191285714Y-75523390D01*
X191285714Y-75523390D02*
X191238095Y-75571009D01*
X191238095Y-75571009D02*
X191190476Y-75666247D01*
X204525714Y-96414819D02*
X204525714Y-95414819D01*
X204525714Y-95414819D02*
X204763809Y-95414819D01*
X204763809Y-95414819D02*
X204906666Y-95462438D01*
X204906666Y-95462438D02*
X205001904Y-95557676D01*
X205001904Y-95557676D02*
X205049523Y-95652914D01*
X205049523Y-95652914D02*
X205097142Y-95843390D01*
X205097142Y-95843390D02*
X205097142Y-95986247D01*
X205097142Y-95986247D02*
X205049523Y-96176723D01*
X205049523Y-96176723D02*
X205001904Y-96271961D01*
X205001904Y-96271961D02*
X204906666Y-96367200D01*
X204906666Y-96367200D02*
X204763809Y-96414819D01*
X204763809Y-96414819D02*
X204525714Y-96414819D01*
X205954285Y-95414819D02*
X205763809Y-95414819D01*
X205763809Y-95414819D02*
X205668571Y-95462438D01*
X205668571Y-95462438D02*
X205620952Y-95510057D01*
X205620952Y-95510057D02*
X205525714Y-95652914D01*
X205525714Y-95652914D02*
X205478095Y-95843390D01*
X205478095Y-95843390D02*
X205478095Y-96224342D01*
X205478095Y-96224342D02*
X205525714Y-96319580D01*
X205525714Y-96319580D02*
X205573333Y-96367200D01*
X205573333Y-96367200D02*
X205668571Y-96414819D01*
X205668571Y-96414819D02*
X205859047Y-96414819D01*
X205859047Y-96414819D02*
X205954285Y-96367200D01*
X205954285Y-96367200D02*
X206001904Y-96319580D01*
X206001904Y-96319580D02*
X206049523Y-96224342D01*
X206049523Y-96224342D02*
X206049523Y-95986247D01*
X206049523Y-95986247D02*
X206001904Y-95891009D01*
X206001904Y-95891009D02*
X205954285Y-95843390D01*
X205954285Y-95843390D02*
X205859047Y-95795771D01*
X205859047Y-95795771D02*
X205668571Y-95795771D01*
X205668571Y-95795771D02*
X205573333Y-95843390D01*
X205573333Y-95843390D02*
X205525714Y-95891009D01*
X205525714Y-95891009D02*
X205478095Y-95986247D01*
X206620952Y-95843390D02*
X206525714Y-95795771D01*
X206525714Y-95795771D02*
X206478095Y-95748152D01*
X206478095Y-95748152D02*
X206430476Y-95652914D01*
X206430476Y-95652914D02*
X206430476Y-95605295D01*
X206430476Y-95605295D02*
X206478095Y-95510057D01*
X206478095Y-95510057D02*
X206525714Y-95462438D01*
X206525714Y-95462438D02*
X206620952Y-95414819D01*
X206620952Y-95414819D02*
X206811428Y-95414819D01*
X206811428Y-95414819D02*
X206906666Y-95462438D01*
X206906666Y-95462438D02*
X206954285Y-95510057D01*
X206954285Y-95510057D02*
X207001904Y-95605295D01*
X207001904Y-95605295D02*
X207001904Y-95652914D01*
X207001904Y-95652914D02*
X206954285Y-95748152D01*
X206954285Y-95748152D02*
X206906666Y-95795771D01*
X206906666Y-95795771D02*
X206811428Y-95843390D01*
X206811428Y-95843390D02*
X206620952Y-95843390D01*
X206620952Y-95843390D02*
X206525714Y-95891009D01*
X206525714Y-95891009D02*
X206478095Y-95938628D01*
X206478095Y-95938628D02*
X206430476Y-96033866D01*
X206430476Y-96033866D02*
X206430476Y-96224342D01*
X206430476Y-96224342D02*
X206478095Y-96319580D01*
X206478095Y-96319580D02*
X206525714Y-96367200D01*
X206525714Y-96367200D02*
X206620952Y-96414819D01*
X206620952Y-96414819D02*
X206811428Y-96414819D01*
X206811428Y-96414819D02*
X206906666Y-96367200D01*
X206906666Y-96367200D02*
X206954285Y-96319580D01*
X206954285Y-96319580D02*
X207001904Y-96224342D01*
X207001904Y-96224342D02*
X207001904Y-96033866D01*
X207001904Y-96033866D02*
X206954285Y-95938628D01*
X206954285Y-95938628D02*
X206906666Y-95891009D01*
X206906666Y-95891009D02*
X206811428Y-95843390D01*
X229108095Y-57434819D02*
X229108095Y-56434819D01*
X229108095Y-56911009D02*
X229679523Y-56911009D01*
X229679523Y-57434819D02*
X229679523Y-56434819D01*
X230108095Y-56530057D02*
X230155714Y-56482438D01*
X230155714Y-56482438D02*
X230250952Y-56434819D01*
X230250952Y-56434819D02*
X230489047Y-56434819D01*
X230489047Y-56434819D02*
X230584285Y-56482438D01*
X230584285Y-56482438D02*
X230631904Y-56530057D01*
X230631904Y-56530057D02*
X230679523Y-56625295D01*
X230679523Y-56625295D02*
X230679523Y-56720533D01*
X230679523Y-56720533D02*
X230631904Y-56863390D01*
X230631904Y-56863390D02*
X230060476Y-57434819D01*
X230060476Y-57434819D02*
X230679523Y-57434819D01*
X151185714Y-91334819D02*
X151185714Y-90334819D01*
X151185714Y-90334819D02*
X151423809Y-90334819D01*
X151423809Y-90334819D02*
X151566666Y-90382438D01*
X151566666Y-90382438D02*
X151661904Y-90477676D01*
X151661904Y-90477676D02*
X151709523Y-90572914D01*
X151709523Y-90572914D02*
X151757142Y-90763390D01*
X151757142Y-90763390D02*
X151757142Y-90906247D01*
X151757142Y-90906247D02*
X151709523Y-91096723D01*
X151709523Y-91096723D02*
X151661904Y-91191961D01*
X151661904Y-91191961D02*
X151566666Y-91287200D01*
X151566666Y-91287200D02*
X151423809Y-91334819D01*
X151423809Y-91334819D02*
X151185714Y-91334819D01*
X152661904Y-90334819D02*
X152185714Y-90334819D01*
X152185714Y-90334819D02*
X152138095Y-90811009D01*
X152138095Y-90811009D02*
X152185714Y-90763390D01*
X152185714Y-90763390D02*
X152280952Y-90715771D01*
X152280952Y-90715771D02*
X152519047Y-90715771D01*
X152519047Y-90715771D02*
X152614285Y-90763390D01*
X152614285Y-90763390D02*
X152661904Y-90811009D01*
X152661904Y-90811009D02*
X152709523Y-90906247D01*
X152709523Y-90906247D02*
X152709523Y-91144342D01*
X152709523Y-91144342D02*
X152661904Y-91239580D01*
X152661904Y-91239580D02*
X152614285Y-91287200D01*
X152614285Y-91287200D02*
X152519047Y-91334819D01*
X152519047Y-91334819D02*
X152280952Y-91334819D01*
X152280952Y-91334819D02*
X152185714Y-91287200D01*
X152185714Y-91287200D02*
X152138095Y-91239580D01*
X153661904Y-91334819D02*
X153090476Y-91334819D01*
X153376190Y-91334819D02*
X153376190Y-90334819D01*
X153376190Y-90334819D02*
X153280952Y-90477676D01*
X153280952Y-90477676D02*
X153185714Y-90572914D01*
X153185714Y-90572914D02*
X153090476Y-90620533D01*
X189285714Y-96414819D02*
X189285714Y-95414819D01*
X189285714Y-95414819D02*
X189523809Y-95414819D01*
X189523809Y-95414819D02*
X189666666Y-95462438D01*
X189666666Y-95462438D02*
X189761904Y-95557676D01*
X189761904Y-95557676D02*
X189809523Y-95652914D01*
X189809523Y-95652914D02*
X189857142Y-95843390D01*
X189857142Y-95843390D02*
X189857142Y-95986247D01*
X189857142Y-95986247D02*
X189809523Y-96176723D01*
X189809523Y-96176723D02*
X189761904Y-96271961D01*
X189761904Y-96271961D02*
X189666666Y-96367200D01*
X189666666Y-96367200D02*
X189523809Y-96414819D01*
X189523809Y-96414819D02*
X189285714Y-96414819D01*
X190714285Y-95414819D02*
X190523809Y-95414819D01*
X190523809Y-95414819D02*
X190428571Y-95462438D01*
X190428571Y-95462438D02*
X190380952Y-95510057D01*
X190380952Y-95510057D02*
X190285714Y-95652914D01*
X190285714Y-95652914D02*
X190238095Y-95843390D01*
X190238095Y-95843390D02*
X190238095Y-96224342D01*
X190238095Y-96224342D02*
X190285714Y-96319580D01*
X190285714Y-96319580D02*
X190333333Y-96367200D01*
X190333333Y-96367200D02*
X190428571Y-96414819D01*
X190428571Y-96414819D02*
X190619047Y-96414819D01*
X190619047Y-96414819D02*
X190714285Y-96367200D01*
X190714285Y-96367200D02*
X190761904Y-96319580D01*
X190761904Y-96319580D02*
X190809523Y-96224342D01*
X190809523Y-96224342D02*
X190809523Y-95986247D01*
X190809523Y-95986247D02*
X190761904Y-95891009D01*
X190761904Y-95891009D02*
X190714285Y-95843390D01*
X190714285Y-95843390D02*
X190619047Y-95795771D01*
X190619047Y-95795771D02*
X190428571Y-95795771D01*
X190428571Y-95795771D02*
X190333333Y-95843390D01*
X190333333Y-95843390D02*
X190285714Y-95891009D01*
X190285714Y-95891009D02*
X190238095Y-95986247D01*
X191666666Y-95414819D02*
X191476190Y-95414819D01*
X191476190Y-95414819D02*
X191380952Y-95462438D01*
X191380952Y-95462438D02*
X191333333Y-95510057D01*
X191333333Y-95510057D02*
X191238095Y-95652914D01*
X191238095Y-95652914D02*
X191190476Y-95843390D01*
X191190476Y-95843390D02*
X191190476Y-96224342D01*
X191190476Y-96224342D02*
X191238095Y-96319580D01*
X191238095Y-96319580D02*
X191285714Y-96367200D01*
X191285714Y-96367200D02*
X191380952Y-96414819D01*
X191380952Y-96414819D02*
X191571428Y-96414819D01*
X191571428Y-96414819D02*
X191666666Y-96367200D01*
X191666666Y-96367200D02*
X191714285Y-96319580D01*
X191714285Y-96319580D02*
X191761904Y-96224342D01*
X191761904Y-96224342D02*
X191761904Y-95986247D01*
X191761904Y-95986247D02*
X191714285Y-95891009D01*
X191714285Y-95891009D02*
X191666666Y-95843390D01*
X191666666Y-95843390D02*
X191571428Y-95795771D01*
X191571428Y-95795771D02*
X191380952Y-95795771D01*
X191380952Y-95795771D02*
X191285714Y-95843390D01*
X191285714Y-95843390D02*
X191238095Y-95891009D01*
X191238095Y-95891009D02*
X191190476Y-95986247D01*
X158805714Y-96414819D02*
X158805714Y-95414819D01*
X158805714Y-95414819D02*
X159043809Y-95414819D01*
X159043809Y-95414819D02*
X159186666Y-95462438D01*
X159186666Y-95462438D02*
X159281904Y-95557676D01*
X159281904Y-95557676D02*
X159329523Y-95652914D01*
X159329523Y-95652914D02*
X159377142Y-95843390D01*
X159377142Y-95843390D02*
X159377142Y-95986247D01*
X159377142Y-95986247D02*
X159329523Y-96176723D01*
X159329523Y-96176723D02*
X159281904Y-96271961D01*
X159281904Y-96271961D02*
X159186666Y-96367200D01*
X159186666Y-96367200D02*
X159043809Y-96414819D01*
X159043809Y-96414819D02*
X158805714Y-96414819D01*
X160234285Y-95414819D02*
X160043809Y-95414819D01*
X160043809Y-95414819D02*
X159948571Y-95462438D01*
X159948571Y-95462438D02*
X159900952Y-95510057D01*
X159900952Y-95510057D02*
X159805714Y-95652914D01*
X159805714Y-95652914D02*
X159758095Y-95843390D01*
X159758095Y-95843390D02*
X159758095Y-96224342D01*
X159758095Y-96224342D02*
X159805714Y-96319580D01*
X159805714Y-96319580D02*
X159853333Y-96367200D01*
X159853333Y-96367200D02*
X159948571Y-96414819D01*
X159948571Y-96414819D02*
X160139047Y-96414819D01*
X160139047Y-96414819D02*
X160234285Y-96367200D01*
X160234285Y-96367200D02*
X160281904Y-96319580D01*
X160281904Y-96319580D02*
X160329523Y-96224342D01*
X160329523Y-96224342D02*
X160329523Y-95986247D01*
X160329523Y-95986247D02*
X160281904Y-95891009D01*
X160281904Y-95891009D02*
X160234285Y-95843390D01*
X160234285Y-95843390D02*
X160139047Y-95795771D01*
X160139047Y-95795771D02*
X159948571Y-95795771D01*
X159948571Y-95795771D02*
X159853333Y-95843390D01*
X159853333Y-95843390D02*
X159805714Y-95891009D01*
X159805714Y-95891009D02*
X159758095Y-95986247D01*
X160710476Y-95510057D02*
X160758095Y-95462438D01*
X160758095Y-95462438D02*
X160853333Y-95414819D01*
X160853333Y-95414819D02*
X161091428Y-95414819D01*
X161091428Y-95414819D02*
X161186666Y-95462438D01*
X161186666Y-95462438D02*
X161234285Y-95510057D01*
X161234285Y-95510057D02*
X161281904Y-95605295D01*
X161281904Y-95605295D02*
X161281904Y-95700533D01*
X161281904Y-95700533D02*
X161234285Y-95843390D01*
X161234285Y-95843390D02*
X160662857Y-96414819D01*
X160662857Y-96414819D02*
X161281904Y-96414819D01*
X204525714Y-81174819D02*
X204525714Y-80174819D01*
X204525714Y-80174819D02*
X204763809Y-80174819D01*
X204763809Y-80174819D02*
X204906666Y-80222438D01*
X204906666Y-80222438D02*
X205001904Y-80317676D01*
X205001904Y-80317676D02*
X205049523Y-80412914D01*
X205049523Y-80412914D02*
X205097142Y-80603390D01*
X205097142Y-80603390D02*
X205097142Y-80746247D01*
X205097142Y-80746247D02*
X205049523Y-80936723D01*
X205049523Y-80936723D02*
X205001904Y-81031961D01*
X205001904Y-81031961D02*
X204906666Y-81127200D01*
X204906666Y-81127200D02*
X204763809Y-81174819D01*
X204763809Y-81174819D02*
X204525714Y-81174819D01*
X205430476Y-80174819D02*
X206049523Y-80174819D01*
X206049523Y-80174819D02*
X205716190Y-80555771D01*
X205716190Y-80555771D02*
X205859047Y-80555771D01*
X205859047Y-80555771D02*
X205954285Y-80603390D01*
X205954285Y-80603390D02*
X206001904Y-80651009D01*
X206001904Y-80651009D02*
X206049523Y-80746247D01*
X206049523Y-80746247D02*
X206049523Y-80984342D01*
X206049523Y-80984342D02*
X206001904Y-81079580D01*
X206001904Y-81079580D02*
X205954285Y-81127200D01*
X205954285Y-81127200D02*
X205859047Y-81174819D01*
X205859047Y-81174819D02*
X205573333Y-81174819D01*
X205573333Y-81174819D02*
X205478095Y-81127200D01*
X205478095Y-81127200D02*
X205430476Y-81079580D01*
X206620952Y-80603390D02*
X206525714Y-80555771D01*
X206525714Y-80555771D02*
X206478095Y-80508152D01*
X206478095Y-80508152D02*
X206430476Y-80412914D01*
X206430476Y-80412914D02*
X206430476Y-80365295D01*
X206430476Y-80365295D02*
X206478095Y-80270057D01*
X206478095Y-80270057D02*
X206525714Y-80222438D01*
X206525714Y-80222438D02*
X206620952Y-80174819D01*
X206620952Y-80174819D02*
X206811428Y-80174819D01*
X206811428Y-80174819D02*
X206906666Y-80222438D01*
X206906666Y-80222438D02*
X206954285Y-80270057D01*
X206954285Y-80270057D02*
X207001904Y-80365295D01*
X207001904Y-80365295D02*
X207001904Y-80412914D01*
X207001904Y-80412914D02*
X206954285Y-80508152D01*
X206954285Y-80508152D02*
X206906666Y-80555771D01*
X206906666Y-80555771D02*
X206811428Y-80603390D01*
X206811428Y-80603390D02*
X206620952Y-80603390D01*
X206620952Y-80603390D02*
X206525714Y-80651009D01*
X206525714Y-80651009D02*
X206478095Y-80698628D01*
X206478095Y-80698628D02*
X206430476Y-80793866D01*
X206430476Y-80793866D02*
X206430476Y-80984342D01*
X206430476Y-80984342D02*
X206478095Y-81079580D01*
X206478095Y-81079580D02*
X206525714Y-81127200D01*
X206525714Y-81127200D02*
X206620952Y-81174819D01*
X206620952Y-81174819D02*
X206811428Y-81174819D01*
X206811428Y-81174819D02*
X206906666Y-81127200D01*
X206906666Y-81127200D02*
X206954285Y-81079580D01*
X206954285Y-81079580D02*
X207001904Y-80984342D01*
X207001904Y-80984342D02*
X207001904Y-80793866D01*
X207001904Y-80793866D02*
X206954285Y-80698628D01*
X206954285Y-80698628D02*
X206906666Y-80651009D01*
X206906666Y-80651009D02*
X206811428Y-80603390D01*
X189285714Y-81174819D02*
X189285714Y-80174819D01*
X189285714Y-80174819D02*
X189523809Y-80174819D01*
X189523809Y-80174819D02*
X189666666Y-80222438D01*
X189666666Y-80222438D02*
X189761904Y-80317676D01*
X189761904Y-80317676D02*
X189809523Y-80412914D01*
X189809523Y-80412914D02*
X189857142Y-80603390D01*
X189857142Y-80603390D02*
X189857142Y-80746247D01*
X189857142Y-80746247D02*
X189809523Y-80936723D01*
X189809523Y-80936723D02*
X189761904Y-81031961D01*
X189761904Y-81031961D02*
X189666666Y-81127200D01*
X189666666Y-81127200D02*
X189523809Y-81174819D01*
X189523809Y-81174819D02*
X189285714Y-81174819D01*
X190190476Y-80174819D02*
X190809523Y-80174819D01*
X190809523Y-80174819D02*
X190476190Y-80555771D01*
X190476190Y-80555771D02*
X190619047Y-80555771D01*
X190619047Y-80555771D02*
X190714285Y-80603390D01*
X190714285Y-80603390D02*
X190761904Y-80651009D01*
X190761904Y-80651009D02*
X190809523Y-80746247D01*
X190809523Y-80746247D02*
X190809523Y-80984342D01*
X190809523Y-80984342D02*
X190761904Y-81079580D01*
X190761904Y-81079580D02*
X190714285Y-81127200D01*
X190714285Y-81127200D02*
X190619047Y-81174819D01*
X190619047Y-81174819D02*
X190333333Y-81174819D01*
X190333333Y-81174819D02*
X190238095Y-81127200D01*
X190238095Y-81127200D02*
X190190476Y-81079580D01*
X191666666Y-80174819D02*
X191476190Y-80174819D01*
X191476190Y-80174819D02*
X191380952Y-80222438D01*
X191380952Y-80222438D02*
X191333333Y-80270057D01*
X191333333Y-80270057D02*
X191238095Y-80412914D01*
X191238095Y-80412914D02*
X191190476Y-80603390D01*
X191190476Y-80603390D02*
X191190476Y-80984342D01*
X191190476Y-80984342D02*
X191238095Y-81079580D01*
X191238095Y-81079580D02*
X191285714Y-81127200D01*
X191285714Y-81127200D02*
X191380952Y-81174819D01*
X191380952Y-81174819D02*
X191571428Y-81174819D01*
X191571428Y-81174819D02*
X191666666Y-81127200D01*
X191666666Y-81127200D02*
X191714285Y-81079580D01*
X191714285Y-81079580D02*
X191761904Y-80984342D01*
X191761904Y-80984342D02*
X191761904Y-80746247D01*
X191761904Y-80746247D02*
X191714285Y-80651009D01*
X191714285Y-80651009D02*
X191666666Y-80603390D01*
X191666666Y-80603390D02*
X191571428Y-80555771D01*
X191571428Y-80555771D02*
X191380952Y-80555771D01*
X191380952Y-80555771D02*
X191285714Y-80603390D01*
X191285714Y-80603390D02*
X191238095Y-80651009D01*
X191238095Y-80651009D02*
X191190476Y-80746247D01*
X182141905Y-59724819D02*
X182141905Y-58724819D01*
X182141905Y-58724819D02*
X182380000Y-58724819D01*
X182380000Y-58724819D02*
X182522857Y-58772438D01*
X182522857Y-58772438D02*
X182618095Y-58867676D01*
X182618095Y-58867676D02*
X182665714Y-58962914D01*
X182665714Y-58962914D02*
X182713333Y-59153390D01*
X182713333Y-59153390D02*
X182713333Y-59296247D01*
X182713333Y-59296247D02*
X182665714Y-59486723D01*
X182665714Y-59486723D02*
X182618095Y-59581961D01*
X182618095Y-59581961D02*
X182522857Y-59677200D01*
X182522857Y-59677200D02*
X182380000Y-59724819D01*
X182380000Y-59724819D02*
X182141905Y-59724819D01*
X183618095Y-58724819D02*
X183141905Y-58724819D01*
X183141905Y-58724819D02*
X183094286Y-59201009D01*
X183094286Y-59201009D02*
X183141905Y-59153390D01*
X183141905Y-59153390D02*
X183237143Y-59105771D01*
X183237143Y-59105771D02*
X183475238Y-59105771D01*
X183475238Y-59105771D02*
X183570476Y-59153390D01*
X183570476Y-59153390D02*
X183618095Y-59201009D01*
X183618095Y-59201009D02*
X183665714Y-59296247D01*
X183665714Y-59296247D02*
X183665714Y-59534342D01*
X183665714Y-59534342D02*
X183618095Y-59629580D01*
X183618095Y-59629580D02*
X183570476Y-59677200D01*
X183570476Y-59677200D02*
X183475238Y-59724819D01*
X183475238Y-59724819D02*
X183237143Y-59724819D01*
X183237143Y-59724819D02*
X183141905Y-59677200D01*
X183141905Y-59677200D02*
X183094286Y-59629580D01*
X219765714Y-76094819D02*
X219765714Y-75094819D01*
X219765714Y-75094819D02*
X220003809Y-75094819D01*
X220003809Y-75094819D02*
X220146666Y-75142438D01*
X220146666Y-75142438D02*
X220241904Y-75237676D01*
X220241904Y-75237676D02*
X220289523Y-75332914D01*
X220289523Y-75332914D02*
X220337142Y-75523390D01*
X220337142Y-75523390D02*
X220337142Y-75666247D01*
X220337142Y-75666247D02*
X220289523Y-75856723D01*
X220289523Y-75856723D02*
X220241904Y-75951961D01*
X220241904Y-75951961D02*
X220146666Y-76047200D01*
X220146666Y-76047200D02*
X220003809Y-76094819D01*
X220003809Y-76094819D02*
X219765714Y-76094819D01*
X220670476Y-75094819D02*
X221289523Y-75094819D01*
X221289523Y-75094819D02*
X220956190Y-75475771D01*
X220956190Y-75475771D02*
X221099047Y-75475771D01*
X221099047Y-75475771D02*
X221194285Y-75523390D01*
X221194285Y-75523390D02*
X221241904Y-75571009D01*
X221241904Y-75571009D02*
X221289523Y-75666247D01*
X221289523Y-75666247D02*
X221289523Y-75904342D01*
X221289523Y-75904342D02*
X221241904Y-75999580D01*
X221241904Y-75999580D02*
X221194285Y-76047200D01*
X221194285Y-76047200D02*
X221099047Y-76094819D01*
X221099047Y-76094819D02*
X220813333Y-76094819D01*
X220813333Y-76094819D02*
X220718095Y-76047200D01*
X220718095Y-76047200D02*
X220670476Y-75999580D01*
X221908571Y-75094819D02*
X222003809Y-75094819D01*
X222003809Y-75094819D02*
X222099047Y-75142438D01*
X222099047Y-75142438D02*
X222146666Y-75190057D01*
X222146666Y-75190057D02*
X222194285Y-75285295D01*
X222194285Y-75285295D02*
X222241904Y-75475771D01*
X222241904Y-75475771D02*
X222241904Y-75713866D01*
X222241904Y-75713866D02*
X222194285Y-75904342D01*
X222194285Y-75904342D02*
X222146666Y-75999580D01*
X222146666Y-75999580D02*
X222099047Y-76047200D01*
X222099047Y-76047200D02*
X222003809Y-76094819D01*
X222003809Y-76094819D02*
X221908571Y-76094819D01*
X221908571Y-76094819D02*
X221813333Y-76047200D01*
X221813333Y-76047200D02*
X221765714Y-75999580D01*
X221765714Y-75999580D02*
X221718095Y-75904342D01*
X221718095Y-75904342D02*
X221670476Y-75713866D01*
X221670476Y-75713866D02*
X221670476Y-75475771D01*
X221670476Y-75475771D02*
X221718095Y-75285295D01*
X221718095Y-75285295D02*
X221765714Y-75190057D01*
X221765714Y-75190057D02*
X221813333Y-75142438D01*
X221813333Y-75142438D02*
X221908571Y-75094819D01*
X181665714Y-96414819D02*
X181665714Y-95414819D01*
X181665714Y-95414819D02*
X181903809Y-95414819D01*
X181903809Y-95414819D02*
X182046666Y-95462438D01*
X182046666Y-95462438D02*
X182141904Y-95557676D01*
X182141904Y-95557676D02*
X182189523Y-95652914D01*
X182189523Y-95652914D02*
X182237142Y-95843390D01*
X182237142Y-95843390D02*
X182237142Y-95986247D01*
X182237142Y-95986247D02*
X182189523Y-96176723D01*
X182189523Y-96176723D02*
X182141904Y-96271961D01*
X182141904Y-96271961D02*
X182046666Y-96367200D01*
X182046666Y-96367200D02*
X181903809Y-96414819D01*
X181903809Y-96414819D02*
X181665714Y-96414819D01*
X183094285Y-95414819D02*
X182903809Y-95414819D01*
X182903809Y-95414819D02*
X182808571Y-95462438D01*
X182808571Y-95462438D02*
X182760952Y-95510057D01*
X182760952Y-95510057D02*
X182665714Y-95652914D01*
X182665714Y-95652914D02*
X182618095Y-95843390D01*
X182618095Y-95843390D02*
X182618095Y-96224342D01*
X182618095Y-96224342D02*
X182665714Y-96319580D01*
X182665714Y-96319580D02*
X182713333Y-96367200D01*
X182713333Y-96367200D02*
X182808571Y-96414819D01*
X182808571Y-96414819D02*
X182999047Y-96414819D01*
X182999047Y-96414819D02*
X183094285Y-96367200D01*
X183094285Y-96367200D02*
X183141904Y-96319580D01*
X183141904Y-96319580D02*
X183189523Y-96224342D01*
X183189523Y-96224342D02*
X183189523Y-95986247D01*
X183189523Y-95986247D02*
X183141904Y-95891009D01*
X183141904Y-95891009D02*
X183094285Y-95843390D01*
X183094285Y-95843390D02*
X182999047Y-95795771D01*
X182999047Y-95795771D02*
X182808571Y-95795771D01*
X182808571Y-95795771D02*
X182713333Y-95843390D01*
X182713333Y-95843390D02*
X182665714Y-95891009D01*
X182665714Y-95891009D02*
X182618095Y-95986247D01*
X184094285Y-95414819D02*
X183618095Y-95414819D01*
X183618095Y-95414819D02*
X183570476Y-95891009D01*
X183570476Y-95891009D02*
X183618095Y-95843390D01*
X183618095Y-95843390D02*
X183713333Y-95795771D01*
X183713333Y-95795771D02*
X183951428Y-95795771D01*
X183951428Y-95795771D02*
X184046666Y-95843390D01*
X184046666Y-95843390D02*
X184094285Y-95891009D01*
X184094285Y-95891009D02*
X184141904Y-95986247D01*
X184141904Y-95986247D02*
X184141904Y-96224342D01*
X184141904Y-96224342D02*
X184094285Y-96319580D01*
X184094285Y-96319580D02*
X184046666Y-96367200D01*
X184046666Y-96367200D02*
X183951428Y-96414819D01*
X183951428Y-96414819D02*
X183713333Y-96414819D01*
X183713333Y-96414819D02*
X183618095Y-96367200D01*
X183618095Y-96367200D02*
X183570476Y-96319580D01*
X219765714Y-91334819D02*
X219765714Y-90334819D01*
X219765714Y-90334819D02*
X220003809Y-90334819D01*
X220003809Y-90334819D02*
X220146666Y-90382438D01*
X220146666Y-90382438D02*
X220241904Y-90477676D01*
X220241904Y-90477676D02*
X220289523Y-90572914D01*
X220289523Y-90572914D02*
X220337142Y-90763390D01*
X220337142Y-90763390D02*
X220337142Y-90906247D01*
X220337142Y-90906247D02*
X220289523Y-91096723D01*
X220289523Y-91096723D02*
X220241904Y-91191961D01*
X220241904Y-91191961D02*
X220146666Y-91287200D01*
X220146666Y-91287200D02*
X220003809Y-91334819D01*
X220003809Y-91334819D02*
X219765714Y-91334819D01*
X221194285Y-90334819D02*
X221003809Y-90334819D01*
X221003809Y-90334819D02*
X220908571Y-90382438D01*
X220908571Y-90382438D02*
X220860952Y-90430057D01*
X220860952Y-90430057D02*
X220765714Y-90572914D01*
X220765714Y-90572914D02*
X220718095Y-90763390D01*
X220718095Y-90763390D02*
X220718095Y-91144342D01*
X220718095Y-91144342D02*
X220765714Y-91239580D01*
X220765714Y-91239580D02*
X220813333Y-91287200D01*
X220813333Y-91287200D02*
X220908571Y-91334819D01*
X220908571Y-91334819D02*
X221099047Y-91334819D01*
X221099047Y-91334819D02*
X221194285Y-91287200D01*
X221194285Y-91287200D02*
X221241904Y-91239580D01*
X221241904Y-91239580D02*
X221289523Y-91144342D01*
X221289523Y-91144342D02*
X221289523Y-90906247D01*
X221289523Y-90906247D02*
X221241904Y-90811009D01*
X221241904Y-90811009D02*
X221194285Y-90763390D01*
X221194285Y-90763390D02*
X221099047Y-90715771D01*
X221099047Y-90715771D02*
X220908571Y-90715771D01*
X220908571Y-90715771D02*
X220813333Y-90763390D01*
X220813333Y-90763390D02*
X220765714Y-90811009D01*
X220765714Y-90811009D02*
X220718095Y-90906247D01*
X221908571Y-90334819D02*
X222003809Y-90334819D01*
X222003809Y-90334819D02*
X222099047Y-90382438D01*
X222099047Y-90382438D02*
X222146666Y-90430057D01*
X222146666Y-90430057D02*
X222194285Y-90525295D01*
X222194285Y-90525295D02*
X222241904Y-90715771D01*
X222241904Y-90715771D02*
X222241904Y-90953866D01*
X222241904Y-90953866D02*
X222194285Y-91144342D01*
X222194285Y-91144342D02*
X222146666Y-91239580D01*
X222146666Y-91239580D02*
X222099047Y-91287200D01*
X222099047Y-91287200D02*
X222003809Y-91334819D01*
X222003809Y-91334819D02*
X221908571Y-91334819D01*
X221908571Y-91334819D02*
X221813333Y-91287200D01*
X221813333Y-91287200D02*
X221765714Y-91239580D01*
X221765714Y-91239580D02*
X221718095Y-91144342D01*
X221718095Y-91144342D02*
X221670476Y-90953866D01*
X221670476Y-90953866D02*
X221670476Y-90715771D01*
X221670476Y-90715771D02*
X221718095Y-90525295D01*
X221718095Y-90525295D02*
X221765714Y-90430057D01*
X221765714Y-90430057D02*
X221813333Y-90382438D01*
X221813333Y-90382438D02*
X221908571Y-90334819D01*
X174045714Y-91334819D02*
X174045714Y-90334819D01*
X174045714Y-90334819D02*
X174283809Y-90334819D01*
X174283809Y-90334819D02*
X174426666Y-90382438D01*
X174426666Y-90382438D02*
X174521904Y-90477676D01*
X174521904Y-90477676D02*
X174569523Y-90572914D01*
X174569523Y-90572914D02*
X174617142Y-90763390D01*
X174617142Y-90763390D02*
X174617142Y-90906247D01*
X174617142Y-90906247D02*
X174569523Y-91096723D01*
X174569523Y-91096723D02*
X174521904Y-91191961D01*
X174521904Y-91191961D02*
X174426666Y-91287200D01*
X174426666Y-91287200D02*
X174283809Y-91334819D01*
X174283809Y-91334819D02*
X174045714Y-91334819D01*
X175521904Y-90334819D02*
X175045714Y-90334819D01*
X175045714Y-90334819D02*
X174998095Y-90811009D01*
X174998095Y-90811009D02*
X175045714Y-90763390D01*
X175045714Y-90763390D02*
X175140952Y-90715771D01*
X175140952Y-90715771D02*
X175379047Y-90715771D01*
X175379047Y-90715771D02*
X175474285Y-90763390D01*
X175474285Y-90763390D02*
X175521904Y-90811009D01*
X175521904Y-90811009D02*
X175569523Y-90906247D01*
X175569523Y-90906247D02*
X175569523Y-91144342D01*
X175569523Y-91144342D02*
X175521904Y-91239580D01*
X175521904Y-91239580D02*
X175474285Y-91287200D01*
X175474285Y-91287200D02*
X175379047Y-91334819D01*
X175379047Y-91334819D02*
X175140952Y-91334819D01*
X175140952Y-91334819D02*
X175045714Y-91287200D01*
X175045714Y-91287200D02*
X174998095Y-91239580D01*
X176426666Y-90668152D02*
X176426666Y-91334819D01*
X176188571Y-90287200D02*
X175950476Y-91001485D01*
X175950476Y-91001485D02*
X176569523Y-91001485D01*
X189285714Y-86254819D02*
X189285714Y-85254819D01*
X189285714Y-85254819D02*
X189523809Y-85254819D01*
X189523809Y-85254819D02*
X189666666Y-85302438D01*
X189666666Y-85302438D02*
X189761904Y-85397676D01*
X189761904Y-85397676D02*
X189809523Y-85492914D01*
X189809523Y-85492914D02*
X189857142Y-85683390D01*
X189857142Y-85683390D02*
X189857142Y-85826247D01*
X189857142Y-85826247D02*
X189809523Y-86016723D01*
X189809523Y-86016723D02*
X189761904Y-86111961D01*
X189761904Y-86111961D02*
X189666666Y-86207200D01*
X189666666Y-86207200D02*
X189523809Y-86254819D01*
X189523809Y-86254819D02*
X189285714Y-86254819D01*
X190714285Y-85588152D02*
X190714285Y-86254819D01*
X190476190Y-85207200D02*
X190238095Y-85921485D01*
X190238095Y-85921485D02*
X190857142Y-85921485D01*
X191666666Y-85254819D02*
X191476190Y-85254819D01*
X191476190Y-85254819D02*
X191380952Y-85302438D01*
X191380952Y-85302438D02*
X191333333Y-85350057D01*
X191333333Y-85350057D02*
X191238095Y-85492914D01*
X191238095Y-85492914D02*
X191190476Y-85683390D01*
X191190476Y-85683390D02*
X191190476Y-86064342D01*
X191190476Y-86064342D02*
X191238095Y-86159580D01*
X191238095Y-86159580D02*
X191285714Y-86207200D01*
X191285714Y-86207200D02*
X191380952Y-86254819D01*
X191380952Y-86254819D02*
X191571428Y-86254819D01*
X191571428Y-86254819D02*
X191666666Y-86207200D01*
X191666666Y-86207200D02*
X191714285Y-86159580D01*
X191714285Y-86159580D02*
X191761904Y-86064342D01*
X191761904Y-86064342D02*
X191761904Y-85826247D01*
X191761904Y-85826247D02*
X191714285Y-85731009D01*
X191714285Y-85731009D02*
X191666666Y-85683390D01*
X191666666Y-85683390D02*
X191571428Y-85635771D01*
X191571428Y-85635771D02*
X191380952Y-85635771D01*
X191380952Y-85635771D02*
X191285714Y-85683390D01*
X191285714Y-85683390D02*
X191238095Y-85731009D01*
X191238095Y-85731009D02*
X191190476Y-85826247D01*
X166901905Y-59724819D02*
X166901905Y-58724819D01*
X166901905Y-58724819D02*
X167140000Y-58724819D01*
X167140000Y-58724819D02*
X167282857Y-58772438D01*
X167282857Y-58772438D02*
X167378095Y-58867676D01*
X167378095Y-58867676D02*
X167425714Y-58962914D01*
X167425714Y-58962914D02*
X167473333Y-59153390D01*
X167473333Y-59153390D02*
X167473333Y-59296247D01*
X167473333Y-59296247D02*
X167425714Y-59486723D01*
X167425714Y-59486723D02*
X167378095Y-59581961D01*
X167378095Y-59581961D02*
X167282857Y-59677200D01*
X167282857Y-59677200D02*
X167140000Y-59724819D01*
X167140000Y-59724819D02*
X166901905Y-59724819D01*
X167806667Y-58724819D02*
X168425714Y-58724819D01*
X168425714Y-58724819D02*
X168092381Y-59105771D01*
X168092381Y-59105771D02*
X168235238Y-59105771D01*
X168235238Y-59105771D02*
X168330476Y-59153390D01*
X168330476Y-59153390D02*
X168378095Y-59201009D01*
X168378095Y-59201009D02*
X168425714Y-59296247D01*
X168425714Y-59296247D02*
X168425714Y-59534342D01*
X168425714Y-59534342D02*
X168378095Y-59629580D01*
X168378095Y-59629580D02*
X168330476Y-59677200D01*
X168330476Y-59677200D02*
X168235238Y-59724819D01*
X168235238Y-59724819D02*
X167949524Y-59724819D01*
X167949524Y-59724819D02*
X167854286Y-59677200D01*
X167854286Y-59677200D02*
X167806667Y-59629580D01*
X181665714Y-86254819D02*
X181665714Y-85254819D01*
X181665714Y-85254819D02*
X181903809Y-85254819D01*
X181903809Y-85254819D02*
X182046666Y-85302438D01*
X182046666Y-85302438D02*
X182141904Y-85397676D01*
X182141904Y-85397676D02*
X182189523Y-85492914D01*
X182189523Y-85492914D02*
X182237142Y-85683390D01*
X182237142Y-85683390D02*
X182237142Y-85826247D01*
X182237142Y-85826247D02*
X182189523Y-86016723D01*
X182189523Y-86016723D02*
X182141904Y-86111961D01*
X182141904Y-86111961D02*
X182046666Y-86207200D01*
X182046666Y-86207200D02*
X181903809Y-86254819D01*
X181903809Y-86254819D02*
X181665714Y-86254819D01*
X183094285Y-85588152D02*
X183094285Y-86254819D01*
X182856190Y-85207200D02*
X182618095Y-85921485D01*
X182618095Y-85921485D02*
X183237142Y-85921485D01*
X184094285Y-85254819D02*
X183618095Y-85254819D01*
X183618095Y-85254819D02*
X183570476Y-85731009D01*
X183570476Y-85731009D02*
X183618095Y-85683390D01*
X183618095Y-85683390D02*
X183713333Y-85635771D01*
X183713333Y-85635771D02*
X183951428Y-85635771D01*
X183951428Y-85635771D02*
X184046666Y-85683390D01*
X184046666Y-85683390D02*
X184094285Y-85731009D01*
X184094285Y-85731009D02*
X184141904Y-85826247D01*
X184141904Y-85826247D02*
X184141904Y-86064342D01*
X184141904Y-86064342D02*
X184094285Y-86159580D01*
X184094285Y-86159580D02*
X184046666Y-86207200D01*
X184046666Y-86207200D02*
X183951428Y-86254819D01*
X183951428Y-86254819D02*
X183713333Y-86254819D01*
X183713333Y-86254819D02*
X183618095Y-86207200D01*
X183618095Y-86207200D02*
X183570476Y-86159580D01*
X174045714Y-81174819D02*
X174045714Y-80174819D01*
X174045714Y-80174819D02*
X174283809Y-80174819D01*
X174283809Y-80174819D02*
X174426666Y-80222438D01*
X174426666Y-80222438D02*
X174521904Y-80317676D01*
X174521904Y-80317676D02*
X174569523Y-80412914D01*
X174569523Y-80412914D02*
X174617142Y-80603390D01*
X174617142Y-80603390D02*
X174617142Y-80746247D01*
X174617142Y-80746247D02*
X174569523Y-80936723D01*
X174569523Y-80936723D02*
X174521904Y-81031961D01*
X174521904Y-81031961D02*
X174426666Y-81127200D01*
X174426666Y-81127200D02*
X174283809Y-81174819D01*
X174283809Y-81174819D02*
X174045714Y-81174819D01*
X174950476Y-80174819D02*
X175569523Y-80174819D01*
X175569523Y-80174819D02*
X175236190Y-80555771D01*
X175236190Y-80555771D02*
X175379047Y-80555771D01*
X175379047Y-80555771D02*
X175474285Y-80603390D01*
X175474285Y-80603390D02*
X175521904Y-80651009D01*
X175521904Y-80651009D02*
X175569523Y-80746247D01*
X175569523Y-80746247D02*
X175569523Y-80984342D01*
X175569523Y-80984342D02*
X175521904Y-81079580D01*
X175521904Y-81079580D02*
X175474285Y-81127200D01*
X175474285Y-81127200D02*
X175379047Y-81174819D01*
X175379047Y-81174819D02*
X175093333Y-81174819D01*
X175093333Y-81174819D02*
X174998095Y-81127200D01*
X174998095Y-81127200D02*
X174950476Y-81079580D01*
X176426666Y-80508152D02*
X176426666Y-81174819D01*
X176188571Y-80127200D02*
X175950476Y-80841485D01*
X175950476Y-80841485D02*
X176569523Y-80841485D01*
X151185714Y-86254819D02*
X151185714Y-85254819D01*
X151185714Y-85254819D02*
X151423809Y-85254819D01*
X151423809Y-85254819D02*
X151566666Y-85302438D01*
X151566666Y-85302438D02*
X151661904Y-85397676D01*
X151661904Y-85397676D02*
X151709523Y-85492914D01*
X151709523Y-85492914D02*
X151757142Y-85683390D01*
X151757142Y-85683390D02*
X151757142Y-85826247D01*
X151757142Y-85826247D02*
X151709523Y-86016723D01*
X151709523Y-86016723D02*
X151661904Y-86111961D01*
X151661904Y-86111961D02*
X151566666Y-86207200D01*
X151566666Y-86207200D02*
X151423809Y-86254819D01*
X151423809Y-86254819D02*
X151185714Y-86254819D01*
X152614285Y-85588152D02*
X152614285Y-86254819D01*
X152376190Y-85207200D02*
X152138095Y-85921485D01*
X152138095Y-85921485D02*
X152757142Y-85921485D01*
X153661904Y-86254819D02*
X153090476Y-86254819D01*
X153376190Y-86254819D02*
X153376190Y-85254819D01*
X153376190Y-85254819D02*
X153280952Y-85397676D01*
X153280952Y-85397676D02*
X153185714Y-85492914D01*
X153185714Y-85492914D02*
X153090476Y-85540533D01*
X174045714Y-96414819D02*
X174045714Y-95414819D01*
X174045714Y-95414819D02*
X174283809Y-95414819D01*
X174283809Y-95414819D02*
X174426666Y-95462438D01*
X174426666Y-95462438D02*
X174521904Y-95557676D01*
X174521904Y-95557676D02*
X174569523Y-95652914D01*
X174569523Y-95652914D02*
X174617142Y-95843390D01*
X174617142Y-95843390D02*
X174617142Y-95986247D01*
X174617142Y-95986247D02*
X174569523Y-96176723D01*
X174569523Y-96176723D02*
X174521904Y-96271961D01*
X174521904Y-96271961D02*
X174426666Y-96367200D01*
X174426666Y-96367200D02*
X174283809Y-96414819D01*
X174283809Y-96414819D02*
X174045714Y-96414819D01*
X175474285Y-95414819D02*
X175283809Y-95414819D01*
X175283809Y-95414819D02*
X175188571Y-95462438D01*
X175188571Y-95462438D02*
X175140952Y-95510057D01*
X175140952Y-95510057D02*
X175045714Y-95652914D01*
X175045714Y-95652914D02*
X174998095Y-95843390D01*
X174998095Y-95843390D02*
X174998095Y-96224342D01*
X174998095Y-96224342D02*
X175045714Y-96319580D01*
X175045714Y-96319580D02*
X175093333Y-96367200D01*
X175093333Y-96367200D02*
X175188571Y-96414819D01*
X175188571Y-96414819D02*
X175379047Y-96414819D01*
X175379047Y-96414819D02*
X175474285Y-96367200D01*
X175474285Y-96367200D02*
X175521904Y-96319580D01*
X175521904Y-96319580D02*
X175569523Y-96224342D01*
X175569523Y-96224342D02*
X175569523Y-95986247D01*
X175569523Y-95986247D02*
X175521904Y-95891009D01*
X175521904Y-95891009D02*
X175474285Y-95843390D01*
X175474285Y-95843390D02*
X175379047Y-95795771D01*
X175379047Y-95795771D02*
X175188571Y-95795771D01*
X175188571Y-95795771D02*
X175093333Y-95843390D01*
X175093333Y-95843390D02*
X175045714Y-95891009D01*
X175045714Y-95891009D02*
X174998095Y-95986247D01*
X176426666Y-95748152D02*
X176426666Y-96414819D01*
X176188571Y-95367200D02*
X175950476Y-96081485D01*
X175950476Y-96081485D02*
X176569523Y-96081485D01*
X159281905Y-59724819D02*
X159281905Y-58724819D01*
X159281905Y-58724819D02*
X159520000Y-58724819D01*
X159520000Y-58724819D02*
X159662857Y-58772438D01*
X159662857Y-58772438D02*
X159758095Y-58867676D01*
X159758095Y-58867676D02*
X159805714Y-58962914D01*
X159805714Y-58962914D02*
X159853333Y-59153390D01*
X159853333Y-59153390D02*
X159853333Y-59296247D01*
X159853333Y-59296247D02*
X159805714Y-59486723D01*
X159805714Y-59486723D02*
X159758095Y-59581961D01*
X159758095Y-59581961D02*
X159662857Y-59677200D01*
X159662857Y-59677200D02*
X159520000Y-59724819D01*
X159520000Y-59724819D02*
X159281905Y-59724819D01*
X160234286Y-58820057D02*
X160281905Y-58772438D01*
X160281905Y-58772438D02*
X160377143Y-58724819D01*
X160377143Y-58724819D02*
X160615238Y-58724819D01*
X160615238Y-58724819D02*
X160710476Y-58772438D01*
X160710476Y-58772438D02*
X160758095Y-58820057D01*
X160758095Y-58820057D02*
X160805714Y-58915295D01*
X160805714Y-58915295D02*
X160805714Y-59010533D01*
X160805714Y-59010533D02*
X160758095Y-59153390D01*
X160758095Y-59153390D02*
X160186667Y-59724819D01*
X160186667Y-59724819D02*
X160805714Y-59724819D01*
X197123214Y-86254819D02*
X197123214Y-85254819D01*
X197123214Y-85254819D02*
X197361309Y-85254819D01*
X197361309Y-85254819D02*
X197504166Y-85302438D01*
X197504166Y-85302438D02*
X197599404Y-85397676D01*
X197599404Y-85397676D02*
X197647023Y-85492914D01*
X197647023Y-85492914D02*
X197694642Y-85683390D01*
X197694642Y-85683390D02*
X197694642Y-85826247D01*
X197694642Y-85826247D02*
X197647023Y-86016723D01*
X197647023Y-86016723D02*
X197599404Y-86111961D01*
X197599404Y-86111961D02*
X197504166Y-86207200D01*
X197504166Y-86207200D02*
X197361309Y-86254819D01*
X197361309Y-86254819D02*
X197123214Y-86254819D01*
X198551785Y-85588152D02*
X198551785Y-86254819D01*
X198313690Y-85207200D02*
X198075595Y-85921485D01*
X198075595Y-85921485D02*
X198694642Y-85921485D01*
X198980357Y-85254819D02*
X199647023Y-85254819D01*
X199647023Y-85254819D02*
X199218452Y-86254819D01*
X212145714Y-76094819D02*
X212145714Y-75094819D01*
X212145714Y-75094819D02*
X212383809Y-75094819D01*
X212383809Y-75094819D02*
X212526666Y-75142438D01*
X212526666Y-75142438D02*
X212621904Y-75237676D01*
X212621904Y-75237676D02*
X212669523Y-75332914D01*
X212669523Y-75332914D02*
X212717142Y-75523390D01*
X212717142Y-75523390D02*
X212717142Y-75666247D01*
X212717142Y-75666247D02*
X212669523Y-75856723D01*
X212669523Y-75856723D02*
X212621904Y-75951961D01*
X212621904Y-75951961D02*
X212526666Y-76047200D01*
X212526666Y-76047200D02*
X212383809Y-76094819D01*
X212383809Y-76094819D02*
X212145714Y-76094819D01*
X213098095Y-75190057D02*
X213145714Y-75142438D01*
X213145714Y-75142438D02*
X213240952Y-75094819D01*
X213240952Y-75094819D02*
X213479047Y-75094819D01*
X213479047Y-75094819D02*
X213574285Y-75142438D01*
X213574285Y-75142438D02*
X213621904Y-75190057D01*
X213621904Y-75190057D02*
X213669523Y-75285295D01*
X213669523Y-75285295D02*
X213669523Y-75380533D01*
X213669523Y-75380533D02*
X213621904Y-75523390D01*
X213621904Y-75523390D02*
X213050476Y-76094819D01*
X213050476Y-76094819D02*
X213669523Y-76094819D01*
X214145714Y-76094819D02*
X214336190Y-76094819D01*
X214336190Y-76094819D02*
X214431428Y-76047200D01*
X214431428Y-76047200D02*
X214479047Y-75999580D01*
X214479047Y-75999580D02*
X214574285Y-75856723D01*
X214574285Y-75856723D02*
X214621904Y-75666247D01*
X214621904Y-75666247D02*
X214621904Y-75285295D01*
X214621904Y-75285295D02*
X214574285Y-75190057D01*
X214574285Y-75190057D02*
X214526666Y-75142438D01*
X214526666Y-75142438D02*
X214431428Y-75094819D01*
X214431428Y-75094819D02*
X214240952Y-75094819D01*
X214240952Y-75094819D02*
X214145714Y-75142438D01*
X214145714Y-75142438D02*
X214098095Y-75190057D01*
X214098095Y-75190057D02*
X214050476Y-75285295D01*
X214050476Y-75285295D02*
X214050476Y-75523390D01*
X214050476Y-75523390D02*
X214098095Y-75618628D01*
X214098095Y-75618628D02*
X214145714Y-75666247D01*
X214145714Y-75666247D02*
X214240952Y-75713866D01*
X214240952Y-75713866D02*
X214431428Y-75713866D01*
X214431428Y-75713866D02*
X214526666Y-75666247D01*
X214526666Y-75666247D02*
X214574285Y-75618628D01*
X214574285Y-75618628D02*
X214621904Y-75523390D01*
X158805714Y-86254819D02*
X158805714Y-85254819D01*
X158805714Y-85254819D02*
X159043809Y-85254819D01*
X159043809Y-85254819D02*
X159186666Y-85302438D01*
X159186666Y-85302438D02*
X159281904Y-85397676D01*
X159281904Y-85397676D02*
X159329523Y-85492914D01*
X159329523Y-85492914D02*
X159377142Y-85683390D01*
X159377142Y-85683390D02*
X159377142Y-85826247D01*
X159377142Y-85826247D02*
X159329523Y-86016723D01*
X159329523Y-86016723D02*
X159281904Y-86111961D01*
X159281904Y-86111961D02*
X159186666Y-86207200D01*
X159186666Y-86207200D02*
X159043809Y-86254819D01*
X159043809Y-86254819D02*
X158805714Y-86254819D01*
X160234285Y-85588152D02*
X160234285Y-86254819D01*
X159996190Y-85207200D02*
X159758095Y-85921485D01*
X159758095Y-85921485D02*
X160377142Y-85921485D01*
X160710476Y-85350057D02*
X160758095Y-85302438D01*
X160758095Y-85302438D02*
X160853333Y-85254819D01*
X160853333Y-85254819D02*
X161091428Y-85254819D01*
X161091428Y-85254819D02*
X161186666Y-85302438D01*
X161186666Y-85302438D02*
X161234285Y-85350057D01*
X161234285Y-85350057D02*
X161281904Y-85445295D01*
X161281904Y-85445295D02*
X161281904Y-85540533D01*
X161281904Y-85540533D02*
X161234285Y-85683390D01*
X161234285Y-85683390D02*
X160662857Y-86254819D01*
X160662857Y-86254819D02*
X161281904Y-86254819D01*
X196905714Y-76094819D02*
X196905714Y-75094819D01*
X196905714Y-75094819D02*
X197143809Y-75094819D01*
X197143809Y-75094819D02*
X197286666Y-75142438D01*
X197286666Y-75142438D02*
X197381904Y-75237676D01*
X197381904Y-75237676D02*
X197429523Y-75332914D01*
X197429523Y-75332914D02*
X197477142Y-75523390D01*
X197477142Y-75523390D02*
X197477142Y-75666247D01*
X197477142Y-75666247D02*
X197429523Y-75856723D01*
X197429523Y-75856723D02*
X197381904Y-75951961D01*
X197381904Y-75951961D02*
X197286666Y-76047200D01*
X197286666Y-76047200D02*
X197143809Y-76094819D01*
X197143809Y-76094819D02*
X196905714Y-76094819D01*
X197858095Y-75190057D02*
X197905714Y-75142438D01*
X197905714Y-75142438D02*
X198000952Y-75094819D01*
X198000952Y-75094819D02*
X198239047Y-75094819D01*
X198239047Y-75094819D02*
X198334285Y-75142438D01*
X198334285Y-75142438D02*
X198381904Y-75190057D01*
X198381904Y-75190057D02*
X198429523Y-75285295D01*
X198429523Y-75285295D02*
X198429523Y-75380533D01*
X198429523Y-75380533D02*
X198381904Y-75523390D01*
X198381904Y-75523390D02*
X197810476Y-76094819D01*
X197810476Y-76094819D02*
X198429523Y-76094819D01*
X198762857Y-75094819D02*
X199429523Y-75094819D01*
X199429523Y-75094819D02*
X199000952Y-76094819D01*
X174045714Y-86254819D02*
X174045714Y-85254819D01*
X174045714Y-85254819D02*
X174283809Y-85254819D01*
X174283809Y-85254819D02*
X174426666Y-85302438D01*
X174426666Y-85302438D02*
X174521904Y-85397676D01*
X174521904Y-85397676D02*
X174569523Y-85492914D01*
X174569523Y-85492914D02*
X174617142Y-85683390D01*
X174617142Y-85683390D02*
X174617142Y-85826247D01*
X174617142Y-85826247D02*
X174569523Y-86016723D01*
X174569523Y-86016723D02*
X174521904Y-86111961D01*
X174521904Y-86111961D02*
X174426666Y-86207200D01*
X174426666Y-86207200D02*
X174283809Y-86254819D01*
X174283809Y-86254819D02*
X174045714Y-86254819D01*
X175474285Y-85588152D02*
X175474285Y-86254819D01*
X175236190Y-85207200D02*
X174998095Y-85921485D01*
X174998095Y-85921485D02*
X175617142Y-85921485D01*
X176426666Y-85588152D02*
X176426666Y-86254819D01*
X176188571Y-85207200D02*
X175950476Y-85921485D01*
X175950476Y-85921485D02*
X176569523Y-85921485D01*
X166425714Y-91334819D02*
X166425714Y-90334819D01*
X166425714Y-90334819D02*
X166663809Y-90334819D01*
X166663809Y-90334819D02*
X166806666Y-90382438D01*
X166806666Y-90382438D02*
X166901904Y-90477676D01*
X166901904Y-90477676D02*
X166949523Y-90572914D01*
X166949523Y-90572914D02*
X166997142Y-90763390D01*
X166997142Y-90763390D02*
X166997142Y-90906247D01*
X166997142Y-90906247D02*
X166949523Y-91096723D01*
X166949523Y-91096723D02*
X166901904Y-91191961D01*
X166901904Y-91191961D02*
X166806666Y-91287200D01*
X166806666Y-91287200D02*
X166663809Y-91334819D01*
X166663809Y-91334819D02*
X166425714Y-91334819D01*
X167901904Y-90334819D02*
X167425714Y-90334819D01*
X167425714Y-90334819D02*
X167378095Y-90811009D01*
X167378095Y-90811009D02*
X167425714Y-90763390D01*
X167425714Y-90763390D02*
X167520952Y-90715771D01*
X167520952Y-90715771D02*
X167759047Y-90715771D01*
X167759047Y-90715771D02*
X167854285Y-90763390D01*
X167854285Y-90763390D02*
X167901904Y-90811009D01*
X167901904Y-90811009D02*
X167949523Y-90906247D01*
X167949523Y-90906247D02*
X167949523Y-91144342D01*
X167949523Y-91144342D02*
X167901904Y-91239580D01*
X167901904Y-91239580D02*
X167854285Y-91287200D01*
X167854285Y-91287200D02*
X167759047Y-91334819D01*
X167759047Y-91334819D02*
X167520952Y-91334819D01*
X167520952Y-91334819D02*
X167425714Y-91287200D01*
X167425714Y-91287200D02*
X167378095Y-91239580D01*
X168282857Y-90334819D02*
X168901904Y-90334819D01*
X168901904Y-90334819D02*
X168568571Y-90715771D01*
X168568571Y-90715771D02*
X168711428Y-90715771D01*
X168711428Y-90715771D02*
X168806666Y-90763390D01*
X168806666Y-90763390D02*
X168854285Y-90811009D01*
X168854285Y-90811009D02*
X168901904Y-90906247D01*
X168901904Y-90906247D02*
X168901904Y-91144342D01*
X168901904Y-91144342D02*
X168854285Y-91239580D01*
X168854285Y-91239580D02*
X168806666Y-91287200D01*
X168806666Y-91287200D02*
X168711428Y-91334819D01*
X168711428Y-91334819D02*
X168425714Y-91334819D01*
X168425714Y-91334819D02*
X168330476Y-91287200D01*
X168330476Y-91287200D02*
X168282857Y-91239580D01*
X158805714Y-81174819D02*
X158805714Y-80174819D01*
X158805714Y-80174819D02*
X159043809Y-80174819D01*
X159043809Y-80174819D02*
X159186666Y-80222438D01*
X159186666Y-80222438D02*
X159281904Y-80317676D01*
X159281904Y-80317676D02*
X159329523Y-80412914D01*
X159329523Y-80412914D02*
X159377142Y-80603390D01*
X159377142Y-80603390D02*
X159377142Y-80746247D01*
X159377142Y-80746247D02*
X159329523Y-80936723D01*
X159329523Y-80936723D02*
X159281904Y-81031961D01*
X159281904Y-81031961D02*
X159186666Y-81127200D01*
X159186666Y-81127200D02*
X159043809Y-81174819D01*
X159043809Y-81174819D02*
X158805714Y-81174819D01*
X159710476Y-80174819D02*
X160329523Y-80174819D01*
X160329523Y-80174819D02*
X159996190Y-80555771D01*
X159996190Y-80555771D02*
X160139047Y-80555771D01*
X160139047Y-80555771D02*
X160234285Y-80603390D01*
X160234285Y-80603390D02*
X160281904Y-80651009D01*
X160281904Y-80651009D02*
X160329523Y-80746247D01*
X160329523Y-80746247D02*
X160329523Y-80984342D01*
X160329523Y-80984342D02*
X160281904Y-81079580D01*
X160281904Y-81079580D02*
X160234285Y-81127200D01*
X160234285Y-81127200D02*
X160139047Y-81174819D01*
X160139047Y-81174819D02*
X159853333Y-81174819D01*
X159853333Y-81174819D02*
X159758095Y-81127200D01*
X159758095Y-81127200D02*
X159710476Y-81079580D01*
X160710476Y-80270057D02*
X160758095Y-80222438D01*
X160758095Y-80222438D02*
X160853333Y-80174819D01*
X160853333Y-80174819D02*
X161091428Y-80174819D01*
X161091428Y-80174819D02*
X161186666Y-80222438D01*
X161186666Y-80222438D02*
X161234285Y-80270057D01*
X161234285Y-80270057D02*
X161281904Y-80365295D01*
X161281904Y-80365295D02*
X161281904Y-80460533D01*
X161281904Y-80460533D02*
X161234285Y-80603390D01*
X161234285Y-80603390D02*
X160662857Y-81174819D01*
X160662857Y-81174819D02*
X161281904Y-81174819D01*
X212145714Y-81174819D02*
X212145714Y-80174819D01*
X212145714Y-80174819D02*
X212383809Y-80174819D01*
X212383809Y-80174819D02*
X212526666Y-80222438D01*
X212526666Y-80222438D02*
X212621904Y-80317676D01*
X212621904Y-80317676D02*
X212669523Y-80412914D01*
X212669523Y-80412914D02*
X212717142Y-80603390D01*
X212717142Y-80603390D02*
X212717142Y-80746247D01*
X212717142Y-80746247D02*
X212669523Y-80936723D01*
X212669523Y-80936723D02*
X212621904Y-81031961D01*
X212621904Y-81031961D02*
X212526666Y-81127200D01*
X212526666Y-81127200D02*
X212383809Y-81174819D01*
X212383809Y-81174819D02*
X212145714Y-81174819D01*
X213050476Y-80174819D02*
X213669523Y-80174819D01*
X213669523Y-80174819D02*
X213336190Y-80555771D01*
X213336190Y-80555771D02*
X213479047Y-80555771D01*
X213479047Y-80555771D02*
X213574285Y-80603390D01*
X213574285Y-80603390D02*
X213621904Y-80651009D01*
X213621904Y-80651009D02*
X213669523Y-80746247D01*
X213669523Y-80746247D02*
X213669523Y-80984342D01*
X213669523Y-80984342D02*
X213621904Y-81079580D01*
X213621904Y-81079580D02*
X213574285Y-81127200D01*
X213574285Y-81127200D02*
X213479047Y-81174819D01*
X213479047Y-81174819D02*
X213193333Y-81174819D01*
X213193333Y-81174819D02*
X213098095Y-81127200D01*
X213098095Y-81127200D02*
X213050476Y-81079580D01*
X214145714Y-81174819D02*
X214336190Y-81174819D01*
X214336190Y-81174819D02*
X214431428Y-81127200D01*
X214431428Y-81127200D02*
X214479047Y-81079580D01*
X214479047Y-81079580D02*
X214574285Y-80936723D01*
X214574285Y-80936723D02*
X214621904Y-80746247D01*
X214621904Y-80746247D02*
X214621904Y-80365295D01*
X214621904Y-80365295D02*
X214574285Y-80270057D01*
X214574285Y-80270057D02*
X214526666Y-80222438D01*
X214526666Y-80222438D02*
X214431428Y-80174819D01*
X214431428Y-80174819D02*
X214240952Y-80174819D01*
X214240952Y-80174819D02*
X214145714Y-80222438D01*
X214145714Y-80222438D02*
X214098095Y-80270057D01*
X214098095Y-80270057D02*
X214050476Y-80365295D01*
X214050476Y-80365295D02*
X214050476Y-80603390D01*
X214050476Y-80603390D02*
X214098095Y-80698628D01*
X214098095Y-80698628D02*
X214145714Y-80746247D01*
X214145714Y-80746247D02*
X214240952Y-80793866D01*
X214240952Y-80793866D02*
X214431428Y-80793866D01*
X214431428Y-80793866D02*
X214526666Y-80746247D01*
X214526666Y-80746247D02*
X214574285Y-80698628D01*
X214574285Y-80698628D02*
X214621904Y-80603390D01*
X196905714Y-91334819D02*
X196905714Y-90334819D01*
X196905714Y-90334819D02*
X197143809Y-90334819D01*
X197143809Y-90334819D02*
X197286666Y-90382438D01*
X197286666Y-90382438D02*
X197381904Y-90477676D01*
X197381904Y-90477676D02*
X197429523Y-90572914D01*
X197429523Y-90572914D02*
X197477142Y-90763390D01*
X197477142Y-90763390D02*
X197477142Y-90906247D01*
X197477142Y-90906247D02*
X197429523Y-91096723D01*
X197429523Y-91096723D02*
X197381904Y-91191961D01*
X197381904Y-91191961D02*
X197286666Y-91287200D01*
X197286666Y-91287200D02*
X197143809Y-91334819D01*
X197143809Y-91334819D02*
X196905714Y-91334819D01*
X198381904Y-90334819D02*
X197905714Y-90334819D01*
X197905714Y-90334819D02*
X197858095Y-90811009D01*
X197858095Y-90811009D02*
X197905714Y-90763390D01*
X197905714Y-90763390D02*
X198000952Y-90715771D01*
X198000952Y-90715771D02*
X198239047Y-90715771D01*
X198239047Y-90715771D02*
X198334285Y-90763390D01*
X198334285Y-90763390D02*
X198381904Y-90811009D01*
X198381904Y-90811009D02*
X198429523Y-90906247D01*
X198429523Y-90906247D02*
X198429523Y-91144342D01*
X198429523Y-91144342D02*
X198381904Y-91239580D01*
X198381904Y-91239580D02*
X198334285Y-91287200D01*
X198334285Y-91287200D02*
X198239047Y-91334819D01*
X198239047Y-91334819D02*
X198000952Y-91334819D01*
X198000952Y-91334819D02*
X197905714Y-91287200D01*
X197905714Y-91287200D02*
X197858095Y-91239580D01*
X198762857Y-90334819D02*
X199429523Y-90334819D01*
X199429523Y-90334819D02*
X199000952Y-91334819D01*
X204525714Y-76094819D02*
X204525714Y-75094819D01*
X204525714Y-75094819D02*
X204763809Y-75094819D01*
X204763809Y-75094819D02*
X204906666Y-75142438D01*
X204906666Y-75142438D02*
X205001904Y-75237676D01*
X205001904Y-75237676D02*
X205049523Y-75332914D01*
X205049523Y-75332914D02*
X205097142Y-75523390D01*
X205097142Y-75523390D02*
X205097142Y-75666247D01*
X205097142Y-75666247D02*
X205049523Y-75856723D01*
X205049523Y-75856723D02*
X205001904Y-75951961D01*
X205001904Y-75951961D02*
X204906666Y-76047200D01*
X204906666Y-76047200D02*
X204763809Y-76094819D01*
X204763809Y-76094819D02*
X204525714Y-76094819D01*
X205478095Y-75190057D02*
X205525714Y-75142438D01*
X205525714Y-75142438D02*
X205620952Y-75094819D01*
X205620952Y-75094819D02*
X205859047Y-75094819D01*
X205859047Y-75094819D02*
X205954285Y-75142438D01*
X205954285Y-75142438D02*
X206001904Y-75190057D01*
X206001904Y-75190057D02*
X206049523Y-75285295D01*
X206049523Y-75285295D02*
X206049523Y-75380533D01*
X206049523Y-75380533D02*
X206001904Y-75523390D01*
X206001904Y-75523390D02*
X205430476Y-76094819D01*
X205430476Y-76094819D02*
X206049523Y-76094819D01*
X206620952Y-75523390D02*
X206525714Y-75475771D01*
X206525714Y-75475771D02*
X206478095Y-75428152D01*
X206478095Y-75428152D02*
X206430476Y-75332914D01*
X206430476Y-75332914D02*
X206430476Y-75285295D01*
X206430476Y-75285295D02*
X206478095Y-75190057D01*
X206478095Y-75190057D02*
X206525714Y-75142438D01*
X206525714Y-75142438D02*
X206620952Y-75094819D01*
X206620952Y-75094819D02*
X206811428Y-75094819D01*
X206811428Y-75094819D02*
X206906666Y-75142438D01*
X206906666Y-75142438D02*
X206954285Y-75190057D01*
X206954285Y-75190057D02*
X207001904Y-75285295D01*
X207001904Y-75285295D02*
X207001904Y-75332914D01*
X207001904Y-75332914D02*
X206954285Y-75428152D01*
X206954285Y-75428152D02*
X206906666Y-75475771D01*
X206906666Y-75475771D02*
X206811428Y-75523390D01*
X206811428Y-75523390D02*
X206620952Y-75523390D01*
X206620952Y-75523390D02*
X206525714Y-75571009D01*
X206525714Y-75571009D02*
X206478095Y-75618628D01*
X206478095Y-75618628D02*
X206430476Y-75713866D01*
X206430476Y-75713866D02*
X206430476Y-75904342D01*
X206430476Y-75904342D02*
X206478095Y-75999580D01*
X206478095Y-75999580D02*
X206525714Y-76047200D01*
X206525714Y-76047200D02*
X206620952Y-76094819D01*
X206620952Y-76094819D02*
X206811428Y-76094819D01*
X206811428Y-76094819D02*
X206906666Y-76047200D01*
X206906666Y-76047200D02*
X206954285Y-75999580D01*
X206954285Y-75999580D02*
X207001904Y-75904342D01*
X207001904Y-75904342D02*
X207001904Y-75713866D01*
X207001904Y-75713866D02*
X206954285Y-75618628D01*
X206954285Y-75618628D02*
X206906666Y-75571009D01*
X206906666Y-75571009D02*
X206811428Y-75523390D01*
X204525714Y-86254819D02*
X204525714Y-85254819D01*
X204525714Y-85254819D02*
X204763809Y-85254819D01*
X204763809Y-85254819D02*
X204906666Y-85302438D01*
X204906666Y-85302438D02*
X205001904Y-85397676D01*
X205001904Y-85397676D02*
X205049523Y-85492914D01*
X205049523Y-85492914D02*
X205097142Y-85683390D01*
X205097142Y-85683390D02*
X205097142Y-85826247D01*
X205097142Y-85826247D02*
X205049523Y-86016723D01*
X205049523Y-86016723D02*
X205001904Y-86111961D01*
X205001904Y-86111961D02*
X204906666Y-86207200D01*
X204906666Y-86207200D02*
X204763809Y-86254819D01*
X204763809Y-86254819D02*
X204525714Y-86254819D01*
X205954285Y-85588152D02*
X205954285Y-86254819D01*
X205716190Y-85207200D02*
X205478095Y-85921485D01*
X205478095Y-85921485D02*
X206097142Y-85921485D01*
X206620952Y-85683390D02*
X206525714Y-85635771D01*
X206525714Y-85635771D02*
X206478095Y-85588152D01*
X206478095Y-85588152D02*
X206430476Y-85492914D01*
X206430476Y-85492914D02*
X206430476Y-85445295D01*
X206430476Y-85445295D02*
X206478095Y-85350057D01*
X206478095Y-85350057D02*
X206525714Y-85302438D01*
X206525714Y-85302438D02*
X206620952Y-85254819D01*
X206620952Y-85254819D02*
X206811428Y-85254819D01*
X206811428Y-85254819D02*
X206906666Y-85302438D01*
X206906666Y-85302438D02*
X206954285Y-85350057D01*
X206954285Y-85350057D02*
X207001904Y-85445295D01*
X207001904Y-85445295D02*
X207001904Y-85492914D01*
X207001904Y-85492914D02*
X206954285Y-85588152D01*
X206954285Y-85588152D02*
X206906666Y-85635771D01*
X206906666Y-85635771D02*
X206811428Y-85683390D01*
X206811428Y-85683390D02*
X206620952Y-85683390D01*
X206620952Y-85683390D02*
X206525714Y-85731009D01*
X206525714Y-85731009D02*
X206478095Y-85778628D01*
X206478095Y-85778628D02*
X206430476Y-85873866D01*
X206430476Y-85873866D02*
X206430476Y-86064342D01*
X206430476Y-86064342D02*
X206478095Y-86159580D01*
X206478095Y-86159580D02*
X206525714Y-86207200D01*
X206525714Y-86207200D02*
X206620952Y-86254819D01*
X206620952Y-86254819D02*
X206811428Y-86254819D01*
X206811428Y-86254819D02*
X206906666Y-86207200D01*
X206906666Y-86207200D02*
X206954285Y-86159580D01*
X206954285Y-86159580D02*
X207001904Y-86064342D01*
X207001904Y-86064342D02*
X207001904Y-85873866D01*
X207001904Y-85873866D02*
X206954285Y-85778628D01*
X206954285Y-85778628D02*
X206906666Y-85731009D01*
X206906666Y-85731009D02*
X206811428Y-85683390D01*
X158805714Y-76094819D02*
X158805714Y-75094819D01*
X158805714Y-75094819D02*
X159043809Y-75094819D01*
X159043809Y-75094819D02*
X159186666Y-75142438D01*
X159186666Y-75142438D02*
X159281904Y-75237676D01*
X159281904Y-75237676D02*
X159329523Y-75332914D01*
X159329523Y-75332914D02*
X159377142Y-75523390D01*
X159377142Y-75523390D02*
X159377142Y-75666247D01*
X159377142Y-75666247D02*
X159329523Y-75856723D01*
X159329523Y-75856723D02*
X159281904Y-75951961D01*
X159281904Y-75951961D02*
X159186666Y-76047200D01*
X159186666Y-76047200D02*
X159043809Y-76094819D01*
X159043809Y-76094819D02*
X158805714Y-76094819D01*
X159758095Y-75190057D02*
X159805714Y-75142438D01*
X159805714Y-75142438D02*
X159900952Y-75094819D01*
X159900952Y-75094819D02*
X160139047Y-75094819D01*
X160139047Y-75094819D02*
X160234285Y-75142438D01*
X160234285Y-75142438D02*
X160281904Y-75190057D01*
X160281904Y-75190057D02*
X160329523Y-75285295D01*
X160329523Y-75285295D02*
X160329523Y-75380533D01*
X160329523Y-75380533D02*
X160281904Y-75523390D01*
X160281904Y-75523390D02*
X159710476Y-76094819D01*
X159710476Y-76094819D02*
X160329523Y-76094819D01*
X160710476Y-75190057D02*
X160758095Y-75142438D01*
X160758095Y-75142438D02*
X160853333Y-75094819D01*
X160853333Y-75094819D02*
X161091428Y-75094819D01*
X161091428Y-75094819D02*
X161186666Y-75142438D01*
X161186666Y-75142438D02*
X161234285Y-75190057D01*
X161234285Y-75190057D02*
X161281904Y-75285295D01*
X161281904Y-75285295D02*
X161281904Y-75380533D01*
X161281904Y-75380533D02*
X161234285Y-75523390D01*
X161234285Y-75523390D02*
X160662857Y-76094819D01*
X160662857Y-76094819D02*
X161281904Y-76094819D01*
X166425714Y-86254819D02*
X166425714Y-85254819D01*
X166425714Y-85254819D02*
X166663809Y-85254819D01*
X166663809Y-85254819D02*
X166806666Y-85302438D01*
X166806666Y-85302438D02*
X166901904Y-85397676D01*
X166901904Y-85397676D02*
X166949523Y-85492914D01*
X166949523Y-85492914D02*
X166997142Y-85683390D01*
X166997142Y-85683390D02*
X166997142Y-85826247D01*
X166997142Y-85826247D02*
X166949523Y-86016723D01*
X166949523Y-86016723D02*
X166901904Y-86111961D01*
X166901904Y-86111961D02*
X166806666Y-86207200D01*
X166806666Y-86207200D02*
X166663809Y-86254819D01*
X166663809Y-86254819D02*
X166425714Y-86254819D01*
X167854285Y-85588152D02*
X167854285Y-86254819D01*
X167616190Y-85207200D02*
X167378095Y-85921485D01*
X167378095Y-85921485D02*
X167997142Y-85921485D01*
X168282857Y-85254819D02*
X168901904Y-85254819D01*
X168901904Y-85254819D02*
X168568571Y-85635771D01*
X168568571Y-85635771D02*
X168711428Y-85635771D01*
X168711428Y-85635771D02*
X168806666Y-85683390D01*
X168806666Y-85683390D02*
X168854285Y-85731009D01*
X168854285Y-85731009D02*
X168901904Y-85826247D01*
X168901904Y-85826247D02*
X168901904Y-86064342D01*
X168901904Y-86064342D02*
X168854285Y-86159580D01*
X168854285Y-86159580D02*
X168806666Y-86207200D01*
X168806666Y-86207200D02*
X168711428Y-86254819D01*
X168711428Y-86254819D02*
X168425714Y-86254819D01*
X168425714Y-86254819D02*
X168330476Y-86207200D01*
X168330476Y-86207200D02*
X168282857Y-86159580D01*
X166425714Y-76094819D02*
X166425714Y-75094819D01*
X166425714Y-75094819D02*
X166663809Y-75094819D01*
X166663809Y-75094819D02*
X166806666Y-75142438D01*
X166806666Y-75142438D02*
X166901904Y-75237676D01*
X166901904Y-75237676D02*
X166949523Y-75332914D01*
X166949523Y-75332914D02*
X166997142Y-75523390D01*
X166997142Y-75523390D02*
X166997142Y-75666247D01*
X166997142Y-75666247D02*
X166949523Y-75856723D01*
X166949523Y-75856723D02*
X166901904Y-75951961D01*
X166901904Y-75951961D02*
X166806666Y-76047200D01*
X166806666Y-76047200D02*
X166663809Y-76094819D01*
X166663809Y-76094819D02*
X166425714Y-76094819D01*
X167378095Y-75190057D02*
X167425714Y-75142438D01*
X167425714Y-75142438D02*
X167520952Y-75094819D01*
X167520952Y-75094819D02*
X167759047Y-75094819D01*
X167759047Y-75094819D02*
X167854285Y-75142438D01*
X167854285Y-75142438D02*
X167901904Y-75190057D01*
X167901904Y-75190057D02*
X167949523Y-75285295D01*
X167949523Y-75285295D02*
X167949523Y-75380533D01*
X167949523Y-75380533D02*
X167901904Y-75523390D01*
X167901904Y-75523390D02*
X167330476Y-76094819D01*
X167330476Y-76094819D02*
X167949523Y-76094819D01*
X168282857Y-75094819D02*
X168901904Y-75094819D01*
X168901904Y-75094819D02*
X168568571Y-75475771D01*
X168568571Y-75475771D02*
X168711428Y-75475771D01*
X168711428Y-75475771D02*
X168806666Y-75523390D01*
X168806666Y-75523390D02*
X168854285Y-75571009D01*
X168854285Y-75571009D02*
X168901904Y-75666247D01*
X168901904Y-75666247D02*
X168901904Y-75904342D01*
X168901904Y-75904342D02*
X168854285Y-75999580D01*
X168854285Y-75999580D02*
X168806666Y-76047200D01*
X168806666Y-76047200D02*
X168711428Y-76094819D01*
X168711428Y-76094819D02*
X168425714Y-76094819D01*
X168425714Y-76094819D02*
X168330476Y-76047200D01*
X168330476Y-76047200D02*
X168282857Y-75999580D01*
X196905714Y-96414819D02*
X196905714Y-95414819D01*
X196905714Y-95414819D02*
X197143809Y-95414819D01*
X197143809Y-95414819D02*
X197286666Y-95462438D01*
X197286666Y-95462438D02*
X197381904Y-95557676D01*
X197381904Y-95557676D02*
X197429523Y-95652914D01*
X197429523Y-95652914D02*
X197477142Y-95843390D01*
X197477142Y-95843390D02*
X197477142Y-95986247D01*
X197477142Y-95986247D02*
X197429523Y-96176723D01*
X197429523Y-96176723D02*
X197381904Y-96271961D01*
X197381904Y-96271961D02*
X197286666Y-96367200D01*
X197286666Y-96367200D02*
X197143809Y-96414819D01*
X197143809Y-96414819D02*
X196905714Y-96414819D01*
X198334285Y-95414819D02*
X198143809Y-95414819D01*
X198143809Y-95414819D02*
X198048571Y-95462438D01*
X198048571Y-95462438D02*
X198000952Y-95510057D01*
X198000952Y-95510057D02*
X197905714Y-95652914D01*
X197905714Y-95652914D02*
X197858095Y-95843390D01*
X197858095Y-95843390D02*
X197858095Y-96224342D01*
X197858095Y-96224342D02*
X197905714Y-96319580D01*
X197905714Y-96319580D02*
X197953333Y-96367200D01*
X197953333Y-96367200D02*
X198048571Y-96414819D01*
X198048571Y-96414819D02*
X198239047Y-96414819D01*
X198239047Y-96414819D02*
X198334285Y-96367200D01*
X198334285Y-96367200D02*
X198381904Y-96319580D01*
X198381904Y-96319580D02*
X198429523Y-96224342D01*
X198429523Y-96224342D02*
X198429523Y-95986247D01*
X198429523Y-95986247D02*
X198381904Y-95891009D01*
X198381904Y-95891009D02*
X198334285Y-95843390D01*
X198334285Y-95843390D02*
X198239047Y-95795771D01*
X198239047Y-95795771D02*
X198048571Y-95795771D01*
X198048571Y-95795771D02*
X197953333Y-95843390D01*
X197953333Y-95843390D02*
X197905714Y-95891009D01*
X197905714Y-95891009D02*
X197858095Y-95986247D01*
X198762857Y-95414819D02*
X199429523Y-95414819D01*
X199429523Y-95414819D02*
X199000952Y-96414819D01*
X164089819Y-129713333D02*
X164804104Y-129713333D01*
X164804104Y-129713333D02*
X164946961Y-129760952D01*
X164946961Y-129760952D02*
X165042200Y-129856190D01*
X165042200Y-129856190D02*
X165089819Y-129999047D01*
X165089819Y-129999047D02*
X165089819Y-130094285D01*
X164185057Y-129284761D02*
X164137438Y-129237142D01*
X164137438Y-129237142D02*
X164089819Y-129141904D01*
X164089819Y-129141904D02*
X164089819Y-128903809D01*
X164089819Y-128903809D02*
X164137438Y-128808571D01*
X164137438Y-128808571D02*
X164185057Y-128760952D01*
X164185057Y-128760952D02*
X164280295Y-128713333D01*
X164280295Y-128713333D02*
X164375533Y-128713333D01*
X164375533Y-128713333D02*
X164518390Y-128760952D01*
X164518390Y-128760952D02*
X165089819Y-129332380D01*
X165089819Y-129332380D02*
X165089819Y-128713333D01*
X181665714Y-91334819D02*
X181665714Y-90334819D01*
X181665714Y-90334819D02*
X181903809Y-90334819D01*
X181903809Y-90334819D02*
X182046666Y-90382438D01*
X182046666Y-90382438D02*
X182141904Y-90477676D01*
X182141904Y-90477676D02*
X182189523Y-90572914D01*
X182189523Y-90572914D02*
X182237142Y-90763390D01*
X182237142Y-90763390D02*
X182237142Y-90906247D01*
X182237142Y-90906247D02*
X182189523Y-91096723D01*
X182189523Y-91096723D02*
X182141904Y-91191961D01*
X182141904Y-91191961D02*
X182046666Y-91287200D01*
X182046666Y-91287200D02*
X181903809Y-91334819D01*
X181903809Y-91334819D02*
X181665714Y-91334819D01*
X183141904Y-90334819D02*
X182665714Y-90334819D01*
X182665714Y-90334819D02*
X182618095Y-90811009D01*
X182618095Y-90811009D02*
X182665714Y-90763390D01*
X182665714Y-90763390D02*
X182760952Y-90715771D01*
X182760952Y-90715771D02*
X182999047Y-90715771D01*
X182999047Y-90715771D02*
X183094285Y-90763390D01*
X183094285Y-90763390D02*
X183141904Y-90811009D01*
X183141904Y-90811009D02*
X183189523Y-90906247D01*
X183189523Y-90906247D02*
X183189523Y-91144342D01*
X183189523Y-91144342D02*
X183141904Y-91239580D01*
X183141904Y-91239580D02*
X183094285Y-91287200D01*
X183094285Y-91287200D02*
X182999047Y-91334819D01*
X182999047Y-91334819D02*
X182760952Y-91334819D01*
X182760952Y-91334819D02*
X182665714Y-91287200D01*
X182665714Y-91287200D02*
X182618095Y-91239580D01*
X184094285Y-90334819D02*
X183618095Y-90334819D01*
X183618095Y-90334819D02*
X183570476Y-90811009D01*
X183570476Y-90811009D02*
X183618095Y-90763390D01*
X183618095Y-90763390D02*
X183713333Y-90715771D01*
X183713333Y-90715771D02*
X183951428Y-90715771D01*
X183951428Y-90715771D02*
X184046666Y-90763390D01*
X184046666Y-90763390D02*
X184094285Y-90811009D01*
X184094285Y-90811009D02*
X184141904Y-90906247D01*
X184141904Y-90906247D02*
X184141904Y-91144342D01*
X184141904Y-91144342D02*
X184094285Y-91239580D01*
X184094285Y-91239580D02*
X184046666Y-91287200D01*
X184046666Y-91287200D02*
X183951428Y-91334819D01*
X183951428Y-91334819D02*
X183713333Y-91334819D01*
X183713333Y-91334819D02*
X183618095Y-91287200D01*
X183618095Y-91287200D02*
X183570476Y-91239580D01*
X197381905Y-59724819D02*
X197381905Y-58724819D01*
X197381905Y-58724819D02*
X197620000Y-58724819D01*
X197620000Y-58724819D02*
X197762857Y-58772438D01*
X197762857Y-58772438D02*
X197858095Y-58867676D01*
X197858095Y-58867676D02*
X197905714Y-58962914D01*
X197905714Y-58962914D02*
X197953333Y-59153390D01*
X197953333Y-59153390D02*
X197953333Y-59296247D01*
X197953333Y-59296247D02*
X197905714Y-59486723D01*
X197905714Y-59486723D02*
X197858095Y-59581961D01*
X197858095Y-59581961D02*
X197762857Y-59677200D01*
X197762857Y-59677200D02*
X197620000Y-59724819D01*
X197620000Y-59724819D02*
X197381905Y-59724819D01*
X198286667Y-58724819D02*
X198953333Y-58724819D01*
X198953333Y-58724819D02*
X198524762Y-59724819D01*
X189761905Y-59724819D02*
X189761905Y-58724819D01*
X189761905Y-58724819D02*
X190000000Y-58724819D01*
X190000000Y-58724819D02*
X190142857Y-58772438D01*
X190142857Y-58772438D02*
X190238095Y-58867676D01*
X190238095Y-58867676D02*
X190285714Y-58962914D01*
X190285714Y-58962914D02*
X190333333Y-59153390D01*
X190333333Y-59153390D02*
X190333333Y-59296247D01*
X190333333Y-59296247D02*
X190285714Y-59486723D01*
X190285714Y-59486723D02*
X190238095Y-59581961D01*
X190238095Y-59581961D02*
X190142857Y-59677200D01*
X190142857Y-59677200D02*
X190000000Y-59724819D01*
X190000000Y-59724819D02*
X189761905Y-59724819D01*
X191190476Y-58724819D02*
X191000000Y-58724819D01*
X191000000Y-58724819D02*
X190904762Y-58772438D01*
X190904762Y-58772438D02*
X190857143Y-58820057D01*
X190857143Y-58820057D02*
X190761905Y-58962914D01*
X190761905Y-58962914D02*
X190714286Y-59153390D01*
X190714286Y-59153390D02*
X190714286Y-59534342D01*
X190714286Y-59534342D02*
X190761905Y-59629580D01*
X190761905Y-59629580D02*
X190809524Y-59677200D01*
X190809524Y-59677200D02*
X190904762Y-59724819D01*
X190904762Y-59724819D02*
X191095238Y-59724819D01*
X191095238Y-59724819D02*
X191190476Y-59677200D01*
X191190476Y-59677200D02*
X191238095Y-59629580D01*
X191238095Y-59629580D02*
X191285714Y-59534342D01*
X191285714Y-59534342D02*
X191285714Y-59296247D01*
X191285714Y-59296247D02*
X191238095Y-59201009D01*
X191238095Y-59201009D02*
X191190476Y-59153390D01*
X191190476Y-59153390D02*
X191095238Y-59105771D01*
X191095238Y-59105771D02*
X190904762Y-59105771D01*
X190904762Y-59105771D02*
X190809524Y-59153390D01*
X190809524Y-59153390D02*
X190761905Y-59201009D01*
X190761905Y-59201009D02*
X190714286Y-59296247D01*
X196905714Y-81174819D02*
X196905714Y-80174819D01*
X196905714Y-80174819D02*
X197143809Y-80174819D01*
X197143809Y-80174819D02*
X197286666Y-80222438D01*
X197286666Y-80222438D02*
X197381904Y-80317676D01*
X197381904Y-80317676D02*
X197429523Y-80412914D01*
X197429523Y-80412914D02*
X197477142Y-80603390D01*
X197477142Y-80603390D02*
X197477142Y-80746247D01*
X197477142Y-80746247D02*
X197429523Y-80936723D01*
X197429523Y-80936723D02*
X197381904Y-81031961D01*
X197381904Y-81031961D02*
X197286666Y-81127200D01*
X197286666Y-81127200D02*
X197143809Y-81174819D01*
X197143809Y-81174819D02*
X196905714Y-81174819D01*
X197810476Y-80174819D02*
X198429523Y-80174819D01*
X198429523Y-80174819D02*
X198096190Y-80555771D01*
X198096190Y-80555771D02*
X198239047Y-80555771D01*
X198239047Y-80555771D02*
X198334285Y-80603390D01*
X198334285Y-80603390D02*
X198381904Y-80651009D01*
X198381904Y-80651009D02*
X198429523Y-80746247D01*
X198429523Y-80746247D02*
X198429523Y-80984342D01*
X198429523Y-80984342D02*
X198381904Y-81079580D01*
X198381904Y-81079580D02*
X198334285Y-81127200D01*
X198334285Y-81127200D02*
X198239047Y-81174819D01*
X198239047Y-81174819D02*
X197953333Y-81174819D01*
X197953333Y-81174819D02*
X197858095Y-81127200D01*
X197858095Y-81127200D02*
X197810476Y-81079580D01*
X198762857Y-80174819D02*
X199429523Y-80174819D01*
X199429523Y-80174819D02*
X199000952Y-81174819D01*
X212621905Y-59724818D02*
X212621905Y-58724818D01*
X212621905Y-58724818D02*
X212860000Y-58724818D01*
X212860000Y-58724818D02*
X213002857Y-58772437D01*
X213002857Y-58772437D02*
X213098095Y-58867675D01*
X213098095Y-58867675D02*
X213145714Y-58962913D01*
X213145714Y-58962913D02*
X213193333Y-59153389D01*
X213193333Y-59153389D02*
X213193333Y-59296246D01*
X213193333Y-59296246D02*
X213145714Y-59486722D01*
X213145714Y-59486722D02*
X213098095Y-59581960D01*
X213098095Y-59581960D02*
X213002857Y-59677199D01*
X213002857Y-59677199D02*
X212860000Y-59724818D01*
X212860000Y-59724818D02*
X212621905Y-59724818D01*
X213669524Y-59724818D02*
X213860000Y-59724818D01*
X213860000Y-59724818D02*
X213955238Y-59677199D01*
X213955238Y-59677199D02*
X214002857Y-59629579D01*
X214002857Y-59629579D02*
X214098095Y-59486722D01*
X214098095Y-59486722D02*
X214145714Y-59296246D01*
X214145714Y-59296246D02*
X214145714Y-58915294D01*
X214145714Y-58915294D02*
X214098095Y-58820056D01*
X214098095Y-58820056D02*
X214050476Y-58772437D01*
X214050476Y-58772437D02*
X213955238Y-58724818D01*
X213955238Y-58724818D02*
X213764762Y-58724818D01*
X213764762Y-58724818D02*
X213669524Y-58772437D01*
X213669524Y-58772437D02*
X213621905Y-58820056D01*
X213621905Y-58820056D02*
X213574286Y-58915294D01*
X213574286Y-58915294D02*
X213574286Y-59153389D01*
X213574286Y-59153389D02*
X213621905Y-59248627D01*
X213621905Y-59248627D02*
X213669524Y-59296246D01*
X213669524Y-59296246D02*
X213764762Y-59343865D01*
X213764762Y-59343865D02*
X213955238Y-59343865D01*
X213955238Y-59343865D02*
X214050476Y-59296246D01*
X214050476Y-59296246D02*
X214098095Y-59248627D01*
X214098095Y-59248627D02*
X214145714Y-59153389D01*
X219765714Y-86254819D02*
X219765714Y-85254819D01*
X219765714Y-85254819D02*
X220003809Y-85254819D01*
X220003809Y-85254819D02*
X220146666Y-85302438D01*
X220146666Y-85302438D02*
X220241904Y-85397676D01*
X220241904Y-85397676D02*
X220289523Y-85492914D01*
X220289523Y-85492914D02*
X220337142Y-85683390D01*
X220337142Y-85683390D02*
X220337142Y-85826247D01*
X220337142Y-85826247D02*
X220289523Y-86016723D01*
X220289523Y-86016723D02*
X220241904Y-86111961D01*
X220241904Y-86111961D02*
X220146666Y-86207200D01*
X220146666Y-86207200D02*
X220003809Y-86254819D01*
X220003809Y-86254819D02*
X219765714Y-86254819D01*
X221241904Y-85254819D02*
X220765714Y-85254819D01*
X220765714Y-85254819D02*
X220718095Y-85731009D01*
X220718095Y-85731009D02*
X220765714Y-85683390D01*
X220765714Y-85683390D02*
X220860952Y-85635771D01*
X220860952Y-85635771D02*
X221099047Y-85635771D01*
X221099047Y-85635771D02*
X221194285Y-85683390D01*
X221194285Y-85683390D02*
X221241904Y-85731009D01*
X221241904Y-85731009D02*
X221289523Y-85826247D01*
X221289523Y-85826247D02*
X221289523Y-86064342D01*
X221289523Y-86064342D02*
X221241904Y-86159580D01*
X221241904Y-86159580D02*
X221194285Y-86207200D01*
X221194285Y-86207200D02*
X221099047Y-86254819D01*
X221099047Y-86254819D02*
X220860952Y-86254819D01*
X220860952Y-86254819D02*
X220765714Y-86207200D01*
X220765714Y-86207200D02*
X220718095Y-86159580D01*
X221908571Y-85254819D02*
X222003809Y-85254819D01*
X222003809Y-85254819D02*
X222099047Y-85302438D01*
X222099047Y-85302438D02*
X222146666Y-85350057D01*
X222146666Y-85350057D02*
X222194285Y-85445295D01*
X222194285Y-85445295D02*
X222241904Y-85635771D01*
X222241904Y-85635771D02*
X222241904Y-85873866D01*
X222241904Y-85873866D02*
X222194285Y-86064342D01*
X222194285Y-86064342D02*
X222146666Y-86159580D01*
X222146666Y-86159580D02*
X222099047Y-86207200D01*
X222099047Y-86207200D02*
X222003809Y-86254819D01*
X222003809Y-86254819D02*
X221908571Y-86254819D01*
X221908571Y-86254819D02*
X221813333Y-86207200D01*
X221813333Y-86207200D02*
X221765714Y-86159580D01*
X221765714Y-86159580D02*
X221718095Y-86064342D01*
X221718095Y-86064342D02*
X221670476Y-85873866D01*
X221670476Y-85873866D02*
X221670476Y-85635771D01*
X221670476Y-85635771D02*
X221718095Y-85445295D01*
X221718095Y-85445295D02*
X221765714Y-85350057D01*
X221765714Y-85350057D02*
X221813333Y-85302438D01*
X221813333Y-85302438D02*
X221908571Y-85254819D01*
X166034819Y-121411904D02*
X166844342Y-121411904D01*
X166844342Y-121411904D02*
X166939580Y-121364285D01*
X166939580Y-121364285D02*
X166987200Y-121316666D01*
X166987200Y-121316666D02*
X167034819Y-121221428D01*
X167034819Y-121221428D02*
X167034819Y-121030952D01*
X167034819Y-121030952D02*
X166987200Y-120935714D01*
X166987200Y-120935714D02*
X166939580Y-120888095D01*
X166939580Y-120888095D02*
X166844342Y-120840476D01*
X166844342Y-120840476D02*
X166034819Y-120840476D01*
X167034819Y-119840476D02*
X167034819Y-120411904D01*
X167034819Y-120126190D02*
X166034819Y-120126190D01*
X166034819Y-120126190D02*
X166177676Y-120221428D01*
X166177676Y-120221428D02*
X166272914Y-120316666D01*
X166272914Y-120316666D02*
X166320533Y-120411904D01*
X205001905Y-59724819D02*
X205001905Y-58724819D01*
X205001905Y-58724819D02*
X205240000Y-58724819D01*
X205240000Y-58724819D02*
X205382857Y-58772438D01*
X205382857Y-58772438D02*
X205478095Y-58867676D01*
X205478095Y-58867676D02*
X205525714Y-58962914D01*
X205525714Y-58962914D02*
X205573333Y-59153390D01*
X205573333Y-59153390D02*
X205573333Y-59296247D01*
X205573333Y-59296247D02*
X205525714Y-59486723D01*
X205525714Y-59486723D02*
X205478095Y-59581961D01*
X205478095Y-59581961D02*
X205382857Y-59677200D01*
X205382857Y-59677200D02*
X205240000Y-59724819D01*
X205240000Y-59724819D02*
X205001905Y-59724819D01*
X206144762Y-59153390D02*
X206049524Y-59105771D01*
X206049524Y-59105771D02*
X206001905Y-59058152D01*
X206001905Y-59058152D02*
X205954286Y-58962914D01*
X205954286Y-58962914D02*
X205954286Y-58915295D01*
X205954286Y-58915295D02*
X206001905Y-58820057D01*
X206001905Y-58820057D02*
X206049524Y-58772438D01*
X206049524Y-58772438D02*
X206144762Y-58724819D01*
X206144762Y-58724819D02*
X206335238Y-58724819D01*
X206335238Y-58724819D02*
X206430476Y-58772438D01*
X206430476Y-58772438D02*
X206478095Y-58820057D01*
X206478095Y-58820057D02*
X206525714Y-58915295D01*
X206525714Y-58915295D02*
X206525714Y-58962914D01*
X206525714Y-58962914D02*
X206478095Y-59058152D01*
X206478095Y-59058152D02*
X206430476Y-59105771D01*
X206430476Y-59105771D02*
X206335238Y-59153390D01*
X206335238Y-59153390D02*
X206144762Y-59153390D01*
X206144762Y-59153390D02*
X206049524Y-59201009D01*
X206049524Y-59201009D02*
X206001905Y-59248628D01*
X206001905Y-59248628D02*
X205954286Y-59343866D01*
X205954286Y-59343866D02*
X205954286Y-59534342D01*
X205954286Y-59534342D02*
X206001905Y-59629580D01*
X206001905Y-59629580D02*
X206049524Y-59677200D01*
X206049524Y-59677200D02*
X206144762Y-59724819D01*
X206144762Y-59724819D02*
X206335238Y-59724819D01*
X206335238Y-59724819D02*
X206430476Y-59677200D01*
X206430476Y-59677200D02*
X206478095Y-59629580D01*
X206478095Y-59629580D02*
X206525714Y-59534342D01*
X206525714Y-59534342D02*
X206525714Y-59343866D01*
X206525714Y-59343866D02*
X206478095Y-59248628D01*
X206478095Y-59248628D02*
X206430476Y-59201009D01*
X206430476Y-59201009D02*
X206335238Y-59153390D01*
X148894819Y-72334285D02*
X147894819Y-72334285D01*
X147894819Y-72334285D02*
X147894819Y-72096190D01*
X147894819Y-72096190D02*
X147942438Y-71953333D01*
X147942438Y-71953333D02*
X148037676Y-71858095D01*
X148037676Y-71858095D02*
X148132914Y-71810476D01*
X148132914Y-71810476D02*
X148323390Y-71762857D01*
X148323390Y-71762857D02*
X148466247Y-71762857D01*
X148466247Y-71762857D02*
X148656723Y-71810476D01*
X148656723Y-71810476D02*
X148751961Y-71858095D01*
X148751961Y-71858095D02*
X148847200Y-71953333D01*
X148847200Y-71953333D02*
X148894819Y-72096190D01*
X148894819Y-72096190D02*
X148894819Y-72334285D01*
X148894819Y-70810476D02*
X148894819Y-71381904D01*
X148894819Y-71096190D02*
X147894819Y-71096190D01*
X147894819Y-71096190D02*
X148037676Y-71191428D01*
X148037676Y-71191428D02*
X148132914Y-71286666D01*
X148132914Y-71286666D02*
X148180533Y-71381904D01*
X148894819Y-69858095D02*
X148894819Y-70429523D01*
X148894819Y-70143809D02*
X147894819Y-70143809D01*
X147894819Y-70143809D02*
X148037676Y-70239047D01*
X148037676Y-70239047D02*
X148132914Y-70334285D01*
X148132914Y-70334285D02*
X148180533Y-70429523D01*
X151661905Y-59724819D02*
X151661905Y-58724819D01*
X151661905Y-58724819D02*
X151900000Y-58724819D01*
X151900000Y-58724819D02*
X152042857Y-58772438D01*
X152042857Y-58772438D02*
X152138095Y-58867676D01*
X152138095Y-58867676D02*
X152185714Y-58962914D01*
X152185714Y-58962914D02*
X152233333Y-59153390D01*
X152233333Y-59153390D02*
X152233333Y-59296247D01*
X152233333Y-59296247D02*
X152185714Y-59486723D01*
X152185714Y-59486723D02*
X152138095Y-59581961D01*
X152138095Y-59581961D02*
X152042857Y-59677200D01*
X152042857Y-59677200D02*
X151900000Y-59724819D01*
X151900000Y-59724819D02*
X151661905Y-59724819D01*
X153185714Y-59724819D02*
X152614286Y-59724819D01*
X152900000Y-59724819D02*
X152900000Y-58724819D01*
X152900000Y-58724819D02*
X152804762Y-58867676D01*
X152804762Y-58867676D02*
X152709524Y-58962914D01*
X152709524Y-58962914D02*
X152614286Y-59010533D01*
X186994820Y-72339285D02*
X185994820Y-72339285D01*
X185994820Y-72339285D02*
X185994820Y-72101190D01*
X185994820Y-72101190D02*
X186042439Y-71958333D01*
X186042439Y-71958333D02*
X186137677Y-71863095D01*
X186137677Y-71863095D02*
X186232915Y-71815476D01*
X186232915Y-71815476D02*
X186423391Y-71767857D01*
X186423391Y-71767857D02*
X186566248Y-71767857D01*
X186566248Y-71767857D02*
X186756724Y-71815476D01*
X186756724Y-71815476D02*
X186851962Y-71863095D01*
X186851962Y-71863095D02*
X186947201Y-71958333D01*
X186947201Y-71958333D02*
X186994820Y-72101190D01*
X186994820Y-72101190D02*
X186994820Y-72339285D01*
X186994820Y-70815476D02*
X186994820Y-71386904D01*
X186994820Y-71101190D02*
X185994820Y-71101190D01*
X185994820Y-71101190D02*
X186137677Y-71196428D01*
X186137677Y-71196428D02*
X186232915Y-71291666D01*
X186232915Y-71291666D02*
X186280534Y-71386904D01*
X186090058Y-70434523D02*
X186042439Y-70386904D01*
X186042439Y-70386904D02*
X185994820Y-70291666D01*
X185994820Y-70291666D02*
X185994820Y-70053571D01*
X185994820Y-70053571D02*
X186042439Y-69958333D01*
X186042439Y-69958333D02*
X186090058Y-69910714D01*
X186090058Y-69910714D02*
X186185296Y-69863095D01*
X186185296Y-69863095D02*
X186280534Y-69863095D01*
X186280534Y-69863095D02*
X186423391Y-69910714D01*
X186423391Y-69910714D02*
X186994820Y-70482142D01*
X186994820Y-70482142D02*
X186994820Y-69863095D01*
X174045714Y-76094819D02*
X174045714Y-75094819D01*
X174045714Y-75094819D02*
X174283809Y-75094819D01*
X174283809Y-75094819D02*
X174426666Y-75142438D01*
X174426666Y-75142438D02*
X174521904Y-75237676D01*
X174521904Y-75237676D02*
X174569523Y-75332914D01*
X174569523Y-75332914D02*
X174617142Y-75523390D01*
X174617142Y-75523390D02*
X174617142Y-75666247D01*
X174617142Y-75666247D02*
X174569523Y-75856723D01*
X174569523Y-75856723D02*
X174521904Y-75951961D01*
X174521904Y-75951961D02*
X174426666Y-76047200D01*
X174426666Y-76047200D02*
X174283809Y-76094819D01*
X174283809Y-76094819D02*
X174045714Y-76094819D01*
X174998095Y-75190057D02*
X175045714Y-75142438D01*
X175045714Y-75142438D02*
X175140952Y-75094819D01*
X175140952Y-75094819D02*
X175379047Y-75094819D01*
X175379047Y-75094819D02*
X175474285Y-75142438D01*
X175474285Y-75142438D02*
X175521904Y-75190057D01*
X175521904Y-75190057D02*
X175569523Y-75285295D01*
X175569523Y-75285295D02*
X175569523Y-75380533D01*
X175569523Y-75380533D02*
X175521904Y-75523390D01*
X175521904Y-75523390D02*
X174950476Y-76094819D01*
X174950476Y-76094819D02*
X175569523Y-76094819D01*
X176426666Y-75428152D02*
X176426666Y-76094819D01*
X176188571Y-75047200D02*
X175950476Y-75761485D01*
X175950476Y-75761485D02*
X176569523Y-75761485D01*
X158805714Y-91334819D02*
X158805714Y-90334819D01*
X158805714Y-90334819D02*
X159043809Y-90334819D01*
X159043809Y-90334819D02*
X159186666Y-90382438D01*
X159186666Y-90382438D02*
X159281904Y-90477676D01*
X159281904Y-90477676D02*
X159329523Y-90572914D01*
X159329523Y-90572914D02*
X159377142Y-90763390D01*
X159377142Y-90763390D02*
X159377142Y-90906247D01*
X159377142Y-90906247D02*
X159329523Y-91096723D01*
X159329523Y-91096723D02*
X159281904Y-91191961D01*
X159281904Y-91191961D02*
X159186666Y-91287200D01*
X159186666Y-91287200D02*
X159043809Y-91334819D01*
X159043809Y-91334819D02*
X158805714Y-91334819D01*
X160281904Y-90334819D02*
X159805714Y-90334819D01*
X159805714Y-90334819D02*
X159758095Y-90811009D01*
X159758095Y-90811009D02*
X159805714Y-90763390D01*
X159805714Y-90763390D02*
X159900952Y-90715771D01*
X159900952Y-90715771D02*
X160139047Y-90715771D01*
X160139047Y-90715771D02*
X160234285Y-90763390D01*
X160234285Y-90763390D02*
X160281904Y-90811009D01*
X160281904Y-90811009D02*
X160329523Y-90906247D01*
X160329523Y-90906247D02*
X160329523Y-91144342D01*
X160329523Y-91144342D02*
X160281904Y-91239580D01*
X160281904Y-91239580D02*
X160234285Y-91287200D01*
X160234285Y-91287200D02*
X160139047Y-91334819D01*
X160139047Y-91334819D02*
X159900952Y-91334819D01*
X159900952Y-91334819D02*
X159805714Y-91287200D01*
X159805714Y-91287200D02*
X159758095Y-91239580D01*
X160710476Y-90430057D02*
X160758095Y-90382438D01*
X160758095Y-90382438D02*
X160853333Y-90334819D01*
X160853333Y-90334819D02*
X161091428Y-90334819D01*
X161091428Y-90334819D02*
X161186666Y-90382438D01*
X161186666Y-90382438D02*
X161234285Y-90430057D01*
X161234285Y-90430057D02*
X161281904Y-90525295D01*
X161281904Y-90525295D02*
X161281904Y-90620533D01*
X161281904Y-90620533D02*
X161234285Y-90763390D01*
X161234285Y-90763390D02*
X160662857Y-91334819D01*
X160662857Y-91334819D02*
X161281904Y-91334819D01*
D12*
%TO.C,JP1*%
X154830000Y-115460000D02*
X156210000Y-115460000D01*
X154830000Y-116840000D02*
X154830000Y-115460000D01*
X154830000Y-118110000D02*
X154830000Y-120760000D01*
X154830000Y-118110000D02*
X157590000Y-118110000D01*
X154830000Y-120760000D02*
X157590000Y-120760000D01*
X157590000Y-118110000D02*
X157590000Y-120760000D01*
%TO.C,D25*%
X180420000Y-76335000D02*
X180420000Y-78605000D01*
X180420000Y-78605000D02*
X184480000Y-78605000D01*
X184480000Y-76335000D02*
X180420000Y-76335000D01*
%TO.C,D35*%
X180420000Y-81415000D02*
X180420000Y-83685000D01*
X180420000Y-83685000D02*
X184480000Y-83685000D01*
X184480000Y-81415000D02*
X180420000Y-81415000D01*
%TO.C,D63*%
X165180000Y-96655000D02*
X165180000Y-98925000D01*
X165180000Y-98925000D02*
X169240000Y-98925000D01*
X169240000Y-96655000D02*
X165180000Y-96655000D01*
%TO.C,D56*%
X188040000Y-91575000D02*
X188040001Y-93845000D01*
X188040001Y-93845000D02*
X192100000Y-93845000D01*
X192100000Y-91575000D02*
X188040000Y-91575000D01*
%TO.C,D69*%
X210900000Y-96655000D02*
X210900000Y-98925000D01*
X210900000Y-98925000D02*
X214960000Y-98925000D01*
X214959999Y-96655000D02*
X210900000Y-96655000D01*
%TO.C,D59*%
X210900000Y-91575000D02*
X210900000Y-93845000D01*
X210900000Y-93845000D02*
X214960000Y-93845000D01*
X214959999Y-91575000D02*
X210900000Y-91575000D01*
%TO.C,D21*%
X154000000Y-76335000D02*
X149940000Y-76335000D01*
X149940000Y-76335000D02*
X149940000Y-78605000D01*
X149940000Y-78605000D02*
X154000000Y-78605000D01*
%TO.C,D33*%
X165180000Y-81415000D02*
X165180000Y-83685000D01*
X165180000Y-83685000D02*
X169240000Y-83685000D01*
X169240000Y-81415000D02*
X165180000Y-81415000D01*
%TO.C,D70*%
X218520000Y-96655000D02*
X218520000Y-98925000D01*
X218520000Y-98925000D02*
X222580000Y-98925000D01*
X222580000Y-96655000D02*
X218520000Y-96655000D01*
%TO.C,D61*%
X154000000Y-96655000D02*
X149940000Y-96655000D01*
X149940000Y-96655000D02*
X149940000Y-98925000D01*
X149940000Y-98925000D02*
X154000000Y-98925000D01*
%TO.C,D10*%
X219419999Y-60994000D02*
X219420000Y-61150000D01*
X219420000Y-63310000D02*
X219420000Y-63466000D01*
X219420000Y-60994484D02*
G75*
G02*
X222651436Y-61150000I1560000J-1235516D01*
G01*
X219939039Y-61150000D02*
G75*
G02*
X222020961Y-61150000I1040961J-1080000D01*
G01*
X222020961Y-63310000D02*
G75*
G02*
X219939039Y-63310000I-1040961J1080000D01*
G01*
X222651437Y-63310000D02*
G75*
G02*
X219420000Y-63465516I-1671437J1080004D01*
G01*
%TO.C,D40*%
X218520000Y-81415000D02*
X218520000Y-83685000D01*
X218520000Y-83685000D02*
X222580000Y-83685000D01*
X222580000Y-81415000D02*
X218520000Y-81415000D01*
%TO.C,D31*%
X154000000Y-81415000D02*
X149940000Y-81415000D01*
X149940000Y-81415000D02*
X149940000Y-83685000D01*
X149940000Y-83685000D02*
X154000000Y-83685000D01*
%TO.C,D58*%
X203280000Y-91575000D02*
X203280000Y-93845000D01*
X203280000Y-93845000D02*
X207339999Y-93845000D01*
X207340000Y-91575000D02*
X203280000Y-91575000D01*
%TO.C,D4*%
X173700000Y-60994000D02*
X173700000Y-61150000D01*
X173700000Y-63310000D02*
X173700000Y-63466000D01*
X173700000Y-60994484D02*
G75*
G02*
X176931437Y-61150000I1560000J-1235516D01*
G01*
X174219039Y-61150000D02*
G75*
G02*
X176300961Y-61150000I1040961J-1080000D01*
G01*
X176300961Y-63310000D02*
G75*
G02*
X174219039Y-63310000I-1040961J1080000D01*
G01*
X176931437Y-63310000D02*
G75*
G02*
X173700000Y-63465516I-1671437J1080000D01*
G01*
%TO.C,D49*%
X210900000Y-86495000D02*
X210900000Y-88765000D01*
X210900000Y-88765000D02*
X214960000Y-88765000D01*
X214959999Y-86495000D02*
X210900000Y-86495000D01*
%TO.C,D26*%
X188040000Y-76335000D02*
X188040001Y-78605000D01*
X188040001Y-78605000D02*
X192100000Y-78605000D01*
X192100000Y-76335000D02*
X188040000Y-76335000D01*
%TO.C,D68*%
X203280000Y-96655000D02*
X203280000Y-98925000D01*
X203280000Y-98925000D02*
X207339999Y-98925000D01*
X207340000Y-96655000D02*
X203280000Y-96655000D01*
%TO.C,D51*%
X154000000Y-91575000D02*
X149940000Y-91575000D01*
X149940000Y-91575000D02*
X149940000Y-93845000D01*
X149940000Y-93845000D02*
X154000000Y-93845000D01*
%TO.C,D66*%
X188040000Y-96655000D02*
X188040001Y-98925000D01*
X188040001Y-98925000D02*
X192100000Y-98925000D01*
X192100000Y-96655000D02*
X188040000Y-96655000D01*
%TO.C,D62*%
X157560000Y-96655000D02*
X157560000Y-98925000D01*
X157560000Y-98925000D02*
X161620000Y-98925000D01*
X161620000Y-96655000D02*
X157560000Y-96655000D01*
%TO.C,D38*%
X203280000Y-81415000D02*
X203280000Y-83685000D01*
X203280000Y-83685000D02*
X207339999Y-83685000D01*
X207340000Y-81415000D02*
X203280000Y-81415000D01*
%TO.C,D36*%
X188040000Y-81415000D02*
X188040001Y-83685000D01*
X188040001Y-83685000D02*
X192100000Y-83685000D01*
X192100000Y-81415000D02*
X188040000Y-81415000D01*
%TO.C,D5*%
X181320000Y-60994000D02*
X181320000Y-61150000D01*
X181320000Y-63310000D02*
X181320000Y-63466001D01*
X181319999Y-60994484D02*
G75*
G02*
X184551437Y-61150000I1560001J-1235516D01*
G01*
X181839039Y-61150000D02*
G75*
G02*
X183920960Y-61150000I1040961J-1079999D01*
G01*
X183920961Y-63310000D02*
G75*
G02*
X181839039Y-63310000I-1040961J1080000D01*
G01*
X184551437Y-63310000D02*
G75*
G02*
X181320000Y-63465516I-1671437J1080000D01*
G01*
%TO.C,D30*%
X218520000Y-76335000D02*
X218520000Y-78605000D01*
X218520000Y-78605000D02*
X222580000Y-78605000D01*
X222580000Y-76335000D02*
X218520000Y-76335000D01*
%TO.C,D65*%
X180420000Y-96655000D02*
X180420000Y-98925000D01*
X180420000Y-98925000D02*
X184480000Y-98925000D01*
X184480000Y-96655000D02*
X180420000Y-96655000D01*
%TO.C,D60*%
X218520000Y-91575000D02*
X218520000Y-93845000D01*
X218520000Y-93845000D02*
X222580000Y-93845000D01*
X222580000Y-91575000D02*
X218520000Y-91575000D01*
%TO.C,D54*%
X172800000Y-91575000D02*
X172800000Y-93845000D01*
X172800000Y-93845000D02*
X176860000Y-93845000D01*
X176860000Y-91575000D02*
X172800000Y-91575000D01*
%TO.C,D46*%
X188040000Y-86495000D02*
X188040001Y-88765000D01*
X188040001Y-88765000D02*
X192100000Y-88765000D01*
X192100000Y-86495000D02*
X188040000Y-86495000D01*
%TO.C,D3*%
X166080000Y-60994000D02*
X166080000Y-61150000D01*
X166080000Y-63310000D02*
X166080000Y-63466000D01*
X166080000Y-60994484D02*
G75*
G02*
X169311437Y-61150000I1560000J-1235516D01*
G01*
X166599039Y-61149998D02*
G75*
G02*
X168680962Y-61149999I1040961J-1080002D01*
G01*
X168680961Y-63310000D02*
G75*
G02*
X166599039Y-63310000I-1040961J1080000D01*
G01*
X169311437Y-63310000D02*
G75*
G02*
X166080000Y-63465516I-1671437J1080000D01*
G01*
%TO.C,D45*%
X180420000Y-86495000D02*
X180420000Y-88765000D01*
X180420000Y-88765000D02*
X184480000Y-88765000D01*
X184480000Y-86495000D02*
X180420000Y-86495000D01*
%TO.C,D34*%
X172800000Y-81415000D02*
X172800000Y-83685000D01*
X172800000Y-83685000D02*
X176860000Y-83685000D01*
X176860000Y-81415000D02*
X172800000Y-81415000D01*
%TO.C,D41*%
X154000000Y-86495000D02*
X149940000Y-86495000D01*
X149940000Y-86495000D02*
X149940000Y-88765000D01*
X149940000Y-88765000D02*
X154000000Y-88765000D01*
%TO.C,D64*%
X172800000Y-96655000D02*
X172800000Y-98925000D01*
X172800000Y-98925000D02*
X176860000Y-98925000D01*
X176860000Y-96655000D02*
X172800000Y-96655000D01*
%TO.C,D2*%
X158460000Y-60994000D02*
X158460000Y-61150000D01*
X158460000Y-63310000D02*
X158460000Y-63466000D01*
X158460000Y-60994484D02*
G75*
G02*
X161691437Y-61150000I1560000J-1235516D01*
G01*
X158979039Y-61150000D02*
G75*
G02*
X161060961Y-61150000I1040961J-1080000D01*
G01*
X161060961Y-63310000D02*
G75*
G02*
X158979039Y-63310000I-1040961J1080000D01*
G01*
X161691437Y-63310000D02*
G75*
G02*
X158460000Y-63465516I-1671437J1080000D01*
G01*
%TO.C,D47*%
X195877500Y-86495000D02*
X195877500Y-88765000D01*
X195877500Y-88765000D02*
X199937500Y-88765000D01*
X199937500Y-86495000D02*
X195877500Y-86495000D01*
%TO.C,D29*%
X210900000Y-76335000D02*
X210900000Y-78605000D01*
X210900000Y-78605000D02*
X214960000Y-78605000D01*
X214959999Y-76335000D02*
X210900000Y-76335000D01*
%TO.C,D42*%
X157560000Y-86495000D02*
X157560000Y-88765000D01*
X157560000Y-88765000D02*
X161620000Y-88765000D01*
X161620000Y-86495000D02*
X157560000Y-86495000D01*
%TO.C,D27*%
X195660000Y-76335000D02*
X195660000Y-78605000D01*
X195660000Y-78605000D02*
X199720000Y-78605000D01*
X199720000Y-76335000D02*
X195660000Y-76335000D01*
%TO.C,D44*%
X172800000Y-86495000D02*
X172800000Y-88765000D01*
X172800000Y-88765000D02*
X176860000Y-88765000D01*
X176860000Y-86495000D02*
X172800000Y-86495000D01*
%TO.C,D53*%
X165180000Y-91575000D02*
X165180000Y-93845000D01*
X165180000Y-93845000D02*
X169240000Y-93845000D01*
X169240000Y-91575000D02*
X165180000Y-91575000D01*
%TO.C,D32*%
X157560000Y-81415000D02*
X157560000Y-83685000D01*
X157560000Y-83685000D02*
X161620000Y-83685000D01*
X161620000Y-81415000D02*
X157560000Y-81415000D01*
%TO.C,D39*%
X210900000Y-81415000D02*
X210900000Y-83685000D01*
X210900000Y-83685000D02*
X214960000Y-83685000D01*
X214959999Y-81415000D02*
X210900000Y-81415000D01*
%TO.C,D57*%
X195660000Y-91575000D02*
X195660000Y-93845000D01*
X195660000Y-93845000D02*
X199720000Y-93845000D01*
X199720000Y-91575000D02*
X195660000Y-91575000D01*
%TO.C,D28*%
X203280000Y-76335000D02*
X203280000Y-78605000D01*
X203280000Y-78605000D02*
X207339999Y-78605000D01*
X207340000Y-76335000D02*
X203280000Y-76335000D01*
%TO.C,D48*%
X203280000Y-86495000D02*
X203280000Y-88765000D01*
X203280000Y-88765000D02*
X207339999Y-88765000D01*
X207340000Y-86495000D02*
X203280000Y-86495000D01*
%TO.C,D22*%
X157560000Y-76335000D02*
X157560000Y-78605000D01*
X157560000Y-78605000D02*
X161620000Y-78605000D01*
X161620000Y-76335000D02*
X157560000Y-76335000D01*
%TO.C,D43*%
X165180000Y-86495000D02*
X165180000Y-88765000D01*
X165180000Y-88765000D02*
X169240000Y-88765000D01*
X169240000Y-86495000D02*
X165180000Y-86495000D01*
%TO.C,D23*%
X165180000Y-76335000D02*
X165180000Y-78605000D01*
X165180000Y-78605000D02*
X169240000Y-78605000D01*
X169240000Y-76335000D02*
X165180000Y-76335000D01*
%TO.C,D67*%
X195660000Y-96655000D02*
X195660000Y-98925000D01*
X195660000Y-98925000D02*
X199720000Y-98925000D01*
X199720000Y-96655000D02*
X195660000Y-96655000D01*
D13*
%TO.C,J2*%
X161940000Y-127080000D02*
X160760000Y-127080000D01*
X157520000Y-127080000D02*
X156060000Y-127080000D01*
X148940000Y-127080000D02*
X152820000Y-127080000D01*
X161940000Y-130635000D02*
X161940000Y-127080000D01*
X161940000Y-137080000D02*
X161940000Y-133525000D01*
X161940000Y-137080000D02*
X160760000Y-137080000D01*
X156060000Y-137080000D02*
X157520000Y-137080000D01*
X148940000Y-137080000D02*
X152820000Y-137080000D01*
D14*
X162690000Y-132080000D02*
G75*
G02*
X162490000Y-132080000I-100000J0D01*
G01*
X162490000Y-132080000D02*
G75*
G02*
X162690000Y-132080000I100000J0D01*
G01*
D12*
%TO.C,D55*%
X180420000Y-91575000D02*
X180420000Y-93845000D01*
X180420000Y-93845000D02*
X184480000Y-93845000D01*
X184480000Y-91575000D02*
X180420000Y-91575000D01*
%TO.C,D7*%
X196560000Y-60994000D02*
X196560000Y-61150000D01*
X196560000Y-63310000D02*
X196559999Y-63466000D01*
X196560000Y-60994484D02*
G75*
G02*
X199791437Y-61150000I1560000J-1235520D01*
G01*
X197079039Y-61149999D02*
G75*
G02*
X199160961Y-61149999I1040961J-1080001D01*
G01*
X199160961Y-63310000D02*
G75*
G02*
X197079039Y-63310000I-1040961J1080000D01*
G01*
X199791437Y-63310001D02*
G75*
G02*
X196560001Y-63465516I-1671436J1080003D01*
G01*
%TO.C,D6*%
X188940000Y-63309999D02*
X188940000Y-63465999D01*
X188940001Y-60994000D02*
X188940001Y-61150000D01*
X188940000Y-60994484D02*
G75*
G02*
X192171437Y-61150000I1560000J-1235516D01*
G01*
X189459039Y-61150000D02*
G75*
G02*
X191540961Y-61150000I1040961J-1080000D01*
G01*
X191540961Y-63310000D02*
G75*
G02*
X189459039Y-63310000I-1040961J1080000D01*
G01*
X192171437Y-63310000D02*
G75*
G02*
X188940000Y-63465516I-1671437J1080000D01*
G01*
%TO.C,D37*%
X195660000Y-81415000D02*
X195660000Y-83685000D01*
X195660000Y-83685000D02*
X199720000Y-83685000D01*
X199720000Y-81415000D02*
X195660000Y-81415000D01*
%TO.C,D9*%
X211800000Y-60994000D02*
X211800000Y-61150000D01*
X211800000Y-63310000D02*
X211800000Y-63466000D01*
X211799999Y-60994484D02*
G75*
G02*
X215031437Y-61150000I1560001J-1235516D01*
G01*
X212319039Y-61150000D02*
G75*
G02*
X214400961Y-61150000I1040961J-1080000D01*
G01*
X214400961Y-63310000D02*
G75*
G02*
X212319039Y-63310000I-1040961J1080000D01*
G01*
X215031437Y-63310000D02*
G75*
G02*
X211800000Y-63465516I-1671437J1080004D01*
G01*
%TO.C,D50*%
X218520000Y-86495000D02*
X218520000Y-88765000D01*
X218520000Y-88765000D02*
X222580000Y-88765000D01*
X222580000Y-86495000D02*
X218520000Y-86495000D01*
%TO.C,U1*%
X167580000Y-114590000D02*
X167580000Y-119650000D01*
X167580000Y-121650000D02*
X167580000Y-126710000D01*
X167580000Y-126710000D02*
X203260000Y-126709999D01*
X203260000Y-114589999D02*
X167580000Y-114590000D01*
X203260000Y-126709999D02*
X203260000Y-114589999D01*
X167580000Y-119650000D02*
G75*
G02*
X167580000Y-121650000I0J-1000000D01*
G01*
%TO.C,D8*%
X204180000Y-60994000D02*
X204180000Y-61150000D01*
X204180000Y-63310000D02*
X204180000Y-63466000D01*
X204180000Y-60994484D02*
G75*
G02*
X207411437Y-61150000I1560000J-1235520D01*
G01*
X204699039Y-61150000D02*
G75*
G02*
X206780961Y-61150000I1040961J-1080000D01*
G01*
X206780961Y-63310000D02*
G75*
G02*
X204699039Y-63310000I-1040961J1080000D01*
G01*
X207411437Y-63310000D02*
G75*
G02*
X204179999Y-63465516I-1671437J1080002D01*
G01*
%TO.C,D11*%
X150855000Y-73680000D02*
X153945000Y-73680000D01*
X150855170Y-73680000D02*
G75*
G02*
X152400000Y-68130000I1544830J2560000D01*
G01*
X152400000Y-68130000D02*
G75*
G02*
X153944830Y-73680000I0J-2990000D01*
G01*
X154900000Y-71120000D02*
G75*
G02*
X149900000Y-71120000I-2500000J0D01*
G01*
X149900000Y-71120000D02*
G75*
G02*
X154900000Y-71120000I2500000J0D01*
G01*
%TO.C,D1*%
X150840000Y-60994000D02*
X150840000Y-61150000D01*
X150840000Y-63310000D02*
X150840000Y-63466000D01*
X150840000Y-60994484D02*
G75*
G02*
X154071437Y-61150000I1560000J-1235516D01*
G01*
X151359039Y-61150000D02*
G75*
G02*
X153440961Y-61150000I1040961J-1080000D01*
G01*
X154071437Y-63310000D02*
G75*
G02*
X150840000Y-63465516I-1671437J1080000D01*
G01*
X153440961Y-63310000D02*
G75*
G02*
X151359039Y-63310000I-1040961J1080000D01*
G01*
%TO.C,D12*%
X193000001Y-71125000D02*
G75*
G02*
X188000001Y-71125000I-2500000J0D01*
G01*
X188000001Y-71125000D02*
G75*
G02*
X193000001Y-71125000I2500000J0D01*
G01*
X190500001Y-68135000D02*
G75*
G02*
X192044831Y-73685000I0J-2990000D01*
G01*
X188955171Y-73685000D02*
G75*
G02*
X190500001Y-68135000I1544830J2560000D01*
G01*
X188955001Y-73685000D02*
X192045001Y-73685000D01*
%TO.C,D24*%
X172800000Y-76335000D02*
X172800000Y-78605000D01*
X172800000Y-78605000D02*
X176860000Y-78605000D01*
X176860000Y-76335000D02*
X172800000Y-76335000D01*
%TO.C,D52*%
X157560000Y-91575000D02*
X157560000Y-93845000D01*
X157560000Y-93845000D02*
X161620000Y-93845000D01*
X161620000Y-91575000D02*
X157560000Y-91575000D01*
%TD*%
M02*
