M48
; DRILL file {KiCad 9.0.7-9.0.7~ubuntu24.04.1} date 2026-01-21T14:41:39-0500
; FORMAT={-:-/ absolute / metric / decimal}
; #@! TF.CreationDate,2026-01-21T14:41:39-05:00
; #@! TF.GenerationSoftware,Kicad,Pcbnew,9.0.7-9.0.7~ubuntu24.04.1
; #@! TF.FileFunction,Plated,1,2,PTH
FMAT,2
METRIC
; #@! TA.AperFunction,Plated,PTH,ViaDrill
T1C0.300
; #@! TA.AperFunction,Plated,PTH,ComponentDrill
T2C0.800
; #@! TA.AperFunction,Plated,PTH,ComponentDrill
T3C0.900
; #@! TA.AperFunction,Plated,PTH,ComponentDrill
T4C1.000
; #@! TA.AperFunction,Plated,PTH,ComponentDrill
T5C1.500
%
G90
G05
T1
X33.162Y-104.627
X33.174Y-128.524
X33.73Y-118.818
X33.943Y-138.492
X34.979Y-109.298
X35.453Y-123.835
X35.656Y-148.062
X36.381Y-92.009
X38.438Y-157.454
X39.577Y-119.548
X39.618Y-128.763
X40.353Y-138.164
X40.495Y-92.182
X40.797Y-163.571
X41.08Y-110.468
X42.014Y-146.884
X43.339Y-94.059
X44.272Y-155.112
X44.663Y-172.045
X45.256Y-110.843
X46.677Y-161.056
X46.822Y-78.192
X48.852Y-122.405
X50.162Y-168.87
X51.388Y-188.007
X52.188Y-128.691
X52.227Y-70.607
X52.232Y-120.894
X52.321Y-81.367
X52.931Y-136.328
X53.584Y-113.074
X53.594Y-184.531
X53.72Y-101.118
X54.478Y-144.087
X56.345Y-65.506
X56.575Y-151.529
X56.642Y-183.007
X57.345Y-74.442
X57.696Y-99.115
X58.091Y-155.933
X60.706Y-197.104
X61.29Y-69.387
X61.334Y-162.566
X63.088Y-58.4
X63.366Y-87.89
X63.831Y-111.265
X64.915Y-128.383
X64.948Y-153.587
X64.998Y-122.176
X65.433Y-135.123
X65.486Y-100.923
X65.659Y-197.866
X65.805Y-105.286
X65.914Y-115.634
X66.503Y-159.582
X66.548Y-141.371
X67.287Y-63.318
X67.489Y-81.765
X67.945Y-177.546
X68.199Y-173.101
X68.23Y-147.586
X68.535Y-90.875
X69.561Y-103.41
X69.723Y-193.167
X69.788Y-150.793
X70.519Y-52.132
X70.545Y-78.25
X71.617Y-130.086
X72.112Y-156.343
X72.136Y-189.738
X72.912Y-130.805
X72.949Y-86.531
X73.279Y-203.708
X73.66Y-167.259
X74.008Y-57.519
X74.144Y-94.113
X74.192Y-124.64
X75.005Y-112.585
X75.116Y-140.971
X75.401Y-105.904
X75.722Y-146.34
X75.941Y-72.713
X76.583Y-113.287
X76.835Y-199.009
X77.597Y-169.164
X77.606Y-123.695
X77.612Y-128.531
X77.746Y-108.95
X77.789Y-89.325
X77.851Y-164.973
X77.855Y-133.523
X78.078Y-130.608
X78.232Y-183.642
X78.481Y-118.351
X78.486Y-204.724
X78.745Y-138.875
X78.767Y-46.482
X79.482Y-113.227
X79.787Y-86.372
X80.152Y-132.93
X80.452Y-143.609
X80.896Y-130.155
X81.407Y-209.042
X81.438Y-145.826
X81.538Y-134.696
X81.713Y-119.124
X81.716Y-126.748
X81.737Y-128.056
X81.77Y-124.811
X81.782Y-52.182
X81.788Y-173.863
X81.887Y-67.494
X82.042Y-129.346
X82.931Y-161.163
X83.331Y-149.866
X83.331Y-149.866
X83.555Y-122.314
X83.947Y-192.405
X83.967Y-46.111
X84.167Y-132.519
X84.328Y-188.722
X84.328Y-81.808
X84.612Y-92.238
X84.836Y-203.581
X84.945Y-116.085
X85.266Y-113.847
X85.363Y-100.59
X85.363Y-100.59
X85.508Y-118.84
X86.614Y-174.244
X86.741Y-160.655
X87.33Y-114.121
X87.337Y-125.54
X87.434Y-133.859
X87.451Y-42.11
X87.833Y-138.614
X87.915Y-96.931
X88.129Y-63.032
X88.519Y-164.846
X88.959Y-89.028
X89.182Y-77.719
X89.342Y-94.968
X89.742Y-47.539
X89.863Y-134.51
X89.916Y-163.83
X90.195Y-120.294
X90.424Y-213.36
X90.5Y-128.397
X90.576Y-116.637
X90.99Y-140.018
X91.059Y-192.659
X91.313Y-161.29
X91.44Y-120.244
X91.669Y-117.602
X91.821Y-178.308
X91.905Y-57.0
X92.588Y-91.123
X92.761Y-134.45
X92.807Y-120.051
X92.837Y-118.288
X93.345Y-207.645
X94.005Y-105.258
X94.717Y-106.07
X94.742Y-156.591
X94.76Y-73.9
X94.904Y-59.172
X95.25Y-164.719
X95.326Y-106.782
X95.728Y-130.869
X95.846Y-123.283
X95.959Y-150.95
X95.961Y-108.534
X96.012Y-154.94
X96.124Y-129.646
X96.32Y-38.432
X96.52Y-157.988
X96.556Y-128.854
X96.636Y-80.556
X96.661Y-82.037
X96.778Y-87.676
X96.81Y-151.318
X97.155Y-181.483
X97.18Y-107.432
X97.206Y-125.74
X97.358Y-98.863
X97.511Y-152.121
X97.521Y-124.231
X97.536Y-162.306
X97.604Y-91.453
X97.663Y-144.704
X97.721Y-102.299
X98.044Y-195.834
X98.171Y-109.296
X98.171Y-117.653
X98.171Y-143.764
X98.196Y-110.846
X98.357Y-44.301
X98.44Y-89.369
X98.552Y-171.577
X98.781Y-118.288
X98.908Y-148.92
X98.958Y-111.912
X99.187Y-158.877
X99.414Y-86.412
X99.441Y-168.148
X99.456Y-34.523
X99.466Y-141.453
X99.568Y-216.662
X99.72Y-116.611
X99.847Y-112.319
X100.076Y-140.03
X100.101Y-123.139
X100.12Y-48.105
X100.177Y-70.868
X100.584Y-112.903
X100.69Y-129.148
X100.726Y-125.677
X100.804Y-92.641
X100.98Y-84.97
X101.067Y-123.012
X101.143Y-124.485
X101.143Y-154.127
X101.216Y-88.626
X101.219Y-162.306
X101.244Y-121.895
X101.277Y-96.14
X101.448Y-113.553
X101.727Y-210.566
X101.928Y-98.569
X101.93Y-148.133
X101.981Y-176.53
X102.352Y-56.432
X102.489Y-165.1
X102.489Y-89.214
X102.565Y-153.848
X102.616Y-148.854
X102.64Y-80.063
X102.946Y-146.406
X103.2Y-117.704
X103.251Y-175.768
X103.251Y-184.404
X103.429Y-101.049
X103.454Y-88.305
X103.632Y-170.561
X103.683Y-141.595
X103.861Y-148.854
X103.886Y-153.162
X104.14Y-166.116
X104.47Y-119.329
X104.546Y-120.701
X104.576Y-87.632
X104.625Y-133.45
X105.165Y-82.547
X105.283Y-166.751
X105.537Y-198.374
X105.664Y-171.196
X105.842Y-93.599
X105.867Y-160.528
X106.281Y-86.711
X106.299Y-117.729
X106.3Y-68.39
X106.553Y-167.132
X106.68Y-168.529
X107.645Y-125.654
X107.975Y-105.435
X108.077Y-172.847
X108.151Y-102.015
X108.229Y-140.945
X108.255Y-147.432
X108.433Y-106.147
X108.458Y-107.29
X108.509Y-108.28
X108.509Y-109.245
X108.712Y-170.561
X108.788Y-162.179
X108.814Y-111.201
X108.839Y-110.185
X108.941Y-117.704
X109.043Y-64.402
X109.093Y-218.948
X109.162Y-101.279
X109.22Y-186.563
X109.336Y-87.008
X109.372Y-152.771
X109.525Y-128.245
X109.88Y-103.556
X109.982Y-212.725
X110.007Y-94.285
X110.084Y-111.303
X110.173Y-100.543
X110.185Y-143.815
X110.225Y-133.375
X110.231Y-80.632
X110.363Y-166.878
X110.459Y-153.522
X110.505Y-121.945
X110.82Y-152.273
X110.934Y-170.243
X111.177Y-83.818
X111.379Y-154.051
X111.405Y-99.934
X111.61Y-103.685
X111.993Y-31.002
X112.243Y-151.587
X112.268Y-144.755
X112.463Y-99.372
X112.522Y-154.813
X112.775Y-50.572
X113.03Y-200.279
X113.157Y-164.719
X113.157Y-174.752
X113.157Y-178.943
X113.321Y-86.963
X113.474Y-98.636
X113.486Y-74.739
X113.665Y-114.935
X113.665Y-116.205
X113.665Y-117.475
X113.665Y-155.321
X113.667Y-76.457
X113.697Y-38.052
X113.843Y-150.901
X113.901Y-34.651
X114.642Y-98.137
X114.744Y-101.47
X114.808Y-155.829
X114.935Y-162.941
X115.169Y-78.937
X115.208Y-63.122
X115.425Y-85.097
X115.443Y-188.214
X115.57Y-219.964
X115.595Y-150.165
X115.941Y-102.091
X116.009Y-94.168
X116.027Y-106.655
X116.332Y-160.401
X116.332Y-213.614
X116.497Y-53.014
X117.119Y-149.53
X117.297Y-100.838
X117.424Y-97.104
X117.475Y-166.751
X117.524Y-84.256
X117.602Y-201.168
X118.005Y-75.295
X118.11Y-175.641
X118.11Y-181.102
X118.318Y-86.181
X118.415Y-98.476
X118.44Y-99.517
X118.71Y-65.437
X118.826Y-60.664
X118.999Y-188.468
X118.999Y-194.056
X119.47Y-71.741
X120.269Y-164.719
X120.523Y-175.895
X122.428Y-94.361
X122.453Y-92.177
X123.038Y-91.389
X123.139Y-104.18
X124.841Y-214.503
X124.841Y-220.853
X124.968Y-176.276
X124.968Y-176.276
X124.968Y-189.23
X124.968Y-195.707
X124.968Y-201.676
X129.032Y-52.324
X129.032Y-58.293
X129.032Y-64.77
X129.032Y-77.724
X129.032Y-77.724
X129.159Y-33.147
X129.159Y-39.497
X133.477Y-78.105
X133.731Y-89.281
X134.53Y-182.233
X134.595Y-92.253
X134.85Y-102.2
X135.001Y-59.944
X135.001Y-65.532
X135.174Y-193.31
X135.29Y-188.538
X135.682Y-167.793
X135.89Y-72.898
X135.89Y-78.359
X135.995Y-178.68
X136.398Y-52.832
X136.476Y-169.719
X136.5Y-146.975
X136.525Y-87.249
X136.55Y-161.595
X137.13Y-148.353
X137.287Y-160.833
X137.503Y-200.96
X137.668Y-40.386
X137.668Y-93.599
X138.079Y-160.085
X138.1Y-148.753
X138.43Y-34.036
X138.557Y-65.786
X138.575Y-168.877
X138.633Y-110.134
X138.654Y-104.098
X138.792Y-190.853
X138.831Y-175.038
X139.065Y-91.059
X139.243Y-107.95
X139.358Y-155.838
X139.38Y-97.826
X139.395Y-147.752
X140.099Y-219.324
X140.303Y-215.922
X140.333Y-177.518
X140.335Y-98.679
X140.335Y-107.34
X140.514Y-179.235
X140.526Y-155.339
X140.679Y-167.012
X140.843Y-75.057
X140.843Y-79.248
X140.843Y-89.281
X140.97Y-53.721
X141.148Y-131.953
X141.173Y-120.675
X141.225Y-203.403
X141.478Y-99.187
X141.537Y-154.603
X141.605Y-108.839
X142.007Y-222.973
X142.037Y-149.377
X142.595Y-154.04
X142.596Y-112.674
X142.621Y-99.949
X142.799Y-146.202
X142.823Y-170.156
X143.065Y-83.757
X143.271Y-103.051
X143.271Y-109.423
X143.637Y-87.122
X143.745Y-103.757
X143.769Y-173.343
X143.789Y-100.66
X143.827Y-153.432
X144.018Y-41.275
X144.664Y-166.967
X144.704Y-103.632
X144.78Y-67.437
X144.78Y-101.092
X144.838Y-152.696
X144.882Y-109.576
X144.907Y-35.052
X144.957Y-189.573
X145.288Y-83.439
X145.339Y-91.999
X145.415Y-162.204
X145.796Y-101.854
X145.849Y-151.96
X145.923Y-81.153
X145.948Y-105.816
X145.974Y-136.22
X147.32Y-85.471
X147.447Y-86.868
X147.7Y-185.584
X147.719Y-167.264
X148.184Y-160.426
X148.311Y-93.447
X148.336Y-82.804
X148.463Y-55.626
X148.717Y-87.249
X148.835Y-171.428
X149.301Y-136.423
X149.424Y-166.342
X149.86Y-87.884
X150.114Y-100.838
X150.368Y-83.439
X150.546Y-165.67
X150.546Y-120.701
X150.571Y-152.926
X150.597Y-134.62
X150.622Y-121.92
X150.622Y-133.401
X150.749Y-69.596
X150.749Y-78.232
X151.36Y-173.912
X151.511Y-164.76
X151.511Y-88.9
X151.648Y-197.542
X151.943Y-99.39
X151.968Y-110.211
X152.019Y-77.47
X152.072Y-155.406
X152.273Y-43.434
X152.324Y-136.271
X152.723Y-157.835
X152.781Y-91.694
X152.784Y-165.349
X153.02Y-169.005
X153.196Y-161.334
X153.823Y-183.107
X153.88Y-205.869
X154.175Y-103.925
X154.305Y-100.965
X154.432Y-37.338
X154.544Y-219.451
X154.559Y-85.852
X154.584Y-129.565
X154.586Y-167.562
X154.661Y-136.017
X154.813Y-95.123
X154.867Y-110.176
X155.194Y-128.473
X155.194Y-134.163
X155.448Y-82.423
X155.516Y-109.548
X155.56Y-164.605
X155.643Y-209.674
X155.956Y-58.166
X155.981Y-126.975
X156.068Y-107.822
X156.068Y-121.176
X156.068Y-125.705
X156.068Y-129.515
X156.279Y-151.676
X156.396Y-162.522
X156.464Y-91.694
X156.642Y-155.111
X156.718Y-130.81
X156.769Y-105.816
X156.779Y-148.103
X156.845Y-72.517
X157.222Y-166.298
X157.339Y-171.938
X157.364Y-173.419
X157.48Y-96.012
X157.516Y-107.208
X157.556Y-149.555
X157.68Y-215.543
X157.988Y-99.06
X158.064Y-108.026
X158.067Y-123.156
X158.198Y-124.4
X158.2Y-128.212
X158.242Y-127.015
X158.75Y-89.281
X159.08Y-102.21
X159.096Y-194.803
X159.233Y-110.871
X159.24Y-180.075
X159.258Y-97.409
X160.655Y-46.355
X160.68Y-148.996
X161.218Y-133.949
X161.264Y-119.55
X161.412Y-162.851
X162.095Y-196.974
X162.179Y-75.692
X162.535Y-133.807
X162.56Y-136.017
X162.687Y-92.71
X162.941Y-61.341
X163.035Y-113.982
X163.576Y-40.64
X163.576Y-125.552
X164.084Y-90.17
X164.163Y-119.49
X164.258Y-206.435
X164.658Y-159.006
X164.818Y-176.256
X165.041Y-164.947
X165.481Y-89.154
X165.871Y-190.942
X166.085Y-157.044
X166.192Y-115.386
X166.549Y-211.865
X166.591Y-120.141
X166.695Y-139.879
X166.726Y-125.527
X167.259Y-93.345
X167.386Y-79.756
X168.517Y-135.16
X168.637Y-153.385
X168.637Y-153.385
X168.76Y-140.153
X169.081Y-137.915
X169.164Y-50.419
X169.388Y-161.737
X169.672Y-172.166
X169.672Y-65.278
X169.858Y-121.481
X170.033Y-207.863
X170.053Y-61.595
X170.471Y-131.686
X170.695Y-104.134
X170.695Y-104.134
X171.069Y-92.837
X171.983Y-124.654
X172.113Y-186.48
X172.212Y-80.137
X172.218Y-201.792
X172.255Y-129.189
X172.288Y-125.944
X172.31Y-127.252
X172.312Y-134.876
X172.487Y-119.304
X172.587Y-108.174
X172.593Y-44.958
X173.129Y-123.845
X173.574Y-110.391
X173.873Y-121.07
X174.213Y-167.602
X174.544Y-140.773
X175.233Y-207.493
X175.28Y-115.125
X175.514Y-49.276
X175.545Y-135.649
X175.768Y-70.358
X175.947Y-123.392
X176.149Y-89.027
X176.17Y-120.477
X176.211Y-164.65
X176.28Y-145.05
X176.403Y-84.836
X176.413Y-125.469
X176.419Y-130.305
X177.165Y-54.991
X177.442Y-140.713
X178.059Y-181.261
X178.303Y-107.66
X178.625Y-148.096
X178.91Y-113.029
X179.02Y-141.415
X179.833Y-129.36
X179.856Y-159.862
X179.992Y-196.455
X180.34Y-86.741
X180.721Y-50.292
X181.051Y-167.444
X181.113Y-123.195
X181.864Y-64.262
X181.913Y-97.657
X182.408Y-123.914
X183.455Y-175.725
X183.481Y-201.843
X184.238Y-103.207
X184.277Y-60.833
X184.464Y-150.59
X185.465Y-163.1
X185.796Y-106.414
X185.801Y-80.899
X186.055Y-76.454
X186.511Y-172.21
X186.713Y-190.657
X187.477Y-112.629
X187.522Y-94.418
X188.112Y-138.366
X188.221Y-148.714
X188.341Y-56.134
X188.54Y-153.077
X188.592Y-118.877
X189.028Y-131.824
X189.077Y-100.413
X189.11Y-125.617
X190.195Y-142.735
X190.634Y-166.085
X190.912Y-195.575
X192.692Y-91.434
X192.71Y-184.587
X193.294Y-56.896
X195.935Y-98.067
X196.329Y-154.885
X196.655Y-179.533
X197.358Y-70.993
X197.451Y-102.471
X197.655Y-188.469
X199.547Y-109.913
X200.306Y-152.882
X200.406Y-69.469
X200.442Y-140.926
X201.094Y-117.672
X201.679Y-172.608
X201.773Y-183.367
X201.793Y-133.106
X201.837Y-125.309
X202.612Y-65.993
X203.864Y-85.13
X205.173Y-131.595
X207.178Y-175.783
X207.348Y-92.944
X208.769Y-143.157
X209.363Y-81.955
X209.753Y-98.888
X210.687Y-159.941
X212.011Y-107.116
X212.945Y-143.532
X213.228Y-90.429
X213.531Y-161.818
X213.672Y-115.836
X214.407Y-125.237
X214.448Y-134.452
X215.587Y-96.546
X217.645Y-161.991
X218.37Y-105.938
X218.572Y-130.165
X219.046Y-144.702
X220.082Y-115.508
X220.296Y-135.182
X220.851Y-125.476
X220.863Y-149.373
T3
X17.801Y-126.988
X18.399Y-115.571
X18.399Y-138.404
X20.188Y-104.28
X20.188Y-149.696
X20.341Y-126.988
X20.926Y-115.837
X20.926Y-138.139
X22.672Y-104.808
X22.672Y-149.168
X23.147Y-93.237
X23.147Y-160.739
X24.151Y-126.988
X25.562Y-94.022
X25.562Y-159.954
X26.691Y-126.988
X27.244Y-82.564
X27.244Y-171.412
X29.564Y-83.597
X29.564Y-170.378
X32.434Y-72.378
X32.434Y-181.598
X34.634Y-73.648
X34.634Y-180.328
X37.933Y-75.553
X37.933Y-178.423
X38.639Y-191.198
X38.66Y-62.79
X40.133Y-76.823
X40.133Y-177.153
X40.694Y-189.705
X40.715Y-64.283
X45.834Y-200.082
X45.855Y-53.905
X47.721Y-198.383
X47.742Y-55.605
X53.918Y-208.166
X53.939Y-45.822
X55.617Y-206.279
X55.638Y-47.709
X62.802Y-215.361
X62.823Y-38.627
X64.295Y-213.306
X64.316Y-40.682
X72.39Y-221.587
X72.411Y-32.4
X73.66Y-219.388
X73.681Y-34.6
X75.565Y-216.088
X75.586Y-37.9
X76.835Y-213.888
X76.856Y-40.099
X82.576Y-226.777
X82.597Y-27.21
X83.609Y-224.457
X83.63Y-29.531
X93.249Y-230.874
X93.27Y-23.113
X94.034Y-228.459
X94.055Y-25.529
X104.292Y-233.833
X104.313Y-20.155
X104.82Y-231.349
X104.841Y-22.639
X115.583Y-235.622
X115.605Y-18.366
X115.849Y-233.096
X115.87Y-20.892
X127.0Y-17.78
X127.0Y-20.32
X127.0Y-24.13
X127.0Y-26.67
X127.0Y-227.33
X127.0Y-229.87
X127.0Y-233.68
X127.0Y-236.22
X138.13Y-233.082
X138.151Y-20.904
X138.395Y-235.608
X138.417Y-18.378
X149.159Y-231.336
X149.18Y-22.651
X149.687Y-233.82
X149.708Y-20.167
X159.945Y-228.446
X159.966Y-25.541
X160.73Y-230.861
X160.751Y-23.126
X170.37Y-224.444
X170.391Y-29.543
X171.403Y-226.764
X171.424Y-27.223
X177.144Y-213.875
X177.165Y-40.112
X178.414Y-216.075
X178.435Y-37.912
X180.319Y-219.374
X180.34Y-34.612
X181.589Y-221.574
X181.61Y-32.413
X189.684Y-213.293
X189.705Y-40.694
X191.177Y-215.348
X191.198Y-38.639
X198.362Y-206.266
X198.383Y-47.721
X200.061Y-208.153
X200.082Y-45.834
X206.258Y-198.37
X206.279Y-55.617
X208.145Y-200.069
X208.166Y-53.918
X213.285Y-189.692
X213.306Y-64.295
X213.867Y-177.152
X213.893Y-76.847
X215.34Y-191.185
X215.361Y-62.802
X216.067Y-178.422
X216.092Y-75.577
X219.366Y-180.327
X219.392Y-73.672
X221.566Y-181.597
X221.592Y-72.402
X224.461Y-83.622
X224.461Y-170.403
X226.782Y-82.588
X226.782Y-171.436
X227.334Y-127.012
X228.463Y-94.046
X228.463Y-159.978
X229.874Y-127.012
X230.879Y-93.261
X230.879Y-160.763
X231.353Y-104.832
X231.353Y-149.192
X233.1Y-115.861
X233.1Y-138.163
X233.684Y-127.012
X233.838Y-104.304
X233.838Y-149.72
X235.626Y-115.596
X235.626Y-138.429
X236.224Y-127.012
T4
X119.38Y-106.68
X119.38Y-109.22
X119.38Y-111.76
X119.38Y-114.3
X119.38Y-116.84
X119.38Y-119.38
X119.38Y-121.92
X119.38Y-124.46
X119.38Y-127.0
X119.38Y-129.54
X119.38Y-132.08
X119.38Y-134.62
X119.38Y-137.16
X119.38Y-139.7
X119.38Y-142.24
X134.62Y-106.68
X134.62Y-109.22
X134.62Y-111.76
X134.62Y-114.3
X134.62Y-116.84
X134.62Y-119.38
X134.62Y-121.92
X134.62Y-124.46
X134.62Y-127.0
X134.62Y-129.54
X134.62Y-132.08
X134.62Y-134.62
X134.62Y-137.16
X134.62Y-139.7
X134.62Y-142.24
T5
X127.0Y-157.195
T2
G00X122.15Y-159.595
M15
G01X122.15Y-158.395
M16
G05
G00X122.15Y-164.295
M15
G01X122.15Y-163.095
M16
G05
G00X128.1Y-163.195
M15
G01X125.9Y-163.195
M16
G05
G00X131.85Y-159.595
M15
G01X131.85Y-158.395
M16
G05
G00X131.85Y-164.295
M15
G01X131.85Y-163.095
M16
G05
M30
