%TF.GenerationSoftware,KiCad,Pcbnew,9.0.7-9.0.7~ubuntu24.04.1*%
%TF.CreationDate,2026-01-22T09:15:27-05:00*%
%TF.ProjectId,LED_proto_sector,4c45445f-7072-46f7-946f-5f736563746f,rev?*%
%TF.SameCoordinates,Original*%
%TF.FileFunction,Soldermask,Bot*%
%TF.FilePolarity,Negative*%
%FSLAX46Y46*%
G04 Gerber Fmt 4.6, Leading zero omitted, Abs format (unit mm)*
G04 Created by KiCad (PCBNEW 9.0.7-9.0.7~ubuntu24.04.1) date 2026-01-22 09:15:27*
%MOMM*%
%LPD*%
G01*
G04 APERTURE LIST*
G04 Aperture macros list*
%AMRoundRect*
0 Rectangle with rounded corners*
0 $1 Rounding radius*
0 $2 $3 $4 $5 $6 $7 $8 $9 X,Y pos of 4 corners*
0 Add a 4 corners polygon primitive as box body*
4,1,4,$2,$3,$4,$5,$6,$7,$8,$9,$2,$3,0*
0 Add four circle primitives for the rounded corners*
1,1,$1+$1,$2,$3*
1,1,$1+$1,$4,$5*
1,1,$1+$1,$6,$7*
1,1,$1+$1,$8,$9*
0 Add four rect primitives between the rounded corners*
20,1,$1+$1,$2,$3,$4,$5,0*
20,1,$1+$1,$4,$5,$6,$7,0*
20,1,$1+$1,$6,$7,$8,$9,0*
20,1,$1+$1,$8,$9,$2,$3,0*%
G04 Aperture macros list end*
%ADD10C,4.300000*%
%ADD11R,1.700000X1.700000*%
%ADD12C,1.700000*%
%ADD13R,1.600000X1.600000*%
%ADD14O,1.600000X1.600000*%
%ADD15R,1.800000X1.800000*%
%ADD16C,1.800000*%
%ADD17C,1.600000*%
%ADD18RoundRect,0.102000X-1.125000X1.125000X-1.125000X-1.125000X1.125000X-1.125000X1.125000X1.125000X0*%
%ADD19O,1.604000X3.804000*%
%ADD20O,2.804000X1.604000*%
%ADD21RoundRect,0.250000X-0.412500X-0.650000X0.412500X-0.650000X0.412500X0.650000X-0.412500X0.650000X0*%
%ADD22RoundRect,0.250000X0.550000X-0.950000X0.550000X0.950000X-0.550000X0.950000X-0.550000X-0.950000X0*%
%ADD23O,1.600000X2.400000*%
G04 APERTURE END LIST*
D10*
%TO.C,H5*%
X143510000Y-62230000D03*
%TD*%
D11*
%TO.C,JP1*%
X156210000Y-116840000D03*
D12*
X156210000Y-119380000D03*
%TD*%
D13*
%TO.C,A1*%
X191770000Y-105410000D03*
D14*
X189230000Y-105410000D03*
X186690000Y-105410000D03*
X184150000Y-105410000D03*
X181610000Y-105410000D03*
X179070000Y-105410000D03*
X176530000Y-105410000D03*
X173990000Y-105410000D03*
X168910000Y-105410000D03*
X166370000Y-105410000D03*
X163830000Y-105410000D03*
X161290000Y-105410000D03*
X158750000Y-105410000D03*
X156210000Y-105410000D03*
X156210000Y-153670000D03*
X158750000Y-153670000D03*
X161290000Y-153670000D03*
X163830000Y-153670000D03*
X166370000Y-153670000D03*
X168910000Y-153670000D03*
X171450000Y-153670000D03*
X173990000Y-153670000D03*
X178050000Y-153670000D03*
X180590000Y-153670000D03*
X183130000Y-153670000D03*
X185670000Y-153670000D03*
X188210000Y-153670000D03*
X190750000Y-153670000D03*
X193290000Y-153670000D03*
X195830000Y-153670000D03*
X198370000Y-153670000D03*
X200910000Y-153670000D03*
%TD*%
D10*
%TO.C,H1*%
X229870000Y-109855000D03*
%TD*%
%TO.C,H4*%
X143510000Y-157480000D03*
%TD*%
D15*
%TO.C,D10*%
X219710000Y-62230000D03*
D16*
X222250000Y-62230000D03*
%TD*%
D15*
%TO.C,D4*%
X173990000Y-62230000D03*
D16*
X176530000Y-62230000D03*
%TD*%
D10*
%TO.C,H3*%
X229870000Y-157480000D03*
%TD*%
%TO.C,H2*%
X229870000Y-62230000D03*
%TD*%
D15*
%TO.C,D5*%
X181610000Y-62230000D03*
D16*
X184150000Y-62230000D03*
%TD*%
D15*
%TO.C,D3*%
X166370000Y-62230000D03*
D16*
X168910000Y-62230000D03*
%TD*%
D15*
%TO.C,D2*%
X158750000Y-62230000D03*
D16*
X161290000Y-62230000D03*
%TD*%
D17*
%TO.C,J2*%
X151690000Y-132080000D03*
D18*
X160940000Y-132080000D03*
D19*
X154940000Y-132080000D03*
D20*
X154440000Y-127230000D03*
X154440000Y-136930000D03*
X159140000Y-127230000D03*
X159140000Y-136930000D03*
%TD*%
D15*
%TO.C,D7*%
X196850000Y-62230000D03*
D16*
X199390000Y-62230000D03*
%TD*%
D15*
%TO.C,D6*%
X189230000Y-62230000D03*
D16*
X191770000Y-62230000D03*
%TD*%
D21*
%TO.C,C1*%
X192112500Y-120357500D03*
X195237500Y-120357500D03*
%TD*%
D15*
%TO.C,D9*%
X212090000Y-62230000D03*
D16*
X214630000Y-62230000D03*
%TD*%
D22*
%TO.C,U1*%
X168910000Y-128270000D03*
D23*
X171450000Y-128270000D03*
X173990000Y-128270000D03*
X176530000Y-128270000D03*
X179070000Y-128270000D03*
X181610000Y-128270000D03*
X184150000Y-128270000D03*
X186690000Y-128270000D03*
X189230000Y-128270000D03*
X191770000Y-128270000D03*
X194310000Y-128270000D03*
X196850000Y-128270000D03*
X199390000Y-128270000D03*
X201930000Y-128270000D03*
X201930000Y-113030000D03*
X199390000Y-113030000D03*
X196850000Y-113030000D03*
X194310000Y-113030000D03*
X191770000Y-113030000D03*
X189230000Y-113030000D03*
X186690000Y-113030000D03*
X184150000Y-113030000D03*
X181610000Y-113030000D03*
X179070000Y-113030000D03*
X176530000Y-113030000D03*
X173990000Y-113030000D03*
X171450000Y-113030000D03*
X168910000Y-113030000D03*
%TD*%
D15*
%TO.C,D8*%
X204470000Y-62230000D03*
D16*
X207010000Y-62230000D03*
%TD*%
D15*
%TO.C,D11*%
X152400000Y-72390000D03*
D16*
X152400000Y-69850000D03*
%TD*%
D15*
%TO.C,D1*%
X151130000Y-62230000D03*
D16*
X153670000Y-62230000D03*
%TD*%
%TO.C,D12*%
X190500001Y-69855000D03*
D15*
X190500001Y-72395000D03*
%TD*%
M02*
