%TF.GenerationSoftware,KiCad,Pcbnew,9.0.7-9.0.7~ubuntu24.04.1*%
%TF.CreationDate,2026-01-21T14:41:36-05:00*%
%TF.ProjectId,Led_clock_sector,4c65645f-636c-46f6-936b-5f736563746f,rev?*%
%TF.SameCoordinates,Original*%
%TF.FileFunction,Soldermask,Top*%
%TF.FilePolarity,Negative*%
%FSLAX46Y46*%
G04 Gerber Fmt 4.6, Leading zero omitted, Abs format (unit mm)*
G04 Created by KiCad (PCBNEW 9.0.7-9.0.7~ubuntu24.04.1) date 2026-01-21 14:41:36*
%MOMM*%
%LPD*%
G01*
G04 APERTURE LIST*
G04 Aperture macros list*
%AMRoundRect*
0 Rectangle with rounded corners*
0 $1 Rounding radius*
0 $2 $3 $4 $5 $6 $7 $8 $9 X,Y pos of 4 corners*
0 Add a 4 corners polygon primitive as box body*
4,1,4,$2,$3,$4,$5,$6,$7,$8,$9,$2,$3,0*
0 Add four circle primitives for the rounded corners*
1,1,$1+$1,$2,$3*
1,1,$1+$1,$4,$5*
1,1,$1+$1,$6,$7*
1,1,$1+$1,$8,$9*
0 Add four rect primitives between the rounded corners*
20,1,$1+$1,$2,$3,$4,$5,0*
20,1,$1+$1,$4,$5,$6,$7,0*
20,1,$1+$1,$6,$7,$8,$9,0*
20,1,$1+$1,$8,$9,$2,$3,0*%
%AMRotRect*
0 Rectangle, with rotation*
0 The origin of the aperture is its center*
0 $1 length*
0 $2 width*
0 $3 Rotation angle, in degrees counterclockwise*
0 Add horizontal line*
21,1,$1,$2,0,0,$3*%
G04 Aperture macros list end*
%ADD10RoundRect,0.250001X-0.676724X-0.382850X0.168304X-0.759080X0.676724X0.382850X-0.168304X0.759080X0*%
%ADD11R,0.700000X1.925000*%
%ADD12R,1.925000X0.700000*%
%ADD13RoundRect,0.250001X0.382850X-0.676724X0.759080X0.168304X-0.382850X0.676724X-0.759080X-0.168304X0*%
%ADD14RotRect,1.800000X1.800000X150.000000*%
%ADD15C,1.800000*%
%ADD16RoundRect,0.250001X0.394635X0.669919X-0.525296X0.573231X-0.394635X-0.669919X0.525296X-0.573231X0*%
%ADD17RotRect,1.800000X1.800000X192.000000*%
%ADD18RotRect,1.800000X1.800000X228.000000*%
%ADD19RoundRect,0.250001X0.168304X0.759080X-0.676724X0.382850X-0.168304X-0.759080X0.676724X-0.382850X0*%
%ADD20RoundRect,0.250001X0.676724X0.382850X-0.168304X0.759080X-0.676724X-0.382850X0.168304X-0.759080X0*%
%ADD21RoundRect,0.250001X0.707500X-0.322448X0.515182X0.582337X-0.707500X0.322448X-0.515182X-0.582337X0*%
%ADD22R,1.800000X1.800000*%
%ADD23RoundRect,0.250001X0.088036X0.772515X-0.713035X0.310016X-0.088036X-0.772515X0.713035X-0.310016X0*%
%ADD24RoundRect,0.250001X-0.669919X0.394635X-0.573231X-0.525296X0.669919X-0.394635X0.573231X0.525296X0*%
%ADD25RoundRect,0.250001X0.777485X-0.006804X0.233785X0.741535X-0.777485X0.006804X-0.233785X-0.741535X0*%
%ADD26RoundRect,0.250001X-0.737329X0.246727X-0.451489X-0.632998X0.737329X-0.246727X0.451489X0.632998X0*%
%ADD27RoundRect,0.250001X-0.246727X-0.737329X0.632998X-0.451489X0.246727X0.737329X-0.632998X0.451489X0*%
%ADD28RoundRect,0.250001X-0.322448X-0.707500X0.582337X-0.515182X0.322448X0.707500X-0.582337X0.515182X0*%
%ADD29RoundRect,0.250001X-0.525296X-0.573231X0.394635X-0.669919X0.525296X0.573231X-0.394635X0.669919X0*%
%ADD30RotRect,1.800000X1.800000X258.000000*%
%ADD31RoundRect,0.250001X0.669919X-0.394635X0.573231X0.525296X-0.669919X0.394635X-0.573231X-0.525296X0*%
%ADD32RotRect,1.800000X1.800000X300.000000*%
%ADD33RoundRect,0.250001X0.322448X0.707500X-0.582337X0.515182X-0.322448X-0.707500X0.582337X-0.515182X0*%
%ADD34RotRect,1.800000X1.800000X18.000000*%
%ADD35RoundRect,0.250001X0.515182X-0.582337X0.707500X0.322448X-0.515182X0.582337X-0.707500X-0.322448X0*%
%ADD36RoundRect,0.250001X-0.761910X-0.154993X-0.074502X-0.773937X0.761910X0.154993X0.074502X0.773937X0*%
%ADD37RoundRect,0.250001X-0.394635X-0.669919X0.525296X-0.573231X0.394635X0.669919X-0.525296X0.573231X0*%
%ADD38RoundRect,0.250001X0.737329X-0.246727X0.451489X0.632998X-0.737329X0.246727X-0.451489X-0.632998X0*%
%ADD39RoundRect,0.250001X-0.582337X-0.515182X0.322448X-0.707500X0.582337X0.515182X-0.322448X0.707500X0*%
%ADD40RoundRect,0.250001X0.310016X-0.713035X0.772515X0.088036X-0.310016X0.713035X-0.772515X-0.088036X0*%
%ADD41RotRect,1.800000X1.800000X342.000000*%
%ADD42RotRect,1.800000X1.800000X354.000000*%
%ADD43RoundRect,0.250001X0.074502X-0.773937X0.761910X-0.154993X-0.074502X0.773937X-0.761910X0.154993X0*%
%ADD44RoundRect,0.100500X1.031500X0.301500X-1.031500X0.301500X-1.031500X-0.301500X1.031500X-0.301500X0*%
%ADD45RoundRect,0.250001X0.773937X0.074502X0.154993X0.761910X-0.773937X-0.074502X-0.154993X-0.761910X0*%
%ADD46RoundRect,0.250001X0.761910X0.154993X0.074502X0.773937X-0.761910X-0.154993X-0.074502X-0.773937X0*%
%ADD47RoundRect,0.250001X0.713035X0.310016X-0.088036X0.772515X-0.713035X-0.310016X0.088036X-0.772515X0*%
%ADD48RoundRect,0.250001X0.759080X-0.168304X0.382850X0.676724X-0.759080X0.168304X-0.382850X-0.676724X0*%
%ADD49RotRect,1.800000X1.800000X30.000000*%
%ADD50RoundRect,0.250000X-0.412500X-0.650000X0.412500X-0.650000X0.412500X0.650000X-0.412500X0.650000X0*%
%ADD51RotRect,1.800000X1.800000X240.000000*%
%ADD52RoundRect,0.250001X-0.233785X0.741535X-0.777485X-0.006804X0.233785X-0.741535X0.777485X0.006804X0*%
%ADD53RotRect,1.800000X1.800000X276.000000*%
%ADD54RoundRect,0.250001X-0.624999X0.462499X-0.624999X-0.462499X0.624999X-0.462499X0.624999X0.462499X0*%
%ADD55RoundRect,0.250001X-0.777485X0.006804X-0.233785X-0.741535X0.777485X-0.006804X0.233785X0.741535X0*%
%ADD56RoundRect,0.250001X-0.462499X-0.624999X0.462499X-0.624999X0.462499X0.624999X-0.462499X0.624999X0*%
%ADD57RoundRect,0.250001X0.006804X0.777485X-0.741535X0.233785X-0.006804X-0.777485X0.741535X-0.233785X0*%
%ADD58RoundRect,0.250000X0.412500X0.650000X-0.412500X0.650000X-0.412500X-0.650000X0.412500X-0.650000X0*%
%ADD59RoundRect,0.250001X-0.772515X0.088036X-0.310016X-0.713035X0.772515X-0.088036X0.310016X0.713035X0*%
%ADD60RoundRect,0.250001X0.582337X0.515182X-0.322448X0.707500X-0.582337X-0.515182X0.322448X-0.707500X0*%
%ADD61RoundRect,0.250001X0.246727X0.737329X-0.632998X0.451489X-0.246727X-0.737329X0.632998X-0.451489X0*%
%ADD62RoundRect,0.250001X-0.573231X0.525296X-0.669919X-0.394635X0.573231X-0.525296X0.669919X0.394635X0*%
%ADD63RoundRect,0.250001X-0.088036X-0.772515X0.713035X-0.310016X0.088036X0.772515X-0.713035X0.310016X0*%
%ADD64RoundRect,0.250001X-0.773937X-0.074502X-0.154993X-0.761910X0.773937X0.074502X0.154993X0.761910X0*%
%ADD65RoundRect,0.250001X0.741535X0.233785X-0.006804X0.777485X-0.741535X-0.233785X0.006804X-0.777485X0*%
%ADD66RotRect,1.800000X1.800000X120.000000*%
%ADD67RoundRect,0.250001X0.624999X-0.462499X0.624999X0.462499X-0.624999X0.462499X-0.624999X-0.462499X0*%
%ADD68RotRect,1.800000X1.800000X126.000000*%
%ADD69RotRect,1.800000X1.800000X294.000000*%
%ADD70RoundRect,0.250001X-0.310016X0.713035X-0.772515X-0.088036X0.310016X-0.713035X0.772515X0.088036X0*%
%ADD71RoundRect,0.250001X-0.006804X-0.777485X0.741535X-0.233785X0.006804X0.777485X-0.741535X0.233785X0*%
%ADD72RotRect,1.800000X1.800000X210.000000*%
%ADD73RotRect,1.800000X1.800000X252.000000*%
%ADD74RoundRect,0.250001X-0.074502X0.773937X-0.761910X0.154993X0.074502X-0.773937X0.761910X-0.154993X0*%
%ADD75RoundRect,0.250001X-0.451489X0.632998X-0.737329X-0.246727X0.451489X-0.632998X0.737329X0.246727X0*%
%ADD76RotRect,1.800000X1.800000X36.000000*%
%ADD77RoundRect,0.250001X-0.168304X-0.759080X0.676724X-0.382850X0.168304X0.759080X-0.676724X0.382850X0*%
%ADD78RoundRect,0.250001X-0.741535X-0.233785X0.006804X-0.777485X0.741535X0.233785X-0.006804X0.777485X0*%
%ADD79RoundRect,0.250001X0.154993X-0.761910X0.773937X-0.074502X-0.154993X0.761910X-0.773937X0.074502X0*%
%ADD80RoundRect,0.250001X0.525296X0.573231X-0.394635X0.669919X-0.525296X-0.573231X0.394635X-0.669919X0*%
%ADD81RotRect,1.800000X1.800000X72.000000*%
%ADD82RotRect,1.800000X1.800000X114.000000*%
%ADD83RotRect,1.800000X1.800000X198.000000*%
%ADD84RoundRect,0.250001X-0.759080X0.168304X-0.382850X-0.676724X0.759080X-0.168304X0.382850X0.676724X0*%
%ADD85RoundRect,0.250001X-0.632998X-0.451489X0.246727X-0.737329X0.632998X0.451489X-0.246727X0.737329X0*%
%ADD86RotRect,1.800000X1.800000X156.000000*%
%ADD87R,1.600000X1.600000*%
%ADD88O,1.600000X1.600000*%
%ADD89RoundRect,0.250001X0.632998X0.451489X-0.246727X0.737329X-0.632998X-0.451489X0.246727X-0.737329X0*%
%ADD90RotRect,1.800000X1.800000X138.000000*%
%ADD91RoundRect,0.250001X0.462499X0.624999X-0.462499X0.624999X-0.462499X-0.624999X0.462499X-0.624999X0*%
%ADD92RoundRect,0.250001X-0.707500X0.322448X-0.515182X-0.582337X0.707500X-0.322448X0.515182X0.582337X0*%
%ADD93RotRect,1.800000X1.800000X102.000000*%
%ADD94RotRect,1.800000X1.800000X330.000000*%
%ADD95RoundRect,0.250001X-0.154993X0.761910X-0.773937X0.074502X0.154993X-0.761910X0.773937X-0.074502X0*%
%ADD96RotRect,0.700000X1.925000X240.000000*%
%ADD97RotRect,1.925000X0.700000X240.000000*%
%ADD98RotRect,1.800000X1.800000X12.000000*%
%ADD99RotRect,1.800000X1.800000X96.000000*%
%ADD100RoundRect,0.250001X0.772515X-0.088036X0.310016X0.713035X-0.772515X0.088036X-0.310016X-0.713035X0*%
%ADD101RotRect,1.800000X1.800000X336.000000*%
%ADD102RoundRect,0.250001X0.573231X-0.525296X0.669919X0.394635X-0.573231X0.525296X-0.669919X-0.394635X0*%
%ADD103RoundRect,0.250001X-0.515182X0.582337X-0.707500X-0.322448X0.515182X-0.582337X0.707500X0.322448X0*%
%ADD104RoundRect,0.250001X-0.713035X-0.310016X0.088036X-0.772515X0.713035X0.310016X-0.088036X0.772515X0*%
%ADD105RotRect,1.800000X1.800000X132.000000*%
%ADD106RotRect,1.800000X1.800000X324.000000*%
%ADD107RoundRect,0.250001X-0.382850X0.676724X-0.759080X-0.168304X0.382850X-0.676724X0.759080X0.168304X0*%
%ADD108RotRect,1.800000X1.800000X66.000000*%
%ADD109RoundRect,0.250001X0.451489X-0.632998X0.737329X0.246727X-0.451489X0.632998X-0.737329X-0.246727X0*%
%ADD110RotRect,1.800000X1.800000X312.000000*%
%ADD111RotRect,1.800000X1.800000X78.000000*%
%ADD112RotRect,1.800000X1.800000X168.000000*%
%ADD113RotRect,1.800000X1.800000X204.000000*%
%ADD114RotRect,1.800000X1.800000X84.000000*%
%ADD115RoundRect,0.250001X0.233785X-0.741535X0.777485X0.006804X-0.233785X0.741535X-0.777485X-0.006804X0*%
%ADD116RotRect,1.800000X1.800000X186.000000*%
%ADD117RotRect,1.800000X1.800000X24.000000*%
%ADD118RotRect,1.800000X1.800000X264.000000*%
%ADD119RoundRect,0.100500X-1.031500X-0.301500X1.031500X-0.301500X1.031500X0.301500X-1.031500X0.301500X0*%
%ADD120RotRect,1.800000X1.800000X216.000000*%
%ADD121RotRect,1.800000X1.800000X108.000000*%
%ADD122RotRect,1.800000X1.800000X348.000000*%
%ADD123RotRect,1.800000X1.800000X144.000000*%
%ADD124RotRect,0.700000X1.925000X300.000000*%
%ADD125RotRect,1.925000X0.700000X300.000000*%
%ADD126RotRect,1.800000X1.800000X306.000000*%
%ADD127RotRect,0.700000X1.925000X120.000000*%
%ADD128RotRect,1.925000X0.700000X120.000000*%
%ADD129RotRect,1.800000X1.800000X282.000000*%
%ADD130RotRect,1.800000X1.800000X288.000000*%
%ADD131RotRect,1.800000X1.800000X162.000000*%
%ADD132RotRect,1.800000X1.800000X54.000000*%
%ADD133RotRect,1.800000X1.800000X60.000000*%
%ADD134RotRect,1.800000X1.800000X174.000000*%
%ADD135RotRect,1.800000X1.800000X234.000000*%
%ADD136RotRect,1.800000X1.800000X42.000000*%
%ADD137RotRect,0.700000X1.925000X60.000000*%
%ADD138RotRect,1.925000X0.700000X60.000000*%
%ADD139RotRect,1.800000X1.800000X318.000000*%
%ADD140RotRect,1.800000X1.800000X48.000000*%
%ADD141RotRect,1.800000X1.800000X222.000000*%
%ADD142RotRect,1.800000X1.800000X6.000000*%
%ADD143RotRect,1.800000X1.800000X246.000000*%
%ADD144C,1.600000*%
%ADD145RoundRect,0.102000X1.125000X1.125000X-1.125000X1.125000X-1.125000X-1.125000X1.125000X-1.125000X0*%
%ADD146O,3.804000X1.604000*%
%ADD147O,1.604000X2.804000*%
G04 APERTURE END LIST*
D10*
%TO.C,D92*%
X212660547Y-165148860D03*
X215378345Y-166358902D03*
%TD*%
D11*
%TO.C,U54*%
X88900000Y-132322500D03*
X90170000Y-132322500D03*
X91440000Y-132322500D03*
X92710000Y-132322500D03*
D12*
X94222500Y-130810000D03*
X94222500Y-129540001D03*
X94222500Y-128270000D03*
X94222500Y-127000000D03*
X94222500Y-125730000D03*
X94222500Y-124460000D03*
X94222500Y-123190000D03*
D11*
X92710000Y-121677500D03*
X91440001Y-121677500D03*
X90170000Y-121677500D03*
X88900000Y-121677500D03*
X87630000Y-121677500D03*
X86360000Y-121677500D03*
X85090000Y-121677500D03*
D12*
X83577500Y-123190000D03*
X83577500Y-124459999D03*
X83577500Y-125730000D03*
X83577500Y-127000000D03*
X83577500Y-128270000D03*
X83577500Y-129540000D03*
X83577500Y-130810000D03*
D11*
X85090000Y-132322500D03*
X86359999Y-132322500D03*
X87630000Y-132322500D03*
%TD*%
D13*
%TO.C,D25*%
X165136644Y-41343694D03*
X166346686Y-38625896D03*
%TD*%
D14*
%TO.C,D329*%
X40132830Y-76822784D03*
D15*
X37933125Y-75552784D03*
%TD*%
D16*
%TO.C,D313*%
X77978799Y-132142344D03*
X75020095Y-132453316D03*
%TD*%
D17*
%TO.C,D260*%
X22672373Y-149167803D03*
D15*
X20187878Y-149695899D03*
%TD*%
D18*
%TO.C,D202*%
X55617147Y-206278690D03*
D15*
X53917555Y-208166278D03*
%TD*%
D19*
%TO.C,D290*%
X58767894Y-157376095D03*
X56050096Y-158586137D03*
%TD*%
D20*
%TO.C,D288*%
X47165867Y-91433917D03*
X44448069Y-90223875D03*
%TD*%
D21*
%TO.C,D359*%
X111487558Y-53907933D03*
X110869020Y-50997941D03*
%TD*%
D22*
%TO.C,D205*%
X127000000Y-227330000D03*
D15*
X127000000Y-229870000D03*
%TD*%
D21*
%TO.C,D369*%
X114128035Y-66330408D03*
X113509497Y-63420416D03*
%TD*%
D23*
%TO.C,D289*%
X62318236Y-164344034D03*
X59741810Y-165831534D03*
%TD*%
D24*
%TO.C,D184*%
X133460913Y-188659604D03*
X133771885Y-191618308D03*
%TD*%
D25*
%TO.C,D375*%
X98035999Y-87093134D03*
X96287337Y-84686308D03*
%TD*%
D26*
%TO.C,D152*%
X155953047Y-216160252D03*
X156872373Y-218989646D03*
%TD*%
D27*
%TO.C,D85*%
X216177677Y-98038010D03*
X219007071Y-97118684D03*
%TD*%
D28*
%TO.C,D86*%
X218717804Y-107517897D03*
X221627796Y-106899359D03*
%TD*%
D22*
%TO.C,D268*%
X26691159Y-126987784D03*
D15*
X24151159Y-126987784D03*
%TD*%
D29*
%TO.C,D129*%
X176046601Y-132166776D03*
X179005305Y-132477748D03*
%TD*%
D30*
%TO.C,D197*%
X104819981Y-231348786D03*
D15*
X104291885Y-233833281D03*
%TD*%
D31*
%TO.C,D340*%
X117220309Y-33738926D03*
X116909337Y-30780222D03*
%TD*%
D32*
%TO.C,D138*%
X180318841Y-219374406D03*
D15*
X181588841Y-221574111D03*
%TD*%
D13*
%TO.C,D35*%
X162553867Y-47144708D03*
X163763909Y-44426910D03*
%TD*%
D33*
%TO.C,D282*%
X41518833Y-145161864D03*
X38608841Y-145780402D03*
%TD*%
D29*
%TO.C,D99*%
X213937886Y-136149310D03*
X216896590Y-136460282D03*
%TD*%
D27*
%TO.C,D125*%
X173903215Y-111773816D03*
X176732609Y-110854490D03*
%TD*%
D34*
%TO.C,D73*%
X228462950Y-94046283D03*
D15*
X230878634Y-93261380D03*
%TD*%
D35*
%TO.C,D63*%
X137252645Y-78765098D03*
X137871183Y-75855106D03*
%TD*%
D36*
%TO.C,D147*%
X196657957Y-189726174D03*
X198868813Y-191716838D03*
%TD*%
D31*
%TO.C,D350*%
X117884065Y-40054139D03*
X117573093Y-37095435D03*
%TD*%
D37*
%TO.C,D107*%
X201307457Y-119202633D03*
X204266161Y-118891661D03*
%TD*%
D28*
%TO.C,D116*%
X187661618Y-114119092D03*
X190571610Y-113500554D03*
%TD*%
D38*
%TO.C,D358*%
X103933727Y-55931975D03*
X103014401Y-53102581D03*
%TD*%
D39*
%TO.C,D110*%
X200084092Y-142545817D03*
X202994084Y-143164355D03*
%TD*%
D40*
%TO.C,D56*%
X158006250Y-73295600D03*
X159493750Y-70719174D03*
%TD*%
D41*
%TO.C,D79*%
X228462950Y-159978149D03*
D15*
X230878634Y-160763052D03*
%TD*%
D42*
%TO.C,D77*%
X233099837Y-138163313D03*
D15*
X235625923Y-138428816D03*
%TD*%
D10*
%TO.C,D132*%
X172053451Y-147069416D03*
X174771249Y-148279458D03*
%TD*%
D43*
%TO.C,D69*%
X163646329Y-94003497D03*
X165857185Y-92012833D03*
%TD*%
D44*
%TO.C,U2*%
X152400000Y-134620000D03*
X152400000Y-133350000D03*
X152400000Y-132080000D03*
X152400000Y-130810000D03*
X152400000Y-129540000D03*
X152400000Y-128270000D03*
X152400000Y-127000000D03*
X152400000Y-125730000D03*
X152400000Y-124460000D03*
X152400000Y-123190000D03*
X152400000Y-121920000D03*
X152400000Y-120650000D03*
X143120000Y-120650000D03*
X143120000Y-121920000D03*
X143120000Y-123190000D03*
X143120000Y-124460000D03*
X143120000Y-125730000D03*
X143120000Y-127000000D03*
X143120000Y-128270000D03*
X143120000Y-129540000D03*
X143120000Y-130810000D03*
X143120000Y-132080000D03*
X143120000Y-133350000D03*
X143120000Y-134620000D03*
%TD*%
D45*
%TO.C,D364*%
X85526697Y-80903516D03*
X83536033Y-78692660D03*
%TD*%
D46*
%TO.C,D363*%
X80936890Y-85493323D03*
X78726034Y-83502659D03*
%TD*%
D47*
%TO.C,D331*%
X45820452Y-80106534D03*
X43244026Y-78619034D03*
%TD*%
D48*
%TO.C,D337*%
X88884514Y-41331478D03*
X87674472Y-38613680D03*
%TD*%
D49*
%TO.C,D71*%
X219391831Y-73672216D03*
D15*
X221591536Y-72402216D03*
%TD*%
D50*
%TO.C,C7*%
X142875000Y-137795000D03*
X146000000Y-137795000D03*
%TD*%
D51*
%TO.C,D206*%
X76835000Y-213888329D03*
D15*
X75565000Y-216088034D03*
%TD*%
D20*
%TO.C,D278*%
X41364853Y-88851140D03*
X38647055Y-87641098D03*
%TD*%
D52*
%TO.C,D223*%
X75620222Y-197718198D03*
X73871560Y-200125024D03*
%TD*%
D53*
%TO.C,D142*%
X138129938Y-233082412D03*
D15*
X138395441Y-235608498D03*
%TD*%
D54*
%TO.C,D217*%
X127000000Y-214412500D03*
X127000000Y-217387500D03*
%TD*%
D27*
%TO.C,D105*%
X198060050Y-103924784D03*
X200889444Y-103005458D03*
%TD*%
D55*
%TO.C,D159*%
X178358619Y-197705014D03*
X180107281Y-200111840D03*
%TD*%
D23*
%TO.C,D279*%
X51319714Y-170694034D03*
X48743288Y-172181534D03*
%TD*%
D56*
%TO.C,D128*%
X176316741Y-127012216D03*
X179291741Y-127012216D03*
%TD*%
D57*
%TO.C,D246*%
X76830834Y-163450033D03*
X74424008Y-165198695D03*
%TD*%
D58*
%TO.C,C9*%
X106337500Y-116205000D03*
X103212500Y-116205000D03*
%TD*%
D31*
%TO.C,D380*%
X121866599Y-77945424D03*
X121555627Y-74986720D03*
%TD*%
D11*
%TO.C,U51*%
X165125400Y-121677500D03*
X163855400Y-121677500D03*
X162585400Y-121677500D03*
X161315400Y-121677500D03*
D12*
X159802900Y-123190000D03*
X159802900Y-124459999D03*
X159802900Y-125730000D03*
X159802900Y-127000000D03*
X159802900Y-128270000D03*
X159802900Y-129540000D03*
X159802900Y-130810000D03*
D11*
X161315400Y-132322500D03*
X162585399Y-132322500D03*
X163855400Y-132322500D03*
X165125400Y-132322500D03*
X166395400Y-132322500D03*
X167665400Y-132322500D03*
X168935400Y-132322500D03*
D12*
X170447900Y-130810000D03*
X170447900Y-129540001D03*
X170447900Y-128270000D03*
X170447900Y-127000000D03*
X170447900Y-125730000D03*
X170447900Y-124460000D03*
X170447900Y-123190000D03*
D11*
X168935400Y-121677500D03*
X167665401Y-121677500D03*
X166395400Y-121677500D03*
%TD*%
D39*
%TO.C,D90*%
X218717804Y-146506535D03*
X221627796Y-147125073D03*
%TD*%
D43*
%TO.C,D59*%
X173084268Y-85505538D03*
X175295124Y-83514874D03*
%TD*%
D59*
%TO.C,D150*%
X173860091Y-208187523D03*
X175347591Y-210763949D03*
%TD*%
D60*
%TO.C,D286*%
X41518833Y-108813704D03*
X38608841Y-108195166D03*
%TD*%
D61*
%TO.C,D301*%
X68043767Y-146150701D03*
X65214373Y-147070027D03*
%TD*%
D62*
%TO.C,D238*%
X120517929Y-188672789D03*
X120206957Y-191631491D03*
%TD*%
D63*
%TO.C,D113*%
X180708641Y-96005966D03*
X183285067Y-94518466D03*
%TD*%
D28*
%TO.C,D96*%
X212506567Y-108838136D03*
X215416559Y-108219598D03*
%TD*%
D10*
%TO.C,D122*%
X183655479Y-152234971D03*
X186373277Y-153445013D03*
%TD*%
D64*
%TO.C,D168*%
X176971262Y-182509024D03*
X178961926Y-184719880D03*
%TD*%
D65*
%TO.C,D352*%
X66577477Y-83072878D03*
X64170651Y-81324218D03*
%TD*%
D66*
%TO.C,D324*%
X73681159Y-34600194D03*
D15*
X72411159Y-32400489D03*
%TD*%
D63*
%TO.C,D103*%
X191707164Y-89655966D03*
X194283590Y-88168466D03*
%TD*%
D67*
%TO.C,D21*%
X127000000Y-33237500D03*
X127000000Y-30262500D03*
%TD*%
D68*
%TO.C,D323*%
X64316229Y-40681851D03*
D15*
X62823254Y-38626948D03*
%TD*%
D38*
%TO.C,D348*%
X100009211Y-43853557D03*
X99089885Y-41024163D03*
%TD*%
D69*
%TO.C,D139*%
X170369506Y-224443846D03*
D15*
X171402617Y-226764251D03*
%TD*%
D70*
%TO.C,D242*%
X95993750Y-180704400D03*
X94506250Y-183280826D03*
%TD*%
D26*
%TO.C,D182*%
X146141756Y-185964208D03*
X147061082Y-188793602D03*
%TD*%
D35*
%TO.C,D33*%
X145174080Y-41497674D03*
X145792618Y-38587682D03*
%TD*%
D71*
%TO.C,D70*%
X166894650Y-98014840D03*
X169301476Y-96266178D03*
%TD*%
D72*
%TO.C,D267*%
X40132830Y-177152784D03*
D15*
X37933125Y-178422784D03*
%TD*%
D73*
%TO.C,D198*%
X94034067Y-228458709D03*
D15*
X93249164Y-230874393D03*
%TD*%
D54*
%TO.C,D237*%
X127000000Y-189012500D03*
X127000000Y-191987500D03*
%TD*%
D31*
%TO.C,D370*%
X120539087Y-65314996D03*
X120228115Y-62356292D03*
%TD*%
D61*
%TO.C,D291*%
X55965350Y-150075216D03*
X53135956Y-150994542D03*
%TD*%
D67*
%TO.C,D61*%
X127000000Y-77687500D03*
X127000000Y-74712500D03*
%TD*%
D23*
%TO.C,D299*%
X73316759Y-157994034D03*
X70740333Y-159481534D03*
%TD*%
D37*
%TO.C,D127*%
X176046601Y-121857656D03*
X179005305Y-121546684D03*
%TD*%
D74*
%TO.C,D225*%
X62039853Y-185490379D03*
X59828997Y-187481043D03*
%TD*%
D75*
%TO.C,D240*%
X107837084Y-185977392D03*
X106917758Y-188806786D03*
%TD*%
D33*
%TO.C,D272*%
X35307596Y-146482103D03*
X32397604Y-147100641D03*
%TD*%
D76*
%TO.C,D10*%
X213305933Y-64295069D03*
D15*
X215360836Y-62802094D03*
%TD*%
D77*
%TO.C,D104*%
X195257506Y-96623905D03*
X197975304Y-95413863D03*
%TD*%
D71*
%TO.C,D40*%
X197718198Y-75620222D03*
X200125024Y-73871560D03*
%TD*%
D67*
%TO.C,D31*%
X127000000Y-39587500D03*
X127000000Y-36612500D03*
%TD*%
D60*
%TO.C,D316*%
X78786257Y-116735139D03*
X75876265Y-116116601D03*
%TD*%
D78*
%TO.C,D186*%
X166873491Y-155971977D03*
X169280317Y-157720637D03*
%TD*%
D21*
%TO.C,D339*%
X107526840Y-35274221D03*
X106908302Y-32364229D03*
%TD*%
D48*
%TO.C,D367*%
X101798404Y-70336546D03*
X100588362Y-67618748D03*
%TD*%
D24*
%TO.C,D164*%
X136115935Y-213920461D03*
X136426907Y-216879165D03*
%TD*%
D33*
%TO.C,D292*%
X53941307Y-142521386D03*
X51031315Y-143139924D03*
%TD*%
D79*
%TO.C,D58*%
X168494462Y-80915732D03*
X170485126Y-78704876D03*
%TD*%
D80*
%TO.C,D315*%
X77978799Y-121833224D03*
X75020095Y-121522252D03*
%TD*%
D36*
%TO.C,D157*%
X191938988Y-185477195D03*
X194149844Y-187467859D03*
%TD*%
D77*
%TO.C,D84*%
X212660547Y-88875571D03*
X215378345Y-87665529D03*
%TD*%
D81*
%TO.C,D4*%
X159965933Y-25541291D03*
D15*
X160750836Y-23125607D03*
%TD*%
D82*
%TO.C,D325*%
X83630494Y-29530754D03*
D15*
X82597383Y-27210349D03*
%TD*%
D83*
%TO.C,D259*%
X25562450Y-159953717D03*
D15*
X23146766Y-160738620D03*
%TD*%
D84*
%TO.C,D161*%
X162532708Y-206842108D03*
X163742750Y-209559906D03*
%TD*%
D85*
%TO.C,D131*%
X173903215Y-142250616D03*
X176732609Y-143169942D03*
%TD*%
D48*
%TO.C,D347*%
X91467292Y-47132492D03*
X90257250Y-44414694D03*
%TD*%
D45*
%TO.C,D354*%
X77028738Y-71465576D03*
X75038074Y-69254720D03*
%TD*%
D20*
%TO.C,D298*%
X58767894Y-96599473D03*
X56050096Y-95389431D03*
%TD*%
D86*
%TO.C,D266*%
X29564129Y-83597119D03*
D15*
X27243724Y-82564008D03*
%TD*%
D37*
%TO.C,D97*%
X213937886Y-117875122D03*
X216896590Y-117564150D03*
%TD*%
D64*
%TO.C,D158*%
X185469220Y-191946963D03*
X187459884Y-194157819D03*
%TD*%
D87*
%TO.C,A1*%
X119380000Y-106680000D03*
D88*
X119380000Y-109220000D03*
X119380000Y-111760000D03*
X119380000Y-114300000D03*
X119380000Y-116840000D03*
X119380000Y-119380000D03*
X119380000Y-121920000D03*
X119380000Y-124460000D03*
X119380000Y-127000000D03*
X119380000Y-129540000D03*
X119380000Y-132080000D03*
X119380000Y-134620000D03*
X119380000Y-137160000D03*
X119380000Y-139700000D03*
X119380000Y-142240000D03*
X134620000Y-142240000D03*
X134620000Y-139700000D03*
X134620000Y-137160000D03*
X134620000Y-134620000D03*
X134620000Y-132080000D03*
X134620000Y-129540000D03*
X134620000Y-127000000D03*
X134620000Y-124460000D03*
X134620000Y-121920000D03*
X134620000Y-119380000D03*
X134620000Y-116840000D03*
X134620000Y-114300000D03*
X134620000Y-111760000D03*
X134620000Y-109220000D03*
X134620000Y-106680000D03*
%TD*%
D62*
%TO.C,D228*%
X119190417Y-201303217D03*
X118879445Y-204261919D03*
%TD*%
D89*
%TO.C,D287*%
X43886932Y-99975836D03*
X41057538Y-99056510D03*
%TD*%
D90*
%TO.C,D321*%
X47742469Y-55604931D03*
D15*
X45854881Y-53905339D03*
%TD*%
D91*
%TO.C,D294*%
X52308659Y-126987784D03*
X49333659Y-126987784D03*
%TD*%
D24*
%TO.C,D154*%
X136779691Y-220235674D03*
X137090663Y-223194378D03*
%TD*%
D31*
%TO.C,D360*%
X119211576Y-52684568D03*
X118900604Y-49725864D03*
%TD*%
D43*
%TO.C,D49*%
X182522208Y-77007580D03*
X184733064Y-75016916D03*
%TD*%
D52*
%TO.C,D243*%
X90549967Y-177169166D03*
X88801305Y-179575992D03*
%TD*%
D57*
%TO.C,D226*%
X56281802Y-178379778D03*
X53874976Y-180128440D03*
%TD*%
D92*
%TO.C,D153*%
X146473160Y-218700379D03*
X147091698Y-221610371D03*
%TD*%
D93*
%TO.C,D327*%
X104841140Y-22638998D03*
D15*
X104313044Y-20154503D03*
%TD*%
D94*
%TO.C,D143*%
X213867170Y-177151816D03*
D15*
X216066875Y-178421816D03*
%TD*%
D47*
%TO.C,D341*%
X51319714Y-83281534D03*
X48743288Y-81794034D03*
%TD*%
D95*
%TO.C,D244*%
X85505538Y-173084268D03*
X83514874Y-175295124D03*
%TD*%
D96*
%TO.C,U53*%
X112559420Y-162681250D03*
X113194420Y-161581398D03*
X113829420Y-160481545D03*
X114464420Y-159381693D03*
D97*
X113910807Y-157315580D03*
X112810955Y-156680580D03*
X111711102Y-156045580D03*
X110611250Y-155410580D03*
X109511398Y-154775580D03*
X108411545Y-154140580D03*
X107311693Y-153505580D03*
D96*
X105245580Y-154059193D03*
X104610580Y-155159045D03*
X103975580Y-156258898D03*
X103340580Y-157358750D03*
X102705580Y-158458602D03*
X102070580Y-159558455D03*
X101435580Y-160658307D03*
D97*
X101989193Y-162724420D03*
X103089045Y-163359420D03*
X104188898Y-163994420D03*
X105288750Y-164629420D03*
X106388602Y-165264420D03*
X107488455Y-165899420D03*
X108588307Y-166534420D03*
D96*
X110654420Y-165980807D03*
X111289420Y-164880955D03*
X111924420Y-163781102D03*
%TD*%
D38*
%TO.C,D368*%
X107858244Y-68010392D03*
X106938918Y-65180998D03*
%TD*%
D40*
%TO.C,D26*%
X173881250Y-45799293D03*
X175368750Y-43222867D03*
%TD*%
D21*
%TO.C,D379*%
X116768514Y-78752882D03*
X116149976Y-75842890D03*
%TD*%
D79*
%TO.C,D68*%
X159996503Y-90353671D03*
X161987167Y-88142815D03*
%TD*%
D98*
%TO.C,D74*%
X231353027Y-104832197D03*
D15*
X233837522Y-104304101D03*
%TD*%
D67*
%TO.C,D51*%
X127000000Y-64987500D03*
X127000000Y-62012500D03*
%TD*%
D59*
%TO.C,D180*%
X157985091Y-180691216D03*
X159472591Y-183267642D03*
%TD*%
D99*
%TO.C,D328*%
X115870062Y-20892188D03*
D15*
X115604559Y-18366102D03*
%TD*%
D70*
%TO.C,D252*%
X102343750Y-169705878D03*
X100856250Y-172282304D03*
%TD*%
D62*
%TO.C,D208*%
X117199150Y-220248860D03*
X116888178Y-223207562D03*
%TD*%
D70*
%TO.C,D222*%
X83293750Y-202701445D03*
X81806250Y-205277871D03*
%TD*%
D25*
%TO.C,D335*%
X71908944Y-51132329D03*
X70160282Y-48725503D03*
%TD*%
D14*
%TO.C,D319*%
X34633569Y-73647784D03*
D15*
X32433864Y-72377784D03*
%TD*%
D91*
%TO.C,D304*%
X65008659Y-126987784D03*
X62033659Y-126987784D03*
%TD*%
D100*
%TO.C,D356*%
X89664909Y-62284861D03*
X88177409Y-59708435D03*
%TD*%
D101*
%TO.C,D80*%
X224461271Y-170402881D03*
D15*
X226781676Y-171435992D03*
%TD*%
D94*
%TO.C,D133*%
X219366431Y-180326816D03*
D15*
X221566136Y-181596816D03*
%TD*%
D40*
%TO.C,D66*%
X151656250Y-84294122D03*
X153143750Y-81717696D03*
%TD*%
D80*
%TO.C,D305*%
X65348371Y-120505712D03*
X62389667Y-120194740D03*
%TD*%
D102*
%TO.C,D62*%
X132154560Y-77957639D03*
X132465532Y-74998937D03*
%TD*%
D57*
%TO.C,D216*%
X51144544Y-182112214D03*
X48737718Y-183860876D03*
%TD*%
D55*
%TO.C,D189*%
X155964001Y-166881466D03*
X157712663Y-169288292D03*
%TD*%
D103*
%TO.C,D249*%
X116747355Y-175234902D03*
X116128817Y-178144894D03*
%TD*%
D104*
%TO.C,D145*%
X208179548Y-173868066D03*
X210755974Y-175355566D03*
%TD*%
D105*
%TO.C,D322*%
X55638306Y-47709094D03*
D15*
X53938714Y-45821506D03*
%TD*%
D74*
%TO.C,D245*%
X80915732Y-168494462D03*
X78704876Y-170485126D03*
%TD*%
D57*
%TO.C,D236*%
X66556318Y-170914905D03*
X64149492Y-172663567D03*
%TD*%
D27*
%TO.C,D115*%
X185981633Y-107849299D03*
X188811027Y-106929973D03*
%TD*%
D79*
%TO.C,D38*%
X185490379Y-62039853D03*
X187481043Y-59828997D03*
%TD*%
D55*
%TO.C,D179*%
X163428874Y-177155982D03*
X165177536Y-179562808D03*
%TD*%
D85*
%TO.C,D111*%
X198060050Y-150099648D03*
X200889444Y-151018974D03*
%TD*%
D89*
%TO.C,D277*%
X37847723Y-98013578D03*
X35018329Y-97094252D03*
%TD*%
D40*
%TO.C,D36*%
X170706250Y-51298555D03*
X172193750Y-48722129D03*
%TD*%
D19*
%TO.C,D280*%
X47165867Y-162541651D03*
X44448069Y-163751693D03*
%TD*%
D106*
%TO.C,D134*%
X213284774Y-189691746D03*
D15*
X215339678Y-191184720D03*
%TD*%
D107*
%TO.C,D241*%
X101777244Y-183651238D03*
X100567202Y-186369036D03*
%TD*%
D108*
%TO.C,D5*%
X170390665Y-29542971D03*
D15*
X171423776Y-27222566D03*
%TD*%
D78*
%TO.C,D166*%
X187422523Y-170901722D03*
X189829349Y-172650382D03*
%TD*%
D71*
%TO.C,D30*%
X202855456Y-71887786D03*
X205262282Y-70139124D03*
%TD*%
D74*
%TO.C,D215*%
X57320883Y-189739358D03*
X55110027Y-191730022D03*
%TD*%
D39*
%TO.C,D120*%
X187661617Y-139905340D03*
X190571609Y-140523878D03*
%TD*%
D26*
%TO.C,D162*%
X153990789Y-210121043D03*
X154910115Y-212950437D03*
%TD*%
D13*
%TO.C,D65*%
X147057200Y-81950790D03*
X148267242Y-79232992D03*
%TD*%
D71*
%TO.C,D60*%
X177169166Y-90549967D03*
X179575992Y-88801305D03*
%TD*%
D100*
%TO.C,D346*%
X83314909Y-51286339D03*
X81827409Y-48709913D03*
%TD*%
D32*
%TO.C,D144*%
X177143841Y-213875145D03*
D15*
X178413841Y-216074850D03*
%TD*%
D80*
%TO.C,D275*%
X33772300Y-117186934D03*
X30813596Y-116875962D03*
%TD*%
D58*
%TO.C,C8*%
X152350000Y-137795000D03*
X149225000Y-137795000D03*
%TD*%
D19*
%TO.C,D310*%
X81971949Y-147044984D03*
X79254151Y-148255026D03*
%TD*%
D26*
%TO.C,D192*%
X142217241Y-173885790D03*
X143136567Y-176715184D03*
%TD*%
D109*
%TO.C,D54*%
X146162916Y-68022608D03*
X147082242Y-65193214D03*
%TD*%
D75*
%TO.C,D250*%
X111761600Y-173898974D03*
X110842274Y-176728368D03*
%TD*%
D60*
%TO.C,D296*%
X53941308Y-111454183D03*
X51031316Y-110835645D03*
%TD*%
D84*
%TO.C,D191*%
X147036041Y-172036026D03*
X148246083Y-174753824D03*
%TD*%
D92*
%TO.C,D183*%
X139871965Y-187644192D03*
X140490503Y-190554184D03*
%TD*%
D107*
%TO.C,D231*%
X96611689Y-195253265D03*
X95401647Y-197971063D03*
%TD*%
D40*
%TO.C,D46*%
X164356250Y-62297077D03*
X165843750Y-59720651D03*
%TD*%
D29*
%TO.C,D119*%
X188677029Y-133494288D03*
X191635733Y-133805260D03*
%TD*%
D104*
%TO.C,D185*%
X169684718Y-151643066D03*
X172261144Y-153130566D03*
%TD*%
D100*
%TO.C,D336*%
X80139909Y-45787077D03*
X78652409Y-43210651D03*
%TD*%
D58*
%TO.C,C10*%
X112052500Y-116205000D03*
X108927500Y-116205000D03*
%TD*%
D59*
%TO.C,D160*%
X170685091Y-202688261D03*
X172172591Y-205264687D03*
%TD*%
D75*
%TO.C,D220*%
X99988052Y-210134227D03*
X99068726Y-212963621D03*
%TD*%
D70*
%TO.C,D212*%
X80118750Y-208200707D03*
X78631250Y-210777133D03*
%TD*%
D110*
%TO.C,D136*%
X198361694Y-206265506D03*
D15*
X200061286Y-208153094D03*
%TD*%
D37*
%TO.C,D117*%
X188677030Y-120530144D03*
X191635734Y-120219172D03*
%TD*%
D111*
%TO.C,D3*%
X149180019Y-22651214D03*
D15*
X149708115Y-20166719D03*
%TD*%
D60*
%TO.C,D306*%
X66363783Y-114094660D03*
X63453791Y-113476122D03*
%TD*%
D13*
%TO.C,D45*%
X157388311Y-58746735D03*
X158598353Y-56028937D03*
%TD*%
D84*
%TO.C,D171*%
X157367152Y-195240081D03*
X158577194Y-197957879D03*
%TD*%
D85*
%TO.C,D101*%
X210138468Y-154024164D03*
X212967862Y-154943490D03*
%TD*%
D89*
%TO.C,D317*%
X80122185Y-111749384D03*
X77292791Y-110830058D03*
%TD*%
D100*
%TO.C,D366*%
X96014909Y-73283384D03*
X94527409Y-70706958D03*
%TD*%
D61*
%TO.C,D271*%
X37847723Y-155961990D03*
X35018329Y-156881316D03*
%TD*%
D92*
%TO.C,D173*%
X142512442Y-200066667D03*
X143130980Y-202976659D03*
%TD*%
D112*
%TO.C,D264*%
X22672373Y-104807765D03*
D15*
X20187878Y-104279669D03*
%TD*%
D92*
%TO.C,D163*%
X145152921Y-212489142D03*
X145771459Y-215399134D03*
%TD*%
D24*
%TO.C,D174*%
X134788424Y-201290032D03*
X135099396Y-204248736D03*
%TD*%
D100*
%TO.C,D376*%
X102364909Y-84281906D03*
X100877409Y-81705480D03*
%TD*%
D10*
%TO.C,D102*%
X206859533Y-162566083D03*
X209577331Y-163776125D03*
%TD*%
D54*
%TO.C,D227*%
X127000000Y-201712500D03*
X127000000Y-204687500D03*
%TD*%
D61*
%TO.C,D281*%
X43886932Y-153999732D03*
X41057538Y-154919058D03*
%TD*%
D65*
%TO.C,D332*%
X51165703Y-71875569D03*
X48758877Y-70126909D03*
%TD*%
D109*
%TO.C,D34*%
X154011948Y-43865773D03*
X154931274Y-41036379D03*
%TD*%
D91*
%TO.C,D284*%
X39608659Y-126987784D03*
X36633659Y-126987784D03*
%TD*%
D104*
%TO.C,D165*%
X191681764Y-164343066D03*
X194258190Y-165830566D03*
%TD*%
D56*
%TO.C,D88*%
X220766741Y-127012216D03*
X223741741Y-127012216D03*
%TD*%
D28*
%TO.C,D126*%
X175239143Y-116759571D03*
X178149135Y-116141033D03*
%TD*%
D39*
%TO.C,D130*%
X175239143Y-137264861D03*
X178149135Y-137883399D03*
%TD*%
D67*
%TO.C,D41*%
X127000000Y-52287500D03*
X127000000Y-49312500D03*
%TD*%
D113*
%TO.C,D258*%
X29564130Y-170378450D03*
D15*
X27243724Y-171411562D03*
%TD*%
D109*
%TO.C,D64*%
X142238400Y-80101026D03*
X143157726Y-77271632D03*
%TD*%
D114*
%TO.C,D2*%
X138151096Y-20904404D03*
D15*
X138416598Y-18378318D03*
%TD*%
D80*
%TO.C,D285*%
X40087514Y-117850690D03*
X37128810Y-117539718D03*
%TD*%
D103*
%TO.C,D219*%
X108825920Y-212502326D03*
X108207382Y-215412318D03*
%TD*%
D115*
%TO.C,D47*%
X170914905Y-66556318D03*
X172663567Y-64149492D03*
%TD*%
D116*
%TO.C,D261*%
X20925564Y-138138880D03*
D15*
X18399479Y-138404382D03*
%TD*%
D43*
%TO.C,D29*%
X196679117Y-64260642D03*
X198889973Y-62269978D03*
%TD*%
D117*
%TO.C,D72*%
X224461270Y-83621550D03*
D15*
X226781676Y-82588438D03*
%TD*%
D56*
%TO.C,D98*%
X214416741Y-127012216D03*
X217391741Y-127012216D03*
%TD*%
D65*
%TO.C,D372*%
X87126509Y-98002623D03*
X84719683Y-96253963D03*
%TD*%
D38*
%TO.C,D338*%
X98046953Y-37814348D03*
X97127627Y-34984954D03*
%TD*%
D25*
%TO.C,D365*%
X90571126Y-76818618D03*
X88822464Y-74411792D03*
%TD*%
D118*
%TO.C,D196*%
X115848904Y-233095596D03*
D15*
X115583402Y-235621682D03*
%TD*%
D57*
%TO.C,D256*%
X87105350Y-155985160D03*
X84698524Y-157733822D03*
%TD*%
D102*
%TO.C,D42*%
X134809583Y-52696783D03*
X135120555Y-49738081D03*
%TD*%
D104*
%TO.C,D175*%
X180683241Y-157993066D03*
X183259667Y-159480566D03*
%TD*%
D80*
%TO.C,D295*%
X52717943Y-119178201D03*
X49759239Y-118867229D03*
%TD*%
D115*
%TO.C,D27*%
X182112214Y-51144544D03*
X183860876Y-48737718D03*
%TD*%
D119*
%TO.C,U3*%
X102870000Y-119380000D03*
X102870000Y-120650000D03*
X102870000Y-121920000D03*
X102870000Y-123190000D03*
X102870000Y-124460000D03*
X102870000Y-125730000D03*
X102870000Y-127000000D03*
X102870000Y-128270000D03*
X102870000Y-129540000D03*
X102870000Y-130810000D03*
X102870000Y-132080000D03*
X102870000Y-133350000D03*
X112150000Y-133350000D03*
X112150000Y-132080000D03*
X112150000Y-130810000D03*
X112150000Y-129540000D03*
X112150000Y-128270000D03*
X112150000Y-127000000D03*
X112150000Y-125730000D03*
X112150000Y-124460000D03*
X112150000Y-123190000D03*
X112150000Y-121920000D03*
X112150000Y-120650000D03*
X112150000Y-119380000D03*
%TD*%
D120*
%TO.C,D204*%
X40694067Y-189704931D03*
D15*
X38639164Y-191197906D03*
%TD*%
D51*
%TO.C,D200*%
X73660000Y-219387590D03*
D15*
X72390000Y-221587295D03*
%TD*%
D121*
%TO.C,D326*%
X94055226Y-25529075D03*
D15*
X93270323Y-23113391D03*
%TD*%
D21*
%TO.C,D349*%
X108847079Y-41485458D03*
X108228541Y-38575466D03*
%TD*%
D65*
%TO.C,D342*%
X56302961Y-75608006D03*
X53896135Y-73859346D03*
%TD*%
D70*
%TO.C,D232*%
X89643750Y-191702923D03*
X88156250Y-194279349D03*
%TD*%
D109*
%TO.C,D44*%
X150087432Y-55944190D03*
X151006758Y-53114796D03*
%TD*%
D23*
%TO.C,D309*%
X84315282Y-151644034D03*
X81738856Y-153131534D03*
%TD*%
D16*
%TO.C,D283*%
X40087514Y-136124878D03*
X37128810Y-136435850D03*
%TD*%
D77*
%TO.C,D114*%
X183655478Y-101789460D03*
X186373276Y-100579418D03*
%TD*%
D92*
%TO.C,D193*%
X137231486Y-175221718D03*
X137850024Y-178131710D03*
%TD*%
D95*
%TO.C,D214*%
X64260642Y-196679117D03*
X62269978Y-198889973D03*
%TD*%
D25*
%TO.C,D345*%
X75641381Y-56269586D03*
X73892719Y-53862760D03*
%TD*%
D60*
%TO.C,D276*%
X35307596Y-107493465D03*
X32397604Y-106874927D03*
%TD*%
D75*
%TO.C,D210*%
X98025794Y-216173436D03*
X97106468Y-219002830D03*
%TD*%
D25*
%TO.C,D355*%
X83106254Y-66544102D03*
X81357592Y-64137276D03*
%TD*%
D95*
%TO.C,D254*%
X94003497Y-163646329D03*
X92012833Y-165857185D03*
%TD*%
D59*
%TO.C,D170*%
X164335091Y-191689739D03*
X165822591Y-194266165D03*
%TD*%
D63*
%TO.C,D83*%
X208204948Y-80130966D03*
X210781374Y-78643466D03*
%TD*%
D65*
%TO.C,D362*%
X76851993Y-90537751D03*
X74445167Y-88789091D03*
%TD*%
D35*
%TO.C,D53*%
X139893123Y-66342623D03*
X140511661Y-63432631D03*
%TD*%
D122*
%TO.C,D78*%
X231353027Y-149192235D03*
D15*
X233837522Y-149720331D03*
%TD*%
D36*
%TO.C,D187*%
X163625170Y-159983319D03*
X165836026Y-161973983D03*
%TD*%
D47*
%TO.C,D371*%
X84315282Y-102331534D03*
X81738856Y-100844034D03*
%TD*%
D56*
%TO.C,D118*%
X189016741Y-127012216D03*
X191991741Y-127012216D03*
%TD*%
D123*
%TO.C,D320*%
X40715226Y-64282854D03*
D15*
X38660322Y-62789880D03*
%TD*%
D124*
%TO.C,U52*%
X150659420Y-157333350D03*
X150024420Y-156233498D03*
X149389420Y-155133645D03*
X148754420Y-154033793D03*
D125*
X146688307Y-153480180D03*
X145588455Y-154115179D03*
X144488602Y-154750180D03*
X143388750Y-155385180D03*
X142288898Y-156020180D03*
X141189045Y-156655180D03*
X140089193Y-157290180D03*
D124*
X139535580Y-159356293D03*
X140170579Y-160456145D03*
X140805580Y-161555998D03*
X141440580Y-162655850D03*
X142075580Y-163755702D03*
X142710580Y-164855555D03*
X143345580Y-165955407D03*
D125*
X145411693Y-166509020D03*
X146511545Y-165874021D03*
X147611398Y-165239020D03*
X148711250Y-164604020D03*
X149811102Y-163969020D03*
X150910955Y-163334020D03*
X152010807Y-162699020D03*
D124*
X152564420Y-160632907D03*
X151929421Y-159533055D03*
X151294420Y-158433202D03*
%TD*%
D52*
%TO.C,D213*%
X71887786Y-202855456D03*
X70139124Y-205262282D03*
%TD*%
D46*
%TO.C,D353*%
X71498952Y-76995364D03*
X69288096Y-75004700D03*
%TD*%
D72*
%TO.C,D257*%
X34633569Y-180327784D03*
D15*
X32433864Y-181597784D03*
%TD*%
D64*
%TO.C,D188*%
X159975344Y-163633145D03*
X161966008Y-165844001D03*
%TD*%
D54*
%TO.C,D247*%
X127000000Y-176312500D03*
X127000000Y-179287500D03*
%TD*%
D77*
%TO.C,D94*%
X206859533Y-91458349D03*
X209577331Y-90248307D03*
%TD*%
D64*
%TO.C,D178*%
X168473303Y-173071084D03*
X170463967Y-175281940D03*
%TD*%
D46*
%TO.C,D373*%
X90374830Y-93991281D03*
X88163974Y-92000617D03*
%TD*%
D103*
%TO.C,D209*%
X107505680Y-218713563D03*
X106887142Y-221623555D03*
%TD*%
D23*
%TO.C,D269*%
X45820452Y-173869034D03*
X43244026Y-175356534D03*
%TD*%
D78*
%TO.C,D156*%
X197697039Y-178366594D03*
X200103865Y-180115254D03*
%TD*%
D102*
%TO.C,D32*%
X136137094Y-40066355D03*
X136448066Y-37107653D03*
%TD*%
D22*
%TO.C,D262*%
X20341159Y-126987784D03*
D15*
X17801159Y-126987784D03*
%TD*%
D10*
%TO.C,D112*%
X195257506Y-157400527D03*
X197975304Y-158610569D03*
%TD*%
D63*
%TO.C,D123*%
X169710118Y-102355966D03*
X172286544Y-100868466D03*
%TD*%
D43*
%TO.C,D39*%
X191960147Y-68509621D03*
X194171003Y-66518957D03*
%TD*%
D55*
%TO.C,D149*%
X182091056Y-202842271D03*
X183839718Y-205249097D03*
%TD*%
D84*
%TO.C,D151*%
X165115486Y-212643122D03*
X166325528Y-215360920D03*
%TD*%
D24*
%TO.C,D194*%
X132133401Y-176029176D03*
X132444373Y-178987880D03*
%TD*%
D22*
%TO.C,D195*%
X127000000Y-233680000D03*
D15*
X127000000Y-236220000D03*
%TD*%
D59*
%TO.C,D190*%
X151635091Y-169692694D03*
X153122591Y-172269120D03*
%TD*%
D26*
%TO.C,D172*%
X150066273Y-198042625D03*
X150985599Y-200872019D03*
%TD*%
D47*
%TO.C,D361*%
X73316759Y-95981534D03*
X70740333Y-94494034D03*
%TD*%
D62*
%TO.C,D248*%
X121845440Y-176042361D03*
X121534468Y-179001063D03*
%TD*%
D48*
%TO.C,D357*%
X96632848Y-58734519D03*
X95422806Y-56016721D03*
%TD*%
D38*
%TO.C,D378*%
X111782759Y-80088810D03*
X110863433Y-77259416D03*
%TD*%
D33*
%TO.C,D302*%
X66363782Y-139880908D03*
X63453790Y-140499446D03*
%TD*%
D47*
%TO.C,D351*%
X62318236Y-89631534D03*
X59741810Y-88144034D03*
%TD*%
D126*
%TO.C,D137*%
X189683771Y-213292749D03*
D15*
X191176746Y-215347652D03*
%TD*%
D91*
%TO.C,D274*%
X33258659Y-126987784D03*
X30283659Y-126987784D03*
%TD*%
D16*
%TO.C,D303*%
X65348370Y-133469856D03*
X62389666Y-133780828D03*
%TD*%
D85*
%TO.C,D91*%
X216177677Y-155986422D03*
X219007071Y-156905748D03*
%TD*%
D64*
%TO.C,D148*%
X189718199Y-196665933D03*
X191708863Y-198876789D03*
%TD*%
D62*
%TO.C,D218*%
X117862906Y-213933645D03*
X117551934Y-216892347D03*
%TD*%
D66*
%TO.C,D330*%
X76856159Y-40099455D03*
D15*
X75586159Y-37899750D03*
%TD*%
D115*
%TO.C,D57*%
X163450033Y-76830834D03*
X165198695Y-74424008D03*
%TD*%
D85*
%TO.C,D121*%
X185981633Y-146175131D03*
X188811027Y-147094457D03*
%TD*%
D79*
%TO.C,D28*%
X189739358Y-57320883D03*
X191730022Y-55110027D03*
%TD*%
D52*
%TO.C,D233*%
X83085095Y-187443682D03*
X81336433Y-189850508D03*
%TD*%
D45*
%TO.C,D344*%
X68530780Y-62027637D03*
X66540116Y-59816781D03*
%TD*%
D79*
%TO.C,D48*%
X176992420Y-71477792D03*
X178983084Y-69266936D03*
%TD*%
D89*
%TO.C,D307*%
X68043767Y-107824869D03*
X65214373Y-106905543D03*
%TD*%
D33*
%TO.C,D312*%
X78786257Y-137240429D03*
X75876265Y-137858967D03*
%TD*%
D103*
%TO.C,D229*%
X111466398Y-200079851D03*
X110847860Y-202989843D03*
%TD*%
D127*
%TO.C,U55*%
X103340580Y-96641250D03*
X103975580Y-97741102D03*
X104610580Y-98840955D03*
X105245580Y-99940807D03*
D128*
X107311693Y-100494420D03*
X108411545Y-99859421D03*
X109511398Y-99224420D03*
X110611250Y-98589420D03*
X111711102Y-97954420D03*
X112810955Y-97319420D03*
X113910807Y-96684420D03*
D127*
X114464420Y-94618307D03*
X113829421Y-93518455D03*
X113194420Y-92418602D03*
X112559420Y-91318750D03*
X111924420Y-90218898D03*
X111289420Y-89119045D03*
X110654420Y-88019193D03*
D128*
X108588307Y-87465580D03*
X107488455Y-88100579D03*
X106388602Y-88735580D03*
X105288750Y-89370580D03*
X104188898Y-90005580D03*
X103089045Y-90640580D03*
X101989193Y-91275580D03*
D127*
X101435580Y-93341693D03*
X102070579Y-94441545D03*
X102705580Y-95541398D03*
%TD*%
D104*
%TO.C,D155*%
X202680286Y-170693066D03*
X205256712Y-172180566D03*
%TD*%
D102*
%TO.C,D22*%
X136800850Y-33751140D03*
X137111822Y-30792438D03*
%TD*%
D20*
%TO.C,D308*%
X70369921Y-101765029D03*
X67652123Y-100554987D03*
%TD*%
D16*
%TO.C,D293*%
X52717943Y-134797367D03*
X49759239Y-135108339D03*
%TD*%
D36*
%TO.C,D177*%
X173063110Y-168481277D03*
X175273966Y-170471941D03*
%TD*%
D35*
%TO.C,D43*%
X142533602Y-53920149D03*
X143152140Y-51010157D03*
%TD*%
D129*
%TO.C,D141*%
X149158860Y-231335602D03*
D15*
X149686956Y-233820097D03*
%TD*%
D75*
%TO.C,D230*%
X103912568Y-198055810D03*
X102993242Y-200885204D03*
%TD*%
D74*
%TO.C,D255*%
X90353671Y-159996503D03*
X88142815Y-161987167D03*
%TD*%
D77*
%TO.C,D124*%
X172053451Y-106955016D03*
X174771249Y-105744974D03*
%TD*%
D35*
%TO.C,D23*%
X146494320Y-35286437D03*
X147112858Y-32376445D03*
%TD*%
D28*
%TO.C,D106*%
X200084093Y-111478614D03*
X202994085Y-110860076D03*
%TD*%
D130*
%TO.C,D140*%
X159944774Y-228445525D03*
D15*
X160729677Y-230861209D03*
%TD*%
D45*
%TO.C,D334*%
X64281801Y-57308667D03*
X62291137Y-55097811D03*
%TD*%
D37*
%TO.C,D87*%
X220253100Y-117211365D03*
X223211804Y-116900393D03*
%TD*%
D103*
%TO.C,D239*%
X114106877Y-187657377D03*
X113488339Y-190567369D03*
%TD*%
D131*
%TO.C,D265*%
X25562450Y-94021851D03*
D15*
X23146766Y-93236948D03*
%TD*%
D63*
%TO.C,D93*%
X202705686Y-83305966D03*
X205282112Y-81818466D03*
%TD*%
D107*
%TO.C,D211*%
X88863356Y-212656306D03*
X87653314Y-215374104D03*
%TD*%
D115*
%TO.C,D67*%
X155985160Y-87105350D03*
X157733822Y-84698524D03*
%TD*%
D22*
%TO.C,D82*%
X227334241Y-127012216D03*
D15*
X229874241Y-127012216D03*
%TD*%
D13*
%TO.C,D55*%
X152222756Y-70348762D03*
X153432798Y-67630964D03*
%TD*%
D19*
%TO.C,D270*%
X41364853Y-165124429D03*
X38647055Y-166334471D03*
%TD*%
D107*
%TO.C,D251*%
X106942800Y-172049210D03*
X105732758Y-174767008D03*
%TD*%
D16*
%TO.C,D273*%
X33772300Y-136788635D03*
X30813596Y-137099607D03*
%TD*%
D132*
%TO.C,D7*%
X189704931Y-40694067D03*
D15*
X191197906Y-38639164D03*
%TD*%
D29*
%TO.C,D109*%
X201307457Y-134821799D03*
X204266161Y-135132771D03*
%TD*%
%TO.C,D89*%
X220253100Y-136813066D03*
X223211804Y-137124038D03*
%TD*%
D133*
%TO.C,D6*%
X180340000Y-34612410D03*
D15*
X181610000Y-32412705D03*
%TD*%
D115*
%TO.C,D37*%
X178379778Y-56281802D03*
X180128440Y-53874976D03*
%TD*%
D134*
%TO.C,D263*%
X20925563Y-115836687D03*
D15*
X18399477Y-115571184D03*
%TD*%
D107*
%TO.C,D221*%
X91446133Y-206855292D03*
X90236091Y-209573090D03*
%TD*%
D78*
%TO.C,D146*%
X202834297Y-182099031D03*
X205241123Y-183847691D03*
%TD*%
D36*
%TO.C,D167*%
X182501048Y-176979236D03*
X184711904Y-178969900D03*
%TD*%
D52*
%TO.C,D253*%
X98014840Y-166894650D03*
X96266178Y-169301476D03*
%TD*%
D135*
%TO.C,D201*%
X64295069Y-213305933D03*
D15*
X62802094Y-215360836D03*
%TD*%
D91*
%TO.C,D314*%
X77708659Y-126987784D03*
X74733659Y-126987784D03*
%TD*%
D95*
%TO.C,D224*%
X68509621Y-191960147D03*
X66518957Y-194171003D03*
%TD*%
D136*
%TO.C,D9*%
X206278690Y-55617147D03*
D15*
X208166278Y-53917555D03*
%TD*%
D54*
%TO.C,D207*%
X127000000Y-220762500D03*
X127000000Y-223737500D03*
%TD*%
D71*
%TO.C,D50*%
X187443682Y-83085095D03*
X189850508Y-81336433D03*
%TD*%
D137*
%TO.C,U1*%
X141440580Y-91318750D03*
X140805580Y-92418602D03*
X140170579Y-93518454D03*
X139535580Y-94618307D03*
D138*
X140089193Y-96684420D03*
X141189045Y-97319420D03*
X142288898Y-97954420D03*
X143388750Y-98589420D03*
X144488602Y-99224420D03*
X145588454Y-99859421D03*
X146688307Y-100494420D03*
D137*
X148754420Y-99940807D03*
X149389420Y-98840955D03*
X150024420Y-97741102D03*
X150659420Y-96641250D03*
X151294420Y-95541398D03*
X151929421Y-94441546D03*
X152564420Y-93341693D03*
D138*
X152010807Y-91275580D03*
X150910955Y-90640580D03*
X149811102Y-90005580D03*
X148711250Y-89370580D03*
X147611398Y-88735580D03*
X146511546Y-88100579D03*
X145411693Y-87465580D03*
D137*
X143345580Y-88019193D03*
X142710580Y-89119045D03*
X142075580Y-90218898D03*
%TD*%
D139*
%TO.C,D135*%
X206257531Y-198369669D03*
D15*
X208145119Y-200069261D03*
%TD*%
D39*
%TO.C,D100*%
X212506567Y-145186296D03*
X215416559Y-145804834D03*
%TD*%
D140*
%TO.C,D8*%
X198382853Y-47721310D03*
D15*
X200082445Y-45833722D03*
%TD*%
D45*
%TO.C,D374*%
X94024656Y-90341455D03*
X92033992Y-88130599D03*
%TD*%
D84*
%TO.C,D181*%
X152201596Y-183638054D03*
X153411638Y-186355852D03*
%TD*%
D46*
%TO.C,D343*%
X62061012Y-68497405D03*
X59850156Y-66506741D03*
%TD*%
D22*
%TO.C,D11*%
X127000000Y-26670000D03*
D15*
X127000000Y-24130000D03*
%TD*%
D141*
%TO.C,D203*%
X47721310Y-198382853D03*
D15*
X45833722Y-200082445D03*
%TD*%
D61*
%TO.C,D311*%
X80122185Y-142226184D03*
X77292791Y-143145510D03*
%TD*%
D142*
%TO.C,D75*%
X233099836Y-115861120D03*
D15*
X235625921Y-115595618D03*
%TD*%
D89*
%TO.C,D297*%
X55965350Y-103900352D03*
X53135956Y-102981026D03*
%TD*%
D46*
%TO.C,D333*%
X57342043Y-64248426D03*
X55131187Y-62257762D03*
%TD*%
D74*
%TO.C,D235*%
X71477792Y-176992420D03*
X69266936Y-178983084D03*
%TD*%
D27*
%TO.C,D95*%
X210138468Y-100000268D03*
X212967862Y-99080942D03*
%TD*%
D22*
%TO.C,D1*%
X127000000Y-20320000D03*
D15*
X127000000Y-17780000D03*
%TD*%
D133*
%TO.C,D12*%
X177165000Y-40111671D03*
D15*
X178435000Y-37911966D03*
%TD*%
D49*
%TO.C,D81*%
X213892570Y-76847216D03*
D15*
X216092275Y-75577216D03*
%TD*%
D95*
%TO.C,D234*%
X77007580Y-182522208D03*
X75016916Y-184733064D03*
%TD*%
D109*
%TO.C,D24*%
X155974206Y-37826564D03*
X156893532Y-34997170D03*
%TD*%
D20*
%TO.C,D318*%
X81971949Y-106930584D03*
X79254151Y-105720542D03*
%TD*%
D102*
%TO.C,D52*%
X133482071Y-65327211D03*
X133793043Y-62368509D03*
%TD*%
D22*
%TO.C,D76*%
X233684241Y-127012216D03*
D15*
X236224241Y-127012216D03*
%TD*%
D19*
%TO.C,D300*%
X70369922Y-152210540D03*
X67652124Y-153420582D03*
%TD*%
D56*
%TO.C,D108*%
X201716741Y-127012216D03*
X204691741Y-127012216D03*
%TD*%
D143*
%TO.C,D199*%
X83609335Y-224457029D03*
D15*
X82576224Y-226777434D03*
%TD*%
D78*
%TO.C,D176*%
X177148007Y-163436849D03*
X179554833Y-165185509D03*
%TD*%
D48*
%TO.C,D377*%
X106963959Y-81938574D03*
X105753917Y-79220776D03*
%TD*%
D55*
%TO.C,D169*%
X170893746Y-187430498D03*
X172642408Y-189837324D03*
%TD*%
D144*
%TO.C,J2*%
X127000000Y-166445000D03*
D145*
X127000000Y-157195000D03*
D146*
X127000000Y-163195000D03*
D147*
X131850000Y-163695000D03*
X122150000Y-163695000D03*
X131850000Y-158995000D03*
X122150000Y-158995000D03*
%TD*%
M02*
