%TF.GenerationSoftware,KiCad,Pcbnew,9.0.7-9.0.7~ubuntu24.04.1*%
%TF.CreationDate,2026-01-21T14:41:36-05:00*%
%TF.ProjectId,Led_clock_sector,4c65645f-636c-46f6-936b-5f736563746f,rev?*%
%TF.SameCoordinates,Original*%
%TF.FileFunction,Soldermask,Bot*%
%TF.FilePolarity,Negative*%
%FSLAX46Y46*%
G04 Gerber Fmt 4.6, Leading zero omitted, Abs format (unit mm)*
G04 Created by KiCad (PCBNEW 9.0.7-9.0.7~ubuntu24.04.1) date 2026-01-21 14:41:36*
%MOMM*%
%LPD*%
G01*
G04 APERTURE LIST*
G04 Aperture macros list*
%AMRoundRect*
0 Rectangle with rounded corners*
0 $1 Rounding radius*
0 $2 $3 $4 $5 $6 $7 $8 $9 X,Y pos of 4 corners*
0 Add a 4 corners polygon primitive as box body*
4,1,4,$2,$3,$4,$5,$6,$7,$8,$9,$2,$3,0*
0 Add four circle primitives for the rounded corners*
1,1,$1+$1,$2,$3*
1,1,$1+$1,$4,$5*
1,1,$1+$1,$6,$7*
1,1,$1+$1,$8,$9*
0 Add four rect primitives between the rounded corners*
20,1,$1+$1,$2,$3,$4,$5,0*
20,1,$1+$1,$4,$5,$6,$7,0*
20,1,$1+$1,$6,$7,$8,$9,0*
20,1,$1+$1,$8,$9,$2,$3,0*%
%AMRotRect*
0 Rectangle, with rotation*
0 The origin of the aperture is its center*
0 $1 length*
0 $2 width*
0 $3 Rotation angle, in degrees counterclockwise*
0 Add horizontal line*
21,1,$1,$2,0,0,$3*%
G04 Aperture macros list end*
%ADD10RotRect,1.800000X1.800000X150.000000*%
%ADD11C,1.800000*%
%ADD12RotRect,1.800000X1.800000X192.000000*%
%ADD13RotRect,1.800000X1.800000X228.000000*%
%ADD14R,1.800000X1.800000*%
%ADD15RotRect,1.800000X1.800000X258.000000*%
%ADD16RotRect,1.800000X1.800000X300.000000*%
%ADD17RotRect,1.800000X1.800000X18.000000*%
%ADD18RotRect,1.800000X1.800000X342.000000*%
%ADD19RotRect,1.800000X1.800000X354.000000*%
%ADD20RotRect,1.800000X1.800000X30.000000*%
%ADD21RotRect,1.800000X1.800000X240.000000*%
%ADD22RotRect,1.800000X1.800000X276.000000*%
%ADD23RotRect,1.800000X1.800000X120.000000*%
%ADD24RotRect,1.800000X1.800000X126.000000*%
%ADD25RotRect,1.800000X1.800000X294.000000*%
%ADD26RotRect,1.800000X1.800000X210.000000*%
%ADD27RotRect,1.800000X1.800000X252.000000*%
%ADD28RotRect,1.800000X1.800000X36.000000*%
%ADD29RotRect,1.800000X1.800000X72.000000*%
%ADD30RotRect,1.800000X1.800000X114.000000*%
%ADD31RotRect,1.800000X1.800000X198.000000*%
%ADD32RotRect,1.800000X1.800000X156.000000*%
%ADD33R,1.600000X1.600000*%
%ADD34O,1.600000X1.600000*%
%ADD35RotRect,1.800000X1.800000X138.000000*%
%ADD36RotRect,1.800000X1.800000X102.000000*%
%ADD37RotRect,1.800000X1.800000X330.000000*%
%ADD38RotRect,1.800000X1.800000X12.000000*%
%ADD39RotRect,1.800000X1.800000X96.000000*%
%ADD40RotRect,1.800000X1.800000X336.000000*%
%ADD41RotRect,1.800000X1.800000X132.000000*%
%ADD42RotRect,1.800000X1.800000X324.000000*%
%ADD43RotRect,1.800000X1.800000X66.000000*%
%ADD44RotRect,1.800000X1.800000X312.000000*%
%ADD45RotRect,1.800000X1.800000X78.000000*%
%ADD46RotRect,1.800000X1.800000X168.000000*%
%ADD47RotRect,1.800000X1.800000X204.000000*%
%ADD48RotRect,1.800000X1.800000X84.000000*%
%ADD49RotRect,1.800000X1.800000X186.000000*%
%ADD50RotRect,1.800000X1.800000X24.000000*%
%ADD51RotRect,1.800000X1.800000X264.000000*%
%ADD52RotRect,1.800000X1.800000X216.000000*%
%ADD53RotRect,1.800000X1.800000X108.000000*%
%ADD54RotRect,1.800000X1.800000X348.000000*%
%ADD55RotRect,1.800000X1.800000X144.000000*%
%ADD56RotRect,1.800000X1.800000X306.000000*%
%ADD57RotRect,1.800000X1.800000X282.000000*%
%ADD58RotRect,1.800000X1.800000X288.000000*%
%ADD59RotRect,1.800000X1.800000X162.000000*%
%ADD60RotRect,1.800000X1.800000X54.000000*%
%ADD61RotRect,1.800000X1.800000X60.000000*%
%ADD62RotRect,1.800000X1.800000X174.000000*%
%ADD63RotRect,1.800000X1.800000X234.000000*%
%ADD64RotRect,1.800000X1.800000X42.000000*%
%ADD65RotRect,1.800000X1.800000X318.000000*%
%ADD66RotRect,1.800000X1.800000X48.000000*%
%ADD67RotRect,1.800000X1.800000X222.000000*%
%ADD68RotRect,1.800000X1.800000X6.000000*%
%ADD69RotRect,1.800000X1.800000X246.000000*%
%ADD70RoundRect,0.250000X-0.412500X-0.650000X0.412500X-0.650000X0.412500X0.650000X-0.412500X0.650000X0*%
%ADD71RoundRect,0.250000X0.682235X0.356667X-0.032235X0.769167X-0.682235X-0.356667X0.032235X-0.769167X0*%
%ADD72RoundRect,0.250000X-0.682235X-0.356667X0.032235X-0.769167X0.682235X0.356667X-0.032235X0.769167X0*%
%ADD73C,1.600000*%
%ADD74RoundRect,0.102000X1.125000X1.125000X-1.125000X1.125000X-1.125000X-1.125000X1.125000X-1.125000X0*%
%ADD75O,3.804000X1.604000*%
%ADD76O,1.604000X2.804000*%
%ADD77RoundRect,0.250000X0.032235X0.769167X-0.682235X0.356667X-0.032235X-0.769167X0.682235X-0.356667X0*%
%ADD78RoundRect,0.250000X0.412500X0.650000X-0.412500X0.650000X-0.412500X-0.650000X0.412500X-0.650000X0*%
%ADD79RoundRect,0.250000X-0.032235X-0.769167X0.682235X-0.356667X0.032235X0.769167X-0.682235X0.356667X0*%
G04 APERTURE END LIST*
D10*
%TO.C,D329*%
X40132830Y-76822784D03*
D11*
X37933125Y-75552784D03*
%TD*%
D12*
%TO.C,D260*%
X22672373Y-149167803D03*
D11*
X20187878Y-149695899D03*
%TD*%
D13*
%TO.C,D202*%
X55617147Y-206278690D03*
D11*
X53917555Y-208166278D03*
%TD*%
D14*
%TO.C,D205*%
X127000000Y-227330000D03*
D11*
X127000000Y-229870000D03*
%TD*%
D14*
%TO.C,D268*%
X26691159Y-126987784D03*
D11*
X24151159Y-126987784D03*
%TD*%
D15*
%TO.C,D197*%
X104819981Y-231348786D03*
D11*
X104291885Y-233833281D03*
%TD*%
D16*
%TO.C,D138*%
X180318841Y-219374406D03*
D11*
X181588841Y-221574111D03*
%TD*%
D17*
%TO.C,D73*%
X228462950Y-94046283D03*
D11*
X230878634Y-93261380D03*
%TD*%
D18*
%TO.C,D79*%
X228462950Y-159978149D03*
D11*
X230878634Y-160763052D03*
%TD*%
D19*
%TO.C,D77*%
X233099837Y-138163313D03*
D11*
X235625923Y-138428816D03*
%TD*%
D20*
%TO.C,D71*%
X219391831Y-73672216D03*
D11*
X221591536Y-72402216D03*
%TD*%
D21*
%TO.C,D206*%
X76835000Y-213888329D03*
D11*
X75565000Y-216088034D03*
%TD*%
D22*
%TO.C,D142*%
X138129938Y-233082412D03*
D11*
X138395441Y-235608498D03*
%TD*%
D23*
%TO.C,D324*%
X73681159Y-34600194D03*
D11*
X72411159Y-32400489D03*
%TD*%
D24*
%TO.C,D323*%
X64316229Y-40681851D03*
D11*
X62823254Y-38626948D03*
%TD*%
D25*
%TO.C,D139*%
X170369506Y-224443846D03*
D11*
X171402617Y-226764251D03*
%TD*%
D26*
%TO.C,D267*%
X40132830Y-177152784D03*
D11*
X37933125Y-178422784D03*
%TD*%
D27*
%TO.C,D198*%
X94034067Y-228458709D03*
D11*
X93249164Y-230874393D03*
%TD*%
D28*
%TO.C,D10*%
X213305933Y-64295069D03*
D11*
X215360836Y-62802094D03*
%TD*%
D29*
%TO.C,D4*%
X159965933Y-25541291D03*
D11*
X160750836Y-23125607D03*
%TD*%
D30*
%TO.C,D325*%
X83630494Y-29530754D03*
D11*
X82597383Y-27210349D03*
%TD*%
D31*
%TO.C,D259*%
X25562450Y-159953717D03*
D11*
X23146766Y-160738620D03*
%TD*%
D32*
%TO.C,D266*%
X29564129Y-83597119D03*
D11*
X27243724Y-82564008D03*
%TD*%
D33*
%TO.C,A1*%
X119380000Y-106680000D03*
D34*
X119380000Y-109220000D03*
X119380000Y-111760000D03*
X119380000Y-114300000D03*
X119380000Y-116840000D03*
X119380000Y-119380000D03*
X119380000Y-121920000D03*
X119380000Y-124460000D03*
X119380000Y-127000000D03*
X119380000Y-129540000D03*
X119380000Y-132080000D03*
X119380000Y-134620000D03*
X119380000Y-137160000D03*
X119380000Y-139700000D03*
X119380000Y-142240000D03*
X134620000Y-142240000D03*
X134620000Y-139700000D03*
X134620000Y-137160000D03*
X134620000Y-134620000D03*
X134620000Y-132080000D03*
X134620000Y-129540000D03*
X134620000Y-127000000D03*
X134620000Y-124460000D03*
X134620000Y-121920000D03*
X134620000Y-119380000D03*
X134620000Y-116840000D03*
X134620000Y-114300000D03*
X134620000Y-111760000D03*
X134620000Y-109220000D03*
X134620000Y-106680000D03*
%TD*%
D35*
%TO.C,D321*%
X47742469Y-55604931D03*
D11*
X45854881Y-53905339D03*
%TD*%
D36*
%TO.C,D327*%
X104841140Y-22638998D03*
D11*
X104313044Y-20154503D03*
%TD*%
D37*
%TO.C,D143*%
X213867170Y-177151816D03*
D11*
X216066875Y-178421816D03*
%TD*%
D38*
%TO.C,D74*%
X231353027Y-104832197D03*
D11*
X233837522Y-104304101D03*
%TD*%
D39*
%TO.C,D328*%
X115870062Y-20892188D03*
D11*
X115604559Y-18366102D03*
%TD*%
D10*
%TO.C,D319*%
X34633569Y-73647784D03*
D11*
X32433864Y-72377784D03*
%TD*%
D40*
%TO.C,D80*%
X224461271Y-170402881D03*
D11*
X226781676Y-171435992D03*
%TD*%
D37*
%TO.C,D133*%
X219366431Y-180326816D03*
D11*
X221566136Y-181596816D03*
%TD*%
D41*
%TO.C,D322*%
X55638306Y-47709094D03*
D11*
X53938714Y-45821506D03*
%TD*%
D42*
%TO.C,D134*%
X213284774Y-189691746D03*
D11*
X215339678Y-191184720D03*
%TD*%
D43*
%TO.C,D5*%
X170390665Y-29542971D03*
D11*
X171423776Y-27222566D03*
%TD*%
D16*
%TO.C,D144*%
X177143841Y-213875145D03*
D11*
X178413841Y-216074850D03*
%TD*%
D44*
%TO.C,D136*%
X198361694Y-206265506D03*
D11*
X200061286Y-208153094D03*
%TD*%
D45*
%TO.C,D3*%
X149180019Y-22651214D03*
D11*
X149708115Y-20166719D03*
%TD*%
D46*
%TO.C,D264*%
X22672373Y-104807765D03*
D11*
X20187878Y-104279669D03*
%TD*%
D47*
%TO.C,D258*%
X29564130Y-170378450D03*
D11*
X27243724Y-171411562D03*
%TD*%
D48*
%TO.C,D2*%
X138151096Y-20904404D03*
D11*
X138416598Y-18378318D03*
%TD*%
D49*
%TO.C,D261*%
X20925564Y-138138880D03*
D11*
X18399479Y-138404382D03*
%TD*%
D50*
%TO.C,D72*%
X224461270Y-83621550D03*
D11*
X226781676Y-82588438D03*
%TD*%
D51*
%TO.C,D196*%
X115848904Y-233095596D03*
D11*
X115583402Y-235621682D03*
%TD*%
D52*
%TO.C,D204*%
X40694067Y-189704931D03*
D11*
X38639164Y-191197906D03*
%TD*%
D21*
%TO.C,D200*%
X73660000Y-219387590D03*
D11*
X72390000Y-221587295D03*
%TD*%
D53*
%TO.C,D326*%
X94055226Y-25529075D03*
D11*
X93270323Y-23113391D03*
%TD*%
D54*
%TO.C,D78*%
X231353027Y-149192235D03*
D11*
X233837522Y-149720331D03*
%TD*%
D55*
%TO.C,D320*%
X40715226Y-64282854D03*
D11*
X38660322Y-62789880D03*
%TD*%
D26*
%TO.C,D257*%
X34633569Y-180327784D03*
D11*
X32433864Y-181597784D03*
%TD*%
D14*
%TO.C,D262*%
X20341159Y-126987784D03*
D11*
X17801159Y-126987784D03*
%TD*%
D14*
%TO.C,D195*%
X127000000Y-233680000D03*
D11*
X127000000Y-236220000D03*
%TD*%
D56*
%TO.C,D137*%
X189683771Y-213292749D03*
D11*
X191176746Y-215347652D03*
%TD*%
D23*
%TO.C,D330*%
X76856159Y-40099455D03*
D11*
X75586159Y-37899750D03*
%TD*%
D57*
%TO.C,D141*%
X149158860Y-231335602D03*
D11*
X149686956Y-233820097D03*
%TD*%
D58*
%TO.C,D140*%
X159944774Y-228445525D03*
D11*
X160729677Y-230861209D03*
%TD*%
D59*
%TO.C,D265*%
X25562450Y-94021851D03*
D11*
X23146766Y-93236948D03*
%TD*%
D14*
%TO.C,D82*%
X227334241Y-127012216D03*
D11*
X229874241Y-127012216D03*
%TD*%
D60*
%TO.C,D7*%
X189704931Y-40694067D03*
D11*
X191197906Y-38639164D03*
%TD*%
D61*
%TO.C,D6*%
X180340000Y-34612410D03*
D11*
X181610000Y-32412705D03*
%TD*%
D62*
%TO.C,D263*%
X20925563Y-115836687D03*
D11*
X18399477Y-115571184D03*
%TD*%
D63*
%TO.C,D201*%
X64295069Y-213305933D03*
D11*
X62802094Y-215360836D03*
%TD*%
D64*
%TO.C,D9*%
X206278690Y-55617147D03*
D11*
X208166278Y-53917555D03*
%TD*%
D65*
%TO.C,D135*%
X206257531Y-198369669D03*
D11*
X208145119Y-200069261D03*
%TD*%
D66*
%TO.C,D8*%
X198382853Y-47721310D03*
D11*
X200082445Y-45833722D03*
%TD*%
D14*
%TO.C,D11*%
X127000000Y-26670000D03*
D11*
X127000000Y-24130000D03*
%TD*%
D67*
%TO.C,D203*%
X47721310Y-198382853D03*
D11*
X45833722Y-200082445D03*
%TD*%
D68*
%TO.C,D75*%
X233099836Y-115861120D03*
D11*
X235625921Y-115595618D03*
%TD*%
D14*
%TO.C,D1*%
X127000000Y-20320000D03*
D11*
X127000000Y-17780000D03*
%TD*%
D61*
%TO.C,D12*%
X177165000Y-40111671D03*
D11*
X178435000Y-37911966D03*
%TD*%
D20*
%TO.C,D81*%
X213892570Y-76847216D03*
D11*
X216092275Y-75577216D03*
%TD*%
D14*
%TO.C,D76*%
X233684241Y-127012216D03*
D11*
X236224241Y-127012216D03*
%TD*%
D69*
%TO.C,D199*%
X83609335Y-224457029D03*
D11*
X82576224Y-226777434D03*
%TD*%
D70*
%TO.C,C4*%
X87337500Y-127000000D03*
X90462500Y-127000000D03*
%TD*%
D71*
%TO.C,C2*%
X147403165Y-94761250D03*
X144696835Y-93198750D03*
%TD*%
D72*
%TO.C,C3*%
X106596835Y-159238750D03*
X109303165Y-160801250D03*
%TD*%
D73*
%TO.C,J2*%
X127000000Y-166445000D03*
D74*
X127000000Y-157195000D03*
D75*
X127000000Y-163195000D03*
D76*
X131850000Y-163695000D03*
X122150000Y-163695000D03*
X131850000Y-158995000D03*
X122150000Y-158995000D03*
%TD*%
D77*
%TO.C,C1*%
X109303165Y-93198750D03*
X106596835Y-94761250D03*
%TD*%
D78*
%TO.C,C6*%
X166687900Y-127000000D03*
X163562900Y-127000000D03*
%TD*%
D79*
%TO.C,C5*%
X144696835Y-160775850D03*
X147403165Y-159213350D03*
%TD*%
M02*
