%TF.GenerationSoftware,KiCad,Pcbnew,9.0.7-9.0.7~ubuntu24.04.1*%
%TF.CreationDate,2026-01-21T07:20:36-05:00*%
%TF.ProjectId,LED_clock,4c45445f-636c-46f6-936b-2e6b69636164,rev?*%
%TF.SameCoordinates,Original*%
%TF.FileFunction,Copper,L2,Bot*%
%TF.FilePolarity,Positive*%
%FSLAX46Y46*%
G04 Gerber Fmt 4.6, Leading zero omitted, Abs format (unit mm)*
G04 Created by KiCad (PCBNEW 9.0.7-9.0.7~ubuntu24.04.1) date 2026-01-21 07:20:36*
%MOMM*%
%LPD*%
G01*
G04 APERTURE LIST*
G04 Aperture macros list*
%AMRoundRect*
0 Rectangle with rounded corners*
0 $1 Rounding radius*
0 $2 $3 $4 $5 $6 $7 $8 $9 X,Y pos of 4 corners*
0 Add a 4 corners polygon primitive as box body*
4,1,4,$2,$3,$4,$5,$6,$7,$8,$9,$2,$3,0*
0 Add four circle primitives for the rounded corners*
1,1,$1+$1,$2,$3*
1,1,$1+$1,$4,$5*
1,1,$1+$1,$6,$7*
1,1,$1+$1,$8,$9*
0 Add four rect primitives between the rounded corners*
20,1,$1+$1,$2,$3,$4,$5,0*
20,1,$1+$1,$4,$5,$6,$7,0*
20,1,$1+$1,$6,$7,$8,$9,0*
20,1,$1+$1,$8,$9,$2,$3,0*%
%AMHorizOval*
0 Thick line with rounded ends*
0 $1 width*
0 $2 $3 position (X,Y) of the first rounded end (center of the circle)*
0 $4 $5 position (X,Y) of the second rounded end (center of the circle)*
0 Add line between two ends*
20,1,$1,$2,$3,$4,$5,0*
0 Add two circle primitives to create the rounded ends*
1,1,$1,$2,$3*
1,1,$1,$4,$5*%
%AMRotRect*
0 Rectangle, with rotation*
0 The origin of the aperture is its center*
0 $1 length*
0 $2 width*
0 $3 Rotation angle, in degrees counterclockwise*
0 Add horizontal line*
21,1,$1,$2,0,0,$3*%
G04 Aperture macros list end*
%TA.AperFunction,ComponentPad*%
%ADD10R,1.700000X1.700000*%
%TD*%
%TA.AperFunction,ComponentPad*%
%ADD11C,1.700000*%
%TD*%
%TA.AperFunction,ComponentPad*%
%ADD12RotRect,1.800000X1.800000X6.000000*%
%TD*%
%TA.AperFunction,ComponentPad*%
%ADD13C,1.800000*%
%TD*%
%TA.AperFunction,ComponentPad*%
%ADD14RotRect,1.800000X1.800000X324.000000*%
%TD*%
%TA.AperFunction,ComponentPad*%
%ADD15RotRect,1.800000X1.800000X282.000000*%
%TD*%
%TA.AperFunction,ComponentPad*%
%ADD16RotRect,1.800000X1.800000X24.000000*%
%TD*%
%TA.AperFunction,ComponentPad*%
%ADD17RotRect,1.800000X1.800000X96.000000*%
%TD*%
%TA.AperFunction,ComponentPad*%
%ADD18RotRect,1.800000X1.800000X216.000000*%
%TD*%
%TA.AperFunction,ComponentPad*%
%ADD19R,1.800000X1.800000*%
%TD*%
%TA.AperFunction,ComponentPad*%
%ADD20RoundRect,0.250000X0.547724X0.951314X-1.097724X0.001314X-0.547724X-0.951314X1.097724X-0.001314X0*%
%TD*%
%TA.AperFunction,ComponentPad*%
%ADD21HorizOval,1.600000X-0.346410X-0.200000X0.346410X0.200000X0*%
%TD*%
%TA.AperFunction,ComponentPad*%
%ADD22RotRect,1.800000X1.800000X186.000000*%
%TD*%
%TA.AperFunction,ComponentPad*%
%ADD23RotRect,1.800000X1.800000X312.000000*%
%TD*%
%TA.AperFunction,ComponentPad*%
%ADD24RotRect,1.800000X1.800000X288.000000*%
%TD*%
%TA.AperFunction,ComponentPad*%
%ADD25RotRect,1.800000X1.800000X348.000000*%
%TD*%
%TA.AperFunction,ComponentPad*%
%ADD26RoundRect,0.250000X-0.547724X-0.951314X1.097724X-0.001314X0.547724X0.951314X-1.097724X0.001314X0*%
%TD*%
%TA.AperFunction,ComponentPad*%
%ADD27HorizOval,1.600000X0.346410X0.200000X-0.346410X-0.200000X0*%
%TD*%
%TA.AperFunction,ComponentPad*%
%ADD28RotRect,1.800000X1.800000X144.000000*%
%TD*%
%TA.AperFunction,ComponentPad*%
%ADD29RotRect,1.800000X1.800000X276.000000*%
%TD*%
%TA.AperFunction,ComponentPad*%
%ADD30RotRect,1.800000X1.800000X84.000000*%
%TD*%
%TA.AperFunction,ComponentPad*%
%ADD31RotRect,1.800000X1.800000X102.000000*%
%TD*%
%TA.AperFunction,ComponentPad*%
%ADD32RotRect,1.800000X1.800000X138.000000*%
%TD*%
%TA.AperFunction,ComponentPad*%
%ADD33RotRect,1.800000X1.800000X174.000000*%
%TD*%
%TA.AperFunction,ComponentPad*%
%ADD34RotRect,1.800000X1.800000X198.000000*%
%TD*%
%TA.AperFunction,ComponentPad*%
%ADD35RotRect,1.800000X1.800000X252.000000*%
%TD*%
%TA.AperFunction,ComponentPad*%
%ADD36RotRect,1.800000X1.800000X264.000000*%
%TD*%
%TA.AperFunction,ComponentPad*%
%ADD37RotRect,1.800000X1.800000X114.000000*%
%TD*%
%TA.AperFunction,ComponentPad*%
%ADD38RoundRect,0.250000X1.097724X0.001314X-0.547724X0.951314X-1.097724X-0.001314X0.547724X-0.951314X0*%
%TD*%
%TA.AperFunction,ComponentPad*%
%ADD39HorizOval,1.600000X-0.346410X0.200000X0.346410X-0.200000X0*%
%TD*%
%TA.AperFunction,ComponentPad*%
%ADD40RotRect,1.800000X1.800000X240.000000*%
%TD*%
%TA.AperFunction,ComponentPad*%
%ADD41RotRect,1.800000X1.800000X150.000000*%
%TD*%
%TA.AperFunction,ComponentPad*%
%ADD42RotRect,1.800000X1.800000X72.000000*%
%TD*%
%TA.AperFunction,ComponentPad*%
%ADD43RotRect,1.800000X1.800000X294.000000*%
%TD*%
%TA.AperFunction,ComponentPad*%
%ADD44C,1.600000*%
%TD*%
%TA.AperFunction,ComponentPad*%
%ADD45RotRect,1.800000X1.800000X42.000000*%
%TD*%
%TA.AperFunction,ComponentPad*%
%ADD46RotRect,1.800000X1.800000X66.000000*%
%TD*%
%TA.AperFunction,ComponentPad*%
%ADD47RotRect,1.800000X1.800000X228.000000*%
%TD*%
%TA.AperFunction,ComponentPad*%
%ADD48RotRect,1.800000X1.800000X78.000000*%
%TD*%
%TA.AperFunction,ComponentPad*%
%ADD49RotRect,1.800000X1.800000X156.000000*%
%TD*%
%TA.AperFunction,ComponentPad*%
%ADD50RotRect,1.800000X1.800000X222.000000*%
%TD*%
%TA.AperFunction,ComponentPad*%
%ADD51RotRect,1.800000X1.800000X234.000000*%
%TD*%
%TA.AperFunction,ComponentPad*%
%ADD52RoundRect,0.250000X0.550000X-0.950000X0.550000X0.950000X-0.550000X0.950000X-0.550000X-0.950000X0*%
%TD*%
%TA.AperFunction,ComponentPad*%
%ADD53O,1.600000X2.400000*%
%TD*%
%TA.AperFunction,ComponentPad*%
%ADD54RotRect,1.800000X1.800000X318.000000*%
%TD*%
%TA.AperFunction,ComponentPad*%
%ADD55RotRect,1.800000X1.800000X30.000000*%
%TD*%
%TA.AperFunction,ComponentPad*%
%ADD56RotRect,1.800000X1.800000X258.000000*%
%TD*%
%TA.AperFunction,ComponentPad*%
%ADD57RotRect,1.800000X1.800000X210.000000*%
%TD*%
%TA.AperFunction,ComponentPad*%
%ADD58RotRect,1.800000X1.800000X168.000000*%
%TD*%
%TA.AperFunction,ComponentPad*%
%ADD59RotRect,1.800000X1.800000X342.000000*%
%TD*%
%TA.AperFunction,ComponentPad*%
%ADD60RotRect,1.800000X1.800000X120.000000*%
%TD*%
%TA.AperFunction,ComponentPad*%
%ADD61RotRect,1.800000X1.800000X300.000000*%
%TD*%
%TA.AperFunction,ComponentPad*%
%ADD62RotRect,1.800000X1.800000X162.000000*%
%TD*%
%TA.AperFunction,ComponentPad*%
%ADD63RotRect,1.800000X1.800000X108.000000*%
%TD*%
%TA.AperFunction,ComponentPad*%
%ADD64RotRect,1.800000X1.800000X306.000000*%
%TD*%
%TA.AperFunction,ComponentPad*%
%ADD65RotRect,1.800000X1.800000X60.000000*%
%TD*%
%TA.AperFunction,ComponentPad*%
%ADD66RotRect,1.800000X1.800000X18.000000*%
%TD*%
%TA.AperFunction,ComponentPad*%
%ADD67RotRect,1.800000X1.800000X336.000000*%
%TD*%
%TA.AperFunction,ComponentPad*%
%ADD68RotRect,1.800000X1.800000X330.000000*%
%TD*%
%TA.AperFunction,ComponentPad*%
%ADD69RotRect,1.800000X1.800000X204.000000*%
%TD*%
%TA.AperFunction,ComponentPad*%
%ADD70RotRect,1.800000X1.800000X54.000000*%
%TD*%
%TA.AperFunction,ComponentPad*%
%ADD71RotRect,1.800000X1.800000X354.000000*%
%TD*%
%TA.AperFunction,ComponentPad*%
%ADD72RotRect,1.800000X1.800000X48.000000*%
%TD*%
%TA.AperFunction,ComponentPad*%
%ADD73RotRect,1.800000X1.800000X36.000000*%
%TD*%
%TA.AperFunction,ComponentPad*%
%ADD74RotRect,1.800000X1.800000X126.000000*%
%TD*%
%TA.AperFunction,ComponentPad*%
%ADD75RotRect,1.800000X1.800000X192.000000*%
%TD*%
%TA.AperFunction,ComponentPad*%
%ADD76RotRect,1.800000X1.800000X132.000000*%
%TD*%
%TA.AperFunction,ComponentPad*%
%ADD77RoundRect,0.250000X-1.097724X-0.001314X0.547724X-0.951314X1.097724X0.001314X-0.547724X0.951314X0*%
%TD*%
%TA.AperFunction,ComponentPad*%
%ADD78HorizOval,1.600000X0.346410X-0.200000X-0.346410X0.200000X0*%
%TD*%
%TA.AperFunction,ComponentPad*%
%ADD79RotRect,1.800000X1.800000X12.000000*%
%TD*%
%TA.AperFunction,ComponentPad*%
%ADD80RoundRect,0.250000X-0.550000X-0.550000X0.550000X-0.550000X0.550000X0.550000X-0.550000X0.550000X0*%
%TD*%
%TA.AperFunction,ComponentPad*%
%ADD81RotRect,1.800000X1.800000X246.000000*%
%TD*%
%TA.AperFunction,ComponentPad*%
%ADD82RoundRect,0.250000X-0.550000X0.950000X-0.550000X-0.950000X0.550000X-0.950000X0.550000X0.950000X0*%
%TD*%
G04 APERTURE END LIST*
D10*
%TO.P,J1,1,Pin_1*%
%TO.N,VCC*%
X243840000Y-288290000D03*
D11*
%TO.P,J1,2,Pin_2*%
X243840000Y-285750000D03*
%TO.P,J1,3,Pin_3*%
X246380000Y-288290000D03*
%TO.P,J1,4,Pin_4*%
%TO.N,GND*%
X246380000Y-285750000D03*
%TO.P,J1,5,Pin_5*%
X248920000Y-288290000D03*
%TO.P,J1,6,Pin_6*%
%TO.N,Net-(J1-Pin_6)*%
X248920000Y-285750000D03*
%TO.P,J1,7,Pin_7*%
%TO.N,Net-(J1-Pin_7)*%
X251460000Y-288290000D03*
%TO.P,J1,8,Pin_8*%
%TO.N,Net-(J1-Pin_8)*%
X251460000Y-285750000D03*
%TO.P,J1,9,Pin_9*%
%TO.N,Net-(J1-Pin_9)*%
X254000000Y-288290000D03*
%TO.P,J1,10,Pin_10*%
%TO.N,GND*%
X254000000Y-285750000D03*
%TO.P,J1,11,Pin_11*%
X256540000Y-288290000D03*
%TO.P,J1,12,Pin_12*%
%TO.N,Net-(J1-Pin_12)*%
X256540000Y-285750000D03*
%TO.P,J1,13,Pin_13*%
%TO.N,Net-(J1-Pin_13)*%
X259080000Y-288290000D03*
%TO.P,J1,14,Pin_14*%
%TO.N,Net-(J1-Pin_14)*%
X259080000Y-285750000D03*
%TO.P,J1,15,Pin_15*%
%TO.N,Net-(J1-Pin_15)*%
X261620000Y-288290000D03*
%TO.P,J1,16,Pin_16*%
%TO.N,Net-(J1-Pin_16)*%
X261620000Y-285750000D03*
%TO.P,J1,17,Pin_17*%
%TO.N,/~{WR}*%
X264160000Y-288290000D03*
%TO.P,J1,18,Pin_18*%
%TO.N,/A2*%
X264160000Y-285750000D03*
%TO.P,J1,19,Pin_19*%
%TO.N,/A1*%
X266700000Y-288290000D03*
%TO.P,J1,20,Pin_20*%
%TO.N,/A0*%
X266700000Y-285750000D03*
%TD*%
D12*
%TO.P,D359,1,K*%
%TO.N,/R7_Y5*%
X323972572Y-170445586D03*
D13*
%TO.P,D359,2,A*%
%TO.N,/R7_X6*%
X326498658Y-170180084D03*
%TD*%
D14*
%TO.P,D352,1,K*%
%TO.N,/R7_Y4*%
X310920818Y-219155395D03*
D13*
%TO.P,D352,2,A*%
%TO.N,/R7_X7*%
X312975721Y-220648370D03*
%TD*%
D15*
%TO.P,D45,1,K*%
%TO.N,/R5_Y4*%
X265354057Y-231216640D03*
D13*
%TO.P,D45,2,A*%
%TO.N,/R5_X0*%
X265882153Y-233701135D03*
%TD*%
D16*
%TO.P,D62,1,K*%
%TO.N,/R5_Y6*%
X303888717Y-155588112D03*
D13*
%TO.P,D62,2,A*%
%TO.N,/R5_X1*%
X306209122Y-154555001D03*
%TD*%
D17*
%TO.P,D14,1,K*%
%TO.N,/R5_Y0*%
X248291701Y-123489159D03*
D13*
%TO.P,D14,2,A*%
%TO.N,/R5_X1*%
X248026199Y-120963073D03*
%TD*%
D18*
%TO.P,D334,1,K*%
%TO.N,/R7_Y2*%
X197079182Y-219155395D03*
D13*
%TO.P,D334,2,A*%
%TO.N,/R7_X5*%
X195024279Y-220648370D03*
%TD*%
D19*
%TO.P,D13,1,K*%
%TO.N,/R5_Y0*%
X254000000Y-123190000D03*
D13*
%TO.P,D13,2,A*%
%TO.N,/R5_X0*%
X254000000Y-120650000D03*
%TD*%
D20*
%TO.P,U6,1,c*%
%TO.N,/R1_Y2*%
X347408476Y-141468227D03*
D21*
%TO.P,U6,2,e*%
%TO.N,/R1_Y4*%
X346138476Y-139268522D03*
%TO.P,U6,3,b*%
%TO.N,/R1_Y1*%
X344868476Y-137068818D03*
%TO.P,U6,4,dp*%
%TO.N,/R1_Y7*%
X343598476Y-134869113D03*
%TO.P,U6,5,ID6*%
%TO.N,/D6*%
X342328476Y-132669409D03*
%TO.P,U6,6,ID5*%
%TO.N,/D5*%
X341058476Y-130469704D03*
%TO.P,U6,7,ID7*%
%TO.N,/D7*%
X339788476Y-128270000D03*
%TO.P,U6,8,nWR*%
%TO.N,/~{RING1}*%
X338518476Y-126070295D03*
%TO.P,U6,9,MODE*%
%TO.N,/MODE*%
X337248476Y-123870591D03*
%TO.P,U6,10,ID4*%
%TO.N,/D4*%
X335978476Y-121670886D03*
%TO.P,U6,11,ID1*%
%TO.N,/D1*%
X334708476Y-119471182D03*
%TO.P,U6,12,ID0*%
%TO.N,/D0*%
X333438476Y-117271477D03*
%TO.P,U6,13,ID2*%
%TO.N,/D2*%
X332168476Y-115071773D03*
%TO.P,U6,14,ID3*%
%TO.N,/D3*%
X330898476Y-112872068D03*
%TO.P,U6,15,d1*%
%TO.N,/R1_X0*%
X317700249Y-120492068D03*
%TO.P,U6,16,d2*%
%TO.N,/R1_X1*%
X318970249Y-122691773D03*
%TO.P,U6,17,d5*%
%TO.N,/R1_X4*%
X320240249Y-124891477D03*
%TO.P,U6,18,d8*%
%TO.N,/R1_X7*%
X321510249Y-127091182D03*
%TO.P,U6,19,V+*%
%TO.N,VCC*%
X322780249Y-129290886D03*
%TO.P,U6,20,d4*%
%TO.N,/R1_X3*%
X324050249Y-131490591D03*
%TO.P,U6,21,d7*%
%TO.N,/R1_X6*%
X325320249Y-133690295D03*
%TO.P,U6,22,d6*%
%TO.N,/R1_X5*%
X326590249Y-135890000D03*
%TO.P,U6,23,d3*%
%TO.N,/R1_X2*%
X327860249Y-138089704D03*
%TO.P,U6,24,f*%
%TO.N,/R1_Y5*%
X329130249Y-140289409D03*
%TO.P,U6,25,d*%
%TO.N,/R1_Y3*%
X330400249Y-142489113D03*
%TO.P,U6,26,g*%
%TO.N,/R1_Y6*%
X331670249Y-144688818D03*
%TO.P,U6,27,a*%
%TO.N,/R1_Y0*%
X332940249Y-146888522D03*
%TO.P,U6,28,GND*%
%TO.N,GND*%
X334210249Y-149088227D03*
%TD*%
D22*
%TO.P,D29,1,K*%
%TO.N,/R5_Y2*%
X199689159Y-183508299D03*
D13*
%TO.P,D29,2,A*%
%TO.N,/R5_X0*%
X197163073Y-183773801D03*
%TD*%
D23*
%TO.P,D350,1,K*%
%TO.N,/R7_Y4*%
X301078691Y-230086184D03*
D13*
%TO.P,D350,2,A*%
%TO.N,/R7_X5*%
X302778283Y-231973772D03*
%TD*%
D24*
%TO.P,D346,1,K*%
%TO.N,/R7_Y4*%
X275741818Y-244714434D03*
D13*
%TO.P,D346,2,A*%
%TO.N,/R7_X1*%
X276526721Y-247130118D03*
%TD*%
D25*
%TO.P,D356,1,K*%
%TO.N,/R7_Y5*%
X322820509Y-192428251D03*
D13*
%TO.P,D356,2,A*%
%TO.N,/R7_X3*%
X325305004Y-192956347D03*
%TD*%
D26*
%TO.P,U3,1,c*%
%TO.N,/R4_Y2*%
X160591524Y-214131773D03*
D27*
%TO.P,U3,2,e*%
%TO.N,/R4_Y4*%
X161861524Y-216331478D03*
%TO.P,U3,3,b*%
%TO.N,/R4_Y1*%
X163131524Y-218531182D03*
%TO.P,U3,4,dp*%
%TO.N,/R4_Y7*%
X164401524Y-220730887D03*
%TO.P,U3,5,ID6*%
%TO.N,/D6*%
X165671524Y-222930591D03*
%TO.P,U3,6,ID5*%
%TO.N,/D5*%
X166941524Y-225130296D03*
%TO.P,U3,7,ID7*%
%TO.N,/D7*%
X168211524Y-227330000D03*
%TO.P,U3,8,nWR*%
%TO.N,/~{RING4}*%
X169481524Y-229529705D03*
%TO.P,U3,9,MODE*%
%TO.N,/MODE*%
X170751524Y-231729409D03*
%TO.P,U3,10,ID4*%
%TO.N,/D4*%
X172021524Y-233929114D03*
%TO.P,U3,11,ID1*%
%TO.N,/D1*%
X173291524Y-236128818D03*
%TO.P,U3,12,ID0*%
%TO.N,/D0*%
X174561524Y-238328523D03*
%TO.P,U3,13,ID2*%
%TO.N,/D2*%
X175831524Y-240528227D03*
%TO.P,U3,14,ID3*%
%TO.N,/D3*%
X177101524Y-242727932D03*
%TO.P,U3,15,d1*%
%TO.N,/R4_X0*%
X190299751Y-235107932D03*
%TO.P,U3,16,d2*%
%TO.N,/R4_X1*%
X189029751Y-232908227D03*
%TO.P,U3,17,d5*%
%TO.N,/R4_X4*%
X187759751Y-230708523D03*
%TO.P,U3,18,d8*%
%TO.N,/R4_X7*%
X186489751Y-228508818D03*
%TO.P,U3,19,V+*%
%TO.N,VCC*%
X185219751Y-226309114D03*
%TO.P,U3,20,d4*%
%TO.N,/R4_X3*%
X183949751Y-224109409D03*
%TO.P,U3,21,d7*%
%TO.N,/R4_X6*%
X182679751Y-221909705D03*
%TO.P,U3,22,d6*%
%TO.N,/R4_X5*%
X181409751Y-219710000D03*
%TO.P,U3,23,d3*%
%TO.N,/R4_X2*%
X180139751Y-217510296D03*
%TO.P,U3,24,f*%
%TO.N,/R4_Y5*%
X178869751Y-215310591D03*
%TO.P,U3,25,d*%
%TO.N,/R4_Y3*%
X177599751Y-213110887D03*
%TO.P,U3,26,g*%
%TO.N,/R4_Y6*%
X176329751Y-210911182D03*
%TO.P,U3,27,a*%
%TO.N,/R4_Y0*%
X175059751Y-208711478D03*
%TO.P,U3,28,GND*%
%TO.N,GND*%
X173789751Y-206511773D03*
%TD*%
D28*
%TO.P,D22,1,K*%
%TO.N,/R5_Y1*%
X209819582Y-145701047D03*
D13*
%TO.P,D22,2,A*%
%TO.N,/R5_X1*%
X207764679Y-144208072D03*
%TD*%
D23*
%TO.P,D50,1,K*%
%TO.N,/R5_Y4*%
X290541222Y-218383139D03*
D13*
%TO.P,D50,2,A*%
%TO.N,/R5_X5*%
X292240814Y-220270727D03*
%TD*%
D29*
%TO.P,D344,1,K*%
%TO.N,/R7_Y3*%
X261354414Y-247772572D03*
D13*
%TO.P,D344,2,A*%
%TO.N,/R7_X7*%
X261619916Y-250298658D03*
%TD*%
D30*
%TO.P,D72,1,K*%
%TO.N,/R5_Y7*%
X259708299Y-123489159D03*
D13*
%TO.P,D72,2,A*%
%TO.N,/R5_X3*%
X259973801Y-120963073D03*
%TD*%
D31*
%TO.P,D315,1,K*%
%TO.N,/R7_Y0*%
X239371749Y-108979491D03*
D13*
%TO.P,D315,2,A*%
%TO.N,/R7_X2*%
X238843653Y-106494996D03*
%TD*%
D32*
%TO.P,D21,1,K*%
%TO.N,/R5_Y1*%
X213416861Y-141258778D03*
D13*
%TO.P,D21,2,A*%
%TO.N,/R5_X0*%
X211529273Y-139559186D03*
%TD*%
D33*
%TO.P,D27,1,K*%
%TO.N,/R5_Y1*%
X199689159Y-172091701D03*
D13*
%TO.P,D27,2,A*%
%TO.N,/R5_X6*%
X197163073Y-171826199D03*
%TD*%
D34*
%TO.P,D31,1,K*%
%TO.N,/R5_Y2*%
X202062804Y-194675418D03*
D13*
%TO.P,D31,2,A*%
%TO.N,/R5_X2*%
X199647120Y-195460321D03*
%TD*%
D35*
%TO.P,D40,1,K*%
%TO.N,/R5_Y3*%
X237124582Y-229737196D03*
D13*
%TO.P,D40,2,A*%
%TO.N,/R5_X3*%
X236339679Y-232152880D03*
%TD*%
D36*
%TO.P,D342,1,K*%
%TO.N,/R7_Y3*%
X246645586Y-247772572D03*
D13*
%TO.P,D342,2,A*%
%TO.N,/R7_X5*%
X246380084Y-250298658D03*
%TD*%
D37*
%TO.P,D17,1,K*%
%TO.N,/R5_Y0*%
X231788112Y-127911283D03*
D13*
%TO.P,D17,2,A*%
%TO.N,/R5_X4*%
X230755001Y-125590878D03*
%TD*%
D38*
%TO.P,U5,1,c*%
%TO.N,/R2_Y2*%
X332168476Y-240528227D03*
D39*
%TO.P,U5,2,e*%
%TO.N,/R2_Y4*%
X333438476Y-238328522D03*
%TO.P,U5,3,b*%
%TO.N,/R2_Y1*%
X334708476Y-236128818D03*
%TO.P,U5,4,dp*%
%TO.N,/R2_Y7*%
X335978476Y-233929113D03*
%TO.P,U5,5,ID6*%
%TO.N,/D6*%
X337248476Y-231729409D03*
%TO.P,U5,6,ID5*%
%TO.N,/D5*%
X338518476Y-229529704D03*
%TO.P,U5,7,ID7*%
%TO.N,/D7*%
X339788476Y-227330000D03*
%TO.P,U5,8,nWR*%
%TO.N,/~{RING2}*%
X341058476Y-225130295D03*
%TO.P,U5,9,MODE*%
%TO.N,/MODE*%
X342328476Y-222930591D03*
%TO.P,U5,10,ID4*%
%TO.N,/D4*%
X343598476Y-220730886D03*
%TO.P,U5,11,ID1*%
%TO.N,/D1*%
X344868476Y-218531182D03*
%TO.P,U5,12,ID0*%
%TO.N,/D0*%
X346138476Y-216331477D03*
%TO.P,U5,13,ID2*%
%TO.N,/D2*%
X347408476Y-214131773D03*
%TO.P,U5,14,ID3*%
%TO.N,/D3*%
X348678476Y-211932068D03*
%TO.P,U5,15,d1*%
%TO.N,/R2_X0*%
X335480249Y-204312068D03*
%TO.P,U5,16,d2*%
%TO.N,/R2_X1*%
X334210249Y-206511773D03*
%TO.P,U5,17,d5*%
%TO.N,/R2_X4*%
X332940249Y-208711477D03*
%TO.P,U5,18,d8*%
%TO.N,/R2_X7*%
X331670249Y-210911182D03*
%TO.P,U5,19,V+*%
%TO.N,VCC*%
X330400249Y-213110886D03*
%TO.P,U5,20,d4*%
%TO.N,/R2_X3*%
X329130249Y-215310591D03*
%TO.P,U5,21,d7*%
%TO.N,/R2_X6*%
X327860249Y-217510295D03*
%TO.P,U5,22,d6*%
%TO.N,/R2_X5*%
X326590249Y-219710000D03*
%TO.P,U5,23,d3*%
%TO.N,/R2_X2*%
X325320249Y-221909704D03*
%TO.P,U5,24,f*%
%TO.N,/R2_Y5*%
X324050249Y-224109409D03*
%TO.P,U5,25,d*%
%TO.N,/R2_Y3*%
X322780249Y-226309113D03*
%TO.P,U5,26,g*%
%TO.N,/R2_Y6*%
X321510249Y-228508818D03*
%TO.P,U5,27,a*%
%TO.N,/R2_Y0*%
X320240249Y-230708522D03*
%TO.P,U5,28,GND*%
%TO.N,GND*%
X318970249Y-232908227D03*
%TD*%
D40*
%TO.P,D38,1,K*%
%TO.N,/R5_Y3*%
X226695000Y-225093647D03*
D13*
%TO.P,D38,2,A*%
%TO.N,/R5_X1*%
X225425000Y-227293352D03*
%TD*%
D19*
%TO.P,D28,1,K*%
%TO.N,/R5_Y1*%
X199390000Y-177800000D03*
D13*
%TO.P,D28,2,A*%
%TO.N,/R5_X7*%
X196850000Y-177800000D03*
%TD*%
D41*
%TO.P,D323,1,K*%
%TO.N,/R7_Y1*%
X193068185Y-142621000D03*
D13*
%TO.P,D323,2,A*%
%TO.N,/R7_X2*%
X190868480Y-141351000D03*
%TD*%
D42*
%TO.P,D370,1,K*%
%TO.N,/R7_Y7*%
X275741818Y-110885566D03*
D13*
%TO.P,D370,2,A*%
%TO.N,/R7_X1*%
X276526721Y-108469882D03*
%TD*%
D43*
%TO.P,D347,1,K*%
%TO.N,/R7_Y4*%
X282617177Y-242075231D03*
D13*
%TO.P,D347,2,A*%
%TO.N,/R7_X2*%
X283650288Y-244395636D03*
%TD*%
D44*
%TO.P,C6,1*%
%TO.N,VCC*%
X347605063Y-150515000D03*
%TO.P,C6,2*%
%TO.N,GND*%
X343274936Y-153015000D03*
%TD*%
D45*
%TO.P,D65,1,K*%
%TO.N,/R5_Y6*%
X294583139Y-141258778D03*
D13*
%TO.P,D65,2,A*%
%TO.N,/R5_X4*%
X296470727Y-139559186D03*
%TD*%
D46*
%TO.P,D369,1,K*%
%TO.N,/R7_Y7*%
X282617177Y-113524769D03*
D13*
%TO.P,D369,2,A*%
%TO.N,/R7_X0*%
X283650288Y-111204364D03*
%TD*%
D44*
%TO.P,C4,1*%
%TO.N,VCC*%
X233680000Y-271700000D03*
%TO.P,C4,2*%
%TO.N,GND*%
X233680000Y-266700000D03*
%TD*%
D19*
%TO.P,D58,1,K*%
%TO.N,/R5_Y5*%
X308610000Y-177800000D03*
D13*
%TO.P,D58,2,A*%
%TO.N,/R5_X5*%
X311150000Y-177800000D03*
%TD*%
D47*
%TO.P,D336,1,K*%
%TO.N,/R7_Y2*%
X206921309Y-230086184D03*
D13*
%TO.P,D336,2,A*%
%TO.N,/R7_X7*%
X205221717Y-231973772D03*
%TD*%
D48*
%TO.P,D371,1,K*%
%TO.N,/R7_Y7*%
X268628251Y-108979491D03*
D13*
%TO.P,D371,2,A*%
%TO.N,/R7_X2*%
X269156347Y-106494996D03*
%TD*%
D49*
%TO.P,D24,1,K*%
%TO.N,/R5_Y1*%
X204111283Y-155588112D03*
D13*
%TO.P,D24,2,A*%
%TO.N,/R5_X3*%
X201790878Y-154555001D03*
%TD*%
D44*
%TO.P,C7,1*%
%TO.N,VCC*%
X284480000Y-251460000D03*
%TO.P,C7,2*%
%TO.N,GND*%
X284480000Y-256460000D03*
%TD*%
D50*
%TO.P,D35,1,K*%
%TO.N,/R5_Y2*%
X213416861Y-214341222D03*
D13*
%TO.P,D35,2,A*%
%TO.N,/R5_X6*%
X211529273Y-216040814D03*
%TD*%
D51*
%TO.P,D337,1,K*%
%TO.N,/R7_Y3*%
X212644605Y-234720818D03*
D13*
%TO.P,D337,2,A*%
%TO.N,/R7_X0*%
X211151630Y-236775721D03*
%TD*%
D52*
%TO.P,U9,1*%
%TO.N,GND*%
X289560000Y-257810000D03*
D53*
%TO.P,U9,2*%
%TO.N,Net-(J1-Pin_16)*%
X292100000Y-257810000D03*
%TO.P,U9,3*%
%TO.N,/MODE*%
X294640000Y-257810000D03*
%TO.P,U9,4*%
%TO.N,N/C*%
X297180000Y-257810000D03*
%TO.P,U9,5*%
X299720000Y-257810000D03*
%TO.P,U9,6*%
X302260000Y-257810000D03*
%TO.P,U9,7,GND*%
%TO.N,GND*%
X304800000Y-257810000D03*
%TO.P,U9,8*%
%TO.N,N/C*%
X304800000Y-250190000D03*
%TO.P,U9,9*%
X302260000Y-250190000D03*
%TO.P,U9,10*%
X299720000Y-250190000D03*
%TO.P,U9,11*%
X297180000Y-250190000D03*
%TO.P,U9,12*%
X294640000Y-250190000D03*
%TO.P,U9,13*%
X292100000Y-250190000D03*
%TO.P,U9,14,VCC*%
%TO.N,VCC*%
X289560000Y-250190000D03*
%TD*%
D54*
%TO.P,D351,1,K*%
%TO.N,/R7_Y4*%
X306286184Y-224878691D03*
D13*
%TO.P,D351,2,A*%
%TO.N,/R7_X6*%
X308173772Y-226578283D03*
%TD*%
D55*
%TO.P,D11,1,K*%
%TO.N,/R4_X6*%
X307448490Y-146941500D03*
D13*
%TO.P,D11,2,A*%
%TO.N,/R4_Y6*%
X309648195Y-145671500D03*
%TD*%
D44*
%TO.P,C9,1*%
%TO.N,VCC*%
X201295000Y-266780000D03*
%TO.P,C9,2*%
%TO.N,GND*%
X201295000Y-271780000D03*
%TD*%
D56*
%TO.P,D341,1,K*%
%TO.N,/R7_Y3*%
X239371749Y-246620509D03*
D13*
%TO.P,D341,2,A*%
%TO.N,/R7_X4*%
X238843653Y-249105004D03*
%TD*%
D30*
%TO.P,D372,1,K*%
%TO.N,/R7_Y7*%
X261354414Y-107827428D03*
D13*
%TO.P,D372,2,A*%
%TO.N,/R7_X3*%
X261619916Y-105301342D03*
%TD*%
D18*
%TO.P,D34,1,K*%
%TO.N,/R5_Y2*%
X209819582Y-209898953D03*
D13*
%TO.P,D34,2,A*%
%TO.N,/R5_X5*%
X207764679Y-211391928D03*
%TD*%
D57*
%TO.P,D33,1,K*%
%TO.N,/R5_Y2*%
X206706353Y-205105000D03*
D13*
%TO.P,D33,2,A*%
%TO.N,/R5_X4*%
X204506648Y-206375000D03*
%TD*%
D58*
%TO.P,D326,1,K*%
%TO.N,/R7_Y1*%
X185179491Y-163171749D03*
D13*
%TO.P,D326,2,A*%
%TO.N,/R7_X5*%
X182694996Y-162643653D03*
%TD*%
D59*
%TO.P,D55,1,K*%
%TO.N,/R5_Y5*%
X305937196Y-194675418D03*
D13*
%TO.P,D55,2,A*%
%TO.N,/R5_X2*%
X308352880Y-195460321D03*
%TD*%
D60*
%TO.P,D18,1,K*%
%TO.N,/R5_Y0*%
X226695000Y-130506353D03*
D13*
%TO.P,D18,2,A*%
%TO.N,/R5_X5*%
X225425000Y-128306648D03*
%TD*%
D60*
%TO.P,D2,1,K*%
%TO.N,/R7_X5*%
X223141500Y-124351510D03*
D13*
%TO.P,D2,2,A*%
%TO.N,/R7_Y6*%
X221871500Y-122151805D03*
%TD*%
D32*
%TO.P,D321,1,K*%
%TO.N,/R7_Y1*%
X201713816Y-130721309D03*
D13*
%TO.P,D321,2,A*%
%TO.N,/R7_X0*%
X199826228Y-129021717D03*
%TD*%
D61*
%TO.P,D48,1,K*%
%TO.N,/R5_Y4*%
X281305000Y-225093647D03*
D13*
%TO.P,D48,2,A*%
%TO.N,/R5_X3*%
X282575000Y-227293352D03*
%TD*%
D37*
%TO.P,D317,1,K*%
%TO.N,/R7_Y0*%
X225382823Y-113524769D03*
D13*
%TO.P,D317,2,A*%
%TO.N,/R7_X4*%
X224349712Y-111204364D03*
%TD*%
D62*
%TO.P,D25,1,K*%
%TO.N,/R5_Y1*%
X202062804Y-160924582D03*
D13*
%TO.P,D25,2,A*%
%TO.N,/R5_X4*%
X199647120Y-160139679D03*
%TD*%
D34*
%TO.P,D331,1,K*%
%TO.N,/R7_Y2*%
X187085566Y-199541818D03*
D13*
%TO.P,D331,2,A*%
%TO.N,/R7_X2*%
X184669882Y-200326721D03*
%TD*%
D63*
%TO.P,D16,1,K*%
%TO.N,/R5_Y0*%
X237124582Y-125862804D03*
D13*
%TO.P,D16,2,A*%
%TO.N,/R5_X3*%
X236339679Y-123447120D03*
%TD*%
D57*
%TO.P,D5,1,K*%
%TO.N,/R5_X4*%
X200551510Y-208658500D03*
D13*
%TO.P,D5,2,A*%
%TO.N,/R5_Y6*%
X198351805Y-209928500D03*
%TD*%
D44*
%TO.P,C5,1*%
%TO.N,VCC*%
X324370127Y-244435000D03*
%TO.P,C5,2*%
%TO.N,GND*%
X320040000Y-241935000D03*
%TD*%
D29*
%TO.P,D44,1,K*%
%TO.N,/R5_Y3*%
X259708299Y-232110841D03*
D13*
%TO.P,D44,2,A*%
%TO.N,/R5_X7*%
X259973801Y-234636927D03*
%TD*%
D64*
%TO.P,D49,1,K*%
%TO.N,/R5_Y4*%
X286098953Y-221980418D03*
D13*
%TO.P,D49,2,A*%
%TO.N,/R5_X4*%
X287591928Y-224035321D03*
%TD*%
D65*
%TO.P,D12,1,K*%
%TO.N,/R4_X7*%
X284858500Y-124351510D03*
D13*
%TO.P,D12,2,A*%
%TO.N,/R4_Y6*%
X286128500Y-122151805D03*
%TD*%
D41*
%TO.P,D3,1,K*%
%TO.N,/R7_X6*%
X200551510Y-146941500D03*
D13*
%TO.P,D3,2,A*%
%TO.N,/R7_Y6*%
X198351805Y-145671500D03*
%TD*%
D66*
%TO.P,D361,1,K*%
%TO.N,/R7_Y6*%
X320914434Y-156058182D03*
D13*
%TO.P,D361,2,A*%
%TO.N,/R7_X0*%
X323330118Y-155273279D03*
%TD*%
D67*
%TO.P,D354,1,K*%
%TO.N,/R7_Y5*%
X318275231Y-206417177D03*
D13*
%TO.P,D354,2,A*%
%TO.N,/R7_X1*%
X320595636Y-207450288D03*
%TD*%
D68*
%TO.P,D353,1,K*%
%TO.N,/R7_Y5*%
X314931815Y-212979000D03*
D13*
%TO.P,D353,2,A*%
%TO.N,/R7_X0*%
X317131520Y-214249000D03*
%TD*%
D66*
%TO.P,D61,1,K*%
%TO.N,/R5_Y6*%
X305937196Y-160924582D03*
D13*
%TO.P,D61,2,A*%
%TO.N,/R5_X0*%
X308352880Y-160139679D03*
%TD*%
D52*
%TO.P,U8,1,OEa*%
%TO.N,GND*%
X281940000Y-272415000D03*
D53*
%TO.P,U8,2,I0a*%
%TO.N,Net-(J1-Pin_15)*%
X284480000Y-272415000D03*
%TO.P,U8,3,O3b*%
%TO.N,/D7*%
X287020000Y-272415000D03*
%TO.P,U8,4,I1a*%
%TO.N,Net-(J1-Pin_14)*%
X289560000Y-272415000D03*
%TO.P,U8,5,O2b*%
%TO.N,/D6*%
X292100000Y-272415000D03*
%TO.P,U8,6,I2a*%
%TO.N,Net-(J1-Pin_13)*%
X294640000Y-272415000D03*
%TO.P,U8,7,O1b*%
%TO.N,/D5*%
X297180000Y-272415000D03*
%TO.P,U8,8,I3a*%
%TO.N,Net-(J1-Pin_12)*%
X299720000Y-272415000D03*
%TO.P,U8,9,O0b*%
%TO.N,/D4*%
X302260000Y-272415000D03*
%TO.P,U8,10,GND*%
%TO.N,GND*%
X304800000Y-272415000D03*
%TO.P,U8,11,I0b*%
%TO.N,Net-(J1-Pin_9)*%
X304800000Y-264795000D03*
%TO.P,U8,12,O3a*%
%TO.N,/D3*%
X302260000Y-264795000D03*
%TO.P,U8,13,I1b*%
%TO.N,Net-(J1-Pin_8)*%
X299720000Y-264795000D03*
%TO.P,U8,14,O2a*%
%TO.N,/D2*%
X297180000Y-264795000D03*
%TO.P,U8,15,I2b*%
%TO.N,Net-(J1-Pin_7)*%
X294640000Y-264795000D03*
%TO.P,U8,16,O1a*%
%TO.N,/D1*%
X292100000Y-264795000D03*
%TO.P,U8,17,I3b*%
%TO.N,Net-(J1-Pin_6)*%
X289560000Y-264795000D03*
%TO.P,U8,18,O0a*%
%TO.N,/D0*%
X287020000Y-264795000D03*
%TO.P,U8,19,OEb*%
%TO.N,GND*%
X284480000Y-264795000D03*
%TO.P,U8,20,VCC*%
%TO.N,VCC*%
X281940000Y-264795000D03*
%TD*%
D69*
%TO.P,D32,1,K*%
%TO.N,/R5_Y2*%
X204111283Y-200011888D03*
D13*
%TO.P,D32,2,A*%
%TO.N,/R5_X3*%
X201790878Y-201044999D03*
%TD*%
D51*
%TO.P,D37,1,K*%
%TO.N,/R5_Y3*%
X221901047Y-221980418D03*
D13*
%TO.P,D37,2,A*%
%TO.N,/R5_X0*%
X220408072Y-224035321D03*
%TD*%
D52*
%TO.P,U4,1,c*%
%TO.N,/R3_Y2*%
X238760000Y-276860000D03*
D53*
%TO.P,U4,2,e*%
%TO.N,/R3_Y4*%
X241300000Y-276860000D03*
%TO.P,U4,3,b*%
%TO.N,/R3_Y1*%
X243840000Y-276860000D03*
%TO.P,U4,4,dp*%
%TO.N,/R3_Y7*%
X246380000Y-276860000D03*
%TO.P,U4,5,ID6*%
%TO.N,/D6*%
X248920000Y-276860000D03*
%TO.P,U4,6,ID5*%
%TO.N,/D5*%
X251460000Y-276860000D03*
%TO.P,U4,7,ID7*%
%TO.N,/D7*%
X254000000Y-276860000D03*
%TO.P,U4,8,nWR*%
%TO.N,/~{RING3}*%
X256540000Y-276860000D03*
%TO.P,U4,9,MODE*%
%TO.N,/MODE*%
X259080000Y-276860000D03*
%TO.P,U4,10,ID4*%
%TO.N,/D4*%
X261620000Y-276860000D03*
%TO.P,U4,11,ID1*%
%TO.N,/D1*%
X264160000Y-276860000D03*
%TO.P,U4,12,ID0*%
%TO.N,/D0*%
X266700000Y-276860000D03*
%TO.P,U4,13,ID2*%
%TO.N,/D2*%
X269240000Y-276860000D03*
%TO.P,U4,14,ID3*%
%TO.N,/D3*%
X271780000Y-276860000D03*
%TO.P,U4,15,d1*%
%TO.N,/R3_X0*%
X271780000Y-261620000D03*
%TO.P,U4,16,d2*%
%TO.N,/R3_X1*%
X269240000Y-261620000D03*
%TO.P,U4,17,d5*%
%TO.N,/R3_X4*%
X266700000Y-261620000D03*
%TO.P,U4,18,d8*%
%TO.N,/R3_X7*%
X264160000Y-261620000D03*
%TO.P,U4,19,V+*%
%TO.N,VCC*%
X261620000Y-261620000D03*
%TO.P,U4,20,d4*%
%TO.N,/R3_X3*%
X259080000Y-261620000D03*
%TO.P,U4,21,d7*%
%TO.N,/R3_X6*%
X256540000Y-261620000D03*
%TO.P,U4,22,d6*%
%TO.N,/R3_X5*%
X254000000Y-261620000D03*
%TO.P,U4,23,d3*%
%TO.N,/R3_X2*%
X251460000Y-261620000D03*
%TO.P,U4,24,f*%
%TO.N,/R3_Y5*%
X248920000Y-261620000D03*
%TO.P,U4,25,d*%
%TO.N,/R3_Y3*%
X246380000Y-261620000D03*
%TO.P,U4,26,g*%
%TO.N,/R3_Y6*%
X243840000Y-261620000D03*
%TO.P,U4,27,a*%
%TO.N,/R3_Y0*%
X241300000Y-261620000D03*
%TO.P,U4,28,GND*%
%TO.N,GND*%
X238760000Y-261620000D03*
%TD*%
D42*
%TO.P,D70,1,K*%
%TO.N,/R5_Y7*%
X270875418Y-125862804D03*
D13*
%TO.P,D70,2,A*%
%TO.N,/R5_X1*%
X271660321Y-123447120D03*
%TD*%
D58*
%TO.P,D26,1,K*%
%TO.N,/R5_Y1*%
X200583360Y-166445943D03*
D13*
%TO.P,D26,2,A*%
%TO.N,/R5_X5*%
X198098865Y-165917847D03*
%TD*%
D19*
%TO.P,D313,1,K*%
%TO.N,/R7_Y0*%
X254000000Y-107442000D03*
D13*
%TO.P,D313,2,A*%
%TO.N,/R7_X0*%
X254000000Y-104902000D03*
%TD*%
D70*
%TO.P,D67,1,K*%
%TO.N,/R5_Y6*%
X286098953Y-133619582D03*
D13*
%TO.P,D67,2,A*%
%TO.N,/R5_X6*%
X287591928Y-131564679D03*
%TD*%
D31*
%TO.P,D15,1,K*%
%TO.N,/R5_Y0*%
X242645943Y-124383360D03*
D13*
%TO.P,D15,2,A*%
%TO.N,/R5_X2*%
X242117847Y-121898865D03*
%TD*%
D19*
%TO.P,D1,1,K*%
%TO.N,/R7_X4*%
X254000000Y-116083000D03*
D13*
%TO.P,D1,2,A*%
%TO.N,/R7_Y6*%
X254000000Y-113543000D03*
%TD*%
D63*
%TO.P,D316,1,K*%
%TO.N,/R7_Y0*%
X232258182Y-110885566D03*
D13*
%TO.P,D316,2,A*%
%TO.N,/R7_X3*%
X231473279Y-108469882D03*
%TD*%
D71*
%TO.P,D357,1,K*%
%TO.N,/R7_Y5*%
X323972572Y-185154414D03*
D13*
%TO.P,D357,2,A*%
%TO.N,/R7_X4*%
X326498658Y-185419916D03*
%TD*%
D72*
%TO.P,D366,1,K*%
%TO.N,/R7_Y6*%
X301078691Y-125513816D03*
D13*
%TO.P,D366,2,A*%
%TO.N,/R7_X5*%
X302778283Y-123626228D03*
%TD*%
D73*
%TO.P,D64,1,K*%
%TO.N,/R5_Y6*%
X298180418Y-145701047D03*
D13*
%TO.P,D64,2,A*%
%TO.N,/R5_X3*%
X300235321Y-144208072D03*
%TD*%
D74*
%TO.P,D319,1,K*%
%TO.N,/R7_Y0*%
X212644605Y-120879182D03*
D13*
%TO.P,D319,2,A*%
%TO.N,/R7_X6*%
X211151630Y-118824279D03*
%TD*%
D41*
%TO.P,D23,1,K*%
%TO.N,/R5_Y1*%
X206706353Y-150495000D03*
D13*
%TO.P,D23,2,A*%
%TO.N,/R5_X2*%
X204506648Y-149225000D03*
%TD*%
D44*
%TO.P,C3,1*%
%TO.N,VCC*%
X161664936Y-206355000D03*
%TO.P,C3,2*%
%TO.N,GND*%
X165995063Y-203855000D03*
%TD*%
D49*
%TO.P,D324,1,K*%
%TO.N,/R7_Y1*%
X189724769Y-149182823D03*
D13*
%TO.P,D324,2,A*%
%TO.N,/R7_X3*%
X187404364Y-148149712D03*
%TD*%
D72*
%TO.P,D66,1,K*%
%TO.N,/R5_Y6*%
X290541222Y-137216861D03*
D13*
%TO.P,D66,2,A*%
%TO.N,/R5_X5*%
X292240814Y-135329273D03*
%TD*%
D19*
%TO.P,D4,1,K*%
%TO.N,/R7_X7*%
X192283000Y-177800000D03*
D13*
%TO.P,D4,2,A*%
%TO.N,/R7_Y6*%
X189743000Y-177800000D03*
%TD*%
D64*
%TO.P,D349,1,K*%
%TO.N,/R7_Y4*%
X295355395Y-234720818D03*
D13*
%TO.P,D349,2,A*%
%TO.N,/R7_X4*%
X296848370Y-236775721D03*
%TD*%
D70*
%TO.P,D367,1,K*%
%TO.N,/R7_Y6*%
X295355395Y-120879182D03*
D13*
%TO.P,D367,2,A*%
%TO.N,/R7_X6*%
X296848370Y-118824279D03*
%TD*%
D75*
%TO.P,D30,1,K*%
%TO.N,/R5_Y2*%
X200583360Y-189154057D03*
D13*
%TO.P,D30,2,A*%
%TO.N,/R5_X1*%
X198098865Y-189682153D03*
%TD*%
D36*
%TO.P,D42,1,K*%
%TO.N,/R5_Y3*%
X248291701Y-232110841D03*
D13*
%TO.P,D42,2,A*%
%TO.N,/R5_X5*%
X248026199Y-234636927D03*
%TD*%
D76*
%TO.P,D320,1,K*%
%TO.N,/R7_Y0*%
X206921309Y-125513816D03*
D13*
%TO.P,D320,2,A*%
%TO.N,/R7_X7*%
X205221717Y-123626228D03*
%TD*%
D75*
%TO.P,D330,1,K*%
%TO.N,/R7_Y2*%
X185179491Y-192428251D03*
D13*
%TO.P,D330,2,A*%
%TO.N,/R7_X1*%
X182694996Y-192956347D03*
%TD*%
D61*
%TO.P,D8,1,K*%
%TO.N,/R5_X7*%
X284858500Y-231248490D03*
D13*
%TO.P,D8,2,A*%
%TO.N,/R5_Y6*%
X286128500Y-233448195D03*
%TD*%
D16*
%TO.P,D362,1,K*%
%TO.N,/R7_Y6*%
X318275231Y-149182823D03*
D13*
%TO.P,D362,2,A*%
%TO.N,/R7_X1*%
X320595636Y-148149712D03*
%TD*%
D50*
%TO.P,D335,1,K*%
%TO.N,/R7_Y2*%
X201713816Y-224878691D03*
D13*
%TO.P,D335,2,A*%
%TO.N,/R7_X6*%
X199826228Y-226578283D03*
%TD*%
D59*
%TO.P,D355,1,K*%
%TO.N,/R7_Y5*%
X320914434Y-199541818D03*
D13*
%TO.P,D355,2,A*%
%TO.N,/R7_X2*%
X323330118Y-200326721D03*
%TD*%
D47*
%TO.P,D36,1,K*%
%TO.N,/R5_Y2*%
X217458778Y-218383139D03*
D13*
%TO.P,D36,2,A*%
%TO.N,/R5_X7*%
X215759186Y-220270727D03*
%TD*%
D74*
%TO.P,D19,1,K*%
%TO.N,/R5_Y0*%
X221901047Y-133619582D03*
D13*
%TO.P,D19,2,A*%
%TO.N,/R5_X6*%
X220408072Y-131564679D03*
%TD*%
D76*
%TO.P,D20,1,K*%
%TO.N,/R5_Y0*%
X217458778Y-137216861D03*
D13*
%TO.P,D20,2,A*%
%TO.N,/R5_X7*%
X215759186Y-135329273D03*
%TD*%
D19*
%TO.P,D43,1,K*%
%TO.N,/R5_Y3*%
X254000000Y-232410000D03*
D13*
%TO.P,D43,2,A*%
%TO.N,/R5_X6*%
X254000000Y-234950000D03*
%TD*%
D61*
%TO.P,D348,1,K*%
%TO.N,/R7_Y4*%
X289179000Y-238731815D03*
D13*
%TO.P,D348,2,A*%
%TO.N,/R7_X3*%
X290449000Y-240931520D03*
%TD*%
D55*
%TO.P,D63,1,K*%
%TO.N,/R5_Y6*%
X301293647Y-150495000D03*
D13*
%TO.P,D63,2,A*%
%TO.N,/R5_X2*%
X303493352Y-149225000D03*
%TD*%
D60*
%TO.P,D318,1,K*%
%TO.N,/R7_Y0*%
X218821000Y-116868185D03*
D13*
%TO.P,D318,2,A*%
%TO.N,/R7_X5*%
X217551000Y-114668480D03*
%TD*%
D14*
%TO.P,D52,1,K*%
%TO.N,/R5_Y4*%
X298180418Y-209898953D03*
D13*
%TO.P,D52,2,A*%
%TO.N,/R5_X7*%
X300235321Y-211391928D03*
%TD*%
D40*
%TO.P,D6,1,K*%
%TO.N,/R5_X5*%
X223141500Y-231248490D03*
D13*
%TO.P,D6,2,A*%
%TO.N,/R5_Y6*%
X221871500Y-233448195D03*
%TD*%
D15*
%TO.P,D345,1,K*%
%TO.N,/R7_Y4*%
X268628251Y-246620509D03*
D13*
%TO.P,D345,2,A*%
%TO.N,/R7_X0*%
X269156347Y-249105004D03*
%TD*%
D17*
%TO.P,D314,1,K*%
%TO.N,/R7_Y0*%
X246645586Y-107827428D03*
D13*
%TO.P,D314,2,A*%
%TO.N,/R7_X1*%
X246380084Y-105301342D03*
%TD*%
D68*
%TO.P,D9,1,K*%
%TO.N,/R4_X4*%
X307448490Y-208658500D03*
D13*
%TO.P,D9,2,A*%
%TO.N,/R4_Y6*%
X309648195Y-209928500D03*
%TD*%
D25*
%TO.P,D56,1,K*%
%TO.N,/R5_Y5*%
X307416640Y-189154057D03*
D13*
%TO.P,D56,2,A*%
%TO.N,/R5_X3*%
X309901135Y-189682153D03*
%TD*%
D12*
%TO.P,D59,1,K*%
%TO.N,/R5_Y5*%
X308310841Y-172091701D03*
D13*
%TO.P,D59,2,A*%
%TO.N,/R5_X6*%
X310836927Y-171826199D03*
%TD*%
D77*
%TO.P,U2,1,c*%
%TO.N,/R5_Y2*%
X175831524Y-115071773D03*
D78*
%TO.P,U2,2,e*%
%TO.N,/R5_Y4*%
X174561524Y-117271478D03*
%TO.P,U2,3,b*%
%TO.N,/R5_Y1*%
X173291524Y-119471182D03*
%TO.P,U2,4,dp*%
%TO.N,/R5_Y7*%
X172021524Y-121670887D03*
%TO.P,U2,5,ID6*%
%TO.N,/D6*%
X170751524Y-123870591D03*
%TO.P,U2,6,ID5*%
%TO.N,/D5*%
X169481524Y-126070296D03*
%TO.P,U2,7,ID7*%
%TO.N,/D7*%
X168211524Y-128270000D03*
%TO.P,U2,8,nWR*%
%TO.N,/~{RING5}*%
X166941524Y-130469705D03*
%TO.P,U2,9,MODE*%
%TO.N,/MODE*%
X165671524Y-132669409D03*
%TO.P,U2,10,ID4*%
%TO.N,/D4*%
X164401524Y-134869114D03*
%TO.P,U2,11,ID1*%
%TO.N,/D1*%
X163131524Y-137068818D03*
%TO.P,U2,12,ID0*%
%TO.N,/D0*%
X161861524Y-139268523D03*
%TO.P,U2,13,ID2*%
%TO.N,/D2*%
X160591524Y-141468227D03*
%TO.P,U2,14,ID3*%
%TO.N,/D3*%
X159321524Y-143667932D03*
%TO.P,U2,15,d1*%
%TO.N,/R5_X0*%
X172519751Y-151287932D03*
%TO.P,U2,16,d2*%
%TO.N,/R5_X1*%
X173789751Y-149088227D03*
%TO.P,U2,17,d5*%
%TO.N,/R5_X4*%
X175059751Y-146888523D03*
%TO.P,U2,18,d8*%
%TO.N,/R5_X7*%
X176329751Y-144688818D03*
%TO.P,U2,19,V+*%
%TO.N,VCC*%
X177599751Y-142489114D03*
%TO.P,U2,20,d4*%
%TO.N,/R5_X3*%
X178869751Y-140289409D03*
%TO.P,U2,21,d7*%
%TO.N,/R5_X6*%
X180139751Y-138089705D03*
%TO.P,U2,22,d6*%
%TO.N,/R5_X5*%
X181409751Y-135890000D03*
%TO.P,U2,23,d3*%
%TO.N,/R5_X2*%
X182679751Y-133690296D03*
%TO.P,U2,24,f*%
%TO.N,/R5_Y5*%
X183949751Y-131490591D03*
%TO.P,U2,25,d*%
%TO.N,/R5_Y3*%
X185219751Y-129290887D03*
%TO.P,U2,26,g*%
%TO.N,/R5_Y6*%
X186489751Y-127091182D03*
%TO.P,U2,27,a*%
%TO.N,/R5_Y0*%
X187759751Y-124891478D03*
%TO.P,U2,28,GND*%
%TO.N,GND*%
X189029751Y-122691773D03*
%TD*%
D19*
%TO.P,D7,1,K*%
%TO.N,/R5_X6*%
X254000000Y-239517000D03*
D13*
%TO.P,D7,2,A*%
%TO.N,/R5_Y6*%
X254000000Y-242057000D03*
%TD*%
D79*
%TO.P,D360,1,K*%
%TO.N,/R7_Y5*%
X322820509Y-163171749D03*
D13*
%TO.P,D360,2,A*%
%TO.N,/R7_X7*%
X325305004Y-162643653D03*
%TD*%
D65*
%TO.P,D368,1,K*%
%TO.N,/R7_Y6*%
X289179000Y-116868185D03*
D13*
%TO.P,D368,2,A*%
%TO.N,/R7_X7*%
X290449000Y-114668480D03*
%TD*%
D19*
%TO.P,D10,1,K*%
%TO.N,/R4_X5*%
X315717000Y-177800000D03*
D13*
%TO.P,D10,2,A*%
%TO.N,/R4_Y6*%
X318257000Y-177800000D03*
%TD*%
D73*
%TO.P,D364,1,K*%
%TO.N,/R7_Y6*%
X310920818Y-136444605D03*
D13*
%TO.P,D364,2,A*%
%TO.N,/R7_X3*%
X312975721Y-134951630D03*
%TD*%
D80*
%TO.P,C10,1*%
%TO.N,VCC*%
X277400000Y-282575000D03*
D44*
%TO.P,C10,2*%
%TO.N,GND*%
X279400000Y-282575000D03*
%TD*%
D71*
%TO.P,D57,1,K*%
%TO.N,/R5_Y5*%
X308310841Y-183508299D03*
D13*
%TO.P,D57,2,A*%
%TO.N,/R5_X4*%
X310836927Y-183773801D03*
%TD*%
D33*
%TO.P,D327,1,K*%
%TO.N,/R7_Y1*%
X184027428Y-170445586D03*
D13*
%TO.P,D327,2,A*%
%TO.N,/R7_X6*%
X181501342Y-170180084D03*
%TD*%
D44*
%TO.P,C8,1*%
%TO.N,VCC*%
X277495000Y-266145000D03*
%TO.P,C8,2*%
%TO.N,GND*%
X277495000Y-271145000D03*
%TD*%
D54*
%TO.P,D51,1,K*%
%TO.N,/R5_Y4*%
X294583139Y-214341222D03*
D13*
%TO.P,D51,2,A*%
%TO.N,/R5_X6*%
X296470727Y-216040814D03*
%TD*%
D56*
%TO.P,D41,1,K*%
%TO.N,/R5_Y3*%
X242645943Y-231216640D03*
D13*
%TO.P,D41,2,A*%
%TO.N,/R5_X4*%
X242117847Y-233701135D03*
%TD*%
D40*
%TO.P,D338,1,K*%
%TO.N,/R7_Y3*%
X218821000Y-238731815D03*
D13*
%TO.P,D338,2,A*%
%TO.N,/R7_X1*%
X217551000Y-240931520D03*
%TD*%
D57*
%TO.P,D333,1,K*%
%TO.N,/R7_Y2*%
X193068185Y-212979000D03*
D13*
%TO.P,D333,2,A*%
%TO.N,/R7_X4*%
X190868480Y-214249000D03*
%TD*%
D43*
%TO.P,D47,1,K*%
%TO.N,/R5_Y4*%
X276211888Y-227688717D03*
D13*
%TO.P,D47,2,A*%
%TO.N,/R5_X2*%
X277244999Y-230009122D03*
%TD*%
D45*
%TO.P,D365,1,K*%
%TO.N,/R7_Y6*%
X306286184Y-130721309D03*
D13*
%TO.P,D365,2,A*%
%TO.N,/R7_X4*%
X308173772Y-129021717D03*
%TD*%
D24*
%TO.P,D46,1,K*%
%TO.N,/R5_Y4*%
X270875418Y-229737196D03*
D13*
%TO.P,D46,2,A*%
%TO.N,/R5_X1*%
X271660321Y-232152880D03*
%TD*%
D19*
%TO.P,D343,1,K*%
%TO.N,/R7_Y3*%
X254000000Y-248158000D03*
D13*
%TO.P,D343,2,A*%
%TO.N,/R7_X6*%
X254000000Y-250698000D03*
%TD*%
D48*
%TO.P,D71,1,K*%
%TO.N,/R5_Y7*%
X265354057Y-124383360D03*
D13*
%TO.P,D71,2,A*%
%TO.N,/R5_X2*%
X265882153Y-121898865D03*
%TD*%
D81*
%TO.P,D39,1,K*%
%TO.N,/R5_Y3*%
X231788112Y-227688717D03*
D13*
%TO.P,D39,2,A*%
%TO.N,/R5_X2*%
X230755001Y-230009122D03*
%TD*%
D82*
%TO.P,U1,1,c*%
%TO.N,/R7_Y2*%
X269240000Y-78740000D03*
D53*
%TO.P,U1,2,e*%
%TO.N,/R7_Y4*%
X266700000Y-78740000D03*
%TO.P,U1,3,b*%
%TO.N,/R7_Y1*%
X264160000Y-78740000D03*
%TO.P,U1,4,dp*%
%TO.N,/R7_Y7*%
X261620000Y-78740000D03*
%TO.P,U1,5,ID6*%
%TO.N,/D6*%
X259080000Y-78740000D03*
%TO.P,U1,6,ID5*%
%TO.N,/D5*%
X256540000Y-78740000D03*
%TO.P,U1,7,ID7*%
%TO.N,/D7*%
X254000000Y-78740000D03*
%TO.P,U1,8,nWR*%
%TO.N,/~{RING7}*%
X251460000Y-78740000D03*
%TO.P,U1,9,MODE*%
%TO.N,/MODE*%
X248920000Y-78740000D03*
%TO.P,U1,10,ID4*%
%TO.N,/D4*%
X246380000Y-78740000D03*
%TO.P,U1,11,ID1*%
%TO.N,/D1*%
X243840000Y-78740000D03*
%TO.P,U1,12,ID0*%
%TO.N,/D0*%
X241300000Y-78740000D03*
%TO.P,U1,13,ID2*%
%TO.N,/D2*%
X238760000Y-78740000D03*
%TO.P,U1,14,ID3*%
%TO.N,/D3*%
X236220000Y-78740000D03*
%TO.P,U1,15,d1*%
%TO.N,/R7_X0*%
X236220000Y-93980000D03*
%TO.P,U1,16,d2*%
%TO.N,/R7_X1*%
X238760000Y-93980000D03*
%TO.P,U1,17,d5*%
%TO.N,/R7_X4*%
X241300000Y-93980000D03*
%TO.P,U1,18,d8*%
%TO.N,/R7_X7*%
X243840000Y-93980000D03*
%TO.P,U1,19,V+*%
%TO.N,VCC*%
X246380000Y-93980000D03*
%TO.P,U1,20,d4*%
%TO.N,/R7_X3*%
X248920000Y-93980000D03*
%TO.P,U1,21,d7*%
%TO.N,/R7_X6*%
X251460000Y-93980000D03*
%TO.P,U1,22,d6*%
%TO.N,/R7_X5*%
X254000000Y-93980000D03*
%TO.P,U1,23,d3*%
%TO.N,/R7_X2*%
X256540000Y-93980000D03*
%TO.P,U1,24,f*%
%TO.N,/R7_Y5*%
X259080000Y-93980000D03*
%TO.P,U1,25,d*%
%TO.N,/R7_Y3*%
X261620000Y-93980000D03*
%TO.P,U1,26,g*%
%TO.N,/R7_Y6*%
X264160000Y-93980000D03*
%TO.P,U1,27,a*%
%TO.N,/R7_Y0*%
X266700000Y-93980000D03*
%TO.P,U1,28,GND*%
%TO.N,GND*%
X269240000Y-93980000D03*
%TD*%
D52*
%TO.P,U7,1,A0*%
%TO.N,/A0*%
X207010000Y-273050000D03*
D53*
%TO.P,U7,2,A1*%
%TO.N,/A1*%
X209550000Y-273050000D03*
%TO.P,U7,3,A2*%
%TO.N,/A2*%
X212090000Y-273050000D03*
%TO.P,U7,4,~{E0}*%
%TO.N,/~{WR}*%
X214630000Y-273050000D03*
%TO.P,U7,5,~{E1}*%
%TO.N,GND*%
X217170000Y-273050000D03*
%TO.P,U7,6,E2*%
%TO.N,VCC*%
X219710000Y-273050000D03*
%TO.P,U7,7,~{Y7}*%
%TO.N,unconnected-(U7-~{Y7}-Pad7)*%
X222250000Y-273050000D03*
%TO.P,U7,8,GND*%
%TO.N,GND*%
X224790000Y-273050000D03*
%TO.P,U7,9,~{Y6}*%
%TO.N,unconnected-(U7-~{Y6}-Pad9)*%
X224790000Y-265430000D03*
%TO.P,U7,10,~{Y5}*%
%TO.N,/~{RING7}*%
X222250000Y-265430000D03*
%TO.P,U7,11,~{Y4}*%
%TO.N,/~{RING5}*%
X219710000Y-265430000D03*
%TO.P,U7,12,~{Y3}*%
%TO.N,/~{RING4}*%
X217170000Y-265430000D03*
%TO.P,U7,13,~{Y2}*%
%TO.N,/~{RING3}*%
X214630000Y-265430000D03*
%TO.P,U7,14,~{Y1}*%
%TO.N,/~{RING2}*%
X212090000Y-265430000D03*
%TO.P,U7,15,~{Y0}*%
%TO.N,/~{RING1}*%
X209550000Y-265430000D03*
%TO.P,U7,16,VCC*%
%TO.N,VCC*%
X207010000Y-265430000D03*
%TD*%
D69*
%TO.P,D332,1,K*%
%TO.N,/R7_Y2*%
X189724769Y-206417177D03*
D13*
%TO.P,D332,2,A*%
%TO.N,/R7_X3*%
X187404364Y-207450288D03*
%TD*%
D55*
%TO.P,D363,1,K*%
%TO.N,/R7_Y6*%
X314931815Y-142621000D03*
D13*
%TO.P,D363,2,A*%
%TO.N,/R7_X2*%
X317131520Y-141351000D03*
%TD*%
D81*
%TO.P,D339,1,K*%
%TO.N,/R7_Y3*%
X225382823Y-242075231D03*
D13*
%TO.P,D339,2,A*%
%TO.N,/R7_X2*%
X224349712Y-244395636D03*
%TD*%
D62*
%TO.P,D325,1,K*%
%TO.N,/R7_Y1*%
X187085566Y-156058182D03*
D13*
%TO.P,D325,2,A*%
%TO.N,/R7_X4*%
X184669882Y-155273279D03*
%TD*%
D44*
%TO.P,C1,1*%
%TO.N,VCC*%
X274955000Y-83900000D03*
%TO.P,C1,2*%
%TO.N,GND*%
X274955000Y-88900000D03*
%TD*%
D65*
%TO.P,D68,1,K*%
%TO.N,/R5_Y6*%
X281305000Y-130506353D03*
D13*
%TO.P,D68,2,A*%
%TO.N,/R5_X7*%
X282575000Y-128306648D03*
%TD*%
D67*
%TO.P,D54,1,K*%
%TO.N,/R5_Y5*%
X303888717Y-200011888D03*
D13*
%TO.P,D54,2,A*%
%TO.N,/R5_X1*%
X306209122Y-201044999D03*
%TD*%
D46*
%TO.P,D69,1,K*%
%TO.N,/R5_Y7*%
X276211888Y-127911283D03*
D13*
%TO.P,D69,2,A*%
%TO.N,/R5_X0*%
X277244999Y-125590878D03*
%TD*%
D19*
%TO.P,D328,1,K*%
%TO.N,/R7_Y1*%
X183642000Y-177800000D03*
D13*
%TO.P,D328,2,A*%
%TO.N,/R7_X7*%
X181102000Y-177800000D03*
%TD*%
D22*
%TO.P,D329,1,K*%
%TO.N,/R7_Y2*%
X184027428Y-185154414D03*
D13*
%TO.P,D329,2,A*%
%TO.N,/R7_X0*%
X181501342Y-185419916D03*
%TD*%
D19*
%TO.P,D358,1,K*%
%TO.N,/R7_Y5*%
X324358000Y-177800000D03*
D13*
%TO.P,D358,2,A*%
%TO.N,/R7_X5*%
X326898000Y-177800000D03*
%TD*%
D35*
%TO.P,D340,1,K*%
%TO.N,/R7_Y3*%
X232258182Y-244714434D03*
D13*
%TO.P,D340,2,A*%
%TO.N,/R7_X3*%
X231473279Y-247130118D03*
%TD*%
D79*
%TO.P,D60,1,K*%
%TO.N,/R5_Y5*%
X307416640Y-166445943D03*
D13*
%TO.P,D60,2,A*%
%TO.N,/R5_X7*%
X309901135Y-165917847D03*
%TD*%
D44*
%TO.P,C2,1*%
%TO.N,VCC*%
X184150000Y-111760000D03*
%TO.P,C2,2*%
%TO.N,GND*%
X188480127Y-114260000D03*
%TD*%
D68*
%TO.P,D53,1,K*%
%TO.N,/R5_Y5*%
X301293647Y-205105000D03*
D13*
%TO.P,D53,2,A*%
%TO.N,/R5_X0*%
X303493352Y-206375000D03*
%TD*%
D28*
%TO.P,D322,1,K*%
%TO.N,/R7_Y1*%
X197079182Y-136444605D03*
D13*
%TO.P,D322,2,A*%
%TO.N,/R7_X1*%
X195024279Y-134951630D03*
%TD*%
M02*
