%TF.GenerationSoftware,KiCad,Pcbnew,9.0.7-9.0.7~ubuntu24.04.1*%
%TF.CreationDate,2026-01-21T08:03:13-05:00*%
%TF.ProjectId,LED_clock,4c45445f-636c-46f6-936b-2e6b69636164,rev?*%
%TF.SameCoordinates,Original*%
%TF.FileFunction,Legend,Bot*%
%TF.FilePolarity,Positive*%
%FSLAX46Y46*%
G04 Gerber Fmt 4.6, Leading zero omitted, Abs format (unit mm)*
G04 Created by KiCad (PCBNEW 9.0.7-9.0.7~ubuntu24.04.1) date 2026-01-21 08:03:13*
%MOMM*%
%LPD*%
G01*
G04 APERTURE LIST*
%ADD10C,0.150000*%
%ADD11C,0.120000*%
G04 APERTURE END LIST*
D10*
X223686666Y-194089580D02*
X223734285Y-194137200D01*
X223734285Y-194137200D02*
X223877142Y-194184819D01*
X223877142Y-194184819D02*
X223972380Y-194184819D01*
X223972380Y-194184819D02*
X224115237Y-194137200D01*
X224115237Y-194137200D02*
X224210475Y-194041961D01*
X224210475Y-194041961D02*
X224258094Y-193946723D01*
X224258094Y-193946723D02*
X224305713Y-193756247D01*
X224305713Y-193756247D02*
X224305713Y-193613390D01*
X224305713Y-193613390D02*
X224258094Y-193422914D01*
X224258094Y-193422914D02*
X224210475Y-193327676D01*
X224210475Y-193327676D02*
X224115237Y-193232438D01*
X224115237Y-193232438D02*
X223972380Y-193184819D01*
X223972380Y-193184819D02*
X223877142Y-193184819D01*
X223877142Y-193184819D02*
X223734285Y-193232438D01*
X223734285Y-193232438D02*
X223686666Y-193280057D01*
X223210475Y-194184819D02*
X223019999Y-194184819D01*
X223019999Y-194184819D02*
X222924761Y-194137200D01*
X222924761Y-194137200D02*
X222877142Y-194089580D01*
X222877142Y-194089580D02*
X222781904Y-193946723D01*
X222781904Y-193946723D02*
X222734285Y-193756247D01*
X222734285Y-193756247D02*
X222734285Y-193375295D01*
X222734285Y-193375295D02*
X222781904Y-193280057D01*
X222781904Y-193280057D02*
X222829523Y-193232438D01*
X222829523Y-193232438D02*
X222924761Y-193184819D01*
X222924761Y-193184819D02*
X223115237Y-193184819D01*
X223115237Y-193184819D02*
X223210475Y-193232438D01*
X223210475Y-193232438D02*
X223258094Y-193280057D01*
X223258094Y-193280057D02*
X223305713Y-193375295D01*
X223305713Y-193375295D02*
X223305713Y-193613390D01*
X223305713Y-193613390D02*
X223258094Y-193708628D01*
X223258094Y-193708628D02*
X223210475Y-193756247D01*
X223210475Y-193756247D02*
X223115237Y-193803866D01*
X223115237Y-193803866D02*
X222924761Y-193803866D01*
X222924761Y-193803866D02*
X222829523Y-193756247D01*
X222829523Y-193756247D02*
X222781904Y-193708628D01*
X222781904Y-193708628D02*
X222734285Y-193613390D01*
X284939166Y-158529580D02*
X284986785Y-158577200D01*
X284986785Y-158577200D02*
X285129642Y-158624819D01*
X285129642Y-158624819D02*
X285224880Y-158624819D01*
X285224880Y-158624819D02*
X285367737Y-158577200D01*
X285367737Y-158577200D02*
X285462975Y-158481961D01*
X285462975Y-158481961D02*
X285510594Y-158386723D01*
X285510594Y-158386723D02*
X285558213Y-158196247D01*
X285558213Y-158196247D02*
X285558213Y-158053390D01*
X285558213Y-158053390D02*
X285510594Y-157862914D01*
X285510594Y-157862914D02*
X285462975Y-157767676D01*
X285462975Y-157767676D02*
X285367737Y-157672438D01*
X285367737Y-157672438D02*
X285224880Y-157624819D01*
X285224880Y-157624819D02*
X285129642Y-157624819D01*
X285129642Y-157624819D02*
X284986785Y-157672438D01*
X284986785Y-157672438D02*
X284939166Y-157720057D01*
X284367737Y-158053390D02*
X284462975Y-158005771D01*
X284462975Y-158005771D02*
X284510594Y-157958152D01*
X284510594Y-157958152D02*
X284558213Y-157862914D01*
X284558213Y-157862914D02*
X284558213Y-157815295D01*
X284558213Y-157815295D02*
X284510594Y-157720057D01*
X284510594Y-157720057D02*
X284462975Y-157672438D01*
X284462975Y-157672438D02*
X284367737Y-157624819D01*
X284367737Y-157624819D02*
X284177261Y-157624819D01*
X284177261Y-157624819D02*
X284082023Y-157672438D01*
X284082023Y-157672438D02*
X284034404Y-157720057D01*
X284034404Y-157720057D02*
X283986785Y-157815295D01*
X283986785Y-157815295D02*
X283986785Y-157862914D01*
X283986785Y-157862914D02*
X284034404Y-157958152D01*
X284034404Y-157958152D02*
X284082023Y-158005771D01*
X284082023Y-158005771D02*
X284177261Y-158053390D01*
X284177261Y-158053390D02*
X284367737Y-158053390D01*
X284367737Y-158053390D02*
X284462975Y-158101009D01*
X284462975Y-158101009D02*
X284510594Y-158148628D01*
X284510594Y-158148628D02*
X284558213Y-158243866D01*
X284558213Y-158243866D02*
X284558213Y-158434342D01*
X284558213Y-158434342D02*
X284510594Y-158529580D01*
X284510594Y-158529580D02*
X284462975Y-158577200D01*
X284462975Y-158577200D02*
X284367737Y-158624819D01*
X284367737Y-158624819D02*
X284177261Y-158624819D01*
X284177261Y-158624819D02*
X284082023Y-158577200D01*
X284082023Y-158577200D02*
X284034404Y-158529580D01*
X284034404Y-158529580D02*
X283986785Y-158434342D01*
X283986785Y-158434342D02*
X283986785Y-158243866D01*
X283986785Y-158243866D02*
X284034404Y-158148628D01*
X284034404Y-158148628D02*
X284082023Y-158101009D01*
X284082023Y-158101009D02*
X284177261Y-158053390D01*
X223686666Y-158529580D02*
X223734285Y-158577200D01*
X223734285Y-158577200D02*
X223877142Y-158624819D01*
X223877142Y-158624819D02*
X223972380Y-158624819D01*
X223972380Y-158624819D02*
X224115237Y-158577200D01*
X224115237Y-158577200D02*
X224210475Y-158481961D01*
X224210475Y-158481961D02*
X224258094Y-158386723D01*
X224258094Y-158386723D02*
X224305713Y-158196247D01*
X224305713Y-158196247D02*
X224305713Y-158053390D01*
X224305713Y-158053390D02*
X224258094Y-157862914D01*
X224258094Y-157862914D02*
X224210475Y-157767676D01*
X224210475Y-157767676D02*
X224115237Y-157672438D01*
X224115237Y-157672438D02*
X223972380Y-157624819D01*
X223972380Y-157624819D02*
X223877142Y-157624819D01*
X223877142Y-157624819D02*
X223734285Y-157672438D01*
X223734285Y-157672438D02*
X223686666Y-157720057D01*
X223353332Y-157624819D02*
X222686666Y-157624819D01*
X222686666Y-157624819D02*
X223115237Y-158624819D01*
X253874166Y-140749580D02*
X253921785Y-140797200D01*
X253921785Y-140797200D02*
X254064642Y-140844819D01*
X254064642Y-140844819D02*
X254159880Y-140844819D01*
X254159880Y-140844819D02*
X254302737Y-140797200D01*
X254302737Y-140797200D02*
X254397975Y-140701961D01*
X254397975Y-140701961D02*
X254445594Y-140606723D01*
X254445594Y-140606723D02*
X254493213Y-140416247D01*
X254493213Y-140416247D02*
X254493213Y-140273390D01*
X254493213Y-140273390D02*
X254445594Y-140082914D01*
X254445594Y-140082914D02*
X254397975Y-139987676D01*
X254397975Y-139987676D02*
X254302737Y-139892438D01*
X254302737Y-139892438D02*
X254159880Y-139844819D01*
X254159880Y-139844819D02*
X254064642Y-139844819D01*
X254064642Y-139844819D02*
X253921785Y-139892438D01*
X253921785Y-139892438D02*
X253874166Y-139940057D01*
X252969404Y-139844819D02*
X253445594Y-139844819D01*
X253445594Y-139844819D02*
X253493213Y-140321009D01*
X253493213Y-140321009D02*
X253445594Y-140273390D01*
X253445594Y-140273390D02*
X253350356Y-140225771D01*
X253350356Y-140225771D02*
X253112261Y-140225771D01*
X253112261Y-140225771D02*
X253017023Y-140273390D01*
X253017023Y-140273390D02*
X252969404Y-140321009D01*
X252969404Y-140321009D02*
X252921785Y-140416247D01*
X252921785Y-140416247D02*
X252921785Y-140654342D01*
X252921785Y-140654342D02*
X252969404Y-140749580D01*
X252969404Y-140749580D02*
X253017023Y-140797200D01*
X253017023Y-140797200D02*
X253112261Y-140844819D01*
X253112261Y-140844819D02*
X253350356Y-140844819D01*
X253350356Y-140844819D02*
X253445594Y-140797200D01*
X253445594Y-140797200D02*
X253493213Y-140749580D01*
X254459166Y-211869580D02*
X254506785Y-211917200D01*
X254506785Y-211917200D02*
X254649642Y-211964819D01*
X254649642Y-211964819D02*
X254744880Y-211964819D01*
X254744880Y-211964819D02*
X254887737Y-211917200D01*
X254887737Y-211917200D02*
X254982975Y-211821961D01*
X254982975Y-211821961D02*
X255030594Y-211726723D01*
X255030594Y-211726723D02*
X255078213Y-211536247D01*
X255078213Y-211536247D02*
X255078213Y-211393390D01*
X255078213Y-211393390D02*
X255030594Y-211202914D01*
X255030594Y-211202914D02*
X254982975Y-211107676D01*
X254982975Y-211107676D02*
X254887737Y-211012438D01*
X254887737Y-211012438D02*
X254744880Y-210964819D01*
X254744880Y-210964819D02*
X254649642Y-210964819D01*
X254649642Y-210964819D02*
X254506785Y-211012438D01*
X254506785Y-211012438D02*
X254459166Y-211060057D01*
X253602023Y-211298152D02*
X253602023Y-211964819D01*
X253840118Y-210917200D02*
X254078213Y-211631485D01*
X254078213Y-211631485D02*
X253459166Y-211631485D01*
X284939166Y-194089580D02*
X284986785Y-194137200D01*
X284986785Y-194137200D02*
X285129642Y-194184819D01*
X285129642Y-194184819D02*
X285224880Y-194184819D01*
X285224880Y-194184819D02*
X285367737Y-194137200D01*
X285367737Y-194137200D02*
X285462975Y-194041961D01*
X285462975Y-194041961D02*
X285510594Y-193946723D01*
X285510594Y-193946723D02*
X285558213Y-193756247D01*
X285558213Y-193756247D02*
X285558213Y-193613390D01*
X285558213Y-193613390D02*
X285510594Y-193422914D01*
X285510594Y-193422914D02*
X285462975Y-193327676D01*
X285462975Y-193327676D02*
X285367737Y-193232438D01*
X285367737Y-193232438D02*
X285224880Y-193184819D01*
X285224880Y-193184819D02*
X285129642Y-193184819D01*
X285129642Y-193184819D02*
X284986785Y-193232438D01*
X284986785Y-193232438D02*
X284939166Y-193280057D01*
X284605832Y-193184819D02*
X283986785Y-193184819D01*
X283986785Y-193184819D02*
X284320118Y-193565771D01*
X284320118Y-193565771D02*
X284177261Y-193565771D01*
X284177261Y-193565771D02*
X284082023Y-193613390D01*
X284082023Y-193613390D02*
X284034404Y-193661009D01*
X284034404Y-193661009D02*
X283986785Y-193756247D01*
X283986785Y-193756247D02*
X283986785Y-193994342D01*
X283986785Y-193994342D02*
X284034404Y-194089580D01*
X284034404Y-194089580D02*
X284082023Y-194137200D01*
X284082023Y-194137200D02*
X284177261Y-194184819D01*
X284177261Y-194184819D02*
X284462975Y-194184819D01*
X284462975Y-194184819D02*
X284558213Y-194137200D01*
X284558213Y-194137200D02*
X284605832Y-194089580D01*
X265994819Y-192706666D02*
X266709104Y-192706666D01*
X266709104Y-192706666D02*
X266851961Y-192659047D01*
X266851961Y-192659047D02*
X266947200Y-192563809D01*
X266947200Y-192563809D02*
X266994819Y-192420952D01*
X266994819Y-192420952D02*
X266994819Y-192325714D01*
X266994819Y-193706666D02*
X266994819Y-193135238D01*
X266994819Y-193420952D02*
X265994819Y-193420952D01*
X265994819Y-193420952D02*
X266137676Y-193325714D01*
X266137676Y-193325714D02*
X266232914Y-193230476D01*
X266232914Y-193230476D02*
X266280533Y-193135238D01*
D11*
%TO.C,C9*%
X224231252Y-196490000D02*
X222808748Y-196490000D01*
X224231252Y-194670000D02*
X222808748Y-194670000D01*
%TO.C,C8*%
X285483752Y-159110000D02*
X284061248Y-159110000D01*
X285483752Y-160930000D02*
X284061248Y-160930000D01*
%TO.C,C7*%
X224231252Y-159110000D02*
X222808748Y-159110000D01*
X224231252Y-160930000D02*
X222808748Y-160930000D01*
%TO.C,C5*%
X254418752Y-141330000D02*
X252996248Y-141330000D01*
X254418752Y-143150000D02*
X252996248Y-143150000D01*
%TO.C,C4*%
X255003752Y-212450000D02*
X253581248Y-212450000D01*
X255003752Y-214270000D02*
X253581248Y-214270000D01*
%TO.C,C3*%
X285483752Y-194670000D02*
X284061248Y-194670000D01*
X285483752Y-196490000D02*
X284061248Y-196490000D01*
%TO.C,J1*%
X239920000Y-195690000D02*
X239920000Y-190390000D01*
X262890000Y-195690000D02*
X239920000Y-195690000D01*
X262890000Y-195690000D02*
X262890000Y-193040000D01*
X262890000Y-193040000D02*
X265540000Y-193040000D01*
X264160000Y-195690000D02*
X265540000Y-195690000D01*
X265540000Y-195690000D02*
X265540000Y-194310000D01*
X265540000Y-193040000D02*
X265540000Y-190390000D01*
X265540000Y-190390000D02*
X239920000Y-190390000D01*
%TD*%
M02*
