%TF.GenerationSoftware,KiCad,Pcbnew,9.0.6*%
%TF.CreationDate,2026-03-15T16:15:25-04:00*%
%TF.ProjectId,SimpleRTC,53696d70-6c65-4525-9443-2e6b69636164,rev?*%
%TF.SameCoordinates,Original*%
%TF.FileFunction,Copper,L2,Bot*%
%TF.FilePolarity,Positive*%
%FSLAX46Y46*%
G04 Gerber Fmt 4.6, Leading zero omitted, Abs format (unit mm)*
G04 Created by KiCad (PCBNEW 9.0.6) date 2026-03-15 16:15:25*
%MOMM*%
%LPD*%
G01*
G04 APERTURE LIST*
G04 Aperture macros list*
%AMRoundRect*
0 Rectangle with rounded corners*
0 $1 Rounding radius*
0 $2 $3 $4 $5 $6 $7 $8 $9 X,Y pos of 4 corners*
0 Add a 4 corners polygon primitive as box body*
4,1,4,$2,$3,$4,$5,$6,$7,$8,$9,$2,$3,0*
0 Add four circle primitives for the rounded corners*
1,1,$1+$1,$2,$3*
1,1,$1+$1,$4,$5*
1,1,$1+$1,$6,$7*
1,1,$1+$1,$8,$9*
0 Add four rect primitives between the rounded corners*
20,1,$1+$1,$2,$3,$4,$5,0*
20,1,$1+$1,$4,$5,$6,$7,0*
20,1,$1+$1,$6,$7,$8,$9,0*
20,1,$1+$1,$8,$9,$2,$3,0*%
G04 Aperture macros list end*
%TA.AperFunction,ComponentPad*%
%ADD10C,3.175000*%
%TD*%
%TA.AperFunction,ComponentPad*%
%ADD11R,1.700000X1.700000*%
%TD*%
%TA.AperFunction,ComponentPad*%
%ADD12C,1.700000*%
%TD*%
%TA.AperFunction,SMDPad,CuDef*%
%ADD13RoundRect,0.250000X-0.625000X0.400000X-0.625000X-0.400000X0.625000X-0.400000X0.625000X0.400000X0*%
%TD*%
%TA.AperFunction,ComponentPad*%
%ADD14R,1.498600X1.498600*%
%TD*%
%TA.AperFunction,ComponentPad*%
%ADD15C,1.498600*%
%TD*%
%TA.AperFunction,SMDPad,CuDef*%
%ADD16RoundRect,0.250000X0.400000X0.625000X-0.400000X0.625000X-0.400000X-0.625000X0.400000X-0.625000X0*%
%TD*%
%TA.AperFunction,ComponentPad*%
%ADD17RoundRect,0.250000X0.550000X0.550000X-0.550000X0.550000X-0.550000X-0.550000X0.550000X-0.550000X0*%
%TD*%
%TA.AperFunction,ComponentPad*%
%ADD18C,1.600000*%
%TD*%
%TA.AperFunction,ComponentPad*%
%ADD19RoundRect,0.250000X0.600000X0.600000X-0.600000X0.600000X-0.600000X-0.600000X0.600000X-0.600000X0*%
%TD*%
%TA.AperFunction,SMDPad,CuDef*%
%ADD20RoundRect,0.250000X0.412500X0.650000X-0.412500X0.650000X-0.412500X-0.650000X0.412500X-0.650000X0*%
%TD*%
%TA.AperFunction,SMDPad,CuDef*%
%ADD21RoundRect,0.250001X-0.624999X0.462499X-0.624999X-0.462499X0.624999X-0.462499X0.624999X0.462499X0*%
%TD*%
%TA.AperFunction,ViaPad*%
%ADD22C,0.600000*%
%TD*%
%TA.AperFunction,Conductor*%
%ADD23C,0.200000*%
%TD*%
G04 APERTURE END LIST*
D10*
%TO.P,H6,1*%
%TO.N,N/C*%
X102235000Y-63500000D03*
%TD*%
%TO.P,H7,1*%
%TO.N,N/C*%
X142875000Y-63500000D03*
%TD*%
%TO.P,H4,1*%
%TO.N,N/C*%
X142875000Y-36830000D03*
%TD*%
D11*
%TO.P,J2,1,Pin_1*%
%TO.N,/SCK*%
X139065000Y-58420000D03*
D12*
%TO.P,J2,2,Pin_2*%
%TO.N,/MOSI*%
X139065000Y-55880000D03*
%TO.P,J2,3,Pin_3*%
%TO.N,VCC*%
X139065000Y-53340000D03*
%TO.P,J2,4,Pin_4*%
%TO.N,GND*%
X139065000Y-50800000D03*
D10*
%TO.P,J2,5*%
%TO.N,N/C*%
X111125000Y-45720000D03*
X111125000Y-63500000D03*
X136525000Y-45720000D03*
X136525000Y-63500000D03*
%TD*%
%TO.P,H5,1*%
%TO.N,N/C*%
X102235000Y-36830000D03*
%TD*%
D13*
%TO.P,R5,1*%
%TO.N,Net-(D2-A)*%
X106680000Y-43535000D03*
%TO.P,R5,2*%
%TO.N,VCC*%
X106680000Y-46635000D03*
%TD*%
D14*
%TO.P,SW2,1,1*%
%TO.N,/SW2*%
X128345001Y-36495599D03*
D15*
%TO.P,SW2,2*%
%TO.N,N/C*%
X121845000Y-36495599D03*
%TO.P,SW2,3,3*%
%TO.N,GND*%
X128345001Y-40995600D03*
%TO.P,SW2,4*%
%TO.N,N/C*%
X121845000Y-40995600D03*
%TD*%
D16*
%TO.P,R4,1*%
%TO.N,/~{RST}*%
X114580000Y-60325000D03*
%TO.P,R4,2*%
%TO.N,VCC*%
X111480000Y-60325000D03*
%TD*%
%TO.P,R1,1*%
%TO.N,/MOSI*%
X114580000Y-56515000D03*
%TO.P,R1,2*%
%TO.N,VCC*%
X111480000Y-56515000D03*
%TD*%
D13*
%TO.P,R3,1*%
%TO.N,Net-(D1-A)*%
X103505000Y-43535000D03*
%TO.P,R3,2*%
%TO.N,VCC*%
X103505000Y-46635000D03*
%TD*%
D16*
%TO.P,R2,1*%
%TO.N,/SCK*%
X114580000Y-53340000D03*
%TO.P,R2,2*%
%TO.N,VCC*%
X111480000Y-53340000D03*
%TD*%
D17*
%TO.P,U2,1,VCC*%
%TO.N,VCC*%
X125095000Y-45085000D03*
D18*
%TO.P,U2,2,XTAL1/PB0*%
%TO.N,/TX*%
X125095000Y-47625000D03*
%TO.P,U2,3,XTAL2/PB1*%
%TO.N,/RX*%
X125095000Y-50165000D03*
%TO.P,U2,4,~{RESET}/PB3*%
%TO.N,/~{RST}*%
X125095000Y-52705000D03*
%TO.P,U2,5,PB2*%
%TO.N,unconnected-(U2-PB2-Pad5)*%
X125095000Y-55245000D03*
%TO.P,U2,6,PA7*%
%TO.N,unconnected-(U2-PA7-Pad6)*%
X125095000Y-57785000D03*
%TO.P,U2,7,PA6*%
%TO.N,/MOSI*%
X125095000Y-60325000D03*
%TO.P,U2,8,PA5*%
%TO.N,/MISO*%
X117475000Y-60325000D03*
%TO.P,U2,9,PA4*%
%TO.N,/SCK*%
X117475000Y-57785000D03*
%TO.P,U2,10,PA3*%
%TO.N,unconnected-(U2-PA3-Pad10)*%
X117475000Y-55245000D03*
%TO.P,U2,11,PA2*%
%TO.N,/SW3*%
X117475000Y-52705000D03*
%TO.P,U2,12,PA1*%
%TO.N,/SW2*%
X117475000Y-50165000D03*
%TO.P,U2,13,AREF/PA0*%
%TO.N,/SW1*%
X117475000Y-47625000D03*
%TO.P,U2,14,GND*%
%TO.N,GND*%
X117475000Y-45085000D03*
%TD*%
D11*
%TO.P,J3,1,Pin_1*%
%TO.N,VCC*%
X104140000Y-50800000D03*
D12*
%TO.P,J3,2,Pin_2*%
%TO.N,/TX*%
X104140000Y-53340000D03*
%TO.P,J3,3,Pin_3*%
%TO.N,/RX*%
X104140000Y-55880000D03*
%TO.P,J3,4,Pin_4*%
%TO.N,GND*%
X104140000Y-58420000D03*
%TD*%
D14*
%TO.P,SW3,1,1*%
%TO.N,/SW3*%
X118185001Y-36495599D03*
D15*
%TO.P,SW3,2*%
%TO.N,N/C*%
X111685000Y-36495599D03*
%TO.P,SW3,3,3*%
%TO.N,GND*%
X118185001Y-40995600D03*
%TO.P,SW3,4*%
%TO.N,N/C*%
X111685000Y-40995600D03*
%TD*%
D19*
%TO.P,J1,1,MISO*%
%TO.N,/MISO*%
X133467500Y-52070000D03*
D12*
%TO.P,J1,2,VCC*%
%TO.N,VCC*%
X130927500Y-52070000D03*
%TO.P,J1,3,SCK*%
%TO.N,/SCK*%
X133467500Y-54610000D03*
%TO.P,J1,4,MOSI*%
%TO.N,/MOSI*%
X130927500Y-54610000D03*
%TO.P,J1,5,~{RST}*%
%TO.N,/~{RST}*%
X133467500Y-57150000D03*
%TO.P,J1,6,GND*%
%TO.N,GND*%
X130927500Y-57150000D03*
%TD*%
D14*
%TO.P,SW1,1,1*%
%TO.N,/SW1*%
X138427069Y-36495599D03*
D15*
%TO.P,SW1,2*%
%TO.N,N/C*%
X131927068Y-36495599D03*
%TO.P,SW1,3,3*%
%TO.N,GND*%
X138427069Y-40995600D03*
%TO.P,SW1,4*%
%TO.N,N/C*%
X131927068Y-40995600D03*
%TD*%
D20*
%TO.P,C1,1*%
%TO.N,VCC*%
X114592500Y-49530000D03*
%TO.P,C1,2*%
%TO.N,GND*%
X111467500Y-49530000D03*
%TD*%
D21*
%TO.P,D1,1,K*%
%TO.N,/TX*%
X106045000Y-36612500D03*
%TO.P,D1,2,A*%
%TO.N,Net-(D1-A)*%
X106045000Y-39587500D03*
%TD*%
%TO.P,D2,1,K*%
%TO.N,/RX*%
X108585000Y-36612500D03*
%TO.P,D2,2,A*%
%TO.N,Net-(D2-A)*%
X108585000Y-39587500D03*
%TD*%
D22*
%TO.N,GND*%
X112450000Y-48025000D03*
%TO.N,/SCK*%
X132175000Y-62600000D03*
X121225000Y-62625000D03*
X121300000Y-57750000D03*
%TO.N,/TX*%
X122100000Y-47500000D03*
X122100000Y-49975000D03*
%TO.N,/RX*%
X123650000Y-37675000D03*
X110000000Y-37750000D03*
%TO.N,/SW1*%
X119975000Y-38750000D03*
%TO.N,/SW2*%
X129650000Y-48850000D03*
%TO.N,/MOSI*%
X115175000Y-58175000D03*
%TO.N,/~{RST}*%
X118875000Y-52700000D03*
X127075000Y-55675000D03*
%TO.N,/MOSI*%
X123325000Y-54000000D03*
%TO.N,/MISO*%
X119650000Y-51300000D03*
%TD*%
D23*
%TO.N,/SW2*%
X129700000Y-45800000D02*
X129700000Y-37850598D01*
X129650000Y-48850000D02*
X129650000Y-45850000D01*
X129650000Y-45850000D02*
X129700000Y-45800000D01*
X129700000Y-37850598D02*
X128345001Y-36495599D01*
%TO.N,GND*%
X111467500Y-49007500D02*
X112450000Y-48025000D01*
X111467500Y-49530000D02*
X111467500Y-49007500D01*
%TO.N,/SCK*%
X132175000Y-62600000D02*
X132175000Y-55902500D01*
X132175000Y-55902500D02*
X133467500Y-54610000D01*
X121300000Y-62550000D02*
X121225000Y-62625000D01*
X121300000Y-57750000D02*
X121300000Y-62550000D01*
%TO.N,/RX*%
X109050000Y-50970000D02*
X109050000Y-44325000D01*
X104140000Y-55880000D02*
X109050000Y-50970000D01*
X109050000Y-44325000D02*
X110000000Y-43375000D01*
X110000000Y-43375000D02*
X110000000Y-37750000D01*
%TO.N,Net-(D2-A)*%
X108585000Y-39587500D02*
X108585000Y-41630000D01*
X108585000Y-41630000D02*
X106680000Y-43535000D01*
%TO.N,Net-(D1-A)*%
X106045000Y-39587500D02*
X106045000Y-40995000D01*
X106045000Y-40995000D02*
X103505000Y-43535000D01*
%TO.N,/SW3*%
X120625000Y-49475057D02*
X120625000Y-37325000D01*
X117475000Y-52625057D02*
X120625000Y-49475057D01*
X119795599Y-36495599D02*
X118185001Y-36495599D01*
X117475000Y-52705000D02*
X117475000Y-52625057D01*
X120625000Y-37325000D02*
X119795599Y-36495599D01*
%TO.N,/TX*%
X122100000Y-49975000D02*
X122100000Y-47500000D01*
%TO.N,/RX*%
X123650000Y-37675000D02*
X123650000Y-48720000D01*
X123650000Y-48720000D02*
X125095000Y-50165000D01*
X108862500Y-36612500D02*
X110000000Y-37750000D01*
X108585000Y-36612500D02*
X108862500Y-36612500D01*
%TO.N,/SW1*%
X119975000Y-38750000D02*
X119975000Y-45125000D01*
X119975000Y-45125000D02*
X117475000Y-47625000D01*
%TO.N,/SCK*%
X133467500Y-54610000D02*
X137277500Y-58420000D01*
X137277500Y-58420000D02*
X139065000Y-58420000D01*
X114580000Y-53340000D02*
X114580000Y-54215000D01*
X114580000Y-54215000D02*
X117475000Y-57110000D01*
X117475000Y-57110000D02*
X117475000Y-57785000D01*
%TO.N,/MOSI*%
X114580000Y-56515000D02*
X114580000Y-57580000D01*
X114580000Y-57580000D02*
X115175000Y-58175000D01*
%TO.N,/~{RST}*%
X118875000Y-52700000D02*
X118875000Y-57942050D01*
X115930000Y-58975000D02*
X114580000Y-60325000D01*
X118875000Y-57942050D02*
X117842050Y-58975000D01*
X117842050Y-58975000D02*
X115930000Y-58975000D01*
X127075000Y-55675000D02*
X127075000Y-54685000D01*
X127075000Y-54685000D02*
X125095000Y-52705000D01*
%TO.N,/MOSI*%
X123325000Y-54000000D02*
X123325000Y-58555000D01*
X123325000Y-58555000D02*
X125095000Y-60325000D01*
%TO.N,/MISO*%
X119650000Y-51300000D02*
X119650000Y-58150000D01*
X119650000Y-58150000D02*
X117475000Y-60325000D01*
%TD*%
%TA.AperFunction,Conductor*%
%TO.N,VCC*%
G36*
X105298574Y-35445185D02*
G01*
X105344329Y-35497989D01*
X105354273Y-35567147D01*
X105325248Y-35630703D01*
X105274870Y-35665681D01*
X105191111Y-35696922D01*
X105175733Y-35702658D01*
X105175730Y-35702659D01*
X105175730Y-35702660D01*
X105059595Y-35789595D01*
X104972660Y-35905730D01*
X104972655Y-35905738D01*
X104921962Y-36041650D01*
X104921959Y-36041661D01*
X104915500Y-36101729D01*
X104915500Y-37123270D01*
X104921959Y-37183338D01*
X104921962Y-37183349D01*
X104972655Y-37319261D01*
X104972656Y-37319264D01*
X104972658Y-37319267D01*
X104994952Y-37349049D01*
X105059595Y-37435404D01*
X105093746Y-37460968D01*
X105175733Y-37522342D01*
X105175737Y-37522343D01*
X105175738Y-37522344D01*
X105311650Y-37573037D01*
X105311653Y-37573037D01*
X105311659Y-37573040D01*
X105324047Y-37574371D01*
X105371729Y-37579499D01*
X105371746Y-37579500D01*
X106718254Y-37579500D01*
X106718270Y-37579499D01*
X106759757Y-37575037D01*
X106778341Y-37573040D01*
X106914267Y-37522342D01*
X107030404Y-37435404D01*
X107117342Y-37319267D01*
X107168040Y-37183341D01*
X107170037Y-37164757D01*
X107174499Y-37123270D01*
X107174500Y-37123253D01*
X107174500Y-36101746D01*
X107174499Y-36101729D01*
X107168040Y-36041661D01*
X107168040Y-36041659D01*
X107160007Y-36020123D01*
X107117344Y-35905738D01*
X107117343Y-35905737D01*
X107117342Y-35905733D01*
X107073707Y-35847443D01*
X107030404Y-35789595D01*
X106939083Y-35721235D01*
X106914267Y-35702658D01*
X106871481Y-35686699D01*
X106815130Y-35665681D01*
X106759197Y-35623810D01*
X106734781Y-35558345D01*
X106749633Y-35490072D01*
X106799039Y-35440667D01*
X106858465Y-35425500D01*
X107771535Y-35425500D01*
X107838574Y-35445185D01*
X107884329Y-35497989D01*
X107894273Y-35567147D01*
X107865248Y-35630703D01*
X107814870Y-35665681D01*
X107731111Y-35696922D01*
X107715733Y-35702658D01*
X107715730Y-35702659D01*
X107715730Y-35702660D01*
X107599595Y-35789595D01*
X107512660Y-35905730D01*
X107512655Y-35905738D01*
X107461962Y-36041650D01*
X107461959Y-36041661D01*
X107455500Y-36101729D01*
X107455500Y-37123270D01*
X107461959Y-37183338D01*
X107461962Y-37183349D01*
X107512655Y-37319261D01*
X107512656Y-37319264D01*
X107512658Y-37319267D01*
X107534952Y-37349049D01*
X107599595Y-37435404D01*
X107633746Y-37460968D01*
X107715733Y-37522342D01*
X107715737Y-37522343D01*
X107715738Y-37522344D01*
X107851650Y-37573037D01*
X107851653Y-37573037D01*
X107851659Y-37573040D01*
X107864047Y-37574371D01*
X107911729Y-37579499D01*
X107911746Y-37579500D01*
X109258254Y-37579500D01*
X109262382Y-37579056D01*
X109264644Y-37579464D01*
X109266798Y-37578661D01*
X109298851Y-37585633D01*
X109331142Y-37591458D01*
X109333525Y-37593176D01*
X109335071Y-37593513D01*
X109363325Y-37614664D01*
X109409181Y-37660520D01*
X109442666Y-37721843D01*
X109445500Y-37748201D01*
X109445500Y-37823000D01*
X109483288Y-37964028D01*
X109483289Y-37964031D01*
X109556286Y-38090467D01*
X109556290Y-38090472D01*
X109609181Y-38143363D01*
X109642666Y-38204686D01*
X109645500Y-38231044D01*
X109645500Y-38573093D01*
X109625815Y-38640132D01*
X109573011Y-38685887D01*
X109503853Y-38695831D01*
X109463497Y-38679259D01*
X109462051Y-38681909D01*
X109454268Y-38677659D01*
X109454267Y-38677658D01*
X109454265Y-38677657D01*
X109454261Y-38677655D01*
X109318349Y-38626962D01*
X109318338Y-38626959D01*
X109258270Y-38620500D01*
X109258254Y-38620500D01*
X107911746Y-38620500D01*
X107911729Y-38620500D01*
X107851661Y-38626959D01*
X107851650Y-38626962D01*
X107715738Y-38677655D01*
X107715730Y-38677660D01*
X107599595Y-38764595D01*
X107512660Y-38880730D01*
X107512655Y-38880738D01*
X107461962Y-39016650D01*
X107461959Y-39016661D01*
X107455500Y-39076729D01*
X107455500Y-40098270D01*
X107461959Y-40158338D01*
X107461962Y-40158349D01*
X107512655Y-40294261D01*
X107512656Y-40294264D01*
X107512658Y-40294267D01*
X107524500Y-40310086D01*
X107599595Y-40410404D01*
X107657443Y-40453707D01*
X107715733Y-40497342D01*
X107715737Y-40497343D01*
X107715738Y-40497344D01*
X107851650Y-40548037D01*
X107851653Y-40548037D01*
X107851659Y-40548040D01*
X107864047Y-40549371D01*
X107911729Y-40554499D01*
X107911746Y-40554500D01*
X108106500Y-40554500D01*
X108173539Y-40574185D01*
X108219294Y-40626989D01*
X108230500Y-40678500D01*
X108230500Y-41431798D01*
X108210815Y-41498837D01*
X108194181Y-41519479D01*
X107119478Y-42594181D01*
X107058155Y-42627666D01*
X107031797Y-42630500D01*
X106006748Y-42630500D01*
X106006742Y-42630501D01*
X105946655Y-42636960D01*
X105810738Y-42687655D01*
X105810730Y-42687660D01*
X105694595Y-42774595D01*
X105607660Y-42890730D01*
X105607658Y-42890733D01*
X105556961Y-43026656D01*
X105556959Y-43026662D01*
X105550500Y-43086728D01*
X105550500Y-43983251D01*
X105550501Y-43983257D01*
X105556960Y-44043344D01*
X105607655Y-44179261D01*
X105607656Y-44179264D01*
X105607658Y-44179267D01*
X105636747Y-44218126D01*
X105694595Y-44295404D01*
X105743667Y-44332138D01*
X105810733Y-44382342D01*
X105946658Y-44433040D01*
X106006745Y-44439500D01*
X107353254Y-44439499D01*
X107413342Y-44433040D01*
X107549267Y-44382342D01*
X107665404Y-44295404D01*
X107752342Y-44179267D01*
X107803040Y-44043342D01*
X107805800Y-44017664D01*
X107809499Y-43983271D01*
X107809499Y-43983264D01*
X107809500Y-43983255D01*
X107809499Y-43086746D01*
X107803040Y-43026658D01*
X107800094Y-43018761D01*
X107795106Y-42949074D01*
X107828586Y-42887751D01*
X108868671Y-41847668D01*
X108915341Y-41766832D01*
X108939500Y-41676671D01*
X108939500Y-40678500D01*
X108959185Y-40611461D01*
X109011989Y-40565706D01*
X109063500Y-40554500D01*
X109258254Y-40554500D01*
X109258270Y-40554499D01*
X109299757Y-40550037D01*
X109318341Y-40548040D01*
X109454267Y-40497342D01*
X109454273Y-40497337D01*
X109462051Y-40493091D01*
X109464031Y-40496718D01*
X109510003Y-40478440D01*
X109578579Y-40491824D01*
X109629033Y-40540159D01*
X109645500Y-40601906D01*
X109645500Y-43176799D01*
X109625815Y-43243838D01*
X109609181Y-43264480D01*
X108766330Y-44107330D01*
X108766328Y-44107333D01*
X108719659Y-44188167D01*
X108719659Y-44188168D01*
X108698826Y-44265919D01*
X108695500Y-44278330D01*
X108695500Y-50771798D01*
X108675815Y-50838837D01*
X108659181Y-50859479D01*
X104691874Y-54826785D01*
X104630551Y-54860270D01*
X104565875Y-54857035D01*
X104398640Y-54802697D01*
X104284163Y-54784565D01*
X104226926Y-54775500D01*
X104053074Y-54775500D01*
X103995836Y-54784565D01*
X103881360Y-54802697D01*
X103881357Y-54802697D01*
X103716021Y-54856418D01*
X103561115Y-54935347D01*
X103480869Y-54993649D01*
X103420467Y-55037535D01*
X103420465Y-55037537D01*
X103420464Y-55037537D01*
X103297537Y-55160464D01*
X103297537Y-55160465D01*
X103297535Y-55160467D01*
X103276889Y-55188884D01*
X103195347Y-55301115D01*
X103116418Y-55456021D01*
X103062697Y-55621357D01*
X103062697Y-55621360D01*
X103037292Y-55781761D01*
X103035500Y-55793074D01*
X103035500Y-55966926D01*
X103042801Y-56013019D01*
X103062697Y-56138639D01*
X103062697Y-56138642D01*
X103116418Y-56303978D01*
X103137945Y-56346226D01*
X103195347Y-56458884D01*
X103297535Y-56599533D01*
X103420467Y-56722465D01*
X103561116Y-56824653D01*
X103692030Y-56891357D01*
X103716021Y-56903581D01*
X103881358Y-56957302D01*
X103881359Y-56957302D01*
X103881362Y-56957303D01*
X104053074Y-56984500D01*
X104053075Y-56984500D01*
X104226925Y-56984500D01*
X104226926Y-56984500D01*
X104398638Y-56957303D01*
X104398641Y-56957302D01*
X104398642Y-56957302D01*
X104563978Y-56903581D01*
X104563978Y-56903580D01*
X104563981Y-56903580D01*
X104718884Y-56824653D01*
X104859533Y-56722465D01*
X104982465Y-56599533D01*
X105084653Y-56458884D01*
X105163580Y-56303981D01*
X105171306Y-56280204D01*
X105217302Y-56138642D01*
X105217302Y-56138641D01*
X105217303Y-56138638D01*
X105244500Y-55966926D01*
X105244500Y-55841772D01*
X110576000Y-55841772D01*
X110576000Y-56388000D01*
X111353000Y-56388000D01*
X111607000Y-56388000D01*
X112383999Y-56388000D01*
X112383999Y-55841792D01*
X112383998Y-55841783D01*
X112377547Y-55781764D01*
X112377546Y-55781761D01*
X112326900Y-55645978D01*
X112326896Y-55645972D01*
X112240047Y-55529952D01*
X112124027Y-55443103D01*
X112124025Y-55443102D01*
X111988231Y-55392452D01*
X111928227Y-55386000D01*
X111607000Y-55386000D01*
X111607000Y-56388000D01*
X111353000Y-56388000D01*
X111353000Y-55386000D01*
X111031793Y-55386000D01*
X111031783Y-55386001D01*
X110971764Y-55392452D01*
X110971761Y-55392453D01*
X110835978Y-55443099D01*
X110835972Y-55443103D01*
X110719952Y-55529952D01*
X110633103Y-55645972D01*
X110633102Y-55645974D01*
X110582452Y-55781768D01*
X110576000Y-55841772D01*
X105244500Y-55841772D01*
X105244500Y-55793074D01*
X105217303Y-55621362D01*
X105217302Y-55621358D01*
X105217302Y-55621357D01*
X105162964Y-55454122D01*
X105160969Y-55384281D01*
X105193212Y-55328125D01*
X106508121Y-54013216D01*
X110576001Y-54013216D01*
X110582452Y-54073235D01*
X110582453Y-54073238D01*
X110633099Y-54209021D01*
X110633103Y-54209027D01*
X110719952Y-54325047D01*
X110835972Y-54411896D01*
X110835974Y-54411897D01*
X110971768Y-54462547D01*
X111031780Y-54468999D01*
X111352999Y-54468999D01*
X111607000Y-54468999D01*
X111928207Y-54468999D01*
X111928216Y-54468998D01*
X111988235Y-54462547D01*
X111988238Y-54462546D01*
X112124021Y-54411900D01*
X112124027Y-54411896D01*
X112240047Y-54325047D01*
X112326896Y-54209027D01*
X112326897Y-54209025D01*
X112377547Y-54073231D01*
X112383999Y-54013227D01*
X112384000Y-54013210D01*
X112384000Y-53467000D01*
X111607000Y-53467000D01*
X111607000Y-54468999D01*
X111352999Y-54468999D01*
X111353000Y-54468998D01*
X111353000Y-53467000D01*
X110576001Y-53467000D01*
X110576001Y-54013216D01*
X106508121Y-54013216D01*
X107854566Y-52666772D01*
X110576000Y-52666772D01*
X110576000Y-53213000D01*
X111353000Y-53213000D01*
X111607000Y-53213000D01*
X112383999Y-53213000D01*
X112383999Y-52666792D01*
X112383998Y-52666783D01*
X112377547Y-52606764D01*
X112377546Y-52606761D01*
X112326900Y-52470978D01*
X112326896Y-52470972D01*
X112240047Y-52354952D01*
X112124027Y-52268103D01*
X112124025Y-52268102D01*
X111988231Y-52217452D01*
X111928227Y-52211000D01*
X111607000Y-52211000D01*
X111607000Y-53213000D01*
X111353000Y-53213000D01*
X111353000Y-52211000D01*
X111031793Y-52211000D01*
X111031783Y-52211001D01*
X110971764Y-52217452D01*
X110971761Y-52217453D01*
X110835978Y-52268099D01*
X110835972Y-52268103D01*
X110719952Y-52354952D01*
X110633103Y-52470972D01*
X110633102Y-52470974D01*
X110582452Y-52606768D01*
X110576000Y-52666772D01*
X107854566Y-52666772D01*
X109333671Y-51187668D01*
X109378741Y-51109603D01*
X109378745Y-51109597D01*
X109380339Y-51106835D01*
X109380341Y-51106832D01*
X109404500Y-51016671D01*
X109404500Y-48831728D01*
X110550500Y-48831728D01*
X110550500Y-50228251D01*
X110550501Y-50228257D01*
X110556960Y-50288344D01*
X110607655Y-50424261D01*
X110607656Y-50424264D01*
X110607658Y-50424267D01*
X110636747Y-50463126D01*
X110694595Y-50540404D01*
X110752443Y-50583707D01*
X110810733Y-50627342D01*
X110946658Y-50678040D01*
X111006745Y-50684500D01*
X111928254Y-50684499D01*
X111988342Y-50678040D01*
X112124267Y-50627342D01*
X112240404Y-50540404D01*
X112327342Y-50424267D01*
X112378040Y-50288342D01*
X112380800Y-50262664D01*
X112384499Y-50228271D01*
X112384500Y-50228254D01*
X112384500Y-50228216D01*
X113676001Y-50228216D01*
X113682452Y-50288235D01*
X113682453Y-50288238D01*
X113733099Y-50424021D01*
X113733103Y-50424027D01*
X113819952Y-50540047D01*
X113935972Y-50626896D01*
X113935974Y-50626897D01*
X114071768Y-50677547D01*
X114131780Y-50683999D01*
X114465499Y-50683999D01*
X114719500Y-50683999D01*
X115053207Y-50683999D01*
X115053216Y-50683998D01*
X115113235Y-50677547D01*
X115113238Y-50677546D01*
X115249021Y-50626900D01*
X115249027Y-50626896D01*
X115365047Y-50540047D01*
X115451896Y-50424027D01*
X115451897Y-50424025D01*
X115502547Y-50288231D01*
X115508999Y-50228227D01*
X115509000Y-50228210D01*
X115509000Y-50061136D01*
X116420500Y-50061136D01*
X116420500Y-50268863D01*
X116461022Y-50472578D01*
X116461025Y-50472590D01*
X116540511Y-50664488D01*
X116540512Y-50664490D01*
X116655916Y-50837203D01*
X116655919Y-50837207D01*
X116802792Y-50984080D01*
X116802796Y-50984083D01*
X116975507Y-51099486D01*
X116975508Y-51099486D01*
X116975509Y-51099487D01*
X116975511Y-51099488D01*
X117065451Y-51136742D01*
X117167414Y-51178976D01*
X117371136Y-51219499D01*
X117371139Y-51219500D01*
X117371141Y-51219500D01*
X117578861Y-51219500D01*
X117578862Y-51219499D01*
X117782586Y-51178976D01*
X117974493Y-51099486D01*
X118147204Y-50984083D01*
X118294083Y-50837204D01*
X118409486Y-50664493D01*
X118488976Y-50472586D01*
X118529500Y-50268859D01*
X118529500Y-50061141D01*
X118529500Y-50061138D01*
X118529499Y-50061136D01*
X118497845Y-49902001D01*
X118488976Y-49857414D01*
X118460624Y-49788965D01*
X118409488Y-49665511D01*
X118409484Y-49665504D01*
X118294083Y-49492796D01*
X118294080Y-49492792D01*
X118147207Y-49345919D01*
X118147203Y-49345916D01*
X117974490Y-49230512D01*
X117974488Y-49230511D01*
X117782590Y-49151025D01*
X117782578Y-49151022D01*
X117578862Y-49110500D01*
X117578859Y-49110500D01*
X117371141Y-49110500D01*
X117371138Y-49110500D01*
X117167421Y-49151022D01*
X117167409Y-49151025D01*
X116975511Y-49230511D01*
X116975509Y-49230512D01*
X116802796Y-49345916D01*
X116802792Y-49345919D01*
X116655919Y-49492792D01*
X116655916Y-49492796D01*
X116540516Y-49665504D01*
X116540511Y-49665511D01*
X116461025Y-49857409D01*
X116461022Y-49857421D01*
X116420500Y-50061136D01*
X115509000Y-50061136D01*
X115509000Y-49657000D01*
X114719500Y-49657000D01*
X114719500Y-50683999D01*
X114465499Y-50683999D01*
X114465500Y-50683998D01*
X114465500Y-49657000D01*
X113676001Y-49657000D01*
X113676001Y-50228216D01*
X112384500Y-50228216D01*
X112384500Y-49605638D01*
X112384499Y-48840044D01*
X112384499Y-48831772D01*
X113676000Y-48831772D01*
X113676000Y-49403000D01*
X114465500Y-49403000D01*
X114719500Y-49403000D01*
X115508999Y-49403000D01*
X115508999Y-48831792D01*
X115508998Y-48831783D01*
X115502547Y-48771764D01*
X115502546Y-48771761D01*
X115451900Y-48635978D01*
X115451896Y-48635972D01*
X115365047Y-48519952D01*
X115249027Y-48433103D01*
X115249025Y-48433102D01*
X115113231Y-48382452D01*
X115053227Y-48376000D01*
X114719500Y-48376000D01*
X114719500Y-49403000D01*
X114465500Y-49403000D01*
X114465500Y-48376000D01*
X114131792Y-48376000D01*
X114131783Y-48376001D01*
X114071764Y-48382452D01*
X114071761Y-48382453D01*
X113935978Y-48433099D01*
X113935972Y-48433103D01*
X113819952Y-48519952D01*
X113733103Y-48635972D01*
X113733102Y-48635974D01*
X113682452Y-48771768D01*
X113676000Y-48831772D01*
X112384499Y-48831772D01*
X112384499Y-48831746D01*
X112378040Y-48771658D01*
X112365070Y-48736885D01*
X112363105Y-48726450D01*
X112365562Y-48701823D01*
X112363797Y-48677142D01*
X112368970Y-48667668D01*
X112370042Y-48656926D01*
X112385422Y-48637537D01*
X112397282Y-48615819D01*
X112406755Y-48610646D01*
X112413465Y-48602188D01*
X112436886Y-48594193D01*
X112458605Y-48582334D01*
X112477618Y-48580289D01*
X112479589Y-48579617D01*
X112480888Y-48579938D01*
X112484963Y-48579500D01*
X112522999Y-48579500D01*
X112523001Y-48579500D01*
X112664029Y-48541712D01*
X112790471Y-48468711D01*
X112893711Y-48365471D01*
X112966712Y-48239029D01*
X113004500Y-48098001D01*
X113004500Y-47951999D01*
X112966712Y-47810971D01*
X112893711Y-47684529D01*
X112790471Y-47581289D01*
X112790470Y-47581288D01*
X112790467Y-47581286D01*
X112664031Y-47508289D01*
X112664030Y-47508288D01*
X112664029Y-47508288D01*
X112523001Y-47470500D01*
X112376999Y-47470500D01*
X112235971Y-47508288D01*
X112235968Y-47508289D01*
X112109532Y-47581286D01*
X112109527Y-47581290D01*
X112006290Y-47684527D01*
X112006286Y-47684532D01*
X111933289Y-47810968D01*
X111933288Y-47810971D01*
X111895500Y-47951999D01*
X111895500Y-48026798D01*
X111875815Y-48093837D01*
X111859181Y-48114479D01*
X111634479Y-48339181D01*
X111573156Y-48372666D01*
X111546798Y-48375500D01*
X111006748Y-48375500D01*
X111006742Y-48375501D01*
X110946655Y-48381960D01*
X110810738Y-48432655D01*
X110810730Y-48432660D01*
X110694595Y-48519595D01*
X110622565Y-48615819D01*
X110607658Y-48635733D01*
X110556960Y-48771658D01*
X110556959Y-48771662D01*
X110550500Y-48831728D01*
X109404500Y-48831728D01*
X109404500Y-46868908D01*
X109424185Y-46801869D01*
X109476989Y-46756114D01*
X109546147Y-46746170D01*
X109609703Y-46775195D01*
X109626875Y-46793421D01*
X109636463Y-46805916D01*
X109737138Y-46937119D01*
X109737144Y-46937126D01*
X109907873Y-47107855D01*
X109907880Y-47107861D01*
X109975213Y-47159527D01*
X110099444Y-47254853D01*
X110099451Y-47254857D01*
X110308548Y-47375580D01*
X110308553Y-47375582D01*
X110308556Y-47375584D01*
X110531638Y-47467988D01*
X110764873Y-47530483D01*
X111004269Y-47562000D01*
X111004276Y-47562000D01*
X111245724Y-47562000D01*
X111245731Y-47562000D01*
X111485127Y-47530483D01*
X111718362Y-47467988D01*
X111941444Y-47375584D01*
X112150556Y-47254853D01*
X112342121Y-47107860D01*
X112512860Y-46937121D01*
X112659853Y-46745556D01*
X112780584Y-46536444D01*
X112872988Y-46313362D01*
X112935483Y-46080127D01*
X112967000Y-45840731D01*
X112967000Y-45599269D01*
X112935483Y-45359873D01*
X112872988Y-45126638D01*
X112812719Y-44981136D01*
X116420500Y-44981136D01*
X116420500Y-45188863D01*
X116461022Y-45392578D01*
X116461025Y-45392590D01*
X116540511Y-45584488D01*
X116540512Y-45584490D01*
X116655916Y-45757203D01*
X116655919Y-45757207D01*
X116802792Y-45904080D01*
X116802796Y-45904083D01*
X116975507Y-46019486D01*
X116975508Y-46019486D01*
X116975509Y-46019487D01*
X116975511Y-46019488D01*
X117167409Y-46098974D01*
X117167414Y-46098976D01*
X117336181Y-46132546D01*
X117371136Y-46139499D01*
X117371139Y-46139500D01*
X117371141Y-46139500D01*
X117578861Y-46139500D01*
X117578862Y-46139499D01*
X117782586Y-46098976D01*
X117974493Y-46019486D01*
X118147204Y-45904083D01*
X118294083Y-45757204D01*
X118409486Y-45584493D01*
X118488976Y-45392586D01*
X118529500Y-45188859D01*
X118529500Y-44981141D01*
X118529500Y-44981138D01*
X118529499Y-44981136D01*
X118514066Y-44903548D01*
X118488976Y-44777414D01*
X118434782Y-44646577D01*
X118409488Y-44585511D01*
X118409487Y-44585509D01*
X118323059Y-44456162D01*
X118294083Y-44412796D01*
X118294080Y-44412792D01*
X118147207Y-44265919D01*
X118147203Y-44265916D01*
X117974490Y-44150512D01*
X117974488Y-44150511D01*
X117782590Y-44071025D01*
X117782578Y-44071022D01*
X117578862Y-44030500D01*
X117578859Y-44030500D01*
X117371141Y-44030500D01*
X117371138Y-44030500D01*
X117167421Y-44071022D01*
X117167409Y-44071025D01*
X116975511Y-44150511D01*
X116975509Y-44150512D01*
X116802796Y-44265916D01*
X116802792Y-44265919D01*
X116655919Y-44412792D01*
X116655916Y-44412796D01*
X116540512Y-44585509D01*
X116540511Y-44585511D01*
X116461025Y-44777409D01*
X116461022Y-44777421D01*
X116420500Y-44981136D01*
X112812719Y-44981136D01*
X112780584Y-44903556D01*
X112780582Y-44903553D01*
X112780580Y-44903548D01*
X112659857Y-44694451D01*
X112659853Y-44694444D01*
X112512860Y-44502879D01*
X112512855Y-44502873D01*
X112342126Y-44332144D01*
X112342119Y-44332138D01*
X112150564Y-44185153D01*
X112150562Y-44185151D01*
X112150556Y-44185147D01*
X112150551Y-44185144D01*
X112150548Y-44185142D01*
X111941451Y-44064419D01*
X111941440Y-44064414D01*
X111718360Y-43972011D01*
X111601744Y-43940764D01*
X111485127Y-43909517D01*
X111485121Y-43909516D01*
X111485116Y-43909515D01*
X111245740Y-43878001D01*
X111245737Y-43878000D01*
X111245731Y-43878000D01*
X111004269Y-43878000D01*
X111004263Y-43878000D01*
X111004259Y-43878001D01*
X110764883Y-43909515D01*
X110764876Y-43909516D01*
X110764873Y-43909517D01*
X110715582Y-43922724D01*
X110531639Y-43972011D01*
X110308559Y-44064414D01*
X110308548Y-44064419D01*
X110099451Y-44185142D01*
X110099435Y-44185153D01*
X109907880Y-44332138D01*
X109907873Y-44332144D01*
X109737144Y-44502873D01*
X109737138Y-44502880D01*
X109626876Y-44646577D01*
X109570448Y-44687780D01*
X109500702Y-44691935D01*
X109439782Y-44657723D01*
X109407029Y-44596005D01*
X109404500Y-44571091D01*
X109404500Y-44523201D01*
X109424185Y-44456162D01*
X109440819Y-44435520D01*
X109845839Y-44030500D01*
X110283671Y-43592668D01*
X110290020Y-43581671D01*
X110330341Y-43511832D01*
X110354500Y-43421671D01*
X110354500Y-40896729D01*
X110681200Y-40896729D01*
X110681200Y-41094470D01*
X110719773Y-41288390D01*
X110719775Y-41288398D01*
X110795442Y-41471075D01*
X110905297Y-41635484D01*
X110905300Y-41635488D01*
X111045111Y-41775299D01*
X111045115Y-41775302D01*
X111209522Y-41885156D01*
X111392202Y-41960825D01*
X111586129Y-41999399D01*
X111586133Y-41999400D01*
X111586134Y-41999400D01*
X111783867Y-41999400D01*
X111783868Y-41999399D01*
X111977798Y-41960825D01*
X112160478Y-41885156D01*
X112324885Y-41775302D01*
X112464702Y-41635485D01*
X112574556Y-41471078D01*
X112650225Y-41288398D01*
X112688800Y-41094466D01*
X112688800Y-40896734D01*
X112688799Y-40896729D01*
X117181201Y-40896729D01*
X117181201Y-41094470D01*
X117219774Y-41288390D01*
X117219776Y-41288398D01*
X117295443Y-41471075D01*
X117405298Y-41635484D01*
X117405301Y-41635488D01*
X117545112Y-41775299D01*
X117545116Y-41775302D01*
X117709523Y-41885156D01*
X117892203Y-41960825D01*
X118086130Y-41999399D01*
X118086134Y-41999400D01*
X118086135Y-41999400D01*
X118283868Y-41999400D01*
X118283869Y-41999399D01*
X118477799Y-41960825D01*
X118660479Y-41885156D01*
X118824886Y-41775302D01*
X118964703Y-41635485D01*
X119074557Y-41471078D01*
X119150226Y-41288398D01*
X119188801Y-41094466D01*
X119188801Y-40896734D01*
X119150226Y-40702802D01*
X119074557Y-40520122D01*
X118964703Y-40355715D01*
X118964701Y-40355713D01*
X118964700Y-40355711D01*
X118824889Y-40215900D01*
X118824885Y-40215897D01*
X118660476Y-40106042D01*
X118477799Y-40030375D01*
X118477791Y-40030373D01*
X118283871Y-39991800D01*
X118283867Y-39991800D01*
X118086135Y-39991800D01*
X118086130Y-39991800D01*
X117892210Y-40030373D01*
X117892202Y-40030375D01*
X117709525Y-40106042D01*
X117545116Y-40215897D01*
X117545112Y-40215900D01*
X117405301Y-40355711D01*
X117405298Y-40355715D01*
X117295443Y-40520124D01*
X117219776Y-40702801D01*
X117219774Y-40702809D01*
X117181201Y-40896729D01*
X112688799Y-40896729D01*
X112650225Y-40702802D01*
X112574556Y-40520122D01*
X112464702Y-40355715D01*
X112464700Y-40355713D01*
X112464699Y-40355711D01*
X112324888Y-40215900D01*
X112324884Y-40215897D01*
X112160475Y-40106042D01*
X111977798Y-40030375D01*
X111977790Y-40030373D01*
X111783870Y-39991800D01*
X111783866Y-39991800D01*
X111586134Y-39991800D01*
X111586129Y-39991800D01*
X111392209Y-40030373D01*
X111392201Y-40030375D01*
X111209524Y-40106042D01*
X111045115Y-40215897D01*
X111045111Y-40215900D01*
X110905300Y-40355711D01*
X110905297Y-40355715D01*
X110795442Y-40520124D01*
X110719775Y-40702801D01*
X110719773Y-40702809D01*
X110681200Y-40896729D01*
X110354500Y-40896729D01*
X110354500Y-38231044D01*
X110374185Y-38164005D01*
X110390819Y-38143363D01*
X110404496Y-38129686D01*
X110443711Y-38090471D01*
X110516712Y-37964029D01*
X110554500Y-37823001D01*
X110554500Y-37676999D01*
X110516712Y-37535971D01*
X110473326Y-37460824D01*
X110443713Y-37409532D01*
X110443709Y-37409527D01*
X110340472Y-37306290D01*
X110340467Y-37306286D01*
X110214031Y-37233289D01*
X110214030Y-37233288D01*
X110214029Y-37233288D01*
X110073001Y-37195500D01*
X110073000Y-37195500D01*
X109998201Y-37195500D01*
X109968760Y-37186855D01*
X109938774Y-37180332D01*
X109933758Y-37176577D01*
X109931162Y-37175815D01*
X109910520Y-37159181D01*
X109750819Y-36999480D01*
X109717334Y-36938157D01*
X109714500Y-36911799D01*
X109714500Y-36101746D01*
X109714499Y-36101729D01*
X109708040Y-36041661D01*
X109708040Y-36041659D01*
X109700007Y-36020123D01*
X109657344Y-35905738D01*
X109657343Y-35905737D01*
X109657342Y-35905733D01*
X109613707Y-35847443D01*
X109570404Y-35789595D01*
X109479083Y-35721235D01*
X109454267Y-35702658D01*
X109411481Y-35686699D01*
X109355130Y-35665681D01*
X109299197Y-35623810D01*
X109274781Y-35558345D01*
X109289633Y-35490072D01*
X109339039Y-35440667D01*
X109398465Y-35425500D01*
X111070951Y-35425500D01*
X111137990Y-35445185D01*
X111183745Y-35497989D01*
X111193689Y-35567147D01*
X111164664Y-35630703D01*
X111139842Y-35652602D01*
X111045115Y-35715896D01*
X111045111Y-35715899D01*
X110905300Y-35855710D01*
X110905297Y-35855714D01*
X110795442Y-36020123D01*
X110719775Y-36202800D01*
X110719773Y-36202808D01*
X110681200Y-36396728D01*
X110681200Y-36594469D01*
X110719773Y-36788389D01*
X110719775Y-36788397D01*
X110795442Y-36971074D01*
X110905297Y-37135483D01*
X110905300Y-37135487D01*
X111045111Y-37275298D01*
X111045115Y-37275301D01*
X111209522Y-37385155D01*
X111392202Y-37460824D01*
X111573284Y-37496843D01*
X111586129Y-37499398D01*
X111586133Y-37499399D01*
X111586134Y-37499399D01*
X111783867Y-37499399D01*
X111783868Y-37499398D01*
X111977798Y-37460824D01*
X112160478Y-37385155D01*
X112324885Y-37275301D01*
X112464702Y-37135484D01*
X112574556Y-36971077D01*
X112650225Y-36788397D01*
X112688800Y-36594465D01*
X112688800Y-36396733D01*
X112650225Y-36202801D01*
X112574556Y-36020121D01*
X112464702Y-35855714D01*
X112464699Y-35855710D01*
X112324888Y-35715899D01*
X112324884Y-35715896D01*
X112230158Y-35652602D01*
X112185353Y-35598990D01*
X112176646Y-35529665D01*
X112206800Y-35466637D01*
X112266243Y-35429918D01*
X112299049Y-35425500D01*
X117111980Y-35425500D01*
X117179019Y-35445185D01*
X117224774Y-35497989D01*
X117234718Y-35567147D01*
X117215082Y-35618391D01*
X117195967Y-35646998D01*
X117195965Y-35647002D01*
X117181201Y-35721227D01*
X117181201Y-37269962D01*
X117195967Y-37344200D01*
X117252216Y-37428383D01*
X117285935Y-37450913D01*
X117336400Y-37484633D01*
X117336403Y-37484633D01*
X117336404Y-37484634D01*
X117361367Y-37489599D01*
X117410634Y-37499399D01*
X118959367Y-37499398D01*
X119033602Y-37484633D01*
X119117785Y-37428383D01*
X119174035Y-37344200D01*
X119188801Y-37269966D01*
X119188801Y-36974099D01*
X119208486Y-36907060D01*
X119261290Y-36861305D01*
X119312801Y-36850099D01*
X119597398Y-36850099D01*
X119664437Y-36869784D01*
X119685079Y-36886418D01*
X120234181Y-37435520D01*
X120267666Y-37496843D01*
X120270500Y-37523201D01*
X120270500Y-38093518D01*
X120250815Y-38160557D01*
X120198011Y-38206312D01*
X120128853Y-38216256D01*
X120114408Y-38213293D01*
X120048002Y-38195500D01*
X120048001Y-38195500D01*
X119901999Y-38195500D01*
X119760971Y-38233288D01*
X119760968Y-38233289D01*
X119634532Y-38306286D01*
X119634527Y-38306290D01*
X119531290Y-38409527D01*
X119531286Y-38409532D01*
X119458289Y-38535968D01*
X119458288Y-38535971D01*
X119420500Y-38676999D01*
X119420500Y-38823001D01*
X119435971Y-38880738D01*
X119458288Y-38964028D01*
X119458289Y-38964031D01*
X119531286Y-39090467D01*
X119531290Y-39090472D01*
X119584181Y-39143363D01*
X119617666Y-39204686D01*
X119620500Y-39231044D01*
X119620500Y-44926798D01*
X119600815Y-44993837D01*
X119584181Y-45014479D01*
X117986165Y-46612494D01*
X117924842Y-46645979D01*
X117855150Y-46640995D01*
X117851033Y-46639375D01*
X117836829Y-46633491D01*
X117782586Y-46611024D01*
X117782582Y-46611023D01*
X117782578Y-46611021D01*
X117578862Y-46570500D01*
X117578859Y-46570500D01*
X117371141Y-46570500D01*
X117371138Y-46570500D01*
X117167421Y-46611022D01*
X117167409Y-46611025D01*
X116975511Y-46690511D01*
X116975509Y-46690512D01*
X116802796Y-46805916D01*
X116802792Y-46805919D01*
X116655919Y-46952792D01*
X116655916Y-46952796D01*
X116540512Y-47125509D01*
X116540511Y-47125511D01*
X116461025Y-47317409D01*
X116461022Y-47317421D01*
X116420500Y-47521136D01*
X116420500Y-47728863D01*
X116461022Y-47932578D01*
X116461025Y-47932590D01*
X116540511Y-48124488D01*
X116540512Y-48124490D01*
X116655916Y-48297203D01*
X116655919Y-48297207D01*
X116802792Y-48444080D01*
X116802796Y-48444083D01*
X116975507Y-48559486D01*
X116975508Y-48559486D01*
X116975509Y-48559487D01*
X116975511Y-48559488D01*
X117160166Y-48635974D01*
X117167414Y-48638976D01*
X117359287Y-48677142D01*
X117371136Y-48679499D01*
X117371139Y-48679500D01*
X117371141Y-48679500D01*
X117578861Y-48679500D01*
X117578862Y-48679499D01*
X117782586Y-48638976D01*
X117974493Y-48559486D01*
X118147204Y-48444083D01*
X118294083Y-48297204D01*
X118409486Y-48124493D01*
X118488976Y-47932586D01*
X118529500Y-47728859D01*
X118529500Y-47521141D01*
X118529500Y-47521138D01*
X118529499Y-47521136D01*
X118488978Y-47317421D01*
X118488975Y-47317412D01*
X118463062Y-47254853D01*
X118460623Y-47248965D01*
X118453155Y-47179497D01*
X118484430Y-47117018D01*
X118487475Y-47113862D01*
X120058820Y-45542517D01*
X120120142Y-45509034D01*
X120189834Y-45514018D01*
X120245767Y-45555890D01*
X120270184Y-45621354D01*
X120270500Y-45630200D01*
X120270500Y-49276855D01*
X120250815Y-49343894D01*
X120234181Y-49364536D01*
X117929636Y-51669080D01*
X117868313Y-51702565D01*
X117798621Y-51697581D01*
X117794513Y-51695964D01*
X117782586Y-51691024D01*
X117782578Y-51691022D01*
X117578862Y-51650500D01*
X117578859Y-51650500D01*
X117371141Y-51650500D01*
X117371138Y-51650500D01*
X117167421Y-51691022D01*
X117167409Y-51691025D01*
X116975511Y-51770511D01*
X116975509Y-51770512D01*
X116802796Y-51885916D01*
X116802792Y-51885919D01*
X116655919Y-52032792D01*
X116655916Y-52032796D01*
X116540512Y-52205509D01*
X116540511Y-52205511D01*
X116461025Y-52397409D01*
X116461022Y-52397421D01*
X116420500Y-52601136D01*
X116420500Y-52808863D01*
X116461022Y-53012578D01*
X116461025Y-53012590D01*
X116540511Y-53204488D01*
X116540512Y-53204490D01*
X116655916Y-53377203D01*
X116655919Y-53377207D01*
X116802792Y-53524080D01*
X116802796Y-53524083D01*
X116975507Y-53639486D01*
X116975508Y-53639486D01*
X116975509Y-53639487D01*
X116975511Y-53639488D01*
X117163860Y-53717504D01*
X117167414Y-53718976D01*
X117371136Y-53759499D01*
X117371139Y-53759500D01*
X117371141Y-53759500D01*
X117578861Y-53759500D01*
X117578862Y-53759499D01*
X117782586Y-53718976D01*
X117974493Y-53639486D01*
X118147204Y-53524083D01*
X118294083Y-53377204D01*
X118294085Y-53377200D01*
X118297947Y-53372496D01*
X118299114Y-53373454D01*
X118347001Y-53333428D01*
X118416326Y-53324715D01*
X118479356Y-53354865D01*
X118516079Y-53414305D01*
X118520500Y-53447120D01*
X118520500Y-54502879D01*
X118500815Y-54569918D01*
X118448011Y-54615673D01*
X118378853Y-54625617D01*
X118315297Y-54596592D01*
X118298241Y-54577261D01*
X118297947Y-54577504D01*
X118294080Y-54572792D01*
X118147207Y-54425919D01*
X118147203Y-54425916D01*
X117974490Y-54310512D01*
X117974488Y-54310511D01*
X117782590Y-54231025D01*
X117782578Y-54231022D01*
X117578862Y-54190500D01*
X117578859Y-54190500D01*
X117371141Y-54190500D01*
X117371138Y-54190500D01*
X117167421Y-54231022D01*
X117167409Y-54231025D01*
X116975511Y-54310511D01*
X116975509Y-54310512D01*
X116802796Y-54425916D01*
X116802792Y-54425919D01*
X116655919Y-54572792D01*
X116655916Y-54572796D01*
X116540512Y-54745509D01*
X116540511Y-54745511D01*
X116461025Y-54937409D01*
X116461022Y-54937421D01*
X116420500Y-55141136D01*
X116420500Y-55254799D01*
X116400815Y-55321838D01*
X116348011Y-55367593D01*
X116278853Y-55377537D01*
X116215297Y-55348512D01*
X116208819Y-55342480D01*
X115352736Y-54486397D01*
X115319251Y-54425074D01*
X115324235Y-54355382D01*
X115341147Y-54324411D01*
X115427342Y-54209267D01*
X115478040Y-54073342D01*
X115482580Y-54031115D01*
X115484499Y-54013271D01*
X115484499Y-54013264D01*
X115484500Y-54013255D01*
X115484499Y-52666746D01*
X115478040Y-52606658D01*
X115446204Y-52521303D01*
X115427344Y-52470738D01*
X115427343Y-52470737D01*
X115427342Y-52470733D01*
X115371229Y-52395774D01*
X115340404Y-52354595D01*
X115224861Y-52268103D01*
X115224267Y-52267658D01*
X115088342Y-52216960D01*
X115088338Y-52216959D01*
X115028262Y-52210500D01*
X114131748Y-52210500D01*
X114131742Y-52210501D01*
X114071655Y-52216960D01*
X113935738Y-52267655D01*
X113935730Y-52267660D01*
X113819595Y-52354595D01*
X113732660Y-52470730D01*
X113732658Y-52470733D01*
X113681960Y-52606658D01*
X113681959Y-52606662D01*
X113675500Y-52666728D01*
X113675500Y-54013251D01*
X113675501Y-54013257D01*
X113681960Y-54073344D01*
X113732655Y-54209261D01*
X113732656Y-54209264D01*
X113732658Y-54209267D01*
X113748945Y-54231024D01*
X113819595Y-54325404D01*
X113870594Y-54363580D01*
X113935733Y-54412342D01*
X114071658Y-54463040D01*
X114131745Y-54469500D01*
X114281797Y-54469499D01*
X114348837Y-54489183D01*
X114369479Y-54505818D01*
X115037480Y-55173819D01*
X115070965Y-55235142D01*
X115065981Y-55304834D01*
X115024109Y-55360767D01*
X114958645Y-55385184D01*
X114949799Y-55385500D01*
X114131748Y-55385500D01*
X114131742Y-55385501D01*
X114071655Y-55391960D01*
X113935738Y-55442655D01*
X113935730Y-55442660D01*
X113819595Y-55529595D01*
X113732660Y-55645730D01*
X113732658Y-55645733D01*
X113681960Y-55781658D01*
X113681959Y-55781662D01*
X113675500Y-55841728D01*
X113675500Y-57188251D01*
X113675501Y-57188257D01*
X113681960Y-57248344D01*
X113732655Y-57384261D01*
X113732656Y-57384264D01*
X113732658Y-57384267D01*
X113750905Y-57408642D01*
X113819595Y-57500404D01*
X113874790Y-57541721D01*
X113935733Y-57587342D01*
X114071658Y-57638040D01*
X114103285Y-57641440D01*
X114131733Y-57644499D01*
X114131736Y-57644499D01*
X114131745Y-57644500D01*
X114136832Y-57644499D01*
X114203871Y-57664176D01*
X114244138Y-57710635D01*
X114245596Y-57709794D01*
X114296328Y-57797666D01*
X114296330Y-57797669D01*
X114584181Y-58085520D01*
X114617666Y-58146843D01*
X114620500Y-58173201D01*
X114620500Y-58248001D01*
X114652565Y-58367668D01*
X114658288Y-58389028D01*
X114658289Y-58389031D01*
X114731286Y-58515467D01*
X114731288Y-58515470D01*
X114731289Y-58515471D01*
X114834529Y-58618711D01*
X114834530Y-58618712D01*
X114834532Y-58618713D01*
X114879126Y-58644459D01*
X114960971Y-58691712D01*
X115101999Y-58729500D01*
X115102001Y-58729500D01*
X115247998Y-58729500D01*
X115248001Y-58729500D01*
X115383143Y-58693289D01*
X115452990Y-58694952D01*
X115510853Y-58734114D01*
X115538357Y-58798343D01*
X115526771Y-58867245D01*
X115502915Y-58900745D01*
X115227254Y-59176405D01*
X115165931Y-59209890D01*
X115096241Y-59204906D01*
X115088344Y-59201960D01*
X115088338Y-59201959D01*
X115028262Y-59195500D01*
X114131748Y-59195500D01*
X114131742Y-59195501D01*
X114071655Y-59201960D01*
X113935738Y-59252655D01*
X113935730Y-59252660D01*
X113819595Y-59339595D01*
X113732660Y-59455730D01*
X113732658Y-59455733D01*
X113681960Y-59591658D01*
X113681959Y-59591662D01*
X113675500Y-59651728D01*
X113675500Y-60998251D01*
X113675501Y-60998257D01*
X113681960Y-61058344D01*
X113732655Y-61194261D01*
X113732656Y-61194264D01*
X113732658Y-61194267D01*
X113761747Y-61233126D01*
X113819595Y-61310404D01*
X113877443Y-61353707D01*
X113935733Y-61397342D01*
X114071658Y-61448040D01*
X114131745Y-61454500D01*
X115028254Y-61454499D01*
X115088342Y-61448040D01*
X115224267Y-61397342D01*
X115340404Y-61310404D01*
X115427342Y-61194267D01*
X115478040Y-61058342D01*
X115480800Y-61032664D01*
X115484499Y-60998271D01*
X115484499Y-60998264D01*
X115484500Y-60998255D01*
X115484499Y-59973200D01*
X115504183Y-59906162D01*
X115520818Y-59885520D01*
X116040520Y-59365819D01*
X116101843Y-59332334D01*
X116128201Y-59329500D01*
X116679850Y-59329500D01*
X116746889Y-59349185D01*
X116792644Y-59401989D01*
X116802588Y-59471147D01*
X116773563Y-59534703D01*
X116767531Y-59541181D01*
X116655919Y-59652792D01*
X116655916Y-59652796D01*
X116540512Y-59825509D01*
X116540511Y-59825511D01*
X116461025Y-60017409D01*
X116461022Y-60017421D01*
X116420500Y-60221136D01*
X116420500Y-60428863D01*
X116461022Y-60632578D01*
X116461025Y-60632590D01*
X116540511Y-60824488D01*
X116540512Y-60824490D01*
X116655916Y-60997203D01*
X116655919Y-60997207D01*
X116802792Y-61144080D01*
X116802796Y-61144083D01*
X116975507Y-61259486D01*
X116975508Y-61259486D01*
X116975509Y-61259487D01*
X116975511Y-61259488D01*
X117167409Y-61338974D01*
X117167414Y-61338976D01*
X117371136Y-61379499D01*
X117371139Y-61379500D01*
X117371141Y-61379500D01*
X117578861Y-61379500D01*
X117578862Y-61379499D01*
X117782586Y-61338976D01*
X117974493Y-61259486D01*
X118147204Y-61144083D01*
X118294083Y-60997204D01*
X118409486Y-60824493D01*
X118488976Y-60632586D01*
X118529500Y-60428859D01*
X118529500Y-60221141D01*
X118529500Y-60221138D01*
X118529499Y-60221136D01*
X118488978Y-60017421D01*
X118488975Y-60017413D01*
X118460623Y-59948965D01*
X118453155Y-59879497D01*
X118484430Y-59817018D01*
X118487477Y-59813860D01*
X119857458Y-58443878D01*
X119857463Y-58443875D01*
X119867666Y-58433671D01*
X119867668Y-58433671D01*
X119933671Y-58367668D01*
X119980341Y-58286832D01*
X119980978Y-58284452D01*
X119985732Y-58266714D01*
X119985732Y-58266712D01*
X120004500Y-58196672D01*
X120004500Y-58103329D01*
X120004500Y-53926999D01*
X122770500Y-53926999D01*
X122770500Y-54073001D01*
X122807011Y-54209261D01*
X122808288Y-54214028D01*
X122808289Y-54214031D01*
X122881286Y-54340467D01*
X122881290Y-54340472D01*
X122934181Y-54393363D01*
X122967666Y-54454686D01*
X122970500Y-54481044D01*
X122970500Y-58508329D01*
X122970500Y-58601671D01*
X122980146Y-58637668D01*
X122994659Y-58691832D01*
X123041328Y-58772666D01*
X123041330Y-58772669D01*
X124082494Y-59813833D01*
X124115979Y-59875156D01*
X124110995Y-59944848D01*
X124109375Y-59948965D01*
X124081024Y-60017413D01*
X124081022Y-60017416D01*
X124040500Y-60221136D01*
X124040500Y-60428863D01*
X124081022Y-60632578D01*
X124081025Y-60632590D01*
X124160511Y-60824488D01*
X124160512Y-60824490D01*
X124275916Y-60997203D01*
X124275919Y-60997207D01*
X124422792Y-61144080D01*
X124422796Y-61144083D01*
X124595507Y-61259486D01*
X124595508Y-61259486D01*
X124595509Y-61259487D01*
X124595511Y-61259488D01*
X124787409Y-61338974D01*
X124787414Y-61338976D01*
X124991136Y-61379499D01*
X124991139Y-61379500D01*
X124991141Y-61379500D01*
X125198861Y-61379500D01*
X125198862Y-61379499D01*
X125402586Y-61338976D01*
X125594493Y-61259486D01*
X125767204Y-61144083D01*
X125914083Y-60997204D01*
X126029486Y-60824493D01*
X126108976Y-60632586D01*
X126149500Y-60428859D01*
X126149500Y-60221141D01*
X126149500Y-60221138D01*
X126149499Y-60221136D01*
X126108977Y-60017421D01*
X126108976Y-60017416D01*
X126108976Y-60017414D01*
X126108974Y-60017409D01*
X126029488Y-59825511D01*
X126029487Y-59825509D01*
X126023813Y-59817018D01*
X125914083Y-59652796D01*
X125914080Y-59652792D01*
X125767207Y-59505919D01*
X125767203Y-59505916D01*
X125594490Y-59390512D01*
X125594488Y-59390511D01*
X125402590Y-59311025D01*
X125402578Y-59311022D01*
X125198862Y-59270500D01*
X125198859Y-59270500D01*
X124991141Y-59270500D01*
X124991138Y-59270500D01*
X124787416Y-59311022D01*
X124787413Y-59311024D01*
X124718965Y-59339375D01*
X124649496Y-59346842D01*
X124587017Y-59315567D01*
X124583833Y-59312494D01*
X123715819Y-58444480D01*
X123682334Y-58383157D01*
X123679500Y-58356799D01*
X123679500Y-57681136D01*
X124040500Y-57681136D01*
X124040500Y-57888863D01*
X124081022Y-58092578D01*
X124081025Y-58092590D01*
X124160511Y-58284488D01*
X124160512Y-58284490D01*
X124275916Y-58457203D01*
X124275919Y-58457207D01*
X124422792Y-58604080D01*
X124422796Y-58604083D01*
X124595507Y-58719486D01*
X124595508Y-58719486D01*
X124595509Y-58719487D01*
X124595511Y-58719488D01*
X124723900Y-58772668D01*
X124787414Y-58798976D01*
X124991136Y-58839499D01*
X124991139Y-58839500D01*
X124991141Y-58839500D01*
X125198861Y-58839500D01*
X125198862Y-58839499D01*
X125402586Y-58798976D01*
X125594493Y-58719486D01*
X125767204Y-58604083D01*
X125914083Y-58457204D01*
X126029486Y-58284493D01*
X126108976Y-58092586D01*
X126149500Y-57888859D01*
X126149500Y-57681141D01*
X126149500Y-57681138D01*
X126149499Y-57681136D01*
X126140927Y-57638040D01*
X126108976Y-57477414D01*
X126080857Y-57409529D01*
X126029488Y-57285511D01*
X126029487Y-57285510D01*
X126029486Y-57285507D01*
X125914083Y-57112796D01*
X125914081Y-57112793D01*
X125864362Y-57063074D01*
X129823000Y-57063074D01*
X129823000Y-57236926D01*
X129830695Y-57285507D01*
X129850197Y-57408639D01*
X129850197Y-57408642D01*
X129903918Y-57573978D01*
X129956410Y-57676999D01*
X129982847Y-57728884D01*
X130085035Y-57869533D01*
X130207967Y-57992465D01*
X130348616Y-58094653D01*
X130401972Y-58121839D01*
X130503521Y-58173581D01*
X130668858Y-58227302D01*
X130668859Y-58227302D01*
X130668862Y-58227303D01*
X130840574Y-58254500D01*
X130840575Y-58254500D01*
X131014425Y-58254500D01*
X131014426Y-58254500D01*
X131186138Y-58227303D01*
X131186141Y-58227302D01*
X131186142Y-58227302D01*
X131351478Y-58173581D01*
X131351478Y-58173580D01*
X131351481Y-58173580D01*
X131506384Y-58094653D01*
X131623616Y-58009478D01*
X131689420Y-57985999D01*
X131757474Y-58001824D01*
X131806169Y-58051929D01*
X131820500Y-58109797D01*
X131820500Y-62118956D01*
X131800815Y-62185995D01*
X131784181Y-62206637D01*
X131731290Y-62259527D01*
X131731286Y-62259532D01*
X131658289Y-62385968D01*
X131658288Y-62385971D01*
X131620500Y-62526999D01*
X131620500Y-62673001D01*
X131627199Y-62698000D01*
X131658288Y-62814028D01*
X131658289Y-62814031D01*
X131731286Y-62940467D01*
X131731288Y-62940470D01*
X131731289Y-62940471D01*
X131834529Y-63043711D01*
X131960971Y-63116712D01*
X132101999Y-63154500D01*
X132102001Y-63154500D01*
X132247999Y-63154500D01*
X132248001Y-63154500D01*
X132389029Y-63116712D01*
X132515471Y-63043711D01*
X132618711Y-62940471D01*
X132691712Y-62814029D01*
X132729500Y-62673001D01*
X132729500Y-62526999D01*
X132691712Y-62385971D01*
X132635545Y-62288687D01*
X132618713Y-62259532D01*
X132618709Y-62259527D01*
X132565819Y-62206637D01*
X132532334Y-62145314D01*
X132529500Y-62118956D01*
X132529500Y-58073360D01*
X132549185Y-58006321D01*
X132601989Y-57960566D01*
X132671147Y-57950622D01*
X132734703Y-57979647D01*
X132741181Y-57985679D01*
X132747967Y-57992465D01*
X132888616Y-58094653D01*
X132941972Y-58121839D01*
X133043521Y-58173581D01*
X133208858Y-58227302D01*
X133208859Y-58227302D01*
X133208862Y-58227303D01*
X133380574Y-58254500D01*
X133380575Y-58254500D01*
X133554425Y-58254500D01*
X133554426Y-58254500D01*
X133726138Y-58227303D01*
X133726141Y-58227302D01*
X133726142Y-58227302D01*
X133891478Y-58173581D01*
X133891478Y-58173580D01*
X133891481Y-58173580D01*
X134046384Y-58094653D01*
X134187033Y-57992465D01*
X134309965Y-57869533D01*
X134412153Y-57728884D01*
X134491080Y-57573981D01*
X134522454Y-57477421D01*
X134544802Y-57408642D01*
X134544802Y-57408641D01*
X134544803Y-57408638D01*
X134572000Y-57236926D01*
X134572000Y-57063074D01*
X134544803Y-56891362D01*
X134544802Y-56891358D01*
X134544802Y-56891357D01*
X134491081Y-56726021D01*
X134426633Y-56599535D01*
X134412153Y-56571116D01*
X134309965Y-56430467D01*
X134187033Y-56307535D01*
X134046384Y-56205347D01*
X133995629Y-56179486D01*
X133891478Y-56126418D01*
X133726141Y-56072697D01*
X133578664Y-56049339D01*
X133554426Y-56045500D01*
X133380574Y-56045500D01*
X133323336Y-56054565D01*
X133208860Y-56072697D01*
X133208857Y-56072697D01*
X133043521Y-56126418D01*
X132888615Y-56205347D01*
X132855372Y-56229500D01*
X132747967Y-56307535D01*
X132747965Y-56307537D01*
X132747964Y-56307537D01*
X132741181Y-56314321D01*
X132721744Y-56324933D01*
X132705011Y-56339434D01*
X132691679Y-56341350D01*
X132679858Y-56347806D01*
X132657771Y-56346226D01*
X132635853Y-56349378D01*
X132623601Y-56343782D01*
X132610166Y-56342822D01*
X132592439Y-56329551D01*
X132572297Y-56320353D01*
X132565014Y-56309021D01*
X132554233Y-56300950D01*
X132546495Y-56280204D01*
X132534523Y-56261575D01*
X132531371Y-56239656D01*
X132529816Y-56235486D01*
X132529500Y-56226640D01*
X132529500Y-56100700D01*
X132549185Y-56033661D01*
X132565815Y-56013023D01*
X132915625Y-55663212D01*
X132976946Y-55629729D01*
X133041622Y-55632964D01*
X133134720Y-55663213D01*
X133208862Y-55687303D01*
X133380574Y-55714500D01*
X133380575Y-55714500D01*
X133554425Y-55714500D01*
X133554426Y-55714500D01*
X133726138Y-55687303D01*
X133891481Y-55633580D01*
X133891491Y-55633574D01*
X133893374Y-55632963D01*
X133963215Y-55630967D01*
X134019374Y-55663213D01*
X136993829Y-58637668D01*
X137059832Y-58703671D01*
X137140668Y-58750341D01*
X137230829Y-58774500D01*
X137836501Y-58774500D01*
X137903540Y-58794185D01*
X137949295Y-58846989D01*
X137960501Y-58898500D01*
X137960501Y-59295066D01*
X137969314Y-59339375D01*
X137975266Y-59369301D01*
X138031515Y-59453484D01*
X138035248Y-59455978D01*
X138115699Y-59509734D01*
X138115702Y-59509734D01*
X138115703Y-59509735D01*
X138140666Y-59514700D01*
X138189933Y-59524500D01*
X139940066Y-59524499D01*
X140014301Y-59509734D01*
X140098484Y-59453484D01*
X140154734Y-59369301D01*
X140169500Y-59295067D01*
X140169499Y-57544934D01*
X140154734Y-57470699D01*
X140113860Y-57409527D01*
X140098484Y-57386515D01*
X140032905Y-57342697D01*
X140014301Y-57330266D01*
X140014299Y-57330265D01*
X140014296Y-57330264D01*
X139940069Y-57315500D01*
X138189936Y-57315500D01*
X138115698Y-57330266D01*
X138031515Y-57386515D01*
X137975266Y-57470699D01*
X137975264Y-57470703D01*
X137960500Y-57544928D01*
X137960500Y-57941500D01*
X137940815Y-58008539D01*
X137888011Y-58054294D01*
X137836500Y-58065500D01*
X137475701Y-58065500D01*
X137408662Y-58045815D01*
X137388020Y-58029181D01*
X135151913Y-55793074D01*
X137960500Y-55793074D01*
X137960500Y-55966926D01*
X137967801Y-56013019D01*
X137987697Y-56138639D01*
X137987697Y-56138642D01*
X138041418Y-56303978D01*
X138062945Y-56346226D01*
X138120347Y-56458884D01*
X138222535Y-56599533D01*
X138345467Y-56722465D01*
X138486116Y-56824653D01*
X138617030Y-56891357D01*
X138641021Y-56903581D01*
X138806358Y-56957302D01*
X138806359Y-56957302D01*
X138806362Y-56957303D01*
X138978074Y-56984500D01*
X138978075Y-56984500D01*
X139151925Y-56984500D01*
X139151926Y-56984500D01*
X139323638Y-56957303D01*
X139323641Y-56957302D01*
X139323642Y-56957302D01*
X139488978Y-56903581D01*
X139488978Y-56903580D01*
X139488981Y-56903580D01*
X139643884Y-56824653D01*
X139784533Y-56722465D01*
X139907465Y-56599533D01*
X140009653Y-56458884D01*
X140088580Y-56303981D01*
X140096306Y-56280204D01*
X140142302Y-56138642D01*
X140142302Y-56138641D01*
X140142303Y-56138638D01*
X140169500Y-55966926D01*
X140169500Y-55793074D01*
X140142303Y-55621362D01*
X140142302Y-55621358D01*
X140142302Y-55621357D01*
X140088581Y-55456021D01*
X140057033Y-55394104D01*
X140009653Y-55301116D01*
X139907465Y-55160467D01*
X139784533Y-55037535D01*
X139643884Y-54935347D01*
X139541542Y-54883201D01*
X139488978Y-54856418D01*
X139323641Y-54802697D01*
X139194854Y-54782299D01*
X139151926Y-54775500D01*
X138978074Y-54775500D01*
X138920836Y-54784565D01*
X138806360Y-54802697D01*
X138806357Y-54802697D01*
X138641021Y-54856418D01*
X138486115Y-54935347D01*
X138405869Y-54993649D01*
X138345467Y-55037535D01*
X138345465Y-55037537D01*
X138345464Y-55037537D01*
X138222537Y-55160464D01*
X138222537Y-55160465D01*
X138222535Y-55160467D01*
X138201889Y-55188884D01*
X138120347Y-55301115D01*
X138041418Y-55456021D01*
X137987697Y-55621357D01*
X137987697Y-55621360D01*
X137962292Y-55781761D01*
X137960500Y-55793074D01*
X135151913Y-55793074D01*
X134520713Y-55161874D01*
X134487228Y-55100551D01*
X134490463Y-55035874D01*
X134491074Y-55033991D01*
X134491080Y-55033981D01*
X134544803Y-54868638D01*
X134572000Y-54696926D01*
X134572000Y-54523074D01*
X134544803Y-54351362D01*
X134544802Y-54351358D01*
X134544802Y-54351357D01*
X134494653Y-54197014D01*
X134494652Y-54197012D01*
X134491082Y-54186023D01*
X134433668Y-54073342D01*
X134412153Y-54031116D01*
X134309965Y-53890467D01*
X134187033Y-53767535D01*
X134046384Y-53665347D01*
X133995629Y-53639486D01*
X133891478Y-53586418D01*
X133726141Y-53532697D01*
X133597354Y-53512299D01*
X133554426Y-53505500D01*
X133380574Y-53505500D01*
X133323336Y-53514565D01*
X133208860Y-53532697D01*
X133208857Y-53532697D01*
X133043521Y-53586418D01*
X132888615Y-53665347D01*
X132853825Y-53690624D01*
X132747967Y-53767535D01*
X132747965Y-53767537D01*
X132747964Y-53767537D01*
X132625037Y-53890464D01*
X132625037Y-53890465D01*
X132625035Y-53890467D01*
X132581149Y-53950869D01*
X132522847Y-54031115D01*
X132443918Y-54186021D01*
X132390197Y-54351357D01*
X132390197Y-54351360D01*
X132363000Y-54523074D01*
X132363000Y-54696925D01*
X132390197Y-54868639D01*
X132390197Y-54868642D01*
X132444535Y-55035875D01*
X132446530Y-55105716D01*
X132414285Y-55161874D01*
X131957332Y-55618829D01*
X131891330Y-55684830D01*
X131891328Y-55684833D01*
X131844659Y-55765667D01*
X131844659Y-55765668D01*
X131824279Y-55841728D01*
X131820500Y-55855830D01*
X131820500Y-56190202D01*
X131800815Y-56257241D01*
X131748011Y-56302996D01*
X131678853Y-56312940D01*
X131623614Y-56290520D01*
X131506384Y-56205347D01*
X131351478Y-56126418D01*
X131186141Y-56072697D01*
X131038664Y-56049339D01*
X131014426Y-56045500D01*
X130840574Y-56045500D01*
X130783336Y-56054565D01*
X130668860Y-56072697D01*
X130668857Y-56072697D01*
X130503521Y-56126418D01*
X130348615Y-56205347D01*
X130315372Y-56229500D01*
X130207967Y-56307535D01*
X130207965Y-56307537D01*
X130207964Y-56307537D01*
X130085037Y-56430464D01*
X130085037Y-56430465D01*
X130085035Y-56430467D01*
X130070947Y-56449858D01*
X129982847Y-56571115D01*
X129903918Y-56726021D01*
X129850197Y-56891357D01*
X129850197Y-56891360D01*
X129838388Y-56965917D01*
X129823000Y-57063074D01*
X125864362Y-57063074D01*
X125767207Y-56965919D01*
X125767203Y-56965916D01*
X125594490Y-56850512D01*
X125594488Y-56850511D01*
X125402590Y-56771025D01*
X125402578Y-56771022D01*
X125198862Y-56730500D01*
X125198859Y-56730500D01*
X124991141Y-56730500D01*
X124991138Y-56730500D01*
X124787421Y-56771022D01*
X124787409Y-56771025D01*
X124595511Y-56850511D01*
X124595509Y-56850512D01*
X124422796Y-56965916D01*
X124422792Y-56965919D01*
X124275919Y-57112792D01*
X124275916Y-57112796D01*
X124160512Y-57285509D01*
X124160511Y-57285511D01*
X124081025Y-57477409D01*
X124081022Y-57477421D01*
X124040500Y-57681136D01*
X123679500Y-57681136D01*
X123679500Y-55141136D01*
X124040500Y-55141136D01*
X124040500Y-55348863D01*
X124081022Y-55552578D01*
X124081025Y-55552590D01*
X124160511Y-55744488D01*
X124160512Y-55744490D01*
X124275916Y-55917203D01*
X124275919Y-55917207D01*
X124422792Y-56064080D01*
X124422796Y-56064083D01*
X124595507Y-56179486D01*
X124595508Y-56179486D01*
X124595509Y-56179487D01*
X124595511Y-56179488D01*
X124740771Y-56239656D01*
X124787414Y-56258976D01*
X124945996Y-56290520D01*
X124991136Y-56299499D01*
X124991139Y-56299500D01*
X124991141Y-56299500D01*
X125198861Y-56299500D01*
X125198862Y-56299499D01*
X125402586Y-56258976D01*
X125594493Y-56179486D01*
X125767204Y-56064083D01*
X125914083Y-55917204D01*
X126029486Y-55744493D01*
X126108976Y-55552586D01*
X126149500Y-55348859D01*
X126149500Y-55141141D01*
X126149500Y-55141138D01*
X126149499Y-55141136D01*
X126108977Y-54937421D01*
X126108976Y-54937414D01*
X126089165Y-54889586D01*
X126029488Y-54745511D01*
X126029487Y-54745509D01*
X125914083Y-54572796D01*
X125914080Y-54572792D01*
X125767207Y-54425919D01*
X125767203Y-54425916D01*
X125594490Y-54310512D01*
X125594488Y-54310511D01*
X125402590Y-54231025D01*
X125402578Y-54231022D01*
X125198862Y-54190500D01*
X125198859Y-54190500D01*
X124991141Y-54190500D01*
X124991138Y-54190500D01*
X124787421Y-54231022D01*
X124787409Y-54231025D01*
X124595511Y-54310511D01*
X124595509Y-54310512D01*
X124422796Y-54425916D01*
X124422792Y-54425919D01*
X124275919Y-54572792D01*
X124275916Y-54572796D01*
X124160512Y-54745509D01*
X124160511Y-54745511D01*
X124081025Y-54937409D01*
X124081022Y-54937421D01*
X124040500Y-55141136D01*
X123679500Y-55141136D01*
X123679500Y-54481044D01*
X123699185Y-54414005D01*
X123715819Y-54393363D01*
X123720136Y-54389046D01*
X123768711Y-54340471D01*
X123841712Y-54214029D01*
X123879500Y-54073001D01*
X123879500Y-53926999D01*
X123841712Y-53785971D01*
X123786664Y-53690624D01*
X123768713Y-53659532D01*
X123768709Y-53659527D01*
X123665472Y-53556290D01*
X123665467Y-53556286D01*
X123539031Y-53483289D01*
X123539030Y-53483288D01*
X123539029Y-53483288D01*
X123398001Y-53445500D01*
X123251999Y-53445500D01*
X123110971Y-53483288D01*
X123110968Y-53483289D01*
X122984532Y-53556286D01*
X122984527Y-53556290D01*
X122881290Y-53659527D01*
X122881286Y-53659532D01*
X122808289Y-53785968D01*
X122808288Y-53785971D01*
X122770500Y-53926999D01*
X120004500Y-53926999D01*
X120004500Y-52601136D01*
X124040500Y-52601136D01*
X124040500Y-52808863D01*
X124081022Y-53012578D01*
X124081025Y-53012590D01*
X124160511Y-53204488D01*
X124160512Y-53204490D01*
X124275916Y-53377203D01*
X124275919Y-53377207D01*
X124422792Y-53524080D01*
X124422796Y-53524083D01*
X124595507Y-53639486D01*
X124595508Y-53639486D01*
X124595509Y-53639487D01*
X124595511Y-53639488D01*
X124783860Y-53717504D01*
X124787414Y-53718976D01*
X124991136Y-53759499D01*
X124991139Y-53759500D01*
X124991141Y-53759500D01*
X125198861Y-53759500D01*
X125198862Y-53759499D01*
X125402586Y-53718976D01*
X125471035Y-53690623D01*
X125540499Y-53683155D01*
X125602979Y-53714429D01*
X125606165Y-53717504D01*
X126684181Y-54795520D01*
X126717666Y-54856843D01*
X126720500Y-54883201D01*
X126720500Y-55193956D01*
X126700815Y-55260995D01*
X126684181Y-55281637D01*
X126631290Y-55334527D01*
X126631286Y-55334532D01*
X126558289Y-55460968D01*
X126558288Y-55460971D01*
X126520500Y-55601999D01*
X126520500Y-55748001D01*
X126549393Y-55855830D01*
X126558288Y-55889028D01*
X126558289Y-55889031D01*
X126631286Y-56015467D01*
X126631288Y-56015470D01*
X126631289Y-56015471D01*
X126734529Y-56118711D01*
X126734530Y-56118712D01*
X126734532Y-56118713D01*
X126797750Y-56155211D01*
X126860971Y-56191712D01*
X127001999Y-56229500D01*
X127002001Y-56229500D01*
X127147999Y-56229500D01*
X127148001Y-56229500D01*
X127289029Y-56191712D01*
X127415471Y-56118711D01*
X127518711Y-56015471D01*
X127591712Y-55889029D01*
X127629500Y-55748001D01*
X127629500Y-55601999D01*
X127591712Y-55460971D01*
X127555211Y-55397750D01*
X127518713Y-55334532D01*
X127518709Y-55334527D01*
X127465819Y-55281637D01*
X127432334Y-55220314D01*
X127429500Y-55193956D01*
X127429500Y-54638330D01*
X127413201Y-54577504D01*
X127405341Y-54548168D01*
X127390853Y-54523074D01*
X129823000Y-54523074D01*
X129823000Y-54696925D01*
X129850197Y-54868639D01*
X129850197Y-54868642D01*
X129903918Y-55033978D01*
X129937839Y-55100551D01*
X129982847Y-55188884D01*
X130085035Y-55329533D01*
X130207967Y-55452465D01*
X130348616Y-55554653D01*
X130441538Y-55601999D01*
X130503521Y-55633581D01*
X130668858Y-55687302D01*
X130668859Y-55687302D01*
X130668862Y-55687303D01*
X130840574Y-55714500D01*
X130840575Y-55714500D01*
X131014425Y-55714500D01*
X131014426Y-55714500D01*
X131186138Y-55687303D01*
X131186141Y-55687302D01*
X131186142Y-55687302D01*
X131351478Y-55633581D01*
X131351478Y-55633580D01*
X131351481Y-55633580D01*
X131506384Y-55554653D01*
X131647033Y-55452465D01*
X131769965Y-55329533D01*
X131872153Y-55188884D01*
X131951080Y-55033981D01*
X131982454Y-54937421D01*
X132004802Y-54868642D01*
X132004802Y-54868641D01*
X132004803Y-54868638D01*
X132032000Y-54696926D01*
X132032000Y-54523074D01*
X132004803Y-54351362D01*
X132004802Y-54351358D01*
X132004802Y-54351357D01*
X131951081Y-54186021D01*
X131893668Y-54073342D01*
X131872153Y-54031116D01*
X131769965Y-53890467D01*
X131647033Y-53767535D01*
X131506384Y-53665347D01*
X131455629Y-53639486D01*
X131351478Y-53586418D01*
X131186141Y-53532697D01*
X131057354Y-53512299D01*
X131014426Y-53505500D01*
X130840574Y-53505500D01*
X130783336Y-53514565D01*
X130668860Y-53532697D01*
X130668857Y-53532697D01*
X130503521Y-53586418D01*
X130348615Y-53665347D01*
X130313825Y-53690624D01*
X130207967Y-53767535D01*
X130207965Y-53767537D01*
X130207964Y-53767537D01*
X130085037Y-53890464D01*
X130085037Y-53890465D01*
X130085035Y-53890467D01*
X130041149Y-53950869D01*
X129982847Y-54031115D01*
X129903918Y-54186021D01*
X129850197Y-54351357D01*
X129850197Y-54351360D01*
X129823000Y-54523074D01*
X127390853Y-54523074D01*
X127358671Y-54467332D01*
X127292668Y-54401329D01*
X126144446Y-53253107D01*
X137961000Y-53253107D01*
X137961000Y-53426892D01*
X137988183Y-53598521D01*
X138041884Y-53763793D01*
X138120774Y-53918622D01*
X138199043Y-54026349D01*
X138199044Y-54026350D01*
X138633234Y-53592159D01*
X138664901Y-53647007D01*
X138757993Y-53740099D01*
X138812839Y-53771764D01*
X138378648Y-54205955D01*
X138486377Y-54284225D01*
X138641206Y-54363115D01*
X138806478Y-54416816D01*
X138978108Y-54444000D01*
X139151892Y-54444000D01*
X139323521Y-54416816D01*
X139488793Y-54363115D01*
X139643614Y-54284229D01*
X139643620Y-54284225D01*
X139751349Y-54205955D01*
X139751350Y-54205954D01*
X139317160Y-53771764D01*
X139372007Y-53740099D01*
X139465099Y-53647007D01*
X139496764Y-53592160D01*
X139930954Y-54026350D01*
X139930955Y-54026349D01*
X140009225Y-53918620D01*
X140009229Y-53918614D01*
X140088115Y-53763793D01*
X140141816Y-53598521D01*
X140169000Y-53426892D01*
X140169000Y-53253107D01*
X140141816Y-53081478D01*
X140088115Y-52916206D01*
X140009225Y-52761377D01*
X139930955Y-52653649D01*
X139930955Y-52653648D01*
X139496764Y-53087839D01*
X139465099Y-53032993D01*
X139372007Y-52939901D01*
X139317159Y-52908234D01*
X139751350Y-52474044D01*
X139751349Y-52474043D01*
X139643622Y-52395774D01*
X139488793Y-52316884D01*
X139323521Y-52263183D01*
X139151892Y-52236000D01*
X138978108Y-52236000D01*
X138806478Y-52263183D01*
X138641206Y-52316884D01*
X138486379Y-52395773D01*
X138486375Y-52395775D01*
X138378649Y-52474042D01*
X138378649Y-52474044D01*
X138812840Y-52908234D01*
X138757993Y-52939901D01*
X138664901Y-53032993D01*
X138633235Y-53087840D01*
X138199044Y-52653649D01*
X138199042Y-52653649D01*
X138120775Y-52761375D01*
X138120773Y-52761379D01*
X138041884Y-52916206D01*
X137988183Y-53081478D01*
X137961000Y-53253107D01*
X126144446Y-53253107D01*
X126107504Y-53216165D01*
X126101681Y-53205501D01*
X126092329Y-53197742D01*
X126085247Y-53175404D01*
X126074019Y-53154842D01*
X126074363Y-53141074D01*
X126071213Y-53131139D01*
X126075133Y-53110266D01*
X126075487Y-53096105D01*
X126077568Y-53088411D01*
X126108976Y-53012586D01*
X126149500Y-52808859D01*
X126149500Y-52601141D01*
X126149500Y-52601138D01*
X126149499Y-52601136D01*
X126128147Y-52493793D01*
X126108976Y-52397414D01*
X126091240Y-52354595D01*
X126029488Y-52205511D01*
X126029487Y-52205510D01*
X126029486Y-52205507D01*
X125914083Y-52032796D01*
X125914080Y-52032792D01*
X125864395Y-51983107D01*
X129823500Y-51983107D01*
X129823500Y-52156892D01*
X129850683Y-52328521D01*
X129904384Y-52493793D01*
X129983274Y-52648622D01*
X130061543Y-52756349D01*
X130061544Y-52756350D01*
X130495734Y-52322159D01*
X130527401Y-52377007D01*
X130620493Y-52470099D01*
X130675339Y-52501764D01*
X130241148Y-52935955D01*
X130348877Y-53014225D01*
X130503706Y-53093115D01*
X130668978Y-53146816D01*
X130840608Y-53174000D01*
X131014392Y-53174000D01*
X131186021Y-53146816D01*
X131351293Y-53093115D01*
X131506114Y-53014229D01*
X131506120Y-53014225D01*
X131613849Y-52935955D01*
X131613850Y-52935954D01*
X131179660Y-52501764D01*
X131234507Y-52470099D01*
X131327599Y-52377007D01*
X131359264Y-52322160D01*
X131793454Y-52756350D01*
X131793455Y-52756349D01*
X131871725Y-52648620D01*
X131871729Y-52648614D01*
X131950615Y-52493793D01*
X132004316Y-52328521D01*
X132031500Y-52156892D01*
X132031500Y-51983107D01*
X132004316Y-51811478D01*
X131950615Y-51646206D01*
X131871722Y-51491371D01*
X131871679Y-51491312D01*
X131871677Y-51491310D01*
X131821122Y-51421728D01*
X132363000Y-51421728D01*
X132363000Y-52718251D01*
X132363001Y-52718257D01*
X132369460Y-52778344D01*
X132420155Y-52914261D01*
X132420156Y-52914264D01*
X132420158Y-52914267D01*
X132436393Y-52935955D01*
X132507095Y-53030404D01*
X132551551Y-53063682D01*
X132623233Y-53117342D01*
X132759158Y-53168040D01*
X132819245Y-53174500D01*
X134115754Y-53174499D01*
X134175842Y-53168040D01*
X134311767Y-53117342D01*
X134427904Y-53030404D01*
X134514842Y-52914267D01*
X134565540Y-52778342D01*
X134568300Y-52752664D01*
X134571999Y-52718271D01*
X134572000Y-52718254D01*
X134572000Y-52521303D01*
X134571999Y-51421748D01*
X134571999Y-51421745D01*
X134565540Y-51361658D01*
X134565539Y-51361655D01*
X134514844Y-51225738D01*
X134514843Y-51225737D01*
X134514842Y-51225733D01*
X134448225Y-51136742D01*
X134427904Y-51109595D01*
X134350626Y-51051747D01*
X134311767Y-51022658D01*
X134175842Y-50971960D01*
X134175838Y-50971959D01*
X134115762Y-50965500D01*
X132819248Y-50965500D01*
X132819242Y-50965501D01*
X132759155Y-50971960D01*
X132623238Y-51022655D01*
X132623230Y-51022660D01*
X132507095Y-51109595D01*
X132420160Y-51225730D01*
X132420158Y-51225733D01*
X132369460Y-51361658D01*
X132369459Y-51361662D01*
X132363000Y-51421728D01*
X131821122Y-51421728D01*
X131793455Y-51383649D01*
X131793455Y-51383648D01*
X131359264Y-51817839D01*
X131327599Y-51762993D01*
X131234507Y-51669901D01*
X131179659Y-51638234D01*
X131613850Y-51204044D01*
X131613849Y-51204043D01*
X131506122Y-51125774D01*
X131351293Y-51046884D01*
X131186021Y-50993183D01*
X131014392Y-50966000D01*
X130840608Y-50966000D01*
X130668978Y-50993183D01*
X130503706Y-51046884D01*
X130348879Y-51125773D01*
X130348875Y-51125775D01*
X130241149Y-51204042D01*
X130241149Y-51204044D01*
X130675340Y-51638234D01*
X130620493Y-51669901D01*
X130527401Y-51762993D01*
X130495735Y-51817840D01*
X130061544Y-51383649D01*
X130061542Y-51383649D01*
X129983275Y-51491375D01*
X129983273Y-51491379D01*
X129904384Y-51646206D01*
X129850683Y-51811478D01*
X129823500Y-51983107D01*
X125864395Y-51983107D01*
X125767207Y-51885919D01*
X125767203Y-51885916D01*
X125594490Y-51770512D01*
X125594488Y-51770511D01*
X125402590Y-51691025D01*
X125402578Y-51691022D01*
X125198862Y-51650500D01*
X125198859Y-51650500D01*
X124991141Y-51650500D01*
X124991138Y-51650500D01*
X124787421Y-51691022D01*
X124787409Y-51691025D01*
X124595511Y-51770511D01*
X124595509Y-51770512D01*
X124422796Y-51885916D01*
X124422792Y-51885919D01*
X124275919Y-52032792D01*
X124275916Y-52032796D01*
X124160512Y-52205509D01*
X124160511Y-52205511D01*
X124081025Y-52397409D01*
X124081022Y-52397421D01*
X124040500Y-52601136D01*
X120004500Y-52601136D01*
X120004500Y-51781044D01*
X120024185Y-51714005D01*
X120040819Y-51693363D01*
X120065102Y-51669080D01*
X120093711Y-51640471D01*
X120166712Y-51514029D01*
X120204500Y-51373001D01*
X120204500Y-51226999D01*
X120166712Y-51085971D01*
X120107887Y-50984083D01*
X120093713Y-50959532D01*
X120093709Y-50959527D01*
X119990472Y-50856290D01*
X119990467Y-50856286D01*
X119974863Y-50847277D01*
X119926649Y-50796709D01*
X119913427Y-50728102D01*
X119939396Y-50663238D01*
X119949175Y-50652219D01*
X120908671Y-49692725D01*
X120924385Y-49665507D01*
X120955341Y-49611889D01*
X120979500Y-49521728D01*
X120979500Y-47426999D01*
X121545500Y-47426999D01*
X121545500Y-47573001D01*
X121575385Y-47684532D01*
X121583288Y-47714028D01*
X121583289Y-47714031D01*
X121656286Y-47840467D01*
X121656290Y-47840472D01*
X121709181Y-47893363D01*
X121742666Y-47954686D01*
X121745500Y-47981044D01*
X121745500Y-49493956D01*
X121725815Y-49560995D01*
X121709181Y-49581637D01*
X121656290Y-49634527D01*
X121656286Y-49634532D01*
X121583289Y-49760968D01*
X121583288Y-49760971D01*
X121545500Y-49901999D01*
X121545500Y-50048001D01*
X121554199Y-50080464D01*
X121583288Y-50189028D01*
X121583289Y-50189031D01*
X121656286Y-50315467D01*
X121656288Y-50315470D01*
X121656289Y-50315471D01*
X121759529Y-50418711D01*
X121759530Y-50418712D01*
X121759532Y-50418713D01*
X121822750Y-50455211D01*
X121885971Y-50491712D01*
X122026999Y-50529500D01*
X122027001Y-50529500D01*
X122172999Y-50529500D01*
X122173001Y-50529500D01*
X122314029Y-50491712D01*
X122440471Y-50418711D01*
X122543711Y-50315471D01*
X122616712Y-50189029D01*
X122654500Y-50048001D01*
X122654500Y-49901999D01*
X122616712Y-49760971D01*
X122561604Y-49665520D01*
X122543713Y-49634532D01*
X122543709Y-49634527D01*
X122490819Y-49581637D01*
X122457334Y-49520314D01*
X122454500Y-49493956D01*
X122454500Y-47981044D01*
X122474185Y-47914005D01*
X122490819Y-47893363D01*
X122543711Y-47840471D01*
X122616712Y-47714029D01*
X122654500Y-47573001D01*
X122654500Y-47426999D01*
X122616712Y-47285971D01*
X122580211Y-47222750D01*
X122543713Y-47159532D01*
X122543709Y-47159527D01*
X122440472Y-47056290D01*
X122440467Y-47056286D01*
X122314031Y-46983289D01*
X122314030Y-46983288D01*
X122314029Y-46983288D01*
X122173001Y-46945500D01*
X122026999Y-46945500D01*
X121885971Y-46983288D01*
X121885968Y-46983289D01*
X121759532Y-47056286D01*
X121759527Y-47056290D01*
X121656290Y-47159527D01*
X121656286Y-47159532D01*
X121583289Y-47285968D01*
X121583288Y-47285971D01*
X121545500Y-47426999D01*
X120979500Y-47426999D01*
X120979500Y-41849050D01*
X120999185Y-41782011D01*
X121051989Y-41736256D01*
X121121147Y-41726312D01*
X121184703Y-41755337D01*
X121191181Y-41761369D01*
X121205111Y-41775299D01*
X121205115Y-41775302D01*
X121369522Y-41885156D01*
X121552202Y-41960825D01*
X121746129Y-41999399D01*
X121746133Y-41999400D01*
X121746134Y-41999400D01*
X121943867Y-41999400D01*
X121943868Y-41999399D01*
X122137798Y-41960825D01*
X122320478Y-41885156D01*
X122484885Y-41775302D01*
X122624702Y-41635485D01*
X122734556Y-41471078D01*
X122810225Y-41288398D01*
X122848800Y-41094466D01*
X122848800Y-40896734D01*
X122810225Y-40702802D01*
X122734556Y-40520122D01*
X122624702Y-40355715D01*
X122624700Y-40355713D01*
X122624699Y-40355711D01*
X122484888Y-40215900D01*
X122484884Y-40215897D01*
X122320475Y-40106042D01*
X122137798Y-40030375D01*
X122137790Y-40030373D01*
X121943870Y-39991800D01*
X121943866Y-39991800D01*
X121746134Y-39991800D01*
X121746129Y-39991800D01*
X121552209Y-40030373D01*
X121552201Y-40030375D01*
X121369524Y-40106042D01*
X121205115Y-40215897D01*
X121205111Y-40215900D01*
X121191181Y-40229831D01*
X121129858Y-40263316D01*
X121060166Y-40258332D01*
X121004233Y-40216460D01*
X120979816Y-40150996D01*
X120979500Y-40142150D01*
X120979500Y-37601999D01*
X123095500Y-37601999D01*
X123095500Y-37748001D01*
X123115596Y-37822999D01*
X123133288Y-37889028D01*
X123133289Y-37889031D01*
X123206286Y-38015467D01*
X123206290Y-38015472D01*
X123259181Y-38068363D01*
X123292666Y-38129686D01*
X123295500Y-38156044D01*
X123295500Y-48673329D01*
X123295500Y-48766671D01*
X123315161Y-48840044D01*
X123319659Y-48856832D01*
X123366328Y-48937666D01*
X123366330Y-48937669D01*
X124082494Y-49653833D01*
X124115979Y-49715156D01*
X124110995Y-49784848D01*
X124109375Y-49788965D01*
X124081024Y-49857413D01*
X124081022Y-49857416D01*
X124040500Y-50061136D01*
X124040500Y-50268863D01*
X124081022Y-50472578D01*
X124081025Y-50472590D01*
X124160511Y-50664488D01*
X124160512Y-50664490D01*
X124275916Y-50837203D01*
X124275919Y-50837207D01*
X124422792Y-50984080D01*
X124422796Y-50984083D01*
X124595507Y-51099486D01*
X124595508Y-51099486D01*
X124595509Y-51099487D01*
X124595511Y-51099488D01*
X124685451Y-51136742D01*
X124787414Y-51178976D01*
X124991136Y-51219499D01*
X124991139Y-51219500D01*
X124991141Y-51219500D01*
X125198861Y-51219500D01*
X125198862Y-51219499D01*
X125402586Y-51178976D01*
X125531026Y-51125775D01*
X125570068Y-51109603D01*
X125594493Y-51099486D01*
X125767204Y-50984083D01*
X125914083Y-50837204D01*
X125997025Y-50713074D01*
X137960500Y-50713074D01*
X137960500Y-50886925D01*
X137987697Y-51058639D01*
X137987697Y-51058642D01*
X138041418Y-51223978D01*
X138111568Y-51361655D01*
X138120347Y-51378884D01*
X138222535Y-51519533D01*
X138345467Y-51642465D01*
X138486116Y-51744653D01*
X138641019Y-51823580D01*
X138641021Y-51823581D01*
X138806358Y-51877302D01*
X138806359Y-51877302D01*
X138806362Y-51877303D01*
X138978074Y-51904500D01*
X138978075Y-51904500D01*
X139151925Y-51904500D01*
X139151926Y-51904500D01*
X139323638Y-51877303D01*
X139323641Y-51877302D01*
X139323642Y-51877302D01*
X139488978Y-51823581D01*
X139488978Y-51823580D01*
X139488981Y-51823580D01*
X139643884Y-51744653D01*
X139784533Y-51642465D01*
X139907465Y-51519533D01*
X140009653Y-51378884D01*
X140088580Y-51223981D01*
X140096340Y-51200099D01*
X140142302Y-51058642D01*
X140142302Y-51058641D01*
X140142303Y-51058638D01*
X140169500Y-50886926D01*
X140169500Y-50713074D01*
X140142303Y-50541362D01*
X140142302Y-50541358D01*
X140142302Y-50541357D01*
X140088581Y-50376021D01*
X140033979Y-50268859D01*
X140009653Y-50221116D01*
X139907465Y-50080467D01*
X139784533Y-49957535D01*
X139643884Y-49855347D01*
X139635148Y-49850896D01*
X139488978Y-49776418D01*
X139323641Y-49722697D01*
X139194854Y-49702299D01*
X139151926Y-49695500D01*
X138978074Y-49695500D01*
X138920836Y-49704565D01*
X138806360Y-49722697D01*
X138806357Y-49722697D01*
X138641021Y-49776418D01*
X138486115Y-49855347D01*
X138405869Y-49913649D01*
X138345467Y-49957535D01*
X138345465Y-49957537D01*
X138345464Y-49957537D01*
X138222537Y-50080464D01*
X138222537Y-50080465D01*
X138222535Y-50080467D01*
X138178649Y-50140869D01*
X138120347Y-50221115D01*
X138041418Y-50376021D01*
X137987697Y-50541357D01*
X137987697Y-50541360D01*
X137960500Y-50713074D01*
X125997025Y-50713074D01*
X126029486Y-50664493D01*
X126108976Y-50472586D01*
X126149500Y-50268859D01*
X126149500Y-50061141D01*
X126149500Y-50061138D01*
X126149499Y-50061136D01*
X126117845Y-49902001D01*
X126108976Y-49857414D01*
X126080624Y-49788965D01*
X126029488Y-49665511D01*
X126029484Y-49665504D01*
X125914083Y-49492796D01*
X125914080Y-49492792D01*
X125767207Y-49345919D01*
X125767203Y-49345916D01*
X125594490Y-49230512D01*
X125594488Y-49230511D01*
X125402590Y-49151025D01*
X125402578Y-49151022D01*
X125198862Y-49110500D01*
X125198859Y-49110500D01*
X124991141Y-49110500D01*
X124991138Y-49110500D01*
X124787416Y-49151022D01*
X124787413Y-49151024D01*
X124718965Y-49179375D01*
X124649496Y-49186842D01*
X124587017Y-49155567D01*
X124583833Y-49152494D01*
X124040819Y-48609480D01*
X124007334Y-48548157D01*
X124004500Y-48521799D01*
X124004500Y-48299773D01*
X124024185Y-48232734D01*
X124076989Y-48186979D01*
X124146147Y-48177035D01*
X124209703Y-48206060D01*
X124231602Y-48230883D01*
X124275913Y-48297199D01*
X124275919Y-48297207D01*
X124422792Y-48444080D01*
X124422796Y-48444083D01*
X124595507Y-48559486D01*
X124595508Y-48559486D01*
X124595509Y-48559487D01*
X124595511Y-48559488D01*
X124780166Y-48635974D01*
X124787414Y-48638976D01*
X124979287Y-48677142D01*
X124991136Y-48679499D01*
X124991139Y-48679500D01*
X124991141Y-48679500D01*
X125198861Y-48679500D01*
X125198862Y-48679499D01*
X125402586Y-48638976D01*
X125594493Y-48559486D01*
X125767204Y-48444083D01*
X125914083Y-48297204D01*
X126029486Y-48124493D01*
X126108976Y-47932586D01*
X126149500Y-47728859D01*
X126149500Y-47521141D01*
X126149500Y-47521138D01*
X126149499Y-47521136D01*
X126108977Y-47317421D01*
X126108976Y-47317414D01*
X126080624Y-47248966D01*
X126029488Y-47125511D01*
X126029487Y-47125509D01*
X126023813Y-47117018D01*
X125914083Y-46952796D01*
X125914080Y-46952792D01*
X125767207Y-46805919D01*
X125767203Y-46805916D01*
X125594490Y-46690512D01*
X125594488Y-46690511D01*
X125402590Y-46611025D01*
X125402578Y-46611022D01*
X125198862Y-46570500D01*
X125198859Y-46570500D01*
X124991141Y-46570500D01*
X124991138Y-46570500D01*
X124787421Y-46611022D01*
X124787409Y-46611025D01*
X124595511Y-46690511D01*
X124595509Y-46690512D01*
X124422796Y-46805916D01*
X124422792Y-46805919D01*
X124275919Y-46952792D01*
X124275916Y-46952796D01*
X124231602Y-47019117D01*
X124177990Y-47063922D01*
X124108665Y-47072629D01*
X124045637Y-47042474D01*
X124008918Y-46983031D01*
X124004500Y-46950226D01*
X124004500Y-46107682D01*
X124024185Y-46040643D01*
X124076989Y-45994888D01*
X124146147Y-45984944D01*
X124202810Y-46008414D01*
X124300975Y-46081898D01*
X124436768Y-46132547D01*
X124496780Y-46138999D01*
X124967999Y-46138999D01*
X124968000Y-46138998D01*
X124968000Y-45465081D01*
X125042339Y-45485000D01*
X125147661Y-45485000D01*
X125222000Y-45465081D01*
X125222000Y-46138999D01*
X125693207Y-46138999D01*
X125693216Y-46138998D01*
X125753235Y-46132547D01*
X125753238Y-46132546D01*
X125889021Y-46081900D01*
X125889027Y-46081896D01*
X126005047Y-45995047D01*
X126091896Y-45879027D01*
X126091897Y-45879025D01*
X126142547Y-45743231D01*
X126148999Y-45683227D01*
X126149000Y-45683210D01*
X126149000Y-45212000D01*
X125475081Y-45212000D01*
X125495000Y-45137661D01*
X125495000Y-45032339D01*
X125475081Y-44958000D01*
X126148999Y-44958000D01*
X126148999Y-44486792D01*
X126148998Y-44486783D01*
X126142547Y-44426764D01*
X126142546Y-44426761D01*
X126091900Y-44290978D01*
X126091896Y-44290972D01*
X126005047Y-44174952D01*
X125889027Y-44088103D01*
X125889025Y-44088102D01*
X125753231Y-44037452D01*
X125693227Y-44031000D01*
X125222000Y-44031000D01*
X125222000Y-44704918D01*
X125147661Y-44685000D01*
X125042339Y-44685000D01*
X124968000Y-44704918D01*
X124968000Y-44031000D01*
X124496792Y-44031000D01*
X124496783Y-44031001D01*
X124436764Y-44037452D01*
X124436761Y-44037453D01*
X124300978Y-44088099D01*
X124300971Y-44088103D01*
X124202809Y-44161585D01*
X124137344Y-44186001D01*
X124069072Y-44171148D01*
X124019667Y-44121742D01*
X124004500Y-44062317D01*
X124004500Y-38156044D01*
X124024185Y-38089005D01*
X124040819Y-38068363D01*
X124062063Y-38047119D01*
X124093711Y-38015471D01*
X124166712Y-37889029D01*
X124204500Y-37748001D01*
X124204500Y-37601999D01*
X124166712Y-37460971D01*
X124093711Y-37334529D01*
X123990471Y-37231289D01*
X123990470Y-37231288D01*
X123990467Y-37231286D01*
X123864031Y-37158289D01*
X123864030Y-37158288D01*
X123864029Y-37158288D01*
X123723001Y-37120500D01*
X123576999Y-37120500D01*
X123435971Y-37158288D01*
X123435968Y-37158289D01*
X123309532Y-37231286D01*
X123309527Y-37231290D01*
X123206290Y-37334527D01*
X123206286Y-37334532D01*
X123133289Y-37460968D01*
X123133288Y-37460971D01*
X123095500Y-37601999D01*
X120979500Y-37601999D01*
X120979500Y-37349049D01*
X120999185Y-37282010D01*
X121051989Y-37236255D01*
X121121147Y-37226311D01*
X121184703Y-37255336D01*
X121191181Y-37261368D01*
X121205111Y-37275298D01*
X121205115Y-37275301D01*
X121369522Y-37385155D01*
X121552202Y-37460824D01*
X121733284Y-37496843D01*
X121746129Y-37499398D01*
X121746133Y-37499399D01*
X121746134Y-37499399D01*
X121943867Y-37499399D01*
X121943868Y-37499398D01*
X122018106Y-37484632D01*
X122080332Y-37472255D01*
X122104914Y-37467364D01*
X122137798Y-37460824D01*
X122320478Y-37385155D01*
X122484885Y-37275301D01*
X122624702Y-37135484D01*
X122734556Y-36971077D01*
X122810225Y-36788397D01*
X122848800Y-36594465D01*
X122848800Y-36396733D01*
X122810225Y-36202801D01*
X122734556Y-36020121D01*
X122624702Y-35855714D01*
X122624699Y-35855710D01*
X122484888Y-35715899D01*
X122484884Y-35715896D01*
X122390158Y-35652602D01*
X122345353Y-35598990D01*
X122336646Y-35529665D01*
X122366800Y-35466637D01*
X122426243Y-35429918D01*
X122459049Y-35425500D01*
X127271980Y-35425500D01*
X127339019Y-35445185D01*
X127384774Y-35497989D01*
X127394718Y-35567147D01*
X127375082Y-35618391D01*
X127355967Y-35646998D01*
X127355965Y-35647002D01*
X127341201Y-35721227D01*
X127341201Y-37269962D01*
X127355967Y-37344200D01*
X127412216Y-37428383D01*
X127445935Y-37450913D01*
X127496400Y-37484633D01*
X127496403Y-37484633D01*
X127496404Y-37484634D01*
X127521367Y-37489599D01*
X127570634Y-37499399D01*
X128796099Y-37499398D01*
X128863138Y-37519083D01*
X128883780Y-37535717D01*
X129309181Y-37961118D01*
X129342666Y-38022441D01*
X129345500Y-38048799D01*
X129345500Y-40278199D01*
X129325815Y-40345238D01*
X129273011Y-40390993D01*
X129203853Y-40400937D01*
X129140297Y-40371912D01*
X129125650Y-40356868D01*
X129124702Y-40355713D01*
X128984889Y-40215900D01*
X128984885Y-40215897D01*
X128820476Y-40106042D01*
X128637799Y-40030375D01*
X128637791Y-40030373D01*
X128443871Y-39991800D01*
X128443867Y-39991800D01*
X128246135Y-39991800D01*
X128246130Y-39991800D01*
X128052210Y-40030373D01*
X128052202Y-40030375D01*
X127869525Y-40106042D01*
X127705116Y-40215897D01*
X127705112Y-40215900D01*
X127565301Y-40355711D01*
X127565298Y-40355715D01*
X127455443Y-40520124D01*
X127379776Y-40702801D01*
X127379774Y-40702809D01*
X127341201Y-40896729D01*
X127341201Y-41094470D01*
X127379774Y-41288390D01*
X127379776Y-41288398D01*
X127455443Y-41471075D01*
X127565298Y-41635484D01*
X127565301Y-41635488D01*
X127705112Y-41775299D01*
X127705116Y-41775302D01*
X127869523Y-41885156D01*
X128052203Y-41960825D01*
X128246130Y-41999399D01*
X128246134Y-41999400D01*
X128246135Y-41999400D01*
X128443868Y-41999400D01*
X128443869Y-41999399D01*
X128637799Y-41960825D01*
X128820479Y-41885156D01*
X128984886Y-41775302D01*
X129124703Y-41635485D01*
X129124704Y-41635482D01*
X129125644Y-41634339D01*
X129126290Y-41633898D01*
X129129011Y-41631178D01*
X129129526Y-41631693D01*
X129183388Y-41595002D01*
X129253233Y-41593129D01*
X129313002Y-41629314D01*
X129343721Y-41692069D01*
X129345500Y-41713000D01*
X129345500Y-45635183D01*
X129328889Y-45697180D01*
X129319660Y-45713165D01*
X129319659Y-45713166D01*
X129295500Y-45803330D01*
X129295500Y-48368956D01*
X129275815Y-48435995D01*
X129259181Y-48456637D01*
X129206290Y-48509527D01*
X129206286Y-48509532D01*
X129133289Y-48635968D01*
X129133288Y-48635971D01*
X129095500Y-48776999D01*
X129095500Y-48923001D01*
X129099431Y-48937669D01*
X129133288Y-49064028D01*
X129133289Y-49064031D01*
X129206286Y-49190467D01*
X129206288Y-49190470D01*
X129206289Y-49190471D01*
X129309529Y-49293711D01*
X129435971Y-49366712D01*
X129576999Y-49404500D01*
X129577001Y-49404500D01*
X129722999Y-49404500D01*
X129723001Y-49404500D01*
X129864029Y-49366712D01*
X129990471Y-49293711D01*
X130093711Y-49190471D01*
X130166712Y-49064029D01*
X130204500Y-48923001D01*
X130204500Y-48776999D01*
X130166712Y-48635971D01*
X130093711Y-48509529D01*
X130040819Y-48456637D01*
X130007334Y-48395314D01*
X130004500Y-48368956D01*
X130004500Y-46014815D01*
X130021115Y-45952812D01*
X130030339Y-45936835D01*
X130030338Y-45936835D01*
X130030341Y-45936832D01*
X130054500Y-45846671D01*
X130054500Y-45599275D01*
X134683000Y-45599275D01*
X134683000Y-45840724D01*
X134683001Y-45840740D01*
X134714515Y-46080116D01*
X134714516Y-46080121D01*
X134714517Y-46080127D01*
X134730292Y-46138999D01*
X134777011Y-46313360D01*
X134869414Y-46536440D01*
X134869419Y-46536451D01*
X134990142Y-46745548D01*
X134990153Y-46745564D01*
X135137138Y-46937119D01*
X135137144Y-46937126D01*
X135307873Y-47107855D01*
X135307880Y-47107861D01*
X135375213Y-47159527D01*
X135499444Y-47254853D01*
X135499451Y-47254857D01*
X135708548Y-47375580D01*
X135708553Y-47375582D01*
X135708556Y-47375584D01*
X135931638Y-47467988D01*
X136164873Y-47530483D01*
X136404269Y-47562000D01*
X136404276Y-47562000D01*
X136645724Y-47562000D01*
X136645731Y-47562000D01*
X136885127Y-47530483D01*
X137118362Y-47467988D01*
X137341444Y-47375584D01*
X137550556Y-47254853D01*
X137742121Y-47107860D01*
X137912860Y-46937121D01*
X138059853Y-46745556D01*
X138180584Y-46536444D01*
X138272988Y-46313362D01*
X138335483Y-46080127D01*
X138367000Y-45840731D01*
X138367000Y-45599269D01*
X138335483Y-45359873D01*
X138272988Y-45126638D01*
X138180584Y-44903556D01*
X138180582Y-44903553D01*
X138180580Y-44903548D01*
X138059857Y-44694451D01*
X138059853Y-44694444D01*
X137912860Y-44502879D01*
X137912855Y-44502873D01*
X137742126Y-44332144D01*
X137742119Y-44332138D01*
X137550564Y-44185153D01*
X137550562Y-44185151D01*
X137550556Y-44185147D01*
X137550551Y-44185144D01*
X137550548Y-44185142D01*
X137341451Y-44064419D01*
X137341440Y-44064414D01*
X137118360Y-43972011D01*
X137001744Y-43940764D01*
X136885127Y-43909517D01*
X136885121Y-43909516D01*
X136885116Y-43909515D01*
X136645740Y-43878001D01*
X136645737Y-43878000D01*
X136645731Y-43878000D01*
X136404269Y-43878000D01*
X136404263Y-43878000D01*
X136404259Y-43878001D01*
X136164883Y-43909515D01*
X136164876Y-43909516D01*
X136164873Y-43909517D01*
X136115582Y-43922724D01*
X135931639Y-43972011D01*
X135708559Y-44064414D01*
X135708548Y-44064419D01*
X135499451Y-44185142D01*
X135499435Y-44185153D01*
X135307880Y-44332138D01*
X135307873Y-44332144D01*
X135137144Y-44502873D01*
X135137138Y-44502880D01*
X134990153Y-44694435D01*
X134990142Y-44694451D01*
X134869419Y-44903548D01*
X134869414Y-44903559D01*
X134777011Y-45126639D01*
X134714518Y-45359870D01*
X134714515Y-45359883D01*
X134683001Y-45599259D01*
X134683000Y-45599275D01*
X130054500Y-45599275D01*
X130054500Y-40896729D01*
X130923268Y-40896729D01*
X130923268Y-41094470D01*
X130961841Y-41288390D01*
X130961843Y-41288398D01*
X131037510Y-41471075D01*
X131147365Y-41635484D01*
X131147368Y-41635488D01*
X131287179Y-41775299D01*
X131287183Y-41775302D01*
X131451590Y-41885156D01*
X131634270Y-41960825D01*
X131828197Y-41999399D01*
X131828201Y-41999400D01*
X131828202Y-41999400D01*
X132025935Y-41999400D01*
X132025936Y-41999399D01*
X132219866Y-41960825D01*
X132402546Y-41885156D01*
X132566953Y-41775302D01*
X132706770Y-41635485D01*
X132816624Y-41471078D01*
X132892293Y-41288398D01*
X132930868Y-41094466D01*
X132930868Y-40896734D01*
X132930867Y-40896729D01*
X137423269Y-40896729D01*
X137423269Y-41094470D01*
X137461842Y-41288390D01*
X137461844Y-41288398D01*
X137537511Y-41471075D01*
X137647366Y-41635484D01*
X137647369Y-41635488D01*
X137787180Y-41775299D01*
X137787184Y-41775302D01*
X137951591Y-41885156D01*
X138134271Y-41960825D01*
X138328198Y-41999399D01*
X138328202Y-41999400D01*
X138328203Y-41999400D01*
X138525936Y-41999400D01*
X138525937Y-41999399D01*
X138719867Y-41960825D01*
X138902547Y-41885156D01*
X139066954Y-41775302D01*
X139206771Y-41635485D01*
X139316625Y-41471078D01*
X139392294Y-41288398D01*
X139430869Y-41094466D01*
X139430869Y-40896734D01*
X139392294Y-40702802D01*
X139316625Y-40520122D01*
X139206771Y-40355715D01*
X139206769Y-40355713D01*
X139206768Y-40355711D01*
X139066957Y-40215900D01*
X139066953Y-40215897D01*
X138902544Y-40106042D01*
X138719867Y-40030375D01*
X138719859Y-40030373D01*
X138525939Y-39991800D01*
X138525935Y-39991800D01*
X138328203Y-39991800D01*
X138328198Y-39991800D01*
X138134278Y-40030373D01*
X138134270Y-40030375D01*
X137951593Y-40106042D01*
X137787184Y-40215897D01*
X137787180Y-40215900D01*
X137647369Y-40355711D01*
X137647366Y-40355715D01*
X137537511Y-40520124D01*
X137461844Y-40702801D01*
X137461842Y-40702809D01*
X137423269Y-40896729D01*
X132930867Y-40896729D01*
X132892293Y-40702802D01*
X132816624Y-40520122D01*
X132706770Y-40355715D01*
X132706768Y-40355713D01*
X132706767Y-40355711D01*
X132566956Y-40215900D01*
X132566952Y-40215897D01*
X132402543Y-40106042D01*
X132219866Y-40030375D01*
X132219858Y-40030373D01*
X132025938Y-39991800D01*
X132025934Y-39991800D01*
X131828202Y-39991800D01*
X131828197Y-39991800D01*
X131634277Y-40030373D01*
X131634269Y-40030375D01*
X131451592Y-40106042D01*
X131287183Y-40215897D01*
X131287179Y-40215900D01*
X131147368Y-40355711D01*
X131147365Y-40355715D01*
X131037510Y-40520124D01*
X130961843Y-40702801D01*
X130961841Y-40702809D01*
X130923268Y-40896729D01*
X130054500Y-40896729D01*
X130054500Y-37803927D01*
X130030341Y-37713766D01*
X129983671Y-37632930D01*
X129917668Y-37566927D01*
X129385119Y-37034378D01*
X129351634Y-36973055D01*
X129348800Y-36946697D01*
X129348800Y-35721235D01*
X129348800Y-35721233D01*
X129334035Y-35646998D01*
X129314919Y-35618390D01*
X129294042Y-35551713D01*
X129312527Y-35484333D01*
X129364505Y-35437643D01*
X129418022Y-35425500D01*
X131313019Y-35425500D01*
X131380058Y-35445185D01*
X131425813Y-35497989D01*
X131435757Y-35567147D01*
X131406732Y-35630703D01*
X131381910Y-35652602D01*
X131287183Y-35715896D01*
X131287179Y-35715899D01*
X131147368Y-35855710D01*
X131147365Y-35855714D01*
X131037510Y-36020123D01*
X130961843Y-36202800D01*
X130961841Y-36202808D01*
X130923268Y-36396728D01*
X130923268Y-36594469D01*
X130961841Y-36788389D01*
X130961843Y-36788397D01*
X131037510Y-36971074D01*
X131147365Y-37135483D01*
X131147368Y-37135487D01*
X131287179Y-37275298D01*
X131287183Y-37275301D01*
X131451590Y-37385155D01*
X131634270Y-37460824D01*
X131815352Y-37496843D01*
X131828197Y-37499398D01*
X131828201Y-37499399D01*
X131828202Y-37499399D01*
X132025935Y-37499399D01*
X132025936Y-37499398D01*
X132219866Y-37460824D01*
X132402546Y-37385155D01*
X132566953Y-37275301D01*
X132706770Y-37135484D01*
X132816624Y-36971077D01*
X132892293Y-36788397D01*
X132930868Y-36594465D01*
X132930868Y-36396733D01*
X132892293Y-36202801D01*
X132816624Y-36020121D01*
X132706770Y-35855714D01*
X132706767Y-35855710D01*
X132566956Y-35715899D01*
X132566952Y-35715896D01*
X132472226Y-35652602D01*
X132427421Y-35598990D01*
X132418714Y-35529665D01*
X132448868Y-35466637D01*
X132508311Y-35429918D01*
X132541117Y-35425500D01*
X137354048Y-35425500D01*
X137421087Y-35445185D01*
X137466842Y-35497989D01*
X137476786Y-35567147D01*
X137457150Y-35618391D01*
X137438035Y-35646998D01*
X137438033Y-35647002D01*
X137423269Y-35721227D01*
X137423269Y-37269962D01*
X137438035Y-37344200D01*
X137494284Y-37428383D01*
X137528003Y-37450913D01*
X137578468Y-37484633D01*
X137578471Y-37484633D01*
X137578472Y-37484634D01*
X137603435Y-37489599D01*
X137652702Y-37499399D01*
X139201435Y-37499398D01*
X139275670Y-37484633D01*
X139359853Y-37428383D01*
X139416103Y-37344200D01*
X139430869Y-37269966D01*
X139430868Y-35721233D01*
X139416103Y-35646998D01*
X139396987Y-35618390D01*
X139376110Y-35551713D01*
X139394595Y-35484333D01*
X139446573Y-35437643D01*
X139500090Y-35425500D01*
X141379473Y-35425500D01*
X141446512Y-35445185D01*
X141492267Y-35497989D01*
X141502211Y-35567147D01*
X141477849Y-35624986D01*
X141340153Y-35804435D01*
X141340142Y-35804451D01*
X141219419Y-36013548D01*
X141219414Y-36013559D01*
X141127011Y-36236639D01*
X141064518Y-36469870D01*
X141064515Y-36469883D01*
X141033001Y-36709259D01*
X141033000Y-36709275D01*
X141033000Y-36950724D01*
X141033001Y-36950740D01*
X141064515Y-37190116D01*
X141064516Y-37190121D01*
X141064517Y-37190127D01*
X141087339Y-37275301D01*
X141127011Y-37423360D01*
X141219414Y-37646440D01*
X141219419Y-37646451D01*
X141340142Y-37855548D01*
X141340153Y-37855564D01*
X141487138Y-38047119D01*
X141487144Y-38047126D01*
X141657873Y-38217855D01*
X141657880Y-38217861D01*
X141677985Y-38233288D01*
X141849444Y-38364853D01*
X141849451Y-38364857D01*
X142058548Y-38485580D01*
X142058553Y-38485582D01*
X142058556Y-38485584D01*
X142281638Y-38577988D01*
X142514873Y-38640483D01*
X142754269Y-38672000D01*
X142754276Y-38672000D01*
X142995724Y-38672000D01*
X142995731Y-38672000D01*
X143235127Y-38640483D01*
X143468362Y-38577988D01*
X143691444Y-38485584D01*
X143900556Y-38364853D01*
X144080014Y-38227149D01*
X144145183Y-38201956D01*
X144213628Y-38215994D01*
X144263617Y-38264808D01*
X144279500Y-38325526D01*
X144279500Y-62004473D01*
X144259815Y-62071512D01*
X144207011Y-62117267D01*
X144137853Y-62127211D01*
X144080014Y-62102849D01*
X143900564Y-61965153D01*
X143900562Y-61965151D01*
X143900556Y-61965147D01*
X143900551Y-61965144D01*
X143900548Y-61965142D01*
X143691451Y-61844419D01*
X143691440Y-61844414D01*
X143468360Y-61752011D01*
X143351744Y-61720764D01*
X143235127Y-61689517D01*
X143235121Y-61689516D01*
X143235116Y-61689515D01*
X142995740Y-61658001D01*
X142995737Y-61658000D01*
X142995731Y-61658000D01*
X142754269Y-61658000D01*
X142754263Y-61658000D01*
X142754259Y-61658001D01*
X142514883Y-61689515D01*
X142514876Y-61689516D01*
X142514873Y-61689517D01*
X142465582Y-61702724D01*
X142281639Y-61752011D01*
X142058559Y-61844414D01*
X142058548Y-61844419D01*
X141849451Y-61965142D01*
X141849435Y-61965153D01*
X141657880Y-62112138D01*
X141657873Y-62112144D01*
X141487144Y-62282873D01*
X141487138Y-62282880D01*
X141340153Y-62474435D01*
X141340142Y-62474451D01*
X141219419Y-62683548D01*
X141219414Y-62683559D01*
X141127011Y-62906639D01*
X141090284Y-63043709D01*
X141070724Y-63116710D01*
X141064518Y-63139870D01*
X141064515Y-63139883D01*
X141033001Y-63379259D01*
X141033000Y-63379275D01*
X141033000Y-63620724D01*
X141033001Y-63620740D01*
X141064515Y-63860116D01*
X141064516Y-63860121D01*
X141064517Y-63860127D01*
X141064518Y-63860129D01*
X141127011Y-64093360D01*
X141219414Y-64316440D01*
X141219419Y-64316451D01*
X141340142Y-64525548D01*
X141340153Y-64525564D01*
X141477849Y-64705014D01*
X141503043Y-64770183D01*
X141489004Y-64838628D01*
X141440190Y-64888617D01*
X141379473Y-64904500D01*
X138020527Y-64904500D01*
X137953488Y-64884815D01*
X137907733Y-64832011D01*
X137897789Y-64762853D01*
X137922151Y-64705014D01*
X137995145Y-64609884D01*
X138059853Y-64525556D01*
X138180584Y-64316444D01*
X138272988Y-64093362D01*
X138335483Y-63860127D01*
X138367000Y-63620731D01*
X138367000Y-63379269D01*
X138335483Y-63139873D01*
X138272988Y-62906638D01*
X138180584Y-62683556D01*
X138180582Y-62683553D01*
X138180580Y-62683548D01*
X138059857Y-62474451D01*
X138059856Y-62474450D01*
X138059853Y-62474444D01*
X137991963Y-62385968D01*
X137912861Y-62282880D01*
X137912855Y-62282873D01*
X137742126Y-62112144D01*
X137742119Y-62112138D01*
X137550564Y-61965153D01*
X137550562Y-61965151D01*
X137550556Y-61965147D01*
X137550551Y-61965144D01*
X137550548Y-61965142D01*
X137341451Y-61844419D01*
X137341440Y-61844414D01*
X137118360Y-61752011D01*
X137001744Y-61720764D01*
X136885127Y-61689517D01*
X136885121Y-61689516D01*
X136885116Y-61689515D01*
X136645740Y-61658001D01*
X136645737Y-61658000D01*
X136645731Y-61658000D01*
X136404269Y-61658000D01*
X136404263Y-61658000D01*
X136404259Y-61658001D01*
X136164883Y-61689515D01*
X136164876Y-61689516D01*
X136164873Y-61689517D01*
X136115582Y-61702724D01*
X135931639Y-61752011D01*
X135708559Y-61844414D01*
X135708548Y-61844419D01*
X135499451Y-61965142D01*
X135499435Y-61965153D01*
X135307880Y-62112138D01*
X135307873Y-62112144D01*
X135137144Y-62282873D01*
X135137138Y-62282880D01*
X134990153Y-62474435D01*
X134990142Y-62474451D01*
X134869419Y-62683548D01*
X134869414Y-62683559D01*
X134777011Y-62906639D01*
X134740284Y-63043709D01*
X134720724Y-63116710D01*
X134714518Y-63139870D01*
X134714515Y-63139883D01*
X134683001Y-63379259D01*
X134683000Y-63379275D01*
X134683000Y-63620724D01*
X134683001Y-63620740D01*
X134714515Y-63860116D01*
X134714516Y-63860121D01*
X134714517Y-63860127D01*
X134714518Y-63860129D01*
X134777011Y-64093360D01*
X134869414Y-64316440D01*
X134869419Y-64316451D01*
X134990142Y-64525548D01*
X134990153Y-64525564D01*
X135127849Y-64705014D01*
X135153043Y-64770183D01*
X135139004Y-64838628D01*
X135090190Y-64888617D01*
X135029473Y-64904500D01*
X112620527Y-64904500D01*
X112553488Y-64884815D01*
X112507733Y-64832011D01*
X112497789Y-64762853D01*
X112522151Y-64705014D01*
X112595145Y-64609884D01*
X112659853Y-64525556D01*
X112780584Y-64316444D01*
X112872988Y-64093362D01*
X112935483Y-63860127D01*
X112967000Y-63620731D01*
X112967000Y-63379269D01*
X112935483Y-63139873D01*
X112872988Y-62906638D01*
X112780584Y-62683556D01*
X112704629Y-62551999D01*
X120670500Y-62551999D01*
X120670500Y-62698001D01*
X120701590Y-62814029D01*
X120708288Y-62839028D01*
X120708289Y-62839031D01*
X120781286Y-62965467D01*
X120781288Y-62965470D01*
X120781289Y-62965471D01*
X120884529Y-63068711D01*
X121010971Y-63141712D01*
X121151999Y-63179500D01*
X121152001Y-63179500D01*
X121297999Y-63179500D01*
X121298001Y-63179500D01*
X121439029Y-63141712D01*
X121565471Y-63068711D01*
X121668711Y-62965471D01*
X121741712Y-62839029D01*
X121779500Y-62698001D01*
X121779500Y-62551999D01*
X121741712Y-62410971D01*
X121671112Y-62288687D01*
X121654500Y-62226688D01*
X121654500Y-58231044D01*
X121674185Y-58164005D01*
X121690819Y-58143363D01*
X121712343Y-58121839D01*
X121743711Y-58090471D01*
X121816712Y-57964029D01*
X121854500Y-57823001D01*
X121854500Y-57676999D01*
X121816712Y-57535971D01*
X121743711Y-57409529D01*
X121640471Y-57306289D01*
X121640470Y-57306288D01*
X121640467Y-57306286D01*
X121514031Y-57233289D01*
X121514030Y-57233288D01*
X121514029Y-57233288D01*
X121373001Y-57195500D01*
X121226999Y-57195500D01*
X121085971Y-57233288D01*
X121085968Y-57233289D01*
X120959532Y-57306286D01*
X120959527Y-57306290D01*
X120856290Y-57409527D01*
X120856286Y-57409532D01*
X120783289Y-57535968D01*
X120783288Y-57535971D01*
X120745500Y-57676999D01*
X120745500Y-57823001D01*
X120777252Y-57941500D01*
X120783288Y-57964028D01*
X120783289Y-57964031D01*
X120856286Y-58090467D01*
X120856290Y-58090472D01*
X120909181Y-58143363D01*
X120942666Y-58204686D01*
X120945500Y-58231044D01*
X120945500Y-62074496D01*
X120925815Y-62141535D01*
X120890274Y-62175424D01*
X120890978Y-62176341D01*
X120884526Y-62181291D01*
X120781290Y-62284527D01*
X120781286Y-62284532D01*
X120708289Y-62410968D01*
X120708288Y-62410971D01*
X120670500Y-62551999D01*
X112704629Y-62551999D01*
X112659853Y-62474444D01*
X112591963Y-62385968D01*
X112512861Y-62282880D01*
X112512855Y-62282873D01*
X112342126Y-62112144D01*
X112342119Y-62112138D01*
X112150564Y-61965153D01*
X112150562Y-61965151D01*
X112150556Y-61965147D01*
X112150551Y-61965144D01*
X112150548Y-61965142D01*
X111941451Y-61844419D01*
X111941440Y-61844414D01*
X111718360Y-61752011D01*
X111601744Y-61720764D01*
X111485127Y-61689517D01*
X111478945Y-61688703D01*
X111409546Y-61679566D01*
X111345650Y-61651299D01*
X111307180Y-61592974D01*
X111306349Y-61523109D01*
X111338053Y-61468945D01*
X111352999Y-61453999D01*
X111607000Y-61453999D01*
X111928207Y-61453999D01*
X111928216Y-61453998D01*
X111988235Y-61447547D01*
X111988238Y-61447546D01*
X112124021Y-61396900D01*
X112124027Y-61396896D01*
X112240047Y-61310047D01*
X112326896Y-61194027D01*
X112326897Y-61194025D01*
X112377547Y-61058231D01*
X112383999Y-60998227D01*
X112384000Y-60998210D01*
X112384000Y-60452000D01*
X111607000Y-60452000D01*
X111607000Y-61453999D01*
X111352999Y-61453999D01*
X111353000Y-61453998D01*
X111353000Y-60452000D01*
X110576001Y-60452000D01*
X110576001Y-60998216D01*
X110582452Y-61058235D01*
X110582453Y-61058238D01*
X110633099Y-61194021D01*
X110633103Y-61194027D01*
X110719952Y-61310047D01*
X110835972Y-61396896D01*
X110835974Y-61396897D01*
X110930520Y-61432162D01*
X110986453Y-61474034D01*
X111010870Y-61539498D01*
X110996018Y-61607771D01*
X110946612Y-61657176D01*
X110903372Y-61671283D01*
X110785297Y-61686828D01*
X110764873Y-61689517D01*
X110715582Y-61702724D01*
X110531639Y-61752011D01*
X110308559Y-61844414D01*
X110308548Y-61844419D01*
X110099451Y-61965142D01*
X110099435Y-61965153D01*
X109907880Y-62112138D01*
X109907873Y-62112144D01*
X109737144Y-62282873D01*
X109737138Y-62282880D01*
X109590153Y-62474435D01*
X109590142Y-62474451D01*
X109469419Y-62683548D01*
X109469414Y-62683559D01*
X109377011Y-62906639D01*
X109340284Y-63043709D01*
X109320724Y-63116710D01*
X109314518Y-63139870D01*
X109314515Y-63139883D01*
X109283001Y-63379259D01*
X109283000Y-63379275D01*
X109283000Y-63620724D01*
X109283001Y-63620740D01*
X109314515Y-63860116D01*
X109314516Y-63860121D01*
X109314517Y-63860127D01*
X109314518Y-63860129D01*
X109377011Y-64093360D01*
X109469414Y-64316440D01*
X109469419Y-64316451D01*
X109590142Y-64525548D01*
X109590153Y-64525564D01*
X109727849Y-64705014D01*
X109753043Y-64770183D01*
X109739004Y-64838628D01*
X109690190Y-64888617D01*
X109629473Y-64904500D01*
X103730527Y-64904500D01*
X103663488Y-64884815D01*
X103617733Y-64832011D01*
X103607789Y-64762853D01*
X103632151Y-64705014D01*
X103705145Y-64609884D01*
X103769853Y-64525556D01*
X103890584Y-64316444D01*
X103982988Y-64093362D01*
X104045483Y-63860127D01*
X104077000Y-63620731D01*
X104077000Y-63379269D01*
X104045483Y-63139873D01*
X103982988Y-62906638D01*
X103890584Y-62683556D01*
X103890582Y-62683553D01*
X103890580Y-62683548D01*
X103769857Y-62474451D01*
X103769856Y-62474450D01*
X103769853Y-62474444D01*
X103701963Y-62385968D01*
X103622861Y-62282880D01*
X103622855Y-62282873D01*
X103452126Y-62112144D01*
X103452119Y-62112138D01*
X103260564Y-61965153D01*
X103260562Y-61965151D01*
X103260556Y-61965147D01*
X103260551Y-61965144D01*
X103260548Y-61965142D01*
X103051451Y-61844419D01*
X103051440Y-61844414D01*
X102828360Y-61752011D01*
X102711744Y-61720764D01*
X102595127Y-61689517D01*
X102595121Y-61689516D01*
X102595116Y-61689515D01*
X102355740Y-61658001D01*
X102355737Y-61658000D01*
X102355731Y-61658000D01*
X102114269Y-61658000D01*
X102114263Y-61658000D01*
X102114259Y-61658001D01*
X101874883Y-61689515D01*
X101874876Y-61689516D01*
X101874873Y-61689517D01*
X101825582Y-61702724D01*
X101641639Y-61752011D01*
X101418559Y-61844414D01*
X101418548Y-61844419D01*
X101209451Y-61965142D01*
X101209435Y-61965153D01*
X101029986Y-62102849D01*
X100964817Y-62128043D01*
X100896372Y-62114004D01*
X100846383Y-62065190D01*
X100830500Y-62004473D01*
X100830500Y-59651772D01*
X110576000Y-59651772D01*
X110576000Y-60198000D01*
X111353000Y-60198000D01*
X111607000Y-60198000D01*
X112383999Y-60198000D01*
X112383999Y-59651792D01*
X112383998Y-59651783D01*
X112377547Y-59591764D01*
X112377546Y-59591761D01*
X112326900Y-59455978D01*
X112326896Y-59455972D01*
X112240047Y-59339952D01*
X112124027Y-59253103D01*
X112124025Y-59253102D01*
X111988231Y-59202452D01*
X111928227Y-59196000D01*
X111607000Y-59196000D01*
X111607000Y-60198000D01*
X111353000Y-60198000D01*
X111353000Y-59196000D01*
X111031793Y-59196000D01*
X111031783Y-59196001D01*
X110971764Y-59202452D01*
X110971761Y-59202453D01*
X110835978Y-59253099D01*
X110835972Y-59253103D01*
X110719952Y-59339952D01*
X110633103Y-59455972D01*
X110633102Y-59455974D01*
X110582452Y-59591768D01*
X110576000Y-59651772D01*
X100830500Y-59651772D01*
X100830500Y-58333074D01*
X103035500Y-58333074D01*
X103035500Y-58506926D01*
X103036854Y-58515472D01*
X103062697Y-58678639D01*
X103062697Y-58678642D01*
X103116418Y-58843978D01*
X103195347Y-58998884D01*
X103297535Y-59139533D01*
X103420467Y-59262465D01*
X103561116Y-59364653D01*
X103716019Y-59443580D01*
X103716021Y-59443581D01*
X103881358Y-59497302D01*
X103881359Y-59497302D01*
X103881362Y-59497303D01*
X104053074Y-59524500D01*
X104053075Y-59524500D01*
X104226925Y-59524500D01*
X104226926Y-59524500D01*
X104398638Y-59497303D01*
X104398641Y-59497302D01*
X104398642Y-59497302D01*
X104563978Y-59443581D01*
X104563978Y-59443580D01*
X104563981Y-59443580D01*
X104718884Y-59364653D01*
X104859533Y-59262465D01*
X104982465Y-59139533D01*
X105084653Y-58998884D01*
X105163580Y-58843981D01*
X105186752Y-58772666D01*
X105217302Y-58678642D01*
X105217302Y-58678641D01*
X105217303Y-58678638D01*
X105244500Y-58506926D01*
X105244500Y-58333074D01*
X105217303Y-58161362D01*
X105217302Y-58161358D01*
X105217302Y-58161357D01*
X105163581Y-57996021D01*
X105158475Y-57985999D01*
X105084653Y-57841116D01*
X104982465Y-57700467D01*
X104859533Y-57577535D01*
X104718884Y-57475347D01*
X104709760Y-57470698D01*
X104563978Y-57396418D01*
X104398641Y-57342697D01*
X104269854Y-57322299D01*
X104226926Y-57315500D01*
X104053074Y-57315500D01*
X103995836Y-57324565D01*
X103881360Y-57342697D01*
X103881357Y-57342697D01*
X103716021Y-57396418D01*
X103561115Y-57475347D01*
X103526628Y-57500404D01*
X103420467Y-57577535D01*
X103420465Y-57577537D01*
X103420464Y-57577537D01*
X103297537Y-57700464D01*
X103297537Y-57700465D01*
X103297535Y-57700467D01*
X103275141Y-57731290D01*
X103195347Y-57841115D01*
X103116418Y-57996021D01*
X103062697Y-58161357D01*
X103062697Y-58161360D01*
X103043195Y-58284488D01*
X103035500Y-58333074D01*
X100830500Y-58333074D01*
X100830500Y-57188216D01*
X110576001Y-57188216D01*
X110582452Y-57248235D01*
X110582453Y-57248238D01*
X110633099Y-57384021D01*
X110633103Y-57384027D01*
X110719952Y-57500047D01*
X110835972Y-57586896D01*
X110835974Y-57586897D01*
X110971768Y-57637547D01*
X111031780Y-57643999D01*
X111352999Y-57643999D01*
X111607000Y-57643999D01*
X111928207Y-57643999D01*
X111928216Y-57643998D01*
X111988235Y-57637547D01*
X111988238Y-57637546D01*
X112124021Y-57586900D01*
X112124027Y-57586896D01*
X112240047Y-57500047D01*
X112326896Y-57384027D01*
X112326897Y-57384025D01*
X112377547Y-57248231D01*
X112383999Y-57188227D01*
X112384000Y-57188210D01*
X112384000Y-56642000D01*
X111607000Y-56642000D01*
X111607000Y-57643999D01*
X111352999Y-57643999D01*
X111353000Y-57643998D01*
X111353000Y-56642000D01*
X110576001Y-56642000D01*
X110576001Y-57188216D01*
X100830500Y-57188216D01*
X100830500Y-53253074D01*
X103035500Y-53253074D01*
X103035500Y-53426926D01*
X103041847Y-53467000D01*
X103062697Y-53598639D01*
X103062697Y-53598642D01*
X103116418Y-53763978D01*
X103180866Y-53890464D01*
X103195347Y-53918884D01*
X103297535Y-54059533D01*
X103420467Y-54182465D01*
X103561116Y-54284653D01*
X103670657Y-54340467D01*
X103716021Y-54363581D01*
X103881358Y-54417302D01*
X103881359Y-54417302D01*
X103881362Y-54417303D01*
X104053074Y-54444500D01*
X104053075Y-54444500D01*
X104226925Y-54444500D01*
X104226926Y-54444500D01*
X104398638Y-54417303D01*
X104398641Y-54417302D01*
X104398642Y-54417302D01*
X104563978Y-54363581D01*
X104563978Y-54363580D01*
X104563981Y-54363580D01*
X104718884Y-54284653D01*
X104859533Y-54182465D01*
X104982465Y-54059533D01*
X105084653Y-53918884D01*
X105163580Y-53763981D01*
X105195628Y-53665347D01*
X105217302Y-53598642D01*
X105217302Y-53598641D01*
X105217303Y-53598638D01*
X105244500Y-53426926D01*
X105244500Y-53253074D01*
X105217303Y-53081362D01*
X105217302Y-53081358D01*
X105217302Y-53081357D01*
X105163581Y-52916021D01*
X105093430Y-52778342D01*
X105084653Y-52761116D01*
X104982465Y-52620467D01*
X104859533Y-52497535D01*
X104718884Y-52395347D01*
X104682890Y-52377007D01*
X104563978Y-52316418D01*
X104398641Y-52262697D01*
X104269854Y-52242299D01*
X104226926Y-52235500D01*
X104053074Y-52235500D01*
X103995836Y-52244565D01*
X103881360Y-52262697D01*
X103881357Y-52262697D01*
X103716021Y-52316418D01*
X103561115Y-52395347D01*
X103480869Y-52453649D01*
X103420467Y-52497535D01*
X103420465Y-52497537D01*
X103420464Y-52497537D01*
X103297537Y-52620464D01*
X103297537Y-52620465D01*
X103297535Y-52620467D01*
X103273427Y-52653649D01*
X103195347Y-52761115D01*
X103116418Y-52916021D01*
X103062697Y-53081357D01*
X103062697Y-53081360D01*
X103051059Y-53154842D01*
X103035500Y-53253074D01*
X100830500Y-53253074D01*
X100830500Y-49924978D01*
X103036000Y-49924978D01*
X103036000Y-50673000D01*
X103656392Y-50673000D01*
X103640000Y-50734174D01*
X103640000Y-50865826D01*
X103656392Y-50927000D01*
X103036001Y-50927000D01*
X103036001Y-51675014D01*
X103050737Y-51749106D01*
X103050738Y-51749109D01*
X103106876Y-51833123D01*
X103190895Y-51889263D01*
X103190896Y-51889264D01*
X103264980Y-51903999D01*
X104012999Y-51903999D01*
X104013000Y-51903998D01*
X104013000Y-51283608D01*
X104074174Y-51300000D01*
X104205826Y-51300000D01*
X104267000Y-51283608D01*
X104267000Y-51903999D01*
X105015015Y-51903999D01*
X105089106Y-51889262D01*
X105089109Y-51889261D01*
X105173123Y-51833123D01*
X105229263Y-51749104D01*
X105229264Y-51749103D01*
X105243999Y-51675021D01*
X105244000Y-51675018D01*
X105244000Y-50927000D01*
X104623608Y-50927000D01*
X104640000Y-50865826D01*
X104640000Y-50734174D01*
X104623608Y-50673000D01*
X105243999Y-50673000D01*
X105243999Y-49924985D01*
X105229262Y-49850893D01*
X105229261Y-49850890D01*
X105173123Y-49766876D01*
X105089104Y-49710736D01*
X105089103Y-49710735D01*
X105015021Y-49696000D01*
X104267000Y-49696000D01*
X104267000Y-50316391D01*
X104205826Y-50300000D01*
X104074174Y-50300000D01*
X104013000Y-50316391D01*
X104013000Y-49696000D01*
X103264985Y-49696000D01*
X103190893Y-49710737D01*
X103190890Y-49710738D01*
X103106876Y-49766876D01*
X103050736Y-49850895D01*
X103050735Y-49850896D01*
X103036000Y-49924978D01*
X100830500Y-49924978D01*
X100830500Y-47083216D01*
X102376001Y-47083216D01*
X102382452Y-47143235D01*
X102382453Y-47143238D01*
X102433099Y-47279021D01*
X102433103Y-47279027D01*
X102519952Y-47395047D01*
X102635972Y-47481896D01*
X102635974Y-47481897D01*
X102771768Y-47532547D01*
X102831780Y-47538999D01*
X103377999Y-47538999D01*
X103632000Y-47538999D01*
X104178207Y-47538999D01*
X104178216Y-47538998D01*
X104238235Y-47532547D01*
X104238238Y-47532546D01*
X104374021Y-47481900D01*
X104374027Y-47481896D01*
X104490047Y-47395047D01*
X104576896Y-47279027D01*
X104576897Y-47279025D01*
X104627547Y-47143231D01*
X104633999Y-47083227D01*
X104634000Y-47083216D01*
X105551001Y-47083216D01*
X105557452Y-47143235D01*
X105557453Y-47143238D01*
X105608099Y-47279021D01*
X105608103Y-47279027D01*
X105694952Y-47395047D01*
X105810972Y-47481896D01*
X105810974Y-47481897D01*
X105946768Y-47532547D01*
X106006780Y-47538999D01*
X106552999Y-47538999D01*
X106807000Y-47538999D01*
X107353207Y-47538999D01*
X107353216Y-47538998D01*
X107413235Y-47532547D01*
X107413238Y-47532546D01*
X107549021Y-47481900D01*
X107549027Y-47481896D01*
X107665047Y-47395047D01*
X107751896Y-47279027D01*
X107751897Y-47279025D01*
X107802547Y-47143231D01*
X107808999Y-47083227D01*
X107809000Y-47083210D01*
X107809000Y-46762000D01*
X106807000Y-46762000D01*
X106807000Y-47538999D01*
X106552999Y-47538999D01*
X106553000Y-47538998D01*
X106553000Y-46762000D01*
X105551001Y-46762000D01*
X105551001Y-47083216D01*
X104634000Y-47083216D01*
X104634000Y-47083210D01*
X104634000Y-46762000D01*
X103632000Y-46762000D01*
X103632000Y-47538999D01*
X103377999Y-47538999D01*
X103378000Y-47538998D01*
X103378000Y-46762000D01*
X102376001Y-46762000D01*
X102376001Y-47083216D01*
X100830500Y-47083216D01*
X100830500Y-46186772D01*
X102376000Y-46186772D01*
X102376000Y-46508000D01*
X103378000Y-46508000D01*
X103632000Y-46508000D01*
X104633999Y-46508000D01*
X104633999Y-46186793D01*
X104633998Y-46186782D01*
X104633997Y-46186772D01*
X105551000Y-46186772D01*
X105551000Y-46508000D01*
X106553000Y-46508000D01*
X106807000Y-46508000D01*
X107808999Y-46508000D01*
X107808999Y-46186792D01*
X107808998Y-46186783D01*
X107802547Y-46126764D01*
X107802546Y-46126761D01*
X107751900Y-45990978D01*
X107751896Y-45990972D01*
X107665047Y-45874952D01*
X107549027Y-45788103D01*
X107549025Y-45788102D01*
X107413231Y-45737452D01*
X107353227Y-45731000D01*
X106807000Y-45731000D01*
X106807000Y-46508000D01*
X106553000Y-46508000D01*
X106553000Y-45731000D01*
X106006792Y-45731000D01*
X106006783Y-45731001D01*
X105946764Y-45737452D01*
X105946761Y-45737453D01*
X105810978Y-45788099D01*
X105810972Y-45788103D01*
X105694952Y-45874952D01*
X105608103Y-45990972D01*
X105608102Y-45990974D01*
X105557452Y-46126768D01*
X105551000Y-46186772D01*
X104633997Y-46186772D01*
X104627547Y-46126764D01*
X104627546Y-46126761D01*
X104576900Y-45990978D01*
X104576896Y-45990972D01*
X104490047Y-45874952D01*
X104374027Y-45788103D01*
X104374025Y-45788102D01*
X104238231Y-45737452D01*
X104178227Y-45731000D01*
X103632000Y-45731000D01*
X103632000Y-46508000D01*
X103378000Y-46508000D01*
X103378000Y-45731000D01*
X102831792Y-45731000D01*
X102831783Y-45731001D01*
X102771764Y-45737452D01*
X102771761Y-45737453D01*
X102635978Y-45788099D01*
X102635972Y-45788103D01*
X102519952Y-45874952D01*
X102433103Y-45990972D01*
X102433102Y-45990974D01*
X102382452Y-46126768D01*
X102376000Y-46186772D01*
X100830500Y-46186772D01*
X100830500Y-43086728D01*
X102375500Y-43086728D01*
X102375500Y-43983251D01*
X102375501Y-43983257D01*
X102381960Y-44043344D01*
X102432655Y-44179261D01*
X102432656Y-44179264D01*
X102432658Y-44179267D01*
X102461747Y-44218126D01*
X102519595Y-44295404D01*
X102568667Y-44332138D01*
X102635733Y-44382342D01*
X102771658Y-44433040D01*
X102831745Y-44439500D01*
X104178254Y-44439499D01*
X104238342Y-44433040D01*
X104374267Y-44382342D01*
X104490404Y-44295404D01*
X104577342Y-44179267D01*
X104628040Y-44043342D01*
X104630800Y-44017664D01*
X104634499Y-43983271D01*
X104634499Y-43983264D01*
X104634500Y-43983255D01*
X104634499Y-43086746D01*
X104628040Y-43026658D01*
X104628039Y-43026654D01*
X104625094Y-43018758D01*
X104620108Y-42949067D01*
X104653589Y-42887747D01*
X106252458Y-41288879D01*
X106252463Y-41288875D01*
X106262666Y-41278671D01*
X106262668Y-41278671D01*
X106328671Y-41212668D01*
X106375341Y-41131832D01*
X106399500Y-41041671D01*
X106399500Y-40678500D01*
X106419185Y-40611461D01*
X106471989Y-40565706D01*
X106523500Y-40554500D01*
X106718254Y-40554500D01*
X106718270Y-40554499D01*
X106759757Y-40550037D01*
X106778341Y-40548040D01*
X106914267Y-40497342D01*
X107030404Y-40410404D01*
X107117342Y-40294267D01*
X107168040Y-40158341D01*
X107170037Y-40139757D01*
X107174499Y-40098270D01*
X107174500Y-40098253D01*
X107174500Y-39076746D01*
X107174499Y-39076729D01*
X107168040Y-39016661D01*
X107168040Y-39016659D01*
X107117342Y-38880733D01*
X107073707Y-38822443D01*
X107030404Y-38764595D01*
X106953126Y-38706747D01*
X106914267Y-38677658D01*
X106914264Y-38677656D01*
X106914261Y-38677655D01*
X106778349Y-38626962D01*
X106778338Y-38626959D01*
X106718270Y-38620500D01*
X106718254Y-38620500D01*
X105371746Y-38620500D01*
X105371729Y-38620500D01*
X105311661Y-38626959D01*
X105311650Y-38626962D01*
X105175738Y-38677655D01*
X105175730Y-38677660D01*
X105059595Y-38764595D01*
X104972660Y-38880730D01*
X104972655Y-38880738D01*
X104921962Y-39016650D01*
X104921959Y-39016661D01*
X104915500Y-39076729D01*
X104915500Y-40098270D01*
X104921959Y-40158338D01*
X104921962Y-40158349D01*
X104972655Y-40294261D01*
X104972656Y-40294264D01*
X104972658Y-40294267D01*
X104984500Y-40310086D01*
X105059595Y-40410404D01*
X105117443Y-40453707D01*
X105175733Y-40497342D01*
X105175737Y-40497343D01*
X105175738Y-40497344D01*
X105311650Y-40548037D01*
X105311653Y-40548037D01*
X105311659Y-40548040D01*
X105324047Y-40549371D01*
X105371729Y-40554499D01*
X105371746Y-40554500D01*
X105566500Y-40554500D01*
X105575185Y-40557050D01*
X105584147Y-40555762D01*
X105608187Y-40566740D01*
X105633539Y-40574185D01*
X105639466Y-40581025D01*
X105647703Y-40584787D01*
X105661992Y-40607021D01*
X105679294Y-40626989D01*
X105681581Y-40637503D01*
X105685477Y-40643565D01*
X105690500Y-40678500D01*
X105690500Y-40796799D01*
X105670815Y-40863838D01*
X105654181Y-40884480D01*
X103944479Y-42594181D01*
X103883156Y-42627666D01*
X103856798Y-42630500D01*
X102831748Y-42630500D01*
X102831742Y-42630501D01*
X102771655Y-42636960D01*
X102635738Y-42687655D01*
X102635730Y-42687660D01*
X102519595Y-42774595D01*
X102432660Y-42890730D01*
X102432658Y-42890733D01*
X102381961Y-43026656D01*
X102381959Y-43026662D01*
X102375500Y-43086728D01*
X100830500Y-43086728D01*
X100830500Y-38325526D01*
X100850185Y-38258487D01*
X100902989Y-38212732D01*
X100972147Y-38202788D01*
X101029985Y-38227149D01*
X101209444Y-38364853D01*
X101209451Y-38364857D01*
X101418548Y-38485580D01*
X101418553Y-38485582D01*
X101418556Y-38485584D01*
X101641638Y-38577988D01*
X101874873Y-38640483D01*
X102114269Y-38672000D01*
X102114276Y-38672000D01*
X102355724Y-38672000D01*
X102355731Y-38672000D01*
X102595127Y-38640483D01*
X102828362Y-38577988D01*
X103051444Y-38485584D01*
X103260556Y-38364853D01*
X103452121Y-38217860D01*
X103622860Y-38047121D01*
X103769853Y-37855556D01*
X103890584Y-37646444D01*
X103982988Y-37423362D01*
X104045483Y-37190127D01*
X104077000Y-36950731D01*
X104077000Y-36709269D01*
X104045483Y-36469873D01*
X103982988Y-36236638D01*
X103890584Y-36013556D01*
X103890582Y-36013553D01*
X103890580Y-36013548D01*
X103769857Y-35804451D01*
X103769853Y-35804444D01*
X103757695Y-35788599D01*
X103632151Y-35624986D01*
X103606957Y-35559817D01*
X103620996Y-35491372D01*
X103669810Y-35441383D01*
X103730527Y-35425500D01*
X105231535Y-35425500D01*
X105298574Y-35445185D01*
G37*
%TD.AperFunction*%
%TD*%
M02*
