%TF.GenerationSoftware,KiCad,Pcbnew,9.0.6*%
%TF.CreationDate,2026-03-15T16:15:25-04:00*%
%TF.ProjectId,SimpleRTC,53696d70-6c65-4525-9443-2e6b69636164,rev?*%
%TF.SameCoordinates,Original*%
%TF.FileFunction,Legend,Bot*%
%TF.FilePolarity,Positive*%
%FSLAX46Y46*%
G04 Gerber Fmt 4.6, Leading zero omitted, Abs format (unit mm)*
G04 Created by KiCad (PCBNEW 9.0.6) date 2026-03-15 16:15:25*
%MOMM*%
%LPD*%
G01*
G04 APERTURE LIST*
%ADD10C,0.150000*%
%ADD11C,0.120000*%
%ADD12C,0.152400*%
G04 APERTURE END LIST*
D10*
X109039819Y-43648333D02*
X108563628Y-43315000D01*
X109039819Y-43076905D02*
X108039819Y-43076905D01*
X108039819Y-43076905D02*
X108039819Y-43457857D01*
X108039819Y-43457857D02*
X108087438Y-43553095D01*
X108087438Y-43553095D02*
X108135057Y-43600714D01*
X108135057Y-43600714D02*
X108230295Y-43648333D01*
X108230295Y-43648333D02*
X108373152Y-43648333D01*
X108373152Y-43648333D02*
X108468390Y-43600714D01*
X108468390Y-43600714D02*
X108516009Y-43553095D01*
X108516009Y-43553095D02*
X108563628Y-43457857D01*
X108563628Y-43457857D02*
X108563628Y-43076905D01*
X108039819Y-44553095D02*
X108039819Y-44076905D01*
X108039819Y-44076905D02*
X108516009Y-44029286D01*
X108516009Y-44029286D02*
X108468390Y-44076905D01*
X108468390Y-44076905D02*
X108420771Y-44172143D01*
X108420771Y-44172143D02*
X108420771Y-44410238D01*
X108420771Y-44410238D02*
X108468390Y-44505476D01*
X108468390Y-44505476D02*
X108516009Y-44553095D01*
X108516009Y-44553095D02*
X108611247Y-44600714D01*
X108611247Y-44600714D02*
X108849342Y-44600714D01*
X108849342Y-44600714D02*
X108944580Y-44553095D01*
X108944580Y-44553095D02*
X108992200Y-44505476D01*
X108992200Y-44505476D02*
X109039819Y-44410238D01*
X109039819Y-44410238D02*
X109039819Y-44172143D01*
X109039819Y-44172143D02*
X108992200Y-44076905D01*
X108992200Y-44076905D02*
X108944580Y-44029286D01*
X126428332Y-39152799D02*
X126285475Y-39200418D01*
X126285475Y-39200418D02*
X126047380Y-39200418D01*
X126047380Y-39200418D02*
X125952142Y-39152799D01*
X125952142Y-39152799D02*
X125904523Y-39105179D01*
X125904523Y-39105179D02*
X125856904Y-39009941D01*
X125856904Y-39009941D02*
X125856904Y-38914703D01*
X125856904Y-38914703D02*
X125904523Y-38819465D01*
X125904523Y-38819465D02*
X125952142Y-38771846D01*
X125952142Y-38771846D02*
X126047380Y-38724227D01*
X126047380Y-38724227D02*
X126237856Y-38676608D01*
X126237856Y-38676608D02*
X126333094Y-38628989D01*
X126333094Y-38628989D02*
X126380713Y-38581370D01*
X126380713Y-38581370D02*
X126428332Y-38486132D01*
X126428332Y-38486132D02*
X126428332Y-38390894D01*
X126428332Y-38390894D02*
X126380713Y-38295656D01*
X126380713Y-38295656D02*
X126333094Y-38248037D01*
X126333094Y-38248037D02*
X126237856Y-38200418D01*
X126237856Y-38200418D02*
X125999761Y-38200418D01*
X125999761Y-38200418D02*
X125856904Y-38248037D01*
X125523570Y-38200418D02*
X125285475Y-39200418D01*
X125285475Y-39200418D02*
X125094999Y-38486132D01*
X125094999Y-38486132D02*
X124904523Y-39200418D01*
X124904523Y-39200418D02*
X124666428Y-38200418D01*
X124333094Y-38295656D02*
X124285475Y-38248037D01*
X124285475Y-38248037D02*
X124190237Y-38200418D01*
X124190237Y-38200418D02*
X123952142Y-38200418D01*
X123952142Y-38200418D02*
X123856904Y-38248037D01*
X123856904Y-38248037D02*
X123809285Y-38295656D01*
X123809285Y-38295656D02*
X123761666Y-38390894D01*
X123761666Y-38390894D02*
X123761666Y-38486132D01*
X123761666Y-38486132D02*
X123809285Y-38628989D01*
X123809285Y-38628989D02*
X124380713Y-39200418D01*
X124380713Y-39200418D02*
X123761666Y-39200418D01*
X128344999Y-34439118D02*
X128344999Y-34677213D01*
X128583094Y-34581975D02*
X128344999Y-34677213D01*
X128344999Y-34677213D02*
X128106904Y-34581975D01*
X128487856Y-34867689D02*
X128344999Y-34677213D01*
X128344999Y-34677213D02*
X128202142Y-34867689D01*
X128344999Y-34439118D02*
X128344999Y-34677213D01*
X128583094Y-34581975D02*
X128344999Y-34677213D01*
X128344999Y-34677213D02*
X128106904Y-34581975D01*
X128487856Y-34867689D02*
X128344999Y-34677213D01*
X128344999Y-34677213D02*
X128202142Y-34867689D01*
X109386666Y-60779819D02*
X109719999Y-60303628D01*
X109958094Y-60779819D02*
X109958094Y-59779819D01*
X109958094Y-59779819D02*
X109577142Y-59779819D01*
X109577142Y-59779819D02*
X109481904Y-59827438D01*
X109481904Y-59827438D02*
X109434285Y-59875057D01*
X109434285Y-59875057D02*
X109386666Y-59970295D01*
X109386666Y-59970295D02*
X109386666Y-60113152D01*
X109386666Y-60113152D02*
X109434285Y-60208390D01*
X109434285Y-60208390D02*
X109481904Y-60256009D01*
X109481904Y-60256009D02*
X109577142Y-60303628D01*
X109577142Y-60303628D02*
X109958094Y-60303628D01*
X108529523Y-60113152D02*
X108529523Y-60779819D01*
X108767618Y-59732200D02*
X109005713Y-60446485D01*
X109005713Y-60446485D02*
X108386666Y-60446485D01*
X109386666Y-56969819D02*
X109719999Y-56493628D01*
X109958094Y-56969819D02*
X109958094Y-55969819D01*
X109958094Y-55969819D02*
X109577142Y-55969819D01*
X109577142Y-55969819D02*
X109481904Y-56017438D01*
X109481904Y-56017438D02*
X109434285Y-56065057D01*
X109434285Y-56065057D02*
X109386666Y-56160295D01*
X109386666Y-56160295D02*
X109386666Y-56303152D01*
X109386666Y-56303152D02*
X109434285Y-56398390D01*
X109434285Y-56398390D02*
X109481904Y-56446009D01*
X109481904Y-56446009D02*
X109577142Y-56493628D01*
X109577142Y-56493628D02*
X109958094Y-56493628D01*
X108434285Y-56969819D02*
X109005713Y-56969819D01*
X108719999Y-56969819D02*
X108719999Y-55969819D01*
X108719999Y-55969819D02*
X108815237Y-56112676D01*
X108815237Y-56112676D02*
X108910475Y-56207914D01*
X108910475Y-56207914D02*
X109005713Y-56255533D01*
X102054819Y-43648333D02*
X101578628Y-43315000D01*
X102054819Y-43076905D02*
X101054819Y-43076905D01*
X101054819Y-43076905D02*
X101054819Y-43457857D01*
X101054819Y-43457857D02*
X101102438Y-43553095D01*
X101102438Y-43553095D02*
X101150057Y-43600714D01*
X101150057Y-43600714D02*
X101245295Y-43648333D01*
X101245295Y-43648333D02*
X101388152Y-43648333D01*
X101388152Y-43648333D02*
X101483390Y-43600714D01*
X101483390Y-43600714D02*
X101531009Y-43553095D01*
X101531009Y-43553095D02*
X101578628Y-43457857D01*
X101578628Y-43457857D02*
X101578628Y-43076905D01*
X101054819Y-43981667D02*
X101054819Y-44600714D01*
X101054819Y-44600714D02*
X101435771Y-44267381D01*
X101435771Y-44267381D02*
X101435771Y-44410238D01*
X101435771Y-44410238D02*
X101483390Y-44505476D01*
X101483390Y-44505476D02*
X101531009Y-44553095D01*
X101531009Y-44553095D02*
X101626247Y-44600714D01*
X101626247Y-44600714D02*
X101864342Y-44600714D01*
X101864342Y-44600714D02*
X101959580Y-44553095D01*
X101959580Y-44553095D02*
X102007200Y-44505476D01*
X102007200Y-44505476D02*
X102054819Y-44410238D01*
X102054819Y-44410238D02*
X102054819Y-44124524D01*
X102054819Y-44124524D02*
X102007200Y-44029286D01*
X102007200Y-44029286D02*
X101959580Y-43981667D01*
X109386666Y-53794819D02*
X109719999Y-53318628D01*
X109958094Y-53794819D02*
X109958094Y-52794819D01*
X109958094Y-52794819D02*
X109577142Y-52794819D01*
X109577142Y-52794819D02*
X109481904Y-52842438D01*
X109481904Y-52842438D02*
X109434285Y-52890057D01*
X109434285Y-52890057D02*
X109386666Y-52985295D01*
X109386666Y-52985295D02*
X109386666Y-53128152D01*
X109386666Y-53128152D02*
X109434285Y-53223390D01*
X109434285Y-53223390D02*
X109481904Y-53271009D01*
X109481904Y-53271009D02*
X109577142Y-53318628D01*
X109577142Y-53318628D02*
X109958094Y-53318628D01*
X109005713Y-52890057D02*
X108958094Y-52842438D01*
X108958094Y-52842438D02*
X108862856Y-52794819D01*
X108862856Y-52794819D02*
X108624761Y-52794819D01*
X108624761Y-52794819D02*
X108529523Y-52842438D01*
X108529523Y-52842438D02*
X108481904Y-52890057D01*
X108481904Y-52890057D02*
X108434285Y-52985295D01*
X108434285Y-52985295D02*
X108434285Y-53080533D01*
X108434285Y-53080533D02*
X108481904Y-53223390D01*
X108481904Y-53223390D02*
X109053332Y-53794819D01*
X109053332Y-53794819D02*
X108434285Y-53794819D01*
X122046904Y-42209819D02*
X122046904Y-43019342D01*
X122046904Y-43019342D02*
X121999285Y-43114580D01*
X121999285Y-43114580D02*
X121951666Y-43162200D01*
X121951666Y-43162200D02*
X121856428Y-43209819D01*
X121856428Y-43209819D02*
X121665952Y-43209819D01*
X121665952Y-43209819D02*
X121570714Y-43162200D01*
X121570714Y-43162200D02*
X121523095Y-43114580D01*
X121523095Y-43114580D02*
X121475476Y-43019342D01*
X121475476Y-43019342D02*
X121475476Y-42209819D01*
X121046904Y-42305057D02*
X120999285Y-42257438D01*
X120999285Y-42257438D02*
X120904047Y-42209819D01*
X120904047Y-42209819D02*
X120665952Y-42209819D01*
X120665952Y-42209819D02*
X120570714Y-42257438D01*
X120570714Y-42257438D02*
X120523095Y-42305057D01*
X120523095Y-42305057D02*
X120475476Y-42400295D01*
X120475476Y-42400295D02*
X120475476Y-42495533D01*
X120475476Y-42495533D02*
X120523095Y-42638390D01*
X120523095Y-42638390D02*
X121094523Y-43209819D01*
X121094523Y-43209819D02*
X120475476Y-43209819D01*
X100088333Y-47984819D02*
X100088333Y-48699104D01*
X100088333Y-48699104D02*
X100135952Y-48841961D01*
X100135952Y-48841961D02*
X100231190Y-48937200D01*
X100231190Y-48937200D02*
X100374047Y-48984819D01*
X100374047Y-48984819D02*
X100469285Y-48984819D01*
X99707380Y-47984819D02*
X99088333Y-47984819D01*
X99088333Y-47984819D02*
X99421666Y-48365771D01*
X99421666Y-48365771D02*
X99278809Y-48365771D01*
X99278809Y-48365771D02*
X99183571Y-48413390D01*
X99183571Y-48413390D02*
X99135952Y-48461009D01*
X99135952Y-48461009D02*
X99088333Y-48556247D01*
X99088333Y-48556247D02*
X99088333Y-48794342D01*
X99088333Y-48794342D02*
X99135952Y-48889580D01*
X99135952Y-48889580D02*
X99183571Y-48937200D01*
X99183571Y-48937200D02*
X99278809Y-48984819D01*
X99278809Y-48984819D02*
X99564523Y-48984819D01*
X99564523Y-48984819D02*
X99659761Y-48937200D01*
X99659761Y-48937200D02*
X99707380Y-48889580D01*
X116268332Y-39152799D02*
X116125475Y-39200418D01*
X116125475Y-39200418D02*
X115887380Y-39200418D01*
X115887380Y-39200418D02*
X115792142Y-39152799D01*
X115792142Y-39152799D02*
X115744523Y-39105179D01*
X115744523Y-39105179D02*
X115696904Y-39009941D01*
X115696904Y-39009941D02*
X115696904Y-38914703D01*
X115696904Y-38914703D02*
X115744523Y-38819465D01*
X115744523Y-38819465D02*
X115792142Y-38771846D01*
X115792142Y-38771846D02*
X115887380Y-38724227D01*
X115887380Y-38724227D02*
X116077856Y-38676608D01*
X116077856Y-38676608D02*
X116173094Y-38628989D01*
X116173094Y-38628989D02*
X116220713Y-38581370D01*
X116220713Y-38581370D02*
X116268332Y-38486132D01*
X116268332Y-38486132D02*
X116268332Y-38390894D01*
X116268332Y-38390894D02*
X116220713Y-38295656D01*
X116220713Y-38295656D02*
X116173094Y-38248037D01*
X116173094Y-38248037D02*
X116077856Y-38200418D01*
X116077856Y-38200418D02*
X115839761Y-38200418D01*
X115839761Y-38200418D02*
X115696904Y-38248037D01*
X115363570Y-38200418D02*
X115125475Y-39200418D01*
X115125475Y-39200418D02*
X114934999Y-38486132D01*
X114934999Y-38486132D02*
X114744523Y-39200418D01*
X114744523Y-39200418D02*
X114506428Y-38200418D01*
X114220713Y-38200418D02*
X113601666Y-38200418D01*
X113601666Y-38200418D02*
X113934999Y-38581370D01*
X113934999Y-38581370D02*
X113792142Y-38581370D01*
X113792142Y-38581370D02*
X113696904Y-38628989D01*
X113696904Y-38628989D02*
X113649285Y-38676608D01*
X113649285Y-38676608D02*
X113601666Y-38771846D01*
X113601666Y-38771846D02*
X113601666Y-39009941D01*
X113601666Y-39009941D02*
X113649285Y-39105179D01*
X113649285Y-39105179D02*
X113696904Y-39152799D01*
X113696904Y-39152799D02*
X113792142Y-39200418D01*
X113792142Y-39200418D02*
X114077856Y-39200418D01*
X114077856Y-39200418D02*
X114173094Y-39152799D01*
X114173094Y-39152799D02*
X114220713Y-39105179D01*
X118184999Y-34439118D02*
X118184999Y-34677213D01*
X118423094Y-34581975D02*
X118184999Y-34677213D01*
X118184999Y-34677213D02*
X117946904Y-34581975D01*
X118327856Y-34867689D02*
X118184999Y-34677213D01*
X118184999Y-34677213D02*
X118042142Y-34867689D01*
X118184999Y-34439118D02*
X118184999Y-34677213D01*
X118423094Y-34581975D02*
X118184999Y-34677213D01*
X118184999Y-34677213D02*
X117946904Y-34581975D01*
X118327856Y-34867689D02*
X118184999Y-34677213D01*
X118184999Y-34677213D02*
X118042142Y-34867689D01*
X132530833Y-45424819D02*
X132530833Y-46139104D01*
X132530833Y-46139104D02*
X132578452Y-46281961D01*
X132578452Y-46281961D02*
X132673690Y-46377200D01*
X132673690Y-46377200D02*
X132816547Y-46424819D01*
X132816547Y-46424819D02*
X132911785Y-46424819D01*
X131530833Y-46424819D02*
X132102261Y-46424819D01*
X131816547Y-46424819D02*
X131816547Y-45424819D01*
X131816547Y-45424819D02*
X131911785Y-45567676D01*
X131911785Y-45567676D02*
X132007023Y-45662914D01*
X132007023Y-45662914D02*
X132102261Y-45710533D01*
X136510400Y-39152799D02*
X136367543Y-39200418D01*
X136367543Y-39200418D02*
X136129448Y-39200418D01*
X136129448Y-39200418D02*
X136034210Y-39152799D01*
X136034210Y-39152799D02*
X135986591Y-39105179D01*
X135986591Y-39105179D02*
X135938972Y-39009941D01*
X135938972Y-39009941D02*
X135938972Y-38914703D01*
X135938972Y-38914703D02*
X135986591Y-38819465D01*
X135986591Y-38819465D02*
X136034210Y-38771846D01*
X136034210Y-38771846D02*
X136129448Y-38724227D01*
X136129448Y-38724227D02*
X136319924Y-38676608D01*
X136319924Y-38676608D02*
X136415162Y-38628989D01*
X136415162Y-38628989D02*
X136462781Y-38581370D01*
X136462781Y-38581370D02*
X136510400Y-38486132D01*
X136510400Y-38486132D02*
X136510400Y-38390894D01*
X136510400Y-38390894D02*
X136462781Y-38295656D01*
X136462781Y-38295656D02*
X136415162Y-38248037D01*
X136415162Y-38248037D02*
X136319924Y-38200418D01*
X136319924Y-38200418D02*
X136081829Y-38200418D01*
X136081829Y-38200418D02*
X135938972Y-38248037D01*
X135605638Y-38200418D02*
X135367543Y-39200418D01*
X135367543Y-39200418D02*
X135177067Y-38486132D01*
X135177067Y-38486132D02*
X134986591Y-39200418D01*
X134986591Y-39200418D02*
X134748496Y-38200418D01*
X133843734Y-39200418D02*
X134415162Y-39200418D01*
X134129448Y-39200418D02*
X134129448Y-38200418D01*
X134129448Y-38200418D02*
X134224686Y-38343275D01*
X134224686Y-38343275D02*
X134319924Y-38438513D01*
X134319924Y-38438513D02*
X134415162Y-38486132D01*
X138427067Y-34439118D02*
X138427067Y-34677213D01*
X138665162Y-34581975D02*
X138427067Y-34677213D01*
X138427067Y-34677213D02*
X138188972Y-34581975D01*
X138569924Y-34867689D02*
X138427067Y-34677213D01*
X138427067Y-34677213D02*
X138284210Y-34867689D01*
X138427067Y-34439118D02*
X138427067Y-34677213D01*
X138665162Y-34581975D02*
X138427067Y-34677213D01*
X138427067Y-34677213D02*
X138188972Y-34581975D01*
X138569924Y-34867689D02*
X138427067Y-34677213D01*
X138427067Y-34677213D02*
X138284210Y-34867689D01*
X109386666Y-49889580D02*
X109434285Y-49937200D01*
X109434285Y-49937200D02*
X109577142Y-49984819D01*
X109577142Y-49984819D02*
X109672380Y-49984819D01*
X109672380Y-49984819D02*
X109815237Y-49937200D01*
X109815237Y-49937200D02*
X109910475Y-49841961D01*
X109910475Y-49841961D02*
X109958094Y-49746723D01*
X109958094Y-49746723D02*
X110005713Y-49556247D01*
X110005713Y-49556247D02*
X110005713Y-49413390D01*
X110005713Y-49413390D02*
X109958094Y-49222914D01*
X109958094Y-49222914D02*
X109910475Y-49127676D01*
X109910475Y-49127676D02*
X109815237Y-49032438D01*
X109815237Y-49032438D02*
X109672380Y-48984819D01*
X109672380Y-48984819D02*
X109577142Y-48984819D01*
X109577142Y-48984819D02*
X109434285Y-49032438D01*
X109434285Y-49032438D02*
X109386666Y-49080057D01*
X108434285Y-49984819D02*
X109005713Y-49984819D01*
X108719999Y-49984819D02*
X108719999Y-48984819D01*
X108719999Y-48984819D02*
X108815237Y-49127676D01*
X108815237Y-49127676D02*
X108910475Y-49222914D01*
X108910475Y-49222914D02*
X109005713Y-49270533D01*
X106783094Y-41729819D02*
X106783094Y-40729819D01*
X106783094Y-40729819D02*
X106544999Y-40729819D01*
X106544999Y-40729819D02*
X106402142Y-40777438D01*
X106402142Y-40777438D02*
X106306904Y-40872676D01*
X106306904Y-40872676D02*
X106259285Y-40967914D01*
X106259285Y-40967914D02*
X106211666Y-41158390D01*
X106211666Y-41158390D02*
X106211666Y-41301247D01*
X106211666Y-41301247D02*
X106259285Y-41491723D01*
X106259285Y-41491723D02*
X106306904Y-41586961D01*
X106306904Y-41586961D02*
X106402142Y-41682200D01*
X106402142Y-41682200D02*
X106544999Y-41729819D01*
X106544999Y-41729819D02*
X106783094Y-41729819D01*
X105259285Y-41729819D02*
X105830713Y-41729819D01*
X105544999Y-41729819D02*
X105544999Y-40729819D01*
X105544999Y-40729819D02*
X105640237Y-40872676D01*
X105640237Y-40872676D02*
X105735475Y-40967914D01*
X105735475Y-40967914D02*
X105830713Y-41015533D01*
X109958094Y-41729819D02*
X109958094Y-40729819D01*
X109958094Y-40729819D02*
X109719999Y-40729819D01*
X109719999Y-40729819D02*
X109577142Y-40777438D01*
X109577142Y-40777438D02*
X109481904Y-40872676D01*
X109481904Y-40872676D02*
X109434285Y-40967914D01*
X109434285Y-40967914D02*
X109386666Y-41158390D01*
X109386666Y-41158390D02*
X109386666Y-41301247D01*
X109386666Y-41301247D02*
X109434285Y-41491723D01*
X109434285Y-41491723D02*
X109481904Y-41586961D01*
X109481904Y-41586961D02*
X109577142Y-41682200D01*
X109577142Y-41682200D02*
X109719999Y-41729819D01*
X109719999Y-41729819D02*
X109958094Y-41729819D01*
X109005713Y-40825057D02*
X108958094Y-40777438D01*
X108958094Y-40777438D02*
X108862856Y-40729819D01*
X108862856Y-40729819D02*
X108624761Y-40729819D01*
X108624761Y-40729819D02*
X108529523Y-40777438D01*
X108529523Y-40777438D02*
X108481904Y-40825057D01*
X108481904Y-40825057D02*
X108434285Y-40920295D01*
X108434285Y-40920295D02*
X108434285Y-41015533D01*
X108434285Y-41015533D02*
X108481904Y-41158390D01*
X108481904Y-41158390D02*
X109053332Y-41729819D01*
X109053332Y-41729819D02*
X108434285Y-41729819D01*
D11*
%TO.C,R5*%
X105770000Y-44357936D02*
X105770000Y-45812064D01*
X107590000Y-44357936D02*
X107590000Y-45812064D01*
D12*
%TO.C,SW2*%
X121970800Y-39920898D02*
X121970800Y-37570301D01*
X122482640Y-35621399D02*
X127287292Y-35621399D01*
X127707360Y-41869799D02*
X122482640Y-41869799D01*
X128219200Y-37577639D02*
X128219200Y-39920898D01*
D11*
%TO.C,R4*%
X113757064Y-59415000D02*
X112302936Y-59415000D01*
X113757064Y-61235000D02*
X112302936Y-61235000D01*
%TO.C,R1*%
X113757064Y-55605000D02*
X112302936Y-55605000D01*
X113757064Y-57425000D02*
X112302936Y-57425000D01*
%TO.C,R3*%
X102595000Y-44357936D02*
X102595000Y-45812064D01*
X104415000Y-44357936D02*
X104415000Y-45812064D01*
%TO.C,R2*%
X113757064Y-52430000D02*
X112302936Y-52430000D01*
X113757064Y-54250000D02*
X112302936Y-54250000D01*
%TO.C,U2*%
X118635000Y-43755000D02*
X120285000Y-43755000D01*
X118635000Y-61655000D02*
X118635000Y-43755000D01*
X122285000Y-43755000D02*
X123935000Y-43755000D01*
X123935000Y-43755000D02*
X123935000Y-61655000D01*
X123935000Y-61655000D02*
X118635000Y-61655000D01*
X122285000Y-43755000D02*
G75*
G02*
X120285000Y-43755000I-1000000J0D01*
G01*
%TO.C,J3*%
X93990000Y-52910000D02*
X93990000Y-53770000D01*
X93990000Y-53770000D02*
X99990000Y-53770000D01*
X93990000Y-55450000D02*
X93990000Y-56310000D01*
X93990000Y-56310000D02*
X99990000Y-56310000D01*
X93990000Y-57990000D02*
X93990000Y-58850000D01*
X93990000Y-58850000D02*
X99990000Y-58850000D01*
X99990000Y-52910000D02*
X93990000Y-52910000D01*
X99990000Y-55450000D02*
X93990000Y-55450000D01*
X99990000Y-57990000D02*
X93990000Y-57990000D01*
X102750000Y-52070000D02*
X99990000Y-52070000D01*
X102750000Y-54610000D02*
X99990000Y-54610000D01*
X102750000Y-57150000D02*
X99990000Y-57150000D01*
X102980000Y-50370000D02*
X102750000Y-50370000D01*
X102980000Y-51230000D02*
X102750000Y-51230000D01*
X103062642Y-52910000D02*
X102750000Y-52910000D01*
X103062642Y-53770000D02*
X102750000Y-53770000D01*
X103062642Y-55450000D02*
X102750000Y-55450000D01*
X103062642Y-56310000D02*
X102750000Y-56310000D01*
X103062642Y-57990000D02*
X102750000Y-57990000D01*
X103062642Y-58850000D02*
X102750000Y-58850000D01*
X105410000Y-49530000D02*
X104140000Y-49530000D01*
X105410000Y-50800000D02*
X105410000Y-49530000D01*
X99990000Y-50370000D02*
X93990000Y-50370000D01*
X93990000Y-51230000D01*
X99990000Y-51230000D01*
X99990000Y-50370000D01*
G36*
X99990000Y-50370000D02*
G01*
X93990000Y-50370000D01*
X93990000Y-51230000D01*
X99990000Y-51230000D01*
X99990000Y-50370000D01*
G37*
X102750000Y-49420000D02*
X99990000Y-49420000D01*
X99990000Y-59800000D01*
X102750000Y-59800000D01*
X102750000Y-49420000D01*
D12*
%TO.C,SW3*%
X111810800Y-39920898D02*
X111810800Y-37570301D01*
X112322640Y-35621399D02*
X117127292Y-35621399D01*
X117547360Y-41869799D02*
X112322640Y-41869799D01*
X118059200Y-37577639D02*
X118059200Y-39920898D01*
D11*
%TO.C,J1*%
X127637500Y-46860000D02*
X127637500Y-62360000D01*
X127637500Y-62360000D02*
X136757500Y-62360000D01*
X128947500Y-48160000D02*
X128947500Y-61060000D01*
X128947500Y-61060000D02*
X135447500Y-61060000D01*
X135447500Y-48160000D02*
X128947500Y-48160000D01*
X135447500Y-52560000D02*
X135447500Y-48160000D01*
X135447500Y-56660000D02*
X136757500Y-56660000D01*
X135447500Y-61060000D02*
X135447500Y-56660000D01*
X136757500Y-46860000D02*
X127637500Y-46860000D01*
X136757500Y-52560000D02*
X135447500Y-52560000D01*
X136757500Y-62360000D02*
X136757500Y-46860000D01*
X137147500Y-52070000D02*
X138147500Y-51570000D01*
X138147500Y-51570000D02*
X138147500Y-52570000D01*
X138147500Y-52570000D02*
X137147500Y-52070000D01*
D12*
%TO.C,SW1*%
X132052868Y-39920898D02*
X132052868Y-37570301D01*
X132564708Y-35621399D02*
X137369360Y-35621399D01*
X137789428Y-41869799D02*
X132564708Y-41869799D01*
X138301268Y-37577639D02*
X138301268Y-39920898D01*
D11*
%TO.C,C1*%
X113741252Y-48620000D02*
X112318748Y-48620000D01*
X113741252Y-50440000D02*
X112318748Y-50440000D01*
%TO.C,D1*%
X104910000Y-35640000D02*
X107180000Y-35640000D01*
X104910000Y-39700000D02*
X104910000Y-35640000D01*
X107180000Y-35640000D02*
X107180000Y-39700000D01*
%TO.C,D2*%
X107450000Y-35640000D02*
X109720000Y-35640000D01*
X107450000Y-39700000D02*
X107450000Y-35640000D01*
X109720000Y-35640000D02*
X109720000Y-39700000D01*
%TD*%
M02*
