M48
; DRILL file {KiCad 9.0.6} date 2026-03-15T16:15:22-0400
; FORMAT={-:-/ absolute / metric / decimal}
; #@! TF.CreationDate,2026-03-15T16:15:22-04:00
; #@! TF.GenerationSoftware,Kicad,Pcbnew,9.0.6
; #@! TF.FileFunction,Plated,1,2,PTH
FMAT,2
METRIC
; #@! TA.AperFunction,Plated,PTH,ViaDrill
T1C0.300
; #@! TA.AperFunction,Plated,PTH,ComponentDrill
T2C0.800
; #@! TA.AperFunction,Plated,PTH,ComponentDrill
T3C0.991
; #@! TA.AperFunction,Plated,PTH,ComponentDrill
T4C1.000
; #@! TA.AperFunction,Plated,PTH,ComponentDrill
T5C2.413
%
G90
G05
T1
X110.0Y-37.75
X112.45Y-48.025
X115.175Y-58.175
X118.875Y-52.7
X119.65Y-51.3
X119.975Y-38.75
X121.225Y-62.625
X121.3Y-57.75
X122.1Y-47.5
X122.1Y-49.975
X123.325Y-54.0
X123.65Y-37.675
X127.075Y-55.675
X129.65Y-48.85
X132.175Y-62.6
T2
X117.475Y-45.085
X117.475Y-47.625
X117.475Y-50.165
X117.475Y-52.705
X117.475Y-55.245
X117.475Y-57.785
X117.475Y-60.325
X125.095Y-45.085
X125.095Y-47.625
X125.095Y-50.165
X125.095Y-52.705
X125.095Y-55.245
X125.095Y-57.785
X125.095Y-60.325
T3
X111.685Y-36.496
X111.685Y-40.996
X118.185Y-36.496
X118.185Y-40.996
X121.845Y-36.496
X121.845Y-40.996
X128.345Y-36.496
X128.345Y-40.996
X131.927Y-36.496
X131.927Y-40.996
X138.427Y-36.496
X138.427Y-40.996
T4
X104.14Y-50.8
X104.14Y-53.34
X104.14Y-55.88
X104.14Y-58.42
X130.927Y-52.07
X130.927Y-54.61
X130.927Y-57.15
X133.468Y-52.07
X133.468Y-54.61
X133.468Y-57.15
X139.065Y-50.8
X139.065Y-53.34
X139.065Y-55.88
X139.065Y-58.42
T5
X102.235Y-36.83
X102.235Y-63.5
X111.125Y-45.72
X111.125Y-63.5
X136.525Y-45.72
X136.525Y-63.5
X142.875Y-36.83
X142.875Y-63.5
M30
