%TF.GenerationSoftware,KiCad,Pcbnew,9.0.6*%
%TF.CreationDate,2026-03-15T16:15:25-04:00*%
%TF.ProjectId,SimpleRTC,53696d70-6c65-4525-9443-2e6b69636164,rev?*%
%TF.SameCoordinates,Original*%
%TF.FileFunction,Copper,L1,Top*%
%TF.FilePolarity,Positive*%
%FSLAX46Y46*%
G04 Gerber Fmt 4.6, Leading zero omitted, Abs format (unit mm)*
G04 Created by KiCad (PCBNEW 9.0.6) date 2026-03-15 16:15:25*
%MOMM*%
%LPD*%
G01*
G04 APERTURE LIST*
G04 Aperture macros list*
%AMRoundRect*
0 Rectangle with rounded corners*
0 $1 Rounding radius*
0 $2 $3 $4 $5 $6 $7 $8 $9 X,Y pos of 4 corners*
0 Add a 4 corners polygon primitive as box body*
4,1,4,$2,$3,$4,$5,$6,$7,$8,$9,$2,$3,0*
0 Add four circle primitives for the rounded corners*
1,1,$1+$1,$2,$3*
1,1,$1+$1,$4,$5*
1,1,$1+$1,$6,$7*
1,1,$1+$1,$8,$9*
0 Add four rect primitives between the rounded corners*
20,1,$1+$1,$2,$3,$4,$5,0*
20,1,$1+$1,$4,$5,$6,$7,0*
20,1,$1+$1,$6,$7,$8,$9,0*
20,1,$1+$1,$8,$9,$2,$3,0*%
G04 Aperture macros list end*
%TA.AperFunction,ComponentPad*%
%ADD10C,3.175000*%
%TD*%
%TA.AperFunction,ComponentPad*%
%ADD11R,1.700000X1.700000*%
%TD*%
%TA.AperFunction,ComponentPad*%
%ADD12C,1.700000*%
%TD*%
%TA.AperFunction,ComponentPad*%
%ADD13R,1.498600X1.498600*%
%TD*%
%TA.AperFunction,ComponentPad*%
%ADD14C,1.498600*%
%TD*%
%TA.AperFunction,ComponentPad*%
%ADD15RoundRect,0.250000X0.550000X0.550000X-0.550000X0.550000X-0.550000X-0.550000X0.550000X-0.550000X0*%
%TD*%
%TA.AperFunction,ComponentPad*%
%ADD16C,1.600000*%
%TD*%
%TA.AperFunction,ComponentPad*%
%ADD17RoundRect,0.250000X0.600000X0.600000X-0.600000X0.600000X-0.600000X-0.600000X0.600000X-0.600000X0*%
%TD*%
%TA.AperFunction,ViaPad*%
%ADD18C,0.600000*%
%TD*%
%TA.AperFunction,Conductor*%
%ADD19C,0.200000*%
%TD*%
G04 APERTURE END LIST*
D10*
%TO.P,H6,1*%
%TO.N,N/C*%
X102235000Y-63500000D03*
%TD*%
%TO.P,H7,1*%
%TO.N,N/C*%
X142875000Y-63500000D03*
%TD*%
%TO.P,H4,1*%
%TO.N,N/C*%
X142875000Y-36830000D03*
%TD*%
D11*
%TO.P,J2,1,Pin_1*%
%TO.N,/SCK*%
X139065000Y-58420000D03*
D12*
%TO.P,J2,2,Pin_2*%
%TO.N,/MOSI*%
X139065000Y-55880000D03*
%TO.P,J2,3,Pin_3*%
%TO.N,VCC*%
X139065000Y-53340000D03*
%TO.P,J2,4,Pin_4*%
%TO.N,GND*%
X139065000Y-50800000D03*
D10*
%TO.P,J2,5*%
%TO.N,N/C*%
X111125000Y-45720000D03*
X111125000Y-63500000D03*
X136525000Y-45720000D03*
X136525000Y-63500000D03*
%TD*%
%TO.P,H5,1*%
%TO.N,N/C*%
X102235000Y-36830000D03*
%TD*%
D13*
%TO.P,SW2,1,1*%
%TO.N,/SW2*%
X128345001Y-36495599D03*
D14*
%TO.P,SW2,2*%
%TO.N,N/C*%
X121845000Y-36495599D03*
%TO.P,SW2,3,3*%
%TO.N,GND*%
X128345001Y-40995600D03*
%TO.P,SW2,4*%
%TO.N,N/C*%
X121845000Y-40995600D03*
%TD*%
D15*
%TO.P,U2,1,VCC*%
%TO.N,VCC*%
X125095000Y-45085000D03*
D16*
%TO.P,U2,2,XTAL1/PB0*%
%TO.N,/TX*%
X125095000Y-47625000D03*
%TO.P,U2,3,XTAL2/PB1*%
%TO.N,/RX*%
X125095000Y-50165000D03*
%TO.P,U2,4,~{RESET}/PB3*%
%TO.N,/~{RST}*%
X125095000Y-52705000D03*
%TO.P,U2,5,PB2*%
%TO.N,unconnected-(U2-PB2-Pad5)*%
X125095000Y-55245000D03*
%TO.P,U2,6,PA7*%
%TO.N,unconnected-(U2-PA7-Pad6)*%
X125095000Y-57785000D03*
%TO.P,U2,7,PA6*%
%TO.N,/MOSI*%
X125095000Y-60325000D03*
%TO.P,U2,8,PA5*%
%TO.N,/MISO*%
X117475000Y-60325000D03*
%TO.P,U2,9,PA4*%
%TO.N,/SCK*%
X117475000Y-57785000D03*
%TO.P,U2,10,PA3*%
%TO.N,unconnected-(U2-PA3-Pad10)*%
X117475000Y-55245000D03*
%TO.P,U2,11,PA2*%
%TO.N,/SW3*%
X117475000Y-52705000D03*
%TO.P,U2,12,PA1*%
%TO.N,/SW2*%
X117475000Y-50165000D03*
%TO.P,U2,13,AREF/PA0*%
%TO.N,/SW1*%
X117475000Y-47625000D03*
%TO.P,U2,14,GND*%
%TO.N,GND*%
X117475000Y-45085000D03*
%TD*%
D11*
%TO.P,J3,1,Pin_1*%
%TO.N,VCC*%
X104140000Y-50800000D03*
D12*
%TO.P,J3,2,Pin_2*%
%TO.N,/TX*%
X104140000Y-53340000D03*
%TO.P,J3,3,Pin_3*%
%TO.N,/RX*%
X104140000Y-55880000D03*
%TO.P,J3,4,Pin_4*%
%TO.N,GND*%
X104140000Y-58420000D03*
%TD*%
D13*
%TO.P,SW3,1,1*%
%TO.N,/SW3*%
X118185001Y-36495599D03*
D14*
%TO.P,SW3,2*%
%TO.N,N/C*%
X111685000Y-36495599D03*
%TO.P,SW3,3,3*%
%TO.N,GND*%
X118185001Y-40995600D03*
%TO.P,SW3,4*%
%TO.N,N/C*%
X111685000Y-40995600D03*
%TD*%
D17*
%TO.P,J1,1,MISO*%
%TO.N,/MISO*%
X133467500Y-52070000D03*
D12*
%TO.P,J1,2,VCC*%
%TO.N,VCC*%
X130927500Y-52070000D03*
%TO.P,J1,3,SCK*%
%TO.N,/SCK*%
X133467500Y-54610000D03*
%TO.P,J1,4,MOSI*%
%TO.N,/MOSI*%
X130927500Y-54610000D03*
%TO.P,J1,5,~{RST}*%
%TO.N,/~{RST}*%
X133467500Y-57150000D03*
%TO.P,J1,6,GND*%
%TO.N,GND*%
X130927500Y-57150000D03*
%TD*%
D13*
%TO.P,SW1,1,1*%
%TO.N,/SW1*%
X138427069Y-36495599D03*
D14*
%TO.P,SW1,2*%
%TO.N,N/C*%
X131927068Y-36495599D03*
%TO.P,SW1,3,3*%
%TO.N,GND*%
X138427069Y-40995600D03*
%TO.P,SW1,4*%
%TO.N,N/C*%
X131927068Y-40995600D03*
%TD*%
D18*
%TO.N,GND*%
X112450000Y-48025000D03*
%TO.N,/SCK*%
X132175000Y-62600000D03*
X121225000Y-62625000D03*
X121300000Y-57750000D03*
%TO.N,/TX*%
X122100000Y-47500000D03*
X122100000Y-49975000D03*
%TO.N,/RX*%
X123650000Y-37675000D03*
X110000000Y-37750000D03*
%TO.N,/SW1*%
X119975000Y-38750000D03*
%TO.N,/SW2*%
X129650000Y-48850000D03*
%TO.N,/MOSI*%
X115175000Y-58175000D03*
%TO.N,/~{RST}*%
X118875000Y-52700000D03*
X127075000Y-55675000D03*
%TO.N,/MOSI*%
X123325000Y-54000000D03*
%TO.N,/MISO*%
X119650000Y-51300000D03*
%TD*%
D19*
%TO.N,/SW2*%
X129650000Y-48850000D02*
X129600000Y-48800000D01*
X129600000Y-48800000D02*
X118840000Y-48800000D01*
X118840000Y-48800000D02*
X117475000Y-50165000D01*
%TO.N,/SCK*%
X132150000Y-62625000D02*
X132175000Y-62600000D01*
X121225000Y-62625000D02*
X132150000Y-62625000D01*
X121265000Y-57785000D02*
X121300000Y-57750000D01*
X117475000Y-57785000D02*
X121265000Y-57785000D01*
%TO.N,/TX*%
X122100000Y-47500000D02*
X122225000Y-47625000D01*
X122225000Y-47625000D02*
X125095000Y-47625000D01*
X104140000Y-53340000D02*
X106030000Y-51450000D01*
X106030000Y-51450000D02*
X118650057Y-51450000D01*
X118650057Y-51450000D02*
X120125057Y-49975000D01*
X120125057Y-49975000D02*
X122100000Y-49975000D01*
%TO.N,/RX*%
X123575000Y-37750000D02*
X123650000Y-37675000D01*
X110000000Y-37750000D02*
X123575000Y-37750000D01*
%TO.N,/SW1*%
X136172668Y-38750000D02*
X119975000Y-38750000D01*
X138427069Y-36495599D02*
X136172668Y-38750000D01*
%TO.N,/MOSI*%
X130927500Y-54610000D02*
X132137500Y-53400000D01*
X136585000Y-53400000D02*
X139065000Y-55880000D01*
X132137500Y-53400000D02*
X136585000Y-53400000D01*
X115886000Y-58886000D02*
X115175000Y-58175000D01*
X123656000Y-58886000D02*
X115886000Y-58886000D01*
X125095000Y-60325000D02*
X123656000Y-58886000D01*
%TO.N,/~{RST}*%
X118880000Y-52705000D02*
X118875000Y-52700000D01*
X125095000Y-52705000D02*
X118880000Y-52705000D01*
X127161000Y-55761000D02*
X127075000Y-55675000D01*
X132078500Y-55761000D02*
X127161000Y-55761000D01*
X133467500Y-57150000D02*
X132078500Y-55761000D01*
%TO.N,/MOSI*%
X130317500Y-54000000D02*
X123325000Y-54000000D01*
X130927500Y-54610000D02*
X130317500Y-54000000D01*
%TO.N,/MISO*%
X125517050Y-51300000D02*
X119650000Y-51300000D01*
X125898050Y-50919000D02*
X125517050Y-51300000D01*
X132316500Y-50919000D02*
X125898050Y-50919000D01*
X133467500Y-52070000D02*
X132316500Y-50919000D01*
%TD*%
%TA.AperFunction,Conductor*%
%TO.N,GND*%
G36*
X111137990Y-35445185D02*
G01*
X111183745Y-35497989D01*
X111193689Y-35567147D01*
X111164664Y-35630703D01*
X111139842Y-35652602D01*
X111045115Y-35715896D01*
X111045111Y-35715899D01*
X110905300Y-35855710D01*
X110905297Y-35855714D01*
X110795442Y-36020123D01*
X110719775Y-36202800D01*
X110719773Y-36202808D01*
X110681200Y-36396728D01*
X110681200Y-36594469D01*
X110719773Y-36788389D01*
X110719775Y-36788397D01*
X110795442Y-36971074D01*
X110905297Y-37135483D01*
X110905300Y-37135487D01*
X110953632Y-37183819D01*
X110987117Y-37245142D01*
X110982133Y-37314834D01*
X110940261Y-37370767D01*
X110874797Y-37395184D01*
X110865951Y-37395500D01*
X110481044Y-37395500D01*
X110414005Y-37375815D01*
X110393363Y-37359181D01*
X110340472Y-37306290D01*
X110340467Y-37306286D01*
X110214031Y-37233289D01*
X110214030Y-37233288D01*
X110214029Y-37233288D01*
X110073001Y-37195500D01*
X109926999Y-37195500D01*
X109785971Y-37233288D01*
X109785968Y-37233289D01*
X109659532Y-37306286D01*
X109659527Y-37306290D01*
X109556290Y-37409527D01*
X109556286Y-37409532D01*
X109483289Y-37535968D01*
X109483288Y-37535971D01*
X109445500Y-37676999D01*
X109445500Y-37823000D01*
X109483288Y-37964028D01*
X109483289Y-37964031D01*
X109556286Y-38090467D01*
X109556288Y-38090470D01*
X109556289Y-38090471D01*
X109659529Y-38193711D01*
X109659530Y-38193712D01*
X109659532Y-38193713D01*
X109675251Y-38202788D01*
X109785971Y-38266712D01*
X109926999Y-38304500D01*
X109927001Y-38304500D01*
X110072999Y-38304500D01*
X110073001Y-38304500D01*
X110214029Y-38266712D01*
X110340471Y-38193711D01*
X110393363Y-38140819D01*
X110454686Y-38107334D01*
X110481044Y-38104500D01*
X119536956Y-38104500D01*
X119603995Y-38124185D01*
X119649750Y-38176989D01*
X119659694Y-38246147D01*
X119630669Y-38309703D01*
X119624637Y-38316181D01*
X119531290Y-38409527D01*
X119531286Y-38409532D01*
X119458289Y-38535968D01*
X119458288Y-38535971D01*
X119420500Y-38676999D01*
X119420500Y-38823000D01*
X119458288Y-38964028D01*
X119458289Y-38964031D01*
X119531286Y-39090467D01*
X119531288Y-39090470D01*
X119531289Y-39090471D01*
X119634529Y-39193711D01*
X119760971Y-39266712D01*
X119901999Y-39304500D01*
X119902001Y-39304500D01*
X120047999Y-39304500D01*
X120048001Y-39304500D01*
X120189029Y-39266712D01*
X120315471Y-39193711D01*
X120368363Y-39140819D01*
X120429686Y-39107334D01*
X120456044Y-39104500D01*
X136219337Y-39104500D01*
X136219339Y-39104500D01*
X136309500Y-39080341D01*
X136390336Y-39033671D01*
X137888288Y-37535716D01*
X137949611Y-37502232D01*
X137975969Y-37499398D01*
X139201433Y-37499398D01*
X139201435Y-37499398D01*
X139275670Y-37484633D01*
X139359853Y-37428383D01*
X139416103Y-37344200D01*
X139430869Y-37269966D01*
X139430868Y-35721233D01*
X139416103Y-35646998D01*
X139396987Y-35618390D01*
X139376110Y-35551713D01*
X139394595Y-35484333D01*
X139446573Y-35437643D01*
X139500090Y-35425500D01*
X141379473Y-35425500D01*
X141446512Y-35445185D01*
X141492267Y-35497989D01*
X141502211Y-35567147D01*
X141477849Y-35624986D01*
X141340153Y-35804435D01*
X141340142Y-35804451D01*
X141219419Y-36013548D01*
X141219414Y-36013559D01*
X141127011Y-36236639D01*
X141064518Y-36469870D01*
X141064515Y-36469883D01*
X141033001Y-36709259D01*
X141033000Y-36709275D01*
X141033000Y-36950724D01*
X141033001Y-36950740D01*
X141064515Y-37190116D01*
X141064516Y-37190121D01*
X141064517Y-37190127D01*
X141087339Y-37275301D01*
X141127011Y-37423360D01*
X141219414Y-37646440D01*
X141219419Y-37646451D01*
X141340142Y-37855548D01*
X141340153Y-37855564D01*
X141487138Y-38047119D01*
X141487144Y-38047126D01*
X141657873Y-38217855D01*
X141657880Y-38217861D01*
X141721543Y-38266711D01*
X141849444Y-38364853D01*
X141849451Y-38364857D01*
X142058548Y-38485580D01*
X142058553Y-38485582D01*
X142058556Y-38485584D01*
X142281638Y-38577988D01*
X142514873Y-38640483D01*
X142754269Y-38672000D01*
X142754276Y-38672000D01*
X142995724Y-38672000D01*
X142995731Y-38672000D01*
X143235127Y-38640483D01*
X143468362Y-38577988D01*
X143691444Y-38485584D01*
X143900556Y-38364853D01*
X144080014Y-38227149D01*
X144145183Y-38201956D01*
X144213628Y-38215994D01*
X144263617Y-38264808D01*
X144279500Y-38325526D01*
X144279500Y-62004473D01*
X144259815Y-62071512D01*
X144207011Y-62117267D01*
X144137853Y-62127211D01*
X144080014Y-62102849D01*
X143900564Y-61965153D01*
X143900562Y-61965151D01*
X143900556Y-61965147D01*
X143900551Y-61965144D01*
X143900548Y-61965142D01*
X143691451Y-61844419D01*
X143691440Y-61844414D01*
X143468360Y-61752011D01*
X143351744Y-61720764D01*
X143235127Y-61689517D01*
X143235121Y-61689516D01*
X143235116Y-61689515D01*
X142995740Y-61658001D01*
X142995737Y-61658000D01*
X142995731Y-61658000D01*
X142754269Y-61658000D01*
X142754263Y-61658000D01*
X142754259Y-61658001D01*
X142514883Y-61689515D01*
X142514876Y-61689516D01*
X142514873Y-61689517D01*
X142465582Y-61702724D01*
X142281639Y-61752011D01*
X142058559Y-61844414D01*
X142058548Y-61844419D01*
X141849451Y-61965142D01*
X141849435Y-61965153D01*
X141657880Y-62112138D01*
X141657873Y-62112144D01*
X141487144Y-62282873D01*
X141487138Y-62282880D01*
X141340153Y-62474435D01*
X141340142Y-62474451D01*
X141219419Y-62683548D01*
X141219414Y-62683559D01*
X141127011Y-62906639D01*
X141106729Y-62982334D01*
X141070724Y-63116710D01*
X141064518Y-63139870D01*
X141064515Y-63139883D01*
X141033001Y-63379259D01*
X141033000Y-63379275D01*
X141033000Y-63620724D01*
X141033001Y-63620740D01*
X141064515Y-63860116D01*
X141064516Y-63860121D01*
X141064517Y-63860127D01*
X141064518Y-63860129D01*
X141127011Y-64093360D01*
X141219414Y-64316440D01*
X141219419Y-64316451D01*
X141340142Y-64525548D01*
X141340153Y-64525564D01*
X141477849Y-64705014D01*
X141503043Y-64770183D01*
X141489004Y-64838628D01*
X141440190Y-64888617D01*
X141379473Y-64904500D01*
X138020527Y-64904500D01*
X137953488Y-64884815D01*
X137907733Y-64832011D01*
X137897789Y-64762853D01*
X137922151Y-64705014D01*
X137995145Y-64609884D01*
X138059853Y-64525556D01*
X138180584Y-64316444D01*
X138272988Y-64093362D01*
X138335483Y-63860127D01*
X138367000Y-63620731D01*
X138367000Y-63379269D01*
X138335483Y-63139873D01*
X138272988Y-62906638D01*
X138180584Y-62683556D01*
X138180582Y-62683553D01*
X138180580Y-62683548D01*
X138059857Y-62474451D01*
X138059856Y-62474450D01*
X138059853Y-62474444D01*
X137991963Y-62385968D01*
X137912861Y-62282880D01*
X137912855Y-62282873D01*
X137742126Y-62112144D01*
X137742119Y-62112138D01*
X137550564Y-61965153D01*
X137550562Y-61965151D01*
X137550556Y-61965147D01*
X137550551Y-61965144D01*
X137550548Y-61965142D01*
X137341451Y-61844419D01*
X137341440Y-61844414D01*
X137118360Y-61752011D01*
X137001744Y-61720764D01*
X136885127Y-61689517D01*
X136885121Y-61689516D01*
X136885116Y-61689515D01*
X136645740Y-61658001D01*
X136645737Y-61658000D01*
X136645731Y-61658000D01*
X136404269Y-61658000D01*
X136404263Y-61658000D01*
X136404259Y-61658001D01*
X136164883Y-61689515D01*
X136164876Y-61689516D01*
X136164873Y-61689517D01*
X136115582Y-61702724D01*
X135931639Y-61752011D01*
X135708559Y-61844414D01*
X135708548Y-61844419D01*
X135499451Y-61965142D01*
X135499435Y-61965153D01*
X135307880Y-62112138D01*
X135307873Y-62112144D01*
X135137144Y-62282873D01*
X135137138Y-62282880D01*
X134990153Y-62474435D01*
X134990142Y-62474451D01*
X134869419Y-62683548D01*
X134869414Y-62683559D01*
X134777011Y-62906639D01*
X134756729Y-62982334D01*
X134720724Y-63116710D01*
X134714518Y-63139870D01*
X134714515Y-63139883D01*
X134683001Y-63379259D01*
X134683000Y-63379275D01*
X134683000Y-63620724D01*
X134683001Y-63620740D01*
X134714515Y-63860116D01*
X134714516Y-63860121D01*
X134714517Y-63860127D01*
X134714518Y-63860129D01*
X134777011Y-64093360D01*
X134869414Y-64316440D01*
X134869419Y-64316451D01*
X134990142Y-64525548D01*
X134990153Y-64525564D01*
X135127849Y-64705014D01*
X135153043Y-64770183D01*
X135139004Y-64838628D01*
X135090190Y-64888617D01*
X135029473Y-64904500D01*
X112620527Y-64904500D01*
X112553488Y-64884815D01*
X112507733Y-64832011D01*
X112497789Y-64762853D01*
X112522151Y-64705014D01*
X112595145Y-64609884D01*
X112659853Y-64525556D01*
X112780584Y-64316444D01*
X112872988Y-64093362D01*
X112935483Y-63860127D01*
X112967000Y-63620731D01*
X112967000Y-63379269D01*
X112935483Y-63139873D01*
X112872988Y-62906638D01*
X112780584Y-62683556D01*
X112704629Y-62551999D01*
X120670500Y-62551999D01*
X120670500Y-62698001D01*
X120701590Y-62814029D01*
X120708288Y-62839028D01*
X120708289Y-62839031D01*
X120781286Y-62965467D01*
X120781288Y-62965470D01*
X120781289Y-62965471D01*
X120884529Y-63068711D01*
X121010971Y-63141712D01*
X121151999Y-63179500D01*
X121152001Y-63179500D01*
X121297999Y-63179500D01*
X121298001Y-63179500D01*
X121439029Y-63141712D01*
X121565471Y-63068711D01*
X121618363Y-63015819D01*
X121679686Y-62982334D01*
X121706044Y-62979500D01*
X131718956Y-62979500D01*
X131785995Y-62999185D01*
X131806637Y-63015819D01*
X131834529Y-63043711D01*
X131960971Y-63116712D01*
X132101999Y-63154500D01*
X132102001Y-63154500D01*
X132247999Y-63154500D01*
X132248001Y-63154500D01*
X132389029Y-63116712D01*
X132515471Y-63043711D01*
X132618711Y-62940471D01*
X132691712Y-62814029D01*
X132729500Y-62673001D01*
X132729500Y-62526999D01*
X132691712Y-62385971D01*
X132644712Y-62304564D01*
X132618713Y-62259532D01*
X132618709Y-62259527D01*
X132515472Y-62156290D01*
X132515467Y-62156286D01*
X132389031Y-62083289D01*
X132389030Y-62083288D01*
X132389029Y-62083288D01*
X132248001Y-62045500D01*
X132101999Y-62045500D01*
X131960971Y-62083288D01*
X131960968Y-62083289D01*
X131834532Y-62156286D01*
X131834527Y-62156290D01*
X131756637Y-62234181D01*
X131695314Y-62267666D01*
X131668956Y-62270500D01*
X121706044Y-62270500D01*
X121639005Y-62250815D01*
X121618363Y-62234181D01*
X121565472Y-62181290D01*
X121565467Y-62181286D01*
X121439031Y-62108289D01*
X121439030Y-62108288D01*
X121439029Y-62108288D01*
X121298001Y-62070500D01*
X121151999Y-62070500D01*
X121010971Y-62108288D01*
X121010968Y-62108289D01*
X120884532Y-62181286D01*
X120884527Y-62181290D01*
X120781290Y-62284527D01*
X120781286Y-62284532D01*
X120708289Y-62410968D01*
X120708288Y-62410971D01*
X120670500Y-62551999D01*
X112704629Y-62551999D01*
X112659853Y-62474444D01*
X112591963Y-62385968D01*
X112512861Y-62282880D01*
X112512855Y-62282873D01*
X112342126Y-62112144D01*
X112342119Y-62112138D01*
X112150564Y-61965153D01*
X112150562Y-61965151D01*
X112150556Y-61965147D01*
X112150551Y-61965144D01*
X112150548Y-61965142D01*
X111941451Y-61844419D01*
X111941440Y-61844414D01*
X111718360Y-61752011D01*
X111601744Y-61720764D01*
X111485127Y-61689517D01*
X111485121Y-61689516D01*
X111485116Y-61689515D01*
X111245740Y-61658001D01*
X111245737Y-61658000D01*
X111245731Y-61658000D01*
X111004269Y-61658000D01*
X111004263Y-61658000D01*
X111004259Y-61658001D01*
X110764883Y-61689515D01*
X110764876Y-61689516D01*
X110764873Y-61689517D01*
X110715582Y-61702724D01*
X110531639Y-61752011D01*
X110308559Y-61844414D01*
X110308548Y-61844419D01*
X110099451Y-61965142D01*
X110099435Y-61965153D01*
X109907880Y-62112138D01*
X109907873Y-62112144D01*
X109737144Y-62282873D01*
X109737138Y-62282880D01*
X109590153Y-62474435D01*
X109590142Y-62474451D01*
X109469419Y-62683548D01*
X109469414Y-62683559D01*
X109377011Y-62906639D01*
X109356729Y-62982334D01*
X109320724Y-63116710D01*
X109314518Y-63139870D01*
X109314515Y-63139883D01*
X109283001Y-63379259D01*
X109283000Y-63379275D01*
X109283000Y-63620724D01*
X109283001Y-63620740D01*
X109314515Y-63860116D01*
X109314516Y-63860121D01*
X109314517Y-63860127D01*
X109314518Y-63860129D01*
X109377011Y-64093360D01*
X109469414Y-64316440D01*
X109469419Y-64316451D01*
X109590142Y-64525548D01*
X109590153Y-64525564D01*
X109727849Y-64705014D01*
X109753043Y-64770183D01*
X109739004Y-64838628D01*
X109690190Y-64888617D01*
X109629473Y-64904500D01*
X103730527Y-64904500D01*
X103663488Y-64884815D01*
X103617733Y-64832011D01*
X103607789Y-64762853D01*
X103632151Y-64705014D01*
X103705145Y-64609884D01*
X103769853Y-64525556D01*
X103890584Y-64316444D01*
X103982988Y-64093362D01*
X104045483Y-63860127D01*
X104077000Y-63620731D01*
X104077000Y-63379269D01*
X104045483Y-63139873D01*
X103982988Y-62906638D01*
X103890584Y-62683556D01*
X103890582Y-62683553D01*
X103890580Y-62683548D01*
X103769857Y-62474451D01*
X103769856Y-62474450D01*
X103769853Y-62474444D01*
X103701963Y-62385968D01*
X103622861Y-62282880D01*
X103622855Y-62282873D01*
X103452126Y-62112144D01*
X103452119Y-62112138D01*
X103260564Y-61965153D01*
X103260562Y-61965151D01*
X103260556Y-61965147D01*
X103260551Y-61965144D01*
X103260548Y-61965142D01*
X103051451Y-61844419D01*
X103051440Y-61844414D01*
X102828360Y-61752011D01*
X102711744Y-61720764D01*
X102595127Y-61689517D01*
X102595121Y-61689516D01*
X102595116Y-61689515D01*
X102355740Y-61658001D01*
X102355737Y-61658000D01*
X102355731Y-61658000D01*
X102114269Y-61658000D01*
X102114263Y-61658000D01*
X102114259Y-61658001D01*
X101874883Y-61689515D01*
X101874876Y-61689516D01*
X101874873Y-61689517D01*
X101825582Y-61702724D01*
X101641639Y-61752011D01*
X101418559Y-61844414D01*
X101418548Y-61844419D01*
X101209451Y-61965142D01*
X101209435Y-61965153D01*
X101029986Y-62102849D01*
X100964817Y-62128043D01*
X100896372Y-62114004D01*
X100846383Y-62065190D01*
X100830500Y-62004473D01*
X100830500Y-58333107D01*
X103036000Y-58333107D01*
X103036000Y-58506892D01*
X103063183Y-58678521D01*
X103116884Y-58843793D01*
X103195774Y-58998622D01*
X103274043Y-59106349D01*
X103274044Y-59106350D01*
X103708234Y-58672159D01*
X103739901Y-58727007D01*
X103832993Y-58820099D01*
X103887839Y-58851764D01*
X103453648Y-59285955D01*
X103561377Y-59364225D01*
X103716206Y-59443115D01*
X103881478Y-59496816D01*
X104053108Y-59524000D01*
X104226892Y-59524000D01*
X104398521Y-59496816D01*
X104563793Y-59443115D01*
X104718614Y-59364229D01*
X104718620Y-59364225D01*
X104826349Y-59285955D01*
X104826350Y-59285954D01*
X104392160Y-58851764D01*
X104447007Y-58820099D01*
X104540099Y-58727007D01*
X104571764Y-58672160D01*
X105005954Y-59106350D01*
X105005955Y-59106349D01*
X105084225Y-58998620D01*
X105084229Y-58998614D01*
X105163115Y-58843793D01*
X105216816Y-58678521D01*
X105244000Y-58506892D01*
X105244000Y-58333107D01*
X105216815Y-58161477D01*
X105216815Y-58161474D01*
X105207300Y-58132190D01*
X105197490Y-58101999D01*
X114620500Y-58101999D01*
X114620500Y-58248001D01*
X114657728Y-58386937D01*
X114658288Y-58389028D01*
X114658289Y-58389031D01*
X114731286Y-58515467D01*
X114731288Y-58515470D01*
X114731289Y-58515471D01*
X114834529Y-58618711D01*
X114960971Y-58691712D01*
X115101999Y-58729500D01*
X115176799Y-58729500D01*
X115243838Y-58749185D01*
X115264480Y-58765819D01*
X115602329Y-59103668D01*
X115668332Y-59169671D01*
X115749168Y-59216341D01*
X115839329Y-59240500D01*
X116791247Y-59240500D01*
X116858286Y-59260185D01*
X116904041Y-59312989D01*
X116913985Y-59382147D01*
X116884960Y-59445703D01*
X116860138Y-59467602D01*
X116802796Y-59505916D01*
X116802792Y-59505919D01*
X116655919Y-59652792D01*
X116655916Y-59652796D01*
X116540512Y-59825509D01*
X116540511Y-59825511D01*
X116461025Y-60017409D01*
X116461022Y-60017421D01*
X116420500Y-60221136D01*
X116420500Y-60428863D01*
X116461022Y-60632578D01*
X116461025Y-60632590D01*
X116540511Y-60824488D01*
X116540512Y-60824490D01*
X116655916Y-60997203D01*
X116655919Y-60997207D01*
X116802792Y-61144080D01*
X116802796Y-61144083D01*
X116975507Y-61259486D01*
X116975508Y-61259486D01*
X116975509Y-61259487D01*
X116975511Y-61259488D01*
X117167409Y-61338974D01*
X117167414Y-61338976D01*
X117371136Y-61379499D01*
X117371139Y-61379500D01*
X117371141Y-61379500D01*
X117578861Y-61379500D01*
X117578862Y-61379499D01*
X117782586Y-61338976D01*
X117974493Y-61259486D01*
X118147204Y-61144083D01*
X118294083Y-60997204D01*
X118409486Y-60824493D01*
X118488976Y-60632586D01*
X118529500Y-60428859D01*
X118529500Y-60221141D01*
X118529500Y-60221138D01*
X118529499Y-60221136D01*
X118488977Y-60017421D01*
X118488976Y-60017416D01*
X118488976Y-60017414D01*
X118460624Y-59948965D01*
X118409488Y-59825511D01*
X118409487Y-59825509D01*
X118401685Y-59813833D01*
X118294083Y-59652796D01*
X118294080Y-59652792D01*
X118147207Y-59505919D01*
X118147203Y-59505916D01*
X118089862Y-59467602D01*
X118045057Y-59413990D01*
X118036350Y-59344665D01*
X118066504Y-59281638D01*
X118125947Y-59244918D01*
X118158753Y-59240500D01*
X123457799Y-59240500D01*
X123524838Y-59260185D01*
X123545480Y-59276819D01*
X124082494Y-59813833D01*
X124115979Y-59875156D01*
X124110995Y-59944848D01*
X124109375Y-59948965D01*
X124081024Y-60017413D01*
X124081022Y-60017416D01*
X124040500Y-60221136D01*
X124040500Y-60428863D01*
X124081022Y-60632578D01*
X124081025Y-60632590D01*
X124160511Y-60824488D01*
X124160512Y-60824490D01*
X124275916Y-60997203D01*
X124275919Y-60997207D01*
X124422792Y-61144080D01*
X124422796Y-61144083D01*
X124595507Y-61259486D01*
X124595508Y-61259486D01*
X124595509Y-61259487D01*
X124595511Y-61259488D01*
X124787409Y-61338974D01*
X124787414Y-61338976D01*
X124991136Y-61379499D01*
X124991139Y-61379500D01*
X124991141Y-61379500D01*
X125198861Y-61379500D01*
X125198862Y-61379499D01*
X125402586Y-61338976D01*
X125594493Y-61259486D01*
X125767204Y-61144083D01*
X125914083Y-60997204D01*
X126029486Y-60824493D01*
X126108976Y-60632586D01*
X126149500Y-60428859D01*
X126149500Y-60221141D01*
X126149500Y-60221138D01*
X126149499Y-60221136D01*
X126108977Y-60017421D01*
X126108976Y-60017416D01*
X126108976Y-60017414D01*
X126080624Y-59948965D01*
X126029488Y-59825511D01*
X126029487Y-59825509D01*
X126021685Y-59813833D01*
X125914083Y-59652796D01*
X125914080Y-59652792D01*
X125767207Y-59505919D01*
X125767203Y-59505916D01*
X125594490Y-59390512D01*
X125594488Y-59390511D01*
X125402590Y-59311025D01*
X125402578Y-59311022D01*
X125198862Y-59270500D01*
X125198859Y-59270500D01*
X124991141Y-59270500D01*
X124991138Y-59270500D01*
X124787416Y-59311022D01*
X124787413Y-59311024D01*
X124718965Y-59339375D01*
X124649496Y-59346842D01*
X124587017Y-59315567D01*
X124583833Y-59312494D01*
X123873669Y-58602330D01*
X123873668Y-58602329D01*
X123792832Y-58555659D01*
X123792833Y-58555659D01*
X123762778Y-58547606D01*
X123702671Y-58531500D01*
X123702669Y-58531500D01*
X121467698Y-58531500D01*
X121400659Y-58511815D01*
X121354904Y-58459011D01*
X121344960Y-58389853D01*
X121373985Y-58326297D01*
X121432763Y-58288523D01*
X121435569Y-58287735D01*
X121514029Y-58266712D01*
X121640471Y-58193711D01*
X121743711Y-58090471D01*
X121816712Y-57964029D01*
X121854500Y-57823001D01*
X121854500Y-57681136D01*
X124040500Y-57681136D01*
X124040500Y-57888863D01*
X124081022Y-58092578D01*
X124081025Y-58092590D01*
X124160511Y-58284488D01*
X124160512Y-58284490D01*
X124275916Y-58457203D01*
X124275919Y-58457207D01*
X124422792Y-58604080D01*
X124422796Y-58604083D01*
X124595507Y-58719486D01*
X124595508Y-58719486D01*
X124595509Y-58719487D01*
X124595511Y-58719488D01*
X124667207Y-58749185D01*
X124787414Y-58798976D01*
X124991136Y-58839499D01*
X124991139Y-58839500D01*
X124991141Y-58839500D01*
X125198861Y-58839500D01*
X125198862Y-58839499D01*
X125402586Y-58798976D01*
X125594493Y-58719486D01*
X125767204Y-58604083D01*
X125914083Y-58457204D01*
X126029486Y-58284493D01*
X126108976Y-58092586D01*
X126124219Y-58015954D01*
X126138432Y-57944505D01*
X126149499Y-57888863D01*
X126149500Y-57888861D01*
X126149500Y-57681138D01*
X126149499Y-57681136D01*
X126128147Y-57573793D01*
X126108976Y-57477414D01*
X126080857Y-57409529D01*
X126029488Y-57285511D01*
X126029487Y-57285510D01*
X126029486Y-57285507D01*
X125914083Y-57112796D01*
X125914080Y-57112792D01*
X125767207Y-56965919D01*
X125767203Y-56965916D01*
X125594490Y-56850512D01*
X125594488Y-56850511D01*
X125402590Y-56771025D01*
X125402578Y-56771022D01*
X125198862Y-56730500D01*
X125198859Y-56730500D01*
X124991141Y-56730500D01*
X124991138Y-56730500D01*
X124787421Y-56771022D01*
X124787409Y-56771025D01*
X124595511Y-56850511D01*
X124595509Y-56850512D01*
X124422796Y-56965916D01*
X124422792Y-56965919D01*
X124275919Y-57112792D01*
X124275916Y-57112796D01*
X124160512Y-57285509D01*
X124160511Y-57285511D01*
X124081025Y-57477409D01*
X124081022Y-57477421D01*
X124040500Y-57681136D01*
X121854500Y-57681136D01*
X121854500Y-57676999D01*
X121816712Y-57535971D01*
X121755819Y-57430500D01*
X121743713Y-57409532D01*
X121743709Y-57409527D01*
X121640472Y-57306290D01*
X121640467Y-57306286D01*
X121514031Y-57233289D01*
X121514030Y-57233288D01*
X121514029Y-57233288D01*
X121373001Y-57195500D01*
X121226999Y-57195500D01*
X121085971Y-57233288D01*
X121085968Y-57233289D01*
X120959532Y-57306286D01*
X120871636Y-57394182D01*
X120810312Y-57427666D01*
X120783955Y-57430500D01*
X118552398Y-57430500D01*
X118485359Y-57410815D01*
X118439604Y-57358011D01*
X118437837Y-57353952D01*
X118409488Y-57285511D01*
X118409487Y-57285509D01*
X118374594Y-57233289D01*
X118294083Y-57112796D01*
X118294080Y-57112792D01*
X118147207Y-56965919D01*
X118147203Y-56965916D01*
X117974490Y-56850512D01*
X117974488Y-56850511D01*
X117782590Y-56771025D01*
X117782578Y-56771022D01*
X117578862Y-56730500D01*
X117578859Y-56730500D01*
X117371141Y-56730500D01*
X117371138Y-56730500D01*
X117167421Y-56771022D01*
X117167409Y-56771025D01*
X116975511Y-56850511D01*
X116975509Y-56850512D01*
X116802796Y-56965916D01*
X116802792Y-56965919D01*
X116655919Y-57112792D01*
X116655916Y-57112796D01*
X116540512Y-57285509D01*
X116540511Y-57285511D01*
X116461025Y-57477409D01*
X116461022Y-57477421D01*
X116420500Y-57681136D01*
X116420500Y-57888863D01*
X116461022Y-58092578D01*
X116461025Y-58092590D01*
X116540511Y-58284488D01*
X116540512Y-58284489D01*
X116540514Y-58284493D01*
X116576674Y-58338609D01*
X116597552Y-58405286D01*
X116579068Y-58472666D01*
X116527089Y-58519357D01*
X116473572Y-58531500D01*
X116084201Y-58531500D01*
X116017162Y-58511815D01*
X115996520Y-58495181D01*
X115765819Y-58264480D01*
X115732334Y-58203157D01*
X115729500Y-58176799D01*
X115729500Y-58102001D01*
X115729500Y-58101999D01*
X115691712Y-57960971D01*
X115638921Y-57869534D01*
X115618713Y-57834532D01*
X115618709Y-57834527D01*
X115515472Y-57731290D01*
X115515467Y-57731286D01*
X115389031Y-57658289D01*
X115389030Y-57658288D01*
X115389029Y-57658288D01*
X115248001Y-57620500D01*
X115101999Y-57620500D01*
X114960971Y-57658288D01*
X114960968Y-57658289D01*
X114834532Y-57731286D01*
X114834527Y-57731290D01*
X114731290Y-57834527D01*
X114731286Y-57834532D01*
X114658289Y-57960968D01*
X114658288Y-57960971D01*
X114620500Y-58101999D01*
X105197490Y-58101999D01*
X105163115Y-57996206D01*
X105084225Y-57841377D01*
X105005955Y-57733649D01*
X105005955Y-57733648D01*
X104571764Y-58167839D01*
X104540099Y-58112993D01*
X104447007Y-58019901D01*
X104392159Y-57988234D01*
X104826350Y-57554044D01*
X104826349Y-57554043D01*
X104718622Y-57475774D01*
X104563793Y-57396884D01*
X104398521Y-57343183D01*
X104226892Y-57316000D01*
X104053108Y-57316000D01*
X103881478Y-57343183D01*
X103716206Y-57396884D01*
X103561379Y-57475773D01*
X103561375Y-57475775D01*
X103453649Y-57554042D01*
X103453649Y-57554044D01*
X103887840Y-57988234D01*
X103832993Y-58019901D01*
X103739901Y-58112993D01*
X103708235Y-58167840D01*
X103274044Y-57733649D01*
X103274042Y-57733649D01*
X103195775Y-57841375D01*
X103195773Y-57841379D01*
X103116884Y-57996206D01*
X103063183Y-58161478D01*
X103036000Y-58333107D01*
X100830500Y-58333107D01*
X100830500Y-55793074D01*
X103035500Y-55793074D01*
X103035500Y-55966925D01*
X103062697Y-56138639D01*
X103062697Y-56138642D01*
X103116418Y-56303978D01*
X103180866Y-56430464D01*
X103195347Y-56458884D01*
X103297535Y-56599533D01*
X103420467Y-56722465D01*
X103561116Y-56824653D01*
X103716019Y-56903580D01*
X103716021Y-56903581D01*
X103881358Y-56957302D01*
X103881359Y-56957302D01*
X103881362Y-56957303D01*
X104053074Y-56984500D01*
X104053075Y-56984500D01*
X104226925Y-56984500D01*
X104226926Y-56984500D01*
X104398638Y-56957303D01*
X104398641Y-56957302D01*
X104398642Y-56957302D01*
X104563978Y-56903581D01*
X104563978Y-56903580D01*
X104563981Y-56903580D01*
X104718884Y-56824653D01*
X104859533Y-56722465D01*
X104982465Y-56599533D01*
X105084653Y-56458884D01*
X105163580Y-56303981D01*
X105181370Y-56249229D01*
X105217302Y-56138642D01*
X105217302Y-56138641D01*
X105217303Y-56138638D01*
X105244500Y-55966926D01*
X105244500Y-55793074D01*
X105217303Y-55621362D01*
X105217302Y-55621358D01*
X105217302Y-55621357D01*
X105163581Y-55456021D01*
X105108979Y-55348859D01*
X105084653Y-55301116D01*
X104982465Y-55160467D01*
X104963134Y-55141136D01*
X116420500Y-55141136D01*
X116420500Y-55348863D01*
X116461022Y-55552578D01*
X116461025Y-55552590D01*
X116540511Y-55744488D01*
X116540512Y-55744490D01*
X116655916Y-55917203D01*
X116655919Y-55917207D01*
X116802792Y-56064080D01*
X116802796Y-56064083D01*
X116975507Y-56179486D01*
X116975508Y-56179486D01*
X116975509Y-56179487D01*
X116975511Y-56179488D01*
X117143885Y-56249230D01*
X117167414Y-56258976D01*
X117371136Y-56299499D01*
X117371139Y-56299500D01*
X117371141Y-56299500D01*
X117578861Y-56299500D01*
X117578862Y-56299499D01*
X117782586Y-56258976D01*
X117974493Y-56179486D01*
X118147204Y-56064083D01*
X118294083Y-55917204D01*
X118409486Y-55744493D01*
X118488976Y-55552586D01*
X118529500Y-55348859D01*
X118529500Y-55141141D01*
X118529500Y-55141138D01*
X118529499Y-55141136D01*
X118488977Y-54937421D01*
X118488976Y-54937414D01*
X118460488Y-54868638D01*
X118409488Y-54745511D01*
X118409487Y-54745509D01*
X118294083Y-54572796D01*
X118294080Y-54572792D01*
X118147207Y-54425919D01*
X118147203Y-54425916D01*
X117974490Y-54310512D01*
X117974488Y-54310511D01*
X117782590Y-54231025D01*
X117782578Y-54231022D01*
X117578862Y-54190500D01*
X117578859Y-54190500D01*
X117371141Y-54190500D01*
X117371138Y-54190500D01*
X117167421Y-54231022D01*
X117167409Y-54231025D01*
X116975511Y-54310511D01*
X116975509Y-54310512D01*
X116802796Y-54425916D01*
X116802792Y-54425919D01*
X116655919Y-54572792D01*
X116655916Y-54572796D01*
X116540512Y-54745509D01*
X116540511Y-54745511D01*
X116461025Y-54937409D01*
X116461022Y-54937421D01*
X116420500Y-55141136D01*
X104963134Y-55141136D01*
X104859533Y-55037535D01*
X104718884Y-54935347D01*
X104629073Y-54889586D01*
X104563978Y-54856418D01*
X104398641Y-54802697D01*
X104269854Y-54782299D01*
X104226926Y-54775500D01*
X104053074Y-54775500D01*
X103995836Y-54784565D01*
X103881360Y-54802697D01*
X103881357Y-54802697D01*
X103716021Y-54856418D01*
X103561115Y-54935347D01*
X103480869Y-54993649D01*
X103420467Y-55037535D01*
X103420465Y-55037537D01*
X103420464Y-55037537D01*
X103297537Y-55160464D01*
X103297537Y-55160465D01*
X103297535Y-55160467D01*
X103276889Y-55188884D01*
X103195347Y-55301115D01*
X103116418Y-55456021D01*
X103062697Y-55621357D01*
X103062697Y-55621360D01*
X103035500Y-55793074D01*
X100830500Y-55793074D01*
X100830500Y-49924928D01*
X103035500Y-49924928D01*
X103035500Y-51675063D01*
X103050266Y-51749301D01*
X103106515Y-51833484D01*
X103117493Y-51840819D01*
X103190699Y-51889734D01*
X103190702Y-51889734D01*
X103190703Y-51889735D01*
X103215666Y-51894700D01*
X103264933Y-51904500D01*
X104774798Y-51904499D01*
X104841837Y-51924184D01*
X104887592Y-51976987D01*
X104897536Y-52046146D01*
X104868511Y-52109702D01*
X104862479Y-52116180D01*
X104691874Y-52286785D01*
X104630551Y-52320270D01*
X104565875Y-52317035D01*
X104398640Y-52262697D01*
X104249560Y-52239085D01*
X104226926Y-52235500D01*
X104053074Y-52235500D01*
X104030440Y-52239085D01*
X103881360Y-52262697D01*
X103881357Y-52262697D01*
X103716021Y-52316418D01*
X103561115Y-52395347D01*
X103480869Y-52453649D01*
X103420467Y-52497535D01*
X103420465Y-52497537D01*
X103420464Y-52497537D01*
X103297537Y-52620464D01*
X103297537Y-52620465D01*
X103297535Y-52620467D01*
X103276889Y-52648884D01*
X103195347Y-52761115D01*
X103116418Y-52916021D01*
X103062697Y-53081357D01*
X103062697Y-53081360D01*
X103035500Y-53253074D01*
X103035500Y-53426925D01*
X103062697Y-53598639D01*
X103062697Y-53598642D01*
X103116418Y-53763978D01*
X103148524Y-53826989D01*
X103195347Y-53918884D01*
X103297535Y-54059533D01*
X103420467Y-54182465D01*
X103561116Y-54284653D01*
X103698819Y-54354816D01*
X103716021Y-54363581D01*
X103881358Y-54417302D01*
X103881359Y-54417302D01*
X103881362Y-54417303D01*
X104053074Y-54444500D01*
X104053075Y-54444500D01*
X104226925Y-54444500D01*
X104226926Y-54444500D01*
X104398638Y-54417303D01*
X104398641Y-54417302D01*
X104398642Y-54417302D01*
X104563978Y-54363581D01*
X104563978Y-54363580D01*
X104563981Y-54363580D01*
X104718884Y-54284653D01*
X104859533Y-54182465D01*
X104982465Y-54059533D01*
X105084653Y-53918884D01*
X105163580Y-53763981D01*
X105163581Y-53763978D01*
X105217302Y-53598642D01*
X105217302Y-53598641D01*
X105217303Y-53598638D01*
X105244500Y-53426926D01*
X105244500Y-53253074D01*
X105217303Y-53081362D01*
X105217302Y-53081358D01*
X105217302Y-53081357D01*
X105162964Y-52914122D01*
X105160969Y-52844281D01*
X105193212Y-52788125D01*
X106140520Y-51840819D01*
X106201843Y-51807334D01*
X106228201Y-51804500D01*
X116584850Y-51804500D01*
X116651889Y-51824185D01*
X116697644Y-51876989D01*
X116707588Y-51946147D01*
X116678563Y-52009703D01*
X116672531Y-52016181D01*
X116655919Y-52032792D01*
X116655916Y-52032796D01*
X116540512Y-52205509D01*
X116540511Y-52205511D01*
X116461025Y-52397409D01*
X116461022Y-52397421D01*
X116420500Y-52601136D01*
X116420500Y-52808863D01*
X116461022Y-53012578D01*
X116461025Y-53012590D01*
X116540511Y-53204488D01*
X116540512Y-53204490D01*
X116655916Y-53377203D01*
X116655919Y-53377207D01*
X116802792Y-53524080D01*
X116802796Y-53524083D01*
X116975507Y-53639486D01*
X116975508Y-53639486D01*
X116975509Y-53639487D01*
X116975511Y-53639488D01*
X117167409Y-53718974D01*
X117167414Y-53718976D01*
X117360252Y-53757334D01*
X117371136Y-53759499D01*
X117371139Y-53759500D01*
X117371141Y-53759500D01*
X117578861Y-53759500D01*
X117578862Y-53759499D01*
X117782586Y-53718976D01*
X117974493Y-53639486D01*
X118147204Y-53524083D01*
X118294083Y-53377204D01*
X118377150Y-53252885D01*
X118409080Y-53205101D01*
X118462693Y-53160296D01*
X118532018Y-53151589D01*
X118574181Y-53166605D01*
X118640860Y-53205101D01*
X118660971Y-53216712D01*
X118801999Y-53254500D01*
X118802001Y-53254500D01*
X118947999Y-53254500D01*
X118948001Y-53254500D01*
X119089029Y-53216712D01*
X119215471Y-53143711D01*
X119263363Y-53095819D01*
X119324686Y-53062334D01*
X119351044Y-53059500D01*
X124017602Y-53059500D01*
X124084641Y-53079185D01*
X124130396Y-53131989D01*
X124132163Y-53136048D01*
X124160511Y-53204488D01*
X124160512Y-53204490D01*
X124275916Y-53377203D01*
X124275919Y-53377207D01*
X124332531Y-53433819D01*
X124366016Y-53495142D01*
X124361032Y-53564834D01*
X124319160Y-53620767D01*
X124253696Y-53645184D01*
X124244850Y-53645500D01*
X123806044Y-53645500D01*
X123739005Y-53625815D01*
X123718363Y-53609181D01*
X123665472Y-53556290D01*
X123665467Y-53556286D01*
X123539031Y-53483289D01*
X123539030Y-53483288D01*
X123539029Y-53483288D01*
X123398001Y-53445500D01*
X123251999Y-53445500D01*
X123110971Y-53483288D01*
X123110968Y-53483289D01*
X122984532Y-53556286D01*
X122984527Y-53556290D01*
X122881290Y-53659527D01*
X122881286Y-53659532D01*
X122808289Y-53785968D01*
X122808288Y-53785971D01*
X122770500Y-53926999D01*
X122770500Y-54073001D01*
X122801984Y-54190500D01*
X122808288Y-54214028D01*
X122808289Y-54214031D01*
X122881286Y-54340467D01*
X122881288Y-54340470D01*
X122881289Y-54340471D01*
X122984529Y-54443711D01*
X122984530Y-54443712D01*
X122984532Y-54443713D01*
X123047750Y-54480211D01*
X123110971Y-54516712D01*
X123251999Y-54554500D01*
X123252001Y-54554500D01*
X123397999Y-54554500D01*
X123398001Y-54554500D01*
X123539029Y-54516712D01*
X123665471Y-54443711D01*
X123718363Y-54390819D01*
X123779686Y-54357334D01*
X123806044Y-54354500D01*
X124194850Y-54354500D01*
X124261889Y-54374185D01*
X124307644Y-54426989D01*
X124317588Y-54496147D01*
X124288563Y-54559703D01*
X124282531Y-54566181D01*
X124275919Y-54572792D01*
X124275916Y-54572796D01*
X124160512Y-54745509D01*
X124160511Y-54745511D01*
X124081025Y-54937409D01*
X124081022Y-54937421D01*
X124040500Y-55141136D01*
X124040500Y-55348863D01*
X124081022Y-55552578D01*
X124081025Y-55552590D01*
X124160511Y-55744488D01*
X124160512Y-55744490D01*
X124275916Y-55917203D01*
X124275919Y-55917207D01*
X124422792Y-56064080D01*
X124422796Y-56064083D01*
X124595507Y-56179486D01*
X124595508Y-56179486D01*
X124595509Y-56179487D01*
X124595511Y-56179488D01*
X124763885Y-56249230D01*
X124787414Y-56258976D01*
X124991136Y-56299499D01*
X124991139Y-56299500D01*
X124991141Y-56299500D01*
X125198861Y-56299500D01*
X125198862Y-56299499D01*
X125402586Y-56258976D01*
X125594493Y-56179486D01*
X125767204Y-56064083D01*
X125914083Y-55917204D01*
X126029486Y-55744493D01*
X126108976Y-55552586D01*
X126149500Y-55348859D01*
X126149500Y-55141141D01*
X126149500Y-55141138D01*
X126149499Y-55141136D01*
X126108977Y-54937421D01*
X126108976Y-54937414D01*
X126080488Y-54868638D01*
X126029488Y-54745511D01*
X126029487Y-54745509D01*
X125914083Y-54572796D01*
X125914080Y-54572792D01*
X125907469Y-54566181D01*
X125873984Y-54504858D01*
X125878968Y-54435166D01*
X125920840Y-54379233D01*
X125986304Y-54354816D01*
X125995150Y-54354500D01*
X129704515Y-54354500D01*
X129771554Y-54374185D01*
X129817309Y-54426989D01*
X129827253Y-54496147D01*
X129827000Y-54497815D01*
X129824008Y-54516710D01*
X129823000Y-54523076D01*
X129823000Y-54696925D01*
X129850197Y-54868639D01*
X129850197Y-54868642D01*
X129903918Y-55033978D01*
X129982846Y-55188883D01*
X129997909Y-55209615D01*
X130021388Y-55275422D01*
X130005562Y-55343476D01*
X129955456Y-55392170D01*
X129897590Y-55406500D01*
X127631855Y-55406500D01*
X127564816Y-55386815D01*
X127524467Y-55344499D01*
X127523876Y-55343476D01*
X127518711Y-55334529D01*
X127415471Y-55231289D01*
X127415470Y-55231288D01*
X127415467Y-55231286D01*
X127289031Y-55158289D01*
X127289030Y-55158288D01*
X127289029Y-55158288D01*
X127148001Y-55120500D01*
X127001999Y-55120500D01*
X126860971Y-55158288D01*
X126860968Y-55158289D01*
X126734532Y-55231286D01*
X126734527Y-55231290D01*
X126631290Y-55334527D01*
X126631286Y-55334532D01*
X126558289Y-55460968D01*
X126558288Y-55460971D01*
X126520500Y-55601999D01*
X126520500Y-55748000D01*
X126558288Y-55889028D01*
X126558289Y-55889031D01*
X126631286Y-56015467D01*
X126631288Y-56015470D01*
X126631289Y-56015471D01*
X126734529Y-56118711D01*
X126734530Y-56118712D01*
X126734532Y-56118713D01*
X126782758Y-56146556D01*
X126860971Y-56191712D01*
X127001999Y-56229500D01*
X127002001Y-56229500D01*
X127147999Y-56229500D01*
X127148001Y-56229500D01*
X127289029Y-56191712D01*
X127392258Y-56132113D01*
X127454258Y-56115500D01*
X130120272Y-56115500D01*
X130187311Y-56135185D01*
X130233066Y-56187989D01*
X130243890Y-56249230D01*
X130241149Y-56284044D01*
X130675340Y-56718234D01*
X130620493Y-56749901D01*
X130527401Y-56842993D01*
X130495735Y-56897840D01*
X130061544Y-56463649D01*
X130061542Y-56463649D01*
X129983275Y-56571375D01*
X129983273Y-56571379D01*
X129904384Y-56726206D01*
X129850683Y-56891478D01*
X129823500Y-57063107D01*
X129823500Y-57236892D01*
X129850683Y-57408521D01*
X129904384Y-57573793D01*
X129983274Y-57728622D01*
X130061543Y-57836349D01*
X130061544Y-57836350D01*
X130495734Y-57402159D01*
X130527401Y-57457007D01*
X130620493Y-57550099D01*
X130675339Y-57581764D01*
X130241148Y-58015955D01*
X130348877Y-58094225D01*
X130503706Y-58173115D01*
X130668978Y-58226816D01*
X130840608Y-58254000D01*
X131014392Y-58254000D01*
X131186021Y-58226816D01*
X131351293Y-58173115D01*
X131506114Y-58094229D01*
X131506120Y-58094225D01*
X131613849Y-58015955D01*
X131613850Y-58015954D01*
X131179660Y-57581764D01*
X131234507Y-57550099D01*
X131327599Y-57457007D01*
X131359264Y-57402160D01*
X131793454Y-57836350D01*
X131793455Y-57836349D01*
X131871725Y-57728620D01*
X131871729Y-57728614D01*
X131950615Y-57573793D01*
X132004316Y-57408521D01*
X132031500Y-57236892D01*
X132031500Y-57063107D01*
X132004316Y-56891478D01*
X131950615Y-56726206D01*
X131871725Y-56571377D01*
X131793455Y-56463649D01*
X131793455Y-56463648D01*
X131359264Y-56897839D01*
X131327599Y-56842993D01*
X131234507Y-56749901D01*
X131179659Y-56718234D01*
X131613849Y-56284044D01*
X131611110Y-56249229D01*
X131613969Y-56235618D01*
X131611990Y-56221853D01*
X131621010Y-56202101D01*
X131625474Y-56180852D01*
X131635237Y-56170948D01*
X131641015Y-56158297D01*
X131659283Y-56146556D01*
X131674526Y-56131095D01*
X131689296Y-56127268D01*
X131699793Y-56120523D01*
X131734728Y-56115500D01*
X131880299Y-56115500D01*
X131947338Y-56135185D01*
X131967980Y-56151819D01*
X132414285Y-56598124D01*
X132447770Y-56659447D01*
X132444535Y-56724123D01*
X132390197Y-56891357D01*
X132390197Y-56891360D01*
X132363000Y-57063074D01*
X132363000Y-57236925D01*
X132390197Y-57408639D01*
X132390197Y-57408642D01*
X132443918Y-57573978D01*
X132486877Y-57658289D01*
X132522847Y-57728884D01*
X132625035Y-57869533D01*
X132747967Y-57992465D01*
X132888616Y-58094653D01*
X133020093Y-58161644D01*
X133043521Y-58173581D01*
X133208858Y-58227302D01*
X133208859Y-58227302D01*
X133208862Y-58227303D01*
X133380574Y-58254500D01*
X133380575Y-58254500D01*
X133554425Y-58254500D01*
X133554426Y-58254500D01*
X133726138Y-58227303D01*
X133726141Y-58227302D01*
X133726142Y-58227302D01*
X133891478Y-58173581D01*
X133891478Y-58173580D01*
X133891481Y-58173580D01*
X134046384Y-58094653D01*
X134187033Y-57992465D01*
X134309965Y-57869533D01*
X134412153Y-57728884D01*
X134491080Y-57573981D01*
X134500520Y-57544928D01*
X137960500Y-57544928D01*
X137960500Y-59295063D01*
X137975266Y-59369301D01*
X138031515Y-59453484D01*
X138065234Y-59476014D01*
X138115699Y-59509734D01*
X138115702Y-59509734D01*
X138115703Y-59509735D01*
X138140666Y-59514700D01*
X138189933Y-59524500D01*
X139940066Y-59524499D01*
X140014301Y-59509734D01*
X140098484Y-59453484D01*
X140154734Y-59369301D01*
X140169500Y-59295067D01*
X140169499Y-57544934D01*
X140154734Y-57470699D01*
X140125980Y-57427666D01*
X140098484Y-57386515D01*
X140033348Y-57342993D01*
X140014301Y-57330266D01*
X140014299Y-57330265D01*
X140014296Y-57330264D01*
X139940069Y-57315500D01*
X138189936Y-57315500D01*
X138115698Y-57330266D01*
X138031515Y-57386515D01*
X137975266Y-57470699D01*
X137975264Y-57470703D01*
X137960500Y-57544928D01*
X134500520Y-57544928D01*
X134503431Y-57535968D01*
X134514949Y-57500522D01*
X134514950Y-57500520D01*
X134544801Y-57408646D01*
X134544801Y-57408642D01*
X134544803Y-57408638D01*
X134572000Y-57236926D01*
X134572000Y-57063074D01*
X134544803Y-56891362D01*
X134544802Y-56891358D01*
X134544802Y-56891357D01*
X134491081Y-56726021D01*
X134426633Y-56599535D01*
X134412153Y-56571116D01*
X134309965Y-56430467D01*
X134187033Y-56307535D01*
X134046384Y-56205347D01*
X133995629Y-56179486D01*
X133891478Y-56126418D01*
X133726141Y-56072697D01*
X133597354Y-56052299D01*
X133554426Y-56045500D01*
X133380574Y-56045500D01*
X133323336Y-56054565D01*
X133208860Y-56072697D01*
X133208857Y-56072697D01*
X133041623Y-56127035D01*
X132971782Y-56129030D01*
X132915624Y-56096785D01*
X132296169Y-55477330D01*
X132296168Y-55477329D01*
X132215332Y-55430659D01*
X132215333Y-55430659D01*
X132185278Y-55422606D01*
X132125171Y-55406500D01*
X132125169Y-55406500D01*
X131957410Y-55406500D01*
X131890371Y-55386815D01*
X131844616Y-55334011D01*
X131834672Y-55264853D01*
X131857091Y-55209615D01*
X131858312Y-55207935D01*
X131872153Y-55188884D01*
X131951080Y-55033981D01*
X131982454Y-54937421D01*
X132004802Y-54868642D01*
X132004802Y-54868641D01*
X132004803Y-54868638D01*
X132032000Y-54696926D01*
X132032000Y-54523074D01*
X132004803Y-54351362D01*
X132004802Y-54351358D01*
X132004802Y-54351357D01*
X131950464Y-54184122D01*
X131948469Y-54114281D01*
X131980712Y-54058125D01*
X132248019Y-53790819D01*
X132274946Y-53776115D01*
X132300765Y-53759523D01*
X132306965Y-53758631D01*
X132309342Y-53757334D01*
X132335700Y-53754500D01*
X132480457Y-53754500D01*
X132547496Y-53774185D01*
X132593251Y-53826989D01*
X132603195Y-53896147D01*
X132580775Y-53951386D01*
X132522847Y-54031115D01*
X132443918Y-54186021D01*
X132390197Y-54351357D01*
X132390197Y-54351360D01*
X132363000Y-54523074D01*
X132363000Y-54696925D01*
X132390197Y-54868639D01*
X132390197Y-54868642D01*
X132443918Y-55033978D01*
X132507258Y-55158289D01*
X132522847Y-55188884D01*
X132625035Y-55329533D01*
X132747967Y-55452465D01*
X132888616Y-55554653D01*
X132981538Y-55601999D01*
X133043521Y-55633581D01*
X133208858Y-55687302D01*
X133208859Y-55687302D01*
X133208862Y-55687303D01*
X133380574Y-55714500D01*
X133380575Y-55714500D01*
X133554425Y-55714500D01*
X133554426Y-55714500D01*
X133726138Y-55687303D01*
X133726141Y-55687302D01*
X133726142Y-55687302D01*
X133891478Y-55633581D01*
X133891478Y-55633580D01*
X133891481Y-55633580D01*
X134046384Y-55554653D01*
X134187033Y-55452465D01*
X134309965Y-55329533D01*
X134412153Y-55188884D01*
X134491080Y-55033981D01*
X134522454Y-54937421D01*
X134544802Y-54868642D01*
X134544802Y-54868641D01*
X134544803Y-54868638D01*
X134572000Y-54696926D01*
X134572000Y-54523074D01*
X134544803Y-54351362D01*
X134544802Y-54351358D01*
X134544802Y-54351357D01*
X134491081Y-54186021D01*
X134457913Y-54120925D01*
X134412153Y-54031116D01*
X134354224Y-53951384D01*
X134330745Y-53885580D01*
X134346570Y-53817526D01*
X134396676Y-53768831D01*
X134454543Y-53754500D01*
X136386799Y-53754500D01*
X136453838Y-53774185D01*
X136474480Y-53790819D01*
X138011785Y-55328124D01*
X138045270Y-55389447D01*
X138042035Y-55454123D01*
X137987697Y-55621357D01*
X137987697Y-55621360D01*
X137960500Y-55793074D01*
X137960500Y-55966925D01*
X137987697Y-56138639D01*
X137987697Y-56138642D01*
X138041418Y-56303978D01*
X138105866Y-56430464D01*
X138120347Y-56458884D01*
X138222535Y-56599533D01*
X138345467Y-56722465D01*
X138486116Y-56824653D01*
X138641019Y-56903580D01*
X138641021Y-56903581D01*
X138806358Y-56957302D01*
X138806359Y-56957302D01*
X138806362Y-56957303D01*
X138978074Y-56984500D01*
X138978075Y-56984500D01*
X139151925Y-56984500D01*
X139151926Y-56984500D01*
X139323638Y-56957303D01*
X139323641Y-56957302D01*
X139323642Y-56957302D01*
X139488978Y-56903581D01*
X139488978Y-56903580D01*
X139488981Y-56903580D01*
X139643884Y-56824653D01*
X139784533Y-56722465D01*
X139907465Y-56599533D01*
X140009653Y-56458884D01*
X140088580Y-56303981D01*
X140106370Y-56249229D01*
X140142302Y-56138642D01*
X140142302Y-56138641D01*
X140142303Y-56138638D01*
X140169500Y-55966926D01*
X140169500Y-55793074D01*
X140142303Y-55621362D01*
X140142302Y-55621358D01*
X140142302Y-55621357D01*
X140088581Y-55456021D01*
X140033979Y-55348859D01*
X140009653Y-55301116D01*
X139907465Y-55160467D01*
X139784533Y-55037535D01*
X139643884Y-54935347D01*
X139554073Y-54889586D01*
X139488978Y-54856418D01*
X139323641Y-54802697D01*
X139194854Y-54782299D01*
X139151926Y-54775500D01*
X138978074Y-54775500D01*
X138920836Y-54784565D01*
X138806360Y-54802697D01*
X138806357Y-54802697D01*
X138639123Y-54857035D01*
X138569282Y-54859030D01*
X138513124Y-54826785D01*
X136939413Y-53253074D01*
X137960500Y-53253074D01*
X137960500Y-53426925D01*
X137987697Y-53598639D01*
X137987697Y-53598642D01*
X138041418Y-53763978D01*
X138073524Y-53826989D01*
X138120347Y-53918884D01*
X138222535Y-54059533D01*
X138345467Y-54182465D01*
X138486116Y-54284653D01*
X138623819Y-54354816D01*
X138641021Y-54363581D01*
X138806358Y-54417302D01*
X138806359Y-54417302D01*
X138806362Y-54417303D01*
X138978074Y-54444500D01*
X138978075Y-54444500D01*
X139151925Y-54444500D01*
X139151926Y-54444500D01*
X139323638Y-54417303D01*
X139323641Y-54417302D01*
X139323642Y-54417302D01*
X139488978Y-54363581D01*
X139488978Y-54363580D01*
X139488981Y-54363580D01*
X139643884Y-54284653D01*
X139784533Y-54182465D01*
X139907465Y-54059533D01*
X140009653Y-53918884D01*
X140088580Y-53763981D01*
X140088581Y-53763978D01*
X140142302Y-53598642D01*
X140142302Y-53598641D01*
X140142303Y-53598638D01*
X140169500Y-53426926D01*
X140169500Y-53253074D01*
X140142303Y-53081362D01*
X140142302Y-53081358D01*
X140142302Y-53081357D01*
X140088581Y-52916021D01*
X140055413Y-52850925D01*
X140009653Y-52761116D01*
X139907465Y-52620467D01*
X139784533Y-52497535D01*
X139643884Y-52395347D01*
X139554073Y-52349586D01*
X139488978Y-52316418D01*
X139323641Y-52262697D01*
X139174560Y-52239085D01*
X139151926Y-52235500D01*
X138978074Y-52235500D01*
X138955440Y-52239085D01*
X138806360Y-52262697D01*
X138806357Y-52262697D01*
X138641021Y-52316418D01*
X138486115Y-52395347D01*
X138405869Y-52453649D01*
X138345467Y-52497535D01*
X138345465Y-52497537D01*
X138345464Y-52497537D01*
X138222537Y-52620464D01*
X138222537Y-52620465D01*
X138222535Y-52620467D01*
X138201889Y-52648884D01*
X138120347Y-52761115D01*
X138041418Y-52916021D01*
X137987697Y-53081357D01*
X137987697Y-53081360D01*
X137960500Y-53253074D01*
X136939413Y-53253074D01*
X136802669Y-53116330D01*
X136802668Y-53116329D01*
X136721832Y-53069659D01*
X136721833Y-53069659D01*
X136683919Y-53059500D01*
X136631671Y-53045500D01*
X136631669Y-53045500D01*
X134644488Y-53045500D01*
X134577449Y-53025815D01*
X134531694Y-52973011D01*
X134521750Y-52903853D01*
X134528307Y-52878166D01*
X134565540Y-52778342D01*
X134567954Y-52755880D01*
X134571999Y-52718271D01*
X134571999Y-52718264D01*
X134572000Y-52718255D01*
X134571999Y-51421746D01*
X134565540Y-51361658D01*
X134559696Y-51345989D01*
X134514844Y-51225738D01*
X134514843Y-51225737D01*
X134514842Y-51225733D01*
X134463681Y-51157389D01*
X134427904Y-51109595D01*
X134350626Y-51051747D01*
X134311767Y-51022658D01*
X134175842Y-50971960D01*
X134175838Y-50971959D01*
X134115771Y-50965500D01*
X134115755Y-50965500D01*
X132915701Y-50965500D01*
X132886260Y-50956855D01*
X132856274Y-50950332D01*
X132851258Y-50946577D01*
X132848662Y-50945815D01*
X132828020Y-50929181D01*
X132611946Y-50713107D01*
X137961000Y-50713107D01*
X137961000Y-50886892D01*
X137988183Y-51058521D01*
X138041884Y-51223793D01*
X138120774Y-51378622D01*
X138199043Y-51486349D01*
X138199044Y-51486350D01*
X138633234Y-51052159D01*
X138664901Y-51107007D01*
X138757993Y-51200099D01*
X138812839Y-51231764D01*
X138378648Y-51665955D01*
X138486377Y-51744225D01*
X138641206Y-51823115D01*
X138806478Y-51876816D01*
X138978108Y-51904000D01*
X139151892Y-51904000D01*
X139323521Y-51876816D01*
X139488793Y-51823115D01*
X139643614Y-51744229D01*
X139643620Y-51744225D01*
X139751349Y-51665955D01*
X139751350Y-51665954D01*
X139317160Y-51231764D01*
X139372007Y-51200099D01*
X139465099Y-51107007D01*
X139496764Y-51052160D01*
X139930954Y-51486350D01*
X139930955Y-51486349D01*
X140009225Y-51378620D01*
X140009229Y-51378614D01*
X140088115Y-51223793D01*
X140141816Y-51058521D01*
X140169000Y-50886892D01*
X140169000Y-50713107D01*
X140141816Y-50541478D01*
X140088115Y-50376206D01*
X140009225Y-50221377D01*
X139930955Y-50113649D01*
X139930955Y-50113648D01*
X139496764Y-50547839D01*
X139465099Y-50492993D01*
X139372007Y-50399901D01*
X139317159Y-50368234D01*
X139751350Y-49934044D01*
X139751349Y-49934043D01*
X139643622Y-49855774D01*
X139488793Y-49776884D01*
X139323521Y-49723183D01*
X139151892Y-49696000D01*
X138978108Y-49696000D01*
X138806478Y-49723183D01*
X138641206Y-49776884D01*
X138486379Y-49855773D01*
X138486375Y-49855775D01*
X138378649Y-49934042D01*
X138378649Y-49934044D01*
X138812840Y-50368234D01*
X138757993Y-50399901D01*
X138664901Y-50492993D01*
X138633235Y-50547840D01*
X138199044Y-50113649D01*
X138199042Y-50113649D01*
X138120775Y-50221375D01*
X138120773Y-50221379D01*
X138041884Y-50376206D01*
X137988183Y-50541478D01*
X137961000Y-50713107D01*
X132611946Y-50713107D01*
X132534169Y-50635330D01*
X132534168Y-50635329D01*
X132453332Y-50588659D01*
X132453333Y-50588659D01*
X132423278Y-50580606D01*
X132363171Y-50564500D01*
X132363169Y-50564500D01*
X126241788Y-50564500D01*
X126174749Y-50544815D01*
X126128994Y-50492011D01*
X126119050Y-50422853D01*
X126120171Y-50416309D01*
X126149499Y-50268863D01*
X126149500Y-50268861D01*
X126149500Y-50061138D01*
X126149499Y-50061136D01*
X126138432Y-50005494D01*
X126108977Y-49857419D01*
X126108976Y-49857418D01*
X126108976Y-49857414D01*
X126053376Y-49723183D01*
X126029488Y-49665511D01*
X126029487Y-49665509D01*
X126023813Y-49657018D01*
X125914083Y-49492796D01*
X125914080Y-49492792D01*
X125787469Y-49366181D01*
X125753984Y-49304858D01*
X125758968Y-49235166D01*
X125800840Y-49179233D01*
X125866304Y-49154816D01*
X125875150Y-49154500D01*
X129118956Y-49154500D01*
X129185995Y-49174185D01*
X129206637Y-49190819D01*
X129309529Y-49293711D01*
X129435971Y-49366712D01*
X129576999Y-49404500D01*
X129577001Y-49404500D01*
X129722999Y-49404500D01*
X129723001Y-49404500D01*
X129864029Y-49366712D01*
X129990471Y-49293711D01*
X130093711Y-49190471D01*
X130166712Y-49064029D01*
X130204500Y-48923001D01*
X130204500Y-48776999D01*
X130166712Y-48635971D01*
X130093711Y-48509529D01*
X129990471Y-48406289D01*
X129990470Y-48406288D01*
X129990467Y-48406286D01*
X129864031Y-48333289D01*
X129864030Y-48333288D01*
X129864029Y-48333288D01*
X129723001Y-48295500D01*
X129576999Y-48295500D01*
X129435971Y-48333288D01*
X129435968Y-48333289D01*
X129309532Y-48406286D01*
X129309527Y-48406290D01*
X129306637Y-48409181D01*
X129303598Y-48410840D01*
X129303084Y-48411235D01*
X129303022Y-48411154D01*
X129245314Y-48442666D01*
X129218956Y-48445500D01*
X126046983Y-48445500D01*
X125979944Y-48425815D01*
X125934189Y-48373011D01*
X125924245Y-48303853D01*
X125943881Y-48252609D01*
X125961695Y-48225947D01*
X126029486Y-48124493D01*
X126108976Y-47932586D01*
X126149500Y-47728859D01*
X126149500Y-47521141D01*
X126149500Y-47521138D01*
X126149499Y-47521136D01*
X126130774Y-47426999D01*
X126108976Y-47317414D01*
X126081390Y-47250815D01*
X126029488Y-47125511D01*
X126029487Y-47125509D01*
X126017694Y-47107860D01*
X125914083Y-46952796D01*
X125914080Y-46952792D01*
X125767207Y-46805919D01*
X125767203Y-46805916D01*
X125594490Y-46690512D01*
X125594488Y-46690511D01*
X125402590Y-46611025D01*
X125402578Y-46611022D01*
X125198862Y-46570500D01*
X125198859Y-46570500D01*
X124991141Y-46570500D01*
X124991138Y-46570500D01*
X124787421Y-46611022D01*
X124787409Y-46611025D01*
X124595511Y-46690511D01*
X124595509Y-46690512D01*
X124422796Y-46805916D01*
X124422792Y-46805919D01*
X124275919Y-46952792D01*
X124275916Y-46952796D01*
X124160512Y-47125509D01*
X124160511Y-47125511D01*
X124132163Y-47193952D01*
X124088323Y-47248356D01*
X124022028Y-47270421D01*
X124017602Y-47270500D01*
X122679372Y-47270500D01*
X122612333Y-47250815D01*
X122571985Y-47208500D01*
X122543713Y-47159532D01*
X122543709Y-47159527D01*
X122440472Y-47056290D01*
X122440467Y-47056286D01*
X122314031Y-46983289D01*
X122314030Y-46983288D01*
X122314029Y-46983288D01*
X122173001Y-46945500D01*
X122026999Y-46945500D01*
X121885971Y-46983288D01*
X121885968Y-46983289D01*
X121759532Y-47056286D01*
X121759527Y-47056290D01*
X121656290Y-47159527D01*
X121656286Y-47159532D01*
X121583289Y-47285968D01*
X121583288Y-47285971D01*
X121545500Y-47426999D01*
X121545500Y-47573000D01*
X121583288Y-47714028D01*
X121583289Y-47714031D01*
X121656286Y-47840467D01*
X121656288Y-47840470D01*
X121656289Y-47840471D01*
X121759529Y-47943711D01*
X121885971Y-48016712D01*
X122026999Y-48054500D01*
X122027001Y-48054500D01*
X122172999Y-48054500D01*
X122173001Y-48054500D01*
X122314029Y-48016712D01*
X122349708Y-47996112D01*
X122411707Y-47979500D01*
X124017602Y-47979500D01*
X124084641Y-47999185D01*
X124130396Y-48051989D01*
X124132163Y-48056048D01*
X124160511Y-48124488D01*
X124160512Y-48124490D01*
X124246119Y-48252609D01*
X124266997Y-48319287D01*
X124248513Y-48386667D01*
X124196534Y-48433357D01*
X124143017Y-48445500D01*
X118894284Y-48445500D01*
X118894268Y-48445499D01*
X118886672Y-48445499D01*
X118793329Y-48445499D01*
X118703169Y-48469658D01*
X118703162Y-48469661D01*
X118622338Y-48516324D01*
X118622330Y-48516330D01*
X117986165Y-49152494D01*
X117924842Y-49185979D01*
X117855150Y-49180995D01*
X117851033Y-49179375D01*
X117836829Y-49173491D01*
X117782586Y-49151024D01*
X117782582Y-49151023D01*
X117782578Y-49151021D01*
X117578862Y-49110500D01*
X117578859Y-49110500D01*
X117371141Y-49110500D01*
X117371138Y-49110500D01*
X117167421Y-49151022D01*
X117167409Y-49151025D01*
X116975511Y-49230511D01*
X116975509Y-49230512D01*
X116802796Y-49345916D01*
X116802792Y-49345919D01*
X116655919Y-49492792D01*
X116655916Y-49492796D01*
X116540512Y-49665509D01*
X116540511Y-49665511D01*
X116461025Y-49857409D01*
X116461022Y-49857421D01*
X116420500Y-50061136D01*
X116420500Y-50268863D01*
X116461022Y-50472578D01*
X116461025Y-50472590D01*
X116540511Y-50664488D01*
X116540512Y-50664490D01*
X116655916Y-50837203D01*
X116655919Y-50837207D01*
X116702531Y-50883819D01*
X116736016Y-50945142D01*
X116731032Y-51014834D01*
X116689160Y-51070767D01*
X116623696Y-51095184D01*
X116614850Y-51095500D01*
X105983329Y-51095500D01*
X105930727Y-51109595D01*
X105893167Y-51119659D01*
X105827815Y-51157390D01*
X105827814Y-51157389D01*
X105812335Y-51166326D01*
X105812330Y-51166330D01*
X105456180Y-51522479D01*
X105394857Y-51555964D01*
X105325165Y-51550980D01*
X105269232Y-51509108D01*
X105244815Y-51443644D01*
X105244499Y-51434822D01*
X105244499Y-49924934D01*
X105229734Y-49850699D01*
X105180412Y-49776884D01*
X105173484Y-49766515D01*
X105108632Y-49723183D01*
X105089301Y-49710266D01*
X105089299Y-49710265D01*
X105089296Y-49710264D01*
X105015069Y-49695500D01*
X103264936Y-49695500D01*
X103190698Y-49710266D01*
X103106515Y-49766515D01*
X103050266Y-49850699D01*
X103050264Y-49850703D01*
X103035500Y-49924928D01*
X100830500Y-49924928D01*
X100830500Y-45599275D01*
X109283000Y-45599275D01*
X109283000Y-45840724D01*
X109283001Y-45840740D01*
X109314515Y-46080116D01*
X109314516Y-46080121D01*
X109314517Y-46080127D01*
X109330426Y-46139499D01*
X109377011Y-46313360D01*
X109469414Y-46536440D01*
X109469419Y-46536451D01*
X109590142Y-46745548D01*
X109590153Y-46745564D01*
X109737138Y-46937119D01*
X109737144Y-46937126D01*
X109907873Y-47107855D01*
X109907880Y-47107861D01*
X109930882Y-47125511D01*
X110099444Y-47254853D01*
X110099451Y-47254857D01*
X110308548Y-47375580D01*
X110308553Y-47375582D01*
X110308556Y-47375584D01*
X110531638Y-47467988D01*
X110764873Y-47530483D01*
X111004269Y-47562000D01*
X111004276Y-47562000D01*
X111245724Y-47562000D01*
X111245731Y-47562000D01*
X111485127Y-47530483D01*
X111520011Y-47521136D01*
X116420500Y-47521136D01*
X116420500Y-47728863D01*
X116461022Y-47932578D01*
X116461025Y-47932590D01*
X116540511Y-48124488D01*
X116540512Y-48124490D01*
X116655916Y-48297203D01*
X116655919Y-48297207D01*
X116802792Y-48444080D01*
X116802796Y-48444083D01*
X116975507Y-48559486D01*
X116975508Y-48559486D01*
X116975509Y-48559487D01*
X116975511Y-48559488D01*
X117160152Y-48635968D01*
X117167414Y-48638976D01*
X117371136Y-48679499D01*
X117371139Y-48679500D01*
X117371141Y-48679500D01*
X117578861Y-48679500D01*
X117578862Y-48679499D01*
X117782586Y-48638976D01*
X117974493Y-48559486D01*
X118147204Y-48444083D01*
X118294083Y-48297204D01*
X118409486Y-48124493D01*
X118488976Y-47932586D01*
X118529500Y-47728859D01*
X118529500Y-47521141D01*
X118529500Y-47521138D01*
X118529499Y-47521136D01*
X118510774Y-47426999D01*
X118488976Y-47317414D01*
X118461390Y-47250815D01*
X118409488Y-47125511D01*
X118409487Y-47125509D01*
X118397694Y-47107860D01*
X118294083Y-46952796D01*
X118294080Y-46952792D01*
X118147207Y-46805919D01*
X118147203Y-46805916D01*
X117974490Y-46690512D01*
X117974488Y-46690511D01*
X117782590Y-46611025D01*
X117782578Y-46611022D01*
X117578862Y-46570500D01*
X117578859Y-46570500D01*
X117371141Y-46570500D01*
X117371138Y-46570500D01*
X117167421Y-46611022D01*
X117167409Y-46611025D01*
X116975511Y-46690511D01*
X116975509Y-46690512D01*
X116802796Y-46805916D01*
X116802792Y-46805919D01*
X116655919Y-46952792D01*
X116655916Y-46952796D01*
X116540512Y-47125509D01*
X116540511Y-47125511D01*
X116461025Y-47317409D01*
X116461022Y-47317421D01*
X116420500Y-47521136D01*
X111520011Y-47521136D01*
X111718362Y-47467988D01*
X111941444Y-47375584D01*
X112150556Y-47254853D01*
X112342121Y-47107860D01*
X112512860Y-46937121D01*
X112659853Y-46745556D01*
X112780584Y-46536444D01*
X112872988Y-46313362D01*
X112935483Y-46080127D01*
X112961927Y-45879267D01*
X112965196Y-45854435D01*
X112965196Y-45854434D01*
X112966999Y-45840738D01*
X112967000Y-45840731D01*
X112967000Y-45599269D01*
X112935483Y-45359873D01*
X112872988Y-45126638D01*
X112855741Y-45085000D01*
X112829874Y-45022550D01*
X112812739Y-44981185D01*
X116421000Y-44981185D01*
X116421000Y-45188814D01*
X116461502Y-45392433D01*
X116461504Y-45392441D01*
X116540955Y-45584252D01*
X116540960Y-45584262D01*
X116643168Y-45737225D01*
X117116439Y-45263954D01*
X117154920Y-45330606D01*
X117229394Y-45405080D01*
X117296044Y-45443560D01*
X116822773Y-45916830D01*
X116822773Y-45916831D01*
X116975737Y-46019039D01*
X116975747Y-46019044D01*
X117167558Y-46098495D01*
X117167566Y-46098497D01*
X117371185Y-46138999D01*
X117371189Y-46139000D01*
X117578811Y-46139000D01*
X117578814Y-46138999D01*
X117782433Y-46098497D01*
X117782441Y-46098495D01*
X117974253Y-46019044D01*
X118127226Y-45916831D01*
X117653955Y-45443560D01*
X117720606Y-45405080D01*
X117795080Y-45330606D01*
X117833560Y-45263955D01*
X118306831Y-45737226D01*
X118409044Y-45584253D01*
X118488495Y-45392441D01*
X118488497Y-45392433D01*
X118528999Y-45188814D01*
X118529000Y-45188811D01*
X118529000Y-44981189D01*
X118528999Y-44981185D01*
X118488497Y-44777566D01*
X118488495Y-44777558D01*
X118409044Y-44585747D01*
X118409039Y-44585737D01*
X118386707Y-44552315D01*
X118342882Y-44486728D01*
X124040500Y-44486728D01*
X124040500Y-45683251D01*
X124040501Y-45683257D01*
X124046960Y-45743344D01*
X124097655Y-45879261D01*
X124097656Y-45879264D01*
X124097658Y-45879267D01*
X124125777Y-45916830D01*
X124184595Y-45995404D01*
X124242443Y-46038707D01*
X124300733Y-46082342D01*
X124436658Y-46133040D01*
X124496745Y-46139500D01*
X125693254Y-46139499D01*
X125753342Y-46133040D01*
X125889267Y-46082342D01*
X126005404Y-45995404D01*
X126092342Y-45879267D01*
X126143040Y-45743342D01*
X126145800Y-45717664D01*
X126149499Y-45683271D01*
X126149500Y-45683254D01*
X126149500Y-45599275D01*
X134683000Y-45599275D01*
X134683000Y-45840724D01*
X134683001Y-45840740D01*
X134714515Y-46080116D01*
X134714516Y-46080121D01*
X134714517Y-46080127D01*
X134730426Y-46139499D01*
X134777011Y-46313360D01*
X134869414Y-46536440D01*
X134869419Y-46536451D01*
X134990142Y-46745548D01*
X134990153Y-46745564D01*
X135137138Y-46937119D01*
X135137144Y-46937126D01*
X135307873Y-47107855D01*
X135307880Y-47107861D01*
X135330882Y-47125511D01*
X135499444Y-47254853D01*
X135499451Y-47254857D01*
X135708548Y-47375580D01*
X135708553Y-47375582D01*
X135708556Y-47375584D01*
X135931638Y-47467988D01*
X136164873Y-47530483D01*
X136404269Y-47562000D01*
X136404276Y-47562000D01*
X136645724Y-47562000D01*
X136645731Y-47562000D01*
X136885127Y-47530483D01*
X137118362Y-47467988D01*
X137341444Y-47375584D01*
X137550556Y-47254853D01*
X137742121Y-47107860D01*
X137912860Y-46937121D01*
X138059853Y-46745556D01*
X138180584Y-46536444D01*
X138272988Y-46313362D01*
X138335483Y-46080127D01*
X138367000Y-45840731D01*
X138367000Y-45599269D01*
X138335483Y-45359873D01*
X138272988Y-45126638D01*
X138180584Y-44903556D01*
X138180582Y-44903553D01*
X138180580Y-44903548D01*
X138059857Y-44694451D01*
X138059853Y-44694444D01*
X137912860Y-44502879D01*
X137912855Y-44502873D01*
X137742126Y-44332144D01*
X137742119Y-44332138D01*
X137550564Y-44185153D01*
X137550562Y-44185151D01*
X137550556Y-44185147D01*
X137550551Y-44185144D01*
X137550548Y-44185142D01*
X137341451Y-44064419D01*
X137341440Y-44064414D01*
X137118360Y-43972011D01*
X137001744Y-43940764D01*
X136885127Y-43909517D01*
X136885121Y-43909516D01*
X136885116Y-43909515D01*
X136645740Y-43878001D01*
X136645737Y-43878000D01*
X136645731Y-43878000D01*
X136404269Y-43878000D01*
X136404263Y-43878000D01*
X136404259Y-43878001D01*
X136164883Y-43909515D01*
X136164876Y-43909516D01*
X136164873Y-43909517D01*
X136115582Y-43922724D01*
X135931639Y-43972011D01*
X135708559Y-44064414D01*
X135708548Y-44064419D01*
X135499451Y-44185142D01*
X135499435Y-44185153D01*
X135307880Y-44332138D01*
X135307873Y-44332144D01*
X135137144Y-44502873D01*
X135137138Y-44502880D01*
X134990153Y-44694435D01*
X134990142Y-44694451D01*
X134869419Y-44903548D01*
X134869414Y-44903559D01*
X134777011Y-45126639D01*
X134714518Y-45359870D01*
X134714515Y-45359883D01*
X134683001Y-45599259D01*
X134683000Y-45599275D01*
X126149500Y-45599275D01*
X126149500Y-45595210D01*
X126149499Y-44486748D01*
X126149499Y-44486745D01*
X126143040Y-44426658D01*
X126107786Y-44332140D01*
X126092344Y-44290738D01*
X126092343Y-44290737D01*
X126092342Y-44290733D01*
X126013307Y-44185153D01*
X126005404Y-44174595D01*
X125928126Y-44116747D01*
X125889267Y-44087658D01*
X125753342Y-44036960D01*
X125753338Y-44036959D01*
X125693262Y-44030500D01*
X124496748Y-44030500D01*
X124496742Y-44030501D01*
X124436655Y-44036960D01*
X124300738Y-44087655D01*
X124300730Y-44087660D01*
X124184595Y-44174595D01*
X124125778Y-44253168D01*
X124097658Y-44290733D01*
X124046960Y-44426658D01*
X124046959Y-44426662D01*
X124040500Y-44486728D01*
X118342882Y-44486728D01*
X118306830Y-44432773D01*
X117833560Y-44906043D01*
X117795080Y-44839394D01*
X117720606Y-44764920D01*
X117653955Y-44726439D01*
X118127225Y-44253168D01*
X117974262Y-44150960D01*
X117974252Y-44150955D01*
X117782441Y-44071504D01*
X117782433Y-44071502D01*
X117578814Y-44031000D01*
X117371185Y-44031000D01*
X117167566Y-44071502D01*
X117167558Y-44071504D01*
X116975745Y-44150955D01*
X116822773Y-44253167D01*
X116822773Y-44253168D01*
X117296044Y-44726439D01*
X117229394Y-44764920D01*
X117154920Y-44839394D01*
X117116439Y-44906044D01*
X116643168Y-44432773D01*
X116643167Y-44432773D01*
X116540955Y-44585745D01*
X116461504Y-44777558D01*
X116461502Y-44777566D01*
X116421000Y-44981185D01*
X112812739Y-44981185D01*
X112802033Y-44955339D01*
X112780584Y-44903556D01*
X112780581Y-44903551D01*
X112780580Y-44903548D01*
X112659857Y-44694451D01*
X112659853Y-44694444D01*
X112512860Y-44502879D01*
X112512855Y-44502873D01*
X112342126Y-44332144D01*
X112342119Y-44332138D01*
X112150564Y-44185153D01*
X112150562Y-44185151D01*
X112150556Y-44185147D01*
X112150551Y-44185144D01*
X112150548Y-44185142D01*
X111941451Y-44064419D01*
X111941440Y-44064414D01*
X111718360Y-43972011D01*
X111601744Y-43940764D01*
X111485127Y-43909517D01*
X111485121Y-43909516D01*
X111485116Y-43909515D01*
X111245740Y-43878001D01*
X111245737Y-43878000D01*
X111245731Y-43878000D01*
X111004269Y-43878000D01*
X111004263Y-43878000D01*
X111004259Y-43878001D01*
X110764883Y-43909515D01*
X110764876Y-43909516D01*
X110764873Y-43909517D01*
X110715582Y-43922724D01*
X110531639Y-43972011D01*
X110308559Y-44064414D01*
X110308548Y-44064419D01*
X110099451Y-44185142D01*
X110099435Y-44185153D01*
X109907880Y-44332138D01*
X109907873Y-44332144D01*
X109737144Y-44502873D01*
X109737138Y-44502880D01*
X109590153Y-44694435D01*
X109590142Y-44694451D01*
X109469419Y-44903548D01*
X109469414Y-44903559D01*
X109377011Y-45126639D01*
X109314518Y-45359870D01*
X109314515Y-45359883D01*
X109283001Y-45599259D01*
X109283000Y-45599275D01*
X100830500Y-45599275D01*
X100830500Y-40896729D01*
X110681200Y-40896729D01*
X110681200Y-41094470D01*
X110719773Y-41288390D01*
X110719775Y-41288398D01*
X110795442Y-41471075D01*
X110905297Y-41635484D01*
X110905300Y-41635488D01*
X111045111Y-41775299D01*
X111045115Y-41775302D01*
X111209522Y-41885156D01*
X111392202Y-41960825D01*
X111583615Y-41998899D01*
X111586129Y-41999399D01*
X111586133Y-41999400D01*
X111586134Y-41999400D01*
X111783867Y-41999400D01*
X111783868Y-41999399D01*
X111977798Y-41960825D01*
X112160478Y-41885156D01*
X112324885Y-41775302D01*
X112324888Y-41775299D01*
X112443202Y-41656986D01*
X112464699Y-41635488D01*
X112464702Y-41635485D01*
X112574556Y-41471078D01*
X112650225Y-41288398D01*
X112688800Y-41094466D01*
X112688800Y-40896779D01*
X117181701Y-40896779D01*
X117181701Y-41094420D01*
X117220255Y-41288244D01*
X117220257Y-41288252D01*
X117295886Y-41470838D01*
X117295891Y-41470846D01*
X117389722Y-41611272D01*
X117756675Y-41244318D01*
X117788662Y-41299721D01*
X117880880Y-41391939D01*
X117936280Y-41423924D01*
X117569326Y-41790878D01*
X117709762Y-41884714D01*
X117892348Y-41960343D01*
X117892356Y-41960345D01*
X118086180Y-41998899D01*
X118086184Y-41998900D01*
X118283818Y-41998900D01*
X118283821Y-41998899D01*
X118477645Y-41960345D01*
X118477653Y-41960343D01*
X118660239Y-41884714D01*
X118800674Y-41790878D01*
X118433721Y-41423924D01*
X118489122Y-41391939D01*
X118581340Y-41299721D01*
X118613325Y-41244319D01*
X118980279Y-41611273D01*
X119074115Y-41470838D01*
X119149744Y-41288252D01*
X119149746Y-41288244D01*
X119188300Y-41094420D01*
X119188301Y-41094417D01*
X119188301Y-40896782D01*
X119188300Y-40896780D01*
X119188290Y-40896729D01*
X120841200Y-40896729D01*
X120841200Y-41094470D01*
X120879773Y-41288390D01*
X120879775Y-41288398D01*
X120955442Y-41471075D01*
X121065297Y-41635484D01*
X121065300Y-41635488D01*
X121205111Y-41775299D01*
X121205115Y-41775302D01*
X121369522Y-41885156D01*
X121552202Y-41960825D01*
X121743615Y-41998899D01*
X121746129Y-41999399D01*
X121746133Y-41999400D01*
X121746134Y-41999400D01*
X121943867Y-41999400D01*
X121943868Y-41999399D01*
X122137798Y-41960825D01*
X122320478Y-41885156D01*
X122484885Y-41775302D01*
X122484888Y-41775299D01*
X122603202Y-41656986D01*
X122624699Y-41635488D01*
X122624702Y-41635485D01*
X122734556Y-41471078D01*
X122810225Y-41288398D01*
X122848800Y-41094466D01*
X122848800Y-40896779D01*
X127341701Y-40896779D01*
X127341701Y-41094420D01*
X127380255Y-41288244D01*
X127380257Y-41288252D01*
X127455886Y-41470838D01*
X127455891Y-41470846D01*
X127549722Y-41611272D01*
X127916675Y-41244318D01*
X127948662Y-41299721D01*
X128040880Y-41391939D01*
X128096280Y-41423924D01*
X127729326Y-41790878D01*
X127869762Y-41884714D01*
X128052348Y-41960343D01*
X128052356Y-41960345D01*
X128246180Y-41998899D01*
X128246184Y-41998900D01*
X128443818Y-41998900D01*
X128443821Y-41998899D01*
X128637645Y-41960345D01*
X128637653Y-41960343D01*
X128820239Y-41884714D01*
X128960674Y-41790878D01*
X128593721Y-41423924D01*
X128649122Y-41391939D01*
X128741340Y-41299721D01*
X128773325Y-41244319D01*
X129140279Y-41611273D01*
X129234115Y-41470838D01*
X129309744Y-41288252D01*
X129309746Y-41288244D01*
X129348300Y-41094420D01*
X129348301Y-41094417D01*
X129348301Y-40896782D01*
X129348300Y-40896780D01*
X129348290Y-40896729D01*
X130923268Y-40896729D01*
X130923268Y-41094470D01*
X130961841Y-41288390D01*
X130961843Y-41288398D01*
X131037510Y-41471075D01*
X131147365Y-41635484D01*
X131147368Y-41635488D01*
X131287179Y-41775299D01*
X131287183Y-41775302D01*
X131451590Y-41885156D01*
X131634270Y-41960825D01*
X131825683Y-41998899D01*
X131828197Y-41999399D01*
X131828201Y-41999400D01*
X131828202Y-41999400D01*
X132025935Y-41999400D01*
X132025936Y-41999399D01*
X132219866Y-41960825D01*
X132402546Y-41885156D01*
X132566953Y-41775302D01*
X132566956Y-41775299D01*
X132685270Y-41656986D01*
X132706767Y-41635488D01*
X132706770Y-41635485D01*
X132816624Y-41471078D01*
X132892293Y-41288398D01*
X132930868Y-41094466D01*
X132930868Y-40896779D01*
X137423769Y-40896779D01*
X137423769Y-41094420D01*
X137462323Y-41288244D01*
X137462325Y-41288252D01*
X137537954Y-41470838D01*
X137537959Y-41470846D01*
X137631790Y-41611272D01*
X137998743Y-41244318D01*
X138030730Y-41299721D01*
X138122948Y-41391939D01*
X138178348Y-41423924D01*
X137811394Y-41790878D01*
X137951830Y-41884714D01*
X138134416Y-41960343D01*
X138134424Y-41960345D01*
X138328248Y-41998899D01*
X138328252Y-41998900D01*
X138525886Y-41998900D01*
X138525889Y-41998899D01*
X138719713Y-41960345D01*
X138719721Y-41960343D01*
X138902307Y-41884714D01*
X139042742Y-41790878D01*
X138675789Y-41423924D01*
X138731190Y-41391939D01*
X138823408Y-41299721D01*
X138855393Y-41244319D01*
X139222347Y-41611273D01*
X139316183Y-41470838D01*
X139391812Y-41288252D01*
X139391814Y-41288244D01*
X139430368Y-41094420D01*
X139430369Y-41094417D01*
X139430369Y-40896783D01*
X139430368Y-40896779D01*
X139391814Y-40702955D01*
X139391812Y-40702947D01*
X139316183Y-40520361D01*
X139222347Y-40379925D01*
X138855393Y-40746879D01*
X138823408Y-40691479D01*
X138731190Y-40599261D01*
X138675788Y-40567274D01*
X139042741Y-40200321D01*
X139042741Y-40200320D01*
X138902315Y-40106490D01*
X138902307Y-40106485D01*
X138719721Y-40030856D01*
X138719713Y-40030854D01*
X138525889Y-39992300D01*
X138328248Y-39992300D01*
X138134424Y-40030854D01*
X138134416Y-40030856D01*
X137951830Y-40106485D01*
X137951821Y-40106490D01*
X137811395Y-40200321D01*
X138178349Y-40567274D01*
X138122948Y-40599261D01*
X138030730Y-40691479D01*
X137998744Y-40746880D01*
X137631790Y-40379926D01*
X137537959Y-40520352D01*
X137537954Y-40520361D01*
X137462325Y-40702947D01*
X137462323Y-40702955D01*
X137423769Y-40896779D01*
X132930868Y-40896779D01*
X132930868Y-40896734D01*
X132892293Y-40702802D01*
X132816624Y-40520122D01*
X132706770Y-40355715D01*
X132706767Y-40355711D01*
X132566956Y-40215900D01*
X132566952Y-40215897D01*
X132402543Y-40106042D01*
X132219866Y-40030375D01*
X132219858Y-40030373D01*
X132025938Y-39991800D01*
X132025934Y-39991800D01*
X131828202Y-39991800D01*
X131828197Y-39991800D01*
X131634277Y-40030373D01*
X131634269Y-40030375D01*
X131451592Y-40106042D01*
X131287183Y-40215897D01*
X131287179Y-40215900D01*
X131147368Y-40355711D01*
X131147365Y-40355715D01*
X131037510Y-40520124D01*
X130961843Y-40702801D01*
X130961841Y-40702809D01*
X130923268Y-40896729D01*
X129348290Y-40896729D01*
X129309746Y-40702955D01*
X129309744Y-40702947D01*
X129234115Y-40520361D01*
X129140279Y-40379925D01*
X128773325Y-40746879D01*
X128741340Y-40691479D01*
X128649122Y-40599261D01*
X128593720Y-40567274D01*
X128960673Y-40200321D01*
X128960673Y-40200320D01*
X128820247Y-40106490D01*
X128820239Y-40106485D01*
X128637653Y-40030856D01*
X128637645Y-40030854D01*
X128443821Y-39992300D01*
X128246180Y-39992300D01*
X128052356Y-40030854D01*
X128052348Y-40030856D01*
X127869762Y-40106485D01*
X127869753Y-40106490D01*
X127729327Y-40200321D01*
X128096281Y-40567274D01*
X128040880Y-40599261D01*
X127948662Y-40691479D01*
X127916676Y-40746880D01*
X127549722Y-40379926D01*
X127455891Y-40520352D01*
X127455886Y-40520361D01*
X127380257Y-40702947D01*
X127380255Y-40702955D01*
X127341701Y-40896779D01*
X122848800Y-40896779D01*
X122848800Y-40896734D01*
X122810225Y-40702802D01*
X122734556Y-40520122D01*
X122624702Y-40355715D01*
X122624699Y-40355711D01*
X122484888Y-40215900D01*
X122484884Y-40215897D01*
X122320475Y-40106042D01*
X122137798Y-40030375D01*
X122137790Y-40030373D01*
X121943870Y-39991800D01*
X121943866Y-39991800D01*
X121746134Y-39991800D01*
X121746129Y-39991800D01*
X121552209Y-40030373D01*
X121552201Y-40030375D01*
X121369524Y-40106042D01*
X121205115Y-40215897D01*
X121205111Y-40215900D01*
X121065300Y-40355711D01*
X121065297Y-40355715D01*
X120955442Y-40520124D01*
X120879775Y-40702801D01*
X120879773Y-40702809D01*
X120841200Y-40896729D01*
X119188290Y-40896729D01*
X119149746Y-40702955D01*
X119149744Y-40702947D01*
X119074115Y-40520361D01*
X118980279Y-40379925D01*
X118613325Y-40746879D01*
X118581340Y-40691479D01*
X118489122Y-40599261D01*
X118433720Y-40567274D01*
X118800673Y-40200321D01*
X118800673Y-40200320D01*
X118660247Y-40106490D01*
X118660239Y-40106485D01*
X118477653Y-40030856D01*
X118477645Y-40030854D01*
X118283821Y-39992300D01*
X118086180Y-39992300D01*
X117892356Y-40030854D01*
X117892348Y-40030856D01*
X117709762Y-40106485D01*
X117709753Y-40106490D01*
X117569327Y-40200321D01*
X117936281Y-40567274D01*
X117880880Y-40599261D01*
X117788662Y-40691479D01*
X117756676Y-40746880D01*
X117389722Y-40379926D01*
X117295891Y-40520352D01*
X117295886Y-40520361D01*
X117220257Y-40702947D01*
X117220255Y-40702955D01*
X117181701Y-40896779D01*
X112688800Y-40896779D01*
X112688800Y-40896734D01*
X112650225Y-40702802D01*
X112574556Y-40520122D01*
X112464702Y-40355715D01*
X112464699Y-40355711D01*
X112324888Y-40215900D01*
X112324884Y-40215897D01*
X112160475Y-40106042D01*
X111977798Y-40030375D01*
X111977790Y-40030373D01*
X111783870Y-39991800D01*
X111783866Y-39991800D01*
X111586134Y-39991800D01*
X111586129Y-39991800D01*
X111392209Y-40030373D01*
X111392201Y-40030375D01*
X111209524Y-40106042D01*
X111045115Y-40215897D01*
X111045111Y-40215900D01*
X110905300Y-40355711D01*
X110905297Y-40355715D01*
X110795442Y-40520124D01*
X110719775Y-40702801D01*
X110719773Y-40702809D01*
X110681200Y-40896729D01*
X100830500Y-40896729D01*
X100830500Y-38325526D01*
X100850185Y-38258487D01*
X100902989Y-38212732D01*
X100972147Y-38202788D01*
X101029985Y-38227149D01*
X101209444Y-38364853D01*
X101209451Y-38364857D01*
X101418548Y-38485580D01*
X101418553Y-38485582D01*
X101418556Y-38485584D01*
X101641638Y-38577988D01*
X101874873Y-38640483D01*
X102114269Y-38672000D01*
X102114276Y-38672000D01*
X102355724Y-38672000D01*
X102355731Y-38672000D01*
X102595127Y-38640483D01*
X102828362Y-38577988D01*
X103051444Y-38485584D01*
X103260556Y-38364853D01*
X103452121Y-38217860D01*
X103622860Y-38047121D01*
X103769853Y-37855556D01*
X103890584Y-37646444D01*
X103982988Y-37423362D01*
X104045483Y-37190127D01*
X104077000Y-36950731D01*
X104077000Y-36709269D01*
X104045483Y-36469873D01*
X103982988Y-36236638D01*
X103890584Y-36013556D01*
X103890582Y-36013553D01*
X103890580Y-36013548D01*
X103769857Y-35804451D01*
X103769853Y-35804444D01*
X103757695Y-35788599D01*
X103632151Y-35624986D01*
X103606957Y-35559817D01*
X103620996Y-35491372D01*
X103669810Y-35441383D01*
X103730527Y-35425500D01*
X111070951Y-35425500D01*
X111137990Y-35445185D01*
G37*
%TD.AperFunction*%
%TD*%
M02*
