%TF.GenerationSoftware,KiCad,Pcbnew,9.0.6*%
%TF.CreationDate,2026-03-15T16:15:25-04:00*%
%TF.ProjectId,SimpleRTC,53696d70-6c65-4525-9443-2e6b69636164,rev?*%
%TF.SameCoordinates,Original*%
%TF.FileFunction,Legend,Top*%
%TF.FilePolarity,Positive*%
%FSLAX46Y46*%
G04 Gerber Fmt 4.6, Leading zero omitted, Abs format (unit mm)*
G04 Created by KiCad (PCBNEW 9.0.6) date 2026-03-15 16:15:25*
%MOMM*%
%LPD*%
G01*
G04 APERTURE LIST*
%ADD10C,0.100000*%
%ADD11C,0.150000*%
%ADD12C,0.120000*%
G04 APERTURE END LIST*
D10*
X106221884Y-49697475D02*
X106221884Y-48697475D01*
X106221884Y-48697475D02*
X106555217Y-49411760D01*
X106555217Y-49411760D02*
X106888550Y-48697475D01*
X106888550Y-48697475D02*
X106888550Y-49697475D01*
X107364741Y-49697475D02*
X107364741Y-49030808D01*
X107364741Y-48697475D02*
X107317122Y-48745094D01*
X107317122Y-48745094D02*
X107364741Y-48792713D01*
X107364741Y-48792713D02*
X107412360Y-48745094D01*
X107412360Y-48745094D02*
X107364741Y-48697475D01*
X107364741Y-48697475D02*
X107364741Y-48792713D01*
X107840931Y-49030808D02*
X107840931Y-49697475D01*
X107840931Y-49126046D02*
X107888550Y-49078427D01*
X107888550Y-49078427D02*
X107983788Y-49030808D01*
X107983788Y-49030808D02*
X108126645Y-49030808D01*
X108126645Y-49030808D02*
X108221883Y-49078427D01*
X108221883Y-49078427D02*
X108269502Y-49173665D01*
X108269502Y-49173665D02*
X108269502Y-49697475D01*
X108745693Y-49697475D02*
X108745693Y-49030808D01*
X108745693Y-48697475D02*
X108698074Y-48745094D01*
X108698074Y-48745094D02*
X108745693Y-48792713D01*
X108745693Y-48792713D02*
X108793312Y-48745094D01*
X108793312Y-48745094D02*
X108745693Y-48697475D01*
X108745693Y-48697475D02*
X108745693Y-48792713D01*
X109793311Y-49697475D02*
X109459978Y-49221284D01*
X109221883Y-49697475D02*
X109221883Y-48697475D01*
X109221883Y-48697475D02*
X109602835Y-48697475D01*
X109602835Y-48697475D02*
X109698073Y-48745094D01*
X109698073Y-48745094D02*
X109745692Y-48792713D01*
X109745692Y-48792713D02*
X109793311Y-48887951D01*
X109793311Y-48887951D02*
X109793311Y-49030808D01*
X109793311Y-49030808D02*
X109745692Y-49126046D01*
X109745692Y-49126046D02*
X109698073Y-49173665D01*
X109698073Y-49173665D02*
X109602835Y-49221284D01*
X109602835Y-49221284D02*
X109221883Y-49221284D01*
X110079026Y-48697475D02*
X110650454Y-48697475D01*
X110364740Y-49697475D02*
X110364740Y-48697475D01*
X111555216Y-49602236D02*
X111507597Y-49649856D01*
X111507597Y-49649856D02*
X111364740Y-49697475D01*
X111364740Y-49697475D02*
X111269502Y-49697475D01*
X111269502Y-49697475D02*
X111126645Y-49649856D01*
X111126645Y-49649856D02*
X111031407Y-49554617D01*
X111031407Y-49554617D02*
X110983788Y-49459379D01*
X110983788Y-49459379D02*
X110936169Y-49268903D01*
X110936169Y-49268903D02*
X110936169Y-49126046D01*
X110936169Y-49126046D02*
X110983788Y-48935570D01*
X110983788Y-48935570D02*
X111031407Y-48840332D01*
X111031407Y-48840332D02*
X111126645Y-48745094D01*
X111126645Y-48745094D02*
X111269502Y-48697475D01*
X111269502Y-48697475D02*
X111364740Y-48697475D01*
X111364740Y-48697475D02*
X111507597Y-48745094D01*
X111507597Y-48745094D02*
X111555216Y-48792713D01*
X112602836Y-48697475D02*
X112936169Y-49697475D01*
X112936169Y-49697475D02*
X113269502Y-48697475D01*
X114126645Y-49697475D02*
X113555217Y-49697475D01*
X113840931Y-49697475D02*
X113840931Y-48697475D01*
X113840931Y-48697475D02*
X113745693Y-48840332D01*
X113745693Y-48840332D02*
X113650455Y-48935570D01*
X113650455Y-48935570D02*
X113555217Y-48983189D01*
X114555217Y-49602236D02*
X114602836Y-49649856D01*
X114602836Y-49649856D02*
X114555217Y-49697475D01*
X114555217Y-49697475D02*
X114507598Y-49649856D01*
X114507598Y-49649856D02*
X114555217Y-49602236D01*
X114555217Y-49602236D02*
X114555217Y-49697475D01*
X115221883Y-48697475D02*
X115317121Y-48697475D01*
X115317121Y-48697475D02*
X115412359Y-48745094D01*
X115412359Y-48745094D02*
X115459978Y-48792713D01*
X115459978Y-48792713D02*
X115507597Y-48887951D01*
X115507597Y-48887951D02*
X115555216Y-49078427D01*
X115555216Y-49078427D02*
X115555216Y-49316522D01*
X115555216Y-49316522D02*
X115507597Y-49506998D01*
X115507597Y-49506998D02*
X115459978Y-49602236D01*
X115459978Y-49602236D02*
X115412359Y-49649856D01*
X115412359Y-49649856D02*
X115317121Y-49697475D01*
X115317121Y-49697475D02*
X115221883Y-49697475D01*
X115221883Y-49697475D02*
X115126645Y-49649856D01*
X115126645Y-49649856D02*
X115079026Y-49602236D01*
X115079026Y-49602236D02*
X115031407Y-49506998D01*
X115031407Y-49506998D02*
X114983788Y-49316522D01*
X114983788Y-49316522D02*
X114983788Y-49078427D01*
X114983788Y-49078427D02*
X115031407Y-48887951D01*
X115031407Y-48887951D02*
X115079026Y-48792713D01*
X115079026Y-48792713D02*
X115126645Y-48745094D01*
X115126645Y-48745094D02*
X115221883Y-48697475D01*
X106221884Y-50783609D02*
X106555217Y-50783609D01*
X106698074Y-51307419D02*
X106221884Y-51307419D01*
X106221884Y-51307419D02*
X106221884Y-50307419D01*
X106221884Y-50307419D02*
X106698074Y-50307419D01*
X107079027Y-51259800D02*
X107221884Y-51307419D01*
X107221884Y-51307419D02*
X107459979Y-51307419D01*
X107459979Y-51307419D02*
X107555217Y-51259800D01*
X107555217Y-51259800D02*
X107602836Y-51212180D01*
X107602836Y-51212180D02*
X107650455Y-51116942D01*
X107650455Y-51116942D02*
X107650455Y-51021704D01*
X107650455Y-51021704D02*
X107602836Y-50926466D01*
X107602836Y-50926466D02*
X107555217Y-50878847D01*
X107555217Y-50878847D02*
X107459979Y-50831228D01*
X107459979Y-50831228D02*
X107269503Y-50783609D01*
X107269503Y-50783609D02*
X107174265Y-50735990D01*
X107174265Y-50735990D02*
X107126646Y-50688371D01*
X107126646Y-50688371D02*
X107079027Y-50593133D01*
X107079027Y-50593133D02*
X107079027Y-50497895D01*
X107079027Y-50497895D02*
X107126646Y-50402657D01*
X107126646Y-50402657D02*
X107174265Y-50355038D01*
X107174265Y-50355038D02*
X107269503Y-50307419D01*
X107269503Y-50307419D02*
X107507598Y-50307419D01*
X107507598Y-50307419D02*
X107650455Y-50355038D01*
X108079027Y-51307419D02*
X108079027Y-50307419D01*
X108079027Y-50783609D02*
X108650455Y-50783609D01*
X108650455Y-51307419D02*
X108650455Y-50307419D01*
X109793313Y-50307419D02*
X110412360Y-50307419D01*
X110412360Y-50307419D02*
X110079027Y-50688371D01*
X110079027Y-50688371D02*
X110221884Y-50688371D01*
X110221884Y-50688371D02*
X110317122Y-50735990D01*
X110317122Y-50735990D02*
X110364741Y-50783609D01*
X110364741Y-50783609D02*
X110412360Y-50878847D01*
X110412360Y-50878847D02*
X110412360Y-51116942D01*
X110412360Y-51116942D02*
X110364741Y-51212180D01*
X110364741Y-51212180D02*
X110317122Y-51259800D01*
X110317122Y-51259800D02*
X110221884Y-51307419D01*
X110221884Y-51307419D02*
X109936170Y-51307419D01*
X109936170Y-51307419D02*
X109840932Y-51259800D01*
X109840932Y-51259800D02*
X109793313Y-51212180D01*
X111555217Y-50259800D02*
X110698075Y-51545514D01*
X111840932Y-50402657D02*
X111888551Y-50355038D01*
X111888551Y-50355038D02*
X111983789Y-50307419D01*
X111983789Y-50307419D02*
X112221884Y-50307419D01*
X112221884Y-50307419D02*
X112317122Y-50355038D01*
X112317122Y-50355038D02*
X112364741Y-50402657D01*
X112364741Y-50402657D02*
X112412360Y-50497895D01*
X112412360Y-50497895D02*
X112412360Y-50593133D01*
X112412360Y-50593133D02*
X112364741Y-50735990D01*
X112364741Y-50735990D02*
X111793313Y-51307419D01*
X111793313Y-51307419D02*
X112412360Y-51307419D01*
X113269503Y-50307419D02*
X113079027Y-50307419D01*
X113079027Y-50307419D02*
X112983789Y-50355038D01*
X112983789Y-50355038D02*
X112936170Y-50402657D01*
X112936170Y-50402657D02*
X112840932Y-50545514D01*
X112840932Y-50545514D02*
X112793313Y-50735990D01*
X112793313Y-50735990D02*
X112793313Y-51116942D01*
X112793313Y-51116942D02*
X112840932Y-51212180D01*
X112840932Y-51212180D02*
X112888551Y-51259800D01*
X112888551Y-51259800D02*
X112983789Y-51307419D01*
X112983789Y-51307419D02*
X113174265Y-51307419D01*
X113174265Y-51307419D02*
X113269503Y-51259800D01*
X113269503Y-51259800D02*
X113317122Y-51212180D01*
X113317122Y-51212180D02*
X113364741Y-51116942D01*
X113364741Y-51116942D02*
X113364741Y-50878847D01*
X113364741Y-50878847D02*
X113317122Y-50783609D01*
X113317122Y-50783609D02*
X113269503Y-50735990D01*
X113269503Y-50735990D02*
X113174265Y-50688371D01*
X113174265Y-50688371D02*
X112983789Y-50688371D01*
X112983789Y-50688371D02*
X112888551Y-50735990D01*
X112888551Y-50735990D02*
X112840932Y-50783609D01*
X112840932Y-50783609D02*
X112793313Y-50878847D01*
D11*
X141906666Y-54699819D02*
X141906666Y-55414104D01*
X141906666Y-55414104D02*
X141859047Y-55556961D01*
X141859047Y-55556961D02*
X141763809Y-55652200D01*
X141763809Y-55652200D02*
X141620952Y-55699819D01*
X141620952Y-55699819D02*
X141525714Y-55699819D01*
X142335238Y-54795057D02*
X142382857Y-54747438D01*
X142382857Y-54747438D02*
X142478095Y-54699819D01*
X142478095Y-54699819D02*
X142716190Y-54699819D01*
X142716190Y-54699819D02*
X142811428Y-54747438D01*
X142811428Y-54747438D02*
X142859047Y-54795057D01*
X142859047Y-54795057D02*
X142906666Y-54890295D01*
X142906666Y-54890295D02*
X142906666Y-54985533D01*
X142906666Y-54985533D02*
X142859047Y-55128390D01*
X142859047Y-55128390D02*
X142287619Y-55699819D01*
X142287619Y-55699819D02*
X142906666Y-55699819D01*
D12*
%TO.C,J2*%
X137685000Y-57150000D02*
X137685000Y-49420000D01*
X140445000Y-49420000D02*
X137685000Y-49420000D01*
X140445000Y-57150000D02*
X137685000Y-57150000D01*
X140445000Y-57150000D02*
X140445000Y-49420000D01*
X140445000Y-58420000D02*
X140445000Y-59800000D01*
X140445000Y-59800000D02*
X139065000Y-59800000D01*
%TD*%
M02*
