%TF.GenerationSoftware,KiCad,Pcbnew,9.0.7-9.0.7~ubuntu24.04.1*%
%TF.CreationDate,2026-01-21T08:03:13-05:00*%
%TF.ProjectId,LED_clock,4c45445f-636c-46f6-936b-2e6b69636164,rev?*%
%TF.SameCoordinates,Original*%
%TF.FileFunction,Soldermask,Top*%
%TF.FilePolarity,Negative*%
%FSLAX46Y46*%
G04 Gerber Fmt 4.6, Leading zero omitted, Abs format (unit mm)*
G04 Created by KiCad (PCBNEW 9.0.7-9.0.7~ubuntu24.04.1) date 2026-01-21 08:03:13*
%MOMM*%
%LPD*%
G01*
G04 APERTURE LIST*
G04 Aperture macros list*
%AMRoundRect*
0 Rectangle with rounded corners*
0 $1 Rounding radius*
0 $2 $3 $4 $5 $6 $7 $8 $9 X,Y pos of 4 corners*
0 Add a 4 corners polygon primitive as box body*
4,1,4,$2,$3,$4,$5,$6,$7,$8,$9,$2,$3,0*
0 Add four circle primitives for the rounded corners*
1,1,$1+$1,$2,$3*
1,1,$1+$1,$4,$5*
1,1,$1+$1,$6,$7*
1,1,$1+$1,$8,$9*
0 Add four rect primitives between the rounded corners*
20,1,$1+$1,$2,$3,$4,$5,0*
20,1,$1+$1,$4,$5,$6,$7,0*
20,1,$1+$1,$6,$7,$8,$9,0*
20,1,$1+$1,$8,$9,$2,$3,0*%
%AMRotRect*
0 Rectangle, with rotation*
0 The origin of the aperture is its center*
0 $1 length*
0 $2 width*
0 $3 Rotation angle, in degrees counterclockwise*
0 Add horizontal line*
21,1,$1,$2,0,0,$3*%
G04 Aperture macros list end*
%ADD10RotRect,0.700000X1.925000X330.000000*%
%ADD11RotRect,1.925000X0.700000X330.000000*%
%ADD12R,1.925000X0.700000*%
%ADD13R,0.700000X1.925000*%
%ADD14RotRect,0.700000X1.925000X210.000000*%
%ADD15RotRect,1.925000X0.700000X210.000000*%
%ADD16RotRect,0.700000X1.925000X150.000000*%
%ADD17RotRect,1.925000X0.700000X150.000000*%
%ADD18RoundRect,0.250000X0.412500X0.650000X-0.412500X0.650000X-0.412500X-0.650000X0.412500X-0.650000X0*%
%ADD19RotRect,1.800000X1.800000X258.000000*%
%ADD20C,1.800000*%
%ADD21RoundRect,0.250001X0.772515X-0.088036X0.310016X0.713035X-0.772515X0.088036X-0.310016X-0.713035X0*%
%ADD22RoundRect,0.250001X-0.074502X0.773937X-0.761910X0.154993X0.074502X-0.773937X0.761910X-0.154993X0*%
%ADD23RotRect,1.800000X1.800000X150.000000*%
%ADD24RoundRect,0.250001X0.006804X0.777485X-0.741535X0.233785X-0.006804X-0.777485X0.741535X-0.233785X0*%
%ADD25RotRect,1.800000X1.800000X294.000000*%
%ADD26R,1.700000X1.700000*%
%ADD27C,1.700000*%
%ADD28RoundRect,0.250001X-0.773937X-0.074502X-0.154993X-0.761910X0.773937X0.074502X0.154993X0.761910X0*%
%ADD29RoundRect,0.250001X-0.525296X-0.573231X0.394635X-0.669919X0.525296X0.573231X-0.394635X0.669919X0*%
%ADD30RoundRect,0.250001X-0.761910X-0.154993X-0.074502X-0.773937X0.761910X0.154993X0.074502X0.773937X0*%
%ADD31RotRect,1.800000X1.800000X324.000000*%
%ADD32RoundRect,0.250001X0.773937X0.074502X0.154993X0.761910X-0.773937X-0.074502X-0.154993X-0.761910X0*%
%ADD33RoundRect,0.250001X0.632998X0.451489X-0.246727X0.737329X-0.632998X-0.451489X0.246727X-0.737329X0*%
%ADD34RoundRect,0.250001X-0.741535X-0.233785X0.006804X-0.777485X0.741535X0.233785X-0.006804X0.777485X0*%
%ADD35RoundRect,0.250001X-0.233785X0.741535X-0.777485X-0.006804X0.233785X-0.741535X0.777485X0.006804X0*%
%ADD36RotRect,1.800000X1.800000X54.000000*%
%ADD37RotRect,1.800000X1.800000X42.000000*%
%ADD38RotRect,1.800000X1.800000X78.000000*%
%ADD39RoundRect,0.250001X-0.669919X0.394635X-0.573231X-0.525296X0.669919X-0.394635X0.573231X0.525296X0*%
%ADD40RoundRect,0.250001X-0.394635X-0.669919X0.525296X-0.573231X0.394635X0.669919X-0.525296X0.573231X0*%
%ADD41RoundRect,0.250001X-0.310016X0.713035X-0.772515X-0.088036X0.310016X-0.713035X0.772515X0.088036X0*%
%ADD42RoundRect,0.250001X0.382850X-0.676724X0.759080X0.168304X-0.382850X0.676724X-0.759080X-0.168304X0*%
%ADD43RoundRect,0.250001X-0.573231X0.525296X-0.669919X-0.394635X0.573231X-0.525296X0.669919X0.394635X0*%
%ADD44RoundRect,0.250001X0.088036X0.772515X-0.713035X0.310016X-0.088036X-0.772515X0.713035X-0.310016X0*%
%ADD45RoundRect,0.250001X0.246727X0.737329X-0.632998X0.451489X-0.246727X-0.737329X0.632998X-0.451489X0*%
%ADD46RotRect,1.800000X1.800000X144.000000*%
%ADD47RotRect,1.800000X1.800000X204.000000*%
%ADD48RotRect,1.800000X1.800000X30.000000*%
%ADD49RotRect,1.800000X1.800000X84.000000*%
%ADD50RoundRect,0.250001X0.759080X-0.168304X0.382850X0.676724X-0.759080X0.168304X-0.382850X-0.676724X0*%
%ADD51RotRect,1.800000X1.800000X72.000000*%
%ADD52RoundRect,0.250001X-0.777485X0.006804X-0.233785X-0.741535X0.777485X-0.006804X0.233785X0.741535X0*%
%ADD53RoundRect,0.250001X-0.759080X0.168304X-0.382850X-0.676724X0.759080X-0.168304X0.382850X0.676724X0*%
%ADD54RotRect,1.800000X1.800000X318.000000*%
%ADD55RotRect,1.800000X1.800000X60.000000*%
%ADD56RoundRect,0.250001X0.074502X-0.773937X0.761910X-0.154993X-0.074502X0.773937X-0.761910X0.154993X0*%
%ADD57RotRect,1.800000X1.800000X234.000000*%
%ADD58RoundRect,0.250001X-0.088036X-0.772515X0.713035X-0.310016X0.088036X0.772515X-0.713035X0.310016X0*%
%ADD59RotRect,1.800000X1.800000X108.000000*%
%ADD60RotRect,1.800000X1.800000X312.000000*%
%ADD61RotRect,1.800000X1.800000X240.000000*%
%ADD62R,1.800000X1.800000*%
%ADD63RotRect,1.800000X1.800000X228.000000*%
%ADD64RoundRect,0.250001X0.737329X-0.246727X0.451489X0.632998X-0.737329X0.246727X-0.451489X-0.632998X0*%
%ADD65RotRect,1.800000X1.800000X252.000000*%
%ADD66RoundRect,0.250001X-0.006804X-0.777485X0.741535X-0.233785X0.006804X0.777485X-0.741535X0.233785X0*%
%ADD67RoundRect,0.250001X-0.632998X-0.451489X0.246727X-0.737329X0.632998X0.451489X-0.246727X0.737329X0*%
%ADD68RoundRect,0.250001X-0.737329X0.246727X-0.451489X-0.632998X0.737329X-0.246727X0.451489X0.632998X0*%
%ADD69RotRect,1.800000X1.800000X24.000000*%
%ADD70RotRect,1.800000X1.800000X222.000000*%
%ADD71RotRect,1.800000X1.800000X132.000000*%
%ADD72RotRect,1.800000X1.800000X210.000000*%
%ADD73RoundRect,0.250001X0.573231X-0.525296X0.669919X0.394635X-0.573231X0.525296X-0.669919X-0.394635X0*%
%ADD74RoundRect,0.250001X-0.676724X-0.382850X0.168304X-0.759080X0.676724X0.382850X-0.168304X0.759080X0*%
%ADD75RoundRect,0.250001X0.451489X-0.632998X0.737329X0.246727X-0.451489X0.632998X-0.737329X-0.246727X0*%
%ADD76RoundRect,0.250001X-0.624999X0.462499X-0.624999X-0.462499X0.624999X-0.462499X0.624999X0.462499X0*%
%ADD77RotRect,1.800000X1.800000X102.000000*%
%ADD78RoundRect,0.250001X0.741535X0.233785X-0.006804X0.777485X-0.741535X-0.233785X0.006804X-0.777485X0*%
%ADD79RotRect,1.800000X1.800000X138.000000*%
%ADD80RoundRect,0.250001X-0.451489X0.632998X-0.737329X-0.246727X0.451489X-0.632998X0.737329X0.246727X0*%
%ADD81RoundRect,0.250001X0.777485X-0.006804X0.233785X0.741535X-0.777485X0.006804X-0.233785X-0.741535X0*%
%ADD82RoundRect,0.250001X0.310016X-0.713035X0.772515X0.088036X-0.310016X0.713035X-0.772515X-0.088036X0*%
%ADD83RotRect,1.800000X1.800000X192.000000*%
%ADD84RoundRect,0.250001X0.761910X0.154993X0.074502X0.773937X-0.761910X-0.154993X-0.074502X-0.773937X0*%
%ADD85RoundRect,0.250001X0.394635X0.669919X-0.525296X0.573231X-0.394635X-0.669919X0.525296X-0.573231X0*%
%ADD86RoundRect,0.250001X-0.154993X0.761910X-0.773937X0.074502X0.154993X-0.761910X0.773937X-0.074502X0*%
%ADD87RoundRect,0.250001X0.168304X0.759080X-0.676724X0.382850X-0.168304X-0.759080X0.676724X-0.382850X0*%
%ADD88RoundRect,0.250001X-0.772515X0.088036X-0.310016X-0.713035X0.772515X-0.088036X0.310016X0.713035X0*%
%ADD89RotRect,1.800000X1.800000X276.000000*%
%ADD90RoundRect,0.250001X0.233785X-0.741535X0.777485X0.006804X-0.233785X0.741535X-0.777485X-0.006804X0*%
%ADD91RotRect,1.800000X1.800000X48.000000*%
%ADD92RoundRect,0.250001X0.462499X0.624999X-0.462499X0.624999X-0.462499X-0.624999X0.462499X-0.624999X0*%
%ADD93RoundRect,0.250001X-0.713035X-0.310016X0.088036X-0.772515X0.713035X0.310016X-0.088036X0.772515X0*%
%ADD94RotRect,1.800000X1.800000X348.000000*%
%ADD95RotRect,1.800000X1.800000X66.000000*%
%ADD96RotRect,1.800000X1.800000X288.000000*%
%ADD97RotRect,1.800000X1.800000X156.000000*%
%ADD98RoundRect,0.250001X0.669919X-0.394635X0.573231X0.525296X-0.669919X0.394635X-0.573231X-0.525296X0*%
%ADD99RoundRect,0.250001X-0.168304X-0.759080X0.676724X-0.382850X0.168304X0.759080X-0.676724X0.382850X0*%
%ADD100RotRect,1.800000X1.800000X96.000000*%
%ADD101RoundRect,0.250001X0.154993X-0.761910X0.773937X-0.074502X-0.154993X0.761910X-0.773937X0.074502X0*%
%ADD102RotRect,1.800000X1.800000X246.000000*%
%ADD103RotRect,1.800000X1.800000X300.000000*%
%ADD104RotRect,1.800000X1.800000X336.000000*%
%ADD105RotRect,1.800000X1.800000X330.000000*%
%ADD106RoundRect,0.250001X0.707500X-0.322448X0.515182X0.582337X-0.707500X0.322448X-0.515182X-0.582337X0*%
%ADD107RoundRect,0.250001X-0.582337X-0.515182X0.322448X-0.707500X0.582337X0.515182X-0.322448X0.707500X0*%
%ADD108RoundRect,0.250001X0.322448X0.707500X-0.582337X0.515182X-0.322448X-0.707500X0.582337X-0.515182X0*%
%ADD109RotRect,1.800000X1.800000X198.000000*%
%ADD110RoundRect,0.250001X0.676724X0.382850X-0.168304X0.759080X-0.676724X-0.382850X0.168304X-0.759080X0*%
%ADD111RoundRect,0.150000X-0.825000X-0.150000X0.825000X-0.150000X0.825000X0.150000X-0.825000X0.150000X0*%
%ADD112RotRect,1.800000X1.800000X342.000000*%
%ADD113RotRect,1.800000X1.800000X264.000000*%
%ADD114RotRect,1.800000X1.800000X120.000000*%
%ADD115RoundRect,0.250001X-0.462499X-0.624999X0.462499X-0.624999X0.462499X0.624999X-0.462499X0.624999X0*%
%ADD116RotRect,1.800000X1.800000X174.000000*%
%ADD117RoundRect,0.250001X-0.246727X-0.737329X0.632998X-0.451489X0.246727X0.737329X-0.632998X0.451489X0*%
%ADD118RotRect,1.800000X1.800000X36.000000*%
%ADD119RoundRect,0.250001X0.515182X-0.582337X0.707500X0.322448X-0.515182X0.582337X-0.707500X-0.322448X0*%
%ADD120RoundRect,0.250001X-0.382850X0.676724X-0.759080X-0.168304X0.382850X-0.676724X0.759080X0.168304X0*%
%ADD121RotRect,1.800000X1.800000X126.000000*%
%ADD122RotRect,1.800000X1.800000X6.000000*%
%ADD123RoundRect,0.250001X-0.515182X0.582337X-0.707500X-0.322448X0.515182X-0.582337X0.707500X0.322448X0*%
%ADD124RoundRect,0.250001X0.624999X-0.462499X0.624999X0.462499X-0.624999X0.462499X-0.624999X-0.462499X0*%
%ADD125RoundRect,0.250001X-0.707500X0.322448X-0.515182X-0.582337X0.707500X-0.322448X0.515182X0.582337X0*%
%ADD126RotRect,1.800000X1.800000X168.000000*%
%ADD127RoundRect,0.150000X-0.837500X-0.150000X0.837500X-0.150000X0.837500X0.150000X-0.837500X0.150000X0*%
%ADD128RotRect,1.800000X1.800000X12.000000*%
%ADD129RotRect,1.800000X1.800000X282.000000*%
%ADD130RotRect,1.800000X1.800000X354.000000*%
%ADD131RotRect,1.800000X1.800000X216.000000*%
%ADD132RoundRect,0.250001X0.525296X0.573231X-0.394635X0.669919X-0.525296X-0.573231X0.394635X-0.669919X0*%
%ADD133RotRect,1.800000X1.800000X186.000000*%
%ADD134RoundRect,0.250001X0.582337X0.515182X-0.322448X0.707500X-0.582337X-0.515182X0.322448X-0.707500X0*%
%ADD135RoundRect,0.250001X-0.322448X-0.707500X0.582337X-0.515182X0.322448X0.707500X-0.582337X0.515182X0*%
%ADD136RotRect,1.800000X1.800000X114.000000*%
%ADD137RotRect,1.800000X1.800000X162.000000*%
%ADD138RotRect,1.800000X1.800000X18.000000*%
%ADD139RoundRect,0.250001X0.713035X0.310016X-0.088036X0.772515X-0.713035X-0.310016X0.088036X-0.772515X0*%
%ADD140RotRect,1.800000X1.800000X306.000000*%
%ADD141RoundRect,0.250000X-0.550000X-0.550000X0.550000X-0.550000X0.550000X0.550000X-0.550000X0.550000X0*%
%ADD142C,1.600000*%
%ADD143RotRect,0.700000X1.925000X30.000000*%
%ADD144RotRect,1.925000X0.700000X30.000000*%
%ADD145RoundRect,0.150000X-0.725000X-0.150000X0.725000X-0.150000X0.725000X0.150000X-0.725000X0.150000X0*%
G04 APERTURE END LIST*
D10*
%TO.C,U5*%
X287457113Y-190970580D03*
X286357261Y-190335580D03*
X285257408Y-189700580D03*
X284157556Y-189065580D03*
D11*
X282091443Y-189619193D03*
X281456443Y-190719045D03*
X280821443Y-191818898D03*
X280186443Y-192918750D03*
X279551443Y-194018602D03*
X278916443Y-195118455D03*
X278281443Y-196218307D03*
D10*
X278835056Y-198284420D03*
X279934908Y-198919420D03*
X281034761Y-199554420D03*
X282134613Y-200189420D03*
X283234465Y-200824420D03*
X284334318Y-201459420D03*
X285434170Y-202094420D03*
D11*
X287500283Y-201540807D03*
X288135283Y-200440955D03*
X288770283Y-199341102D03*
X289405283Y-198241250D03*
X290040283Y-197141398D03*
X290675283Y-196041545D03*
X291310283Y-194941693D03*
D10*
X290756670Y-192875580D03*
X289656818Y-192240580D03*
X288556965Y-191605580D03*
%TD*%
D12*
%TO.C,U4*%
X259322500Y-213360000D03*
X259322500Y-212090000D03*
X259322500Y-210820000D03*
X259322500Y-209550000D03*
D13*
X257810000Y-208037500D03*
X256540000Y-208037500D03*
X255270000Y-208037500D03*
X254000000Y-208037500D03*
X252730000Y-208037500D03*
X251460000Y-208037500D03*
X250190000Y-208037500D03*
D12*
X248677500Y-209550000D03*
X248677500Y-210820000D03*
X248677500Y-212090000D03*
X248677500Y-213360000D03*
X248677500Y-214630000D03*
X248677500Y-215900000D03*
X248677500Y-217170000D03*
D13*
X250190000Y-218682500D03*
X251460000Y-218682500D03*
X252730000Y-218682500D03*
X254000000Y-218682500D03*
X255270000Y-218682500D03*
X256540000Y-218682500D03*
X257810000Y-218682500D03*
D12*
X259322500Y-217170000D03*
X259322500Y-215900000D03*
X259322500Y-214630000D03*
%TD*%
D14*
%TO.C,U3*%
X225865387Y-200189420D03*
X226965239Y-199554420D03*
X228065092Y-198919420D03*
X229164944Y-198284420D03*
D15*
X229718557Y-196218307D03*
X229083557Y-195118455D03*
X228448557Y-194018602D03*
X227813557Y-192918750D03*
X227178557Y-191818898D03*
X226543557Y-190719045D03*
X225908557Y-189619193D03*
D14*
X223842444Y-189065580D03*
X222742592Y-189700580D03*
X221642739Y-190335580D03*
X220542887Y-190970580D03*
X219443035Y-191605580D03*
X218343182Y-192240580D03*
X217243330Y-192875580D03*
D15*
X216689717Y-194941693D03*
X217324717Y-196041545D03*
X217959717Y-197141398D03*
X218594717Y-198241250D03*
X219229717Y-199341102D03*
X219864717Y-200440955D03*
X220499717Y-201540807D03*
D14*
X222565830Y-202094420D03*
X223665682Y-201459420D03*
X224765535Y-200824420D03*
%TD*%
D16*
%TO.C,U2*%
X220542887Y-164629420D03*
X221642739Y-165264420D03*
X222742592Y-165899420D03*
X223842444Y-166534420D03*
D17*
X225908557Y-165980807D03*
X226543557Y-164880955D03*
X227178557Y-163781102D03*
X227813557Y-162681250D03*
X228448557Y-161581398D03*
X229083557Y-160481545D03*
X229718557Y-159381693D03*
D16*
X229164944Y-157315580D03*
X228065092Y-156680580D03*
X226965239Y-156045580D03*
X225865387Y-155410580D03*
X224765535Y-154775580D03*
X223665682Y-154140580D03*
X222565830Y-153505580D03*
D17*
X220499717Y-154059193D03*
X219864717Y-155159045D03*
X219229717Y-156258898D03*
X218594717Y-157358750D03*
X217959717Y-158458602D03*
X217324717Y-159558455D03*
X216689717Y-160658307D03*
D16*
X217243330Y-162724420D03*
X218343182Y-163359420D03*
X219443035Y-163994420D03*
%TD*%
D12*
%TO.C,U1*%
X248677500Y-142240000D03*
X248677500Y-143510000D03*
X248677500Y-144780000D03*
X248677500Y-146050000D03*
D13*
X250190000Y-147562500D03*
X251460000Y-147562500D03*
X252730000Y-147562500D03*
X254000000Y-147562500D03*
X255270000Y-147562500D03*
X256540000Y-147562500D03*
X257810000Y-147562500D03*
D12*
X259322500Y-146050000D03*
X259322500Y-144780000D03*
X259322500Y-143510000D03*
X259322500Y-142240000D03*
X259322500Y-140970000D03*
X259322500Y-139700000D03*
X259322500Y-138430000D03*
D13*
X257810000Y-136917500D03*
X256540000Y-136917500D03*
X255270000Y-136917500D03*
X254000000Y-136917500D03*
X252730000Y-136917500D03*
X251460000Y-136917500D03*
X250190000Y-136917500D03*
D12*
X248677500Y-138430000D03*
X248677500Y-139700000D03*
X248677500Y-140970000D03*
%TD*%
D18*
%TO.C,C6*%
X255280000Y-168910000D03*
X252155000Y-168910000D03*
%TD*%
%TO.C,C2*%
X271095000Y-171450000D03*
X267970000Y-171450000D03*
%TD*%
%TO.C,C1*%
X238075000Y-170180000D03*
X234950000Y-170180000D03*
%TD*%
D19*
%TO.C,D41*%
X234460459Y-269726312D03*
D20*
X233932363Y-272210807D03*
%TD*%
D21*
%TO.C,D198*%
X222885000Y-123907239D03*
X221397500Y-121330813D03*
%TD*%
D22*
%TO.C,D155*%
X198477792Y-227792420D03*
X196266936Y-229783084D03*
%TD*%
D23*
%TO.C,D23*%
X172610933Y-130810000D03*
D20*
X170411228Y-129540000D03*
%TD*%
D24*
%TO.C,D94*%
X183281802Y-229179778D03*
X180874976Y-230928440D03*
%TD*%
D25*
%TO.C,D47*%
X292225110Y-263655002D03*
D20*
X293258221Y-265975407D03*
%TD*%
D26*
%TO.C,J1*%
X264160000Y-194310000D03*
D27*
X264160000Y-191770000D03*
X261620000Y-194310000D03*
X261620000Y-191770000D03*
X259080000Y-194310000D03*
X259080000Y-191770000D03*
X256540000Y-194310000D03*
X256540000Y-191770000D03*
X254000000Y-194310000D03*
X254000000Y-191770000D03*
X251460000Y-194310000D03*
X251460000Y-191770000D03*
X248920000Y-194310000D03*
X248920000Y-191770000D03*
X246380000Y-194310000D03*
X246380000Y-191770000D03*
X243840000Y-194310000D03*
X243840000Y-191770000D03*
X241300000Y-194310000D03*
X241300000Y-191770000D03*
%TD*%
D28*
%TO.C,D230*%
X295639997Y-224045902D03*
X297630661Y-226256758D03*
%TD*%
D29*
%TO.C,D177*%
X328303217Y-185609583D03*
X331261919Y-185920555D03*
%TD*%
D30*
%TO.C,D171*%
X309522208Y-227792420D03*
X311733064Y-229783084D03*
%TD*%
D31*
%TO.C,D52*%
X330031417Y-233040058D03*
D20*
X332086320Y-234533033D03*
%TD*%
D32*
%TO.C,D260*%
X221003497Y-141153671D03*
X219012833Y-138942815D03*
%TD*%
%TO.C,D200*%
X212360003Y-131554098D03*
X210369339Y-129343242D03*
%TD*%
D33*
%TO.C,D85*%
X170865773Y-150788052D03*
X168036379Y-149868726D03*
%TD*%
D34*
%TO.C,D292*%
X293894650Y-206785160D03*
X296301476Y-208533822D03*
%TD*%
D35*
%TO.C,D97*%
X202620222Y-248518198D03*
X200871560Y-250925024D03*
%TD*%
D36*
%TO.C,D67*%
X309240058Y-101768583D03*
D20*
X310733033Y-99713680D03*
%TD*%
D37*
%TO.C,D365*%
X333278690Y-106417147D03*
D20*
X335166278Y-104717555D03*
%TD*%
D38*
%TO.C,D71*%
X273539541Y-85873688D03*
D20*
X274067637Y-83389193D03*
%TD*%
D39*
%TO.C,D224*%
X260504806Y-239689098D03*
X260815778Y-242647800D03*
%TD*%
D40*
%TO.C,D239*%
X315889098Y-171295194D03*
X318847800Y-170984222D03*
%TD*%
D41*
%TO.C,D278*%
X229343750Y-220505878D03*
X227856250Y-223082304D03*
%TD*%
D42*
%TO.C,D309*%
X274057200Y-132750790D03*
X275267242Y-130032992D03*
%TD*%
D24*
%TO.C,D214*%
X203654873Y-214377876D03*
X201248047Y-216126538D03*
%TD*%
D43*
%TO.C,D102*%
X244862906Y-264733645D03*
X244551934Y-267692347D03*
%TD*%
D44*
%TO.C,D153*%
X189297077Y-215156250D03*
X186720651Y-216643750D03*
%TD*%
D45*
%TO.C,D91*%
X170865773Y-204811948D03*
X168036379Y-205731274D03*
%TD*%
D46*
%TO.C,D322*%
X167694067Y-115095069D03*
D20*
X165639164Y-113602094D03*
%TD*%
D47*
%TO.C,D332*%
X156542971Y-221190665D03*
D20*
X154222566Y-222223776D03*
%TD*%
D48*
%TO.C,D63*%
X335389067Y-130810000D03*
D20*
X337588772Y-129540000D03*
%TD*%
D49*
%TO.C,D72*%
X263823585Y-84334832D03*
D20*
X264089087Y-81808746D03*
%TD*%
D50*
%TO.C,D257*%
X233942800Y-132750790D03*
X232732758Y-130032992D03*
%TD*%
D51*
%TO.C,D70*%
X283041417Y-88419709D03*
D20*
X283826320Y-86004025D03*
%TD*%
D52*
%TO.C,D229*%
X290577876Y-228145127D03*
X292326538Y-230551953D03*
%TD*%
D53*
%TO.C,D167*%
X284388311Y-246053265D03*
X285598353Y-248771063D03*
%TD*%
D54*
%TO.C,D51*%
X323840751Y-240684894D03*
D20*
X325728339Y-242384486D03*
%TD*%
D55*
%TO.C,D68*%
X300990000Y-96410933D03*
D20*
X302260000Y-94211228D03*
%TD*%
D53*
%TO.C,D227*%
X279311221Y-234649934D03*
X280521263Y-237367732D03*
%TD*%
D56*
%TO.C,D185*%
X309522208Y-127807580D03*
X311733064Y-125816916D03*
%TD*%
D57*
%TO.C,D337*%
X191295069Y-264105933D03*
D20*
X189802094Y-266160836D03*
%TD*%
D58*
%TO.C,D243*%
X307892761Y-146685000D03*
X310469187Y-145197500D03*
%TD*%
D50*
%TO.C,D77*%
X218446133Y-97944708D03*
X217236091Y-95226910D03*
%TD*%
D59*
%TO.C,D16*%
X224958583Y-88419709D03*
D20*
X224173680Y-86004025D03*
%TD*%
D60*
%TO.C,D350*%
X325382853Y-257078690D03*
D20*
X327082445Y-258966278D03*
%TD*%
D61*
%TO.C,D38*%
X207010000Y-259189067D03*
D20*
X205740000Y-261388772D03*
%TD*%
D62*
%TO.C,D7*%
X254000000Y-278125000D03*
D20*
X254000000Y-280665000D03*
%TD*%
D62*
%TO.C,D358*%
X360680000Y-177800000D03*
D20*
X363220000Y-177800000D03*
%TD*%
D56*
%TO.C,D125*%
X318960147Y-119309621D03*
X321171003Y-117318957D03*
%TD*%
D63*
%TO.C,D36*%
X191115106Y-247640751D03*
D20*
X189415514Y-249528339D03*
%TD*%
D64*
%TO.C,D196*%
X234769873Y-118615753D03*
X233850547Y-115786359D03*
%TD*%
D65*
%TO.C,D40*%
X224958583Y-267180291D03*
D20*
X224173680Y-269595975D03*
%TD*%
D66*
%TO.C,D184*%
X314443682Y-133885095D03*
X316850508Y-132136433D03*
%TD*%
D39*
%TO.C,D104*%
X263137094Y-264733645D03*
X263448066Y-267692347D03*
%TD*%
D55*
%TO.C,D368*%
X307340000Y-85412410D03*
D20*
X308610000Y-83212705D03*
%TD*%
D67*
%TO.C,D175*%
X325055810Y-200887432D03*
X327885204Y-201806758D03*
%TD*%
D68*
%TO.C,D106*%
X281011948Y-260934227D03*
X281931274Y-263763621D03*
%TD*%
D69*
%TO.C,D62*%
X339855002Y-139574890D03*
D20*
X342175407Y-138541779D03*
%TD*%
D51*
%TO.C,D370*%
X286965933Y-76341291D03*
D20*
X287750836Y-73925607D03*
%TD*%
D52*
%TO.C,D109*%
X305379778Y-248518198D03*
X307128440Y-250925024D03*
%TD*%
D70*
%TO.C,D335*%
X174721310Y-249182853D03*
D20*
X172833722Y-250882445D03*
%TD*%
D71*
%TO.C,D20*%
X191115106Y-107959249D03*
D20*
X189415514Y-106071661D03*
%TD*%
D40*
%TO.C,D119*%
X340933645Y-168662906D03*
X343892347Y-168351934D03*
%TD*%
D72*
%TO.C,D5*%
X167116001Y-227962500D03*
D20*
X164916296Y-229232500D03*
%TD*%
D73*
%TO.C,D132*%
X263137094Y-90866355D03*
X263448066Y-87907653D03*
%TD*%
D74*
%TO.C,D234*%
X310849934Y-203111221D03*
X313567732Y-204321263D03*
%TD*%
D75*
%TO.C,D130*%
X281011948Y-94665773D03*
X281931274Y-91836379D03*
%TD*%
D23*
%TO.C,D323*%
X161612410Y-124460000D03*
D20*
X159412705Y-123190000D03*
%TD*%
D42*
%TO.C,D249*%
X279311221Y-120950066D03*
X280521263Y-118232268D03*
%TD*%
D73*
%TO.C,D192*%
X261809583Y-103496783D03*
X262120555Y-100538081D03*
%TD*%
D76*
%TO.C,D103*%
X254000000Y-265212500D03*
X254000000Y-268187500D03*
%TD*%
D77*
%TO.C,D15*%
X234460459Y-85873688D03*
D20*
X233932363Y-83389193D03*
%TD*%
D69*
%TO.C,D362*%
X351457029Y-134409335D03*
D20*
X353777434Y-133376224D03*
%TD*%
D64*
%TO.C,D136*%
X230912568Y-106744190D03*
X229993242Y-103914796D03*
%TD*%
D78*
%TO.C,D82*%
X183281802Y-126420222D03*
X180874976Y-124671560D03*
%TD*%
D79*
%TO.C,D21*%
X184159249Y-114915106D03*
D20*
X182271661Y-113215514D03*
%TD*%
D24*
%TO.C,D274*%
X214105350Y-206785160D03*
X211698524Y-208533822D03*
%TD*%
D80*
%TO.C,D220*%
X234769873Y-236984247D03*
X233850547Y-239813641D03*
%TD*%
D41*
%TO.C,D158*%
X216643750Y-242502923D03*
X215156250Y-245079349D03*
%TD*%
D44*
%TO.C,D213*%
X200107239Y-208915000D03*
X197530813Y-210402500D03*
%TD*%
D81*
%TO.C,D259*%
X225014840Y-137905350D03*
X223266178Y-135498524D03*
%TD*%
D82*
%TO.C,D128*%
X297706250Y-102098555D03*
X299193750Y-99522129D03*
%TD*%
D83*
%TO.C,D30*%
X162073688Y-197339541D03*
D20*
X159589193Y-197867637D03*
%TD*%
D84*
%TO.C,D81*%
X189039853Y-119309621D03*
X186828997Y-117318957D03*
%TD*%
D81*
%TO.C,D79*%
X202620222Y-107081802D03*
X200871560Y-104674976D03*
%TD*%
D73*
%TO.C,D312*%
X259154560Y-128757639D03*
X259465532Y-125798937D03*
%TD*%
D44*
%TO.C,D273*%
X211294122Y-202456250D03*
X208717696Y-203943750D03*
%TD*%
D32*
%TO.C,D140*%
X204007580Y-122277792D03*
X202016916Y-120066936D03*
%TD*%
D85*
%TO.C,D89*%
X167066355Y-186937094D03*
X164107653Y-187248066D03*
%TD*%
D86*
%TO.C,D156*%
X204007580Y-233322208D03*
X202016916Y-235533064D03*
%TD*%
D87*
%TO.C,D212*%
X197150066Y-203111221D03*
X194432268Y-204321263D03*
%TD*%
D88*
%TO.C,D288*%
X278656250Y-220505878D03*
X280143750Y-223082304D03*
%TD*%
D89*
%TO.C,D44*%
X263823585Y-271265168D03*
D20*
X264089087Y-273791254D03*
%TD*%
D90*
%TO.C,D247*%
X290577876Y-127454873D03*
X292326538Y-125048047D03*
%TD*%
D53*
%TO.C,D107*%
X289553867Y-257655292D03*
X290763909Y-260373090D03*
%TD*%
D91*
%TO.C,D366*%
X325382853Y-98521310D03*
D20*
X327082445Y-96633722D03*
%TD*%
D92*
%TO.C,D88*%
X166587500Y-177800000D03*
X163612500Y-177800000D03*
%TD*%
D30*
%TO.C,D291*%
X290646329Y-210796503D03*
X292857185Y-212787167D03*
%TD*%
D93*
%TO.C,D113*%
X329701445Y-221506250D03*
X332277871Y-222993750D03*
%TD*%
D45*
%TO.C,D151*%
X182944190Y-200887432D03*
X180114796Y-201806758D03*
%TD*%
D94*
%TO.C,D56*%
X345926312Y-197339541D03*
D20*
X348410807Y-197867637D03*
%TD*%
D39*
%TO.C,D164*%
X261809583Y-252103217D03*
X262120555Y-255061919D03*
%TD*%
D95*
%TO.C,D69*%
X292225110Y-91944998D03*
D20*
X293258221Y-89624593D03*
%TD*%
D96*
%TO.C,D46*%
X283041417Y-267180291D03*
D20*
X283826320Y-269595975D03*
%TD*%
D82*
%TO.C,D188*%
X291356250Y-113097077D03*
X292843750Y-110520651D03*
%TD*%
D97*
%TO.C,D324*%
X156542971Y-134409335D03*
D20*
X154222566Y-133376224D03*
%TD*%
D98*
%TO.C,D134*%
X246190417Y-103496783D03*
X245879445Y-100538081D03*
%TD*%
D99*
%TO.C,D302*%
X299049210Y-157742800D03*
X301767008Y-156532758D03*
%TD*%
D88*
%TO.C,D168*%
X291356250Y-242502923D03*
X292843750Y-245079349D03*
%TD*%
D67*
%TO.C,D295*%
X300898974Y-193038400D03*
X303728368Y-193957726D03*
%TD*%
D100*
%TO.C,D314*%
X242848904Y-71704404D03*
D20*
X242583402Y-69178318D03*
%TD*%
D101*
%TO.C,D246*%
X295639997Y-131554098D03*
X297630661Y-129343242D03*
%TD*%
D74*
%TO.C,D294*%
X299049210Y-197857200D03*
X301767008Y-199067242D03*
%TD*%
D63*
%TO.C,D336*%
X182617147Y-257078690D03*
D20*
X180917555Y-258966278D03*
%TD*%
D102*
%TO.C,D39*%
X215774890Y-263655002D03*
D20*
X214741779Y-265975407D03*
%TD*%
D75*
%TO.C,D250*%
X273230127Y-118615753D03*
X274149453Y-115786359D03*
%TD*%
D103*
%TO.C,D48*%
X300990000Y-259189067D03*
D20*
X302260000Y-261388772D03*
%TD*%
D21*
%TO.C,D138*%
X216643750Y-113097077D03*
X215156250Y-110520651D03*
%TD*%
D104*
%TO.C,D54*%
X339855002Y-216025110D03*
D20*
X342175407Y-217058221D03*
%TD*%
D65*
%TO.C,D340*%
X221034067Y-279258709D03*
D20*
X220249164Y-281674393D03*
%TD*%
D98*
%TO.C,D194*%
X247495194Y-115910902D03*
X247184222Y-112952200D03*
%TD*%
D105*
%TO.C,D9*%
X340883999Y-227962500D03*
D20*
X343083704Y-229232500D03*
%TD*%
D106*
%TO.C,D255*%
X243747355Y-129565098D03*
X243128817Y-126655106D03*
%TD*%
D62*
%TO.C,D58*%
X347980000Y-177800000D03*
D20*
X350520000Y-177800000D03*
%TD*%
D107*
%TO.C,D116*%
X339502326Y-195974080D03*
X342412318Y-196592618D03*
%TD*%
D76*
%TO.C,D283*%
X254000000Y-227112500D03*
X254000000Y-230087500D03*
%TD*%
D93*
%TO.C,D233*%
X307892761Y-208915000D03*
X310469187Y-210402500D03*
%TD*%
D108*
%TO.C,D90*%
X168497674Y-195974080D03*
X165587682Y-196592618D03*
%TD*%
D87*
%TO.C,D272*%
X208950790Y-197857200D03*
X206232992Y-199067242D03*
%TD*%
D67*
%TO.C,D115*%
X337134227Y-204811948D03*
X339963621Y-205731274D03*
%TD*%
D59*
%TO.C,D316*%
X221034067Y-76341291D03*
D20*
X220249164Y-73925607D03*
%TD*%
D62*
%TO.C,D328*%
X147320000Y-177800000D03*
D20*
X144780000Y-177800000D03*
%TD*%
D102*
%TO.C,D339*%
X210609335Y-275257029D03*
D20*
X209576224Y-277577434D03*
%TD*%
D81*
%TO.C,D139*%
X210085095Y-117356318D03*
X208336433Y-114949492D03*
%TD*%
D42*
%TO.C,D189*%
X284388311Y-109546735D03*
X285598353Y-106828937D03*
%TD*%
D101*
%TO.C,D126*%
X312490379Y-112839853D03*
X314481043Y-110628997D03*
%TD*%
D109*
%TO.C,D31*%
X164619709Y-206841417D03*
D20*
X162204025Y-207626320D03*
%TD*%
D110*
%TO.C,D264*%
X208950790Y-157742800D03*
X206232992Y-156532758D03*
%TD*%
D111*
%TO.C,U9*%
X266700000Y-175260000D03*
X266700000Y-176530000D03*
X266700000Y-177800000D03*
X266700000Y-179070000D03*
X266700000Y-180340000D03*
X266700000Y-181610000D03*
X266700000Y-182880000D03*
X271650000Y-182880000D03*
X271650000Y-181610000D03*
X271650000Y-180340000D03*
X271650000Y-179070000D03*
X271650000Y-177800000D03*
X271650000Y-176530000D03*
X271650000Y-175260000D03*
%TD*%
D50*
%TO.C,D137*%
X223611689Y-109546735D03*
X222401647Y-106828937D03*
%TD*%
D61*
%TO.C,D338*%
X200660000Y-270187590D03*
D20*
X199390000Y-272387295D03*
%TD*%
D112*
%TO.C,D55*%
X343380291Y-206841417D03*
D20*
X345795975Y-207626320D03*
%TD*%
D113*
%TO.C,D42*%
X244176415Y-271265168D03*
D20*
X243910913Y-273791254D03*
%TD*%
D114*
%TO.C,D318*%
X200660000Y-85412410D03*
D20*
X199390000Y-83212705D03*
%TD*%
D21*
%TO.C,D78*%
X210293750Y-102098555D03*
X208806250Y-99522129D03*
%TD*%
D53*
%TO.C,D287*%
X274057200Y-222849210D03*
X275267242Y-225567008D03*
%TD*%
D115*
%TO.C,D238*%
X316230000Y-177800000D03*
X319205000Y-177800000D03*
%TD*%
D116*
%TO.C,D27*%
X160534832Y-167976415D03*
D20*
X158008746Y-167710913D03*
%TD*%
D75*
%TO.C,D190*%
X277087432Y-106744190D03*
X278006758Y-103914796D03*
%TD*%
D117*
%TO.C,D181*%
X325055810Y-154712568D03*
X327885204Y-153793242D03*
%TD*%
D95*
%TO.C,D369*%
X297390665Y-80342971D03*
D20*
X298423776Y-78022566D03*
%TD*%
D103*
%TO.C,D348*%
X307340000Y-270187590D03*
D20*
X308610000Y-272387295D03*
%TD*%
D118*
%TO.C,D364*%
X340305933Y-115095069D03*
D20*
X342360836Y-113602094D03*
%TD*%
D119*
%TO.C,D311*%
X264252645Y-129565098D03*
X264871183Y-126655106D03*
%TD*%
D78*
%TO.C,D202*%
X203654873Y-141222124D03*
X201248047Y-139473462D03*
%TD*%
D120*
%TO.C,D99*%
X218446133Y-257655292D03*
X217236091Y-260373090D03*
%TD*%
D38*
%TO.C,D371*%
X276180019Y-73451214D03*
D20*
X276708115Y-70966719D03*
%TD*%
D64*
%TO.C,D76*%
X226988052Y-94665773D03*
X226068726Y-91836379D03*
%TD*%
D121*
%TO.C,D19*%
X198759942Y-101768583D03*
D20*
X197266967Y-99713680D03*
%TD*%
D122*
%TO.C,D359*%
X360095596Y-166648904D03*
D20*
X362621682Y-166383402D03*
%TD*%
D122*
%TO.C,D59*%
X347465168Y-167976415D03*
D20*
X349991254Y-167710913D03*
%TD*%
D123*
%TO.C,D281*%
X243747355Y-226034902D03*
X243128817Y-228944894D03*
%TD*%
D118*
%TO.C,D64*%
X330031417Y-122559942D03*
D20*
X332086320Y-121066967D03*
%TD*%
D68*
%TO.C,D166*%
X277087432Y-248855810D03*
X278006758Y-251685204D03*
%TD*%
D50*
%TO.C,D197*%
X228688779Y-120950066D03*
X227478737Y-118232268D03*
%TD*%
D84*
%TO.C,D261*%
X217353671Y-144803497D03*
X215142815Y-142812833D03*
%TD*%
D30*
%TO.C,D231*%
X300245902Y-219439997D03*
X302456758Y-221430661D03*
%TD*%
D43*
%TO.C,D162*%
X246190417Y-252103217D03*
X245879445Y-255061919D03*
%TD*%
D28*
%TO.C,D170*%
X303992420Y-233322208D03*
X305983084Y-235533064D03*
%TD*%
D62*
%TO.C,D13*%
X254000000Y-83820000D03*
D20*
X254000000Y-81280000D03*
%TD*%
D124*
%TO.C,D253*%
X254000000Y-128487500D03*
X254000000Y-125512500D03*
%TD*%
D41*
%TO.C,D218*%
X222885000Y-231692761D03*
X221397500Y-234269187D03*
%TD*%
D33*
%TO.C,D145*%
X182944190Y-154712568D03*
X180114796Y-153793242D03*
%TD*%
D24*
%TO.C,D154*%
X193556318Y-221714905D03*
X191149492Y-223463567D03*
%TD*%
D109*
%TO.C,D331*%
X152541291Y-210765933D03*
D20*
X150125607Y-211550836D03*
%TD*%
D80*
%TO.C,D280*%
X238761600Y-224698974D03*
X237842274Y-227528368D03*
%TD*%
D29*
%TO.C,D117*%
X340933645Y-186937094D03*
X343892347Y-187248066D03*
%TD*%
D79*
%TO.C,D321*%
X174721310Y-106417147D03*
D20*
X172833722Y-104717555D03*
%TD*%
D21*
%TO.C,D258*%
X229343750Y-135094122D03*
X227856250Y-132517696D03*
%TD*%
D73*
%TO.C,D252*%
X260504806Y-115910902D03*
X260815778Y-112952200D03*
%TD*%
D125*
%TO.C,D105*%
X272174080Y-263302326D03*
X272792618Y-266212318D03*
%TD*%
D110*
%TO.C,D204*%
X197150066Y-152488779D03*
X194432268Y-151278737D03*
%TD*%
D35*
%TO.C,D277*%
X225014840Y-217694650D03*
X223266178Y-220101476D03*
%TD*%
D99*
%TO.C,D122*%
X333855292Y-142246133D03*
X336573090Y-141036091D03*
%TD*%
D58*
%TO.C,D183*%
X318702923Y-140443750D03*
X321279349Y-138956250D03*
%TD*%
D35*
%TO.C,D217*%
X217422124Y-228145127D03*
X215673462Y-230551953D03*
%TD*%
D57*
%TO.C,D37*%
X198759942Y-253831417D03*
D20*
X197266967Y-255886320D03*
%TD*%
D80*
%TO.C,D160*%
X230912568Y-248855810D03*
X229993242Y-251685204D03*
%TD*%
D44*
%TO.C,D93*%
X178298555Y-221506250D03*
X175722129Y-222993750D03*
%TD*%
D108*
%TO.C,D150*%
X180920149Y-193333602D03*
X178010157Y-193952140D03*
%TD*%
D39*
%TO.C,D284*%
X259154560Y-226842361D03*
X259465532Y-229801063D03*
%TD*%
D86*
%TO.C,D216*%
X212360003Y-224045902D03*
X210369339Y-226256758D03*
%TD*%
D47*
%TO.C,D32*%
X168144998Y-216025110D03*
D20*
X165824593Y-217058221D03*
%TD*%
D126*
%TO.C,D26*%
X162073688Y-158260459D03*
D20*
X159589193Y-157732363D03*
%TD*%
D115*
%TO.C,D298*%
X303312500Y-177800000D03*
X306287500Y-177800000D03*
%TD*%
D67*
%TO.C,D235*%
X313184247Y-197030127D03*
X316013641Y-197949453D03*
%TD*%
D46*
%TO.C,D22*%
X177968583Y-122559942D03*
D20*
X175913680Y-121066967D03*
%TD*%
D127*
%TO.C,U8*%
X249615000Y-172720000D03*
X249615000Y-173990000D03*
X249615000Y-175260000D03*
X249615000Y-176530000D03*
X249615000Y-177800000D03*
X249615000Y-179070000D03*
X249615000Y-180340000D03*
X249615000Y-181610000D03*
X249615000Y-182880000D03*
X249615000Y-184150000D03*
X256540000Y-184150000D03*
X256540000Y-182880000D03*
X256540000Y-181610000D03*
X256540000Y-180340000D03*
X256540000Y-179070000D03*
X256540000Y-177800000D03*
X256540000Y-176530000D03*
X256540000Y-175260000D03*
X256540000Y-173990000D03*
X256540000Y-172720000D03*
%TD*%
D66*
%TO.C,D124*%
X324718198Y-126420222D03*
X327125024Y-124671560D03*
%TD*%
D128*
%TO.C,D360*%
X358348786Y-155619981D03*
D20*
X360833281Y-155091885D03*
%TD*%
D34*
%TO.C,D112*%
X324718198Y-229179778D03*
X327125024Y-230928440D03*
%TD*%
D129*
%TO.C,D45*%
X273539541Y-269726312D03*
D20*
X274067637Y-272210807D03*
%TD*%
D62*
%TO.C,D4*%
X153675000Y-177800000D03*
D20*
X151135000Y-177800000D03*
%TD*%
D99*
%TO.C,D242*%
X310849934Y-152488779D03*
X313567732Y-151278737D03*
%TD*%
D76*
%TO.C,D163*%
X254000000Y-252512500D03*
X254000000Y-255487500D03*
%TD*%
D28*
%TO.C,D290*%
X286996503Y-214446329D03*
X288987167Y-216657185D03*
%TD*%
D88*
%TO.C,D108*%
X297706250Y-253501445D03*
X299193750Y-256077871D03*
%TD*%
D68*
%TO.C,D286*%
X269238400Y-224698974D03*
X270157726Y-227528368D03*
%TD*%
D82*
%TO.C,D308*%
X278656250Y-135094122D03*
X280143750Y-132517696D03*
%TD*%
D97*
%TO.C,D24*%
X168144998Y-139574890D03*
D20*
X165824593Y-138541779D03*
%TD*%
D34*
%TO.C,D172*%
X314443682Y-221714905D03*
X316850508Y-223463567D03*
%TD*%
D123*
%TO.C,D221*%
X241061656Y-238670124D03*
X240443118Y-241580116D03*
%TD*%
D49*
%TO.C,D372*%
X265151096Y-71704404D03*
D20*
X265416598Y-69178318D03*
%TD*%
D129*
%TO.C,D345*%
X276180019Y-282148786D03*
D20*
X276708115Y-284633281D03*
%TD*%
D90*
%TO.C,D187*%
X297914905Y-117356318D03*
X299663567Y-114949492D03*
%TD*%
D68*
%TO.C,D226*%
X273230127Y-236984247D03*
X274149453Y-239813641D03*
%TD*%
D130*
%TO.C,D57*%
X347465168Y-187623585D03*
D20*
X349991254Y-187889087D03*
%TD*%
D131*
%TO.C,D334*%
X167694067Y-240504931D03*
D20*
X165639164Y-241997906D03*
%TD*%
D45*
%TO.C,D211*%
X194815753Y-197030127D03*
X191986359Y-197949453D03*
%TD*%
D123*
%TO.C,D101*%
X235825920Y-263302326D03*
X235207382Y-266212318D03*
%TD*%
D62*
%TO.C,D10*%
X354325000Y-177800000D03*
D20*
X356865000Y-177800000D03*
%TD*%
D90*
%TO.C,D307*%
X282985160Y-137905350D03*
X284733822Y-135498524D03*
%TD*%
D132*
%TO.C,D267*%
X204957639Y-172645440D03*
X201998937Y-172334468D03*
%TD*%
D103*
%TO.C,D8*%
X304162500Y-264683999D03*
D20*
X305432500Y-266883704D03*
%TD*%
D133*
%TO.C,D329*%
X147904404Y-188951096D03*
D20*
X145378318Y-189216598D03*
%TD*%
D134*
%TO.C,D146*%
X180920149Y-162266398D03*
X178010157Y-161647860D03*
%TD*%
D101*
%TO.C,D306*%
X286996503Y-141153671D03*
X288987167Y-138942815D03*
%TD*%
D135*
%TO.C,D180*%
X327079851Y-162266398D03*
X329989843Y-161647860D03*
%TD*%
D55*
%TO.C,D12*%
X304162500Y-90916001D03*
D20*
X305432500Y-88716296D03*
%TD*%
D45*
%TO.C,D271*%
X207101026Y-193038400D03*
X204271632Y-193957726D03*
%TD*%
D113*
%TO.C,D342*%
X242848904Y-283895596D03*
D20*
X242583402Y-286421682D03*
%TD*%
D121*
%TO.C,D319*%
X191295069Y-91494067D03*
D20*
X189802094Y-89439164D03*
%TD*%
D85*
%TO.C,D149*%
X179696783Y-185609583D03*
X176738081Y-185920555D03*
%TD*%
D136*
%TO.C,D317*%
X210609335Y-80342971D03*
D20*
X209576224Y-78022566D03*
%TD*%
D120*
%TO.C,D279*%
X233942800Y-222849210D03*
X232732758Y-225567008D03*
%TD*%
D82*
%TO.C,D248*%
X285115000Y-123907239D03*
X286602500Y-121330813D03*
%TD*%
D64*
%TO.C,D256*%
X238761600Y-130901026D03*
X237842274Y-128071632D03*
%TD*%
D90*
%TO.C,D127*%
X305379778Y-107081802D03*
X307128440Y-104674976D03*
%TD*%
D85*
%TO.C,D209*%
X192110902Y-184304806D03*
X189152200Y-184615778D03*
%TD*%
D134*
%TO.C,D266*%
X205765098Y-167547355D03*
X202855106Y-166928817D03*
%TD*%
D99*
%TO.C,D182*%
X322253265Y-147411689D03*
X324971063Y-146201647D03*
%TD*%
D28*
%TO.C,D110*%
X312490379Y-242760147D03*
X314481043Y-244971003D03*
%TD*%
D135*
%TO.C,D240*%
X314870124Y-164861656D03*
X317780116Y-164243118D03*
%TD*%
D120*
%TO.C,D219*%
X228688779Y-234649934D03*
X227478737Y-237367732D03*
%TD*%
D106*
%TO.C,D75*%
X235825920Y-92297674D03*
X235207382Y-89387682D03*
%TD*%
D125*
%TO.C,D225*%
X266938344Y-238670124D03*
X267556882Y-241580116D03*
%TD*%
D61*
%TO.C,D6*%
X203837500Y-264683999D03*
D20*
X202567500Y-266883704D03*
%TD*%
D93*
%TO.C,D293*%
X296705878Y-202456250D03*
X299282304Y-203943750D03*
%TD*%
D92*
%TO.C,D268*%
X204687500Y-177800000D03*
X201712500Y-177800000D03*
%TD*%
D80*
%TO.C,D100*%
X226988052Y-260934227D03*
X226068726Y-263763621D03*
%TD*%
D110*
%TO.C,D144*%
X185746735Y-147411689D03*
X183028937Y-146201647D03*
%TD*%
D66*
%TO.C,D244*%
X304345127Y-141222124D03*
X306751953Y-139473462D03*
%TD*%
D29*
%TO.C,D237*%
X315889098Y-184304806D03*
X318847800Y-184615778D03*
%TD*%
D137*
%TO.C,D325*%
X152541291Y-144834067D03*
D20*
X150125607Y-144049164D03*
%TD*%
D75*
%TO.C,D310*%
X269238400Y-130901026D03*
X270157726Y-128071632D03*
%TD*%
D138*
%TO.C,D361*%
X355458709Y-144834067D03*
D20*
X357874393Y-144049164D03*
%TD*%
D132*
%TO.C,D87*%
X167066355Y-168662906D03*
X164107653Y-168351934D03*
%TD*%
D35*
%TO.C,D157*%
X210085095Y-238243682D03*
X208336433Y-240650508D03*
%TD*%
D22*
%TO.C,D215*%
X207754098Y-219439997D03*
X205543242Y-221430661D03*
%TD*%
D128*
%TO.C,D60*%
X345926312Y-158260459D03*
D20*
X348410807Y-157732363D03*
%TD*%
D62*
%TO.C,D313*%
X254000000Y-71120000D03*
D20*
X254000000Y-68580000D03*
%TD*%
D139*
%TO.C,D143*%
X189297077Y-140443750D03*
X186720651Y-138956250D03*
%TD*%
D140*
%TO.C,D349*%
X316704931Y-264105933D03*
D20*
X318197906Y-266160836D03*
%TD*%
D137*
%TO.C,D25*%
X164619709Y-148758583D03*
D20*
X162204025Y-147973680D03*
%TD*%
D34*
%TO.C,D232*%
X304345127Y-214377876D03*
X306751953Y-216126538D03*
%TD*%
D119*
%TO.C,D131*%
X272174080Y-92297674D03*
X272792618Y-89387682D03*
%TD*%
D134*
%TO.C,D86*%
X168497674Y-159625920D03*
X165587682Y-159007382D03*
%TD*%
D124*
%TO.C,D193*%
X254000000Y-115570000D03*
X254000000Y-112595000D03*
%TD*%
D116*
%TO.C,D327*%
X147904404Y-166648904D03*
D20*
X145378318Y-166383402D03*
%TD*%
D100*
%TO.C,D14*%
X244176415Y-84334832D03*
D20*
X243910913Y-81808746D03*
%TD*%
D56*
%TO.C,D245*%
X300245902Y-136160003D03*
X302456758Y-134169339D03*
%TD*%
D72*
%TO.C,D333*%
X161612410Y-231140000D03*
D20*
X159412705Y-232410000D03*
%TD*%
D25*
%TO.C,D347*%
X297390665Y-275257029D03*
D20*
X298423776Y-277577434D03*
%TD*%
D135*
%TO.C,D300*%
X302234902Y-167547355D03*
X305144894Y-166928817D03*
%TD*%
D138*
%TO.C,D61*%
X343380291Y-148758583D03*
D20*
X345795975Y-147973680D03*
%TD*%
D86*
%TO.C,D96*%
X195509621Y-242760147D03*
X193518957Y-244971003D03*
%TD*%
D88*
%TO.C,D228*%
X285115000Y-231692761D03*
X286602500Y-234269187D03*
%TD*%
D40*
%TO.C,D179*%
X328303217Y-169990417D03*
X331261919Y-169679445D03*
%TD*%
D43*
%TO.C,D222*%
X247495194Y-239689098D03*
X247184222Y-242647800D03*
%TD*%
D123*
%TO.C,D161*%
X238466398Y-250879851D03*
X237847860Y-253789843D03*
%TD*%
D41*
%TO.C,D98*%
X210293750Y-253501445D03*
X208806250Y-256077871D03*
%TD*%
D84*
%TO.C,D141*%
X198477792Y-127807580D03*
X196266936Y-125816916D03*
%TD*%
D87*
%TO.C,D92*%
X174144708Y-213353867D03*
X171426910Y-214563909D03*
%TD*%
D107*
%TO.C,D176*%
X327079851Y-193333602D03*
X329989843Y-193952140D03*
%TD*%
D62*
%TO.C,D1*%
X254000000Y-77475000D03*
D20*
X254000000Y-74935000D03*
%TD*%
D52*
%TO.C,D289*%
X282985160Y-217694650D03*
X284733822Y-220101476D03*
%TD*%
D126*
%TO.C,D326*%
X149651214Y-155619981D03*
D20*
X147166719Y-155091885D03*
%TD*%
D107*
%TO.C,D296*%
X302234902Y-188052645D03*
X305144894Y-188671183D03*
%TD*%
D74*
%TO.C,D174*%
X322253265Y-208188311D03*
X324971063Y-209398353D03*
%TD*%
D114*
%TO.C,D18*%
X207010000Y-96410933D03*
D20*
X205740000Y-94211228D03*
%TD*%
D19*
%TO.C,D341*%
X231819981Y-282148786D03*
D20*
X231291885Y-284633281D03*
%TD*%
D42*
%TO.C,D129*%
X289553867Y-97944708D03*
X290763909Y-95226910D03*
%TD*%
D48*
%TO.C,D363*%
X346387590Y-124460000D03*
D20*
X348587295Y-123190000D03*
%TD*%
D70*
%TO.C,D35*%
X184159249Y-240684894D03*
D20*
X182271661Y-242384486D03*
%TD*%
D58*
%TO.C,D123*%
X329701445Y-134093750D03*
X332277871Y-132606250D03*
%TD*%
D117*
%TO.C,D121*%
X337134227Y-150788052D03*
X339963621Y-149868726D03*
%TD*%
D110*
%TO.C,D84*%
X174144708Y-142246133D03*
X171426910Y-141036091D03*
%TD*%
D71*
%TO.C,D320*%
X182617147Y-98521310D03*
D20*
X180917555Y-96633722D03*
%TD*%
D31*
%TO.C,D352*%
X340305933Y-240504931D03*
D20*
X342360836Y-241997906D03*
%TD*%
D92*
%TO.C,D148*%
X179287500Y-177800000D03*
X176312500Y-177800000D03*
%TD*%
D140*
%TO.C,D49*%
X309240058Y-253831417D03*
D20*
X310733033Y-255886320D03*
%TD*%
D117*
%TO.C,D241*%
X313184247Y-158569873D03*
X316013641Y-157650547D03*
%TD*%
D92*
%TO.C,D208*%
X191770000Y-177800000D03*
X188795000Y-177800000D03*
%TD*%
D43*
%TO.C,D282*%
X248845440Y-226842361D03*
X248534468Y-229801063D03*
%TD*%
D125*
%TO.C,D285*%
X264252645Y-226034902D03*
X264871183Y-228944894D03*
%TD*%
D66*
%TO.C,D304*%
X293894650Y-148814840D03*
X296301476Y-147066178D03*
%TD*%
D33*
%TO.C,D205*%
X194815753Y-158569873D03*
X191986359Y-157650547D03*
%TD*%
D62*
%TO.C,D43*%
X254000000Y-271780000D03*
D20*
X254000000Y-274320000D03*
%TD*%
D119*
%TO.C,D251*%
X266938344Y-116929876D03*
X267556882Y-114019884D03*
%TD*%
D48*
%TO.C,D11*%
X340883999Y-127637500D03*
D20*
X343083704Y-126367500D03*
%TD*%
D78*
%TO.C,D262*%
X214105350Y-148814840D03*
X211698524Y-147066178D03*
%TD*%
D94*
%TO.C,D356*%
X358348786Y-199980019D03*
D20*
X360833281Y-200508115D03*
%TD*%
D125*
%TO.C,D165*%
X269533602Y-250879851D03*
X270152140Y-253789843D03*
%TD*%
D36*
%TO.C,D367*%
X316704931Y-91494067D03*
D20*
X318197906Y-89439164D03*
%TD*%
D96*
%TO.C,D346*%
X286965933Y-279258709D03*
D20*
X287750836Y-281674393D03*
%TD*%
D93*
%TO.C,D173*%
X318702923Y-215156250D03*
X321279349Y-216643750D03*
%TD*%
D141*
%TO.C,C10*%
X253270000Y-200660000D03*
D142*
X255270000Y-200660000D03*
%TD*%
D139*
%TO.C,D263*%
X211294122Y-153143750D03*
X208717696Y-151656250D03*
%TD*%
D76*
%TO.C,D223*%
X254000000Y-240030000D03*
X254000000Y-243005000D03*
%TD*%
D135*
%TO.C,D120*%
X339502326Y-159625920D03*
X342412318Y-159007382D03*
%TD*%
D52*
%TO.C,D169*%
X297914905Y-238243682D03*
X299663567Y-240650508D03*
%TD*%
D62*
%TO.C,D343*%
X254000000Y-284480000D03*
D20*
X254000000Y-287020000D03*
%TD*%
D30*
%TO.C,D111*%
X318960147Y-236290379D03*
X321171003Y-238281043D03*
%TD*%
D131*
%TO.C,D34*%
X177968583Y-233040058D03*
D20*
X175913680Y-234533033D03*
%TD*%
D134*
%TO.C,D206*%
X193129876Y-164861656D03*
X190219884Y-164243118D03*
%TD*%
D112*
%TO.C,D355*%
X355458709Y-210765933D03*
D20*
X357874393Y-211550836D03*
%TD*%
D120*
%TO.C,D159*%
X223611689Y-246053265D03*
X222401647Y-248771063D03*
%TD*%
D115*
%TO.C,D118*%
X341412500Y-177800000D03*
X344387500Y-177800000D03*
%TD*%
D105*
%TO.C,D53*%
X335389067Y-224790000D03*
D20*
X337588772Y-226060000D03*
%TD*%
D139*
%TO.C,D83*%
X178298555Y-134093750D03*
X175722129Y-132606250D03*
%TD*%
D85*
%TO.C,D269*%
X204957639Y-182954560D03*
X201998937Y-183265532D03*
%TD*%
D106*
%TO.C,D195*%
X241061656Y-116929876D03*
X240443118Y-114019884D03*
%TD*%
D83*
%TO.C,D330*%
X149651214Y-199980019D03*
D20*
X147166719Y-200508115D03*
%TD*%
D81*
%TO.C,D199*%
X217422124Y-127454873D03*
X215673462Y-125048047D03*
%TD*%
D32*
%TO.C,D80*%
X195509621Y-112839853D03*
X193518957Y-110628997D03*
%TD*%
D132*
%TO.C,D147*%
X179696783Y-169990417D03*
X176738081Y-169679445D03*
%TD*%
D62*
%TO.C,D28*%
X160020000Y-177800000D03*
D20*
X157480000Y-177800000D03*
%TD*%
D77*
%TO.C,D315*%
X231819981Y-73451214D03*
D20*
X231291885Y-70966719D03*
%TD*%
D84*
%TO.C,D201*%
X207754098Y-136160003D03*
X205543242Y-134169339D03*
%TD*%
D54*
%TO.C,D351*%
X333278690Y-249182853D03*
D20*
X335166278Y-250882445D03*
%TD*%
D23*
%TO.C,D3*%
X167116001Y-127637500D03*
D20*
X164916296Y-126367500D03*
%TD*%
D136*
%TO.C,D17*%
X215774890Y-91944998D03*
D20*
X214741779Y-89624593D03*
%TD*%
D119*
%TO.C,D191*%
X269533602Y-104720149D03*
X270152140Y-101810157D03*
%TD*%
D143*
%TO.C,U6*%
X282134613Y-155410580D03*
X281034761Y-156045580D03*
X279934908Y-156680580D03*
X278835056Y-157315580D03*
D144*
X278281443Y-159381693D03*
X278916443Y-160481545D03*
X279551443Y-161581398D03*
X280186443Y-162681250D03*
X280821443Y-163781102D03*
X281456443Y-164880955D03*
X282091443Y-165980807D03*
D143*
X284157556Y-166534420D03*
X285257408Y-165899420D03*
X286357261Y-165264420D03*
X287457113Y-164629420D03*
X288556965Y-163994420D03*
X289656818Y-163359420D03*
X290756670Y-162724420D03*
D144*
X291310283Y-160658307D03*
X290675283Y-159558455D03*
X290040283Y-158458602D03*
X289405283Y-157358750D03*
X288770283Y-156258898D03*
X288135283Y-155159045D03*
X287500283Y-154059193D03*
D143*
X285434170Y-153505580D03*
X284334318Y-154140580D03*
X283234465Y-154775580D03*
%TD*%
D145*
%TO.C,U7*%
X233610000Y-173990000D03*
X233610000Y-175260000D03*
X233610000Y-176530000D03*
X233610000Y-177800000D03*
X233610000Y-179070000D03*
X233610000Y-180340000D03*
X233610000Y-181610000D03*
X233610000Y-182880000D03*
X238760000Y-182880000D03*
X238760000Y-181610000D03*
X238760000Y-180340000D03*
X238760000Y-179070000D03*
X238760000Y-177800000D03*
X238760000Y-176530000D03*
X238760000Y-175260000D03*
X238760000Y-173990000D03*
%TD*%
D139*
%TO.C,D203*%
X200107239Y-146685000D03*
X197530813Y-145197500D03*
%TD*%
D106*
%TO.C,D135*%
X238466398Y-104720149D03*
X237847860Y-101810157D03*
%TD*%
D124*
%TO.C,D133*%
X254000000Y-103087500D03*
X254000000Y-100112500D03*
%TD*%
D58*
%TO.C,D303*%
X296705878Y-153143750D03*
X299282304Y-151656250D03*
%TD*%
D108*
%TO.C,D270*%
X205765098Y-188052645D03*
X202855106Y-188671183D03*
%TD*%
D89*
%TO.C,D344*%
X265151096Y-283895596D03*
D20*
X265416598Y-286421682D03*
%TD*%
D108*
%TO.C,D210*%
X193129876Y-190738344D03*
X190219884Y-191356882D03*
%TD*%
D104*
%TO.C,D354*%
X351457029Y-221190665D03*
D20*
X353777434Y-222223776D03*
%TD*%
D86*
%TO.C,D276*%
X221003497Y-214446329D03*
X219012833Y-216657185D03*
%TD*%
D72*
%TO.C,D33*%
X172610933Y-224790000D03*
D20*
X170411228Y-226060000D03*
%TD*%
D37*
%TO.C,D65*%
X323840751Y-114915106D03*
D20*
X325728339Y-113215514D03*
%TD*%
D115*
%TO.C,D178*%
X328712500Y-177800000D03*
X331687500Y-177800000D03*
%TD*%
D117*
%TO.C,D301*%
X300898974Y-162561600D03*
X303728368Y-161642274D03*
%TD*%
D105*
%TO.C,D353*%
X346387590Y-231140000D03*
D20*
X348587295Y-232410000D03*
%TD*%
D22*
%TO.C,D95*%
X189039853Y-236290379D03*
X186828997Y-238281043D03*
%TD*%
D56*
%TO.C,D305*%
X290646329Y-144803497D03*
X292857185Y-142812833D03*
%TD*%
D22*
%TO.C,D275*%
X217353671Y-210796503D03*
X215142815Y-212787167D03*
%TD*%
D114*
%TO.C,D2*%
X203837500Y-90916001D03*
D20*
X202567500Y-88716296D03*
%TD*%
D98*
%TO.C,D254*%
X248845440Y-128757639D03*
X248534468Y-125798937D03*
%TD*%
D101*
%TO.C,D186*%
X303992420Y-122277792D03*
X305983084Y-120066936D03*
%TD*%
D133*
%TO.C,D29*%
X160534832Y-187623585D03*
D20*
X158008746Y-187889087D03*
%TD*%
D78*
%TO.C,D142*%
X193556318Y-133885095D03*
X191149492Y-132136433D03*
%TD*%
D74*
%TO.C,D114*%
X333855292Y-213353867D03*
X336573090Y-214563909D03*
%TD*%
D33*
%TO.C,D265*%
X207101026Y-162561600D03*
X204271632Y-161642274D03*
%TD*%
D107*
%TO.C,D236*%
X314870124Y-190738344D03*
X317780116Y-191356882D03*
%TD*%
D40*
%TO.C,D299*%
X303042361Y-172645440D03*
X306001063Y-172334468D03*
%TD*%
D130*
%TO.C,D357*%
X360095596Y-188951096D03*
D20*
X362621682Y-189216598D03*
%TD*%
D132*
%TO.C,D207*%
X192110902Y-171295194D03*
X189152200Y-170984222D03*
%TD*%
D91*
%TO.C,D66*%
X316884894Y-107959249D03*
D20*
X318584486Y-106071661D03*
%TD*%
D124*
%TO.C,D73*%
X254000000Y-90387500D03*
X254000000Y-87412500D03*
%TD*%
D29*
%TO.C,D297*%
X303042361Y-182954560D03*
X306001063Y-183265532D03*
%TD*%
D60*
%TO.C,D50*%
X316884894Y-247640751D03*
D20*
X318584486Y-249528339D03*
%TD*%
D87*
%TO.C,D152*%
X185746735Y-208188311D03*
X183028937Y-209398353D03*
%TD*%
D98*
%TO.C,D74*%
X244862906Y-90866355D03*
X244551934Y-87907653D03*
%TD*%
M02*
