%TF.GenerationSoftware,KiCad,Pcbnew,9.0.7-9.0.7~ubuntu24.04.1*%
%TF.CreationDate,2026-01-21T08:03:13-05:00*%
%TF.ProjectId,LED_clock,4c45445f-636c-46f6-936b-2e6b69636164,rev?*%
%TF.SameCoordinates,Original*%
%TF.FileFunction,Copper,L3,Inr*%
%TF.FilePolarity,Positive*%
%FSLAX46Y46*%
G04 Gerber Fmt 4.6, Leading zero omitted, Abs format (unit mm)*
G04 Created by KiCad (PCBNEW 9.0.7-9.0.7~ubuntu24.04.1) date 2026-01-21 08:03:13*
%MOMM*%
%LPD*%
G01*
G04 APERTURE LIST*
G04 Aperture macros list*
%AMRoundRect*
0 Rectangle with rounded corners*
0 $1 Rounding radius*
0 $2 $3 $4 $5 $6 $7 $8 $9 X,Y pos of 4 corners*
0 Add a 4 corners polygon primitive as box body*
4,1,4,$2,$3,$4,$5,$6,$7,$8,$9,$2,$3,0*
0 Add four circle primitives for the rounded corners*
1,1,$1+$1,$2,$3*
1,1,$1+$1,$4,$5*
1,1,$1+$1,$6,$7*
1,1,$1+$1,$8,$9*
0 Add four rect primitives between the rounded corners*
20,1,$1+$1,$2,$3,$4,$5,0*
20,1,$1+$1,$4,$5,$6,$7,0*
20,1,$1+$1,$6,$7,$8,$9,0*
20,1,$1+$1,$8,$9,$2,$3,0*%
%AMRotRect*
0 Rectangle, with rotation*
0 The origin of the aperture is its center*
0 $1 length*
0 $2 width*
0 $3 Rotation angle, in degrees counterclockwise*
0 Add horizontal line*
21,1,$1,$2,0,0,$3*%
G04 Aperture macros list end*
%TA.AperFunction,ComponentPad*%
%ADD10RotRect,1.800000X1.800000X258.000000*%
%TD*%
%TA.AperFunction,ComponentPad*%
%ADD11C,1.800000*%
%TD*%
%TA.AperFunction,ComponentPad*%
%ADD12RotRect,1.800000X1.800000X150.000000*%
%TD*%
%TA.AperFunction,ComponentPad*%
%ADD13RotRect,1.800000X1.800000X294.000000*%
%TD*%
%TA.AperFunction,ComponentPad*%
%ADD14R,1.700000X1.700000*%
%TD*%
%TA.AperFunction,ComponentPad*%
%ADD15C,1.700000*%
%TD*%
%TA.AperFunction,ComponentPad*%
%ADD16RotRect,1.800000X1.800000X324.000000*%
%TD*%
%TA.AperFunction,ComponentPad*%
%ADD17RotRect,1.800000X1.800000X54.000000*%
%TD*%
%TA.AperFunction,ComponentPad*%
%ADD18RotRect,1.800000X1.800000X42.000000*%
%TD*%
%TA.AperFunction,ComponentPad*%
%ADD19RotRect,1.800000X1.800000X78.000000*%
%TD*%
%TA.AperFunction,ComponentPad*%
%ADD20RotRect,1.800000X1.800000X144.000000*%
%TD*%
%TA.AperFunction,ComponentPad*%
%ADD21RotRect,1.800000X1.800000X204.000000*%
%TD*%
%TA.AperFunction,ComponentPad*%
%ADD22RotRect,1.800000X1.800000X30.000000*%
%TD*%
%TA.AperFunction,ComponentPad*%
%ADD23RotRect,1.800000X1.800000X84.000000*%
%TD*%
%TA.AperFunction,ComponentPad*%
%ADD24RotRect,1.800000X1.800000X72.000000*%
%TD*%
%TA.AperFunction,ComponentPad*%
%ADD25RotRect,1.800000X1.800000X318.000000*%
%TD*%
%TA.AperFunction,ComponentPad*%
%ADD26RotRect,1.800000X1.800000X60.000000*%
%TD*%
%TA.AperFunction,ComponentPad*%
%ADD27RotRect,1.800000X1.800000X234.000000*%
%TD*%
%TA.AperFunction,ComponentPad*%
%ADD28RotRect,1.800000X1.800000X108.000000*%
%TD*%
%TA.AperFunction,ComponentPad*%
%ADD29RotRect,1.800000X1.800000X312.000000*%
%TD*%
%TA.AperFunction,ComponentPad*%
%ADD30RotRect,1.800000X1.800000X240.000000*%
%TD*%
%TA.AperFunction,ComponentPad*%
%ADD31R,1.800000X1.800000*%
%TD*%
%TA.AperFunction,ComponentPad*%
%ADD32RotRect,1.800000X1.800000X228.000000*%
%TD*%
%TA.AperFunction,ComponentPad*%
%ADD33RotRect,1.800000X1.800000X252.000000*%
%TD*%
%TA.AperFunction,ComponentPad*%
%ADD34RotRect,1.800000X1.800000X24.000000*%
%TD*%
%TA.AperFunction,ComponentPad*%
%ADD35RotRect,1.800000X1.800000X222.000000*%
%TD*%
%TA.AperFunction,ComponentPad*%
%ADD36RotRect,1.800000X1.800000X132.000000*%
%TD*%
%TA.AperFunction,ComponentPad*%
%ADD37RotRect,1.800000X1.800000X210.000000*%
%TD*%
%TA.AperFunction,ComponentPad*%
%ADD38RotRect,1.800000X1.800000X102.000000*%
%TD*%
%TA.AperFunction,ComponentPad*%
%ADD39RotRect,1.800000X1.800000X138.000000*%
%TD*%
%TA.AperFunction,ComponentPad*%
%ADD40RotRect,1.800000X1.800000X192.000000*%
%TD*%
%TA.AperFunction,ComponentPad*%
%ADD41RotRect,1.800000X1.800000X276.000000*%
%TD*%
%TA.AperFunction,ComponentPad*%
%ADD42RotRect,1.800000X1.800000X48.000000*%
%TD*%
%TA.AperFunction,ComponentPad*%
%ADD43RotRect,1.800000X1.800000X348.000000*%
%TD*%
%TA.AperFunction,ComponentPad*%
%ADD44RotRect,1.800000X1.800000X66.000000*%
%TD*%
%TA.AperFunction,ComponentPad*%
%ADD45RotRect,1.800000X1.800000X288.000000*%
%TD*%
%TA.AperFunction,ComponentPad*%
%ADD46RotRect,1.800000X1.800000X156.000000*%
%TD*%
%TA.AperFunction,ComponentPad*%
%ADD47RotRect,1.800000X1.800000X96.000000*%
%TD*%
%TA.AperFunction,ComponentPad*%
%ADD48RotRect,1.800000X1.800000X246.000000*%
%TD*%
%TA.AperFunction,ComponentPad*%
%ADD49RotRect,1.800000X1.800000X300.000000*%
%TD*%
%TA.AperFunction,ComponentPad*%
%ADD50RotRect,1.800000X1.800000X336.000000*%
%TD*%
%TA.AperFunction,ComponentPad*%
%ADD51RotRect,1.800000X1.800000X330.000000*%
%TD*%
%TA.AperFunction,ComponentPad*%
%ADD52RotRect,1.800000X1.800000X198.000000*%
%TD*%
%TA.AperFunction,ComponentPad*%
%ADD53RotRect,1.800000X1.800000X342.000000*%
%TD*%
%TA.AperFunction,ComponentPad*%
%ADD54RotRect,1.800000X1.800000X264.000000*%
%TD*%
%TA.AperFunction,ComponentPad*%
%ADD55RotRect,1.800000X1.800000X120.000000*%
%TD*%
%TA.AperFunction,ComponentPad*%
%ADD56RotRect,1.800000X1.800000X174.000000*%
%TD*%
%TA.AperFunction,ComponentPad*%
%ADD57RotRect,1.800000X1.800000X36.000000*%
%TD*%
%TA.AperFunction,ComponentPad*%
%ADD58RotRect,1.800000X1.800000X126.000000*%
%TD*%
%TA.AperFunction,ComponentPad*%
%ADD59RotRect,1.800000X1.800000X6.000000*%
%TD*%
%TA.AperFunction,ComponentPad*%
%ADD60RotRect,1.800000X1.800000X168.000000*%
%TD*%
%TA.AperFunction,ComponentPad*%
%ADD61RotRect,1.800000X1.800000X12.000000*%
%TD*%
%TA.AperFunction,ComponentPad*%
%ADD62RotRect,1.800000X1.800000X282.000000*%
%TD*%
%TA.AperFunction,ComponentPad*%
%ADD63RotRect,1.800000X1.800000X354.000000*%
%TD*%
%TA.AperFunction,ComponentPad*%
%ADD64RotRect,1.800000X1.800000X216.000000*%
%TD*%
%TA.AperFunction,ComponentPad*%
%ADD65RotRect,1.800000X1.800000X186.000000*%
%TD*%
%TA.AperFunction,ComponentPad*%
%ADD66RotRect,1.800000X1.800000X114.000000*%
%TD*%
%TA.AperFunction,ComponentPad*%
%ADD67RotRect,1.800000X1.800000X162.000000*%
%TD*%
%TA.AperFunction,ComponentPad*%
%ADD68RotRect,1.800000X1.800000X18.000000*%
%TD*%
%TA.AperFunction,ComponentPad*%
%ADD69RotRect,1.800000X1.800000X306.000000*%
%TD*%
%TA.AperFunction,ComponentPad*%
%ADD70RoundRect,0.250000X-0.550000X-0.550000X0.550000X-0.550000X0.550000X0.550000X-0.550000X0.550000X0*%
%TD*%
%TA.AperFunction,ComponentPad*%
%ADD71C,1.600000*%
%TD*%
G04 APERTURE END LIST*
D10*
%TO.N,/R5_Y3*%
%TO.C,D41*%
X234460459Y-269726312D03*
D11*
%TO.N,/R5_X4*%
X233932363Y-272210807D03*
%TD*%
D12*
%TO.N,/R5_Y1*%
%TO.C,D23*%
X172610933Y-130810000D03*
D11*
%TO.N,/R5_X2*%
X170411228Y-129540000D03*
%TD*%
D13*
%TO.N,/R5_Y4*%
%TO.C,D47*%
X292225110Y-263655002D03*
D11*
%TO.N,/R5_X2*%
X293258221Y-265975407D03*
%TD*%
D14*
%TO.N,VCC*%
%TO.C,J1*%
X264160000Y-194310000D03*
D15*
X264160000Y-191770000D03*
X261620000Y-194310000D03*
%TO.N,GND*%
X261620000Y-191770000D03*
X259080000Y-194310000D03*
%TO.N,Net-(J1-Pin_6)*%
X259080000Y-191770000D03*
%TO.N,Net-(J1-Pin_7)*%
X256540000Y-194310000D03*
%TO.N,Net-(J1-Pin_8)*%
X256540000Y-191770000D03*
%TO.N,Net-(J1-Pin_9)*%
X254000000Y-194310000D03*
%TO.N,GND*%
X254000000Y-191770000D03*
X251460000Y-194310000D03*
%TO.N,Net-(J1-Pin_12)*%
X251460000Y-191770000D03*
%TO.N,Net-(J1-Pin_13)*%
X248920000Y-194310000D03*
%TO.N,Net-(J1-Pin_14)*%
X248920000Y-191770000D03*
%TO.N,Net-(J1-Pin_15)*%
X246380000Y-194310000D03*
%TO.N,Net-(J1-Pin_16)*%
X246380000Y-191770000D03*
%TO.N,/~{WR}*%
X243840000Y-194310000D03*
%TO.N,/A2*%
X243840000Y-191770000D03*
%TO.N,/A1*%
X241300000Y-194310000D03*
%TO.N,/A0*%
X241300000Y-191770000D03*
%TD*%
D16*
%TO.N,/R5_Y4*%
%TO.C,D52*%
X330031417Y-233040058D03*
D11*
%TO.N,/R5_X7*%
X332086320Y-234533033D03*
%TD*%
D17*
%TO.N,/R5_Y6*%
%TO.C,D67*%
X309240058Y-101768583D03*
D11*
%TO.N,/R5_X6*%
X310733033Y-99713680D03*
%TD*%
D18*
%TO.N,/R7_Y6*%
%TO.C,D365*%
X333278690Y-106417147D03*
D11*
%TO.N,/R7_X4*%
X335166278Y-104717555D03*
%TD*%
D19*
%TO.N,/R5_Y7*%
%TO.C,D71*%
X273539541Y-85873688D03*
D11*
%TO.N,/R5_X2*%
X274067637Y-83389193D03*
%TD*%
D20*
%TO.N,/R7_Y1*%
%TO.C,D322*%
X167694067Y-115095069D03*
D11*
%TO.N,/R7_X1*%
X165639164Y-113602094D03*
%TD*%
D21*
%TO.N,/R7_Y2*%
%TO.C,D332*%
X156542971Y-221190665D03*
D11*
%TO.N,/R7_X3*%
X154222566Y-222223776D03*
%TD*%
D22*
%TO.N,/R5_Y6*%
%TO.C,D63*%
X335389067Y-130810000D03*
D11*
%TO.N,/R5_X2*%
X337588772Y-129540000D03*
%TD*%
D23*
%TO.N,/R5_Y7*%
%TO.C,D72*%
X263823585Y-84334832D03*
D11*
%TO.N,/R5_X3*%
X264089087Y-81808746D03*
%TD*%
D24*
%TO.N,/R5_Y7*%
%TO.C,D70*%
X283041417Y-88419709D03*
D11*
%TO.N,/R5_X1*%
X283826320Y-86004025D03*
%TD*%
D25*
%TO.N,/R5_Y4*%
%TO.C,D51*%
X323840751Y-240684894D03*
D11*
%TO.N,/R5_X6*%
X325728339Y-242384486D03*
%TD*%
D26*
%TO.N,/R5_Y6*%
%TO.C,D68*%
X300990000Y-96410933D03*
D11*
%TO.N,/R5_X7*%
X302260000Y-94211228D03*
%TD*%
D27*
%TO.N,/R7_Y3*%
%TO.C,D337*%
X191295069Y-264105933D03*
D11*
%TO.N,/R7_X0*%
X189802094Y-266160836D03*
%TD*%
D28*
%TO.N,/R5_Y0*%
%TO.C,D16*%
X224958583Y-88419709D03*
D11*
%TO.N,/R5_X3*%
X224173680Y-86004025D03*
%TD*%
D29*
%TO.N,/R7_Y4*%
%TO.C,D350*%
X325382853Y-257078690D03*
D11*
%TO.N,/R7_X5*%
X327082445Y-258966278D03*
%TD*%
D30*
%TO.N,/R5_Y3*%
%TO.C,D38*%
X207010000Y-259189067D03*
D11*
%TO.N,/R5_X1*%
X205740000Y-261388772D03*
%TD*%
D31*
%TO.N,/R5_X6*%
%TO.C,D7*%
X254000000Y-278125000D03*
D11*
%TO.N,/R5_Y6*%
X254000000Y-280665000D03*
%TD*%
D31*
%TO.N,/R7_Y5*%
%TO.C,D358*%
X360680000Y-177800000D03*
D11*
%TO.N,/R7_X5*%
X363220000Y-177800000D03*
%TD*%
D32*
%TO.N,/R5_Y2*%
%TO.C,D36*%
X191115106Y-247640751D03*
D11*
%TO.N,/R5_X7*%
X189415514Y-249528339D03*
%TD*%
D33*
%TO.N,/R5_Y3*%
%TO.C,D40*%
X224958583Y-267180291D03*
D11*
%TO.N,/R5_X3*%
X224173680Y-269595975D03*
%TD*%
D26*
%TO.N,/R7_Y6*%
%TO.C,D368*%
X307340000Y-85412410D03*
D11*
%TO.N,/R7_X7*%
X308610000Y-83212705D03*
%TD*%
D34*
%TO.N,/R5_Y6*%
%TO.C,D62*%
X339855002Y-139574890D03*
D11*
%TO.N,/R5_X1*%
X342175407Y-138541779D03*
%TD*%
D24*
%TO.N,/R7_Y7*%
%TO.C,D370*%
X286965933Y-76341291D03*
D11*
%TO.N,/R7_X1*%
X287750836Y-73925607D03*
%TD*%
D35*
%TO.N,/R7_Y2*%
%TO.C,D335*%
X174721310Y-249182853D03*
D11*
%TO.N,/R7_X6*%
X172833722Y-250882445D03*
%TD*%
D36*
%TO.N,/R5_Y0*%
%TO.C,D20*%
X191115106Y-107959249D03*
D11*
%TO.N,/R5_X7*%
X189415514Y-106071661D03*
%TD*%
D37*
%TO.N,/R5_X4*%
%TO.C,D5*%
X167116001Y-227962500D03*
D11*
%TO.N,/R5_Y6*%
X164916296Y-229232500D03*
%TD*%
D12*
%TO.N,/R7_Y1*%
%TO.C,D323*%
X161612410Y-124460000D03*
D11*
%TO.N,/R7_X2*%
X159412705Y-123190000D03*
%TD*%
D38*
%TO.N,/R5_Y0*%
%TO.C,D15*%
X234460459Y-85873688D03*
D11*
%TO.N,/R5_X2*%
X233932363Y-83389193D03*
%TD*%
D34*
%TO.N,/R7_Y6*%
%TO.C,D362*%
X351457029Y-134409335D03*
D11*
%TO.N,/R7_X1*%
X353777434Y-133376224D03*
%TD*%
D39*
%TO.N,/R5_Y1*%
%TO.C,D21*%
X184159249Y-114915106D03*
D11*
%TO.N,/R5_X0*%
X182271661Y-113215514D03*
%TD*%
D40*
%TO.N,/R5_Y2*%
%TO.C,D30*%
X162073688Y-197339541D03*
D11*
%TO.N,/R5_X1*%
X159589193Y-197867637D03*
%TD*%
D41*
%TO.N,/R5_Y3*%
%TO.C,D44*%
X263823585Y-271265168D03*
D11*
%TO.N,/R5_X7*%
X264089087Y-273791254D03*
%TD*%
D42*
%TO.N,/R7_Y6*%
%TO.C,D366*%
X325382853Y-98521310D03*
D11*
%TO.N,/R7_X5*%
X327082445Y-96633722D03*
%TD*%
D43*
%TO.N,/R5_Y5*%
%TO.C,D56*%
X345926312Y-197339541D03*
D11*
%TO.N,/R5_X3*%
X348410807Y-197867637D03*
%TD*%
D44*
%TO.N,/R5_Y7*%
%TO.C,D69*%
X292225110Y-91944998D03*
D11*
%TO.N,/R5_X0*%
X293258221Y-89624593D03*
%TD*%
D45*
%TO.N,/R5_Y4*%
%TO.C,D46*%
X283041417Y-267180291D03*
D11*
%TO.N,/R5_X1*%
X283826320Y-269595975D03*
%TD*%
D46*
%TO.N,/R7_Y1*%
%TO.C,D324*%
X156542971Y-134409335D03*
D11*
%TO.N,/R7_X3*%
X154222566Y-133376224D03*
%TD*%
D47*
%TO.N,/R7_Y0*%
%TO.C,D314*%
X242848904Y-71704404D03*
D11*
%TO.N,/R7_X1*%
X242583402Y-69178318D03*
%TD*%
D32*
%TO.N,/R7_Y2*%
%TO.C,D336*%
X182617147Y-257078690D03*
D11*
%TO.N,/R7_X7*%
X180917555Y-258966278D03*
%TD*%
D48*
%TO.N,/R5_Y3*%
%TO.C,D39*%
X215774890Y-263655002D03*
D11*
%TO.N,/R5_X2*%
X214741779Y-265975407D03*
%TD*%
D49*
%TO.N,/R5_Y4*%
%TO.C,D48*%
X300990000Y-259189067D03*
D11*
%TO.N,/R5_X3*%
X302260000Y-261388772D03*
%TD*%
D50*
%TO.N,/R5_Y5*%
%TO.C,D54*%
X339855002Y-216025110D03*
D11*
%TO.N,/R5_X1*%
X342175407Y-217058221D03*
%TD*%
D33*
%TO.N,/R7_Y3*%
%TO.C,D340*%
X221034067Y-279258709D03*
D11*
%TO.N,/R7_X3*%
X220249164Y-281674393D03*
%TD*%
D51*
%TO.N,/R4_X4*%
%TO.C,D9*%
X340883999Y-227962500D03*
D11*
%TO.N,/R4_Y6*%
X343083704Y-229232500D03*
%TD*%
D31*
%TO.N,/R5_Y5*%
%TO.C,D58*%
X347980000Y-177800000D03*
D11*
%TO.N,/R5_X5*%
X350520000Y-177800000D03*
%TD*%
D28*
%TO.N,/R7_Y0*%
%TO.C,D316*%
X221034067Y-76341291D03*
D11*
%TO.N,/R7_X3*%
X220249164Y-73925607D03*
%TD*%
D31*
%TO.N,/R7_Y1*%
%TO.C,D328*%
X147320000Y-177800000D03*
D11*
%TO.N,/R7_X7*%
X144780000Y-177800000D03*
%TD*%
D48*
%TO.N,/R7_Y3*%
%TO.C,D339*%
X210609335Y-275257029D03*
D11*
%TO.N,/R7_X2*%
X209576224Y-277577434D03*
%TD*%
D52*
%TO.N,/R5_Y2*%
%TO.C,D31*%
X164619709Y-206841417D03*
D11*
%TO.N,/R5_X2*%
X162204025Y-207626320D03*
%TD*%
D30*
%TO.N,/R7_Y3*%
%TO.C,D338*%
X200660000Y-270187590D03*
D11*
%TO.N,/R7_X1*%
X199390000Y-272387295D03*
%TD*%
D53*
%TO.N,/R5_Y5*%
%TO.C,D55*%
X343380291Y-206841417D03*
D11*
%TO.N,/R5_X2*%
X345795975Y-207626320D03*
%TD*%
D54*
%TO.N,/R5_Y3*%
%TO.C,D42*%
X244176415Y-271265168D03*
D11*
%TO.N,/R5_X5*%
X243910913Y-273791254D03*
%TD*%
D55*
%TO.N,/R7_Y0*%
%TO.C,D318*%
X200660000Y-85412410D03*
D11*
%TO.N,/R7_X5*%
X199390000Y-83212705D03*
%TD*%
D56*
%TO.N,/R5_Y1*%
%TO.C,D27*%
X160534832Y-167976415D03*
D11*
%TO.N,/R5_X6*%
X158008746Y-167710913D03*
%TD*%
D44*
%TO.N,/R7_Y7*%
%TO.C,D369*%
X297390665Y-80342971D03*
D11*
%TO.N,/R7_X0*%
X298423776Y-78022566D03*
%TD*%
D49*
%TO.N,/R7_Y4*%
%TO.C,D348*%
X307340000Y-270187590D03*
D11*
%TO.N,/R7_X3*%
X308610000Y-272387295D03*
%TD*%
D57*
%TO.N,/R7_Y6*%
%TO.C,D364*%
X340305933Y-115095069D03*
D11*
%TO.N,/R7_X3*%
X342360836Y-113602094D03*
%TD*%
D19*
%TO.N,/R7_Y7*%
%TO.C,D371*%
X276180019Y-73451214D03*
D11*
%TO.N,/R7_X2*%
X276708115Y-70966719D03*
%TD*%
D58*
%TO.N,/R5_Y0*%
%TO.C,D19*%
X198759942Y-101768583D03*
D11*
%TO.N,/R5_X6*%
X197266967Y-99713680D03*
%TD*%
D59*
%TO.N,/R7_Y5*%
%TO.C,D359*%
X360095596Y-166648904D03*
D11*
%TO.N,/R7_X6*%
X362621682Y-166383402D03*
%TD*%
D59*
%TO.N,/R5_Y5*%
%TO.C,D59*%
X347465168Y-167976415D03*
D11*
%TO.N,/R5_X6*%
X349991254Y-167710913D03*
%TD*%
D57*
%TO.N,/R5_Y6*%
%TO.C,D64*%
X330031417Y-122559942D03*
D11*
%TO.N,/R5_X3*%
X332086320Y-121066967D03*
%TD*%
D31*
%TO.N,/R5_Y0*%
%TO.C,D13*%
X254000000Y-83820000D03*
D11*
%TO.N,/R5_X0*%
X254000000Y-81280000D03*
%TD*%
D52*
%TO.N,/R7_Y2*%
%TO.C,D331*%
X152541291Y-210765933D03*
D11*
%TO.N,/R7_X2*%
X150125607Y-211550836D03*
%TD*%
D39*
%TO.N,/R7_Y1*%
%TO.C,D321*%
X174721310Y-106417147D03*
D11*
%TO.N,/R7_X0*%
X172833722Y-104717555D03*
%TD*%
D27*
%TO.N,/R5_Y3*%
%TO.C,D37*%
X198759942Y-253831417D03*
D11*
%TO.N,/R5_X0*%
X197266967Y-255886320D03*
%TD*%
D21*
%TO.N,/R5_Y2*%
%TO.C,D32*%
X168144998Y-216025110D03*
D11*
%TO.N,/R5_X3*%
X165824593Y-217058221D03*
%TD*%
D60*
%TO.N,/R5_Y1*%
%TO.C,D26*%
X162073688Y-158260459D03*
D11*
%TO.N,/R5_X5*%
X159589193Y-157732363D03*
%TD*%
D20*
%TO.N,/R5_Y1*%
%TO.C,D22*%
X177968583Y-122559942D03*
D11*
%TO.N,/R5_X1*%
X175913680Y-121066967D03*
%TD*%
D61*
%TO.N,/R7_Y5*%
%TO.C,D360*%
X358348786Y-155619981D03*
D11*
%TO.N,/R7_X7*%
X360833281Y-155091885D03*
%TD*%
D62*
%TO.N,/R5_Y4*%
%TO.C,D45*%
X273539541Y-269726312D03*
D11*
%TO.N,/R5_X0*%
X274067637Y-272210807D03*
%TD*%
D31*
%TO.N,/R7_X7*%
%TO.C,D4*%
X153675000Y-177800000D03*
D11*
%TO.N,/R7_Y6*%
X151135000Y-177800000D03*
%TD*%
D46*
%TO.N,/R5_Y1*%
%TO.C,D24*%
X168144998Y-139574890D03*
D11*
%TO.N,/R5_X3*%
X165824593Y-138541779D03*
%TD*%
D23*
%TO.N,/R7_Y7*%
%TO.C,D372*%
X265151096Y-71704404D03*
D11*
%TO.N,/R7_X3*%
X265416598Y-69178318D03*
%TD*%
D62*
%TO.N,/R7_Y4*%
%TO.C,D345*%
X276180019Y-282148786D03*
D11*
%TO.N,/R7_X0*%
X276708115Y-284633281D03*
%TD*%
D63*
%TO.N,/R5_Y5*%
%TO.C,D57*%
X347465168Y-187623585D03*
D11*
%TO.N,/R5_X4*%
X349991254Y-187889087D03*
%TD*%
D64*
%TO.N,/R7_Y2*%
%TO.C,D334*%
X167694067Y-240504931D03*
D11*
%TO.N,/R7_X5*%
X165639164Y-241997906D03*
%TD*%
D31*
%TO.N,/R4_X5*%
%TO.C,D10*%
X354325000Y-177800000D03*
D11*
%TO.N,/R4_Y6*%
X356865000Y-177800000D03*
%TD*%
D49*
%TO.N,/R5_X7*%
%TO.C,D8*%
X304162500Y-264683999D03*
D11*
%TO.N,/R5_Y6*%
X305432500Y-266883704D03*
%TD*%
D65*
%TO.N,/R7_Y2*%
%TO.C,D329*%
X147904404Y-188951096D03*
D11*
%TO.N,/R7_X0*%
X145378318Y-189216598D03*
%TD*%
D26*
%TO.N,/R4_X7*%
%TO.C,D12*%
X304162500Y-90916001D03*
D11*
%TO.N,/R4_Y6*%
X305432500Y-88716296D03*
%TD*%
D54*
%TO.N,/R7_Y3*%
%TO.C,D342*%
X242848904Y-283895596D03*
D11*
%TO.N,/R7_X5*%
X242583402Y-286421682D03*
%TD*%
D58*
%TO.N,/R7_Y0*%
%TO.C,D319*%
X191295069Y-91494067D03*
D11*
%TO.N,/R7_X6*%
X189802094Y-89439164D03*
%TD*%
D66*
%TO.N,/R7_Y0*%
%TO.C,D317*%
X210609335Y-80342971D03*
D11*
%TO.N,/R7_X4*%
X209576224Y-78022566D03*
%TD*%
D30*
%TO.N,/R5_X5*%
%TO.C,D6*%
X203837500Y-264683999D03*
D11*
%TO.N,/R5_Y6*%
X202567500Y-266883704D03*
%TD*%
D67*
%TO.N,/R7_Y1*%
%TO.C,D325*%
X152541291Y-144834067D03*
D11*
%TO.N,/R7_X4*%
X150125607Y-144049164D03*
%TD*%
D68*
%TO.N,/R7_Y6*%
%TO.C,D361*%
X355458709Y-144834067D03*
D11*
%TO.N,/R7_X0*%
X357874393Y-144049164D03*
%TD*%
D61*
%TO.N,/R5_Y5*%
%TO.C,D60*%
X345926312Y-158260459D03*
D11*
%TO.N,/R5_X7*%
X348410807Y-157732363D03*
%TD*%
D31*
%TO.N,/R7_Y0*%
%TO.C,D313*%
X254000000Y-71120000D03*
D11*
%TO.N,/R7_X0*%
X254000000Y-68580000D03*
%TD*%
D69*
%TO.N,/R7_Y4*%
%TO.C,D349*%
X316704931Y-264105933D03*
D11*
%TO.N,/R7_X4*%
X318197906Y-266160836D03*
%TD*%
D67*
%TO.N,/R5_Y1*%
%TO.C,D25*%
X164619709Y-148758583D03*
D11*
%TO.N,/R5_X4*%
X162204025Y-147973680D03*
%TD*%
D56*
%TO.N,/R7_Y1*%
%TO.C,D327*%
X147904404Y-166648904D03*
D11*
%TO.N,/R7_X6*%
X145378318Y-166383402D03*
%TD*%
D47*
%TO.N,/R5_Y0*%
%TO.C,D14*%
X244176415Y-84334832D03*
D11*
%TO.N,/R5_X1*%
X243910913Y-81808746D03*
%TD*%
D37*
%TO.N,/R7_Y2*%
%TO.C,D333*%
X161612410Y-231140000D03*
D11*
%TO.N,/R7_X4*%
X159412705Y-232410000D03*
%TD*%
D13*
%TO.N,/R7_Y4*%
%TO.C,D347*%
X297390665Y-275257029D03*
D11*
%TO.N,/R7_X2*%
X298423776Y-277577434D03*
%TD*%
D68*
%TO.N,/R5_Y6*%
%TO.C,D61*%
X343380291Y-148758583D03*
D11*
%TO.N,/R5_X0*%
X345795975Y-147973680D03*
%TD*%
D31*
%TO.N,/R7_X4*%
%TO.C,D1*%
X254000000Y-77475000D03*
D11*
%TO.N,/R7_Y6*%
X254000000Y-74935000D03*
%TD*%
D60*
%TO.N,/R7_Y1*%
%TO.C,D326*%
X149651214Y-155619981D03*
D11*
%TO.N,/R7_X5*%
X147166719Y-155091885D03*
%TD*%
D55*
%TO.N,/R5_Y0*%
%TO.C,D18*%
X207010000Y-96410933D03*
D11*
%TO.N,/R5_X5*%
X205740000Y-94211228D03*
%TD*%
D10*
%TO.N,/R7_Y3*%
%TO.C,D341*%
X231819981Y-282148786D03*
D11*
%TO.N,/R7_X4*%
X231291885Y-284633281D03*
%TD*%
D22*
%TO.N,/R7_Y6*%
%TO.C,D363*%
X346387590Y-124460000D03*
D11*
%TO.N,/R7_X2*%
X348587295Y-123190000D03*
%TD*%
D35*
%TO.N,/R5_Y2*%
%TO.C,D35*%
X184159249Y-240684894D03*
D11*
%TO.N,/R5_X6*%
X182271661Y-242384486D03*
%TD*%
D36*
%TO.N,/R7_Y0*%
%TO.C,D320*%
X182617147Y-98521310D03*
D11*
%TO.N,/R7_X7*%
X180917555Y-96633722D03*
%TD*%
D16*
%TO.N,/R7_Y4*%
%TO.C,D352*%
X340305933Y-240504931D03*
D11*
%TO.N,/R7_X7*%
X342360836Y-241997906D03*
%TD*%
D69*
%TO.N,/R5_Y4*%
%TO.C,D49*%
X309240058Y-253831417D03*
D11*
%TO.N,/R5_X4*%
X310733033Y-255886320D03*
%TD*%
D31*
%TO.N,/R5_Y3*%
%TO.C,D43*%
X254000000Y-271780000D03*
D11*
%TO.N,/R5_X6*%
X254000000Y-274320000D03*
%TD*%
D22*
%TO.N,/R4_X6*%
%TO.C,D11*%
X340883999Y-127637500D03*
D11*
%TO.N,/R4_Y6*%
X343083704Y-126367500D03*
%TD*%
D43*
%TO.N,/R7_Y5*%
%TO.C,D356*%
X358348786Y-199980019D03*
D11*
%TO.N,/R7_X3*%
X360833281Y-200508115D03*
%TD*%
D17*
%TO.N,/R7_Y6*%
%TO.C,D367*%
X316704931Y-91494067D03*
D11*
%TO.N,/R7_X6*%
X318197906Y-89439164D03*
%TD*%
D45*
%TO.N,/R7_Y4*%
%TO.C,D346*%
X286965933Y-279258709D03*
D11*
%TO.N,/R7_X1*%
X287750836Y-281674393D03*
%TD*%
D70*
%TO.N,VCC*%
%TO.C,C10*%
X253270000Y-200660000D03*
D71*
%TO.N,GND*%
X255270000Y-200660000D03*
%TD*%
D31*
%TO.N,/R7_Y3*%
%TO.C,D343*%
X254000000Y-284480000D03*
D11*
%TO.N,/R7_X6*%
X254000000Y-287020000D03*
%TD*%
D64*
%TO.N,/R5_Y2*%
%TO.C,D34*%
X177968583Y-233040058D03*
D11*
%TO.N,/R5_X5*%
X175913680Y-234533033D03*
%TD*%
D53*
%TO.N,/R7_Y5*%
%TO.C,D355*%
X355458709Y-210765933D03*
D11*
%TO.N,/R7_X2*%
X357874393Y-211550836D03*
%TD*%
D51*
%TO.N,/R5_Y5*%
%TO.C,D53*%
X335389067Y-224790000D03*
D11*
%TO.N,/R5_X0*%
X337588772Y-226060000D03*
%TD*%
D40*
%TO.N,/R7_Y2*%
%TO.C,D330*%
X149651214Y-199980019D03*
D11*
%TO.N,/R7_X1*%
X147166719Y-200508115D03*
%TD*%
D31*
%TO.N,/R5_Y1*%
%TO.C,D28*%
X160020000Y-177800000D03*
D11*
%TO.N,/R5_X7*%
X157480000Y-177800000D03*
%TD*%
D38*
%TO.N,/R7_Y0*%
%TO.C,D315*%
X231819981Y-73451214D03*
D11*
%TO.N,/R7_X2*%
X231291885Y-70966719D03*
%TD*%
D25*
%TO.N,/R7_Y4*%
%TO.C,D351*%
X333278690Y-249182853D03*
D11*
%TO.N,/R7_X6*%
X335166278Y-250882445D03*
%TD*%
D12*
%TO.N,/R7_X6*%
%TO.C,D3*%
X167116001Y-127637500D03*
D11*
%TO.N,/R7_Y6*%
X164916296Y-126367500D03*
%TD*%
D66*
%TO.N,/R5_Y0*%
%TO.C,D17*%
X215774890Y-91944998D03*
D11*
%TO.N,/R5_X4*%
X214741779Y-89624593D03*
%TD*%
D41*
%TO.N,/R7_Y3*%
%TO.C,D344*%
X265151096Y-283895596D03*
D11*
%TO.N,/R7_X7*%
X265416598Y-286421682D03*
%TD*%
D50*
%TO.N,/R7_Y5*%
%TO.C,D354*%
X351457029Y-221190665D03*
D11*
%TO.N,/R7_X1*%
X353777434Y-222223776D03*
%TD*%
D37*
%TO.N,/R5_Y2*%
%TO.C,D33*%
X172610933Y-224790000D03*
D11*
%TO.N,/R5_X4*%
X170411228Y-226060000D03*
%TD*%
D18*
%TO.N,/R5_Y6*%
%TO.C,D65*%
X323840751Y-114915106D03*
D11*
%TO.N,/R5_X4*%
X325728339Y-113215514D03*
%TD*%
D51*
%TO.N,/R7_Y5*%
%TO.C,D353*%
X346387590Y-231140000D03*
D11*
%TO.N,/R7_X0*%
X348587295Y-232410000D03*
%TD*%
D55*
%TO.N,/R7_X5*%
%TO.C,D2*%
X203837500Y-90916001D03*
D11*
%TO.N,/R7_Y6*%
X202567500Y-88716296D03*
%TD*%
D65*
%TO.N,/R5_Y2*%
%TO.C,D29*%
X160534832Y-187623585D03*
D11*
%TO.N,/R5_X0*%
X158008746Y-187889087D03*
%TD*%
D63*
%TO.N,/R7_Y5*%
%TO.C,D357*%
X360095596Y-188951096D03*
D11*
%TO.N,/R7_X4*%
X362621682Y-189216598D03*
%TD*%
D42*
%TO.N,/R5_Y6*%
%TO.C,D66*%
X316884894Y-107959249D03*
D11*
%TO.N,/R5_X5*%
X318584486Y-106071661D03*
%TD*%
D29*
%TO.N,/R5_Y4*%
%TO.C,D50*%
X316884894Y-247640751D03*
D11*
%TO.N,/R5_X5*%
X318584486Y-249528339D03*
%TD*%
M02*
