M48
; DRILL file {KiCad 9.0.7-9.0.7~ubuntu24.04.1} date 2026-01-21T08:03:16-0500
; FORMAT={-:-/ absolute / metric / decimal}
; #@! TF.CreationDate,2026-01-21T08:03:16-05:00
; #@! TF.GenerationSoftware,Kicad,Pcbnew,9.0.7-9.0.7~ubuntu24.04.1
; #@! TF.FileFunction,Plated,1,4,PTH
FMAT,2
METRIC
; #@! TA.AperFunction,Plated,PTH,ComponentDrill
T1C0.800
; #@! TA.AperFunction,Plated,PTH,ComponentDrill
T2C0.900
; #@! TA.AperFunction,Plated,PTH,ComponentDrill
T3C1.000
%
G90
G05
T1
X253.27Y-200.66
X255.27Y-200.66
T2
X144.78Y-177.8
X145.378Y-166.383
X145.378Y-189.217
X147.167Y-155.092
X147.167Y-200.508
X147.32Y-177.8
X147.904Y-166.649
X147.904Y-188.951
X149.651Y-155.62
X149.651Y-199.98
X150.126Y-144.049
X150.126Y-211.551
X151.135Y-177.8
X152.541Y-144.834
X152.541Y-210.766
X153.675Y-177.8
X154.223Y-133.376
X154.223Y-222.224
X156.543Y-134.409
X156.543Y-221.191
X157.48Y-177.8
X158.009Y-167.711
X158.009Y-187.889
X159.413Y-123.19
X159.413Y-232.41
X159.589Y-157.732
X159.589Y-197.868
X160.02Y-177.8
X160.535Y-167.976
X160.535Y-187.624
X161.612Y-124.46
X161.612Y-231.14
X162.074Y-158.26
X162.074Y-197.34
X162.204Y-147.974
X162.204Y-207.626
X164.62Y-148.759
X164.62Y-206.841
X164.916Y-126.367
X164.916Y-229.232
X165.639Y-113.602
X165.639Y-241.998
X165.825Y-138.542
X165.825Y-217.058
X167.116Y-127.637
X167.116Y-227.962
X167.694Y-115.095
X167.694Y-240.505
X168.145Y-139.575
X168.145Y-216.025
X170.411Y-129.54
X170.411Y-226.06
X172.611Y-130.81
X172.611Y-224.79
X172.834Y-104.718
X172.834Y-250.882
X174.721Y-106.417
X174.721Y-249.183
X175.914Y-121.067
X175.914Y-234.533
X177.969Y-122.56
X177.969Y-233.04
X180.918Y-96.634
X180.918Y-258.966
X182.272Y-113.216
X182.272Y-242.384
X182.617Y-98.521
X182.617Y-257.079
X184.159Y-114.915
X184.159Y-240.685
X189.416Y-106.072
X189.416Y-249.528
X189.802Y-89.439
X189.802Y-266.161
X191.115Y-107.959
X191.115Y-247.641
X191.295Y-91.494
X191.295Y-264.106
X197.267Y-99.714
X197.267Y-255.886
X198.76Y-101.769
X198.76Y-253.831
X199.39Y-83.213
X199.39Y-272.387
X200.66Y-85.412
X200.66Y-270.188
X202.567Y-88.716
X202.567Y-266.884
X203.837Y-90.916
X203.837Y-264.684
X205.74Y-94.211
X205.74Y-261.389
X207.01Y-96.411
X207.01Y-259.189
X209.576Y-78.023
X209.576Y-277.577
X210.609Y-80.343
X210.609Y-275.257
X214.742Y-89.625
X214.742Y-265.975
X215.775Y-91.945
X215.775Y-263.655
X220.249Y-73.926
X220.249Y-281.674
X221.034Y-76.341
X221.034Y-279.259
X224.174Y-86.004
X224.174Y-269.596
X224.959Y-88.42
X224.959Y-267.18
X231.292Y-70.967
X231.292Y-284.633
X231.82Y-73.451
X231.82Y-282.149
X233.932Y-83.389
X233.932Y-272.211
X234.46Y-85.874
X234.46Y-269.726
X242.583Y-69.178
X242.583Y-286.422
X242.849Y-71.704
X242.849Y-283.896
X243.911Y-81.809
X243.911Y-273.791
X244.176Y-84.335
X244.176Y-271.265
X254.0Y-68.58
X254.0Y-71.12
X254.0Y-74.935
X254.0Y-77.475
X254.0Y-81.28
X254.0Y-83.82
X254.0Y-271.78
X254.0Y-274.32
X254.0Y-278.125
X254.0Y-280.665
X254.0Y-284.48
X254.0Y-287.02
X263.824Y-84.335
X263.824Y-271.265
X264.089Y-81.809
X264.089Y-273.791
X265.151Y-71.704
X265.151Y-283.896
X265.417Y-69.178
X265.417Y-286.422
X273.54Y-85.874
X273.54Y-269.726
X274.068Y-83.389
X274.068Y-272.211
X276.18Y-73.451
X276.18Y-282.149
X276.708Y-70.967
X276.708Y-284.633
X283.041Y-88.42
X283.041Y-267.18
X283.826Y-86.004
X283.826Y-269.596
X286.966Y-76.341
X286.966Y-279.259
X287.751Y-73.926
X287.751Y-281.674
X292.225Y-91.945
X292.225Y-263.655
X293.258Y-89.625
X293.258Y-265.975
X297.391Y-80.343
X297.391Y-275.257
X298.424Y-78.023
X298.424Y-277.577
X300.99Y-96.411
X300.99Y-259.189
X302.26Y-94.211
X302.26Y-261.389
X304.162Y-90.916
X304.162Y-264.684
X305.433Y-88.716
X305.433Y-266.884
X307.34Y-85.412
X307.34Y-270.188
X308.61Y-83.213
X308.61Y-272.387
X309.24Y-101.769
X309.24Y-253.831
X310.733Y-99.714
X310.733Y-255.886
X316.705Y-91.494
X316.705Y-264.106
X316.885Y-107.959
X316.885Y-247.641
X318.198Y-89.439
X318.198Y-266.161
X318.584Y-106.072
X318.584Y-249.528
X323.841Y-114.915
X323.841Y-240.685
X325.383Y-98.521
X325.383Y-257.079
X325.728Y-113.216
X325.728Y-242.384
X327.082Y-96.634
X327.082Y-258.966
X330.031Y-122.56
X330.031Y-233.04
X332.086Y-121.067
X332.086Y-234.533
X333.279Y-106.417
X333.279Y-249.183
X335.166Y-104.718
X335.166Y-250.882
X335.389Y-130.81
X335.389Y-224.79
X337.589Y-129.54
X337.589Y-226.06
X339.855Y-139.575
X339.855Y-216.025
X340.306Y-115.095
X340.306Y-240.505
X340.884Y-127.637
X340.884Y-227.962
X342.175Y-138.542
X342.175Y-217.058
X342.361Y-113.602
X342.361Y-241.998
X343.084Y-126.367
X343.084Y-229.232
X343.38Y-148.759
X343.38Y-206.841
X345.796Y-147.974
X345.796Y-207.626
X345.926Y-158.26
X345.926Y-197.34
X346.388Y-124.46
X346.388Y-231.14
X347.465Y-167.976
X347.465Y-187.624
X347.98Y-177.8
X348.411Y-157.732
X348.411Y-197.868
X348.587Y-123.19
X348.587Y-232.41
X349.991Y-167.711
X349.991Y-187.889
X350.52Y-177.8
X351.457Y-134.409
X351.457Y-221.191
X353.777Y-133.376
X353.777Y-222.224
X354.325Y-177.8
X355.459Y-144.834
X355.459Y-210.766
X356.865Y-177.8
X357.874Y-144.049
X357.874Y-211.551
X358.349Y-155.62
X358.349Y-199.98
X360.096Y-166.649
X360.096Y-188.951
X360.68Y-177.8
X360.833Y-155.092
X360.833Y-200.508
X362.622Y-166.383
X362.622Y-189.217
X363.22Y-177.8
T3
X241.3Y-191.77
X241.3Y-194.31
X243.84Y-191.77
X243.84Y-194.31
X246.38Y-191.77
X246.38Y-194.31
X248.92Y-191.77
X248.92Y-194.31
X251.46Y-191.77
X251.46Y-194.31
X254.0Y-191.77
X254.0Y-194.31
X256.54Y-191.77
X256.54Y-194.31
X259.08Y-191.77
X259.08Y-194.31
X261.62Y-191.77
X261.62Y-194.31
X264.16Y-191.77
X264.16Y-194.31
M30
