%TF.GenerationSoftware,KiCad,Pcbnew,9.0.7-9.0.7~ubuntu24.04.1*%
%TF.CreationDate,2026-02-13T13:47:40-05:00*%
%TF.ProjectId,ControlPanelRTC,436f6e74-726f-46c5-9061-6e656c525443,rev?*%
%TF.SameCoordinates,Original*%
%TF.FileFunction,Copper,L1,Top*%
%TF.FilePolarity,Positive*%
%FSLAX46Y46*%
G04 Gerber Fmt 4.6, Leading zero omitted, Abs format (unit mm)*
G04 Created by KiCad (PCBNEW 9.0.7-9.0.7~ubuntu24.04.1) date 2026-02-13 13:47:40*
%MOMM*%
%LPD*%
G01*
G04 APERTURE LIST*
G04 Aperture macros list*
%AMRoundRect*
0 Rectangle with rounded corners*
0 $1 Rounding radius*
0 $2 $3 $4 $5 $6 $7 $8 $9 X,Y pos of 4 corners*
0 Add a 4 corners polygon primitive as box body*
4,1,4,$2,$3,$4,$5,$6,$7,$8,$9,$2,$3,0*
0 Add four circle primitives for the rounded corners*
1,1,$1+$1,$2,$3*
1,1,$1+$1,$4,$5*
1,1,$1+$1,$6,$7*
1,1,$1+$1,$8,$9*
0 Add four rect primitives between the rounded corners*
20,1,$1+$1,$2,$3,$4,$5,0*
20,1,$1+$1,$4,$5,$6,$7,0*
20,1,$1+$1,$6,$7,$8,$9,0*
20,1,$1+$1,$8,$9,$2,$3,0*%
G04 Aperture macros list end*
%TA.AperFunction,ComponentPad*%
%ADD10C,6.858000*%
%TD*%
%TA.AperFunction,ComponentPad*%
%ADD11R,3.000000X3.000000*%
%TD*%
%TA.AperFunction,ComponentPad*%
%ADD12C,3.000000*%
%TD*%
%TA.AperFunction,ComponentPad*%
%ADD13C,0.762000*%
%TD*%
%TA.AperFunction,ComponentPad*%
%ADD14R,1.800000X1.800000*%
%TD*%
%TA.AperFunction,ComponentPad*%
%ADD15C,1.800000*%
%TD*%
%TA.AperFunction,SMDPad,CuDef*%
%ADD16RoundRect,0.250000X0.312500X0.625000X-0.312500X0.625000X-0.312500X-0.625000X0.312500X-0.625000X0*%
%TD*%
%TA.AperFunction,ComponentPad*%
%ADD17R,1.600000X1.600000*%
%TD*%
%TA.AperFunction,ComponentPad*%
%ADD18O,1.600000X1.600000*%
%TD*%
%TA.AperFunction,ComponentPad*%
%ADD19C,1.905000*%
%TD*%
%TA.AperFunction,ComponentPad*%
%ADD20R,1.700000X1.700000*%
%TD*%
%TA.AperFunction,ComponentPad*%
%ADD21C,1.700000*%
%TD*%
%TA.AperFunction,ViaPad*%
%ADD22C,0.600000*%
%TD*%
%TA.AperFunction,Conductor*%
%ADD23C,0.200000*%
%TD*%
G04 APERTURE END LIST*
D10*
%TO.P,H4,1*%
%TO.N,N/C*%
X165100000Y-100965000D03*
%TD*%
%TO.P,H3,1*%
%TO.N,N/C*%
X121920000Y-100965000D03*
%TD*%
%TO.P,H2,1*%
%TO.N,N/C*%
X165100000Y-45085000D03*
%TD*%
%TO.P,H1,1*%
%TO.N,N/C*%
X121920000Y-45085000D03*
%TD*%
D11*
%TO.P,BT1,1,+*%
%TO.N,+BATT*%
X159570000Y-90169999D03*
D12*
%TO.P,BT1,2,-*%
%TO.N,GND*%
X139080000Y-90169999D03*
%TD*%
D13*
%TO.P,SW4,2,2*%
%TO.N,GND*%
X131445000Y-70485000D03*
%TO.P,SW4,1,1*%
%TO.N,/S3*%
X131445000Y-75565000D03*
%TD*%
%TO.P,SW3,1,1*%
%TO.N,/S2*%
X139700000Y-75565000D03*
%TO.P,SW3,2,2*%
%TO.N,GND*%
X139700000Y-70485000D03*
%TD*%
%TO.P,SW2,1,1*%
%TO.N,/S1*%
X147955000Y-75565000D03*
%TO.P,SW2,2,2*%
%TO.N,GND*%
X147955000Y-70485000D03*
%TD*%
%TO.P,SW1,1,1*%
%TO.N,/S0*%
X156210000Y-75565000D03*
%TO.P,SW1,2,2*%
%TO.N,GND*%
X156210000Y-70485000D03*
%TD*%
D14*
%TO.P,Q1,1,C*%
%TO.N,/ALS*%
X122682000Y-54864000D03*
D15*
%TO.P,Q1,2,E*%
%TO.N,GND*%
X125222000Y-54864000D03*
%TD*%
D16*
%TO.P,R7,1*%
%TO.N,Net-(J1-Pin_3)*%
X162117500Y-59190000D03*
%TO.P,R7,2*%
%TO.N,Net-(A1-D0{slash}RX)*%
X159192500Y-59190000D03*
%TD*%
D17*
%TO.P,A1,1,D1/TX*%
%TO.N,Net-(A1-D1{slash}TX)*%
X162560000Y-79375000D03*
D18*
%TO.P,A1,2,D0/RX*%
%TO.N,Net-(A1-D0{slash}RX)*%
X160020000Y-79375000D03*
%TO.P,A1,3,~{RESET}*%
%TO.N,unconnected-(A1-~{RESET}-Pad3)*%
X157480000Y-79375000D03*
%TO.P,A1,4,GND*%
%TO.N,GND*%
X154940000Y-79375000D03*
%TO.P,A1,5,D2*%
%TO.N,unconnected-(A1-D2-Pad5)*%
X152400000Y-79375000D03*
%TO.P,A1,6,D3*%
%TO.N,unconnected-(A1-D3-Pad6)*%
X149860000Y-79375000D03*
%TO.P,A1,7,D4*%
%TO.N,unconnected-(A1-D4-Pad7)*%
X147320000Y-79375000D03*
%TO.P,A1,8,D5*%
%TO.N,unconnected-(A1-D5-Pad8)*%
X144780000Y-79375000D03*
%TO.P,A1,9,D6*%
%TO.N,/S0*%
X142240000Y-79375000D03*
%TO.P,A1,10,D7*%
%TO.N,/S1*%
X139700000Y-79375000D03*
%TO.P,A1,11,D8*%
%TO.N,/S2*%
X137160000Y-79375000D03*
%TO.P,A1,12,D9*%
%TO.N,/S3*%
X134620000Y-79375000D03*
%TO.P,A1,13,D10*%
%TO.N,unconnected-(A1-D10-Pad13)*%
X132080000Y-79375000D03*
%TO.P,A1,14,D11*%
%TO.N,unconnected-(A1-D11-Pad14)*%
X129540000Y-79375000D03*
%TO.P,A1,15,D12*%
%TO.N,unconnected-(A1-D12-Pad15)*%
X127000000Y-79375000D03*
%TO.P,A1,16,D13*%
%TO.N,unconnected-(A1-D13-Pad16)*%
X127000000Y-94615000D03*
%TO.P,A1,17,3V3*%
%TO.N,unconnected-(A1-3V3-Pad17)*%
X129540000Y-94615000D03*
%TO.P,A1,18,AREF*%
%TO.N,unconnected-(A1-AREF-Pad18)*%
X132080000Y-94615000D03*
%TO.P,A1,19,A0*%
%TO.N,/ALS*%
X134620000Y-94615000D03*
%TO.P,A1,20,A1*%
%TO.N,unconnected-(A1-A1-Pad20)*%
X137160000Y-94615000D03*
%TO.P,A1,21,A2*%
%TO.N,unconnected-(A1-A2-Pad21)*%
X139700000Y-94615000D03*
%TO.P,A1,22,A3*%
%TO.N,unconnected-(A1-A3-Pad22)*%
X142240000Y-94615000D03*
%TO.P,A1,23,A4*%
%TO.N,/SDA*%
X144780000Y-94615000D03*
%TO.P,A1,24,A5*%
%TO.N,/SCL*%
X147320000Y-94615000D03*
%TO.P,A1,25,A6*%
%TO.N,unconnected-(A1-A6-Pad25)*%
X149860000Y-94615000D03*
%TO.P,A1,26,A7*%
%TO.N,unconnected-(A1-A7-Pad26)*%
X152400000Y-94615000D03*
%TO.P,A1,27,+5V*%
%TO.N,VCC*%
X154940000Y-94615000D03*
%TO.P,A1,28,~{RESET}*%
%TO.N,unconnected-(A1-~{RESET}-Pad28)*%
X157480000Y-94615000D03*
%TO.P,A1,29,GND*%
%TO.N,GND*%
X160020000Y-94615000D03*
%TO.P,A1,30,VIN*%
%TO.N,unconnected-(A1-VIN-Pad30)*%
X162560000Y-94615000D03*
%TD*%
D16*
%TO.P,R5,1*%
%TO.N,VCC*%
X125287500Y-60325000D03*
%TO.P,R5,2*%
%TO.N,/ALS*%
X122362500Y-60325000D03*
%TD*%
D19*
%TO.P,J2,1,Pin_1*%
%TO.N,GND*%
X139700000Y-44450000D03*
%TO.P,J2,2,Pin_2*%
%TO.N,VCC*%
X142240000Y-44450000D03*
%TO.P,J2,3,Pin_3*%
%TO.N,/SCL*%
X144780000Y-44450000D03*
%TO.P,J2,4,Pin_4*%
%TO.N,/SDA*%
X147320000Y-44450000D03*
%TD*%
D20*
%TO.P,J1,1,Pin_1*%
%TO.N,VCC*%
X166370000Y-53340000D03*
D21*
%TO.P,J1,2,Pin_2*%
%TO.N,Net-(J1-Pin_2)*%
X166370000Y-55880000D03*
%TO.P,J1,3,Pin_3*%
%TO.N,Net-(J1-Pin_3)*%
X166370000Y-58420000D03*
%TO.P,J1,4,Pin_4*%
%TO.N,GND*%
X166370000Y-60960000D03*
%TD*%
D16*
%TO.P,R6,1*%
%TO.N,Net-(J1-Pin_2)*%
X162117500Y-55880000D03*
%TO.P,R6,2*%
%TO.N,Net-(A1-D1{slash}TX)*%
X159192500Y-55880000D03*
%TD*%
D22*
%TO.N,/SDA*%
X146431000Y-64643000D03*
X147828000Y-56515000D03*
%TO.N,+BATT*%
X151130000Y-55587500D03*
%TO.N,VCC*%
X140462000Y-64643000D03*
X140716000Y-61468000D03*
X139446000Y-56515000D03*
X135255000Y-54229000D03*
X146558000Y-50165000D03*
%TD*%
D23*
%TO.N,GND*%
X147955000Y-70485000D02*
X156210000Y-70485000D01*
%TO.N,Net-(J1-Pin_3)*%
X162117500Y-59190000D02*
X162887500Y-58420000D01*
X162887500Y-58420000D02*
X166370000Y-58420000D01*
%TO.N,Net-(J1-Pin_2)*%
X162117500Y-55880000D02*
X166370000Y-55880000D01*
%TO.N,/SDA*%
X147828000Y-63246000D02*
X146431000Y-64643000D01*
X147828000Y-56515000D02*
X147828000Y-63246000D01*
%TO.N,/ALS*%
X122362500Y-60325000D02*
X122362500Y-89850500D01*
X122362500Y-89850500D02*
X124587000Y-92075000D01*
X124587000Y-92075000D02*
X133223000Y-92075000D01*
X133223000Y-92075000D02*
X134620000Y-93472000D01*
X134620000Y-93472000D02*
X134620000Y-94615000D01*
X122682000Y-54864000D02*
X122682000Y-60005500D01*
X122682000Y-60005500D02*
X122362500Y-60325000D01*
%TO.N,+BATT*%
X159570000Y-90169999D02*
X158791500Y-89391499D01*
X158791500Y-89391499D02*
X158791500Y-61636500D01*
X158791500Y-61636500D02*
X152742500Y-55587500D01*
X152742500Y-55587500D02*
X151130000Y-55587500D01*
%TO.N,/S0*%
X156210000Y-75565000D02*
X154940000Y-76835000D01*
X154940000Y-76835000D02*
X144780000Y-76835000D01*
X144780000Y-76835000D02*
X142240000Y-79375000D01*
%TO.N,/S1*%
X147955000Y-75565000D02*
X143510000Y-75565000D01*
X143510000Y-75565000D02*
X139700000Y-79375000D01*
%TO.N,/S2*%
X139700000Y-75565000D02*
X137160000Y-78105000D01*
X137160000Y-78105000D02*
X137160000Y-79375000D01*
%TO.N,/S3*%
X131445000Y-75565000D02*
X131445000Y-76200000D01*
X131445000Y-76200000D02*
X134620000Y-79375000D01*
%TO.N,Net-(A1-D0{slash}RX)*%
X159192500Y-59190000D02*
X159192500Y-78547500D01*
X159192500Y-78547500D02*
X160020000Y-79375000D01*
%TO.N,Net-(A1-D1{slash}TX)*%
X159192500Y-55880000D02*
X161254000Y-57941500D01*
X161254000Y-57941500D02*
X161254000Y-78069000D01*
X161254000Y-78069000D02*
X162560000Y-79375000D01*
%TD*%
%TA.AperFunction,Conductor*%
%TO.N,VCC*%
G36*
X163075647Y-41795502D02*
G01*
X163122140Y-41849158D01*
X163132244Y-41919432D01*
X163102750Y-41984012D01*
X163077528Y-42006265D01*
X162903102Y-42122812D01*
X162903087Y-42122823D01*
X162623335Y-42352409D01*
X162623316Y-42352427D01*
X162367427Y-42608316D01*
X162367409Y-42608335D01*
X162137823Y-42888087D01*
X162137812Y-42888102D01*
X161936748Y-43189016D01*
X161766140Y-43508201D01*
X161721944Y-43614900D01*
X161627640Y-43842570D01*
X161554429Y-44083916D01*
X161522581Y-44188904D01*
X161451974Y-44543865D01*
X161451972Y-44543881D01*
X161416500Y-44904034D01*
X161416500Y-45265965D01*
X161451972Y-45626118D01*
X161451973Y-45626123D01*
X161451974Y-45626133D01*
X161522581Y-45981097D01*
X161627640Y-46327430D01*
X161766140Y-46661798D01*
X161936748Y-46980983D01*
X162137812Y-47281897D01*
X162137823Y-47281912D01*
X162367409Y-47561664D01*
X162367427Y-47561683D01*
X162623316Y-47817572D01*
X162623335Y-47817590D01*
X162903087Y-48047176D01*
X162903096Y-48047183D01*
X163204019Y-48248253D01*
X163523202Y-48418860D01*
X163857570Y-48557360D01*
X164203903Y-48662419D01*
X164558867Y-48733026D01*
X164919041Y-48768500D01*
X164919050Y-48768500D01*
X165280950Y-48768500D01*
X165280959Y-48768500D01*
X165641133Y-48733026D01*
X165996097Y-48662419D01*
X166342430Y-48557360D01*
X166676798Y-48418860D01*
X166995981Y-48248253D01*
X167296904Y-48047183D01*
X167576670Y-47817585D01*
X167832585Y-47561670D01*
X168062183Y-47281904D01*
X168132241Y-47177053D01*
X168178735Y-47107472D01*
X168233212Y-47061944D01*
X168303655Y-47053096D01*
X168367699Y-47083737D01*
X168405010Y-47144139D01*
X168409500Y-47177474D01*
X168409500Y-98872525D01*
X168389498Y-98940646D01*
X168335842Y-98987139D01*
X168265568Y-98997243D01*
X168200988Y-98967749D01*
X168178735Y-98942527D01*
X168062187Y-98768102D01*
X168062176Y-98768087D01*
X167832590Y-98488335D01*
X167832572Y-98488316D01*
X167576683Y-98232427D01*
X167576664Y-98232409D01*
X167296912Y-98002823D01*
X167296897Y-98002812D01*
X166995983Y-97801748D01*
X166676798Y-97631140D01*
X166342430Y-97492640D01*
X165996097Y-97387581D01*
X165759454Y-97340509D01*
X165641134Y-97316974D01*
X165641118Y-97316972D01*
X165280965Y-97281500D01*
X165280959Y-97281500D01*
X164919041Y-97281500D01*
X164919034Y-97281500D01*
X164558881Y-97316972D01*
X164558865Y-97316974D01*
X164322224Y-97364045D01*
X164203903Y-97387581D01*
X163986513Y-97453525D01*
X163857576Y-97492638D01*
X163857574Y-97492638D01*
X163857570Y-97492640D01*
X163677178Y-97567360D01*
X163523201Y-97631140D01*
X163204016Y-97801748D01*
X162903102Y-98002812D01*
X162903087Y-98002823D01*
X162623335Y-98232409D01*
X162623316Y-98232427D01*
X162367427Y-98488316D01*
X162367409Y-98488335D01*
X162137823Y-98768087D01*
X162137812Y-98768102D01*
X161936748Y-99069016D01*
X161766140Y-99388201D01*
X161627638Y-99722576D01*
X161522581Y-100068904D01*
X161451974Y-100423865D01*
X161451972Y-100423881D01*
X161416500Y-100784034D01*
X161416500Y-101145965D01*
X161451972Y-101506118D01*
X161451974Y-101506133D01*
X161522581Y-101861097D01*
X161627640Y-102207430D01*
X161766140Y-102541798D01*
X161936748Y-102860983D01*
X162137812Y-103161897D01*
X162137823Y-103161912D01*
X162367409Y-103441664D01*
X162367427Y-103441683D01*
X162623316Y-103697572D01*
X162623335Y-103697590D01*
X162903087Y-103927176D01*
X162903096Y-103927183D01*
X162903102Y-103927187D01*
X163077528Y-104043735D01*
X163123056Y-104098212D01*
X163131904Y-104168655D01*
X163101263Y-104232699D01*
X163040861Y-104270010D01*
X163007526Y-104274500D01*
X124012474Y-104274500D01*
X123944353Y-104254498D01*
X123897860Y-104200842D01*
X123887756Y-104130568D01*
X123917250Y-104065988D01*
X123942472Y-104043735D01*
X124012053Y-103997241D01*
X124116904Y-103927183D01*
X124396670Y-103697585D01*
X124652585Y-103441670D01*
X124882183Y-103161904D01*
X125083253Y-102860981D01*
X125253860Y-102541798D01*
X125392360Y-102207430D01*
X125497419Y-101861097D01*
X125568026Y-101506133D01*
X125603500Y-101145959D01*
X125603500Y-100784041D01*
X125568026Y-100423867D01*
X125497419Y-100068903D01*
X125392360Y-99722570D01*
X125253860Y-99388202D01*
X125083253Y-99069019D01*
X124882183Y-98768096D01*
X124882176Y-98768087D01*
X124652590Y-98488335D01*
X124652572Y-98488316D01*
X124396683Y-98232427D01*
X124396664Y-98232409D01*
X124116912Y-98002823D01*
X124116897Y-98002812D01*
X123815983Y-97801748D01*
X123496798Y-97631140D01*
X123162430Y-97492640D01*
X122816097Y-97387581D01*
X122579454Y-97340509D01*
X122461134Y-97316974D01*
X122461118Y-97316972D01*
X122100965Y-97281500D01*
X122100959Y-97281500D01*
X121739041Y-97281500D01*
X121739034Y-97281500D01*
X121378881Y-97316972D01*
X121378865Y-97316974D01*
X121142224Y-97364045D01*
X121023903Y-97387581D01*
X120806513Y-97453525D01*
X120677576Y-97492638D01*
X120677574Y-97492638D01*
X120677570Y-97492640D01*
X120497178Y-97567360D01*
X120343201Y-97631140D01*
X120024016Y-97801748D01*
X119723102Y-98002812D01*
X119723087Y-98002823D01*
X119443335Y-98232409D01*
X119443316Y-98232427D01*
X119187427Y-98488316D01*
X119187409Y-98488335D01*
X118957823Y-98768087D01*
X118957812Y-98768102D01*
X118841265Y-98942527D01*
X118786788Y-98988055D01*
X118716345Y-98996903D01*
X118652301Y-98966261D01*
X118614989Y-98905860D01*
X118610500Y-98872525D01*
X118610500Y-94511138D01*
X125945500Y-94511138D01*
X125945500Y-94718861D01*
X125969258Y-94838297D01*
X125986024Y-94922586D01*
X126065514Y-95114493D01*
X126065853Y-95115000D01*
X126180916Y-95287203D01*
X126180921Y-95287209D01*
X126327790Y-95434078D01*
X126327796Y-95434083D01*
X126500507Y-95549486D01*
X126692414Y-95628976D01*
X126896141Y-95669500D01*
X126896142Y-95669500D01*
X127103858Y-95669500D01*
X127103859Y-95669500D01*
X127307586Y-95628976D01*
X127499493Y-95549486D01*
X127672204Y-95434083D01*
X127819083Y-95287204D01*
X127934486Y-95114493D01*
X128013976Y-94922586D01*
X128054500Y-94718859D01*
X128054500Y-94511141D01*
X128054499Y-94511138D01*
X128485500Y-94511138D01*
X128485500Y-94718861D01*
X128509258Y-94838297D01*
X128526024Y-94922586D01*
X128605514Y-95114493D01*
X128605853Y-95115000D01*
X128720916Y-95287203D01*
X128720921Y-95287209D01*
X128867790Y-95434078D01*
X128867796Y-95434083D01*
X129040507Y-95549486D01*
X129232414Y-95628976D01*
X129436141Y-95669500D01*
X129436142Y-95669500D01*
X129643858Y-95669500D01*
X129643859Y-95669500D01*
X129847586Y-95628976D01*
X130039493Y-95549486D01*
X130212204Y-95434083D01*
X130359083Y-95287204D01*
X130474486Y-95114493D01*
X130553976Y-94922586D01*
X130594500Y-94718859D01*
X130594500Y-94511141D01*
X130594499Y-94511138D01*
X131025500Y-94511138D01*
X131025500Y-94718861D01*
X131049258Y-94838297D01*
X131066024Y-94922586D01*
X131145514Y-95114493D01*
X131145853Y-95115000D01*
X131260916Y-95287203D01*
X131260921Y-95287209D01*
X131407790Y-95434078D01*
X131407796Y-95434083D01*
X131580507Y-95549486D01*
X131772414Y-95628976D01*
X131976141Y-95669500D01*
X131976142Y-95669500D01*
X132183858Y-95669500D01*
X132183859Y-95669500D01*
X132387586Y-95628976D01*
X132579493Y-95549486D01*
X132752204Y-95434083D01*
X132899083Y-95287204D01*
X133014486Y-95114493D01*
X133093976Y-94922586D01*
X133134500Y-94718859D01*
X133134500Y-94511141D01*
X133093976Y-94307414D01*
X133014486Y-94115507D01*
X132899083Y-93942796D01*
X132899078Y-93942790D01*
X132752209Y-93795921D01*
X132752203Y-93795916D01*
X132694895Y-93757623D01*
X132579493Y-93680514D01*
X132415690Y-93612665D01*
X132387591Y-93601026D01*
X132387586Y-93601024D01*
X132183861Y-93560500D01*
X132183859Y-93560500D01*
X131976141Y-93560500D01*
X131976138Y-93560500D01*
X131772413Y-93601024D01*
X131772408Y-93601026D01*
X131580507Y-93680514D01*
X131407796Y-93795916D01*
X131407790Y-93795921D01*
X131260921Y-93942790D01*
X131260916Y-93942796D01*
X131145514Y-94115507D01*
X131066026Y-94307408D01*
X131066024Y-94307413D01*
X131025500Y-94511138D01*
X130594499Y-94511138D01*
X130553976Y-94307414D01*
X130474486Y-94115507D01*
X130359083Y-93942796D01*
X130359078Y-93942790D01*
X130212209Y-93795921D01*
X130212203Y-93795916D01*
X130154895Y-93757623D01*
X130039493Y-93680514D01*
X129875690Y-93612665D01*
X129847591Y-93601026D01*
X129847586Y-93601024D01*
X129643861Y-93560500D01*
X129643859Y-93560500D01*
X129436141Y-93560500D01*
X129436138Y-93560500D01*
X129232413Y-93601024D01*
X129232408Y-93601026D01*
X129040507Y-93680514D01*
X128867796Y-93795916D01*
X128867790Y-93795921D01*
X128720921Y-93942790D01*
X128720916Y-93942796D01*
X128605514Y-94115507D01*
X128526026Y-94307408D01*
X128526024Y-94307413D01*
X128485500Y-94511138D01*
X128054499Y-94511138D01*
X128013976Y-94307414D01*
X127934486Y-94115507D01*
X127819083Y-93942796D01*
X127819078Y-93942790D01*
X127672209Y-93795921D01*
X127672203Y-93795916D01*
X127614895Y-93757623D01*
X127499493Y-93680514D01*
X127335690Y-93612665D01*
X127307591Y-93601026D01*
X127307586Y-93601024D01*
X127103861Y-93560500D01*
X127103859Y-93560500D01*
X126896141Y-93560500D01*
X126896138Y-93560500D01*
X126692413Y-93601024D01*
X126692408Y-93601026D01*
X126500507Y-93680514D01*
X126327796Y-93795916D01*
X126327790Y-93795921D01*
X126180921Y-93942790D01*
X126180916Y-93942796D01*
X126065514Y-94115507D01*
X125986026Y-94307408D01*
X125986024Y-94307413D01*
X125945500Y-94511138D01*
X118610500Y-94511138D01*
X118610500Y-53938930D01*
X121527500Y-53938930D01*
X121527500Y-55789063D01*
X121527501Y-55789073D01*
X121542265Y-55863300D01*
X121598516Y-55947484D01*
X121682697Y-56003733D01*
X121682699Y-56003734D01*
X121756933Y-56018500D01*
X122201500Y-56018499D01*
X122269621Y-56038501D01*
X122316114Y-56092156D01*
X122327500Y-56144499D01*
X122327500Y-59069500D01*
X122307498Y-59137621D01*
X122253842Y-59184114D01*
X122201501Y-59195500D01*
X122001753Y-59195500D01*
X122001729Y-59195502D01*
X121941660Y-59201959D01*
X121941658Y-59201959D01*
X121805733Y-59252657D01*
X121689596Y-59339596D01*
X121602657Y-59455734D01*
X121551962Y-59591650D01*
X121551960Y-59591658D01*
X121545500Y-59651737D01*
X121545500Y-60998246D01*
X121545502Y-60998270D01*
X121551959Y-61058339D01*
X121551959Y-61058341D01*
X121602657Y-61194266D01*
X121602658Y-61194267D01*
X121689596Y-61310404D01*
X121805733Y-61397342D01*
X121926035Y-61442213D01*
X121982868Y-61484758D01*
X122007679Y-61551279D01*
X122008000Y-61560267D01*
X122008000Y-89897174D01*
X122032159Y-89987333D01*
X122078826Y-90068164D01*
X122078834Y-90068174D01*
X124303329Y-92292668D01*
X124369332Y-92358671D01*
X124450168Y-92405341D01*
X124540329Y-92429500D01*
X133023971Y-92429500D01*
X133092092Y-92449502D01*
X133113066Y-92466405D01*
X134135833Y-93489171D01*
X134169858Y-93551483D01*
X134164794Y-93622298D01*
X134122247Y-93679134D01*
X134116740Y-93683031D01*
X133947796Y-93795916D01*
X133947790Y-93795921D01*
X133800921Y-93942790D01*
X133800916Y-93942796D01*
X133685514Y-94115507D01*
X133606026Y-94307408D01*
X133606024Y-94307413D01*
X133565500Y-94511138D01*
X133565500Y-94718861D01*
X133589258Y-94838297D01*
X133606024Y-94922586D01*
X133685514Y-95114493D01*
X133685853Y-95115000D01*
X133800916Y-95287203D01*
X133800921Y-95287209D01*
X133947790Y-95434078D01*
X133947796Y-95434083D01*
X134120507Y-95549486D01*
X134312414Y-95628976D01*
X134516141Y-95669500D01*
X134516142Y-95669500D01*
X134723858Y-95669500D01*
X134723859Y-95669500D01*
X134927586Y-95628976D01*
X135119493Y-95549486D01*
X135292204Y-95434083D01*
X135439083Y-95287204D01*
X135554486Y-95114493D01*
X135633976Y-94922586D01*
X135674500Y-94718859D01*
X135674500Y-94511141D01*
X135674499Y-94511138D01*
X136105500Y-94511138D01*
X136105500Y-94718861D01*
X136129258Y-94838297D01*
X136146024Y-94922586D01*
X136225514Y-95114493D01*
X136225853Y-95115000D01*
X136340916Y-95287203D01*
X136340921Y-95287209D01*
X136487790Y-95434078D01*
X136487796Y-95434083D01*
X136660507Y-95549486D01*
X136852414Y-95628976D01*
X137056141Y-95669500D01*
X137056142Y-95669500D01*
X137263858Y-95669500D01*
X137263859Y-95669500D01*
X137467586Y-95628976D01*
X137659493Y-95549486D01*
X137832204Y-95434083D01*
X137979083Y-95287204D01*
X138094486Y-95114493D01*
X138173976Y-94922586D01*
X138214500Y-94718859D01*
X138214500Y-94511141D01*
X138214499Y-94511138D01*
X138645500Y-94511138D01*
X138645500Y-94718861D01*
X138669258Y-94838297D01*
X138686024Y-94922586D01*
X138765514Y-95114493D01*
X138765853Y-95115000D01*
X138880916Y-95287203D01*
X138880921Y-95287209D01*
X139027790Y-95434078D01*
X139027796Y-95434083D01*
X139200507Y-95549486D01*
X139392414Y-95628976D01*
X139596141Y-95669500D01*
X139596142Y-95669500D01*
X139803858Y-95669500D01*
X139803859Y-95669500D01*
X140007586Y-95628976D01*
X140199493Y-95549486D01*
X140372204Y-95434083D01*
X140519083Y-95287204D01*
X140634486Y-95114493D01*
X140713976Y-94922586D01*
X140754500Y-94718859D01*
X140754500Y-94511141D01*
X140754499Y-94511138D01*
X141185500Y-94511138D01*
X141185500Y-94718861D01*
X141209258Y-94838297D01*
X141226024Y-94922586D01*
X141305514Y-95114493D01*
X141305853Y-95115000D01*
X141420916Y-95287203D01*
X141420921Y-95287209D01*
X141567790Y-95434078D01*
X141567796Y-95434083D01*
X141740507Y-95549486D01*
X141932414Y-95628976D01*
X142136141Y-95669500D01*
X142136142Y-95669500D01*
X142343858Y-95669500D01*
X142343859Y-95669500D01*
X142547586Y-95628976D01*
X142739493Y-95549486D01*
X142912204Y-95434083D01*
X143059083Y-95287204D01*
X143174486Y-95114493D01*
X143253976Y-94922586D01*
X143294500Y-94718859D01*
X143294500Y-94511141D01*
X143294499Y-94511138D01*
X143725500Y-94511138D01*
X143725500Y-94718861D01*
X143749258Y-94838297D01*
X143766024Y-94922586D01*
X143845514Y-95114493D01*
X143845853Y-95115000D01*
X143960916Y-95287203D01*
X143960921Y-95287209D01*
X144107790Y-95434078D01*
X144107796Y-95434083D01*
X144280507Y-95549486D01*
X144472414Y-95628976D01*
X144676141Y-95669500D01*
X144676142Y-95669500D01*
X144883858Y-95669500D01*
X144883859Y-95669500D01*
X145087586Y-95628976D01*
X145279493Y-95549486D01*
X145452204Y-95434083D01*
X145599083Y-95287204D01*
X145714486Y-95114493D01*
X145793976Y-94922586D01*
X145834500Y-94718859D01*
X145834500Y-94511141D01*
X145834499Y-94511138D01*
X146265500Y-94511138D01*
X146265500Y-94718861D01*
X146289258Y-94838297D01*
X146306024Y-94922586D01*
X146385514Y-95114493D01*
X146385853Y-95115000D01*
X146500916Y-95287203D01*
X146500921Y-95287209D01*
X146647790Y-95434078D01*
X146647796Y-95434083D01*
X146820507Y-95549486D01*
X147012414Y-95628976D01*
X147216141Y-95669500D01*
X147216142Y-95669500D01*
X147423858Y-95669500D01*
X147423859Y-95669500D01*
X147627586Y-95628976D01*
X147819493Y-95549486D01*
X147992204Y-95434083D01*
X148139083Y-95287204D01*
X148254486Y-95114493D01*
X148333976Y-94922586D01*
X148374500Y-94718859D01*
X148374500Y-94511141D01*
X148374499Y-94511138D01*
X148805500Y-94511138D01*
X148805500Y-94718861D01*
X148829258Y-94838297D01*
X148846024Y-94922586D01*
X148925514Y-95114493D01*
X148925853Y-95115000D01*
X149040916Y-95287203D01*
X149040921Y-95287209D01*
X149187790Y-95434078D01*
X149187796Y-95434083D01*
X149360507Y-95549486D01*
X149552414Y-95628976D01*
X149756141Y-95669500D01*
X149756142Y-95669500D01*
X149963858Y-95669500D01*
X149963859Y-95669500D01*
X150167586Y-95628976D01*
X150359493Y-95549486D01*
X150532204Y-95434083D01*
X150679083Y-95287204D01*
X150794486Y-95114493D01*
X150873976Y-94922586D01*
X150914500Y-94718859D01*
X150914500Y-94511141D01*
X150914499Y-94511138D01*
X151345500Y-94511138D01*
X151345500Y-94718861D01*
X151369258Y-94838297D01*
X151386024Y-94922586D01*
X151465514Y-95114493D01*
X151465853Y-95115000D01*
X151580916Y-95287203D01*
X151580921Y-95287209D01*
X151727790Y-95434078D01*
X151727796Y-95434083D01*
X151900507Y-95549486D01*
X152092414Y-95628976D01*
X152296141Y-95669500D01*
X152296142Y-95669500D01*
X152503858Y-95669500D01*
X152503859Y-95669500D01*
X152707586Y-95628976D01*
X152899493Y-95549486D01*
X153072204Y-95434083D01*
X153219083Y-95287204D01*
X153334486Y-95114493D01*
X153413976Y-94922586D01*
X153420256Y-94891013D01*
X153453161Y-94828106D01*
X153514856Y-94792974D01*
X153585751Y-94796773D01*
X153643337Y-94838297D01*
X153668282Y-94895883D01*
X153672009Y-94919414D01*
X153672010Y-94919416D01*
X153735243Y-95114025D01*
X153735246Y-95114034D01*
X153828140Y-95296349D01*
X153948416Y-95461895D01*
X154093104Y-95606583D01*
X154258650Y-95726859D01*
X154440965Y-95819753D01*
X154440974Y-95819756D01*
X154635582Y-95882989D01*
X154635589Y-95882991D01*
X154690000Y-95891608D01*
X154690000Y-95048012D01*
X154747007Y-95080925D01*
X154874174Y-95115000D01*
X155005826Y-95115000D01*
X155132993Y-95080925D01*
X155190000Y-95048012D01*
X155190000Y-95891607D01*
X155244410Y-95882991D01*
X155244417Y-95882989D01*
X155439025Y-95819756D01*
X155439034Y-95819753D01*
X155621349Y-95726859D01*
X155786895Y-95606583D01*
X155931583Y-95461895D01*
X156051859Y-95296349D01*
X156144753Y-95114034D01*
X156144756Y-95114025D01*
X156207989Y-94919419D01*
X156211716Y-94895887D01*
X156242127Y-94831734D01*
X156302395Y-94794206D01*
X156373384Y-94795219D01*
X156432557Y-94834450D01*
X156459743Y-94891011D01*
X156466024Y-94922586D01*
X156545514Y-95114493D01*
X156545853Y-95115000D01*
X156660916Y-95287203D01*
X156660921Y-95287209D01*
X156807790Y-95434078D01*
X156807796Y-95434083D01*
X156980507Y-95549486D01*
X157172414Y-95628976D01*
X157376141Y-95669500D01*
X157376142Y-95669500D01*
X157583858Y-95669500D01*
X157583859Y-95669500D01*
X157787586Y-95628976D01*
X157979493Y-95549486D01*
X158152204Y-95434083D01*
X158299083Y-95287204D01*
X158414486Y-95114493D01*
X158493976Y-94922586D01*
X158534500Y-94718859D01*
X158534500Y-94511141D01*
X158534499Y-94511138D01*
X158965500Y-94511138D01*
X158965500Y-94718861D01*
X158989258Y-94838297D01*
X159006024Y-94922586D01*
X159085514Y-95114493D01*
X159085853Y-95115000D01*
X159200916Y-95287203D01*
X159200921Y-95287209D01*
X159347790Y-95434078D01*
X159347796Y-95434083D01*
X159520507Y-95549486D01*
X159712414Y-95628976D01*
X159916141Y-95669500D01*
X159916142Y-95669500D01*
X160123858Y-95669500D01*
X160123859Y-95669500D01*
X160327586Y-95628976D01*
X160519493Y-95549486D01*
X160692204Y-95434083D01*
X160839083Y-95287204D01*
X160954486Y-95114493D01*
X161033976Y-94922586D01*
X161074500Y-94718859D01*
X161074500Y-94511141D01*
X161074499Y-94511138D01*
X161505500Y-94511138D01*
X161505500Y-94718861D01*
X161529258Y-94838297D01*
X161546024Y-94922586D01*
X161625514Y-95114493D01*
X161625853Y-95115000D01*
X161740916Y-95287203D01*
X161740921Y-95287209D01*
X161887790Y-95434078D01*
X161887796Y-95434083D01*
X162060507Y-95549486D01*
X162252414Y-95628976D01*
X162456141Y-95669500D01*
X162456142Y-95669500D01*
X162663858Y-95669500D01*
X162663859Y-95669500D01*
X162867586Y-95628976D01*
X163059493Y-95549486D01*
X163232204Y-95434083D01*
X163379083Y-95287204D01*
X163494486Y-95114493D01*
X163573976Y-94922586D01*
X163614500Y-94718859D01*
X163614500Y-94511141D01*
X163573976Y-94307414D01*
X163494486Y-94115507D01*
X163379083Y-93942796D01*
X163379078Y-93942790D01*
X163232209Y-93795921D01*
X163232203Y-93795916D01*
X163174895Y-93757623D01*
X163059493Y-93680514D01*
X162895690Y-93612665D01*
X162867591Y-93601026D01*
X162867586Y-93601024D01*
X162663861Y-93560500D01*
X162663859Y-93560500D01*
X162456141Y-93560500D01*
X162456138Y-93560500D01*
X162252413Y-93601024D01*
X162252408Y-93601026D01*
X162060507Y-93680514D01*
X161887796Y-93795916D01*
X161887790Y-93795921D01*
X161740921Y-93942790D01*
X161740916Y-93942796D01*
X161625514Y-94115507D01*
X161546026Y-94307408D01*
X161546024Y-94307413D01*
X161505500Y-94511138D01*
X161074499Y-94511138D01*
X161033976Y-94307414D01*
X160954486Y-94115507D01*
X160839083Y-93942796D01*
X160839078Y-93942790D01*
X160692209Y-93795921D01*
X160692203Y-93795916D01*
X160634895Y-93757623D01*
X160519493Y-93680514D01*
X160355690Y-93612665D01*
X160327591Y-93601026D01*
X160327586Y-93601024D01*
X160123861Y-93560500D01*
X160123859Y-93560500D01*
X159916141Y-93560500D01*
X159916138Y-93560500D01*
X159712413Y-93601024D01*
X159712408Y-93601026D01*
X159520507Y-93680514D01*
X159347796Y-93795916D01*
X159347790Y-93795921D01*
X159200921Y-93942790D01*
X159200916Y-93942796D01*
X159085514Y-94115507D01*
X159006026Y-94307408D01*
X159006024Y-94307413D01*
X158965500Y-94511138D01*
X158534499Y-94511138D01*
X158493976Y-94307414D01*
X158414486Y-94115507D01*
X158299083Y-93942796D01*
X158299078Y-93942790D01*
X158152209Y-93795921D01*
X158152203Y-93795916D01*
X158094895Y-93757623D01*
X157979493Y-93680514D01*
X157815690Y-93612665D01*
X157787591Y-93601026D01*
X157787586Y-93601024D01*
X157583861Y-93560500D01*
X157583859Y-93560500D01*
X157376141Y-93560500D01*
X157376138Y-93560500D01*
X157172413Y-93601024D01*
X157172408Y-93601026D01*
X156980507Y-93680514D01*
X156807796Y-93795916D01*
X156807790Y-93795921D01*
X156660921Y-93942790D01*
X156660916Y-93942796D01*
X156545514Y-94115507D01*
X156466026Y-94307408D01*
X156466022Y-94307420D01*
X156459743Y-94338987D01*
X156426835Y-94401896D01*
X156365139Y-94437026D01*
X156294244Y-94433225D01*
X156236659Y-94391698D01*
X156211716Y-94334113D01*
X156207988Y-94310580D01*
X156144756Y-94115974D01*
X156144753Y-94115965D01*
X156051859Y-93933650D01*
X155931583Y-93768104D01*
X155786895Y-93623416D01*
X155621349Y-93503140D01*
X155439034Y-93410246D01*
X155439025Y-93410243D01*
X155244420Y-93347011D01*
X155190000Y-93338391D01*
X155190000Y-94181988D01*
X155132993Y-94149075D01*
X155005826Y-94115000D01*
X154874174Y-94115000D01*
X154747007Y-94149075D01*
X154690000Y-94181988D01*
X154690000Y-93338391D01*
X154635579Y-93347011D01*
X154440974Y-93410243D01*
X154440965Y-93410246D01*
X154258650Y-93503140D01*
X154093104Y-93623416D01*
X153948416Y-93768104D01*
X153828140Y-93933650D01*
X153735246Y-94115965D01*
X153735243Y-94115974D01*
X153672010Y-94310583D01*
X153672009Y-94310583D01*
X153668282Y-94334117D01*
X153637868Y-94398269D01*
X153577599Y-94435795D01*
X153506610Y-94434779D01*
X153447439Y-94395545D01*
X153420256Y-94338986D01*
X153413976Y-94307414D01*
X153334486Y-94115507D01*
X153219083Y-93942796D01*
X153219078Y-93942790D01*
X153072209Y-93795921D01*
X153072203Y-93795916D01*
X153014895Y-93757623D01*
X152899493Y-93680514D01*
X152735690Y-93612665D01*
X152707591Y-93601026D01*
X152707586Y-93601024D01*
X152503861Y-93560500D01*
X152503859Y-93560500D01*
X152296141Y-93560500D01*
X152296138Y-93560500D01*
X152092413Y-93601024D01*
X152092408Y-93601026D01*
X151900507Y-93680514D01*
X151727796Y-93795916D01*
X151727790Y-93795921D01*
X151580921Y-93942790D01*
X151580916Y-93942796D01*
X151465514Y-94115507D01*
X151386026Y-94307408D01*
X151386024Y-94307413D01*
X151345500Y-94511138D01*
X150914499Y-94511138D01*
X150873976Y-94307414D01*
X150794486Y-94115507D01*
X150679083Y-93942796D01*
X150679078Y-93942790D01*
X150532209Y-93795921D01*
X150532203Y-93795916D01*
X150474895Y-93757623D01*
X150359493Y-93680514D01*
X150195690Y-93612665D01*
X150167591Y-93601026D01*
X150167586Y-93601024D01*
X149963861Y-93560500D01*
X149963859Y-93560500D01*
X149756141Y-93560500D01*
X149756138Y-93560500D01*
X149552413Y-93601024D01*
X149552408Y-93601026D01*
X149360507Y-93680514D01*
X149187796Y-93795916D01*
X149187790Y-93795921D01*
X149040921Y-93942790D01*
X149040916Y-93942796D01*
X148925514Y-94115507D01*
X148846026Y-94307408D01*
X148846024Y-94307413D01*
X148805500Y-94511138D01*
X148374499Y-94511138D01*
X148333976Y-94307414D01*
X148254486Y-94115507D01*
X148139083Y-93942796D01*
X148139078Y-93942790D01*
X147992209Y-93795921D01*
X147992203Y-93795916D01*
X147934895Y-93757623D01*
X147819493Y-93680514D01*
X147655690Y-93612665D01*
X147627591Y-93601026D01*
X147627586Y-93601024D01*
X147423861Y-93560500D01*
X147423859Y-93560500D01*
X147216141Y-93560500D01*
X147216138Y-93560500D01*
X147012413Y-93601024D01*
X147012408Y-93601026D01*
X146820507Y-93680514D01*
X146647796Y-93795916D01*
X146647790Y-93795921D01*
X146500921Y-93942790D01*
X146500916Y-93942796D01*
X146385514Y-94115507D01*
X146306026Y-94307408D01*
X146306024Y-94307413D01*
X146265500Y-94511138D01*
X145834499Y-94511138D01*
X145793976Y-94307414D01*
X145714486Y-94115507D01*
X145599083Y-93942796D01*
X145599078Y-93942790D01*
X145452209Y-93795921D01*
X145452203Y-93795916D01*
X145394895Y-93757623D01*
X145279493Y-93680514D01*
X145115690Y-93612665D01*
X145087591Y-93601026D01*
X145087586Y-93601024D01*
X144883861Y-93560500D01*
X144883859Y-93560500D01*
X144676141Y-93560500D01*
X144676138Y-93560500D01*
X144472413Y-93601024D01*
X144472408Y-93601026D01*
X144280507Y-93680514D01*
X144107796Y-93795916D01*
X144107790Y-93795921D01*
X143960921Y-93942790D01*
X143960916Y-93942796D01*
X143845514Y-94115507D01*
X143766026Y-94307408D01*
X143766024Y-94307413D01*
X143725500Y-94511138D01*
X143294499Y-94511138D01*
X143253976Y-94307414D01*
X143174486Y-94115507D01*
X143059083Y-93942796D01*
X143059078Y-93942790D01*
X142912209Y-93795921D01*
X142912203Y-93795916D01*
X142854895Y-93757623D01*
X142739493Y-93680514D01*
X142575690Y-93612665D01*
X142547591Y-93601026D01*
X142547586Y-93601024D01*
X142343861Y-93560500D01*
X142343859Y-93560500D01*
X142136141Y-93560500D01*
X142136138Y-93560500D01*
X141932413Y-93601024D01*
X141932408Y-93601026D01*
X141740507Y-93680514D01*
X141567796Y-93795916D01*
X141567790Y-93795921D01*
X141420921Y-93942790D01*
X141420916Y-93942796D01*
X141305514Y-94115507D01*
X141226026Y-94307408D01*
X141226024Y-94307413D01*
X141185500Y-94511138D01*
X140754499Y-94511138D01*
X140713976Y-94307414D01*
X140634486Y-94115507D01*
X140519083Y-93942796D01*
X140519078Y-93942790D01*
X140372209Y-93795921D01*
X140372203Y-93795916D01*
X140314895Y-93757623D01*
X140199493Y-93680514D01*
X140035690Y-93612665D01*
X140007591Y-93601026D01*
X140007586Y-93601024D01*
X139803861Y-93560500D01*
X139803859Y-93560500D01*
X139596141Y-93560500D01*
X139596138Y-93560500D01*
X139392413Y-93601024D01*
X139392408Y-93601026D01*
X139200507Y-93680514D01*
X139027796Y-93795916D01*
X139027790Y-93795921D01*
X138880921Y-93942790D01*
X138880916Y-93942796D01*
X138765514Y-94115507D01*
X138686026Y-94307408D01*
X138686024Y-94307413D01*
X138645500Y-94511138D01*
X138214499Y-94511138D01*
X138173976Y-94307414D01*
X138094486Y-94115507D01*
X137979083Y-93942796D01*
X137979078Y-93942790D01*
X137832209Y-93795921D01*
X137832203Y-93795916D01*
X137774895Y-93757623D01*
X137659493Y-93680514D01*
X137495690Y-93612665D01*
X137467591Y-93601026D01*
X137467586Y-93601024D01*
X137263861Y-93560500D01*
X137263859Y-93560500D01*
X137056141Y-93560500D01*
X137056138Y-93560500D01*
X136852413Y-93601024D01*
X136852408Y-93601026D01*
X136660507Y-93680514D01*
X136487796Y-93795916D01*
X136487790Y-93795921D01*
X136340921Y-93942790D01*
X136340916Y-93942796D01*
X136225514Y-94115507D01*
X136146026Y-94307408D01*
X136146024Y-94307413D01*
X136105500Y-94511138D01*
X135674499Y-94511138D01*
X135633976Y-94307414D01*
X135554486Y-94115507D01*
X135439083Y-93942796D01*
X135439078Y-93942790D01*
X135292209Y-93795921D01*
X135292203Y-93795916D01*
X135205848Y-93738215D01*
X135119493Y-93680514D01*
X135052280Y-93652673D01*
X134997001Y-93608125D01*
X134974580Y-93540762D01*
X134974500Y-93536265D01*
X134974500Y-93425329D01*
X134974499Y-93425325D01*
X134953514Y-93347011D01*
X134950341Y-93335168D01*
X134903671Y-93254332D01*
X134903669Y-93254330D01*
X134903665Y-93254325D01*
X134833289Y-93183949D01*
X134833266Y-93183928D01*
X133440668Y-91791329D01*
X133440666Y-91791328D01*
X133440664Y-91791326D01*
X133359833Y-91744659D01*
X133269674Y-91720500D01*
X133269671Y-91720500D01*
X124786029Y-91720500D01*
X124717908Y-91700498D01*
X124696934Y-91683595D01*
X123068339Y-90055000D01*
X137325500Y-90055000D01*
X137325500Y-90284997D01*
X137355518Y-90513012D01*
X137355520Y-90513019D01*
X137415046Y-90735175D01*
X137503060Y-90947660D01*
X137503061Y-90947661D01*
X137503066Y-90947672D01*
X137618053Y-91146835D01*
X137618055Y-91146838D01*
X137618056Y-91146839D01*
X137758066Y-91329304D01*
X137758070Y-91329308D01*
X137758075Y-91329314D01*
X137920684Y-91491923D01*
X137920689Y-91491927D01*
X137920695Y-91491933D01*
X138103160Y-91631943D01*
X138103163Y-91631945D01*
X138302326Y-91746932D01*
X138302330Y-91746933D01*
X138302339Y-91746939D01*
X138514824Y-91834953D01*
X138736980Y-91894479D01*
X138736984Y-91894479D01*
X138736986Y-91894480D01*
X138795752Y-91902216D01*
X138965004Y-91924499D01*
X138965011Y-91924499D01*
X139194989Y-91924499D01*
X139194996Y-91924499D01*
X139401073Y-91897368D01*
X139423013Y-91894480D01*
X139423013Y-91894479D01*
X139423020Y-91894479D01*
X139645176Y-91834953D01*
X139857661Y-91746939D01*
X140056840Y-91631943D01*
X140239305Y-91491933D01*
X140401934Y-91329304D01*
X140541944Y-91146839D01*
X140656940Y-90947660D01*
X140744954Y-90735175D01*
X140804480Y-90513019D01*
X140834500Y-90284995D01*
X140834500Y-90055003D01*
X140804480Y-89826979D01*
X140744954Y-89604823D01*
X140656940Y-89392338D01*
X140656934Y-89392329D01*
X140656933Y-89392325D01*
X140541946Y-89193162D01*
X140541944Y-89193159D01*
X140401934Y-89010694D01*
X140401928Y-89010688D01*
X140401924Y-89010683D01*
X140239315Y-88848074D01*
X140239309Y-88848069D01*
X140239305Y-88848065D01*
X140056840Y-88708055D01*
X140056839Y-88708054D01*
X140056836Y-88708052D01*
X139857673Y-88593065D01*
X139857665Y-88593061D01*
X139857661Y-88593059D01*
X139645176Y-88505045D01*
X139423020Y-88445519D01*
X139423013Y-88445517D01*
X139194998Y-88415499D01*
X139194996Y-88415499D01*
X138965004Y-88415499D01*
X138965001Y-88415499D01*
X138736986Y-88445517D01*
X138514824Y-88505045D01*
X138356324Y-88570698D01*
X138302337Y-88593060D01*
X138302326Y-88593065D01*
X138103163Y-88708052D01*
X137920695Y-88848065D01*
X137920684Y-88848074D01*
X137758075Y-89010683D01*
X137758066Y-89010694D01*
X137618053Y-89193162D01*
X137503066Y-89392325D01*
X137503061Y-89392336D01*
X137415046Y-89604823D01*
X137355518Y-89826985D01*
X137325500Y-90055000D01*
X123068339Y-90055000D01*
X122753905Y-89740566D01*
X122719879Y-89678254D01*
X122717000Y-89651471D01*
X122717000Y-79271138D01*
X125945500Y-79271138D01*
X125945500Y-79271141D01*
X125945500Y-79478859D01*
X125986024Y-79682586D01*
X126065514Y-79874493D01*
X126142623Y-79989895D01*
X126180916Y-80047203D01*
X126180921Y-80047209D01*
X126327790Y-80194078D01*
X126327796Y-80194083D01*
X126500507Y-80309486D01*
X126692414Y-80388976D01*
X126896141Y-80429500D01*
X126896142Y-80429500D01*
X127103858Y-80429500D01*
X127103859Y-80429500D01*
X127307586Y-80388976D01*
X127499493Y-80309486D01*
X127672204Y-80194083D01*
X127819083Y-80047204D01*
X127934486Y-79874493D01*
X128013976Y-79682586D01*
X128054500Y-79478859D01*
X128054500Y-79271141D01*
X128054499Y-79271138D01*
X128485500Y-79271138D01*
X128485500Y-79271141D01*
X128485500Y-79478859D01*
X128526024Y-79682586D01*
X128605514Y-79874493D01*
X128682623Y-79989895D01*
X128720916Y-80047203D01*
X128720921Y-80047209D01*
X128867790Y-80194078D01*
X128867796Y-80194083D01*
X129040507Y-80309486D01*
X129232414Y-80388976D01*
X129436141Y-80429500D01*
X129436142Y-80429500D01*
X129643858Y-80429500D01*
X129643859Y-80429500D01*
X129847586Y-80388976D01*
X130039493Y-80309486D01*
X130212204Y-80194083D01*
X130359083Y-80047204D01*
X130474486Y-79874493D01*
X130553976Y-79682586D01*
X130594500Y-79478859D01*
X130594500Y-79271141D01*
X130594499Y-79271138D01*
X131025500Y-79271138D01*
X131025500Y-79271141D01*
X131025500Y-79478859D01*
X131066024Y-79682586D01*
X131145514Y-79874493D01*
X131222623Y-79989895D01*
X131260916Y-80047203D01*
X131260921Y-80047209D01*
X131407790Y-80194078D01*
X131407796Y-80194083D01*
X131580507Y-80309486D01*
X131772414Y-80388976D01*
X131976141Y-80429500D01*
X131976142Y-80429500D01*
X132183858Y-80429500D01*
X132183859Y-80429500D01*
X132387586Y-80388976D01*
X132579493Y-80309486D01*
X132752204Y-80194083D01*
X132899083Y-80047204D01*
X133014486Y-79874493D01*
X133093976Y-79682586D01*
X133134500Y-79478859D01*
X133134500Y-79271141D01*
X133093976Y-79067414D01*
X133014486Y-78875507D01*
X132899083Y-78702796D01*
X132899078Y-78702790D01*
X132752209Y-78555921D01*
X132752203Y-78555916D01*
X132694895Y-78517623D01*
X132579493Y-78440514D01*
X132391186Y-78362515D01*
X132387591Y-78361026D01*
X132387586Y-78361024D01*
X132183861Y-78320500D01*
X132183859Y-78320500D01*
X131976141Y-78320500D01*
X131976138Y-78320500D01*
X131772413Y-78361024D01*
X131772408Y-78361026D01*
X131580507Y-78440514D01*
X131407796Y-78555916D01*
X131407790Y-78555921D01*
X131260921Y-78702790D01*
X131260916Y-78702796D01*
X131145514Y-78875507D01*
X131066026Y-79067408D01*
X131066024Y-79067413D01*
X131025500Y-79271138D01*
X130594499Y-79271138D01*
X130553976Y-79067414D01*
X130474486Y-78875507D01*
X130359083Y-78702796D01*
X130359078Y-78702790D01*
X130212209Y-78555921D01*
X130212203Y-78555916D01*
X130154895Y-78517623D01*
X130039493Y-78440514D01*
X129851186Y-78362515D01*
X129847591Y-78361026D01*
X129847586Y-78361024D01*
X129643861Y-78320500D01*
X129643859Y-78320500D01*
X129436141Y-78320500D01*
X129436138Y-78320500D01*
X129232413Y-78361024D01*
X129232408Y-78361026D01*
X129040507Y-78440514D01*
X128867796Y-78555916D01*
X128867790Y-78555921D01*
X128720921Y-78702790D01*
X128720916Y-78702796D01*
X128605514Y-78875507D01*
X128526026Y-79067408D01*
X128526024Y-79067413D01*
X128485500Y-79271138D01*
X128054499Y-79271138D01*
X128013976Y-79067414D01*
X127934486Y-78875507D01*
X127819083Y-78702796D01*
X127819078Y-78702790D01*
X127672209Y-78555921D01*
X127672203Y-78555916D01*
X127614895Y-78517623D01*
X127499493Y-78440514D01*
X127311186Y-78362515D01*
X127307591Y-78361026D01*
X127307586Y-78361024D01*
X127103861Y-78320500D01*
X127103859Y-78320500D01*
X126896141Y-78320500D01*
X126896138Y-78320500D01*
X126692413Y-78361024D01*
X126692408Y-78361026D01*
X126500507Y-78440514D01*
X126327796Y-78555916D01*
X126327790Y-78555921D01*
X126180921Y-78702790D01*
X126180916Y-78702796D01*
X126065514Y-78875507D01*
X125986026Y-79067408D01*
X125986024Y-79067413D01*
X125945500Y-79271138D01*
X122717000Y-79271138D01*
X122717000Y-75502406D01*
X130809500Y-75502406D01*
X130809500Y-75502409D01*
X130809500Y-75627591D01*
X130833922Y-75750369D01*
X130881827Y-75866022D01*
X130951375Y-75970108D01*
X131039892Y-76058625D01*
X131039900Y-76058630D01*
X131044429Y-76062347D01*
X131084401Y-76121023D01*
X131090500Y-76159750D01*
X131090500Y-76246674D01*
X131114659Y-76336833D01*
X131161326Y-76417664D01*
X131161334Y-76417674D01*
X133606549Y-78862888D01*
X133640574Y-78925200D01*
X133635510Y-78996015D01*
X133633864Y-79000199D01*
X133606026Y-79067408D01*
X133606024Y-79067413D01*
X133565500Y-79271138D01*
X133565500Y-79271141D01*
X133565500Y-79478859D01*
X133606024Y-79682586D01*
X133685514Y-79874493D01*
X133762623Y-79989895D01*
X133800916Y-80047203D01*
X133800921Y-80047209D01*
X133947790Y-80194078D01*
X133947796Y-80194083D01*
X134120507Y-80309486D01*
X134312414Y-80388976D01*
X134516141Y-80429500D01*
X134516142Y-80429500D01*
X134723858Y-80429500D01*
X134723859Y-80429500D01*
X134927586Y-80388976D01*
X135119493Y-80309486D01*
X135292204Y-80194083D01*
X135439083Y-80047204D01*
X135554486Y-79874493D01*
X135633976Y-79682586D01*
X135674500Y-79478859D01*
X135674500Y-79271141D01*
X135674499Y-79271138D01*
X136105500Y-79271138D01*
X136105500Y-79271141D01*
X136105500Y-79478859D01*
X136146024Y-79682586D01*
X136225514Y-79874493D01*
X136302623Y-79989895D01*
X136340916Y-80047203D01*
X136340921Y-80047209D01*
X136487790Y-80194078D01*
X136487796Y-80194083D01*
X136660507Y-80309486D01*
X136852414Y-80388976D01*
X137056141Y-80429500D01*
X137056142Y-80429500D01*
X137263858Y-80429500D01*
X137263859Y-80429500D01*
X137467586Y-80388976D01*
X137659493Y-80309486D01*
X137832204Y-80194083D01*
X137979083Y-80047204D01*
X138094486Y-79874493D01*
X138173976Y-79682586D01*
X138214500Y-79478859D01*
X138214500Y-79271141D01*
X138214499Y-79271138D01*
X138645500Y-79271138D01*
X138645500Y-79271141D01*
X138645500Y-79478859D01*
X138686024Y-79682586D01*
X138765514Y-79874493D01*
X138842623Y-79989895D01*
X138880916Y-80047203D01*
X138880921Y-80047209D01*
X139027790Y-80194078D01*
X139027796Y-80194083D01*
X139200507Y-80309486D01*
X139392414Y-80388976D01*
X139596141Y-80429500D01*
X139596142Y-80429500D01*
X139803858Y-80429500D01*
X139803859Y-80429500D01*
X140007586Y-80388976D01*
X140199493Y-80309486D01*
X140372204Y-80194083D01*
X140519083Y-80047204D01*
X140634486Y-79874493D01*
X140713976Y-79682586D01*
X140754500Y-79478859D01*
X140754500Y-79271141D01*
X140754499Y-79271138D01*
X141185500Y-79271138D01*
X141185500Y-79271141D01*
X141185500Y-79478859D01*
X141226024Y-79682586D01*
X141305514Y-79874493D01*
X141382623Y-79989895D01*
X141420916Y-80047203D01*
X141420921Y-80047209D01*
X141567790Y-80194078D01*
X141567796Y-80194083D01*
X141740507Y-80309486D01*
X141932414Y-80388976D01*
X142136141Y-80429500D01*
X142136142Y-80429500D01*
X142343858Y-80429500D01*
X142343859Y-80429500D01*
X142547586Y-80388976D01*
X142739493Y-80309486D01*
X142912204Y-80194083D01*
X143059083Y-80047204D01*
X143174486Y-79874493D01*
X143253976Y-79682586D01*
X143294500Y-79478859D01*
X143294500Y-79271141D01*
X143294499Y-79271138D01*
X143725500Y-79271138D01*
X143725500Y-79271141D01*
X143725500Y-79478859D01*
X143766024Y-79682586D01*
X143845514Y-79874493D01*
X143922623Y-79989895D01*
X143960916Y-80047203D01*
X143960921Y-80047209D01*
X144107790Y-80194078D01*
X144107796Y-80194083D01*
X144280507Y-80309486D01*
X144472414Y-80388976D01*
X144676141Y-80429500D01*
X144676142Y-80429500D01*
X144883858Y-80429500D01*
X144883859Y-80429500D01*
X145087586Y-80388976D01*
X145279493Y-80309486D01*
X145452204Y-80194083D01*
X145599083Y-80047204D01*
X145714486Y-79874493D01*
X145793976Y-79682586D01*
X145834500Y-79478859D01*
X145834500Y-79271141D01*
X145834499Y-79271138D01*
X146265500Y-79271138D01*
X146265500Y-79271141D01*
X146265500Y-79478859D01*
X146306024Y-79682586D01*
X146385514Y-79874493D01*
X146462623Y-79989895D01*
X146500916Y-80047203D01*
X146500921Y-80047209D01*
X146647790Y-80194078D01*
X146647796Y-80194083D01*
X146820507Y-80309486D01*
X147012414Y-80388976D01*
X147216141Y-80429500D01*
X147216142Y-80429500D01*
X147423858Y-80429500D01*
X147423859Y-80429500D01*
X147627586Y-80388976D01*
X147819493Y-80309486D01*
X147992204Y-80194083D01*
X148139083Y-80047204D01*
X148254486Y-79874493D01*
X148333976Y-79682586D01*
X148374500Y-79478859D01*
X148374500Y-79271141D01*
X148374499Y-79271138D01*
X148805500Y-79271138D01*
X148805500Y-79271141D01*
X148805500Y-79478859D01*
X148846024Y-79682586D01*
X148925514Y-79874493D01*
X149002623Y-79989895D01*
X149040916Y-80047203D01*
X149040921Y-80047209D01*
X149187790Y-80194078D01*
X149187796Y-80194083D01*
X149360507Y-80309486D01*
X149552414Y-80388976D01*
X149756141Y-80429500D01*
X149756142Y-80429500D01*
X149963858Y-80429500D01*
X149963859Y-80429500D01*
X150167586Y-80388976D01*
X150359493Y-80309486D01*
X150532204Y-80194083D01*
X150679083Y-80047204D01*
X150794486Y-79874493D01*
X150873976Y-79682586D01*
X150914500Y-79478859D01*
X150914500Y-79271141D01*
X150914499Y-79271138D01*
X151345500Y-79271138D01*
X151345500Y-79271141D01*
X151345500Y-79478859D01*
X151386024Y-79682586D01*
X151465514Y-79874493D01*
X151542623Y-79989895D01*
X151580916Y-80047203D01*
X151580921Y-80047209D01*
X151727790Y-80194078D01*
X151727796Y-80194083D01*
X151900507Y-80309486D01*
X152092414Y-80388976D01*
X152296141Y-80429500D01*
X152296142Y-80429500D01*
X152503858Y-80429500D01*
X152503859Y-80429500D01*
X152707586Y-80388976D01*
X152899493Y-80309486D01*
X153072204Y-80194083D01*
X153219083Y-80047204D01*
X153334486Y-79874493D01*
X153413976Y-79682586D01*
X153454500Y-79478859D01*
X153454500Y-79271141D01*
X153454499Y-79271138D01*
X153885500Y-79271138D01*
X153885500Y-79271141D01*
X153885500Y-79478859D01*
X153926024Y-79682586D01*
X154005514Y-79874493D01*
X154082623Y-79989895D01*
X154120916Y-80047203D01*
X154120921Y-80047209D01*
X154267790Y-80194078D01*
X154267796Y-80194083D01*
X154440507Y-80309486D01*
X154632414Y-80388976D01*
X154836141Y-80429500D01*
X154836142Y-80429500D01*
X155043858Y-80429500D01*
X155043859Y-80429500D01*
X155247586Y-80388976D01*
X155439493Y-80309486D01*
X155612204Y-80194083D01*
X155759083Y-80047204D01*
X155874486Y-79874493D01*
X155953976Y-79682586D01*
X155994500Y-79478859D01*
X155994500Y-79271141D01*
X155953976Y-79067414D01*
X155874486Y-78875507D01*
X155759083Y-78702796D01*
X155759078Y-78702790D01*
X155612209Y-78555921D01*
X155612203Y-78555916D01*
X155554895Y-78517623D01*
X155439493Y-78440514D01*
X155251186Y-78362515D01*
X155247591Y-78361026D01*
X155247586Y-78361024D01*
X155043861Y-78320500D01*
X155043859Y-78320500D01*
X154836141Y-78320500D01*
X154836138Y-78320500D01*
X154632413Y-78361024D01*
X154632408Y-78361026D01*
X154440507Y-78440514D01*
X154267796Y-78555916D01*
X154267790Y-78555921D01*
X154120921Y-78702790D01*
X154120916Y-78702796D01*
X154005514Y-78875507D01*
X153926026Y-79067408D01*
X153926024Y-79067413D01*
X153885500Y-79271138D01*
X153454499Y-79271138D01*
X153413976Y-79067414D01*
X153334486Y-78875507D01*
X153219083Y-78702796D01*
X153219078Y-78702790D01*
X153072209Y-78555921D01*
X153072203Y-78555916D01*
X153014895Y-78517623D01*
X152899493Y-78440514D01*
X152711186Y-78362515D01*
X152707591Y-78361026D01*
X152707586Y-78361024D01*
X152503861Y-78320500D01*
X152503859Y-78320500D01*
X152296141Y-78320500D01*
X152296138Y-78320500D01*
X152092413Y-78361024D01*
X152092408Y-78361026D01*
X151900507Y-78440514D01*
X151727796Y-78555916D01*
X151727790Y-78555921D01*
X151580921Y-78702790D01*
X151580916Y-78702796D01*
X151465514Y-78875507D01*
X151386026Y-79067408D01*
X151386024Y-79067413D01*
X151345500Y-79271138D01*
X150914499Y-79271138D01*
X150873976Y-79067414D01*
X150794486Y-78875507D01*
X150679083Y-78702796D01*
X150679078Y-78702790D01*
X150532209Y-78555921D01*
X150532203Y-78555916D01*
X150474895Y-78517623D01*
X150359493Y-78440514D01*
X150171186Y-78362515D01*
X150167591Y-78361026D01*
X150167586Y-78361024D01*
X149963861Y-78320500D01*
X149963859Y-78320500D01*
X149756141Y-78320500D01*
X149756138Y-78320500D01*
X149552413Y-78361024D01*
X149552408Y-78361026D01*
X149360507Y-78440514D01*
X149187796Y-78555916D01*
X149187790Y-78555921D01*
X149040921Y-78702790D01*
X149040916Y-78702796D01*
X148925514Y-78875507D01*
X148846026Y-79067408D01*
X148846024Y-79067413D01*
X148805500Y-79271138D01*
X148374499Y-79271138D01*
X148333976Y-79067414D01*
X148254486Y-78875507D01*
X148139083Y-78702796D01*
X148139078Y-78702790D01*
X147992209Y-78555921D01*
X147992203Y-78555916D01*
X147934895Y-78517623D01*
X147819493Y-78440514D01*
X147631186Y-78362515D01*
X147627591Y-78361026D01*
X147627586Y-78361024D01*
X147423861Y-78320500D01*
X147423859Y-78320500D01*
X147216141Y-78320500D01*
X147216138Y-78320500D01*
X147012413Y-78361024D01*
X147012408Y-78361026D01*
X146820507Y-78440514D01*
X146647796Y-78555916D01*
X146647790Y-78555921D01*
X146500921Y-78702790D01*
X146500916Y-78702796D01*
X146385514Y-78875507D01*
X146306026Y-79067408D01*
X146306024Y-79067413D01*
X146265500Y-79271138D01*
X145834499Y-79271138D01*
X145793976Y-79067414D01*
X145714486Y-78875507D01*
X145599083Y-78702796D01*
X145599078Y-78702790D01*
X145452209Y-78555921D01*
X145452203Y-78555916D01*
X145394895Y-78517623D01*
X145279493Y-78440514D01*
X145091186Y-78362515D01*
X145087591Y-78361026D01*
X145087586Y-78361024D01*
X144883861Y-78320500D01*
X144883859Y-78320500D01*
X144676141Y-78320500D01*
X144676138Y-78320500D01*
X144472413Y-78361024D01*
X144472408Y-78361026D01*
X144280507Y-78440514D01*
X144107796Y-78555916D01*
X144107790Y-78555921D01*
X143960921Y-78702790D01*
X143960916Y-78702796D01*
X143845514Y-78875507D01*
X143766026Y-79067408D01*
X143766024Y-79067413D01*
X143725500Y-79271138D01*
X143294499Y-79271138D01*
X143253976Y-79067414D01*
X143253973Y-79067407D01*
X143253972Y-79067403D01*
X143226136Y-79000202D01*
X143218546Y-78929612D01*
X143250325Y-78866125D01*
X143253421Y-78862916D01*
X144889933Y-77226405D01*
X144952245Y-77192379D01*
X144979028Y-77189500D01*
X154986671Y-77189500D01*
X155076832Y-77165341D01*
X155157668Y-77118671D01*
X156040118Y-76236219D01*
X156102429Y-76202196D01*
X156141577Y-76199924D01*
X156147400Y-76200498D01*
X156147409Y-76200500D01*
X156147418Y-76200500D01*
X156272590Y-76200500D01*
X156272591Y-76200500D01*
X156395369Y-76176078D01*
X156511022Y-76128173D01*
X156615108Y-76058625D01*
X156703625Y-75970108D01*
X156773173Y-75866022D01*
X156821078Y-75750369D01*
X156845500Y-75627591D01*
X156845500Y-75502409D01*
X156821078Y-75379631D01*
X156773173Y-75263978D01*
X156703625Y-75159892D01*
X156615108Y-75071375D01*
X156511022Y-75001827D01*
X156395369Y-74953922D01*
X156272593Y-74929500D01*
X156272591Y-74929500D01*
X156147409Y-74929500D01*
X156147406Y-74929500D01*
X156024630Y-74953922D01*
X156024625Y-74953924D01*
X155908977Y-75001827D01*
X155804896Y-75071372D01*
X155804889Y-75071377D01*
X155716377Y-75159889D01*
X155716372Y-75159896D01*
X155646827Y-75263977D01*
X155598924Y-75379625D01*
X155598922Y-75379630D01*
X155574500Y-75502406D01*
X155574500Y-75627589D01*
X155575076Y-75633440D01*
X155561845Y-75703193D01*
X155538778Y-75734881D01*
X154830066Y-76443595D01*
X154767753Y-76477620D01*
X154740970Y-76480500D01*
X144733325Y-76480500D01*
X144643166Y-76504659D01*
X144562335Y-76551326D01*
X144562330Y-76551330D01*
X144529330Y-76584331D01*
X144496329Y-76617332D01*
X144496327Y-76617334D01*
X143154594Y-77959066D01*
X142752110Y-78361550D01*
X142689798Y-78395575D01*
X142618982Y-78390510D01*
X142614798Y-78388863D01*
X142547595Y-78361027D01*
X142547586Y-78361024D01*
X142343861Y-78320500D01*
X142343859Y-78320500D01*
X142136141Y-78320500D01*
X142136138Y-78320500D01*
X141932413Y-78361024D01*
X141932408Y-78361026D01*
X141740507Y-78440514D01*
X141567796Y-78555916D01*
X141567790Y-78555921D01*
X141420921Y-78702790D01*
X141420916Y-78702796D01*
X141305514Y-78875507D01*
X141226026Y-79067408D01*
X141226024Y-79067413D01*
X141185500Y-79271138D01*
X140754499Y-79271138D01*
X140713976Y-79067414D01*
X140713973Y-79067407D01*
X140713972Y-79067403D01*
X140686136Y-79000202D01*
X140678546Y-78929612D01*
X140710325Y-78866125D01*
X140713420Y-78862917D01*
X143619934Y-75956405D01*
X143682246Y-75922379D01*
X143709029Y-75919500D01*
X147360249Y-75919500D01*
X147428370Y-75939502D01*
X147457647Y-75965564D01*
X147461369Y-75970099D01*
X147461375Y-75970108D01*
X147549892Y-76058625D01*
X147653978Y-76128173D01*
X147769631Y-76176078D01*
X147892409Y-76200500D01*
X147892410Y-76200500D01*
X148017590Y-76200500D01*
X148017591Y-76200500D01*
X148140369Y-76176078D01*
X148256022Y-76128173D01*
X148360108Y-76058625D01*
X148448625Y-75970108D01*
X148518173Y-75866022D01*
X148566078Y-75750369D01*
X148590500Y-75627591D01*
X148590500Y-75502409D01*
X148566078Y-75379631D01*
X148518173Y-75263978D01*
X148448625Y-75159892D01*
X148360108Y-75071375D01*
X148256022Y-75001827D01*
X148140369Y-74953922D01*
X148017593Y-74929500D01*
X148017591Y-74929500D01*
X147892409Y-74929500D01*
X147892406Y-74929500D01*
X147769630Y-74953922D01*
X147769625Y-74953924D01*
X147653977Y-75001827D01*
X147549896Y-75071372D01*
X147549889Y-75071377D01*
X147461382Y-75159884D01*
X147457647Y-75164436D01*
X147398968Y-75204403D01*
X147360249Y-75210500D01*
X143463325Y-75210500D01*
X143373168Y-75234658D01*
X143373165Y-75234659D01*
X143314781Y-75268368D01*
X143314779Y-75268369D01*
X143292336Y-75281325D01*
X143292327Y-75281332D01*
X140212110Y-78361549D01*
X140149798Y-78395575D01*
X140078982Y-78390510D01*
X140074798Y-78388863D01*
X140007595Y-78361027D01*
X140007586Y-78361024D01*
X139803861Y-78320500D01*
X139803859Y-78320500D01*
X139596141Y-78320500D01*
X139596138Y-78320500D01*
X139392413Y-78361024D01*
X139392408Y-78361026D01*
X139200507Y-78440514D01*
X139027796Y-78555916D01*
X139027790Y-78555921D01*
X138880921Y-78702790D01*
X138880916Y-78702796D01*
X138765514Y-78875507D01*
X138686026Y-79067408D01*
X138686024Y-79067413D01*
X138645500Y-79271138D01*
X138214499Y-79271138D01*
X138173976Y-79067414D01*
X138094486Y-78875507D01*
X137979083Y-78702796D01*
X137979078Y-78702790D01*
X137832209Y-78555921D01*
X137832203Y-78555916D01*
X137659492Y-78440513D01*
X137659488Y-78440511D01*
X137597769Y-78414946D01*
X137542488Y-78370398D01*
X137520068Y-78303034D01*
X137537627Y-78234243D01*
X137556886Y-78209451D01*
X139530117Y-76236219D01*
X139592427Y-76202195D01*
X139631573Y-76199924D01*
X139637403Y-76200498D01*
X139637409Y-76200500D01*
X139637415Y-76200500D01*
X139762590Y-76200500D01*
X139762591Y-76200500D01*
X139885369Y-76176078D01*
X140001022Y-76128173D01*
X140105108Y-76058625D01*
X140193625Y-75970108D01*
X140263173Y-75866022D01*
X140311078Y-75750369D01*
X140335500Y-75627591D01*
X140335500Y-75502409D01*
X140311078Y-75379631D01*
X140263173Y-75263978D01*
X140193625Y-75159892D01*
X140105108Y-75071375D01*
X140001022Y-75001827D01*
X139885369Y-74953922D01*
X139762593Y-74929500D01*
X139762591Y-74929500D01*
X139637409Y-74929500D01*
X139637406Y-74929500D01*
X139514630Y-74953922D01*
X139514625Y-74953924D01*
X139398977Y-75001827D01*
X139294896Y-75071372D01*
X139294889Y-75071377D01*
X139206377Y-75159889D01*
X139206372Y-75159896D01*
X139136827Y-75263977D01*
X139088924Y-75379625D01*
X139088922Y-75379630D01*
X139064500Y-75502406D01*
X139064500Y-75627592D01*
X139065076Y-75633444D01*
X139051844Y-75703197D01*
X139028777Y-75734883D01*
X136924609Y-77839050D01*
X136924607Y-77839051D01*
X136924608Y-77839052D01*
X136876331Y-77887329D01*
X136876326Y-77887335D01*
X136829659Y-77968166D01*
X136805500Y-78058325D01*
X136805500Y-78296265D01*
X136785498Y-78364386D01*
X136731842Y-78410879D01*
X136727723Y-78412672D01*
X136660510Y-78440513D01*
X136660505Y-78440515D01*
X136487796Y-78555916D01*
X136487790Y-78555921D01*
X136340921Y-78702790D01*
X136340916Y-78702796D01*
X136225514Y-78875507D01*
X136146026Y-79067408D01*
X136146024Y-79067413D01*
X136105500Y-79271138D01*
X135674499Y-79271138D01*
X135633976Y-79067414D01*
X135554486Y-78875507D01*
X135439083Y-78702796D01*
X135439078Y-78702790D01*
X135292209Y-78555921D01*
X135292203Y-78555916D01*
X135234895Y-78517623D01*
X135119493Y-78440514D01*
X134931186Y-78362515D01*
X134927591Y-78361026D01*
X134927586Y-78361024D01*
X134723861Y-78320500D01*
X134723859Y-78320500D01*
X134516141Y-78320500D01*
X134516138Y-78320500D01*
X134312413Y-78361024D01*
X134312408Y-78361026D01*
X134245199Y-78388864D01*
X134174609Y-78396452D01*
X134111123Y-78364671D01*
X134107888Y-78361549D01*
X131916631Y-76170292D01*
X131882605Y-76107980D01*
X131887670Y-76037165D01*
X131916631Y-75992102D01*
X131938625Y-75970108D01*
X132008173Y-75866022D01*
X132056078Y-75750369D01*
X132080500Y-75627591D01*
X132080500Y-75502409D01*
X132056078Y-75379631D01*
X132008173Y-75263978D01*
X131938625Y-75159892D01*
X131850108Y-75071375D01*
X131746022Y-75001827D01*
X131630369Y-74953922D01*
X131507593Y-74929500D01*
X131507591Y-74929500D01*
X131382409Y-74929500D01*
X131382406Y-74929500D01*
X131259630Y-74953922D01*
X131259625Y-74953924D01*
X131143977Y-75001827D01*
X131039896Y-75071372D01*
X131039889Y-75071377D01*
X130951377Y-75159889D01*
X130951372Y-75159896D01*
X130881827Y-75263977D01*
X130833924Y-75379625D01*
X130833922Y-75379630D01*
X130809500Y-75502406D01*
X122717000Y-75502406D01*
X122717000Y-70422406D01*
X130809500Y-70422406D01*
X130809500Y-70422409D01*
X130809500Y-70547591D01*
X130833922Y-70670369D01*
X130881827Y-70786022D01*
X130951375Y-70890108D01*
X131039892Y-70978625D01*
X131143978Y-71048173D01*
X131259631Y-71096078D01*
X131382409Y-71120500D01*
X131382410Y-71120500D01*
X131507590Y-71120500D01*
X131507591Y-71120500D01*
X131630369Y-71096078D01*
X131746022Y-71048173D01*
X131850108Y-70978625D01*
X131938625Y-70890108D01*
X132008173Y-70786022D01*
X132056078Y-70670369D01*
X132080500Y-70547591D01*
X132080500Y-70422409D01*
X132080499Y-70422406D01*
X139064500Y-70422406D01*
X139064500Y-70422409D01*
X139064500Y-70547591D01*
X139088922Y-70670369D01*
X139136827Y-70786022D01*
X139206375Y-70890108D01*
X139294892Y-70978625D01*
X139398978Y-71048173D01*
X139514631Y-71096078D01*
X139637409Y-71120500D01*
X139637410Y-71120500D01*
X139762590Y-71120500D01*
X139762591Y-71120500D01*
X139885369Y-71096078D01*
X140001022Y-71048173D01*
X140105108Y-70978625D01*
X140193625Y-70890108D01*
X140263173Y-70786022D01*
X140311078Y-70670369D01*
X140335500Y-70547591D01*
X140335500Y-70422409D01*
X140335499Y-70422406D01*
X147319500Y-70422406D01*
X147319500Y-70422409D01*
X147319500Y-70547591D01*
X147343922Y-70670369D01*
X147391827Y-70786022D01*
X147461375Y-70890108D01*
X147549892Y-70978625D01*
X147653978Y-71048173D01*
X147769631Y-71096078D01*
X147892409Y-71120500D01*
X147892410Y-71120500D01*
X148017590Y-71120500D01*
X148017591Y-71120500D01*
X148140369Y-71096078D01*
X148256022Y-71048173D01*
X148360108Y-70978625D01*
X148448625Y-70890108D01*
X148448634Y-70890093D01*
X148452353Y-70885564D01*
X148511032Y-70845597D01*
X148549751Y-70839500D01*
X155615249Y-70839500D01*
X155683370Y-70859502D01*
X155712647Y-70885564D01*
X155716369Y-70890099D01*
X155716375Y-70890108D01*
X155804892Y-70978625D01*
X155908978Y-71048173D01*
X156024631Y-71096078D01*
X156147409Y-71120500D01*
X156147410Y-71120500D01*
X156272590Y-71120500D01*
X156272591Y-71120500D01*
X156395369Y-71096078D01*
X156511022Y-71048173D01*
X156615108Y-70978625D01*
X156703625Y-70890108D01*
X156773173Y-70786022D01*
X156821078Y-70670369D01*
X156845500Y-70547591D01*
X156845500Y-70422409D01*
X156821078Y-70299631D01*
X156773173Y-70183978D01*
X156703625Y-70079892D01*
X156615108Y-69991375D01*
X156511022Y-69921827D01*
X156395369Y-69873922D01*
X156272593Y-69849500D01*
X156272591Y-69849500D01*
X156147409Y-69849500D01*
X156147406Y-69849500D01*
X156024630Y-69873922D01*
X156024625Y-69873924D01*
X155908977Y-69921827D01*
X155804896Y-69991372D01*
X155804889Y-69991377D01*
X155716382Y-70079884D01*
X155712647Y-70084436D01*
X155653968Y-70124403D01*
X155615249Y-70130500D01*
X148549751Y-70130500D01*
X148481630Y-70110498D01*
X148452353Y-70084436D01*
X148448631Y-70079901D01*
X148448625Y-70079892D01*
X148360108Y-69991375D01*
X148256022Y-69921827D01*
X148140369Y-69873922D01*
X148017593Y-69849500D01*
X148017591Y-69849500D01*
X147892409Y-69849500D01*
X147892406Y-69849500D01*
X147769630Y-69873922D01*
X147769625Y-69873924D01*
X147653977Y-69921827D01*
X147549896Y-69991372D01*
X147549889Y-69991377D01*
X147461377Y-70079889D01*
X147461372Y-70079896D01*
X147391827Y-70183977D01*
X147343924Y-70299625D01*
X147343922Y-70299630D01*
X147319500Y-70422406D01*
X140335499Y-70422406D01*
X140311078Y-70299631D01*
X140263173Y-70183978D01*
X140193625Y-70079892D01*
X140105108Y-69991375D01*
X140001022Y-69921827D01*
X139885369Y-69873922D01*
X139762593Y-69849500D01*
X139762591Y-69849500D01*
X139637409Y-69849500D01*
X139637406Y-69849500D01*
X139514630Y-69873922D01*
X139514625Y-69873924D01*
X139398977Y-69921827D01*
X139294896Y-69991372D01*
X139294889Y-69991377D01*
X139206377Y-70079889D01*
X139206372Y-70079896D01*
X139136827Y-70183977D01*
X139088924Y-70299625D01*
X139088922Y-70299630D01*
X139064500Y-70422406D01*
X132080499Y-70422406D01*
X132056078Y-70299631D01*
X132008173Y-70183978D01*
X131938625Y-70079892D01*
X131850108Y-69991375D01*
X131746022Y-69921827D01*
X131630369Y-69873922D01*
X131507593Y-69849500D01*
X131507591Y-69849500D01*
X131382409Y-69849500D01*
X131382406Y-69849500D01*
X131259630Y-69873922D01*
X131259625Y-69873924D01*
X131143977Y-69921827D01*
X131039896Y-69991372D01*
X131039889Y-69991377D01*
X130951377Y-70079889D01*
X130951372Y-70079896D01*
X130881827Y-70183977D01*
X130833924Y-70299625D01*
X130833922Y-70299630D01*
X130809500Y-70422406D01*
X122717000Y-70422406D01*
X122717000Y-64569999D01*
X145876500Y-64569999D01*
X145876500Y-64716001D01*
X145909824Y-64840372D01*
X145914289Y-64857033D01*
X145987286Y-64983467D01*
X145987294Y-64983477D01*
X146090522Y-65086705D01*
X146090527Y-65086709D01*
X146090529Y-65086711D01*
X146090530Y-65086712D01*
X146090532Y-65086713D01*
X146216966Y-65159710D01*
X146216968Y-65159710D01*
X146216971Y-65159712D01*
X146357999Y-65197500D01*
X146358001Y-65197500D01*
X146503999Y-65197500D01*
X146504001Y-65197500D01*
X146645029Y-65159712D01*
X146645032Y-65159710D01*
X146645033Y-65159710D01*
X146708250Y-65123211D01*
X146771471Y-65086711D01*
X146874711Y-64983471D01*
X146947712Y-64857029D01*
X146985500Y-64716001D01*
X146985500Y-64642027D01*
X147005502Y-64573906D01*
X147022400Y-64552936D01*
X148035291Y-63540045D01*
X148035301Y-63540038D01*
X148111665Y-63463674D01*
X148111671Y-63463668D01*
X148158341Y-63382832D01*
X148182500Y-63292671D01*
X148182500Y-56996872D01*
X148202502Y-56928751D01*
X148219400Y-56907781D01*
X148271711Y-56855471D01*
X148344712Y-56729029D01*
X148382500Y-56588001D01*
X148382500Y-56441999D01*
X148344712Y-56300971D01*
X148344710Y-56300968D01*
X148344710Y-56300966D01*
X148271713Y-56174532D01*
X148271705Y-56174522D01*
X148168477Y-56071294D01*
X148168467Y-56071286D01*
X148042033Y-55998289D01*
X148011359Y-55990070D01*
X147901001Y-55960500D01*
X147754999Y-55960500D01*
X147686310Y-55978905D01*
X147613966Y-55998289D01*
X147487532Y-56071286D01*
X147487522Y-56071294D01*
X147384294Y-56174522D01*
X147384286Y-56174532D01*
X147311289Y-56300966D01*
X147310481Y-56303981D01*
X147273500Y-56441999D01*
X147273500Y-56588001D01*
X147280290Y-56613341D01*
X147311289Y-56729033D01*
X147384286Y-56855467D01*
X147384288Y-56855470D01*
X147384289Y-56855471D01*
X147436596Y-56907778D01*
X147470620Y-56970088D01*
X147473500Y-56996872D01*
X147473500Y-63046971D01*
X147453498Y-63115092D01*
X147436595Y-63136066D01*
X146521066Y-64051595D01*
X146458754Y-64085621D01*
X146431971Y-64088500D01*
X146357999Y-64088500D01*
X146271686Y-64111627D01*
X146216966Y-64126289D01*
X146090532Y-64199286D01*
X146090522Y-64199294D01*
X145987294Y-64302522D01*
X145987286Y-64302532D01*
X145914289Y-64428966D01*
X145914288Y-64428971D01*
X145876500Y-64569999D01*
X122717000Y-64569999D01*
X122717000Y-61560267D01*
X122737002Y-61492146D01*
X122790658Y-61445653D01*
X122798940Y-61442222D01*
X122919267Y-61397342D01*
X123035404Y-61310404D01*
X123122342Y-61194267D01*
X123173040Y-61058342D01*
X123179315Y-60999978D01*
X124225001Y-60999978D01*
X124235493Y-61102691D01*
X124290642Y-61269122D01*
X124382683Y-61418344D01*
X124382688Y-61418350D01*
X124506649Y-61542311D01*
X124506655Y-61542316D01*
X124655877Y-61634357D01*
X124822308Y-61689506D01*
X124925012Y-61699999D01*
X125037500Y-61699999D01*
X125537500Y-61699999D01*
X125649978Y-61699999D01*
X125752691Y-61689506D01*
X125919122Y-61634357D01*
X126068344Y-61542316D01*
X126068350Y-61542311D01*
X126192311Y-61418350D01*
X126192316Y-61418344D01*
X126284357Y-61269122D01*
X126339506Y-61102691D01*
X126349999Y-60999987D01*
X126350000Y-60999987D01*
X126350000Y-60575000D01*
X125537500Y-60575000D01*
X125537500Y-61699999D01*
X125037500Y-61699999D01*
X125037500Y-60575000D01*
X124225001Y-60575000D01*
X124225001Y-60999978D01*
X123179315Y-60999978D01*
X123179500Y-60998255D01*
X123179499Y-60319500D01*
X123179499Y-59651748D01*
X123179498Y-59651735D01*
X123179313Y-59650012D01*
X124225000Y-59650012D01*
X124225000Y-60075000D01*
X125037500Y-60075000D01*
X125537500Y-60075000D01*
X126349999Y-60075000D01*
X126349999Y-59650021D01*
X126339506Y-59547308D01*
X126284357Y-59380877D01*
X126192316Y-59231655D01*
X126192311Y-59231649D01*
X126068350Y-59107688D01*
X126068344Y-59107683D01*
X125919122Y-59015642D01*
X125752691Y-58960493D01*
X125649987Y-58950000D01*
X125537500Y-58950000D01*
X125537500Y-60075000D01*
X125037500Y-60075000D01*
X125037500Y-58950000D01*
X124925021Y-58950000D01*
X124822308Y-58960493D01*
X124655877Y-59015642D01*
X124506655Y-59107683D01*
X124506649Y-59107688D01*
X124382688Y-59231649D01*
X124382683Y-59231655D01*
X124290642Y-59380877D01*
X124235493Y-59547308D01*
X124225000Y-59650012D01*
X123179313Y-59650012D01*
X123173040Y-59591660D01*
X123173040Y-59591658D01*
X123122342Y-59455733D01*
X123061631Y-59374631D01*
X123036821Y-59308110D01*
X123036500Y-59299123D01*
X123036500Y-56144499D01*
X123056502Y-56076378D01*
X123110158Y-56029885D01*
X123162500Y-56018499D01*
X123607064Y-56018499D01*
X123607066Y-56018499D01*
X123607069Y-56018498D01*
X123607072Y-56018498D01*
X123643663Y-56011219D01*
X123681301Y-56003734D01*
X123765484Y-55947484D01*
X123821734Y-55863301D01*
X123836500Y-55789067D01*
X123836499Y-55097357D01*
X123856501Y-55029239D01*
X123910157Y-54982746D01*
X123980430Y-54972642D01*
X124045011Y-55002135D01*
X124083395Y-55061862D01*
X124086948Y-55077648D01*
X124095929Y-55134352D01*
X124150995Y-55303827D01*
X124152083Y-55307174D01*
X124228272Y-55456703D01*
X124234585Y-55469093D01*
X124341398Y-55616108D01*
X124469891Y-55744601D01*
X124531092Y-55789066D01*
X124616910Y-55851417D01*
X124778826Y-55933917D01*
X124951654Y-55990072D01*
X125131139Y-56018500D01*
X125131142Y-56018500D01*
X125312858Y-56018500D01*
X125312861Y-56018500D01*
X125492346Y-55990072D01*
X125665174Y-55933917D01*
X125827090Y-55851417D01*
X125974106Y-55744603D01*
X126102603Y-55616106D01*
X126176425Y-55514499D01*
X150575500Y-55514499D01*
X150575500Y-55660501D01*
X150598034Y-55744601D01*
X150613289Y-55801533D01*
X150686286Y-55927967D01*
X150686294Y-55927977D01*
X150789522Y-56031205D01*
X150789527Y-56031209D01*
X150789529Y-56031211D01*
X150789530Y-56031212D01*
X150789532Y-56031213D01*
X150915966Y-56104210D01*
X150915968Y-56104210D01*
X150915971Y-56104212D01*
X151056999Y-56142000D01*
X151057001Y-56142000D01*
X151202999Y-56142000D01*
X151203001Y-56142000D01*
X151344029Y-56104212D01*
X151344032Y-56104210D01*
X151344033Y-56104210D01*
X151457844Y-56038501D01*
X151470471Y-56031211D01*
X151522778Y-55978903D01*
X151585088Y-55944880D01*
X151611872Y-55942000D01*
X152543471Y-55942000D01*
X152611592Y-55962002D01*
X152632566Y-55978905D01*
X158400095Y-61746434D01*
X158434121Y-61808746D01*
X158437000Y-61835529D01*
X158437000Y-78536522D01*
X158416998Y-78604643D01*
X158363342Y-78651136D01*
X158293068Y-78661240D01*
X158228488Y-78631746D01*
X158221905Y-78625617D01*
X158152209Y-78555921D01*
X158152203Y-78555916D01*
X158094895Y-78517623D01*
X157979493Y-78440514D01*
X157791186Y-78362515D01*
X157787591Y-78361026D01*
X157787586Y-78361024D01*
X157583861Y-78320500D01*
X157583859Y-78320500D01*
X157376141Y-78320500D01*
X157376138Y-78320500D01*
X157172413Y-78361024D01*
X157172408Y-78361026D01*
X156980507Y-78440514D01*
X156807796Y-78555916D01*
X156807790Y-78555921D01*
X156660921Y-78702790D01*
X156660916Y-78702796D01*
X156545514Y-78875507D01*
X156466026Y-79067408D01*
X156466024Y-79067413D01*
X156425500Y-79271138D01*
X156425500Y-79271141D01*
X156425500Y-79478859D01*
X156466024Y-79682586D01*
X156545514Y-79874493D01*
X156622623Y-79989895D01*
X156660916Y-80047203D01*
X156660921Y-80047209D01*
X156807790Y-80194078D01*
X156807796Y-80194083D01*
X156980507Y-80309486D01*
X157172414Y-80388976D01*
X157376141Y-80429500D01*
X157376142Y-80429500D01*
X157583858Y-80429500D01*
X157583859Y-80429500D01*
X157787586Y-80388976D01*
X157979493Y-80309486D01*
X158152204Y-80194083D01*
X158176127Y-80170160D01*
X158221905Y-80124383D01*
X158284217Y-80090357D01*
X158355032Y-80095422D01*
X158411868Y-80137969D01*
X158436679Y-80204489D01*
X158437000Y-80213478D01*
X158437000Y-88289499D01*
X158416998Y-88357620D01*
X158363342Y-88404113D01*
X158311000Y-88415499D01*
X158044936Y-88415499D01*
X158044926Y-88415500D01*
X157970699Y-88430264D01*
X157886515Y-88486515D01*
X157830266Y-88570696D01*
X157815500Y-88644929D01*
X157815500Y-91695062D01*
X157815501Y-91695071D01*
X157830265Y-91769299D01*
X157886516Y-91853483D01*
X157970697Y-91909732D01*
X157970699Y-91909733D01*
X158044933Y-91924499D01*
X161095066Y-91924498D01*
X161095069Y-91924497D01*
X161095072Y-91924497D01*
X161131663Y-91917218D01*
X161169301Y-91909733D01*
X161253484Y-91853483D01*
X161309734Y-91769300D01*
X161324500Y-91695066D01*
X161324499Y-88644933D01*
X161309734Y-88570698D01*
X161253484Y-88486515D01*
X161253483Y-88486514D01*
X161169302Y-88430265D01*
X161095069Y-88415499D01*
X161095067Y-88415499D01*
X159272000Y-88415499D01*
X159203879Y-88395497D01*
X159157386Y-88341841D01*
X159146000Y-88289499D01*
X159146000Y-80294878D01*
X159166002Y-80226757D01*
X159219658Y-80180264D01*
X159289932Y-80170160D01*
X159341232Y-80192764D01*
X159342649Y-80190644D01*
X159366007Y-80206251D01*
X159520507Y-80309486D01*
X159712414Y-80388976D01*
X159916141Y-80429500D01*
X159916142Y-80429500D01*
X160123858Y-80429500D01*
X160123859Y-80429500D01*
X160327586Y-80388976D01*
X160519493Y-80309486D01*
X160692204Y-80194083D01*
X160839083Y-80047204D01*
X160954486Y-79874493D01*
X161033976Y-79682586D01*
X161074500Y-79478859D01*
X161074500Y-79271141D01*
X161033976Y-79067414D01*
X160954486Y-78875507D01*
X160839083Y-78702796D01*
X160839078Y-78702790D01*
X160692209Y-78555921D01*
X160692203Y-78555916D01*
X160634895Y-78517623D01*
X160519493Y-78440514D01*
X160331186Y-78362515D01*
X160327591Y-78361026D01*
X160327586Y-78361024D01*
X160123861Y-78320500D01*
X160123859Y-78320500D01*
X159916141Y-78320500D01*
X159916138Y-78320500D01*
X159795220Y-78344552D01*
X159712414Y-78361024D01*
X159712412Y-78361024D01*
X159712406Y-78361026D01*
X159709564Y-78361888D01*
X159708004Y-78361901D01*
X159706344Y-78362232D01*
X159706281Y-78361916D01*
X159638570Y-78362515D01*
X159578508Y-78324660D01*
X159548446Y-78260342D01*
X159547000Y-78241310D01*
X159547000Y-60425267D01*
X159567002Y-60357146D01*
X159620658Y-60310653D01*
X159628940Y-60307222D01*
X159749267Y-60262342D01*
X159865404Y-60175404D01*
X159952342Y-60059267D01*
X160003040Y-59923342D01*
X160009500Y-59863255D01*
X160009499Y-58516746D01*
X160003040Y-58456658D01*
X159952342Y-58320733D01*
X159865404Y-58204596D01*
X159749267Y-58117658D01*
X159749265Y-58117657D01*
X159749266Y-58117657D01*
X159613349Y-58066962D01*
X159613344Y-58066960D01*
X159613342Y-58066960D01*
X159583298Y-58063730D01*
X159553256Y-58060500D01*
X158831753Y-58060500D01*
X158831729Y-58060502D01*
X158771660Y-58066959D01*
X158771658Y-58066959D01*
X158635733Y-58117657D01*
X158519596Y-58204596D01*
X158432657Y-58320734D01*
X158381962Y-58456650D01*
X158381960Y-58456658D01*
X158375500Y-58516737D01*
X158375500Y-59863246D01*
X158375502Y-59863270D01*
X158381959Y-59923339D01*
X158381959Y-59923341D01*
X158432657Y-60059266D01*
X158432658Y-60059267D01*
X158519596Y-60175404D01*
X158635733Y-60262342D01*
X158756035Y-60307213D01*
X158812868Y-60349758D01*
X158837679Y-60416279D01*
X158838000Y-60425267D01*
X158838000Y-60877470D01*
X158817998Y-60945591D01*
X158764342Y-60992084D01*
X158694068Y-61002188D01*
X158629488Y-60972694D01*
X158622905Y-60966565D01*
X152960172Y-55303832D01*
X152960166Y-55303827D01*
X152879333Y-55257159D01*
X152789174Y-55233000D01*
X152789171Y-55233000D01*
X151611872Y-55233000D01*
X151543751Y-55212998D01*
X151535982Y-55206737D01*
X158375500Y-55206737D01*
X158375500Y-56553246D01*
X158375502Y-56553270D01*
X158381959Y-56613339D01*
X158381959Y-56613341D01*
X158432657Y-56749266D01*
X158432658Y-56749267D01*
X158519596Y-56865404D01*
X158635733Y-56952342D01*
X158771658Y-57003040D01*
X158831745Y-57009500D01*
X159553254Y-57009499D01*
X159613342Y-57003040D01*
X159683766Y-56976773D01*
X159754582Y-56971707D01*
X159816891Y-57005730D01*
X159816894Y-57005733D01*
X160862595Y-58051434D01*
X160896621Y-58113746D01*
X160899500Y-58140529D01*
X160899500Y-78115674D01*
X160923659Y-78205833D01*
X160970326Y-78286664D01*
X160970328Y-78286666D01*
X160970329Y-78286668D01*
X161468596Y-78784935D01*
X161502620Y-78847246D01*
X161505500Y-78874029D01*
X161505500Y-80200063D01*
X161505501Y-80200073D01*
X161520265Y-80274300D01*
X161576516Y-80358484D01*
X161660697Y-80414733D01*
X161660699Y-80414734D01*
X161734933Y-80429500D01*
X163385066Y-80429499D01*
X163385069Y-80429498D01*
X163385073Y-80429498D01*
X163434326Y-80419701D01*
X163459301Y-80414734D01*
X163543484Y-80358484D01*
X163599734Y-80274301D01*
X163614500Y-80200067D01*
X163614499Y-78549934D01*
X163614498Y-78549931D01*
X163614498Y-78549926D01*
X163599734Y-78475699D01*
X163543484Y-78391516D01*
X163543483Y-78391515D01*
X163459302Y-78335266D01*
X163385069Y-78320500D01*
X163385067Y-78320500D01*
X162059029Y-78320500D01*
X161990908Y-78300498D01*
X161969934Y-78283595D01*
X161645405Y-77959066D01*
X161611379Y-77896754D01*
X161608500Y-77869971D01*
X161608500Y-60873074D01*
X165265500Y-60873074D01*
X165265500Y-61046926D01*
X165292697Y-61218638D01*
X165346420Y-61383981D01*
X165401533Y-61492146D01*
X165425349Y-61538887D01*
X165527536Y-61679535D01*
X165650464Y-61802463D01*
X165650467Y-61802465D01*
X165791116Y-61904653D01*
X165946019Y-61983580D01*
X166111362Y-62037303D01*
X166283074Y-62064500D01*
X166283077Y-62064500D01*
X166456923Y-62064500D01*
X166456926Y-62064500D01*
X166628638Y-62037303D01*
X166793981Y-61983580D01*
X166948884Y-61904653D01*
X167089533Y-61802465D01*
X167212465Y-61679533D01*
X167314653Y-61538884D01*
X167393580Y-61383981D01*
X167447303Y-61218638D01*
X167474500Y-61046926D01*
X167474500Y-60873074D01*
X167447303Y-60701362D01*
X167393580Y-60536019D01*
X167314653Y-60381116D01*
X167212465Y-60240467D01*
X167212463Y-60240464D01*
X167089535Y-60117536D01*
X166948887Y-60015349D01*
X166948886Y-60015348D01*
X166948884Y-60015347D01*
X166793981Y-59936420D01*
X166793978Y-59936419D01*
X166793976Y-59936418D01*
X166628642Y-59882698D01*
X166628640Y-59882697D01*
X166628638Y-59882697D01*
X166456926Y-59855500D01*
X166283074Y-59855500D01*
X166111362Y-59882697D01*
X166111360Y-59882697D01*
X166111357Y-59882698D01*
X165946023Y-59936418D01*
X165946017Y-59936421D01*
X165791112Y-60015349D01*
X165650464Y-60117536D01*
X165527536Y-60240464D01*
X165425349Y-60381112D01*
X165346421Y-60536017D01*
X165346418Y-60536023D01*
X165292698Y-60701357D01*
X165292697Y-60701360D01*
X165292697Y-60701362D01*
X165265500Y-60873074D01*
X161608500Y-60873074D01*
X161608500Y-60443834D01*
X161628502Y-60375713D01*
X161682158Y-60329220D01*
X161747975Y-60318557D01*
X161756745Y-60319500D01*
X162478254Y-60319499D01*
X162538342Y-60313040D01*
X162674267Y-60262342D01*
X162790404Y-60175404D01*
X162877342Y-60059267D01*
X162928040Y-59923342D01*
X162934500Y-59863255D01*
X162934499Y-58926527D01*
X162943285Y-58896604D01*
X162949913Y-58866141D01*
X162953725Y-58861048D01*
X162954501Y-58858407D01*
X162971396Y-58837441D01*
X162997436Y-58811401D01*
X163059747Y-58777379D01*
X163086528Y-58774500D01*
X165233805Y-58774500D01*
X165301926Y-58794502D01*
X165346072Y-58843297D01*
X165346418Y-58843976D01*
X165346420Y-58843981D01*
X165405786Y-58960493D01*
X165425349Y-58998887D01*
X165527536Y-59139535D01*
X165650464Y-59262463D01*
X165650467Y-59262465D01*
X165791116Y-59364653D01*
X165946019Y-59443580D01*
X166111362Y-59497303D01*
X166283074Y-59524500D01*
X166283077Y-59524500D01*
X166456923Y-59524500D01*
X166456926Y-59524500D01*
X166628638Y-59497303D01*
X166793981Y-59443580D01*
X166948884Y-59364653D01*
X167089533Y-59262465D01*
X167212465Y-59139533D01*
X167314653Y-58998884D01*
X167393580Y-58843981D01*
X167447303Y-58678638D01*
X167474500Y-58506926D01*
X167474500Y-58333074D01*
X167447303Y-58161362D01*
X167393580Y-57996019D01*
X167314653Y-57841116D01*
X167212465Y-57700467D01*
X167212463Y-57700464D01*
X167089535Y-57577536D01*
X166948887Y-57475349D01*
X166948886Y-57475348D01*
X166948884Y-57475347D01*
X166793981Y-57396420D01*
X166793978Y-57396419D01*
X166793976Y-57396418D01*
X166628642Y-57342698D01*
X166628640Y-57342697D01*
X166628638Y-57342697D01*
X166456926Y-57315500D01*
X166283074Y-57315500D01*
X166111362Y-57342697D01*
X166111360Y-57342697D01*
X166111357Y-57342698D01*
X165946023Y-57396418D01*
X165946017Y-57396421D01*
X165791112Y-57475349D01*
X165650464Y-57577536D01*
X165527536Y-57700464D01*
X165425349Y-57841112D01*
X165425347Y-57841116D01*
X165346420Y-57996019D01*
X165346419Y-57996021D01*
X165346072Y-57996703D01*
X165297324Y-58048318D01*
X165233805Y-58065500D01*
X162840825Y-58065500D01*
X162750669Y-58089658D01*
X162750664Y-58089660D01*
X162742622Y-58094303D01*
X162673625Y-58111036D01*
X162635598Y-58103235D01*
X162538342Y-58066960D01*
X162508298Y-58063730D01*
X162478256Y-58060500D01*
X161756753Y-58060500D01*
X161756740Y-58060501D01*
X161747963Y-58061445D01*
X161678095Y-58048836D01*
X161626135Y-58000455D01*
X161608500Y-57936166D01*
X161608500Y-57894829D01*
X161608499Y-57894825D01*
X161584340Y-57804666D01*
X161537673Y-57723835D01*
X161537669Y-57723830D01*
X161514303Y-57700464D01*
X161471668Y-57657829D01*
X160046404Y-56232565D01*
X160012378Y-56170253D01*
X160009499Y-56143470D01*
X160009499Y-55206741D01*
X160009499Y-55206737D01*
X161300500Y-55206737D01*
X161300500Y-56553246D01*
X161300502Y-56553270D01*
X161306959Y-56613339D01*
X161306959Y-56613341D01*
X161357657Y-56749266D01*
X161357658Y-56749267D01*
X161444596Y-56865404D01*
X161560733Y-56952342D01*
X161696658Y-57003040D01*
X161756745Y-57009500D01*
X162478254Y-57009499D01*
X162538342Y-57003040D01*
X162674267Y-56952342D01*
X162790404Y-56865404D01*
X162877342Y-56749267D01*
X162928040Y-56613342D01*
X162934500Y-56553255D01*
X162934500Y-56360500D01*
X162954502Y-56292379D01*
X163008158Y-56245886D01*
X163060500Y-56234500D01*
X165233805Y-56234500D01*
X165301926Y-56254502D01*
X165346072Y-56303297D01*
X165346418Y-56303976D01*
X165346420Y-56303981D01*
X165425347Y-56458884D01*
X165425349Y-56458887D01*
X165527536Y-56599535D01*
X165650464Y-56722463D01*
X165742859Y-56789592D01*
X165791116Y-56824653D01*
X165946019Y-56903580D01*
X166111362Y-56957303D01*
X166283074Y-56984500D01*
X166283077Y-56984500D01*
X166456923Y-56984500D01*
X166456926Y-56984500D01*
X166628638Y-56957303D01*
X166793981Y-56903580D01*
X166948884Y-56824653D01*
X167089533Y-56722465D01*
X167212465Y-56599533D01*
X167314653Y-56458884D01*
X167393580Y-56303981D01*
X167447303Y-56138638D01*
X167474500Y-55966926D01*
X167474500Y-55793074D01*
X167447303Y-55621362D01*
X167393580Y-55456019D01*
X167314653Y-55301116D01*
X167246082Y-55206737D01*
X167212463Y-55160464D01*
X167089535Y-55037536D01*
X166948886Y-54935348D01*
X166948194Y-54934995D01*
X166934987Y-54928266D01*
X166883373Y-54879518D01*
X166866307Y-54810603D01*
X166889208Y-54743402D01*
X166944806Y-54699250D01*
X166992191Y-54690000D01*
X167267824Y-54690000D01*
X167267840Y-54689999D01*
X167327371Y-54683599D01*
X167462089Y-54633352D01*
X167577189Y-54547189D01*
X167663352Y-54432089D01*
X167713599Y-54297371D01*
X167719999Y-54237840D01*
X167720000Y-54237823D01*
X167720000Y-53590000D01*
X166803012Y-53590000D01*
X166835925Y-53532993D01*
X166870000Y-53405826D01*
X166870000Y-53274174D01*
X166835925Y-53147007D01*
X166803012Y-53090000D01*
X167720000Y-53090000D01*
X167720000Y-52442176D01*
X167719999Y-52442159D01*
X167713599Y-52382628D01*
X167663352Y-52247910D01*
X167577189Y-52132810D01*
X167462089Y-52046647D01*
X167327371Y-51996400D01*
X167267840Y-51990000D01*
X166620000Y-51990000D01*
X166620000Y-52906988D01*
X166562993Y-52874075D01*
X166435826Y-52840000D01*
X166304174Y-52840000D01*
X166177007Y-52874075D01*
X166120000Y-52906988D01*
X166120000Y-51990000D01*
X165472159Y-51990000D01*
X165412628Y-51996400D01*
X165277910Y-52046647D01*
X165162810Y-52132810D01*
X165076647Y-52247910D01*
X165026400Y-52382628D01*
X165020000Y-52442159D01*
X165020000Y-53090000D01*
X165936988Y-53090000D01*
X165904075Y-53147007D01*
X165870000Y-53274174D01*
X165870000Y-53405826D01*
X165904075Y-53532993D01*
X165936988Y-53590000D01*
X165020000Y-53590000D01*
X165020000Y-54237840D01*
X165026400Y-54297371D01*
X165076647Y-54432089D01*
X165162810Y-54547189D01*
X165277910Y-54633352D01*
X165412628Y-54683599D01*
X165472159Y-54689999D01*
X165472176Y-54690000D01*
X165747809Y-54690000D01*
X165815930Y-54710002D01*
X165862423Y-54763658D01*
X165872527Y-54833932D01*
X165843033Y-54898512D01*
X165805013Y-54928265D01*
X165799345Y-54931153D01*
X165791113Y-54935348D01*
X165650464Y-55037536D01*
X165527536Y-55160464D01*
X165425349Y-55301112D01*
X165425347Y-55301116D01*
X165346420Y-55456019D01*
X165346419Y-55456021D01*
X165346072Y-55456703D01*
X165297324Y-55508318D01*
X165233805Y-55525500D01*
X163060499Y-55525500D01*
X162992378Y-55505498D01*
X162945885Y-55451842D01*
X162934499Y-55399500D01*
X162934499Y-55206753D01*
X162934499Y-55206746D01*
X162928040Y-55146658D01*
X162877342Y-55010733D01*
X162790404Y-54894596D01*
X162674267Y-54807658D01*
X162674265Y-54807657D01*
X162674266Y-54807657D01*
X162538349Y-54756962D01*
X162538344Y-54756960D01*
X162538342Y-54756960D01*
X162492505Y-54752032D01*
X162478256Y-54750500D01*
X161756753Y-54750500D01*
X161756729Y-54750502D01*
X161696660Y-54756959D01*
X161696658Y-54756959D01*
X161560733Y-54807657D01*
X161444596Y-54894596D01*
X161357657Y-55010734D01*
X161306962Y-55146650D01*
X161306960Y-55146658D01*
X161300500Y-55206737D01*
X160009499Y-55206737D01*
X160003040Y-55146660D01*
X160003040Y-55146658D01*
X159952342Y-55010733D01*
X159931391Y-54982746D01*
X159865404Y-54894596D01*
X159749267Y-54807658D01*
X159749265Y-54807657D01*
X159749266Y-54807657D01*
X159613349Y-54756962D01*
X159613344Y-54756960D01*
X159613342Y-54756960D01*
X159567505Y-54752032D01*
X159553256Y-54750500D01*
X158831753Y-54750500D01*
X158831729Y-54750502D01*
X158771660Y-54756959D01*
X158771658Y-54756959D01*
X158635733Y-54807657D01*
X158519596Y-54894596D01*
X158432657Y-55010734D01*
X158381962Y-55146650D01*
X158381960Y-55146658D01*
X158375500Y-55206737D01*
X151535982Y-55206737D01*
X151522781Y-55196099D01*
X151470471Y-55143789D01*
X151470470Y-55143788D01*
X151470467Y-55143786D01*
X151344033Y-55070789D01*
X151310716Y-55061862D01*
X151203001Y-55033000D01*
X151056999Y-55033000D01*
X150970686Y-55056127D01*
X150915966Y-55070789D01*
X150789532Y-55143786D01*
X150789522Y-55143794D01*
X150686294Y-55247022D01*
X150686286Y-55247032D01*
X150613289Y-55373466D01*
X150593040Y-55449038D01*
X150575500Y-55514499D01*
X126176425Y-55514499D01*
X126209417Y-55469090D01*
X126291917Y-55307174D01*
X126348072Y-55134346D01*
X126376500Y-54954861D01*
X126376500Y-54773139D01*
X126348072Y-54593654D01*
X126291917Y-54420826D01*
X126209417Y-54258910D01*
X126102603Y-54111894D01*
X126102601Y-54111891D01*
X125974108Y-53983398D01*
X125827093Y-53876585D01*
X125827092Y-53876584D01*
X125827090Y-53876583D01*
X125665174Y-53794083D01*
X125665171Y-53794082D01*
X125665169Y-53794081D01*
X125492351Y-53737929D01*
X125492347Y-53737928D01*
X125492346Y-53737928D01*
X125312861Y-53709500D01*
X125131139Y-53709500D01*
X124951654Y-53737928D01*
X124951648Y-53737929D01*
X124778830Y-53794081D01*
X124778824Y-53794084D01*
X124616906Y-53876585D01*
X124469891Y-53983398D01*
X124341398Y-54111891D01*
X124234585Y-54258906D01*
X124152084Y-54420824D01*
X124152081Y-54420830D01*
X124095929Y-54593647D01*
X124095928Y-54593654D01*
X124089641Y-54633352D01*
X124086948Y-54650353D01*
X124056535Y-54714506D01*
X123996266Y-54752032D01*
X123925277Y-54751018D01*
X123866105Y-54711784D01*
X123837538Y-54646789D01*
X123836499Y-54630641D01*
X123836499Y-53938936D01*
X123836498Y-53938926D01*
X123821734Y-53864699D01*
X123765483Y-53780515D01*
X123681302Y-53724266D01*
X123607067Y-53709500D01*
X121756936Y-53709500D01*
X121756926Y-53709501D01*
X121682699Y-53724265D01*
X121598515Y-53780516D01*
X121542266Y-53864697D01*
X121527500Y-53938930D01*
X118610500Y-53938930D01*
X118610500Y-47177474D01*
X118630502Y-47109353D01*
X118684158Y-47062860D01*
X118754432Y-47052756D01*
X118819012Y-47082250D01*
X118841265Y-47107472D01*
X118957812Y-47281897D01*
X118957823Y-47281912D01*
X119187409Y-47561664D01*
X119187427Y-47561683D01*
X119443316Y-47817572D01*
X119443335Y-47817590D01*
X119723087Y-48047176D01*
X119723096Y-48047183D01*
X120024019Y-48248253D01*
X120343202Y-48418860D01*
X120677570Y-48557360D01*
X121023903Y-48662419D01*
X121378867Y-48733026D01*
X121739041Y-48768500D01*
X121739050Y-48768500D01*
X122100950Y-48768500D01*
X122100959Y-48768500D01*
X122461133Y-48733026D01*
X122816097Y-48662419D01*
X123162430Y-48557360D01*
X123496798Y-48418860D01*
X123815981Y-48248253D01*
X124116904Y-48047183D01*
X124396670Y-47817585D01*
X124652585Y-47561670D01*
X124882183Y-47281904D01*
X125083253Y-46980981D01*
X125253860Y-46661798D01*
X125392360Y-46327430D01*
X125497419Y-45981097D01*
X125568026Y-45626133D01*
X125603500Y-45265959D01*
X125603500Y-44904041D01*
X125568026Y-44543867D01*
X125530459Y-44355007D01*
X138493000Y-44355007D01*
X138493000Y-44544993D01*
X138522278Y-44729840D01*
X138522722Y-44732644D01*
X138578414Y-44904050D01*
X138581429Y-44913327D01*
X138667681Y-45082606D01*
X138779352Y-45236308D01*
X138779354Y-45236310D01*
X138779356Y-45236313D01*
X138913686Y-45370643D01*
X138913689Y-45370645D01*
X138913692Y-45370648D01*
X139067394Y-45482319D01*
X139236673Y-45568571D01*
X139417360Y-45627279D01*
X139605007Y-45657000D01*
X139605010Y-45657000D01*
X139794990Y-45657000D01*
X139794993Y-45657000D01*
X139982640Y-45627279D01*
X140163327Y-45568571D01*
X140332606Y-45482319D01*
X140486308Y-45370648D01*
X140620648Y-45236308D01*
X140728922Y-45087281D01*
X140785142Y-45043929D01*
X140855878Y-45037854D01*
X140918670Y-45070985D01*
X140943123Y-45104141D01*
X140997711Y-45211275D01*
X141051347Y-45285098D01*
X141051348Y-45285098D01*
X141757037Y-44579409D01*
X141774075Y-44642993D01*
X141839901Y-44757007D01*
X141932993Y-44850099D01*
X142047007Y-44915925D01*
X142110590Y-44932962D01*
X141404900Y-45638651D01*
X141478724Y-45692288D01*
X141682432Y-45796082D01*
X141682438Y-45796085D01*
X141899867Y-45866732D01*
X142125689Y-45902500D01*
X142354311Y-45902500D01*
X142580132Y-45866732D01*
X142797561Y-45796085D01*
X142797567Y-45796082D01*
X143001277Y-45692287D01*
X143001279Y-45692286D01*
X143075098Y-45638652D01*
X143075099Y-45638651D01*
X142369410Y-44932962D01*
X142432993Y-44915925D01*
X142547007Y-44850099D01*
X142640099Y-44757007D01*
X142705925Y-44642993D01*
X142722962Y-44579410D01*
X143428651Y-45285099D01*
X143428652Y-45285098D01*
X143482286Y-45211279D01*
X143482290Y-45211272D01*
X143536876Y-45104142D01*
X143585624Y-45052526D01*
X143654539Y-45035460D01*
X143721740Y-45058360D01*
X143751079Y-45087283D01*
X143859352Y-45236308D01*
X143859354Y-45236310D01*
X143859356Y-45236313D01*
X143993686Y-45370643D01*
X143993689Y-45370645D01*
X143993692Y-45370648D01*
X144147394Y-45482319D01*
X144316673Y-45568571D01*
X144497360Y-45627279D01*
X144685007Y-45657000D01*
X144685010Y-45657000D01*
X144874990Y-45657000D01*
X144874993Y-45657000D01*
X145062640Y-45627279D01*
X145243327Y-45568571D01*
X145412606Y-45482319D01*
X145566308Y-45370648D01*
X145700648Y-45236308D01*
X145812319Y-45082606D01*
X145898571Y-44913327D01*
X145930167Y-44816082D01*
X145970240Y-44757477D01*
X146035637Y-44729840D01*
X146105594Y-44741947D01*
X146157900Y-44789953D01*
X146169833Y-44816083D01*
X146198414Y-44904050D01*
X146201429Y-44913327D01*
X146287681Y-45082606D01*
X146399352Y-45236308D01*
X146399354Y-45236310D01*
X146399356Y-45236313D01*
X146533686Y-45370643D01*
X146533689Y-45370645D01*
X146533692Y-45370648D01*
X146687394Y-45482319D01*
X146856673Y-45568571D01*
X147037360Y-45627279D01*
X147225007Y-45657000D01*
X147225010Y-45657000D01*
X147414990Y-45657000D01*
X147414993Y-45657000D01*
X147602640Y-45627279D01*
X147783327Y-45568571D01*
X147952606Y-45482319D01*
X148106308Y-45370648D01*
X148240648Y-45236308D01*
X148352319Y-45082606D01*
X148438571Y-44913327D01*
X148497279Y-44732640D01*
X148527000Y-44544993D01*
X148527000Y-44355007D01*
X148497279Y-44167360D01*
X148438571Y-43986673D01*
X148352319Y-43817394D01*
X148240648Y-43663692D01*
X148240645Y-43663689D01*
X148240643Y-43663686D01*
X148106313Y-43529356D01*
X148106310Y-43529354D01*
X148106308Y-43529352D01*
X147952606Y-43417681D01*
X147783327Y-43331429D01*
X147783324Y-43331428D01*
X147783322Y-43331427D01*
X147602644Y-43272722D01*
X147602642Y-43272721D01*
X147602640Y-43272721D01*
X147414993Y-43243000D01*
X147225007Y-43243000D01*
X147037360Y-43272721D01*
X147037358Y-43272721D01*
X147037355Y-43272722D01*
X146856677Y-43331427D01*
X146856671Y-43331430D01*
X146687390Y-43417683D01*
X146533689Y-43529354D01*
X146533686Y-43529356D01*
X146399356Y-43663686D01*
X146399354Y-43663689D01*
X146287683Y-43817390D01*
X146201430Y-43986671D01*
X146201427Y-43986677D01*
X146169833Y-44083916D01*
X146129759Y-44142522D01*
X146064363Y-44170159D01*
X145994406Y-44158052D01*
X145942100Y-44110046D01*
X145930167Y-44083916D01*
X145898572Y-43986677D01*
X145898571Y-43986673D01*
X145812319Y-43817394D01*
X145700648Y-43663692D01*
X145700645Y-43663689D01*
X145700643Y-43663686D01*
X145566313Y-43529356D01*
X145566310Y-43529354D01*
X145566308Y-43529352D01*
X145412606Y-43417681D01*
X145243327Y-43331429D01*
X145243324Y-43331428D01*
X145243322Y-43331427D01*
X145062644Y-43272722D01*
X145062642Y-43272721D01*
X145062640Y-43272721D01*
X144874993Y-43243000D01*
X144685007Y-43243000D01*
X144497360Y-43272721D01*
X144497358Y-43272721D01*
X144497355Y-43272722D01*
X144316677Y-43331427D01*
X144316671Y-43331430D01*
X144147390Y-43417683D01*
X143993689Y-43529354D01*
X143993686Y-43529356D01*
X143859353Y-43663689D01*
X143751079Y-43812716D01*
X143694856Y-43856070D01*
X143624120Y-43862145D01*
X143561329Y-43829013D01*
X143536876Y-43795858D01*
X143482288Y-43688724D01*
X143428651Y-43614900D01*
X142722962Y-44320589D01*
X142705925Y-44257007D01*
X142640099Y-44142993D01*
X142547007Y-44049901D01*
X142432993Y-43984075D01*
X142369409Y-43967037D01*
X143075098Y-43261348D01*
X143075098Y-43261347D01*
X143001275Y-43207711D01*
X142797567Y-43103917D01*
X142797561Y-43103914D01*
X142580132Y-43033267D01*
X142354311Y-42997500D01*
X142125689Y-42997500D01*
X141899867Y-43033267D01*
X141682438Y-43103914D01*
X141682432Y-43103917D01*
X141478720Y-43207713D01*
X141404900Y-43261346D01*
X141404900Y-43261347D01*
X142110591Y-43967037D01*
X142047007Y-43984075D01*
X141932993Y-44049901D01*
X141839901Y-44142993D01*
X141774075Y-44257007D01*
X141757037Y-44320590D01*
X141051347Y-43614900D01*
X141051346Y-43614900D01*
X140997711Y-43688723D01*
X140943122Y-43795859D01*
X140894374Y-43847474D01*
X140825459Y-43864539D01*
X140758257Y-43841638D01*
X140728920Y-43812716D01*
X140716672Y-43795858D01*
X140620648Y-43663692D01*
X140620645Y-43663689D01*
X140620643Y-43663686D01*
X140486313Y-43529356D01*
X140486310Y-43529354D01*
X140486308Y-43529352D01*
X140332606Y-43417681D01*
X140163327Y-43331429D01*
X140163324Y-43331428D01*
X140163322Y-43331427D01*
X139982644Y-43272722D01*
X139982642Y-43272721D01*
X139982640Y-43272721D01*
X139794993Y-43243000D01*
X139605007Y-43243000D01*
X139417360Y-43272721D01*
X139417358Y-43272721D01*
X139417355Y-43272722D01*
X139236677Y-43331427D01*
X139236671Y-43331430D01*
X139067390Y-43417683D01*
X138913689Y-43529354D01*
X138913686Y-43529356D01*
X138779356Y-43663686D01*
X138779354Y-43663689D01*
X138667683Y-43817390D01*
X138581430Y-43986671D01*
X138581427Y-43986677D01*
X138522722Y-44167355D01*
X138522721Y-44167358D01*
X138522721Y-44167360D01*
X138493000Y-44355007D01*
X125530459Y-44355007D01*
X125497419Y-44188903D01*
X125392360Y-43842570D01*
X125253860Y-43508202D01*
X125083253Y-43189019D01*
X124882183Y-42888096D01*
X124882176Y-42888087D01*
X124652590Y-42608335D01*
X124652572Y-42608316D01*
X124396683Y-42352427D01*
X124396664Y-42352409D01*
X124116912Y-42122823D01*
X124116897Y-42122812D01*
X123942472Y-42006265D01*
X123896944Y-41951788D01*
X123888096Y-41881345D01*
X123918737Y-41817301D01*
X123979139Y-41779990D01*
X124012474Y-41775500D01*
X163007526Y-41775500D01*
X163075647Y-41795502D01*
G37*
%TD.AperFunction*%
%TD*%
M02*
