%TF.GenerationSoftware,KiCad,Pcbnew,9.0.7-9.0.7~ubuntu24.04.1*%
%TF.CreationDate,2026-02-13T13:47:40-05:00*%
%TF.ProjectId,ControlPanelRTC,436f6e74-726f-46c5-9061-6e656c525443,rev?*%
%TF.SameCoordinates,Original*%
%TF.FileFunction,Copper,L2,Bot*%
%TF.FilePolarity,Positive*%
%FSLAX46Y46*%
G04 Gerber Fmt 4.6, Leading zero omitted, Abs format (unit mm)*
G04 Created by KiCad (PCBNEW 9.0.7-9.0.7~ubuntu24.04.1) date 2026-02-13 13:47:40*
%MOMM*%
%LPD*%
G01*
G04 APERTURE LIST*
G04 Aperture macros list*
%AMRoundRect*
0 Rectangle with rounded corners*
0 $1 Rounding radius*
0 $2 $3 $4 $5 $6 $7 $8 $9 X,Y pos of 4 corners*
0 Add a 4 corners polygon primitive as box body*
4,1,4,$2,$3,$4,$5,$6,$7,$8,$9,$2,$3,0*
0 Add four circle primitives for the rounded corners*
1,1,$1+$1,$2,$3*
1,1,$1+$1,$4,$5*
1,1,$1+$1,$6,$7*
1,1,$1+$1,$8,$9*
0 Add four rect primitives between the rounded corners*
20,1,$1+$1,$2,$3,$4,$5,0*
20,1,$1+$1,$4,$5,$6,$7,0*
20,1,$1+$1,$6,$7,$8,$9,0*
20,1,$1+$1,$8,$9,$2,$3,0*%
G04 Aperture macros list end*
%TA.AperFunction,ComponentPad*%
%ADD10C,6.858000*%
%TD*%
%TA.AperFunction,ComponentPad*%
%ADD11R,3.000000X3.000000*%
%TD*%
%TA.AperFunction,ComponentPad*%
%ADD12C,3.000000*%
%TD*%
%TA.AperFunction,ComponentPad*%
%ADD13C,0.762000*%
%TD*%
%TA.AperFunction,SMDPad,CuDef*%
%ADD14RoundRect,0.250000X0.312500X0.625000X-0.312500X0.625000X-0.312500X-0.625000X0.312500X-0.625000X0*%
%TD*%
%TA.AperFunction,ComponentPad*%
%ADD15R,1.800000X1.800000*%
%TD*%
%TA.AperFunction,ComponentPad*%
%ADD16C,1.800000*%
%TD*%
%TA.AperFunction,SMDPad,CuDef*%
%ADD17RoundRect,0.250000X-0.650000X0.412500X-0.650000X-0.412500X0.650000X-0.412500X0.650000X0.412500X0*%
%TD*%
%TA.AperFunction,ComponentPad*%
%ADD18R,1.600000X1.600000*%
%TD*%
%TA.AperFunction,ComponentPad*%
%ADD19O,1.600000X1.600000*%
%TD*%
%TA.AperFunction,ComponentPad*%
%ADD20C,1.905000*%
%TD*%
%TA.AperFunction,ComponentPad*%
%ADD21R,1.700000X1.700000*%
%TD*%
%TA.AperFunction,ComponentPad*%
%ADD22C,1.700000*%
%TD*%
%TA.AperFunction,SMDPad,CuDef*%
%ADD23RoundRect,0.150000X-0.825000X-0.150000X0.825000X-0.150000X0.825000X0.150000X-0.825000X0.150000X0*%
%TD*%
%TA.AperFunction,SMDPad,CuDef*%
%ADD24RoundRect,0.250000X-0.312500X-0.625000X0.312500X-0.625000X0.312500X0.625000X-0.312500X0.625000X0*%
%TD*%
%TA.AperFunction,ViaPad*%
%ADD25C,0.600000*%
%TD*%
%TA.AperFunction,Conductor*%
%ADD26C,0.200000*%
%TD*%
G04 APERTURE END LIST*
D10*
%TO.P,H4,1*%
%TO.N,N/C*%
X165100000Y-100965000D03*
%TD*%
%TO.P,H3,1*%
%TO.N,N/C*%
X121920000Y-100965000D03*
%TD*%
%TO.P,H2,1*%
%TO.N,N/C*%
X165100000Y-45085000D03*
%TD*%
%TO.P,H1,1*%
%TO.N,N/C*%
X121920000Y-45085000D03*
%TD*%
D11*
%TO.P,BT1,1,+*%
%TO.N,+BATT*%
X159570000Y-90169999D03*
D12*
%TO.P,BT1,2,-*%
%TO.N,GND*%
X139080000Y-90169999D03*
%TD*%
D13*
%TO.P,SW4,2,2*%
%TO.N,GND*%
X131445000Y-70485000D03*
%TO.P,SW4,1,1*%
%TO.N,/S3*%
X131445000Y-75565000D03*
%TD*%
%TO.P,SW3,1,1*%
%TO.N,/S2*%
X139700000Y-75565000D03*
%TO.P,SW3,2,2*%
%TO.N,GND*%
X139700000Y-70485000D03*
%TD*%
%TO.P,SW2,1,1*%
%TO.N,/S1*%
X147955000Y-75565000D03*
%TO.P,SW2,2,2*%
%TO.N,GND*%
X147955000Y-70485000D03*
%TD*%
%TO.P,SW1,1,1*%
%TO.N,/S0*%
X156210000Y-75565000D03*
%TO.P,SW1,2,2*%
%TO.N,GND*%
X156210000Y-70485000D03*
%TD*%
D14*
%TO.P,R3,1*%
%TO.N,VCC*%
X144972500Y-50165000D03*
%TO.P,R3,2*%
%TO.N,Net-(U1-~{RST})*%
X142047500Y-50165000D03*
%TD*%
D15*
%TO.P,Q1,1,C*%
%TO.N,/ALS*%
X122682000Y-54864000D03*
D16*
%TO.P,Q1,2,E*%
%TO.N,GND*%
X125222000Y-54864000D03*
%TD*%
D17*
%TO.P,C2,1*%
%TO.N,+BATT*%
X151130000Y-55587500D03*
%TO.P,C2,2*%
%TO.N,GND*%
X151130000Y-58712500D03*
%TD*%
D18*
%TO.P,A1,1,D1/TX*%
%TO.N,Net-(A1-D1{slash}TX)*%
X162560000Y-79375000D03*
D19*
%TO.P,A1,2,D0/RX*%
%TO.N,Net-(A1-D0{slash}RX)*%
X160020000Y-79375000D03*
%TO.P,A1,3,~{RESET}*%
%TO.N,unconnected-(A1-~{RESET}-Pad3)*%
X157480000Y-79375000D03*
%TO.P,A1,4,GND*%
%TO.N,GND*%
X154940000Y-79375000D03*
%TO.P,A1,5,D2*%
%TO.N,unconnected-(A1-D2-Pad5)*%
X152400000Y-79375000D03*
%TO.P,A1,6,D3*%
%TO.N,unconnected-(A1-D3-Pad6)*%
X149860000Y-79375000D03*
%TO.P,A1,7,D4*%
%TO.N,unconnected-(A1-D4-Pad7)*%
X147320000Y-79375000D03*
%TO.P,A1,8,D5*%
%TO.N,unconnected-(A1-D5-Pad8)*%
X144780000Y-79375000D03*
%TO.P,A1,9,D6*%
%TO.N,/S0*%
X142240000Y-79375000D03*
%TO.P,A1,10,D7*%
%TO.N,/S1*%
X139700000Y-79375000D03*
%TO.P,A1,11,D8*%
%TO.N,/S2*%
X137160000Y-79375000D03*
%TO.P,A1,12,D9*%
%TO.N,/S3*%
X134620000Y-79375000D03*
%TO.P,A1,13,D10*%
%TO.N,unconnected-(A1-D10-Pad13)*%
X132080000Y-79375000D03*
%TO.P,A1,14,D11*%
%TO.N,unconnected-(A1-D11-Pad14)*%
X129540000Y-79375000D03*
%TO.P,A1,15,D12*%
%TO.N,unconnected-(A1-D12-Pad15)*%
X127000000Y-79375000D03*
%TO.P,A1,16,D13*%
%TO.N,unconnected-(A1-D13-Pad16)*%
X127000000Y-94615000D03*
%TO.P,A1,17,3V3*%
%TO.N,unconnected-(A1-3V3-Pad17)*%
X129540000Y-94615000D03*
%TO.P,A1,18,AREF*%
%TO.N,unconnected-(A1-AREF-Pad18)*%
X132080000Y-94615000D03*
%TO.P,A1,19,A0*%
%TO.N,/ALS*%
X134620000Y-94615000D03*
%TO.P,A1,20,A1*%
%TO.N,unconnected-(A1-A1-Pad20)*%
X137160000Y-94615000D03*
%TO.P,A1,21,A2*%
%TO.N,unconnected-(A1-A2-Pad21)*%
X139700000Y-94615000D03*
%TO.P,A1,22,A3*%
%TO.N,unconnected-(A1-A3-Pad22)*%
X142240000Y-94615000D03*
%TO.P,A1,23,A4*%
%TO.N,/SDA*%
X144780000Y-94615000D03*
%TO.P,A1,24,A5*%
%TO.N,/SCL*%
X147320000Y-94615000D03*
%TO.P,A1,25,A6*%
%TO.N,unconnected-(A1-A6-Pad25)*%
X149860000Y-94615000D03*
%TO.P,A1,26,A7*%
%TO.N,unconnected-(A1-A7-Pad26)*%
X152400000Y-94615000D03*
%TO.P,A1,27,+5V*%
%TO.N,VCC*%
X154940000Y-94615000D03*
%TO.P,A1,28,~{RESET}*%
%TO.N,unconnected-(A1-~{RESET}-Pad28)*%
X157480000Y-94615000D03*
%TO.P,A1,29,GND*%
%TO.N,GND*%
X160020000Y-94615000D03*
%TO.P,A1,30,VIN*%
%TO.N,unconnected-(A1-VIN-Pad30)*%
X162560000Y-94615000D03*
%TD*%
D20*
%TO.P,J2,1,Pin_1*%
%TO.N,GND*%
X139700000Y-44450000D03*
%TO.P,J2,2,Pin_2*%
%TO.N,VCC*%
X142240000Y-44450000D03*
%TO.P,J2,3,Pin_3*%
%TO.N,/SCL*%
X144780000Y-44450000D03*
%TO.P,J2,4,Pin_4*%
%TO.N,/SDA*%
X147320000Y-44450000D03*
%TD*%
D21*
%TO.P,J1,1,Pin_1*%
%TO.N,VCC*%
X166370000Y-53340000D03*
D22*
%TO.P,J1,2,Pin_2*%
%TO.N,Net-(J1-Pin_2)*%
X166370000Y-55880000D03*
%TO.P,J1,3,Pin_3*%
%TO.N,Net-(J1-Pin_3)*%
X166370000Y-58420000D03*
%TO.P,J1,4,Pin_4*%
%TO.N,GND*%
X166370000Y-60960000D03*
%TD*%
D17*
%TO.P,C1,1*%
%TO.N,VCC*%
X135255000Y-55587500D03*
%TO.P,C1,2*%
%TO.N,GND*%
X135255000Y-58712500D03*
%TD*%
D23*
%TO.P,U1,1,32KHZ*%
%TO.N,unconnected-(U1-32KHZ-Pad1)*%
X141035000Y-57785000D03*
%TO.P,U1,2,VCC*%
%TO.N,VCC*%
X141035000Y-56515000D03*
%TO.P,U1,3,~{INT}/SQW*%
%TO.N,unconnected-(U1-~{INT}{slash}SQW-Pad3)*%
X141035000Y-55245000D03*
%TO.P,U1,4,~{RST}*%
%TO.N,Net-(U1-~{RST})*%
X141035000Y-53975000D03*
%TO.P,U1,5,GND*%
%TO.N,GND*%
X145985000Y-53975000D03*
%TO.P,U1,6,VBAT*%
%TO.N,+BATT*%
X145985000Y-55245000D03*
%TO.P,U1,7,SDA*%
%TO.N,/SDA*%
X145985000Y-56515000D03*
%TO.P,U1,8,SCL*%
%TO.N,/SCL*%
X145985000Y-57785000D03*
%TD*%
D24*
%TO.P,R1,1*%
%TO.N,VCC*%
X142047500Y-61595000D03*
%TO.P,R1,2*%
%TO.N,/SCL*%
X144972500Y-61595000D03*
%TD*%
%TO.P,R2,1*%
%TO.N,VCC*%
X142047500Y-64770000D03*
%TO.P,R2,2*%
%TO.N,/SDA*%
X144972500Y-64770000D03*
%TD*%
D25*
%TO.N,/SDA*%
X146431000Y-64643000D03*
X147828000Y-56515000D03*
%TO.N,+BATT*%
X151130000Y-55587500D03*
%TO.N,VCC*%
X140462000Y-64643000D03*
X140716000Y-61468000D03*
X139446000Y-56515000D03*
X135255000Y-54229000D03*
X146558000Y-50165000D03*
%TD*%
D26*
%TO.N,Net-(U1-~{RST})*%
X142047500Y-50165000D02*
X142047500Y-52962500D01*
X142047500Y-52962500D02*
X141035000Y-53975000D01*
%TO.N,/SDA*%
X146431000Y-64643000D02*
X145099500Y-64643000D01*
X145099500Y-64643000D02*
X144972500Y-64770000D01*
X145985000Y-56515000D02*
X147828000Y-56515000D01*
%TO.N,/SCL*%
X145985000Y-59501000D02*
X145923000Y-59563000D01*
X145985000Y-57785000D02*
X145985000Y-59501000D01*
X144109000Y-60731500D02*
X144109000Y-59436000D01*
X145923000Y-59563000D02*
X144236000Y-59563000D01*
X144236000Y-59563000D02*
X144109000Y-59436000D01*
X144972500Y-61595000D02*
X144109000Y-60731500D01*
X144109000Y-59436000D02*
X144109000Y-48804000D01*
X144109000Y-48804000D02*
X146685000Y-46228000D01*
X146685000Y-46228000D02*
X148717000Y-46228000D01*
X148717000Y-46228000D02*
X149860000Y-45085000D01*
X149860000Y-45085000D02*
X149860000Y-43434000D01*
X149860000Y-43434000D02*
X148971000Y-42545000D01*
X148971000Y-42545000D02*
X145415000Y-42545000D01*
X145415000Y-42545000D02*
X144780000Y-43180000D01*
X144780000Y-43180000D02*
X144780000Y-44450000D01*
%TO.N,/SDA*%
X144972500Y-64770000D02*
X143510000Y-63307500D01*
X143510000Y-63307500D02*
X143510000Y-48260000D01*
X143510000Y-48260000D02*
X147320000Y-44450000D01*
X144780000Y-94615000D02*
X146219000Y-93176000D01*
X146219000Y-93176000D02*
X146219000Y-66016500D01*
X146219000Y-66016500D02*
X144972500Y-64770000D01*
%TO.N,/SCL*%
X148637000Y-62277000D02*
X147955000Y-61595000D01*
X148637000Y-93298000D02*
X148637000Y-62277000D01*
X147320000Y-94615000D02*
X148637000Y-93298000D01*
X147955000Y-61595000D02*
X144972500Y-61595000D01*
%TO.N,+BATT*%
X145985000Y-55245000D02*
X150787500Y-55245000D01*
X150787500Y-55245000D02*
X151130000Y-55587500D01*
%TO.N,VCC*%
X140589000Y-64770000D02*
X140462000Y-64643000D01*
X142047500Y-64770000D02*
X140589000Y-64770000D01*
X140843000Y-61595000D02*
X140716000Y-61468000D01*
X142047500Y-61595000D02*
X140843000Y-61595000D01*
X141035000Y-56515000D02*
X139446000Y-56515000D01*
X135255000Y-55587500D02*
X135255000Y-54229000D01*
X144972500Y-50165000D02*
X146558000Y-50165000D01*
%TD*%
%TA.AperFunction,Conductor*%
%TO.N,GND*%
G36*
X144073012Y-61197304D02*
G01*
X144079595Y-61203433D01*
X144118595Y-61242433D01*
X144152621Y-61304745D01*
X144155500Y-61331528D01*
X144155500Y-62268246D01*
X144155502Y-62268270D01*
X144161959Y-62328339D01*
X144161959Y-62328341D01*
X144212657Y-62464266D01*
X144212658Y-62464267D01*
X144299596Y-62580404D01*
X144415733Y-62667342D01*
X144551658Y-62718040D01*
X144611745Y-62724500D01*
X145333254Y-62724499D01*
X145393342Y-62718040D01*
X145529267Y-62667342D01*
X145645404Y-62580404D01*
X145732342Y-62464267D01*
X145783040Y-62328342D01*
X145789500Y-62268255D01*
X145789500Y-62075500D01*
X145809502Y-62007379D01*
X145863158Y-61960886D01*
X145915500Y-61949500D01*
X147755971Y-61949500D01*
X147824092Y-61969502D01*
X147845066Y-61986405D01*
X148245595Y-62386934D01*
X148279621Y-62449246D01*
X148282500Y-62476029D01*
X148282500Y-69498352D01*
X148262498Y-69566473D01*
X148208842Y-69612966D01*
X148138568Y-69623070D01*
X148131919Y-69621931D01*
X148041776Y-69604000D01*
X147868226Y-69604000D01*
X147698021Y-69637856D01*
X147698020Y-69637857D01*
X147537689Y-69704269D01*
X147531774Y-69708220D01*
X148042681Y-70219127D01*
X148076707Y-70281439D01*
X148076252Y-70287789D01*
X148000471Y-70256400D01*
X147909529Y-70256400D01*
X147825508Y-70291202D01*
X147761202Y-70355508D01*
X147726400Y-70439529D01*
X147726400Y-70530471D01*
X147761202Y-70614492D01*
X147825508Y-70678798D01*
X147909529Y-70713600D01*
X148000471Y-70713600D01*
X148073240Y-70683458D01*
X148071642Y-70705808D01*
X148042681Y-70750871D01*
X147531773Y-71261778D01*
X147531774Y-71261779D01*
X147537686Y-71265730D01*
X147698016Y-71332141D01*
X147698021Y-71332143D01*
X147868226Y-71365999D01*
X147868230Y-71366000D01*
X148041770Y-71366000D01*
X148041773Y-71365999D01*
X148131918Y-71348068D01*
X148202632Y-71354396D01*
X148258699Y-71397950D01*
X148282319Y-71464902D01*
X148282500Y-71471647D01*
X148282500Y-74828662D01*
X148262498Y-74896783D01*
X148208842Y-74943276D01*
X148138568Y-74953380D01*
X148131918Y-74952241D01*
X148017594Y-74929500D01*
X148017591Y-74929500D01*
X147892409Y-74929500D01*
X147892406Y-74929500D01*
X147769630Y-74953922D01*
X147769625Y-74953924D01*
X147653977Y-75001827D01*
X147549896Y-75071372D01*
X147549889Y-75071377D01*
X147461377Y-75159889D01*
X147461372Y-75159896D01*
X147391827Y-75263977D01*
X147343924Y-75379625D01*
X147343922Y-75379630D01*
X147319500Y-75502406D01*
X147319500Y-75502409D01*
X147319500Y-75627591D01*
X147343922Y-75750369D01*
X147391827Y-75866022D01*
X147461375Y-75970108D01*
X147549892Y-76058625D01*
X147653978Y-76128173D01*
X147769631Y-76176078D01*
X147892409Y-76200500D01*
X147892410Y-76200500D01*
X148017590Y-76200500D01*
X148017591Y-76200500D01*
X148131921Y-76177758D01*
X148202632Y-76184086D01*
X148258699Y-76227640D01*
X148282319Y-76294592D01*
X148282500Y-76301337D01*
X148282500Y-78542022D01*
X148262498Y-78610143D01*
X148208842Y-78656636D01*
X148138568Y-78666740D01*
X148073988Y-78637246D01*
X148067405Y-78631117D01*
X147992209Y-78555921D01*
X147992203Y-78555916D01*
X147934895Y-78517623D01*
X147819493Y-78440514D01*
X147627586Y-78361024D01*
X147423861Y-78320500D01*
X147423859Y-78320500D01*
X147216141Y-78320500D01*
X147216138Y-78320500D01*
X147012413Y-78361024D01*
X147012408Y-78361026D01*
X146820508Y-78440513D01*
X146769501Y-78474595D01*
X146701748Y-78495809D01*
X146633281Y-78477025D01*
X146585839Y-78424208D01*
X146573500Y-78369829D01*
X146573500Y-70398226D01*
X147074000Y-70398226D01*
X147074000Y-70571773D01*
X147107856Y-70741978D01*
X147107857Y-70741979D01*
X147174270Y-70902312D01*
X147178219Y-70908224D01*
X147601445Y-70484999D01*
X147178219Y-70061774D01*
X147174269Y-70067689D01*
X147107857Y-70228020D01*
X147107856Y-70228021D01*
X147074000Y-70398226D01*
X146573500Y-70398226D01*
X146573500Y-65969829D01*
X146573499Y-65969825D01*
X146554655Y-65899500D01*
X146549341Y-65879668D01*
X146541896Y-65866773D01*
X146502673Y-65798835D01*
X146502669Y-65798830D01*
X146436668Y-65732829D01*
X146057517Y-65353678D01*
X146023491Y-65291366D01*
X146028556Y-65220551D01*
X146071103Y-65163715D01*
X146137623Y-65138904D01*
X146206997Y-65153995D01*
X146209612Y-65155464D01*
X146216966Y-65159710D01*
X146216968Y-65159710D01*
X146216971Y-65159712D01*
X146357999Y-65197500D01*
X146358001Y-65197500D01*
X146503999Y-65197500D01*
X146504001Y-65197500D01*
X146645029Y-65159712D01*
X146645032Y-65159710D01*
X146645033Y-65159710D01*
X146708250Y-65123211D01*
X146771471Y-65086711D01*
X146874711Y-64983471D01*
X146947712Y-64857029D01*
X146985500Y-64716001D01*
X146985500Y-64569999D01*
X146947712Y-64428971D01*
X146947710Y-64428968D01*
X146947710Y-64428966D01*
X146874713Y-64302532D01*
X146874705Y-64302522D01*
X146771477Y-64199294D01*
X146771467Y-64199286D01*
X146645033Y-64126289D01*
X146628372Y-64121824D01*
X146504001Y-64088500D01*
X146357999Y-64088500D01*
X146271686Y-64111627D01*
X146216966Y-64126289D01*
X146090532Y-64199286D01*
X146090527Y-64199290D01*
X146074976Y-64214842D01*
X146038221Y-64251596D01*
X146010853Y-64266540D01*
X145984626Y-64283396D01*
X145978326Y-64284301D01*
X145975912Y-64285620D01*
X145949128Y-64288500D01*
X145915499Y-64288500D01*
X145847378Y-64268498D01*
X145800885Y-64214842D01*
X145789499Y-64162500D01*
X145789499Y-64096753D01*
X145789499Y-64096746D01*
X145783040Y-64036658D01*
X145732342Y-63900733D01*
X145645404Y-63784596D01*
X145529267Y-63697658D01*
X145529265Y-63697657D01*
X145529266Y-63697657D01*
X145393349Y-63646962D01*
X145393344Y-63646960D01*
X145393342Y-63646960D01*
X145363298Y-63643730D01*
X145333256Y-63640500D01*
X144611753Y-63640500D01*
X144611729Y-63640502D01*
X144551660Y-63646959D01*
X144551659Y-63646959D01*
X144481231Y-63673227D01*
X144410415Y-63678291D01*
X144348105Y-63644266D01*
X143901405Y-63197566D01*
X143867379Y-63135254D01*
X143864500Y-63108471D01*
X143864500Y-61292528D01*
X143884502Y-61224407D01*
X143938158Y-61177914D01*
X144008432Y-61167810D01*
X144073012Y-61197304D01*
G37*
%TD.AperFunction*%
%TA.AperFunction,Conductor*%
G36*
X163075647Y-41795502D02*
G01*
X163122140Y-41849158D01*
X163132244Y-41919432D01*
X163102750Y-41984012D01*
X163077528Y-42006265D01*
X162903102Y-42122812D01*
X162903087Y-42122823D01*
X162623335Y-42352409D01*
X162623316Y-42352427D01*
X162367427Y-42608316D01*
X162367409Y-42608335D01*
X162137823Y-42888087D01*
X162137812Y-42888102D01*
X161936748Y-43189016D01*
X161766140Y-43508201D01*
X161725529Y-43606246D01*
X161638069Y-43817394D01*
X161627638Y-43842576D01*
X161612513Y-43892438D01*
X161522581Y-44188903D01*
X161509034Y-44257007D01*
X161451974Y-44543865D01*
X161451972Y-44543881D01*
X161416500Y-44904034D01*
X161416500Y-45265965D01*
X161451972Y-45626118D01*
X161451973Y-45626123D01*
X161451974Y-45626133D01*
X161522581Y-45981097D01*
X161627640Y-46327430D01*
X161703956Y-46511673D01*
X161766140Y-46661798D01*
X161936748Y-46980983D01*
X162137812Y-47281897D01*
X162137823Y-47281912D01*
X162367409Y-47561664D01*
X162367427Y-47561683D01*
X162623316Y-47817572D01*
X162623335Y-47817590D01*
X162903087Y-48047176D01*
X162903096Y-48047183D01*
X163204019Y-48248253D01*
X163523202Y-48418860D01*
X163857570Y-48557360D01*
X164203903Y-48662419D01*
X164558867Y-48733026D01*
X164919041Y-48768500D01*
X164919050Y-48768500D01*
X165280950Y-48768500D01*
X165280959Y-48768500D01*
X165641133Y-48733026D01*
X165996097Y-48662419D01*
X166342430Y-48557360D01*
X166676798Y-48418860D01*
X166995981Y-48248253D01*
X167296904Y-48047183D01*
X167576670Y-47817585D01*
X167832585Y-47561670D01*
X168062183Y-47281904D01*
X168132241Y-47177053D01*
X168178735Y-47107472D01*
X168233212Y-47061944D01*
X168303655Y-47053096D01*
X168367699Y-47083737D01*
X168405010Y-47144139D01*
X168409500Y-47177474D01*
X168409500Y-98872525D01*
X168389498Y-98940646D01*
X168335842Y-98987139D01*
X168265568Y-98997243D01*
X168200988Y-98967749D01*
X168178735Y-98942527D01*
X168062187Y-98768102D01*
X168062176Y-98768087D01*
X167832590Y-98488335D01*
X167832572Y-98488316D01*
X167576683Y-98232427D01*
X167576664Y-98232409D01*
X167296912Y-98002823D01*
X167296897Y-98002812D01*
X166995983Y-97801748D01*
X166676798Y-97631140D01*
X166342430Y-97492640D01*
X165996097Y-97387581D01*
X165759454Y-97340509D01*
X165641134Y-97316974D01*
X165641118Y-97316972D01*
X165280965Y-97281500D01*
X165280959Y-97281500D01*
X164919041Y-97281500D01*
X164919034Y-97281500D01*
X164558881Y-97316972D01*
X164558865Y-97316974D01*
X164322224Y-97364045D01*
X164203903Y-97387581D01*
X163986513Y-97453525D01*
X163857576Y-97492638D01*
X163857574Y-97492638D01*
X163857570Y-97492640D01*
X163677178Y-97567360D01*
X163523201Y-97631140D01*
X163204016Y-97801748D01*
X162903102Y-98002812D01*
X162903087Y-98002823D01*
X162623335Y-98232409D01*
X162623316Y-98232427D01*
X162367427Y-98488316D01*
X162367409Y-98488335D01*
X162137823Y-98768087D01*
X162137812Y-98768102D01*
X161936748Y-99069016D01*
X161766140Y-99388201D01*
X161627638Y-99722576D01*
X161522581Y-100068904D01*
X161451974Y-100423865D01*
X161451972Y-100423881D01*
X161416500Y-100784034D01*
X161416500Y-101145965D01*
X161451972Y-101506118D01*
X161451974Y-101506133D01*
X161522581Y-101861097D01*
X161627640Y-102207430D01*
X161766140Y-102541798D01*
X161936748Y-102860983D01*
X162137812Y-103161897D01*
X162137823Y-103161912D01*
X162367409Y-103441664D01*
X162367427Y-103441683D01*
X162623316Y-103697572D01*
X162623335Y-103697590D01*
X162903087Y-103927176D01*
X162903096Y-103927183D01*
X162903102Y-103927187D01*
X163077528Y-104043735D01*
X163123056Y-104098212D01*
X163131904Y-104168655D01*
X163101263Y-104232699D01*
X163040861Y-104270010D01*
X163007526Y-104274500D01*
X124012474Y-104274500D01*
X123944353Y-104254498D01*
X123897860Y-104200842D01*
X123887756Y-104130568D01*
X123917250Y-104065988D01*
X123942472Y-104043735D01*
X124012053Y-103997241D01*
X124116904Y-103927183D01*
X124396670Y-103697585D01*
X124652585Y-103441670D01*
X124882183Y-103161904D01*
X125083253Y-102860981D01*
X125253860Y-102541798D01*
X125392360Y-102207430D01*
X125497419Y-101861097D01*
X125568026Y-101506133D01*
X125603500Y-101145959D01*
X125603500Y-100784041D01*
X125568026Y-100423867D01*
X125497419Y-100068903D01*
X125392360Y-99722570D01*
X125253860Y-99388202D01*
X125083253Y-99069019D01*
X124882183Y-98768096D01*
X124882176Y-98768087D01*
X124652590Y-98488335D01*
X124652572Y-98488316D01*
X124396683Y-98232427D01*
X124396664Y-98232409D01*
X124116912Y-98002823D01*
X124116897Y-98002812D01*
X123815983Y-97801748D01*
X123496798Y-97631140D01*
X123162430Y-97492640D01*
X122816097Y-97387581D01*
X122579454Y-97340509D01*
X122461134Y-97316974D01*
X122461118Y-97316972D01*
X122100965Y-97281500D01*
X122100959Y-97281500D01*
X121739041Y-97281500D01*
X121739034Y-97281500D01*
X121378881Y-97316972D01*
X121378865Y-97316974D01*
X121142224Y-97364045D01*
X121023903Y-97387581D01*
X120806513Y-97453525D01*
X120677576Y-97492638D01*
X120677574Y-97492638D01*
X120677570Y-97492640D01*
X120497178Y-97567360D01*
X120343201Y-97631140D01*
X120024016Y-97801748D01*
X119723102Y-98002812D01*
X119723087Y-98002823D01*
X119443335Y-98232409D01*
X119443316Y-98232427D01*
X119187427Y-98488316D01*
X119187409Y-98488335D01*
X118957823Y-98768087D01*
X118957812Y-98768102D01*
X118841265Y-98942527D01*
X118786788Y-98988055D01*
X118716345Y-98996903D01*
X118652301Y-98966261D01*
X118614989Y-98905860D01*
X118610500Y-98872525D01*
X118610500Y-94511138D01*
X125945500Y-94511138D01*
X125945500Y-94718861D01*
X125969258Y-94838297D01*
X125986024Y-94922586D01*
X126065514Y-95114493D01*
X126065853Y-95115000D01*
X126180916Y-95287203D01*
X126180921Y-95287209D01*
X126327790Y-95434078D01*
X126327796Y-95434083D01*
X126500507Y-95549486D01*
X126692414Y-95628976D01*
X126896141Y-95669500D01*
X126896142Y-95669500D01*
X127103858Y-95669500D01*
X127103859Y-95669500D01*
X127307586Y-95628976D01*
X127499493Y-95549486D01*
X127672204Y-95434083D01*
X127819083Y-95287204D01*
X127934486Y-95114493D01*
X128013976Y-94922586D01*
X128054500Y-94718859D01*
X128054500Y-94511141D01*
X128054499Y-94511138D01*
X128485500Y-94511138D01*
X128485500Y-94718861D01*
X128509258Y-94838297D01*
X128526024Y-94922586D01*
X128605514Y-95114493D01*
X128605853Y-95115000D01*
X128720916Y-95287203D01*
X128720921Y-95287209D01*
X128867790Y-95434078D01*
X128867796Y-95434083D01*
X129040507Y-95549486D01*
X129232414Y-95628976D01*
X129436141Y-95669500D01*
X129436142Y-95669500D01*
X129643858Y-95669500D01*
X129643859Y-95669500D01*
X129847586Y-95628976D01*
X130039493Y-95549486D01*
X130212204Y-95434083D01*
X130359083Y-95287204D01*
X130474486Y-95114493D01*
X130553976Y-94922586D01*
X130594500Y-94718859D01*
X130594500Y-94511141D01*
X130594499Y-94511138D01*
X131025500Y-94511138D01*
X131025500Y-94718861D01*
X131049258Y-94838297D01*
X131066024Y-94922586D01*
X131145514Y-95114493D01*
X131145853Y-95115000D01*
X131260916Y-95287203D01*
X131260921Y-95287209D01*
X131407790Y-95434078D01*
X131407796Y-95434083D01*
X131580507Y-95549486D01*
X131772414Y-95628976D01*
X131976141Y-95669500D01*
X131976142Y-95669500D01*
X132183858Y-95669500D01*
X132183859Y-95669500D01*
X132387586Y-95628976D01*
X132579493Y-95549486D01*
X132752204Y-95434083D01*
X132899083Y-95287204D01*
X133014486Y-95114493D01*
X133093976Y-94922586D01*
X133134500Y-94718859D01*
X133134500Y-94511141D01*
X133134499Y-94511138D01*
X133565500Y-94511138D01*
X133565500Y-94718861D01*
X133589258Y-94838297D01*
X133606024Y-94922586D01*
X133685514Y-95114493D01*
X133685853Y-95115000D01*
X133800916Y-95287203D01*
X133800921Y-95287209D01*
X133947790Y-95434078D01*
X133947796Y-95434083D01*
X134120507Y-95549486D01*
X134312414Y-95628976D01*
X134516141Y-95669500D01*
X134516142Y-95669500D01*
X134723858Y-95669500D01*
X134723859Y-95669500D01*
X134927586Y-95628976D01*
X135119493Y-95549486D01*
X135292204Y-95434083D01*
X135439083Y-95287204D01*
X135554486Y-95114493D01*
X135633976Y-94922586D01*
X135674500Y-94718859D01*
X135674500Y-94511141D01*
X135674499Y-94511138D01*
X136105500Y-94511138D01*
X136105500Y-94718861D01*
X136129258Y-94838297D01*
X136146024Y-94922586D01*
X136225514Y-95114493D01*
X136225853Y-95115000D01*
X136340916Y-95287203D01*
X136340921Y-95287209D01*
X136487790Y-95434078D01*
X136487796Y-95434083D01*
X136660507Y-95549486D01*
X136852414Y-95628976D01*
X137056141Y-95669500D01*
X137056142Y-95669500D01*
X137263858Y-95669500D01*
X137263859Y-95669500D01*
X137467586Y-95628976D01*
X137659493Y-95549486D01*
X137832204Y-95434083D01*
X137979083Y-95287204D01*
X138094486Y-95114493D01*
X138173976Y-94922586D01*
X138214500Y-94718859D01*
X138214500Y-94511141D01*
X138214499Y-94511138D01*
X138645500Y-94511138D01*
X138645500Y-94718861D01*
X138669258Y-94838297D01*
X138686024Y-94922586D01*
X138765514Y-95114493D01*
X138765853Y-95115000D01*
X138880916Y-95287203D01*
X138880921Y-95287209D01*
X139027790Y-95434078D01*
X139027796Y-95434083D01*
X139200507Y-95549486D01*
X139392414Y-95628976D01*
X139596141Y-95669500D01*
X139596142Y-95669500D01*
X139803858Y-95669500D01*
X139803859Y-95669500D01*
X140007586Y-95628976D01*
X140199493Y-95549486D01*
X140372204Y-95434083D01*
X140519083Y-95287204D01*
X140634486Y-95114493D01*
X140713976Y-94922586D01*
X140754500Y-94718859D01*
X140754500Y-94511141D01*
X140754499Y-94511138D01*
X141185500Y-94511138D01*
X141185500Y-94718861D01*
X141209258Y-94838297D01*
X141226024Y-94922586D01*
X141305514Y-95114493D01*
X141305853Y-95115000D01*
X141420916Y-95287203D01*
X141420921Y-95287209D01*
X141567790Y-95434078D01*
X141567796Y-95434083D01*
X141740507Y-95549486D01*
X141932414Y-95628976D01*
X142136141Y-95669500D01*
X142136142Y-95669500D01*
X142343858Y-95669500D01*
X142343859Y-95669500D01*
X142547586Y-95628976D01*
X142739493Y-95549486D01*
X142912204Y-95434083D01*
X143059083Y-95287204D01*
X143174486Y-95114493D01*
X143253976Y-94922586D01*
X143294500Y-94718859D01*
X143294500Y-94511141D01*
X143253976Y-94307414D01*
X143174486Y-94115507D01*
X143059083Y-93942796D01*
X143059078Y-93942790D01*
X142912209Y-93795921D01*
X142912203Y-93795916D01*
X142854895Y-93757623D01*
X142739493Y-93680514D01*
X142547586Y-93601024D01*
X142343861Y-93560500D01*
X142343859Y-93560500D01*
X142136141Y-93560500D01*
X142136138Y-93560500D01*
X141932413Y-93601024D01*
X141932408Y-93601026D01*
X141740507Y-93680514D01*
X141567796Y-93795916D01*
X141567790Y-93795921D01*
X141420921Y-93942790D01*
X141420916Y-93942796D01*
X141305514Y-94115507D01*
X141226026Y-94307408D01*
X141226024Y-94307413D01*
X141185500Y-94511138D01*
X140754499Y-94511138D01*
X140713976Y-94307414D01*
X140634486Y-94115507D01*
X140519083Y-93942796D01*
X140519078Y-93942790D01*
X140372209Y-93795921D01*
X140372203Y-93795916D01*
X140314895Y-93757623D01*
X140199493Y-93680514D01*
X140007586Y-93601024D01*
X139803861Y-93560500D01*
X139803859Y-93560500D01*
X139596141Y-93560500D01*
X139596138Y-93560500D01*
X139392413Y-93601024D01*
X139392408Y-93601026D01*
X139200507Y-93680514D01*
X139027796Y-93795916D01*
X139027790Y-93795921D01*
X138880921Y-93942790D01*
X138880916Y-93942796D01*
X138765514Y-94115507D01*
X138686026Y-94307408D01*
X138686024Y-94307413D01*
X138645500Y-94511138D01*
X138214499Y-94511138D01*
X138173976Y-94307414D01*
X138094486Y-94115507D01*
X137979083Y-93942796D01*
X137979078Y-93942790D01*
X137832209Y-93795921D01*
X137832203Y-93795916D01*
X137774895Y-93757623D01*
X137659493Y-93680514D01*
X137467586Y-93601024D01*
X137263861Y-93560500D01*
X137263859Y-93560500D01*
X137056141Y-93560500D01*
X137056138Y-93560500D01*
X136852413Y-93601024D01*
X136852408Y-93601026D01*
X136660507Y-93680514D01*
X136487796Y-93795916D01*
X136487790Y-93795921D01*
X136340921Y-93942790D01*
X136340916Y-93942796D01*
X136225514Y-94115507D01*
X136146026Y-94307408D01*
X136146024Y-94307413D01*
X136105500Y-94511138D01*
X135674499Y-94511138D01*
X135633976Y-94307414D01*
X135554486Y-94115507D01*
X135439083Y-93942796D01*
X135439078Y-93942790D01*
X135292209Y-93795921D01*
X135292203Y-93795916D01*
X135234895Y-93757623D01*
X135119493Y-93680514D01*
X134927586Y-93601024D01*
X134723861Y-93560500D01*
X134723859Y-93560500D01*
X134516141Y-93560500D01*
X134516138Y-93560500D01*
X134312413Y-93601024D01*
X134312408Y-93601026D01*
X134120507Y-93680514D01*
X133947796Y-93795916D01*
X133947790Y-93795921D01*
X133800921Y-93942790D01*
X133800916Y-93942796D01*
X133685514Y-94115507D01*
X133606026Y-94307408D01*
X133606024Y-94307413D01*
X133565500Y-94511138D01*
X133134499Y-94511138D01*
X133093976Y-94307414D01*
X133014486Y-94115507D01*
X132899083Y-93942796D01*
X132899078Y-93942790D01*
X132752209Y-93795921D01*
X132752203Y-93795916D01*
X132694895Y-93757623D01*
X132579493Y-93680514D01*
X132387586Y-93601024D01*
X132183861Y-93560500D01*
X132183859Y-93560500D01*
X131976141Y-93560500D01*
X131976138Y-93560500D01*
X131772413Y-93601024D01*
X131772408Y-93601026D01*
X131580507Y-93680514D01*
X131407796Y-93795916D01*
X131407790Y-93795921D01*
X131260921Y-93942790D01*
X131260916Y-93942796D01*
X131145514Y-94115507D01*
X131066026Y-94307408D01*
X131066024Y-94307413D01*
X131025500Y-94511138D01*
X130594499Y-94511138D01*
X130553976Y-94307414D01*
X130474486Y-94115507D01*
X130359083Y-93942796D01*
X130359078Y-93942790D01*
X130212209Y-93795921D01*
X130212203Y-93795916D01*
X130154895Y-93757623D01*
X130039493Y-93680514D01*
X129847586Y-93601024D01*
X129643861Y-93560500D01*
X129643859Y-93560500D01*
X129436141Y-93560500D01*
X129436138Y-93560500D01*
X129232413Y-93601024D01*
X129232408Y-93601026D01*
X129040507Y-93680514D01*
X128867796Y-93795916D01*
X128867790Y-93795921D01*
X128720921Y-93942790D01*
X128720916Y-93942796D01*
X128605514Y-94115507D01*
X128526026Y-94307408D01*
X128526024Y-94307413D01*
X128485500Y-94511138D01*
X128054499Y-94511138D01*
X128013976Y-94307414D01*
X127934486Y-94115507D01*
X127819083Y-93942796D01*
X127819078Y-93942790D01*
X127672209Y-93795921D01*
X127672203Y-93795916D01*
X127614895Y-93757623D01*
X127499493Y-93680514D01*
X127307586Y-93601024D01*
X127103861Y-93560500D01*
X127103859Y-93560500D01*
X126896141Y-93560500D01*
X126896138Y-93560500D01*
X126692413Y-93601024D01*
X126692408Y-93601026D01*
X126500507Y-93680514D01*
X126327796Y-93795916D01*
X126327790Y-93795921D01*
X126180921Y-93942790D01*
X126180916Y-93942796D01*
X126065514Y-94115507D01*
X125986026Y-94307408D01*
X125986024Y-94307413D01*
X125945500Y-94511138D01*
X118610500Y-94511138D01*
X118610500Y-90038909D01*
X137080000Y-90038909D01*
X137080000Y-90301088D01*
X137114219Y-90561009D01*
X137182076Y-90814256D01*
X137282407Y-91056475D01*
X137282412Y-91056485D01*
X137413490Y-91283519D01*
X137413494Y-91283525D01*
X137500079Y-91396364D01*
X137500080Y-91396365D01*
X138402421Y-90494023D01*
X138415359Y-90525257D01*
X138497437Y-90648096D01*
X138601903Y-90752562D01*
X138724742Y-90834640D01*
X138755973Y-90847576D01*
X137853632Y-91749917D01*
X137853633Y-91749918D01*
X137966473Y-91836504D01*
X137966479Y-91836508D01*
X138193513Y-91967586D01*
X138193523Y-91967591D01*
X138435742Y-92067922D01*
X138688989Y-92135779D01*
X138948910Y-92169998D01*
X138948920Y-92169999D01*
X139211080Y-92169999D01*
X139211089Y-92169998D01*
X139471010Y-92135779D01*
X139724257Y-92067922D01*
X139966476Y-91967591D01*
X139966486Y-91967586D01*
X140193520Y-91836508D01*
X140193526Y-91836504D01*
X140306366Y-91749918D01*
X140306366Y-91749917D01*
X139404025Y-90847576D01*
X139435258Y-90834640D01*
X139558097Y-90752562D01*
X139662563Y-90648096D01*
X139744641Y-90525257D01*
X139757577Y-90494024D01*
X140659918Y-91396365D01*
X140659919Y-91396365D01*
X140746505Y-91283525D01*
X140746509Y-91283519D01*
X140877587Y-91056485D01*
X140877592Y-91056475D01*
X140977923Y-90814256D01*
X141045780Y-90561009D01*
X141079999Y-90301088D01*
X141080000Y-90301079D01*
X141080000Y-90038919D01*
X141079999Y-90038909D01*
X141045780Y-89778988D01*
X140977923Y-89525741D01*
X140877592Y-89283522D01*
X140877587Y-89283512D01*
X140746509Y-89056478D01*
X140746505Y-89056472D01*
X140659919Y-88943632D01*
X140659918Y-88943631D01*
X139757577Y-89845972D01*
X139744641Y-89814741D01*
X139662563Y-89691902D01*
X139558097Y-89587436D01*
X139435258Y-89505358D01*
X139404024Y-89492420D01*
X140306366Y-88590079D01*
X140306365Y-88590078D01*
X140193526Y-88503493D01*
X140193520Y-88503489D01*
X139966486Y-88372411D01*
X139966476Y-88372406D01*
X139724257Y-88272075D01*
X139471010Y-88204218D01*
X139211089Y-88169999D01*
X138948910Y-88169999D01*
X138688989Y-88204218D01*
X138435742Y-88272075D01*
X138193523Y-88372406D01*
X138193513Y-88372411D01*
X137966479Y-88503489D01*
X137853632Y-88590079D01*
X138755974Y-89492420D01*
X138724742Y-89505358D01*
X138601903Y-89587436D01*
X138497437Y-89691902D01*
X138415359Y-89814741D01*
X138402422Y-89845973D01*
X137500080Y-88943631D01*
X137413490Y-89056478D01*
X137282412Y-89283512D01*
X137282407Y-89283522D01*
X137182076Y-89525741D01*
X137114219Y-89778988D01*
X137080000Y-90038909D01*
X118610500Y-90038909D01*
X118610500Y-79271138D01*
X125945500Y-79271138D01*
X125945500Y-79478861D01*
X125969258Y-79598297D01*
X125986024Y-79682586D01*
X126065514Y-79874493D01*
X126065853Y-79875000D01*
X126180916Y-80047203D01*
X126180921Y-80047209D01*
X126327790Y-80194078D01*
X126327796Y-80194083D01*
X126500507Y-80309486D01*
X126692414Y-80388976D01*
X126896141Y-80429500D01*
X126896142Y-80429500D01*
X127103858Y-80429500D01*
X127103859Y-80429500D01*
X127307586Y-80388976D01*
X127499493Y-80309486D01*
X127672204Y-80194083D01*
X127819083Y-80047204D01*
X127934486Y-79874493D01*
X128013976Y-79682586D01*
X128054500Y-79478859D01*
X128054500Y-79271141D01*
X128054499Y-79271138D01*
X128485500Y-79271138D01*
X128485500Y-79478861D01*
X128509258Y-79598297D01*
X128526024Y-79682586D01*
X128605514Y-79874493D01*
X128605853Y-79875000D01*
X128720916Y-80047203D01*
X128720921Y-80047209D01*
X128867790Y-80194078D01*
X128867796Y-80194083D01*
X129040507Y-80309486D01*
X129232414Y-80388976D01*
X129436141Y-80429500D01*
X129436142Y-80429500D01*
X129643858Y-80429500D01*
X129643859Y-80429500D01*
X129847586Y-80388976D01*
X130039493Y-80309486D01*
X130212204Y-80194083D01*
X130359083Y-80047204D01*
X130474486Y-79874493D01*
X130553976Y-79682586D01*
X130594500Y-79478859D01*
X130594500Y-79271141D01*
X130594499Y-79271138D01*
X131025500Y-79271138D01*
X131025500Y-79478861D01*
X131049258Y-79598297D01*
X131066024Y-79682586D01*
X131145514Y-79874493D01*
X131145853Y-79875000D01*
X131260916Y-80047203D01*
X131260921Y-80047209D01*
X131407790Y-80194078D01*
X131407796Y-80194083D01*
X131580507Y-80309486D01*
X131772414Y-80388976D01*
X131976141Y-80429500D01*
X131976142Y-80429500D01*
X132183858Y-80429500D01*
X132183859Y-80429500D01*
X132387586Y-80388976D01*
X132579493Y-80309486D01*
X132752204Y-80194083D01*
X132899083Y-80047204D01*
X133014486Y-79874493D01*
X133093976Y-79682586D01*
X133134500Y-79478859D01*
X133134500Y-79271141D01*
X133134499Y-79271138D01*
X133565500Y-79271138D01*
X133565500Y-79478861D01*
X133589258Y-79598297D01*
X133606024Y-79682586D01*
X133685514Y-79874493D01*
X133685853Y-79875000D01*
X133800916Y-80047203D01*
X133800921Y-80047209D01*
X133947790Y-80194078D01*
X133947796Y-80194083D01*
X134120507Y-80309486D01*
X134312414Y-80388976D01*
X134516141Y-80429500D01*
X134516142Y-80429500D01*
X134723858Y-80429500D01*
X134723859Y-80429500D01*
X134927586Y-80388976D01*
X135119493Y-80309486D01*
X135292204Y-80194083D01*
X135439083Y-80047204D01*
X135554486Y-79874493D01*
X135633976Y-79682586D01*
X135674500Y-79478859D01*
X135674500Y-79271141D01*
X135674499Y-79271138D01*
X136105500Y-79271138D01*
X136105500Y-79478861D01*
X136129258Y-79598297D01*
X136146024Y-79682586D01*
X136225514Y-79874493D01*
X136225853Y-79875000D01*
X136340916Y-80047203D01*
X136340921Y-80047209D01*
X136487790Y-80194078D01*
X136487796Y-80194083D01*
X136660507Y-80309486D01*
X136852414Y-80388976D01*
X137056141Y-80429500D01*
X137056142Y-80429500D01*
X137263858Y-80429500D01*
X137263859Y-80429500D01*
X137467586Y-80388976D01*
X137659493Y-80309486D01*
X137832204Y-80194083D01*
X137979083Y-80047204D01*
X138094486Y-79874493D01*
X138173976Y-79682586D01*
X138214500Y-79478859D01*
X138214500Y-79271141D01*
X138214499Y-79271138D01*
X138645500Y-79271138D01*
X138645500Y-79478861D01*
X138669258Y-79598297D01*
X138686024Y-79682586D01*
X138765514Y-79874493D01*
X138765853Y-79875000D01*
X138880916Y-80047203D01*
X138880921Y-80047209D01*
X139027790Y-80194078D01*
X139027796Y-80194083D01*
X139200507Y-80309486D01*
X139392414Y-80388976D01*
X139596141Y-80429500D01*
X139596142Y-80429500D01*
X139803858Y-80429500D01*
X139803859Y-80429500D01*
X140007586Y-80388976D01*
X140199493Y-80309486D01*
X140372204Y-80194083D01*
X140519083Y-80047204D01*
X140634486Y-79874493D01*
X140713976Y-79682586D01*
X140754500Y-79478859D01*
X140754500Y-79271141D01*
X140754499Y-79271138D01*
X141185500Y-79271138D01*
X141185500Y-79478861D01*
X141209258Y-79598297D01*
X141226024Y-79682586D01*
X141305514Y-79874493D01*
X141305853Y-79875000D01*
X141420916Y-80047203D01*
X141420921Y-80047209D01*
X141567790Y-80194078D01*
X141567796Y-80194083D01*
X141740507Y-80309486D01*
X141932414Y-80388976D01*
X142136141Y-80429500D01*
X142136142Y-80429500D01*
X142343858Y-80429500D01*
X142343859Y-80429500D01*
X142547586Y-80388976D01*
X142739493Y-80309486D01*
X142912204Y-80194083D01*
X143059083Y-80047204D01*
X143174486Y-79874493D01*
X143253976Y-79682586D01*
X143294500Y-79478859D01*
X143294500Y-79271141D01*
X143253976Y-79067414D01*
X143174486Y-78875507D01*
X143059083Y-78702796D01*
X143059078Y-78702790D01*
X142912209Y-78555921D01*
X142912203Y-78555916D01*
X142854895Y-78517623D01*
X142739493Y-78440514D01*
X142547586Y-78361024D01*
X142343861Y-78320500D01*
X142343859Y-78320500D01*
X142136141Y-78320500D01*
X142136138Y-78320500D01*
X141932413Y-78361024D01*
X141932408Y-78361026D01*
X141740507Y-78440514D01*
X141567796Y-78555916D01*
X141567790Y-78555921D01*
X141420921Y-78702790D01*
X141420916Y-78702796D01*
X141305514Y-78875507D01*
X141226026Y-79067408D01*
X141226024Y-79067413D01*
X141185500Y-79271138D01*
X140754499Y-79271138D01*
X140713976Y-79067414D01*
X140634486Y-78875507D01*
X140519083Y-78702796D01*
X140519078Y-78702790D01*
X140372209Y-78555921D01*
X140372203Y-78555916D01*
X140314895Y-78517623D01*
X140199493Y-78440514D01*
X140007586Y-78361024D01*
X139803861Y-78320500D01*
X139803859Y-78320500D01*
X139596141Y-78320500D01*
X139596138Y-78320500D01*
X139392413Y-78361024D01*
X139392408Y-78361026D01*
X139200507Y-78440514D01*
X139027796Y-78555916D01*
X139027790Y-78555921D01*
X138880921Y-78702790D01*
X138880916Y-78702796D01*
X138765514Y-78875507D01*
X138686026Y-79067408D01*
X138686024Y-79067413D01*
X138645500Y-79271138D01*
X138214499Y-79271138D01*
X138173976Y-79067414D01*
X138094486Y-78875507D01*
X137979083Y-78702796D01*
X137979078Y-78702790D01*
X137832209Y-78555921D01*
X137832203Y-78555916D01*
X137774895Y-78517623D01*
X137659493Y-78440514D01*
X137467586Y-78361024D01*
X137263861Y-78320500D01*
X137263859Y-78320500D01*
X137056141Y-78320500D01*
X137056138Y-78320500D01*
X136852413Y-78361024D01*
X136852408Y-78361026D01*
X136660507Y-78440514D01*
X136487796Y-78555916D01*
X136487790Y-78555921D01*
X136340921Y-78702790D01*
X136340916Y-78702796D01*
X136225514Y-78875507D01*
X136146026Y-79067408D01*
X136146024Y-79067413D01*
X136105500Y-79271138D01*
X135674499Y-79271138D01*
X135633976Y-79067414D01*
X135554486Y-78875507D01*
X135439083Y-78702796D01*
X135439078Y-78702790D01*
X135292209Y-78555921D01*
X135292203Y-78555916D01*
X135234895Y-78517623D01*
X135119493Y-78440514D01*
X134927586Y-78361024D01*
X134723861Y-78320500D01*
X134723859Y-78320500D01*
X134516141Y-78320500D01*
X134516138Y-78320500D01*
X134312413Y-78361024D01*
X134312408Y-78361026D01*
X134120507Y-78440514D01*
X133947796Y-78555916D01*
X133947790Y-78555921D01*
X133800921Y-78702790D01*
X133800916Y-78702796D01*
X133685514Y-78875507D01*
X133606026Y-79067408D01*
X133606024Y-79067413D01*
X133565500Y-79271138D01*
X133134499Y-79271138D01*
X133093976Y-79067414D01*
X133014486Y-78875507D01*
X132899083Y-78702796D01*
X132899078Y-78702790D01*
X132752209Y-78555921D01*
X132752203Y-78555916D01*
X132694895Y-78517623D01*
X132579493Y-78440514D01*
X132387586Y-78361024D01*
X132183861Y-78320500D01*
X132183859Y-78320500D01*
X131976141Y-78320500D01*
X131976138Y-78320500D01*
X131772413Y-78361024D01*
X131772408Y-78361026D01*
X131580507Y-78440514D01*
X131407796Y-78555916D01*
X131407790Y-78555921D01*
X131260921Y-78702790D01*
X131260916Y-78702796D01*
X131145514Y-78875507D01*
X131066026Y-79067408D01*
X131066024Y-79067413D01*
X131025500Y-79271138D01*
X130594499Y-79271138D01*
X130553976Y-79067414D01*
X130474486Y-78875507D01*
X130359083Y-78702796D01*
X130359078Y-78702790D01*
X130212209Y-78555921D01*
X130212203Y-78555916D01*
X130154895Y-78517623D01*
X130039493Y-78440514D01*
X129847586Y-78361024D01*
X129643861Y-78320500D01*
X129643859Y-78320500D01*
X129436141Y-78320500D01*
X129436138Y-78320500D01*
X129232413Y-78361024D01*
X129232408Y-78361026D01*
X129040507Y-78440514D01*
X128867796Y-78555916D01*
X128867790Y-78555921D01*
X128720921Y-78702790D01*
X128720916Y-78702796D01*
X128605514Y-78875507D01*
X128526026Y-79067408D01*
X128526024Y-79067413D01*
X128485500Y-79271138D01*
X128054499Y-79271138D01*
X128013976Y-79067414D01*
X127934486Y-78875507D01*
X127819083Y-78702796D01*
X127819078Y-78702790D01*
X127672209Y-78555921D01*
X127672203Y-78555916D01*
X127614895Y-78517623D01*
X127499493Y-78440514D01*
X127307586Y-78361024D01*
X127103861Y-78320500D01*
X127103859Y-78320500D01*
X126896141Y-78320500D01*
X126896138Y-78320500D01*
X126692413Y-78361024D01*
X126692408Y-78361026D01*
X126500507Y-78440514D01*
X126327796Y-78555916D01*
X126327790Y-78555921D01*
X126180921Y-78702790D01*
X126180916Y-78702796D01*
X126065514Y-78875507D01*
X125986026Y-79067408D01*
X125986024Y-79067413D01*
X125945500Y-79271138D01*
X118610500Y-79271138D01*
X118610500Y-75502406D01*
X130809500Y-75502406D01*
X130809500Y-75502409D01*
X130809500Y-75627591D01*
X130833922Y-75750369D01*
X130881827Y-75866022D01*
X130951375Y-75970108D01*
X131039892Y-76058625D01*
X131143978Y-76128173D01*
X131259631Y-76176078D01*
X131382409Y-76200500D01*
X131382410Y-76200500D01*
X131507590Y-76200500D01*
X131507591Y-76200500D01*
X131630369Y-76176078D01*
X131746022Y-76128173D01*
X131850108Y-76058625D01*
X131938625Y-75970108D01*
X132008173Y-75866022D01*
X132056078Y-75750369D01*
X132080500Y-75627591D01*
X132080500Y-75502409D01*
X132080499Y-75502406D01*
X139064500Y-75502406D01*
X139064500Y-75502409D01*
X139064500Y-75627591D01*
X139088922Y-75750369D01*
X139136827Y-75866022D01*
X139206375Y-75970108D01*
X139294892Y-76058625D01*
X139398978Y-76128173D01*
X139514631Y-76176078D01*
X139637409Y-76200500D01*
X139637410Y-76200500D01*
X139762590Y-76200500D01*
X139762591Y-76200500D01*
X139885369Y-76176078D01*
X140001022Y-76128173D01*
X140105108Y-76058625D01*
X140193625Y-75970108D01*
X140263173Y-75866022D01*
X140311078Y-75750369D01*
X140335500Y-75627591D01*
X140335500Y-75502409D01*
X140311078Y-75379631D01*
X140263173Y-75263978D01*
X140193625Y-75159892D01*
X140105108Y-75071375D01*
X140001022Y-75001827D01*
X139885369Y-74953922D01*
X139876918Y-74952241D01*
X139762593Y-74929500D01*
X139762591Y-74929500D01*
X139637409Y-74929500D01*
X139637406Y-74929500D01*
X139514630Y-74953922D01*
X139514625Y-74953924D01*
X139398977Y-75001827D01*
X139294896Y-75071372D01*
X139294889Y-75071377D01*
X139206377Y-75159889D01*
X139206372Y-75159896D01*
X139136827Y-75263977D01*
X139088924Y-75379625D01*
X139088922Y-75379630D01*
X139064500Y-75502406D01*
X132080499Y-75502406D01*
X132056078Y-75379631D01*
X132008173Y-75263978D01*
X131938625Y-75159892D01*
X131850108Y-75071375D01*
X131746022Y-75001827D01*
X131630369Y-74953922D01*
X131621918Y-74952241D01*
X131507593Y-74929500D01*
X131507591Y-74929500D01*
X131382409Y-74929500D01*
X131382406Y-74929500D01*
X131259630Y-74953922D01*
X131259625Y-74953924D01*
X131143977Y-75001827D01*
X131039896Y-75071372D01*
X131039889Y-75071377D01*
X130951377Y-75159889D01*
X130951372Y-75159896D01*
X130881827Y-75263977D01*
X130833924Y-75379625D01*
X130833922Y-75379630D01*
X130809500Y-75502406D01*
X118610500Y-75502406D01*
X118610500Y-71261779D01*
X131021773Y-71261779D01*
X131027686Y-71265730D01*
X131188016Y-71332141D01*
X131188021Y-71332143D01*
X131358226Y-71365999D01*
X131358230Y-71366000D01*
X131531770Y-71366000D01*
X131531773Y-71365999D01*
X131701978Y-71332143D01*
X131701983Y-71332141D01*
X131862307Y-71265732D01*
X131862309Y-71265732D01*
X131868224Y-71261779D01*
X139276774Y-71261779D01*
X139282686Y-71265730D01*
X139443016Y-71332141D01*
X139443021Y-71332143D01*
X139613226Y-71365999D01*
X139613230Y-71366000D01*
X139786770Y-71366000D01*
X139786773Y-71365999D01*
X139956978Y-71332143D01*
X139956983Y-71332141D01*
X140117307Y-71265732D01*
X140117309Y-71265732D01*
X140123224Y-71261779D01*
X140123224Y-71261777D01*
X139700001Y-70838554D01*
X139700000Y-70838554D01*
X139276774Y-71261779D01*
X131868224Y-71261779D01*
X131868224Y-71261777D01*
X131445001Y-70838554D01*
X131445000Y-70838554D01*
X131021773Y-71261779D01*
X118610500Y-71261779D01*
X118610500Y-70398226D01*
X130564000Y-70398226D01*
X130564000Y-70571773D01*
X130597856Y-70741978D01*
X130597857Y-70741979D01*
X130664270Y-70902312D01*
X130668219Y-70908224D01*
X131091445Y-70484999D01*
X131045975Y-70439529D01*
X131216400Y-70439529D01*
X131216400Y-70530471D01*
X131251202Y-70614492D01*
X131315508Y-70678798D01*
X131399529Y-70713600D01*
X131490471Y-70713600D01*
X131574492Y-70678798D01*
X131638798Y-70614492D01*
X131673600Y-70530471D01*
X131673600Y-70484999D01*
X131798554Y-70484999D01*
X131798554Y-70485001D01*
X132221777Y-70908224D01*
X132221779Y-70908224D01*
X132225732Y-70902309D01*
X132225732Y-70902307D01*
X132292141Y-70741983D01*
X132292143Y-70741978D01*
X132325999Y-70571773D01*
X132326000Y-70571769D01*
X132326000Y-70398230D01*
X132325999Y-70398226D01*
X138819000Y-70398226D01*
X138819000Y-70571773D01*
X138852856Y-70741978D01*
X138852857Y-70741979D01*
X138919270Y-70902312D01*
X138923219Y-70908224D01*
X139346445Y-70484999D01*
X139300975Y-70439529D01*
X139471400Y-70439529D01*
X139471400Y-70530471D01*
X139506202Y-70614492D01*
X139570508Y-70678798D01*
X139654529Y-70713600D01*
X139745471Y-70713600D01*
X139829492Y-70678798D01*
X139893798Y-70614492D01*
X139928600Y-70530471D01*
X139928600Y-70484999D01*
X140053554Y-70484999D01*
X140053554Y-70485001D01*
X140476777Y-70908224D01*
X140476779Y-70908224D01*
X140480732Y-70902309D01*
X140480732Y-70902307D01*
X140547141Y-70741983D01*
X140547143Y-70741978D01*
X140580999Y-70571773D01*
X140581000Y-70571769D01*
X140581000Y-70398230D01*
X140580999Y-70398226D01*
X140547143Y-70228021D01*
X140547141Y-70228016D01*
X140480730Y-70067686D01*
X140476779Y-70061774D01*
X140053554Y-70484999D01*
X139928600Y-70484999D01*
X139928600Y-70439529D01*
X139893798Y-70355508D01*
X139829492Y-70291202D01*
X139745471Y-70256400D01*
X139654529Y-70256400D01*
X139570508Y-70291202D01*
X139506202Y-70355508D01*
X139471400Y-70439529D01*
X139300975Y-70439529D01*
X138923219Y-70061774D01*
X138919269Y-70067689D01*
X138852857Y-70228020D01*
X138852856Y-70228021D01*
X138819000Y-70398226D01*
X132325999Y-70398226D01*
X132292143Y-70228021D01*
X132292141Y-70228016D01*
X132225730Y-70067686D01*
X132221779Y-70061774D01*
X131798554Y-70484999D01*
X131673600Y-70484999D01*
X131673600Y-70439529D01*
X131638798Y-70355508D01*
X131574492Y-70291202D01*
X131490471Y-70256400D01*
X131399529Y-70256400D01*
X131315508Y-70291202D01*
X131251202Y-70355508D01*
X131216400Y-70439529D01*
X131045975Y-70439529D01*
X130668219Y-70061774D01*
X130664269Y-70067689D01*
X130597857Y-70228020D01*
X130597856Y-70228021D01*
X130564000Y-70398226D01*
X118610500Y-70398226D01*
X118610500Y-69708219D01*
X131021774Y-69708219D01*
X131444999Y-70131445D01*
X131868224Y-69708219D01*
X139276774Y-69708219D01*
X139699999Y-70131445D01*
X140123224Y-69708219D01*
X140117312Y-69704270D01*
X139956979Y-69637857D01*
X139956978Y-69637856D01*
X139786773Y-69604000D01*
X139613226Y-69604000D01*
X139443021Y-69637856D01*
X139443020Y-69637857D01*
X139282689Y-69704269D01*
X139276774Y-69708219D01*
X131868224Y-69708219D01*
X131862312Y-69704270D01*
X131701979Y-69637857D01*
X131701978Y-69637856D01*
X131531773Y-69604000D01*
X131358226Y-69604000D01*
X131188021Y-69637856D01*
X131188020Y-69637857D01*
X131027689Y-69704269D01*
X131021774Y-69708219D01*
X118610500Y-69708219D01*
X118610500Y-64569999D01*
X139907500Y-64569999D01*
X139907500Y-64716001D01*
X139940824Y-64840372D01*
X139945289Y-64857033D01*
X140018286Y-64983467D01*
X140018294Y-64983477D01*
X140121522Y-65086705D01*
X140121527Y-65086709D01*
X140121529Y-65086711D01*
X140121530Y-65086712D01*
X140121532Y-65086713D01*
X140247966Y-65159710D01*
X140247968Y-65159710D01*
X140247971Y-65159712D01*
X140388999Y-65197500D01*
X140389001Y-65197500D01*
X140534999Y-65197500D01*
X140535001Y-65197500D01*
X140676029Y-65159712D01*
X140707779Y-65141380D01*
X140770779Y-65124500D01*
X141104501Y-65124500D01*
X141172622Y-65144502D01*
X141219115Y-65198158D01*
X141230501Y-65250500D01*
X141230501Y-65443246D01*
X141230502Y-65443270D01*
X141236959Y-65503339D01*
X141236959Y-65503341D01*
X141287657Y-65639266D01*
X141287658Y-65639267D01*
X141374596Y-65755404D01*
X141490733Y-65842342D01*
X141626658Y-65893040D01*
X141686745Y-65899500D01*
X142408254Y-65899499D01*
X142468342Y-65893040D01*
X142604267Y-65842342D01*
X142720404Y-65755404D01*
X142807342Y-65639267D01*
X142858040Y-65503342D01*
X142864500Y-65443255D01*
X142864499Y-64096746D01*
X142858040Y-64036658D01*
X142807342Y-63900733D01*
X142720404Y-63784596D01*
X142604267Y-63697658D01*
X142604265Y-63697657D01*
X142604266Y-63697657D01*
X142468349Y-63646962D01*
X142468344Y-63646960D01*
X142468342Y-63646960D01*
X142438298Y-63643730D01*
X142408256Y-63640500D01*
X141686753Y-63640500D01*
X141686729Y-63640502D01*
X141626660Y-63646959D01*
X141626658Y-63646959D01*
X141490733Y-63697657D01*
X141374596Y-63784596D01*
X141287657Y-63900734D01*
X141236962Y-64036650D01*
X141236960Y-64036658D01*
X141230500Y-64096737D01*
X141230500Y-64289500D01*
X141227908Y-64298325D01*
X141229218Y-64307432D01*
X141218062Y-64331857D01*
X141210498Y-64357621D01*
X141203544Y-64363645D01*
X141199724Y-64372012D01*
X141177138Y-64386526D01*
X141156842Y-64404114D01*
X141146155Y-64406438D01*
X141139998Y-64410396D01*
X141104500Y-64415500D01*
X141043681Y-64415500D01*
X140975560Y-64395498D01*
X140934562Y-64352500D01*
X140905713Y-64302532D01*
X140905705Y-64302522D01*
X140802477Y-64199294D01*
X140802467Y-64199286D01*
X140676033Y-64126289D01*
X140659372Y-64121824D01*
X140535001Y-64088500D01*
X140388999Y-64088500D01*
X140302686Y-64111627D01*
X140247966Y-64126289D01*
X140121532Y-64199286D01*
X140121522Y-64199294D01*
X140018294Y-64302522D01*
X140018286Y-64302532D01*
X139945289Y-64428966D01*
X139945288Y-64428971D01*
X139907500Y-64569999D01*
X118610500Y-64569999D01*
X118610500Y-61394999D01*
X140161500Y-61394999D01*
X140161500Y-61541001D01*
X140194824Y-61665372D01*
X140199289Y-61682033D01*
X140272286Y-61808467D01*
X140272294Y-61808477D01*
X140375522Y-61911705D01*
X140375527Y-61911709D01*
X140375529Y-61911711D01*
X140375530Y-61911712D01*
X140375532Y-61911713D01*
X140501966Y-61984710D01*
X140501968Y-61984710D01*
X140501971Y-61984712D01*
X140642999Y-62022500D01*
X140643001Y-62022500D01*
X140788999Y-62022500D01*
X140789001Y-62022500D01*
X140930029Y-61984712D01*
X140961779Y-61966380D01*
X140977518Y-61962163D01*
X140989281Y-61954604D01*
X141024779Y-61949500D01*
X141104501Y-61949500D01*
X141172622Y-61969502D01*
X141219115Y-62023158D01*
X141230501Y-62075500D01*
X141230501Y-62268246D01*
X141230502Y-62268270D01*
X141236959Y-62328339D01*
X141236959Y-62328341D01*
X141287657Y-62464266D01*
X141287658Y-62464267D01*
X141374596Y-62580404D01*
X141490733Y-62667342D01*
X141626658Y-62718040D01*
X141686745Y-62724500D01*
X142408254Y-62724499D01*
X142468342Y-62718040D01*
X142604267Y-62667342D01*
X142720404Y-62580404D01*
X142807342Y-62464267D01*
X142858040Y-62328342D01*
X142864500Y-62268255D01*
X142864499Y-60921746D01*
X142858040Y-60861658D01*
X142807342Y-60725733D01*
X142720404Y-60609596D01*
X142604267Y-60522658D01*
X142604265Y-60522657D01*
X142604266Y-60522657D01*
X142468349Y-60471962D01*
X142468344Y-60471960D01*
X142468342Y-60471960D01*
X142438298Y-60468730D01*
X142408256Y-60465500D01*
X141686753Y-60465500D01*
X141686729Y-60465502D01*
X141626660Y-60471959D01*
X141626658Y-60471959D01*
X141490733Y-60522657D01*
X141374596Y-60609596D01*
X141287657Y-60725734D01*
X141236962Y-60861650D01*
X141236960Y-60861658D01*
X141230634Y-60920491D01*
X141203463Y-60986083D01*
X141145144Y-61026573D01*
X141074193Y-61029105D01*
X141042356Y-61016139D01*
X140930033Y-60951289D01*
X140913372Y-60946824D01*
X140789001Y-60913500D01*
X140642999Y-60913500D01*
X140556686Y-60936627D01*
X140501966Y-60951289D01*
X140375532Y-61024286D01*
X140375522Y-61024294D01*
X140272294Y-61127522D01*
X140272286Y-61127532D01*
X140199289Y-61253966D01*
X140183323Y-61313553D01*
X140161500Y-61394999D01*
X118610500Y-61394999D01*
X118610500Y-59174978D01*
X133855001Y-59174978D01*
X133865493Y-59277691D01*
X133920642Y-59444122D01*
X134012683Y-59593344D01*
X134012688Y-59593350D01*
X134136649Y-59717311D01*
X134136655Y-59717316D01*
X134285877Y-59809357D01*
X134452308Y-59864506D01*
X134555012Y-59874999D01*
X135005000Y-59874999D01*
X135505000Y-59874999D01*
X135954978Y-59874999D01*
X136057691Y-59864506D01*
X136224122Y-59809357D01*
X136373344Y-59717316D01*
X136373350Y-59717311D01*
X136497311Y-59593350D01*
X136497316Y-59593344D01*
X136589357Y-59444122D01*
X136644506Y-59277691D01*
X136654999Y-59174987D01*
X136655000Y-59174987D01*
X136655000Y-58962500D01*
X135505000Y-58962500D01*
X135505000Y-59874999D01*
X135005000Y-59874999D01*
X135005000Y-58962500D01*
X133855001Y-58962500D01*
X133855001Y-59174978D01*
X118610500Y-59174978D01*
X118610500Y-58250012D01*
X133855000Y-58250012D01*
X133855000Y-58462500D01*
X135005000Y-58462500D01*
X135505000Y-58462500D01*
X136654999Y-58462500D01*
X136654999Y-58250021D01*
X136644506Y-58147308D01*
X136589357Y-57980877D01*
X136497316Y-57831655D01*
X136497311Y-57831649D01*
X136373350Y-57707688D01*
X136373344Y-57707683D01*
X136224122Y-57615642D01*
X136057691Y-57560493D01*
X135954987Y-57550000D01*
X135505000Y-57550000D01*
X135505000Y-58462500D01*
X135005000Y-58462500D01*
X135005000Y-57550000D01*
X134555021Y-57550000D01*
X134452308Y-57560493D01*
X134285877Y-57615642D01*
X134136655Y-57707683D01*
X134136649Y-57707688D01*
X134012688Y-57831649D01*
X134012683Y-57831655D01*
X133920642Y-57980877D01*
X133865493Y-58147308D01*
X133855000Y-58250012D01*
X118610500Y-58250012D01*
X118610500Y-53938930D01*
X121527500Y-53938930D01*
X121527500Y-55789063D01*
X121527501Y-55789073D01*
X121542265Y-55863300D01*
X121598516Y-55947484D01*
X121682697Y-56003733D01*
X121682699Y-56003734D01*
X121756933Y-56018500D01*
X123607066Y-56018499D01*
X123607069Y-56018498D01*
X123607073Y-56018498D01*
X123656326Y-56008701D01*
X123681301Y-56003734D01*
X123765484Y-55947484D01*
X123821734Y-55863301D01*
X123836500Y-55789067D01*
X123836499Y-55711509D01*
X123840077Y-55696821D01*
X123850587Y-55678653D01*
X123856500Y-55658515D01*
X123868005Y-55648545D01*
X123875629Y-55635367D01*
X123894293Y-55625765D01*
X123910155Y-55612021D01*
X123925224Y-55609854D01*
X123938762Y-55602890D01*
X123959653Y-55604903D01*
X123980429Y-55601916D01*
X123994278Y-55608240D01*
X124009431Y-55609701D01*
X124025916Y-55622688D01*
X124045010Y-55631408D01*
X124064436Y-55652574D01*
X124070930Y-55661513D01*
X124070933Y-55661513D01*
X124779861Y-54952584D01*
X124802667Y-55037694D01*
X124861910Y-55140306D01*
X124945694Y-55224090D01*
X125048306Y-55283333D01*
X125133414Y-55306137D01*
X124424485Y-56015066D01*
X124488240Y-56061386D01*
X124488241Y-56061387D01*
X124684585Y-56161429D01*
X124684591Y-56161432D01*
X124894162Y-56229525D01*
X124894158Y-56229525D01*
X125111821Y-56264000D01*
X125332179Y-56264000D01*
X125549839Y-56229525D01*
X125759408Y-56161432D01*
X125759414Y-56161429D01*
X125955763Y-56061384D01*
X126019513Y-56015067D01*
X126019513Y-56015065D01*
X125310585Y-55306137D01*
X125395694Y-55283333D01*
X125498306Y-55224090D01*
X125582090Y-55140306D01*
X125641333Y-55037694D01*
X125664137Y-54952585D01*
X126373065Y-55661513D01*
X126373067Y-55661513D01*
X126419384Y-55597763D01*
X126519429Y-55401414D01*
X126519432Y-55401408D01*
X126587525Y-55191839D01*
X126597837Y-55126737D01*
X134100500Y-55126737D01*
X134100500Y-56048246D01*
X134100502Y-56048270D01*
X134106959Y-56108339D01*
X134106959Y-56108341D01*
X134157657Y-56244266D01*
X134157658Y-56244267D01*
X134244596Y-56360404D01*
X134360733Y-56447342D01*
X134496658Y-56498040D01*
X134556745Y-56504500D01*
X135953254Y-56504499D01*
X136013342Y-56498040D01*
X136149267Y-56447342D01*
X136156405Y-56441999D01*
X138891500Y-56441999D01*
X138891500Y-56588001D01*
X138924824Y-56712372D01*
X138929289Y-56729033D01*
X139002286Y-56855467D01*
X139002294Y-56855477D01*
X139105522Y-56958705D01*
X139105527Y-56958709D01*
X139105529Y-56958711D01*
X139105530Y-56958712D01*
X139105532Y-56958713D01*
X139231966Y-57031710D01*
X139231968Y-57031710D01*
X139231971Y-57031712D01*
X139372999Y-57069500D01*
X139373001Y-57069500D01*
X139518999Y-57069500D01*
X139519001Y-57069500D01*
X139660029Y-57031712D01*
X139660032Y-57031710D01*
X139660033Y-57031710D01*
X139793623Y-56954582D01*
X139795267Y-56957430D01*
X139847046Y-56937350D01*
X139916609Y-56951541D01*
X139925729Y-56956870D01*
X139937157Y-56964206D01*
X139969277Y-56996326D01*
X140056123Y-57040576D01*
X140061406Y-57043968D01*
X140080722Y-57066237D01*
X140102157Y-57086482D01*
X140103705Y-57092733D01*
X140107926Y-57097600D01*
X140112136Y-57126778D01*
X140119223Y-57155396D01*
X140117145Y-57161493D01*
X140118065Y-57167869D01*
X140105831Y-57194693D01*
X140096322Y-57222598D01*
X140091002Y-57227206D01*
X140088605Y-57232465D01*
X140074354Y-57241633D01*
X140050542Y-57262267D01*
X139969277Y-57303673D01*
X139969274Y-57303675D01*
X139878673Y-57394276D01*
X139820501Y-57508446D01*
X139805500Y-57603167D01*
X139805500Y-57966832D01*
X139820501Y-58061553D01*
X139878673Y-58175723D01*
X139969276Y-58266326D01*
X140026361Y-58295412D01*
X140083445Y-58324498D01*
X140178166Y-58339500D01*
X140178168Y-58339500D01*
X141891832Y-58339500D01*
X141891834Y-58339500D01*
X141986555Y-58324498D01*
X142100723Y-58266326D01*
X142191326Y-58175723D01*
X142249498Y-58061555D01*
X142264500Y-57966834D01*
X142264500Y-57603166D01*
X142249498Y-57508445D01*
X142220412Y-57451361D01*
X142191326Y-57394276D01*
X142100723Y-57303673D01*
X142044677Y-57275117D01*
X142019455Y-57262266D01*
X141967842Y-57213519D01*
X141950776Y-57144604D01*
X141973677Y-57077402D01*
X142019455Y-57037734D01*
X142100723Y-56996326D01*
X142191326Y-56905723D01*
X142249498Y-56791555D01*
X142264500Y-56696834D01*
X142264500Y-56333166D01*
X142249498Y-56238445D01*
X142199591Y-56140498D01*
X142191326Y-56124276D01*
X142100723Y-56033673D01*
X142041961Y-56003733D01*
X142019455Y-55992266D01*
X141967842Y-55943519D01*
X141950776Y-55874604D01*
X141973677Y-55807402D01*
X142019455Y-55767734D01*
X142100723Y-55726326D01*
X142191326Y-55635723D01*
X142249498Y-55521555D01*
X142264500Y-55426834D01*
X142264500Y-55063166D01*
X142249498Y-54968445D01*
X142209783Y-54890500D01*
X142191326Y-54854276D01*
X142100723Y-54763673D01*
X142030036Y-54727657D01*
X142019455Y-54722266D01*
X141967842Y-54673519D01*
X141950776Y-54604604D01*
X141973677Y-54537402D01*
X142019455Y-54497734D01*
X142100723Y-54456326D01*
X142191326Y-54365723D01*
X142249498Y-54251555D01*
X142264500Y-54156834D01*
X142264500Y-53793166D01*
X142249498Y-53698445D01*
X142220412Y-53641361D01*
X142191326Y-53584276D01*
X142148289Y-53541239D01*
X142114263Y-53478927D01*
X142119328Y-53408112D01*
X142148286Y-53363051D01*
X142331171Y-53180168D01*
X142377841Y-53099332D01*
X142402000Y-53009171D01*
X142402000Y-52915829D01*
X142402000Y-51400267D01*
X142422002Y-51332146D01*
X142475658Y-51285653D01*
X142483940Y-51282222D01*
X142604267Y-51237342D01*
X142720404Y-51150404D01*
X142807342Y-51034267D01*
X142858040Y-50898342D01*
X142864500Y-50838255D01*
X142864499Y-49491746D01*
X142858040Y-49431658D01*
X142807342Y-49295733D01*
X142720404Y-49179596D01*
X142604267Y-49092658D01*
X142604265Y-49092657D01*
X142604266Y-49092657D01*
X142468349Y-49041962D01*
X142468344Y-49041960D01*
X142468342Y-49041960D01*
X142438298Y-49038730D01*
X142408256Y-49035500D01*
X141686753Y-49035500D01*
X141686729Y-49035502D01*
X141626660Y-49041959D01*
X141626658Y-49041959D01*
X141490733Y-49092657D01*
X141374596Y-49179596D01*
X141287657Y-49295734D01*
X141236962Y-49431650D01*
X141236960Y-49431658D01*
X141230500Y-49491737D01*
X141230500Y-50838246D01*
X141230502Y-50838270D01*
X141236959Y-50898339D01*
X141236959Y-50898341D01*
X141287657Y-51034266D01*
X141287658Y-51034267D01*
X141374596Y-51150404D01*
X141490733Y-51237342D01*
X141611035Y-51282213D01*
X141667868Y-51324758D01*
X141692679Y-51391279D01*
X141693000Y-51400267D01*
X141693000Y-52763471D01*
X141672998Y-52831592D01*
X141656095Y-52852566D01*
X141125066Y-53383595D01*
X141062754Y-53417621D01*
X141035971Y-53420500D01*
X140178166Y-53420500D01*
X140152266Y-53424602D01*
X140083446Y-53435501D01*
X139969276Y-53493673D01*
X139878673Y-53584276D01*
X139820501Y-53698446D01*
X139805500Y-53793167D01*
X139805500Y-54156832D01*
X139820501Y-54251553D01*
X139878673Y-54365723D01*
X139969274Y-54456324D01*
X139969277Y-54456326D01*
X140050542Y-54497733D01*
X140102157Y-54546482D01*
X140119223Y-54615396D01*
X140096322Y-54682598D01*
X140050542Y-54722267D01*
X139969277Y-54763673D01*
X139969274Y-54763675D01*
X139878673Y-54854276D01*
X139820501Y-54968446D01*
X139805500Y-55063167D01*
X139805500Y-55426832D01*
X139820501Y-55521553D01*
X139878673Y-55635723D01*
X139969274Y-55726324D01*
X139969277Y-55726326D01*
X140050542Y-55767733D01*
X140055272Y-55772200D01*
X140061514Y-55774037D01*
X140080769Y-55796282D01*
X140102157Y-55816482D01*
X140103720Y-55822796D01*
X140107979Y-55827716D01*
X140112151Y-55856839D01*
X140119223Y-55885396D01*
X140117124Y-55891554D01*
X140118047Y-55897995D01*
X140105810Y-55924753D01*
X140096322Y-55952598D01*
X140090550Y-55958124D01*
X140088522Y-55962561D01*
X140074306Y-55973679D01*
X140061406Y-55986033D01*
X140056130Y-55989419D01*
X139969277Y-56033674D01*
X139937157Y-56065793D01*
X139925729Y-56073130D01*
X139904163Y-56079450D01*
X139884443Y-56090218D01*
X139870761Y-56089239D01*
X139857598Y-56093097D01*
X139836041Y-56086755D01*
X139813628Y-56085152D01*
X139794428Y-56074513D01*
X139794186Y-56074442D01*
X139793623Y-56075418D01*
X139789592Y-56073091D01*
X139789487Y-56073060D01*
X139789435Y-56073000D01*
X139660033Y-55998289D01*
X139614292Y-55986033D01*
X139519001Y-55960500D01*
X139372999Y-55960500D01*
X139286686Y-55983627D01*
X139231966Y-55998289D01*
X139105532Y-56071286D01*
X139105522Y-56071294D01*
X139002294Y-56174522D01*
X139002286Y-56174532D01*
X138929289Y-56300966D01*
X138913363Y-56360403D01*
X138891500Y-56441999D01*
X136156405Y-56441999D01*
X136265404Y-56360404D01*
X136352342Y-56244267D01*
X136403040Y-56108342D01*
X136409500Y-56048255D01*
X136409499Y-55126746D01*
X136403040Y-55066658D01*
X136352342Y-54930733D01*
X136265404Y-54814596D01*
X136149267Y-54727658D01*
X136149265Y-54727657D01*
X136149266Y-54727657D01*
X136013349Y-54676962D01*
X136013344Y-54676960D01*
X136013342Y-54676960D01*
X136005831Y-54676152D01*
X135953262Y-54670500D01*
X135953255Y-54670500D01*
X135858620Y-54670500D01*
X135790499Y-54650498D01*
X135744006Y-54596842D01*
X135733902Y-54526568D01*
X135749501Y-54481499D01*
X135771712Y-54443029D01*
X135809500Y-54302001D01*
X135809500Y-54155999D01*
X135771712Y-54014971D01*
X135771710Y-54014968D01*
X135771710Y-54014966D01*
X135698713Y-53888532D01*
X135698705Y-53888522D01*
X135595477Y-53785294D01*
X135595467Y-53785286D01*
X135469033Y-53712289D01*
X135417369Y-53698446D01*
X135328001Y-53674500D01*
X135181999Y-53674500D01*
X135095686Y-53697627D01*
X135040966Y-53712289D01*
X134914532Y-53785286D01*
X134914522Y-53785294D01*
X134811294Y-53888522D01*
X134811286Y-53888532D01*
X134738289Y-54014966D01*
X134738288Y-54014971D01*
X134700500Y-54155999D01*
X134700500Y-54302001D01*
X134734726Y-54429734D01*
X134738289Y-54443032D01*
X134760499Y-54481501D01*
X134777236Y-54550496D01*
X134754015Y-54617588D01*
X134698208Y-54661475D01*
X134651380Y-54670500D01*
X134556753Y-54670500D01*
X134556729Y-54670502D01*
X134496660Y-54676959D01*
X134496658Y-54676959D01*
X134360733Y-54727657D01*
X134244596Y-54814596D01*
X134157657Y-54930734D01*
X134106962Y-55066650D01*
X134106960Y-55066658D01*
X134100500Y-55126737D01*
X126597837Y-55126737D01*
X126601492Y-55103660D01*
X126622000Y-54974178D01*
X126622000Y-54753821D01*
X126587525Y-54536160D01*
X126519432Y-54326591D01*
X126519429Y-54326585D01*
X126419387Y-54130241D01*
X126419386Y-54130240D01*
X126373066Y-54066485D01*
X125664137Y-54775414D01*
X125641333Y-54690306D01*
X125582090Y-54587694D01*
X125498306Y-54503910D01*
X125395694Y-54444667D01*
X125310584Y-54421861D01*
X126019513Y-53712933D01*
X126019513Y-53712931D01*
X125955763Y-53666615D01*
X125759414Y-53566570D01*
X125759408Y-53566567D01*
X125549837Y-53498474D01*
X125549841Y-53498474D01*
X125332179Y-53464000D01*
X125111821Y-53464000D01*
X124894160Y-53498474D01*
X124684591Y-53566567D01*
X124684585Y-53566570D01*
X124488243Y-53666611D01*
X124424485Y-53712932D01*
X125133414Y-54421861D01*
X125048306Y-54444667D01*
X124945694Y-54503910D01*
X124861910Y-54587694D01*
X124802667Y-54690306D01*
X124779861Y-54775414D01*
X124070932Y-54066485D01*
X124070931Y-54066485D01*
X124064436Y-54075426D01*
X124008214Y-54118780D01*
X123937478Y-54124857D01*
X123874686Y-54091726D01*
X123840077Y-54031179D01*
X123836499Y-54016486D01*
X123836499Y-53938934D01*
X123821734Y-53864699D01*
X123765484Y-53780516D01*
X123765482Y-53780515D01*
X123765482Y-53780514D01*
X123681302Y-53724266D01*
X123607067Y-53709500D01*
X121756936Y-53709500D01*
X121756926Y-53709501D01*
X121682699Y-53724265D01*
X121598515Y-53780516D01*
X121542266Y-53864697D01*
X121527500Y-53938930D01*
X118610500Y-53938930D01*
X118610500Y-47177474D01*
X118630502Y-47109353D01*
X118684158Y-47062860D01*
X118754432Y-47052756D01*
X118819012Y-47082250D01*
X118841265Y-47107472D01*
X118957812Y-47281897D01*
X118957823Y-47281912D01*
X119187409Y-47561664D01*
X119187427Y-47561683D01*
X119443316Y-47817572D01*
X119443335Y-47817590D01*
X119723087Y-48047176D01*
X119723096Y-48047183D01*
X120024019Y-48248253D01*
X120343202Y-48418860D01*
X120677570Y-48557360D01*
X121023903Y-48662419D01*
X121378867Y-48733026D01*
X121739041Y-48768500D01*
X121739050Y-48768500D01*
X122100950Y-48768500D01*
X122100959Y-48768500D01*
X122461133Y-48733026D01*
X122816097Y-48662419D01*
X123162430Y-48557360D01*
X123496798Y-48418860D01*
X123815981Y-48248253D01*
X124116904Y-48047183D01*
X124396670Y-47817585D01*
X124652585Y-47561670D01*
X124882183Y-47281904D01*
X125083253Y-46980981D01*
X125253860Y-46661798D01*
X125392360Y-46327430D01*
X125497419Y-45981097D01*
X125568026Y-45626133D01*
X125603500Y-45265959D01*
X125603500Y-44904041D01*
X125568026Y-44543867D01*
X125526617Y-44335689D01*
X138247500Y-44335689D01*
X138247500Y-44564310D01*
X138283267Y-44790132D01*
X138353914Y-45007561D01*
X138353917Y-45007567D01*
X138457711Y-45211275D01*
X138511347Y-45285098D01*
X138511348Y-45285098D01*
X139217037Y-44579409D01*
X139234075Y-44642993D01*
X139299901Y-44757007D01*
X139392993Y-44850099D01*
X139507007Y-44915925D01*
X139570590Y-44932962D01*
X138864900Y-45638651D01*
X138938724Y-45692288D01*
X139142432Y-45796082D01*
X139142438Y-45796085D01*
X139359867Y-45866732D01*
X139585689Y-45902500D01*
X139814311Y-45902500D01*
X140040132Y-45866732D01*
X140257561Y-45796085D01*
X140257567Y-45796082D01*
X140461277Y-45692287D01*
X140461279Y-45692286D01*
X140535098Y-45638652D01*
X140535099Y-45638651D01*
X139829410Y-44932962D01*
X139892993Y-44915925D01*
X140007007Y-44850099D01*
X140100099Y-44757007D01*
X140165925Y-44642993D01*
X140182962Y-44579410D01*
X140888651Y-45285099D01*
X140888652Y-45285098D01*
X140942286Y-45211279D01*
X140942290Y-45211272D01*
X140996876Y-45104142D01*
X141045624Y-45052526D01*
X141114539Y-45035460D01*
X141181740Y-45058360D01*
X141211079Y-45087283D01*
X141319352Y-45236308D01*
X141319354Y-45236310D01*
X141319356Y-45236313D01*
X141453686Y-45370643D01*
X141453689Y-45370645D01*
X141453692Y-45370648D01*
X141607394Y-45482319D01*
X141776673Y-45568571D01*
X141957360Y-45627279D01*
X142145007Y-45657000D01*
X142145010Y-45657000D01*
X142334990Y-45657000D01*
X142334993Y-45657000D01*
X142522640Y-45627279D01*
X142703327Y-45568571D01*
X142872606Y-45482319D01*
X143026308Y-45370648D01*
X143160648Y-45236308D01*
X143272319Y-45082606D01*
X143358571Y-44913327D01*
X143390167Y-44816082D01*
X143430240Y-44757477D01*
X143495637Y-44729840D01*
X143565594Y-44741947D01*
X143617900Y-44789953D01*
X143629833Y-44816083D01*
X143658414Y-44904050D01*
X143661429Y-44913327D01*
X143747681Y-45082606D01*
X143859352Y-45236308D01*
X143859354Y-45236310D01*
X143859356Y-45236313D01*
X143993686Y-45370643D01*
X143993689Y-45370645D01*
X143993692Y-45370648D01*
X144147394Y-45482319D01*
X144316673Y-45568571D01*
X144497360Y-45627279D01*
X144685007Y-45657000D01*
X144685010Y-45657000D01*
X144874990Y-45657000D01*
X144874993Y-45657000D01*
X145062640Y-45627279D01*
X145243327Y-45568571D01*
X145412606Y-45482319D01*
X145484092Y-45430381D01*
X145550957Y-45406523D01*
X145620109Y-45422602D01*
X145669590Y-45473516D01*
X145683690Y-45543098D01*
X145657933Y-45609258D01*
X145647247Y-45621412D01*
X143706997Y-47561664D01*
X143292332Y-47976329D01*
X143259331Y-48009330D01*
X143226330Y-48042330D01*
X143226326Y-48042335D01*
X143179659Y-48123166D01*
X143155500Y-48213325D01*
X143155500Y-63354174D01*
X143179659Y-63444333D01*
X143226326Y-63525164D01*
X143226331Y-63525170D01*
X144118595Y-64417433D01*
X144152620Y-64479746D01*
X144155500Y-64506529D01*
X144155500Y-65443246D01*
X144155502Y-65443270D01*
X144161959Y-65503339D01*
X144161959Y-65503341D01*
X144212657Y-65639266D01*
X144212658Y-65639267D01*
X144299596Y-65755404D01*
X144415733Y-65842342D01*
X144551658Y-65893040D01*
X144611745Y-65899500D01*
X145333254Y-65899499D01*
X145393342Y-65893040D01*
X145463766Y-65866773D01*
X145534582Y-65861707D01*
X145596891Y-65895730D01*
X145596894Y-65895733D01*
X145827595Y-66126434D01*
X145861621Y-66188746D01*
X145864500Y-66215529D01*
X145864500Y-78684653D01*
X145844498Y-78752774D01*
X145790842Y-78799267D01*
X145720568Y-78809371D01*
X145655988Y-78779877D01*
X145633736Y-78754656D01*
X145599085Y-78702799D01*
X145599078Y-78702790D01*
X145452209Y-78555921D01*
X145452203Y-78555916D01*
X145394895Y-78517623D01*
X145279493Y-78440514D01*
X145087586Y-78361024D01*
X144883861Y-78320500D01*
X144883859Y-78320500D01*
X144676141Y-78320500D01*
X144676138Y-78320500D01*
X144472413Y-78361024D01*
X144472408Y-78361026D01*
X144280507Y-78440514D01*
X144107796Y-78555916D01*
X144107790Y-78555921D01*
X143960921Y-78702790D01*
X143960916Y-78702796D01*
X143845514Y-78875507D01*
X143766026Y-79067408D01*
X143766024Y-79067413D01*
X143725500Y-79271138D01*
X143725500Y-79478861D01*
X143749258Y-79598297D01*
X143766024Y-79682586D01*
X143845514Y-79874493D01*
X143845853Y-79875000D01*
X143960916Y-80047203D01*
X143960921Y-80047209D01*
X144107790Y-80194078D01*
X144107796Y-80194083D01*
X144280507Y-80309486D01*
X144472414Y-80388976D01*
X144676141Y-80429500D01*
X144676142Y-80429500D01*
X144883858Y-80429500D01*
X144883859Y-80429500D01*
X145087586Y-80388976D01*
X145279493Y-80309486D01*
X145452204Y-80194083D01*
X145599083Y-80047204D01*
X145633735Y-79995343D01*
X145688212Y-79949816D01*
X145758655Y-79940968D01*
X145822699Y-79971610D01*
X145860011Y-80032011D01*
X145864500Y-80065346D01*
X145864500Y-92976969D01*
X145844498Y-93045090D01*
X145827595Y-93066065D01*
X145292109Y-93601550D01*
X145229797Y-93635575D01*
X145158981Y-93630510D01*
X145154796Y-93628863D01*
X145087591Y-93601026D01*
X145087586Y-93601024D01*
X144883861Y-93560500D01*
X144883859Y-93560500D01*
X144676141Y-93560500D01*
X144676138Y-93560500D01*
X144472413Y-93601024D01*
X144472408Y-93601026D01*
X144280507Y-93680514D01*
X144107796Y-93795916D01*
X144107790Y-93795921D01*
X143960921Y-93942790D01*
X143960916Y-93942796D01*
X143845514Y-94115507D01*
X143766026Y-94307408D01*
X143766024Y-94307413D01*
X143725500Y-94511138D01*
X143725500Y-94718861D01*
X143749258Y-94838297D01*
X143766024Y-94922586D01*
X143845514Y-95114493D01*
X143845853Y-95115000D01*
X143960916Y-95287203D01*
X143960921Y-95287209D01*
X144107790Y-95434078D01*
X144107796Y-95434083D01*
X144280507Y-95549486D01*
X144472414Y-95628976D01*
X144676141Y-95669500D01*
X144676142Y-95669500D01*
X144883858Y-95669500D01*
X144883859Y-95669500D01*
X145087586Y-95628976D01*
X145279493Y-95549486D01*
X145452204Y-95434083D01*
X145599083Y-95287204D01*
X145714486Y-95114493D01*
X145793976Y-94922586D01*
X145834500Y-94718859D01*
X145834500Y-94511141D01*
X145793976Y-94307414D01*
X145766136Y-94240201D01*
X145758547Y-94169611D01*
X145790327Y-94106124D01*
X145793420Y-94102917D01*
X146502671Y-93393668D01*
X146549341Y-93312832D01*
X146573500Y-93222671D01*
X146573500Y-93129329D01*
X146573500Y-80380170D01*
X146593502Y-80312049D01*
X146647158Y-80265556D01*
X146717432Y-80255452D01*
X146769501Y-80275404D01*
X146820507Y-80309486D01*
X147012414Y-80388976D01*
X147216141Y-80429500D01*
X147216142Y-80429500D01*
X147423858Y-80429500D01*
X147423859Y-80429500D01*
X147627586Y-80388976D01*
X147819493Y-80309486D01*
X147992204Y-80194083D01*
X148012354Y-80173933D01*
X148067405Y-80118883D01*
X148129717Y-80084857D01*
X148200532Y-80089922D01*
X148257368Y-80132469D01*
X148282179Y-80198989D01*
X148282500Y-80207978D01*
X148282500Y-93098969D01*
X148262498Y-93167090D01*
X148245595Y-93188065D01*
X147832109Y-93601550D01*
X147769797Y-93635575D01*
X147698981Y-93630510D01*
X147694796Y-93628863D01*
X147627591Y-93601026D01*
X147627586Y-93601024D01*
X147423861Y-93560500D01*
X147423859Y-93560500D01*
X147216141Y-93560500D01*
X147216138Y-93560500D01*
X147012413Y-93601024D01*
X147012408Y-93601026D01*
X146820507Y-93680514D01*
X146647796Y-93795916D01*
X146647790Y-93795921D01*
X146500921Y-93942790D01*
X146500916Y-93942796D01*
X146385514Y-94115507D01*
X146306026Y-94307408D01*
X146306024Y-94307413D01*
X146265500Y-94511138D01*
X146265500Y-94718861D01*
X146289258Y-94838297D01*
X146306024Y-94922586D01*
X146385514Y-95114493D01*
X146385853Y-95115000D01*
X146500916Y-95287203D01*
X146500921Y-95287209D01*
X146647790Y-95434078D01*
X146647796Y-95434083D01*
X146820507Y-95549486D01*
X147012414Y-95628976D01*
X147216141Y-95669500D01*
X147216142Y-95669500D01*
X147423858Y-95669500D01*
X147423859Y-95669500D01*
X147627586Y-95628976D01*
X147819493Y-95549486D01*
X147992204Y-95434083D01*
X148139083Y-95287204D01*
X148254486Y-95114493D01*
X148333976Y-94922586D01*
X148374500Y-94718859D01*
X148374500Y-94511141D01*
X148374499Y-94511138D01*
X148805500Y-94511138D01*
X148805500Y-94718861D01*
X148829258Y-94838297D01*
X148846024Y-94922586D01*
X148925514Y-95114493D01*
X148925853Y-95115000D01*
X149040916Y-95287203D01*
X149040921Y-95287209D01*
X149187790Y-95434078D01*
X149187796Y-95434083D01*
X149360507Y-95549486D01*
X149552414Y-95628976D01*
X149756141Y-95669500D01*
X149756142Y-95669500D01*
X149963858Y-95669500D01*
X149963859Y-95669500D01*
X150167586Y-95628976D01*
X150359493Y-95549486D01*
X150532204Y-95434083D01*
X150679083Y-95287204D01*
X150794486Y-95114493D01*
X150873976Y-94922586D01*
X150914500Y-94718859D01*
X150914500Y-94511141D01*
X150914499Y-94511138D01*
X151345500Y-94511138D01*
X151345500Y-94718861D01*
X151369258Y-94838297D01*
X151386024Y-94922586D01*
X151465514Y-95114493D01*
X151465853Y-95115000D01*
X151580916Y-95287203D01*
X151580921Y-95287209D01*
X151727790Y-95434078D01*
X151727796Y-95434083D01*
X151900507Y-95549486D01*
X152092414Y-95628976D01*
X152296141Y-95669500D01*
X152296142Y-95669500D01*
X152503858Y-95669500D01*
X152503859Y-95669500D01*
X152707586Y-95628976D01*
X152899493Y-95549486D01*
X153072204Y-95434083D01*
X153219083Y-95287204D01*
X153334486Y-95114493D01*
X153413976Y-94922586D01*
X153454500Y-94718859D01*
X153454500Y-94511141D01*
X153454499Y-94511138D01*
X153885500Y-94511138D01*
X153885500Y-94718861D01*
X153909258Y-94838297D01*
X153926024Y-94922586D01*
X154005514Y-95114493D01*
X154005853Y-95115000D01*
X154120916Y-95287203D01*
X154120921Y-95287209D01*
X154267790Y-95434078D01*
X154267796Y-95434083D01*
X154440507Y-95549486D01*
X154632414Y-95628976D01*
X154836141Y-95669500D01*
X154836142Y-95669500D01*
X155043858Y-95669500D01*
X155043859Y-95669500D01*
X155247586Y-95628976D01*
X155439493Y-95549486D01*
X155612204Y-95434083D01*
X155759083Y-95287204D01*
X155874486Y-95114493D01*
X155953976Y-94922586D01*
X155994500Y-94718859D01*
X155994500Y-94511141D01*
X155994499Y-94511138D01*
X156425500Y-94511138D01*
X156425500Y-94718861D01*
X156449258Y-94838297D01*
X156466024Y-94922586D01*
X156545514Y-95114493D01*
X156545853Y-95115000D01*
X156660916Y-95287203D01*
X156660921Y-95287209D01*
X156807790Y-95434078D01*
X156807796Y-95434083D01*
X156980507Y-95549486D01*
X157172414Y-95628976D01*
X157376141Y-95669500D01*
X157376142Y-95669500D01*
X157583858Y-95669500D01*
X157583859Y-95669500D01*
X157787586Y-95628976D01*
X157979493Y-95549486D01*
X158152204Y-95434083D01*
X158299083Y-95287204D01*
X158414486Y-95114493D01*
X158493976Y-94922586D01*
X158500256Y-94891013D01*
X158533161Y-94828106D01*
X158594856Y-94792974D01*
X158665751Y-94796773D01*
X158723337Y-94838297D01*
X158748282Y-94895883D01*
X158752009Y-94919414D01*
X158752010Y-94919416D01*
X158815243Y-95114025D01*
X158815246Y-95114034D01*
X158908140Y-95296349D01*
X159028416Y-95461895D01*
X159173104Y-95606583D01*
X159338650Y-95726859D01*
X159520965Y-95819753D01*
X159520974Y-95819756D01*
X159715582Y-95882989D01*
X159715589Y-95882991D01*
X159770000Y-95891608D01*
X159770000Y-95048012D01*
X159827007Y-95080925D01*
X159954174Y-95115000D01*
X160085826Y-95115000D01*
X160212993Y-95080925D01*
X160270000Y-95048012D01*
X160270000Y-95891607D01*
X160324410Y-95882991D01*
X160324417Y-95882989D01*
X160519025Y-95819756D01*
X160519034Y-95819753D01*
X160701349Y-95726859D01*
X160866895Y-95606583D01*
X161011583Y-95461895D01*
X161131859Y-95296349D01*
X161224753Y-95114034D01*
X161224756Y-95114025D01*
X161287989Y-94919419D01*
X161291716Y-94895887D01*
X161322127Y-94831734D01*
X161382395Y-94794206D01*
X161453384Y-94795219D01*
X161512557Y-94834450D01*
X161539743Y-94891011D01*
X161546024Y-94922586D01*
X161625514Y-95114493D01*
X161625853Y-95115000D01*
X161740916Y-95287203D01*
X161740921Y-95287209D01*
X161887790Y-95434078D01*
X161887796Y-95434083D01*
X162060507Y-95549486D01*
X162252414Y-95628976D01*
X162456141Y-95669500D01*
X162456142Y-95669500D01*
X162663858Y-95669500D01*
X162663859Y-95669500D01*
X162867586Y-95628976D01*
X163059493Y-95549486D01*
X163232204Y-95434083D01*
X163379083Y-95287204D01*
X163494486Y-95114493D01*
X163573976Y-94922586D01*
X163614500Y-94718859D01*
X163614500Y-94511141D01*
X163573976Y-94307414D01*
X163494486Y-94115507D01*
X163379083Y-93942796D01*
X163379078Y-93942790D01*
X163232209Y-93795921D01*
X163232203Y-93795916D01*
X163174895Y-93757623D01*
X163059493Y-93680514D01*
X162867586Y-93601024D01*
X162663861Y-93560500D01*
X162663859Y-93560500D01*
X162456141Y-93560500D01*
X162456138Y-93560500D01*
X162252413Y-93601024D01*
X162252408Y-93601026D01*
X162060507Y-93680514D01*
X161887796Y-93795916D01*
X161887790Y-93795921D01*
X161740921Y-93942790D01*
X161740916Y-93942796D01*
X161625514Y-94115507D01*
X161546026Y-94307408D01*
X161546022Y-94307420D01*
X161539743Y-94338987D01*
X161506835Y-94401896D01*
X161445139Y-94437026D01*
X161374244Y-94433225D01*
X161316659Y-94391698D01*
X161291716Y-94334113D01*
X161287988Y-94310580D01*
X161224756Y-94115974D01*
X161224753Y-94115965D01*
X161131859Y-93933650D01*
X161011583Y-93768104D01*
X160866895Y-93623416D01*
X160701349Y-93503140D01*
X160519034Y-93410246D01*
X160519025Y-93410243D01*
X160324420Y-93347011D01*
X160270000Y-93338391D01*
X160270000Y-94181988D01*
X160212993Y-94149075D01*
X160085826Y-94115000D01*
X159954174Y-94115000D01*
X159827007Y-94149075D01*
X159770000Y-94181988D01*
X159770000Y-93338391D01*
X159715579Y-93347011D01*
X159520974Y-93410243D01*
X159520965Y-93410246D01*
X159338650Y-93503140D01*
X159173104Y-93623416D01*
X159028416Y-93768104D01*
X158908140Y-93933650D01*
X158815246Y-94115965D01*
X158815243Y-94115974D01*
X158752010Y-94310583D01*
X158752009Y-94310583D01*
X158748282Y-94334117D01*
X158717868Y-94398269D01*
X158657599Y-94435795D01*
X158586610Y-94434779D01*
X158527439Y-94395545D01*
X158500256Y-94338986D01*
X158493976Y-94307414D01*
X158414486Y-94115507D01*
X158299083Y-93942796D01*
X158299078Y-93942790D01*
X158152209Y-93795921D01*
X158152203Y-93795916D01*
X158094895Y-93757623D01*
X157979493Y-93680514D01*
X157787586Y-93601024D01*
X157583861Y-93560500D01*
X157583859Y-93560500D01*
X157376141Y-93560500D01*
X157376138Y-93560500D01*
X157172413Y-93601024D01*
X157172408Y-93601026D01*
X156980507Y-93680514D01*
X156807796Y-93795916D01*
X156807790Y-93795921D01*
X156660921Y-93942790D01*
X156660916Y-93942796D01*
X156545514Y-94115507D01*
X156466026Y-94307408D01*
X156466024Y-94307413D01*
X156425500Y-94511138D01*
X155994499Y-94511138D01*
X155953976Y-94307414D01*
X155874486Y-94115507D01*
X155759083Y-93942796D01*
X155759078Y-93942790D01*
X155612209Y-93795921D01*
X155612203Y-93795916D01*
X155554895Y-93757623D01*
X155439493Y-93680514D01*
X155247586Y-93601024D01*
X155043861Y-93560500D01*
X155043859Y-93560500D01*
X154836141Y-93560500D01*
X154836138Y-93560500D01*
X154632413Y-93601024D01*
X154632408Y-93601026D01*
X154440507Y-93680514D01*
X154267796Y-93795916D01*
X154267790Y-93795921D01*
X154120921Y-93942790D01*
X154120916Y-93942796D01*
X154005514Y-94115507D01*
X153926026Y-94307408D01*
X153926024Y-94307413D01*
X153885500Y-94511138D01*
X153454499Y-94511138D01*
X153413976Y-94307414D01*
X153334486Y-94115507D01*
X153219083Y-93942796D01*
X153219078Y-93942790D01*
X153072209Y-93795921D01*
X153072203Y-93795916D01*
X153014895Y-93757623D01*
X152899493Y-93680514D01*
X152707586Y-93601024D01*
X152503861Y-93560500D01*
X152503859Y-93560500D01*
X152296141Y-93560500D01*
X152296138Y-93560500D01*
X152092413Y-93601024D01*
X152092408Y-93601026D01*
X151900507Y-93680514D01*
X151727796Y-93795916D01*
X151727790Y-93795921D01*
X151580921Y-93942790D01*
X151580916Y-93942796D01*
X151465514Y-94115507D01*
X151386026Y-94307408D01*
X151386024Y-94307413D01*
X151345500Y-94511138D01*
X150914499Y-94511138D01*
X150873976Y-94307414D01*
X150794486Y-94115507D01*
X150679083Y-93942796D01*
X150679078Y-93942790D01*
X150532209Y-93795921D01*
X150532203Y-93795916D01*
X150474895Y-93757623D01*
X150359493Y-93680514D01*
X150167586Y-93601024D01*
X149963861Y-93560500D01*
X149963859Y-93560500D01*
X149756141Y-93560500D01*
X149756138Y-93560500D01*
X149552413Y-93601024D01*
X149552408Y-93601026D01*
X149360507Y-93680514D01*
X149187796Y-93795916D01*
X149187790Y-93795921D01*
X149040921Y-93942790D01*
X149040916Y-93942796D01*
X148925514Y-94115507D01*
X148846026Y-94307408D01*
X148846024Y-94307413D01*
X148805500Y-94511138D01*
X148374499Y-94511138D01*
X148333976Y-94307414D01*
X148306136Y-94240201D01*
X148298547Y-94169611D01*
X148330327Y-94106124D01*
X148333420Y-94102918D01*
X148920671Y-93515668D01*
X148967341Y-93434832D01*
X148991500Y-93344671D01*
X148991500Y-93251329D01*
X148991500Y-88644929D01*
X157815500Y-88644929D01*
X157815500Y-91695062D01*
X157815501Y-91695071D01*
X157830265Y-91769299D01*
X157886516Y-91853483D01*
X157970697Y-91909732D01*
X157970699Y-91909733D01*
X158044933Y-91924499D01*
X161095066Y-91924498D01*
X161095069Y-91924497D01*
X161095072Y-91924497D01*
X161131663Y-91917218D01*
X161169301Y-91909733D01*
X161253484Y-91853483D01*
X161309734Y-91769300D01*
X161324500Y-91695066D01*
X161324499Y-88644933D01*
X161309734Y-88570698D01*
X161253484Y-88486515D01*
X161253483Y-88486514D01*
X161169302Y-88430265D01*
X161095067Y-88415499D01*
X158044936Y-88415499D01*
X158044927Y-88415500D01*
X157970699Y-88430264D01*
X157886515Y-88486515D01*
X157830266Y-88570696D01*
X157815500Y-88644929D01*
X148991500Y-88644929D01*
X148991500Y-80298651D01*
X149011502Y-80230530D01*
X149065158Y-80184037D01*
X149135432Y-80173933D01*
X149187503Y-80193886D01*
X149187792Y-80194079D01*
X149187796Y-80194083D01*
X149360507Y-80309486D01*
X149360508Y-80309486D01*
X149360509Y-80309487D01*
X149408483Y-80329358D01*
X149552414Y-80388976D01*
X149756141Y-80429500D01*
X149756142Y-80429500D01*
X149963858Y-80429500D01*
X149963859Y-80429500D01*
X150167586Y-80388976D01*
X150359493Y-80309486D01*
X150532204Y-80194083D01*
X150679083Y-80047204D01*
X150794486Y-79874493D01*
X150873976Y-79682586D01*
X150914500Y-79478859D01*
X150914500Y-79271141D01*
X150914499Y-79271138D01*
X151345500Y-79271138D01*
X151345500Y-79478861D01*
X151369258Y-79598297D01*
X151386024Y-79682586D01*
X151465514Y-79874493D01*
X151465853Y-79875000D01*
X151580916Y-80047203D01*
X151580921Y-80047209D01*
X151727790Y-80194078D01*
X151727796Y-80194083D01*
X151900507Y-80309486D01*
X152092414Y-80388976D01*
X152296141Y-80429500D01*
X152296142Y-80429500D01*
X152503858Y-80429500D01*
X152503859Y-80429500D01*
X152707586Y-80388976D01*
X152899493Y-80309486D01*
X153072204Y-80194083D01*
X153219083Y-80047204D01*
X153334486Y-79874493D01*
X153413976Y-79682586D01*
X153420256Y-79651013D01*
X153453161Y-79588106D01*
X153514856Y-79552974D01*
X153585751Y-79556773D01*
X153643337Y-79598297D01*
X153668282Y-79655883D01*
X153672009Y-79679414D01*
X153672010Y-79679416D01*
X153735243Y-79874025D01*
X153735246Y-79874034D01*
X153828140Y-80056349D01*
X153948416Y-80221895D01*
X154093104Y-80366583D01*
X154258650Y-80486859D01*
X154440965Y-80579753D01*
X154440974Y-80579756D01*
X154635582Y-80642989D01*
X154635589Y-80642991D01*
X154690000Y-80651608D01*
X154690000Y-79808012D01*
X154747007Y-79840925D01*
X154874174Y-79875000D01*
X155005826Y-79875000D01*
X155132993Y-79840925D01*
X155190000Y-79808012D01*
X155190000Y-80651607D01*
X155244410Y-80642991D01*
X155244417Y-80642989D01*
X155439025Y-80579756D01*
X155439034Y-80579753D01*
X155621349Y-80486859D01*
X155786895Y-80366583D01*
X155931583Y-80221895D01*
X156051859Y-80056349D01*
X156144753Y-79874034D01*
X156144756Y-79874025D01*
X156207989Y-79679419D01*
X156211716Y-79655887D01*
X156242127Y-79591734D01*
X156302395Y-79554206D01*
X156373384Y-79555219D01*
X156432557Y-79594450D01*
X156459743Y-79651011D01*
X156466024Y-79682586D01*
X156545514Y-79874493D01*
X156545853Y-79875000D01*
X156660916Y-80047203D01*
X156660921Y-80047209D01*
X156807790Y-80194078D01*
X156807796Y-80194083D01*
X156980507Y-80309486D01*
X157172414Y-80388976D01*
X157376141Y-80429500D01*
X157376142Y-80429500D01*
X157583858Y-80429500D01*
X157583859Y-80429500D01*
X157787586Y-80388976D01*
X157979493Y-80309486D01*
X158152204Y-80194083D01*
X158299083Y-80047204D01*
X158414486Y-79874493D01*
X158493976Y-79682586D01*
X158534500Y-79478859D01*
X158534500Y-79271141D01*
X158534499Y-79271138D01*
X158965500Y-79271138D01*
X158965500Y-79478861D01*
X158989258Y-79598297D01*
X159006024Y-79682586D01*
X159085514Y-79874493D01*
X159085853Y-79875000D01*
X159200916Y-80047203D01*
X159200921Y-80047209D01*
X159347790Y-80194078D01*
X159347796Y-80194083D01*
X159520507Y-80309486D01*
X159712414Y-80388976D01*
X159916141Y-80429500D01*
X159916142Y-80429500D01*
X160123858Y-80429500D01*
X160123859Y-80429500D01*
X160327586Y-80388976D01*
X160519493Y-80309486D01*
X160692204Y-80194083D01*
X160839083Y-80047204D01*
X160954486Y-79874493D01*
X161033976Y-79682586D01*
X161074500Y-79478859D01*
X161074500Y-79271141D01*
X161033976Y-79067414D01*
X160954486Y-78875507D01*
X160839083Y-78702796D01*
X160839078Y-78702790D01*
X160692209Y-78555921D01*
X160692203Y-78555916D01*
X160683245Y-78549930D01*
X161505500Y-78549930D01*
X161505500Y-80200063D01*
X161505501Y-80200073D01*
X161520265Y-80274300D01*
X161576516Y-80358484D01*
X161660697Y-80414733D01*
X161660699Y-80414734D01*
X161734933Y-80429500D01*
X163385066Y-80429499D01*
X163385069Y-80429498D01*
X163385073Y-80429498D01*
X163434326Y-80419701D01*
X163459301Y-80414734D01*
X163543484Y-80358484D01*
X163599734Y-80274301D01*
X163614500Y-80200067D01*
X163614499Y-78549934D01*
X163614498Y-78549930D01*
X163614498Y-78549926D01*
X163599734Y-78475699D01*
X163543483Y-78391515D01*
X163459302Y-78335266D01*
X163385067Y-78320500D01*
X161734936Y-78320500D01*
X161734926Y-78320501D01*
X161660699Y-78335265D01*
X161576515Y-78391516D01*
X161520266Y-78475697D01*
X161505500Y-78549930D01*
X160683245Y-78549930D01*
X160634895Y-78517623D01*
X160519493Y-78440514D01*
X160327586Y-78361024D01*
X160123861Y-78320500D01*
X160123859Y-78320500D01*
X159916141Y-78320500D01*
X159916138Y-78320500D01*
X159712413Y-78361024D01*
X159712408Y-78361026D01*
X159520507Y-78440514D01*
X159347796Y-78555916D01*
X159347790Y-78555921D01*
X159200921Y-78702790D01*
X159200916Y-78702796D01*
X159085514Y-78875507D01*
X159006026Y-79067408D01*
X159006024Y-79067413D01*
X158965500Y-79271138D01*
X158534499Y-79271138D01*
X158493976Y-79067414D01*
X158414486Y-78875507D01*
X158299083Y-78702796D01*
X158299078Y-78702790D01*
X158152209Y-78555921D01*
X158152203Y-78555916D01*
X158094895Y-78517623D01*
X157979493Y-78440514D01*
X157787586Y-78361024D01*
X157583861Y-78320500D01*
X157583859Y-78320500D01*
X157376141Y-78320500D01*
X157376138Y-78320500D01*
X157172413Y-78361024D01*
X157172408Y-78361026D01*
X156980507Y-78440514D01*
X156807796Y-78555916D01*
X156807790Y-78555921D01*
X156660921Y-78702790D01*
X156660916Y-78702796D01*
X156545514Y-78875507D01*
X156466026Y-79067408D01*
X156466022Y-79067420D01*
X156459743Y-79098987D01*
X156426835Y-79161896D01*
X156365139Y-79197026D01*
X156294244Y-79193225D01*
X156236659Y-79151698D01*
X156211716Y-79094113D01*
X156207988Y-79070580D01*
X156144756Y-78875974D01*
X156144753Y-78875965D01*
X156051859Y-78693650D01*
X155931583Y-78528104D01*
X155786895Y-78383416D01*
X155621349Y-78263140D01*
X155439034Y-78170246D01*
X155439025Y-78170243D01*
X155244420Y-78107011D01*
X155190000Y-78098391D01*
X155190000Y-78941988D01*
X155132993Y-78909075D01*
X155005826Y-78875000D01*
X154874174Y-78875000D01*
X154747007Y-78909075D01*
X154690000Y-78941988D01*
X154690000Y-78098391D01*
X154635579Y-78107011D01*
X154440974Y-78170243D01*
X154440965Y-78170246D01*
X154258650Y-78263140D01*
X154093104Y-78383416D01*
X153948416Y-78528104D01*
X153828140Y-78693650D01*
X153735246Y-78875965D01*
X153735243Y-78875974D01*
X153672010Y-79070583D01*
X153672009Y-79070583D01*
X153668282Y-79094117D01*
X153637868Y-79158269D01*
X153577599Y-79195795D01*
X153506610Y-79194779D01*
X153447439Y-79155545D01*
X153420256Y-79098986D01*
X153413976Y-79067414D01*
X153334486Y-78875507D01*
X153219083Y-78702796D01*
X153219078Y-78702790D01*
X153072209Y-78555921D01*
X153072203Y-78555916D01*
X153014895Y-78517623D01*
X152899493Y-78440514D01*
X152707586Y-78361024D01*
X152503861Y-78320500D01*
X152503859Y-78320500D01*
X152296141Y-78320500D01*
X152296138Y-78320500D01*
X152092413Y-78361024D01*
X152092408Y-78361026D01*
X151900507Y-78440514D01*
X151727796Y-78555916D01*
X151727790Y-78555921D01*
X151580921Y-78702790D01*
X151580916Y-78702796D01*
X151465514Y-78875507D01*
X151386026Y-79067408D01*
X151386024Y-79067413D01*
X151345500Y-79271138D01*
X150914499Y-79271138D01*
X150873976Y-79067414D01*
X150794486Y-78875507D01*
X150679083Y-78702796D01*
X150679078Y-78702790D01*
X150532209Y-78555921D01*
X150532203Y-78555916D01*
X150474895Y-78517623D01*
X150359493Y-78440514D01*
X150167586Y-78361024D01*
X149963861Y-78320500D01*
X149963859Y-78320500D01*
X149756141Y-78320500D01*
X149756138Y-78320500D01*
X149552413Y-78361024D01*
X149552408Y-78361026D01*
X149360507Y-78440514D01*
X149187502Y-78556113D01*
X149119749Y-78577328D01*
X149051282Y-78558545D01*
X149003839Y-78505728D01*
X148991500Y-78451348D01*
X148991500Y-75502406D01*
X155574500Y-75502406D01*
X155574500Y-75502409D01*
X155574500Y-75627591D01*
X155598922Y-75750369D01*
X155646827Y-75866022D01*
X155716375Y-75970108D01*
X155804892Y-76058625D01*
X155908978Y-76128173D01*
X156024631Y-76176078D01*
X156147409Y-76200500D01*
X156147410Y-76200500D01*
X156272590Y-76200500D01*
X156272591Y-76200500D01*
X156395369Y-76176078D01*
X156511022Y-76128173D01*
X156615108Y-76058625D01*
X156703625Y-75970108D01*
X156773173Y-75866022D01*
X156821078Y-75750369D01*
X156845500Y-75627591D01*
X156845500Y-75502409D01*
X156821078Y-75379631D01*
X156773173Y-75263978D01*
X156703625Y-75159892D01*
X156615108Y-75071375D01*
X156511022Y-75001827D01*
X156395369Y-74953922D01*
X156386918Y-74952241D01*
X156272593Y-74929500D01*
X156272591Y-74929500D01*
X156147409Y-74929500D01*
X156147406Y-74929500D01*
X156024630Y-74953922D01*
X156024625Y-74953924D01*
X155908977Y-75001827D01*
X155804896Y-75071372D01*
X155804889Y-75071377D01*
X155716377Y-75159889D01*
X155716372Y-75159896D01*
X155646827Y-75263977D01*
X155598924Y-75379625D01*
X155598922Y-75379630D01*
X155574500Y-75502406D01*
X148991500Y-75502406D01*
X148991500Y-71261779D01*
X155786774Y-71261779D01*
X155792686Y-71265730D01*
X155953016Y-71332141D01*
X155953021Y-71332143D01*
X156123226Y-71365999D01*
X156123230Y-71366000D01*
X156296770Y-71366000D01*
X156296773Y-71365999D01*
X156466978Y-71332143D01*
X156466983Y-71332141D01*
X156627307Y-71265732D01*
X156627309Y-71265732D01*
X156633224Y-71261779D01*
X156633224Y-71261777D01*
X156210001Y-70838554D01*
X156210000Y-70838554D01*
X155786774Y-71261779D01*
X148991500Y-71261779D01*
X148991500Y-70398226D01*
X155329000Y-70398226D01*
X155329000Y-70571773D01*
X155362856Y-70741978D01*
X155362857Y-70741979D01*
X155429270Y-70902312D01*
X155433219Y-70908224D01*
X155856445Y-70484999D01*
X155810975Y-70439529D01*
X155981400Y-70439529D01*
X155981400Y-70530471D01*
X156016202Y-70614492D01*
X156080508Y-70678798D01*
X156164529Y-70713600D01*
X156255471Y-70713600D01*
X156339492Y-70678798D01*
X156403798Y-70614492D01*
X156438600Y-70530471D01*
X156438600Y-70484999D01*
X156563554Y-70484999D01*
X156563554Y-70485001D01*
X156986777Y-70908224D01*
X156986779Y-70908224D01*
X156990732Y-70902309D01*
X156990732Y-70902307D01*
X157057141Y-70741983D01*
X157057143Y-70741978D01*
X157090999Y-70571773D01*
X157091000Y-70571769D01*
X157091000Y-70398230D01*
X157090999Y-70398226D01*
X157057143Y-70228021D01*
X157057141Y-70228016D01*
X156990730Y-70067686D01*
X156986779Y-70061774D01*
X156563554Y-70484999D01*
X156438600Y-70484999D01*
X156438600Y-70439529D01*
X156403798Y-70355508D01*
X156339492Y-70291202D01*
X156255471Y-70256400D01*
X156164529Y-70256400D01*
X156080508Y-70291202D01*
X156016202Y-70355508D01*
X155981400Y-70439529D01*
X155810975Y-70439529D01*
X155433219Y-70061774D01*
X155429269Y-70067689D01*
X155362857Y-70228020D01*
X155362856Y-70228021D01*
X155329000Y-70398226D01*
X148991500Y-70398226D01*
X148991500Y-69708219D01*
X155786774Y-69708219D01*
X156209999Y-70131445D01*
X156633224Y-69708219D01*
X156627312Y-69704270D01*
X156466979Y-69637857D01*
X156466978Y-69637856D01*
X156296773Y-69604000D01*
X156123226Y-69604000D01*
X155953021Y-69637856D01*
X155953020Y-69637857D01*
X155792689Y-69704269D01*
X155786774Y-69708219D01*
X148991500Y-69708219D01*
X148991500Y-62230329D01*
X148991499Y-62230325D01*
X148967341Y-62140167D01*
X148944129Y-62099963D01*
X148944128Y-62099962D01*
X148920671Y-62059332D01*
X148854668Y-61993329D01*
X148172668Y-61311329D01*
X148172666Y-61311328D01*
X148172664Y-61311326D01*
X148091833Y-61264659D01*
X148001674Y-61240500D01*
X148001671Y-61240500D01*
X145915499Y-61240500D01*
X145847378Y-61220498D01*
X145800885Y-61166842D01*
X145789499Y-61114500D01*
X145789499Y-60921753D01*
X145789499Y-60921746D01*
X145783106Y-60862269D01*
X145783106Y-60862267D01*
X145783040Y-60861660D01*
X145783040Y-60861658D01*
X145780093Y-60853756D01*
X165020000Y-60853756D01*
X165020000Y-61066243D01*
X165053243Y-61276131D01*
X165118904Y-61478215D01*
X165118907Y-61478221D01*
X165215377Y-61667553D01*
X165254729Y-61721716D01*
X165254730Y-61721716D01*
X165887037Y-61089409D01*
X165904075Y-61152993D01*
X165969901Y-61267007D01*
X166062993Y-61360099D01*
X166177007Y-61425925D01*
X166240590Y-61442962D01*
X165608282Y-62075269D01*
X165662446Y-62114622D01*
X165851778Y-62211092D01*
X165851784Y-62211095D01*
X166053870Y-62276756D01*
X166053866Y-62276756D01*
X166263756Y-62310000D01*
X166476244Y-62310000D01*
X166686131Y-62276756D01*
X166888215Y-62211095D01*
X166888221Y-62211092D01*
X167077555Y-62114621D01*
X167077557Y-62114620D01*
X167131716Y-62075270D01*
X167131717Y-62075269D01*
X166499410Y-61442962D01*
X166562993Y-61425925D01*
X166677007Y-61360099D01*
X166770099Y-61267007D01*
X166835925Y-61152993D01*
X166852962Y-61089410D01*
X167485269Y-61721717D01*
X167485270Y-61721716D01*
X167524620Y-61667557D01*
X167524621Y-61667555D01*
X167621092Y-61478221D01*
X167621095Y-61478215D01*
X167686756Y-61276131D01*
X167720000Y-61066243D01*
X167720000Y-60853756D01*
X167686756Y-60643868D01*
X167621095Y-60441784D01*
X167621092Y-60441778D01*
X167524622Y-60252446D01*
X167485269Y-60198282D01*
X166852962Y-60830589D01*
X166835925Y-60767007D01*
X166770099Y-60652993D01*
X166677007Y-60559901D01*
X166562993Y-60494075D01*
X166499409Y-60477037D01*
X167131716Y-59844730D01*
X167131716Y-59844729D01*
X167077553Y-59805377D01*
X166888221Y-59708907D01*
X166888215Y-59708904D01*
X166801259Y-59680651D01*
X166742653Y-59640578D01*
X166715016Y-59575181D01*
X166727123Y-59505224D01*
X166775129Y-59452918D01*
X166791987Y-59444405D01*
X166793967Y-59443584D01*
X166793981Y-59443580D01*
X166948884Y-59364653D01*
X167089533Y-59262465D01*
X167212465Y-59139533D01*
X167314653Y-58998884D01*
X167393580Y-58843981D01*
X167447303Y-58678638D01*
X167474500Y-58506926D01*
X167474500Y-58333074D01*
X167447303Y-58161362D01*
X167393580Y-57996019D01*
X167314653Y-57841116D01*
X167279592Y-57792859D01*
X167212463Y-57700464D01*
X167089535Y-57577536D01*
X166948887Y-57475349D01*
X166948886Y-57475348D01*
X166948884Y-57475347D01*
X166793981Y-57396420D01*
X166793978Y-57396419D01*
X166793976Y-57396418D01*
X166628642Y-57342698D01*
X166628640Y-57342697D01*
X166628638Y-57342697D01*
X166456926Y-57315500D01*
X166283074Y-57315500D01*
X166111362Y-57342697D01*
X166111360Y-57342697D01*
X166111357Y-57342698D01*
X165946023Y-57396418D01*
X165946017Y-57396421D01*
X165791112Y-57475349D01*
X165650464Y-57577536D01*
X165527536Y-57700464D01*
X165425349Y-57841112D01*
X165346421Y-57996017D01*
X165346418Y-57996023D01*
X165292698Y-58161357D01*
X165292697Y-58161360D01*
X165292697Y-58161362D01*
X165265500Y-58333074D01*
X165265500Y-58506926D01*
X165292697Y-58678638D01*
X165346420Y-58843981D01*
X165425347Y-58998884D01*
X165425349Y-58998887D01*
X165527536Y-59139535D01*
X165650464Y-59262463D01*
X165742859Y-59329592D01*
X165791116Y-59364653D01*
X165946019Y-59443580D01*
X165946029Y-59443583D01*
X165948018Y-59444407D01*
X165948662Y-59444926D01*
X165950430Y-59445827D01*
X165950240Y-59446198D01*
X166003300Y-59488954D01*
X166025724Y-59556316D01*
X166008168Y-59625108D01*
X165956208Y-59673488D01*
X165938740Y-59680651D01*
X165851784Y-59708904D01*
X165851778Y-59708907D01*
X165662447Y-59805376D01*
X165662446Y-59805377D01*
X165608282Y-59844729D01*
X166240591Y-60477037D01*
X166177007Y-60494075D01*
X166062993Y-60559901D01*
X165969901Y-60652993D01*
X165904075Y-60767007D01*
X165887037Y-60830590D01*
X165254729Y-60198282D01*
X165215377Y-60252446D01*
X165215376Y-60252447D01*
X165118907Y-60441778D01*
X165118904Y-60441784D01*
X165053243Y-60643868D01*
X165020000Y-60853756D01*
X145780093Y-60853756D01*
X145732342Y-60725733D01*
X145671059Y-60643868D01*
X145645404Y-60609596D01*
X145529267Y-60522658D01*
X145529265Y-60522657D01*
X145529266Y-60522657D01*
X145393349Y-60471962D01*
X145393344Y-60471960D01*
X145393342Y-60471960D01*
X145363298Y-60468730D01*
X145333256Y-60465500D01*
X144611753Y-60465500D01*
X144611740Y-60465501D01*
X144602963Y-60466445D01*
X144533095Y-60453836D01*
X144481135Y-60405455D01*
X144463500Y-60341166D01*
X144463500Y-60043500D01*
X144483502Y-59975379D01*
X144537158Y-59928886D01*
X144589500Y-59917500D01*
X145969671Y-59917500D01*
X146059832Y-59893341D01*
X146140668Y-59846671D01*
X146268671Y-59718668D01*
X146315341Y-59637832D01*
X146339500Y-59547671D01*
X146339500Y-59454329D01*
X146339500Y-59174978D01*
X149730001Y-59174978D01*
X149740493Y-59277691D01*
X149795642Y-59444122D01*
X149887683Y-59593344D01*
X149887688Y-59593350D01*
X150011649Y-59717311D01*
X150011655Y-59717316D01*
X150160877Y-59809357D01*
X150327308Y-59864506D01*
X150430012Y-59874999D01*
X150880000Y-59874999D01*
X151380000Y-59874999D01*
X151829978Y-59874999D01*
X151932691Y-59864506D01*
X152099122Y-59809357D01*
X152248344Y-59717316D01*
X152248350Y-59717311D01*
X152372311Y-59593350D01*
X152372316Y-59593344D01*
X152464357Y-59444122D01*
X152519506Y-59277691D01*
X152529999Y-59174987D01*
X152530000Y-59174987D01*
X152530000Y-58962500D01*
X151380000Y-58962500D01*
X151380000Y-59874999D01*
X150880000Y-59874999D01*
X150880000Y-58962500D01*
X149730001Y-58962500D01*
X149730001Y-59174978D01*
X146339500Y-59174978D01*
X146339500Y-58465500D01*
X146359502Y-58397379D01*
X146413158Y-58350886D01*
X146465500Y-58339500D01*
X146841832Y-58339500D01*
X146841834Y-58339500D01*
X146936555Y-58324498D01*
X147050723Y-58266326D01*
X147067037Y-58250012D01*
X149730000Y-58250012D01*
X149730000Y-58462500D01*
X150880000Y-58462500D01*
X151380000Y-58462500D01*
X152529999Y-58462500D01*
X152529999Y-58250021D01*
X152519506Y-58147308D01*
X152464357Y-57980877D01*
X152372316Y-57831655D01*
X152372311Y-57831649D01*
X152248350Y-57707688D01*
X152248344Y-57707683D01*
X152099122Y-57615642D01*
X151932691Y-57560493D01*
X151829987Y-57550000D01*
X151380000Y-57550000D01*
X151380000Y-58462500D01*
X150880000Y-58462500D01*
X150880000Y-57550000D01*
X150430021Y-57550000D01*
X150327308Y-57560493D01*
X150160877Y-57615642D01*
X150011655Y-57707683D01*
X150011649Y-57707688D01*
X149887688Y-57831649D01*
X149887683Y-57831655D01*
X149795642Y-57980877D01*
X149740493Y-58147308D01*
X149730000Y-58250012D01*
X147067037Y-58250012D01*
X147141326Y-58175723D01*
X147199498Y-58061555D01*
X147214500Y-57966834D01*
X147214500Y-57603166D01*
X147199498Y-57508445D01*
X147170412Y-57451361D01*
X147141326Y-57394276D01*
X147050723Y-57303673D01*
X146994677Y-57275117D01*
X146969455Y-57262266D01*
X146917842Y-57213519D01*
X146900776Y-57144604D01*
X146923677Y-57077402D01*
X146969455Y-57037734D01*
X147050723Y-56996326D01*
X147095508Y-56951541D01*
X147140645Y-56906405D01*
X147168013Y-56891460D01*
X147194242Y-56874604D01*
X147200540Y-56873698D01*
X147202957Y-56872379D01*
X147229740Y-56869500D01*
X147346128Y-56869500D01*
X147414249Y-56889502D01*
X147435218Y-56906400D01*
X147487529Y-56958711D01*
X147487530Y-56958712D01*
X147487532Y-56958713D01*
X147613966Y-57031710D01*
X147613968Y-57031710D01*
X147613971Y-57031712D01*
X147754999Y-57069500D01*
X147755001Y-57069500D01*
X147900999Y-57069500D01*
X147901001Y-57069500D01*
X148042029Y-57031712D01*
X148042032Y-57031710D01*
X148042033Y-57031710D01*
X148123803Y-56984500D01*
X148168471Y-56958711D01*
X148271711Y-56855471D01*
X148344712Y-56729029D01*
X148382500Y-56588001D01*
X148382500Y-56441999D01*
X148344712Y-56300971D01*
X148344710Y-56300968D01*
X148344710Y-56300966D01*
X148271713Y-56174532D01*
X148271705Y-56174522D01*
X148168477Y-56071294D01*
X148168467Y-56071286D01*
X148042033Y-55998289D01*
X147996292Y-55986033D01*
X147901001Y-55960500D01*
X147754999Y-55960500D01*
X147668686Y-55983627D01*
X147613966Y-55998289D01*
X147487532Y-56071286D01*
X147487527Y-56071290D01*
X147473666Y-56085152D01*
X147435221Y-56123596D01*
X147407853Y-56138540D01*
X147381626Y-56155396D01*
X147375326Y-56156301D01*
X147372912Y-56157620D01*
X147346128Y-56160500D01*
X147229740Y-56160500D01*
X147161619Y-56140498D01*
X147140645Y-56123595D01*
X147050723Y-56033673D01*
X146991961Y-56003733D01*
X146969455Y-55992266D01*
X146917842Y-55943519D01*
X146900776Y-55874604D01*
X146923677Y-55807402D01*
X146969455Y-55767734D01*
X147050723Y-55726326D01*
X147080228Y-55696821D01*
X147140645Y-55636405D01*
X147202957Y-55602379D01*
X147229740Y-55599500D01*
X149849501Y-55599500D01*
X149917622Y-55619502D01*
X149964115Y-55673158D01*
X149975501Y-55725500D01*
X149975501Y-56048246D01*
X149975502Y-56048270D01*
X149981959Y-56108339D01*
X149981959Y-56108341D01*
X150032657Y-56244266D01*
X150032658Y-56244267D01*
X150119596Y-56360404D01*
X150235733Y-56447342D01*
X150371658Y-56498040D01*
X150431745Y-56504500D01*
X151828254Y-56504499D01*
X151888342Y-56498040D01*
X152024267Y-56447342D01*
X152140404Y-56360404D01*
X152227342Y-56244267D01*
X152278040Y-56108342D01*
X152284500Y-56048255D01*
X152284500Y-55793074D01*
X165265500Y-55793074D01*
X165265500Y-55966926D01*
X165292697Y-56138638D01*
X165292698Y-56138642D01*
X165327017Y-56244267D01*
X165346420Y-56303981D01*
X165425347Y-56458884D01*
X165425349Y-56458887D01*
X165527536Y-56599535D01*
X165650464Y-56722463D01*
X165659507Y-56729033D01*
X165791116Y-56824653D01*
X165946019Y-56903580D01*
X166111362Y-56957303D01*
X166283074Y-56984500D01*
X166283077Y-56984500D01*
X166456923Y-56984500D01*
X166456926Y-56984500D01*
X166628638Y-56957303D01*
X166793981Y-56903580D01*
X166948884Y-56824653D01*
X167089533Y-56722465D01*
X167212465Y-56599533D01*
X167314653Y-56458884D01*
X167393580Y-56303981D01*
X167447303Y-56138638D01*
X167474500Y-55966926D01*
X167474500Y-55793074D01*
X167447303Y-55621362D01*
X167393580Y-55456019D01*
X167314653Y-55301116D01*
X167212465Y-55160467D01*
X167212463Y-55160464D01*
X167089535Y-55037536D01*
X166948887Y-54935349D01*
X166948886Y-54935348D01*
X166948884Y-54935347D01*
X166793981Y-54856420D01*
X166793978Y-54856419D01*
X166793976Y-54856418D01*
X166628642Y-54802698D01*
X166628640Y-54802697D01*
X166628638Y-54802697D01*
X166456926Y-54775500D01*
X166283074Y-54775500D01*
X166111362Y-54802697D01*
X166111360Y-54802697D01*
X166111357Y-54802698D01*
X165946023Y-54856418D01*
X165946017Y-54856421D01*
X165791112Y-54935349D01*
X165650464Y-55037536D01*
X165527536Y-55160464D01*
X165425349Y-55301112D01*
X165346421Y-55456017D01*
X165346418Y-55456023D01*
X165292698Y-55621357D01*
X165292697Y-55621360D01*
X165292697Y-55621362D01*
X165265500Y-55793074D01*
X152284500Y-55793074D01*
X152284499Y-55521555D01*
X152284499Y-55126753D01*
X152284499Y-55126746D01*
X152278040Y-55066658D01*
X152227342Y-54930733D01*
X152140404Y-54814596D01*
X152024267Y-54727658D01*
X152024265Y-54727657D01*
X152024266Y-54727657D01*
X151888349Y-54676962D01*
X151888344Y-54676960D01*
X151888342Y-54676960D01*
X151856336Y-54673519D01*
X151828256Y-54670500D01*
X150431753Y-54670500D01*
X150431729Y-54670502D01*
X150371660Y-54676959D01*
X150371658Y-54676959D01*
X150235733Y-54727657D01*
X150119595Y-54814596D01*
X150100573Y-54840008D01*
X150043737Y-54882555D01*
X149999704Y-54890500D01*
X147253099Y-54890500D01*
X147184978Y-54870498D01*
X147138485Y-54816842D01*
X147128381Y-54746568D01*
X147157875Y-54681988D01*
X147188960Y-54656047D01*
X147211552Y-54642685D01*
X147211559Y-54642680D01*
X147327680Y-54526559D01*
X147327685Y-54526552D01*
X147411280Y-54385202D01*
X147457100Y-54227489D01*
X147457296Y-54225000D01*
X146111000Y-54225000D01*
X146042879Y-54204998D01*
X145996386Y-54151342D01*
X145985000Y-54099000D01*
X145985000Y-53975000D01*
X145861000Y-53975000D01*
X145792879Y-53954998D01*
X145746386Y-53901342D01*
X145735000Y-53849000D01*
X145735000Y-53725000D01*
X146235000Y-53725000D01*
X147457296Y-53725000D01*
X147457100Y-53722510D01*
X147411280Y-53564797D01*
X147327685Y-53423447D01*
X147327680Y-53423440D01*
X147211559Y-53307319D01*
X147211552Y-53307314D01*
X147070202Y-53223719D01*
X146912489Y-53177899D01*
X146875650Y-53175000D01*
X146235000Y-53175000D01*
X146235000Y-53725000D01*
X145735000Y-53725000D01*
X145735000Y-53175000D01*
X145094350Y-53175000D01*
X145057510Y-53177899D01*
X144899797Y-53223719D01*
X144758447Y-53307314D01*
X144758440Y-53307319D01*
X144678595Y-53387165D01*
X144616283Y-53421191D01*
X144545468Y-53416126D01*
X144488632Y-53373579D01*
X144463821Y-53307059D01*
X144463500Y-53298070D01*
X144463500Y-52464930D01*
X165265500Y-52464930D01*
X165265500Y-54215063D01*
X165265501Y-54215073D01*
X165280265Y-54289300D01*
X165336516Y-54373484D01*
X165420697Y-54429733D01*
X165420699Y-54429734D01*
X165494933Y-54444500D01*
X167245066Y-54444499D01*
X167245069Y-54444498D01*
X167245073Y-54444498D01*
X167294326Y-54434701D01*
X167319301Y-54429734D01*
X167403484Y-54373484D01*
X167459734Y-54289301D01*
X167474500Y-54215067D01*
X167474499Y-52464934D01*
X167474498Y-52464930D01*
X167474498Y-52464926D01*
X167459734Y-52390699D01*
X167403483Y-52306515D01*
X167319302Y-52250266D01*
X167245067Y-52235500D01*
X165494936Y-52235500D01*
X165494926Y-52235501D01*
X165420699Y-52250265D01*
X165336515Y-52306516D01*
X165280266Y-52390697D01*
X165265500Y-52464930D01*
X144463500Y-52464930D01*
X144463500Y-51418834D01*
X144483502Y-51350713D01*
X144537158Y-51304220D01*
X144602975Y-51293557D01*
X144611745Y-51294500D01*
X145333254Y-51294499D01*
X145393342Y-51288040D01*
X145529267Y-51237342D01*
X145645404Y-51150404D01*
X145732342Y-51034267D01*
X145783040Y-50898342D01*
X145789500Y-50838255D01*
X145789500Y-50645500D01*
X145792091Y-50636674D01*
X145790782Y-50627568D01*
X145801937Y-50603142D01*
X145809502Y-50577379D01*
X145816455Y-50571354D01*
X145820276Y-50562988D01*
X145842861Y-50548473D01*
X145863158Y-50530886D01*
X145873844Y-50528561D01*
X145880002Y-50524604D01*
X145915500Y-50519500D01*
X146076128Y-50519500D01*
X146144249Y-50539502D01*
X146165218Y-50556400D01*
X146217529Y-50608711D01*
X146217530Y-50608712D01*
X146217532Y-50608713D01*
X146343966Y-50681710D01*
X146343968Y-50681710D01*
X146343971Y-50681712D01*
X146484999Y-50719500D01*
X146485001Y-50719500D01*
X146630999Y-50719500D01*
X146631001Y-50719500D01*
X146772029Y-50681712D01*
X146772032Y-50681710D01*
X146772033Y-50681710D01*
X146850037Y-50636674D01*
X146898471Y-50608711D01*
X147001711Y-50505471D01*
X147074712Y-50379029D01*
X147112500Y-50238001D01*
X147112500Y-50091999D01*
X147074712Y-49950971D01*
X147074710Y-49950968D01*
X147074710Y-49950966D01*
X147001713Y-49824532D01*
X147001705Y-49824522D01*
X146898477Y-49721294D01*
X146898467Y-49721286D01*
X146772033Y-49648289D01*
X146755372Y-49643824D01*
X146631001Y-49610500D01*
X146484999Y-49610500D01*
X146398686Y-49633627D01*
X146343966Y-49648289D01*
X146217532Y-49721286D01*
X146217527Y-49721290D01*
X146201976Y-49736842D01*
X146165221Y-49773596D01*
X146137853Y-49788540D01*
X146111626Y-49805396D01*
X146105326Y-49806301D01*
X146102912Y-49807620D01*
X146076128Y-49810500D01*
X145915499Y-49810500D01*
X145847378Y-49790498D01*
X145800885Y-49736842D01*
X145789499Y-49684500D01*
X145789499Y-49491753D01*
X145789499Y-49491746D01*
X145783040Y-49431658D01*
X145732342Y-49295733D01*
X145645404Y-49179596D01*
X145529267Y-49092658D01*
X145529265Y-49092657D01*
X145529266Y-49092657D01*
X145393349Y-49041962D01*
X145393344Y-49041960D01*
X145393342Y-49041960D01*
X145385831Y-49041152D01*
X145333262Y-49035500D01*
X144683028Y-49035500D01*
X144614907Y-49015498D01*
X144568414Y-48961842D01*
X144558310Y-48891568D01*
X144587804Y-48826988D01*
X144593919Y-48820419D01*
X146794934Y-46619405D01*
X146857246Y-46585379D01*
X146884029Y-46582500D01*
X148763671Y-46582500D01*
X148853832Y-46558341D01*
X148934668Y-46511671D01*
X150143671Y-45302668D01*
X150190341Y-45221832D01*
X150214500Y-45131671D01*
X150214500Y-45038329D01*
X150214500Y-43387329D01*
X150190341Y-43297168D01*
X150169660Y-43261347D01*
X150143673Y-43216335D01*
X150143669Y-43216330D01*
X150114353Y-43187014D01*
X150077668Y-43150329D01*
X149188668Y-42261329D01*
X149188666Y-42261328D01*
X149188664Y-42261326D01*
X149107833Y-42214659D01*
X149017674Y-42190500D01*
X149017671Y-42190500D01*
X145368329Y-42190500D01*
X145368325Y-42190500D01*
X145278166Y-42214659D01*
X145197335Y-42261326D01*
X145197329Y-42261331D01*
X144879831Y-42578830D01*
X144562332Y-42896329D01*
X144539159Y-42919502D01*
X144496330Y-42962330D01*
X144496326Y-42962335D01*
X144449659Y-43043166D01*
X144425500Y-43133325D01*
X144425500Y-43204524D01*
X144405498Y-43272645D01*
X144351842Y-43319138D01*
X144338440Y-43324356D01*
X144316676Y-43331428D01*
X144316671Y-43331430D01*
X144147390Y-43417683D01*
X143993689Y-43529354D01*
X143993686Y-43529356D01*
X143859356Y-43663686D01*
X143859354Y-43663689D01*
X143747683Y-43817390D01*
X143661430Y-43986671D01*
X143661427Y-43986677D01*
X143629833Y-44083916D01*
X143589759Y-44142522D01*
X143524363Y-44170159D01*
X143454406Y-44158052D01*
X143402100Y-44110046D01*
X143390167Y-44083916D01*
X143358572Y-43986677D01*
X143358571Y-43986673D01*
X143272319Y-43817394D01*
X143160648Y-43663692D01*
X143160645Y-43663689D01*
X143160643Y-43663686D01*
X143026313Y-43529356D01*
X143026310Y-43529354D01*
X143026308Y-43529352D01*
X142872606Y-43417681D01*
X142703327Y-43331429D01*
X142703324Y-43331428D01*
X142703322Y-43331427D01*
X142522644Y-43272722D01*
X142522642Y-43272721D01*
X142522640Y-43272721D01*
X142334993Y-43243000D01*
X142145007Y-43243000D01*
X141957360Y-43272721D01*
X141957358Y-43272721D01*
X141957355Y-43272722D01*
X141776677Y-43331427D01*
X141776671Y-43331430D01*
X141607390Y-43417683D01*
X141453689Y-43529354D01*
X141453686Y-43529356D01*
X141319353Y-43663689D01*
X141211079Y-43812716D01*
X141154856Y-43856070D01*
X141084120Y-43862145D01*
X141021329Y-43829013D01*
X140996876Y-43795858D01*
X140942288Y-43688724D01*
X140888651Y-43614900D01*
X140182962Y-44320589D01*
X140165925Y-44257007D01*
X140100099Y-44142993D01*
X140007007Y-44049901D01*
X139892993Y-43984075D01*
X139829409Y-43967037D01*
X140535098Y-43261348D01*
X140535098Y-43261347D01*
X140461275Y-43207711D01*
X140257567Y-43103917D01*
X140257561Y-43103914D01*
X140040132Y-43033267D01*
X139814311Y-42997500D01*
X139585689Y-42997500D01*
X139359867Y-43033267D01*
X139142438Y-43103914D01*
X139142432Y-43103917D01*
X138938720Y-43207713D01*
X138864900Y-43261346D01*
X138864900Y-43261347D01*
X139570591Y-43967037D01*
X139507007Y-43984075D01*
X139392993Y-44049901D01*
X139299901Y-44142993D01*
X139234075Y-44257007D01*
X139217037Y-44320590D01*
X138511347Y-43614900D01*
X138511346Y-43614900D01*
X138457713Y-43688720D01*
X138353917Y-43892432D01*
X138353914Y-43892438D01*
X138283267Y-44109867D01*
X138247500Y-44335689D01*
X125526617Y-44335689D01*
X125497419Y-44188903D01*
X125392360Y-43842570D01*
X125253860Y-43508202D01*
X125083253Y-43189019D01*
X124882183Y-42888096D01*
X124882176Y-42888087D01*
X124652590Y-42608335D01*
X124652572Y-42608316D01*
X124396683Y-42352427D01*
X124396664Y-42352409D01*
X124116912Y-42122823D01*
X124116897Y-42122812D01*
X123942472Y-42006265D01*
X123896944Y-41951788D01*
X123888096Y-41881345D01*
X123918737Y-41817301D01*
X123979139Y-41779990D01*
X124012474Y-41775500D01*
X163007526Y-41775500D01*
X163075647Y-41795502D01*
G37*
%TD.AperFunction*%
%TD*%
M02*
