%TF.GenerationSoftware,KiCad,Pcbnew,9.0.7-9.0.7~ubuntu24.04.1*%
%TF.CreationDate,2026-02-13T13:47:40-05:00*%
%TF.ProjectId,ControlPanelRTC,436f6e74-726f-46c5-9061-6e656c525443,rev?*%
%TF.SameCoordinates,Original*%
%TF.FileFunction,Soldermask,Bot*%
%TF.FilePolarity,Negative*%
%FSLAX46Y46*%
G04 Gerber Fmt 4.6, Leading zero omitted, Abs format (unit mm)*
G04 Created by KiCad (PCBNEW 9.0.7-9.0.7~ubuntu24.04.1) date 2026-02-13 13:47:40*
%MOMM*%
%LPD*%
G01*
G04 APERTURE LIST*
G04 Aperture macros list*
%AMRoundRect*
0 Rectangle with rounded corners*
0 $1 Rounding radius*
0 $2 $3 $4 $5 $6 $7 $8 $9 X,Y pos of 4 corners*
0 Add a 4 corners polygon primitive as box body*
4,1,4,$2,$3,$4,$5,$6,$7,$8,$9,$2,$3,0*
0 Add four circle primitives for the rounded corners*
1,1,$1+$1,$2,$3*
1,1,$1+$1,$4,$5*
1,1,$1+$1,$6,$7*
1,1,$1+$1,$8,$9*
0 Add four rect primitives between the rounded corners*
20,1,$1+$1,$2,$3,$4,$5,0*
20,1,$1+$1,$4,$5,$6,$7,0*
20,1,$1+$1,$6,$7,$8,$9,0*
20,1,$1+$1,$8,$9,$2,$3,0*%
G04 Aperture macros list end*
%ADD10C,6.858000*%
%ADD11R,3.000000X3.000000*%
%ADD12C,3.000000*%
%ADD13C,0.762000*%
%ADD14RoundRect,0.250000X0.312500X0.625000X-0.312500X0.625000X-0.312500X-0.625000X0.312500X-0.625000X0*%
%ADD15R,1.800000X1.800000*%
%ADD16C,1.800000*%
%ADD17RoundRect,0.250000X-0.650000X0.412500X-0.650000X-0.412500X0.650000X-0.412500X0.650000X0.412500X0*%
%ADD18R,1.600000X1.600000*%
%ADD19O,1.600000X1.600000*%
%ADD20C,1.905000*%
%ADD21R,1.700000X1.700000*%
%ADD22C,1.700000*%
%ADD23RoundRect,0.150000X-0.825000X-0.150000X0.825000X-0.150000X0.825000X0.150000X-0.825000X0.150000X0*%
%ADD24RoundRect,0.250000X-0.312500X-0.625000X0.312500X-0.625000X0.312500X0.625000X-0.312500X0.625000X0*%
G04 APERTURE END LIST*
D10*
%TO.C,H4*%
X165100000Y-100965000D03*
%TD*%
%TO.C,H3*%
X121920000Y-100965000D03*
%TD*%
%TO.C,H2*%
X165100000Y-45085000D03*
%TD*%
%TO.C,H1*%
X121920000Y-45085000D03*
%TD*%
D11*
%TO.C,BT1*%
X159570000Y-90169999D03*
D12*
X139080000Y-90169999D03*
%TD*%
D13*
%TO.C,SW4*%
X131445000Y-70485000D03*
X131445000Y-75565000D03*
%TD*%
%TO.C,SW3*%
X139700000Y-75565000D03*
X139700000Y-70485000D03*
%TD*%
%TO.C,SW2*%
X147955000Y-75565000D03*
X147955000Y-70485000D03*
%TD*%
%TO.C,SW1*%
X156210000Y-75565000D03*
X156210000Y-70485000D03*
%TD*%
D14*
%TO.C,R3*%
X144972500Y-50165000D03*
X142047500Y-50165000D03*
%TD*%
D15*
%TO.C,Q1*%
X122682000Y-54864000D03*
D16*
X125222000Y-54864000D03*
%TD*%
D17*
%TO.C,C2*%
X151130000Y-55587500D03*
X151130000Y-58712500D03*
%TD*%
D18*
%TO.C,A1*%
X162560000Y-79375000D03*
D19*
X160020000Y-79375000D03*
X157480000Y-79375000D03*
X154940000Y-79375000D03*
X152400000Y-79375000D03*
X149860000Y-79375000D03*
X147320000Y-79375000D03*
X144780000Y-79375000D03*
X142240000Y-79375000D03*
X139700000Y-79375000D03*
X137160000Y-79375000D03*
X134620000Y-79375000D03*
X132080000Y-79375000D03*
X129540000Y-79375000D03*
X127000000Y-79375000D03*
X127000000Y-94615000D03*
X129540000Y-94615000D03*
X132080000Y-94615000D03*
X134620000Y-94615000D03*
X137160000Y-94615000D03*
X139700000Y-94615000D03*
X142240000Y-94615000D03*
X144780000Y-94615000D03*
X147320000Y-94615000D03*
X149860000Y-94615000D03*
X152400000Y-94615000D03*
X154940000Y-94615000D03*
X157480000Y-94615000D03*
X160020000Y-94615000D03*
X162560000Y-94615000D03*
%TD*%
D20*
%TO.C,J2*%
X139700000Y-44450000D03*
X142240000Y-44450000D03*
X144780000Y-44450000D03*
X147320000Y-44450000D03*
%TD*%
D21*
%TO.C,J1*%
X166370000Y-53340000D03*
D22*
X166370000Y-55880000D03*
X166370000Y-58420000D03*
X166370000Y-60960000D03*
%TD*%
D17*
%TO.C,C1*%
X135255000Y-55587500D03*
X135255000Y-58712500D03*
%TD*%
D23*
%TO.C,U1*%
X141035000Y-57785000D03*
X141035000Y-56515000D03*
X141035000Y-55245000D03*
X141035000Y-53975000D03*
X145985000Y-53975000D03*
X145985000Y-55245000D03*
X145985000Y-56515000D03*
X145985000Y-57785000D03*
%TD*%
D24*
%TO.C,R1*%
X142047500Y-61595000D03*
X144972500Y-61595000D03*
%TD*%
%TO.C,R2*%
X142047500Y-64770000D03*
X144972500Y-64770000D03*
%TD*%
M02*
