M48
; DRILL file {KiCad 9.0.7-9.0.7~ubuntu24.04.1} date 2026-02-13T13:47:43-0500
; FORMAT={-:-/ absolute / metric / decimal}
; #@! TF.CreationDate,2026-02-13T13:47:43-05:00
; #@! TF.GenerationSoftware,Kicad,Pcbnew,9.0.7-9.0.7~ubuntu24.04.1
; #@! TF.FileFunction,Plated,1,2,PTH
FMAT,2
METRIC
; #@! TA.AperFunction,Plated,PTH,ViaDrill
T1C0.300
; #@! TA.AperFunction,Plated,PTH,ComponentDrill
T2C0.457
; #@! TA.AperFunction,Plated,PTH,ComponentDrill
T3C0.900
; #@! TA.AperFunction,Plated,PTH,ComponentDrill
T4C1.000
; #@! TA.AperFunction,Plated,PTH,ComponentDrill
T5C1.500
; #@! TA.AperFunction,Plated,PTH,ComponentDrill
T6C3.175
%
G90
G05
T1
X135.255Y-54.229
X139.446Y-56.515
X140.462Y-64.643
X140.716Y-61.468
X146.431Y-64.643
X146.558Y-50.165
X147.828Y-56.515
X151.13Y-55.587
T2
X131.445Y-70.485
X131.445Y-75.565
X139.7Y-70.485
X139.7Y-75.565
X147.955Y-70.485
X147.955Y-75.565
X156.21Y-70.485
X156.21Y-75.565
T3
X122.682Y-54.864
X125.222Y-54.864
T4
X127.0Y-79.375
X127.0Y-94.615
X129.54Y-79.375
X129.54Y-94.615
X132.08Y-79.375
X132.08Y-94.615
X134.62Y-79.375
X134.62Y-94.615
X137.16Y-79.375
X137.16Y-94.615
X139.7Y-44.45
X139.7Y-79.375
X139.7Y-94.615
X142.24Y-44.45
X142.24Y-79.375
X142.24Y-94.615
X144.78Y-44.45
X144.78Y-79.375
X144.78Y-94.615
X147.32Y-44.45
X147.32Y-79.375
X147.32Y-94.615
X149.86Y-79.375
X149.86Y-94.615
X152.4Y-79.375
X152.4Y-94.615
X154.94Y-79.375
X154.94Y-94.615
X157.48Y-79.375
X157.48Y-94.615
X160.02Y-79.375
X160.02Y-94.615
X162.56Y-79.375
X162.56Y-94.615
X166.37Y-53.34
X166.37Y-55.88
X166.37Y-58.42
X166.37Y-60.96
T5
X139.08Y-90.17
X159.57Y-90.17
T6
X121.92Y-45.085
X121.92Y-100.965
X165.1Y-45.085
X165.1Y-100.965
M30
