%TF.GenerationSoftware,KiCad,Pcbnew,9.0.7-9.0.7~ubuntu24.04.1*%
%TF.CreationDate,2026-01-21T07:20:37-05:00*%
%TF.ProjectId,LED_clock,4c45445f-636c-46f6-936b-2e6b69636164,rev?*%
%TF.SameCoordinates,Original*%
%TF.FileFunction,Soldermask,Bot*%
%TF.FilePolarity,Negative*%
%FSLAX46Y46*%
G04 Gerber Fmt 4.6, Leading zero omitted, Abs format (unit mm)*
G04 Created by KiCad (PCBNEW 9.0.7-9.0.7~ubuntu24.04.1) date 2026-01-21 07:20:37*
%MOMM*%
%LPD*%
G01*
G04 APERTURE LIST*
G04 Aperture macros list*
%AMRoundRect*
0 Rectangle with rounded corners*
0 $1 Rounding radius*
0 $2 $3 $4 $5 $6 $7 $8 $9 X,Y pos of 4 corners*
0 Add a 4 corners polygon primitive as box body*
4,1,4,$2,$3,$4,$5,$6,$7,$8,$9,$2,$3,0*
0 Add four circle primitives for the rounded corners*
1,1,$1+$1,$2,$3*
1,1,$1+$1,$4,$5*
1,1,$1+$1,$6,$7*
1,1,$1+$1,$8,$9*
0 Add four rect primitives between the rounded corners*
20,1,$1+$1,$2,$3,$4,$5,0*
20,1,$1+$1,$4,$5,$6,$7,0*
20,1,$1+$1,$6,$7,$8,$9,0*
20,1,$1+$1,$8,$9,$2,$3,0*%
%AMHorizOval*
0 Thick line with rounded ends*
0 $1 width*
0 $2 $3 position (X,Y) of the first rounded end (center of the circle)*
0 $4 $5 position (X,Y) of the second rounded end (center of the circle)*
0 Add line between two ends*
20,1,$1,$2,$3,$4,$5,0*
0 Add two circle primitives to create the rounded ends*
1,1,$1,$2,$3*
1,1,$1,$4,$5*%
%AMRotRect*
0 Rectangle, with rotation*
0 The origin of the aperture is its center*
0 $1 length*
0 $2 width*
0 $3 Rotation angle, in degrees counterclockwise*
0 Add horizontal line*
21,1,$1,$2,0,0,$3*%
G04 Aperture macros list end*
%ADD10R,1.700000X1.700000*%
%ADD11C,1.700000*%
%ADD12RotRect,1.800000X1.800000X6.000000*%
%ADD13C,1.800000*%
%ADD14RotRect,1.800000X1.800000X324.000000*%
%ADD15RotRect,1.800000X1.800000X282.000000*%
%ADD16RotRect,1.800000X1.800000X24.000000*%
%ADD17RotRect,1.800000X1.800000X96.000000*%
%ADD18RotRect,1.800000X1.800000X216.000000*%
%ADD19R,1.800000X1.800000*%
%ADD20RoundRect,0.250000X0.547724X0.951314X-1.097724X0.001314X-0.547724X-0.951314X1.097724X-0.001314X0*%
%ADD21HorizOval,1.600000X-0.346410X-0.200000X0.346410X0.200000X0*%
%ADD22RotRect,1.800000X1.800000X186.000000*%
%ADD23RotRect,1.800000X1.800000X312.000000*%
%ADD24RotRect,1.800000X1.800000X288.000000*%
%ADD25RotRect,1.800000X1.800000X348.000000*%
%ADD26RoundRect,0.250000X-0.547724X-0.951314X1.097724X-0.001314X0.547724X0.951314X-1.097724X0.001314X0*%
%ADD27HorizOval,1.600000X0.346410X0.200000X-0.346410X-0.200000X0*%
%ADD28RotRect,1.800000X1.800000X144.000000*%
%ADD29RotRect,1.800000X1.800000X276.000000*%
%ADD30RotRect,1.800000X1.800000X84.000000*%
%ADD31RotRect,1.800000X1.800000X102.000000*%
%ADD32RotRect,1.800000X1.800000X138.000000*%
%ADD33RotRect,1.800000X1.800000X174.000000*%
%ADD34RotRect,1.800000X1.800000X198.000000*%
%ADD35RotRect,1.800000X1.800000X252.000000*%
%ADD36RotRect,1.800000X1.800000X264.000000*%
%ADD37RotRect,1.800000X1.800000X114.000000*%
%ADD38RoundRect,0.250000X1.097724X0.001314X-0.547724X0.951314X-1.097724X-0.001314X0.547724X-0.951314X0*%
%ADD39HorizOval,1.600000X-0.346410X0.200000X0.346410X-0.200000X0*%
%ADD40RotRect,1.800000X1.800000X240.000000*%
%ADD41RotRect,1.800000X1.800000X150.000000*%
%ADD42RotRect,1.800000X1.800000X72.000000*%
%ADD43RotRect,1.800000X1.800000X294.000000*%
%ADD44C,1.600000*%
%ADD45RotRect,1.800000X1.800000X42.000000*%
%ADD46RotRect,1.800000X1.800000X66.000000*%
%ADD47RotRect,1.800000X1.800000X228.000000*%
%ADD48RotRect,1.800000X1.800000X78.000000*%
%ADD49RotRect,1.800000X1.800000X156.000000*%
%ADD50RotRect,1.800000X1.800000X222.000000*%
%ADD51RotRect,1.800000X1.800000X234.000000*%
%ADD52RoundRect,0.250000X0.550000X-0.950000X0.550000X0.950000X-0.550000X0.950000X-0.550000X-0.950000X0*%
%ADD53O,1.600000X2.400000*%
%ADD54RotRect,1.800000X1.800000X318.000000*%
%ADD55RotRect,1.800000X1.800000X30.000000*%
%ADD56RotRect,1.800000X1.800000X258.000000*%
%ADD57RotRect,1.800000X1.800000X210.000000*%
%ADD58RotRect,1.800000X1.800000X168.000000*%
%ADD59RotRect,1.800000X1.800000X342.000000*%
%ADD60RotRect,1.800000X1.800000X120.000000*%
%ADD61RotRect,1.800000X1.800000X300.000000*%
%ADD62RotRect,1.800000X1.800000X162.000000*%
%ADD63RotRect,1.800000X1.800000X108.000000*%
%ADD64RotRect,1.800000X1.800000X306.000000*%
%ADD65RotRect,1.800000X1.800000X60.000000*%
%ADD66RotRect,1.800000X1.800000X18.000000*%
%ADD67RotRect,1.800000X1.800000X336.000000*%
%ADD68RotRect,1.800000X1.800000X330.000000*%
%ADD69RotRect,1.800000X1.800000X204.000000*%
%ADD70RotRect,1.800000X1.800000X54.000000*%
%ADD71RotRect,1.800000X1.800000X354.000000*%
%ADD72RotRect,1.800000X1.800000X48.000000*%
%ADD73RotRect,1.800000X1.800000X36.000000*%
%ADD74RotRect,1.800000X1.800000X126.000000*%
%ADD75RotRect,1.800000X1.800000X192.000000*%
%ADD76RotRect,1.800000X1.800000X132.000000*%
%ADD77RoundRect,0.250000X-1.097724X-0.001314X0.547724X-0.951314X1.097724X0.001314X-0.547724X0.951314X0*%
%ADD78HorizOval,1.600000X0.346410X-0.200000X-0.346410X0.200000X0*%
%ADD79RotRect,1.800000X1.800000X12.000000*%
%ADD80RoundRect,0.250000X-0.550000X-0.550000X0.550000X-0.550000X0.550000X0.550000X-0.550000X0.550000X0*%
%ADD81RotRect,1.800000X1.800000X246.000000*%
%ADD82RoundRect,0.250000X-0.550000X0.950000X-0.550000X-0.950000X0.550000X-0.950000X0.550000X0.950000X0*%
G04 APERTURE END LIST*
D10*
%TO.C,J1*%
X243840000Y-288290000D03*
D11*
X243840000Y-285750000D03*
X246380000Y-288290000D03*
X246380000Y-285750000D03*
X248920000Y-288290000D03*
X248920000Y-285750000D03*
X251460000Y-288290000D03*
X251460000Y-285750000D03*
X254000000Y-288290000D03*
X254000000Y-285750000D03*
X256540000Y-288290000D03*
X256540000Y-285750000D03*
X259080000Y-288290000D03*
X259080000Y-285750000D03*
X261620000Y-288290000D03*
X261620000Y-285750000D03*
X264160000Y-288290000D03*
X264160000Y-285750000D03*
X266700000Y-288290000D03*
X266700000Y-285750000D03*
%TD*%
D12*
%TO.C,D359*%
X323972572Y-170445586D03*
D13*
X326498658Y-170180084D03*
%TD*%
D14*
%TO.C,D352*%
X310920818Y-219155395D03*
D13*
X312975721Y-220648370D03*
%TD*%
D15*
%TO.C,D45*%
X265354057Y-231216640D03*
D13*
X265882153Y-233701135D03*
%TD*%
D16*
%TO.C,D62*%
X303888717Y-155588112D03*
D13*
X306209122Y-154555001D03*
%TD*%
D17*
%TO.C,D14*%
X248291701Y-123489159D03*
D13*
X248026199Y-120963073D03*
%TD*%
D18*
%TO.C,D334*%
X197079182Y-219155395D03*
D13*
X195024279Y-220648370D03*
%TD*%
D19*
%TO.C,D13*%
X254000000Y-123190000D03*
D13*
X254000000Y-120650000D03*
%TD*%
D20*
%TO.C,U6*%
X347408476Y-141468227D03*
D21*
X346138476Y-139268522D03*
X344868476Y-137068818D03*
X343598476Y-134869113D03*
X342328476Y-132669409D03*
X341058476Y-130469704D03*
X339788476Y-128270000D03*
X338518476Y-126070295D03*
X337248476Y-123870591D03*
X335978476Y-121670886D03*
X334708476Y-119471182D03*
X333438476Y-117271477D03*
X332168476Y-115071773D03*
X330898476Y-112872068D03*
X317700249Y-120492068D03*
X318970249Y-122691773D03*
X320240249Y-124891477D03*
X321510249Y-127091182D03*
X322780249Y-129290886D03*
X324050249Y-131490591D03*
X325320249Y-133690295D03*
X326590249Y-135890000D03*
X327860249Y-138089704D03*
X329130249Y-140289409D03*
X330400249Y-142489113D03*
X331670249Y-144688818D03*
X332940249Y-146888522D03*
X334210249Y-149088227D03*
%TD*%
D22*
%TO.C,D29*%
X199689159Y-183508299D03*
D13*
X197163073Y-183773801D03*
%TD*%
D23*
%TO.C,D350*%
X301078691Y-230086184D03*
D13*
X302778283Y-231973772D03*
%TD*%
D24*
%TO.C,D346*%
X275741818Y-244714434D03*
D13*
X276526721Y-247130118D03*
%TD*%
D25*
%TO.C,D356*%
X322820509Y-192428251D03*
D13*
X325305004Y-192956347D03*
%TD*%
D26*
%TO.C,U3*%
X160591524Y-214131773D03*
D27*
X161861524Y-216331478D03*
X163131524Y-218531182D03*
X164401524Y-220730887D03*
X165671524Y-222930591D03*
X166941524Y-225130296D03*
X168211524Y-227330000D03*
X169481524Y-229529705D03*
X170751524Y-231729409D03*
X172021524Y-233929114D03*
X173291524Y-236128818D03*
X174561524Y-238328523D03*
X175831524Y-240528227D03*
X177101524Y-242727932D03*
X190299751Y-235107932D03*
X189029751Y-232908227D03*
X187759751Y-230708523D03*
X186489751Y-228508818D03*
X185219751Y-226309114D03*
X183949751Y-224109409D03*
X182679751Y-221909705D03*
X181409751Y-219710000D03*
X180139751Y-217510296D03*
X178869751Y-215310591D03*
X177599751Y-213110887D03*
X176329751Y-210911182D03*
X175059751Y-208711478D03*
X173789751Y-206511773D03*
%TD*%
D28*
%TO.C,D22*%
X209819582Y-145701047D03*
D13*
X207764679Y-144208072D03*
%TD*%
D23*
%TO.C,D50*%
X290541222Y-218383139D03*
D13*
X292240814Y-220270727D03*
%TD*%
D29*
%TO.C,D344*%
X261354414Y-247772572D03*
D13*
X261619916Y-250298658D03*
%TD*%
D30*
%TO.C,D72*%
X259708299Y-123489159D03*
D13*
X259973801Y-120963073D03*
%TD*%
D31*
%TO.C,D315*%
X239371749Y-108979491D03*
D13*
X238843653Y-106494996D03*
%TD*%
D32*
%TO.C,D21*%
X213416861Y-141258778D03*
D13*
X211529273Y-139559186D03*
%TD*%
D33*
%TO.C,D27*%
X199689159Y-172091701D03*
D13*
X197163073Y-171826199D03*
%TD*%
D34*
%TO.C,D31*%
X202062804Y-194675418D03*
D13*
X199647120Y-195460321D03*
%TD*%
D35*
%TO.C,D40*%
X237124582Y-229737196D03*
D13*
X236339679Y-232152880D03*
%TD*%
D36*
%TO.C,D342*%
X246645586Y-247772572D03*
D13*
X246380084Y-250298658D03*
%TD*%
D37*
%TO.C,D17*%
X231788112Y-127911283D03*
D13*
X230755001Y-125590878D03*
%TD*%
D38*
%TO.C,U5*%
X332168476Y-240528227D03*
D39*
X333438476Y-238328522D03*
X334708476Y-236128818D03*
X335978476Y-233929113D03*
X337248476Y-231729409D03*
X338518476Y-229529704D03*
X339788476Y-227330000D03*
X341058476Y-225130295D03*
X342328476Y-222930591D03*
X343598476Y-220730886D03*
X344868476Y-218531182D03*
X346138476Y-216331477D03*
X347408476Y-214131773D03*
X348678476Y-211932068D03*
X335480249Y-204312068D03*
X334210249Y-206511773D03*
X332940249Y-208711477D03*
X331670249Y-210911182D03*
X330400249Y-213110886D03*
X329130249Y-215310591D03*
X327860249Y-217510295D03*
X326590249Y-219710000D03*
X325320249Y-221909704D03*
X324050249Y-224109409D03*
X322780249Y-226309113D03*
X321510249Y-228508818D03*
X320240249Y-230708522D03*
X318970249Y-232908227D03*
%TD*%
D40*
%TO.C,D38*%
X226695000Y-225093647D03*
D13*
X225425000Y-227293352D03*
%TD*%
D19*
%TO.C,D28*%
X199390000Y-177800000D03*
D13*
X196850000Y-177800000D03*
%TD*%
D41*
%TO.C,D323*%
X193068185Y-142621000D03*
D13*
X190868480Y-141351000D03*
%TD*%
D42*
%TO.C,D370*%
X275741818Y-110885566D03*
D13*
X276526721Y-108469882D03*
%TD*%
D43*
%TO.C,D347*%
X282617177Y-242075231D03*
D13*
X283650288Y-244395636D03*
%TD*%
D44*
%TO.C,C6*%
X347605063Y-150515000D03*
X343274936Y-153015000D03*
%TD*%
D45*
%TO.C,D65*%
X294583139Y-141258778D03*
D13*
X296470727Y-139559186D03*
%TD*%
D46*
%TO.C,D369*%
X282617177Y-113524769D03*
D13*
X283650288Y-111204364D03*
%TD*%
D44*
%TO.C,C4*%
X233680000Y-271700000D03*
X233680000Y-266700000D03*
%TD*%
D19*
%TO.C,D58*%
X308610000Y-177800000D03*
D13*
X311150000Y-177800000D03*
%TD*%
D47*
%TO.C,D336*%
X206921309Y-230086184D03*
D13*
X205221717Y-231973772D03*
%TD*%
D48*
%TO.C,D371*%
X268628251Y-108979491D03*
D13*
X269156347Y-106494996D03*
%TD*%
D49*
%TO.C,D24*%
X204111283Y-155588112D03*
D13*
X201790878Y-154555001D03*
%TD*%
D44*
%TO.C,C7*%
X284480000Y-251460000D03*
X284480000Y-256460000D03*
%TD*%
D50*
%TO.C,D35*%
X213416861Y-214341222D03*
D13*
X211529273Y-216040814D03*
%TD*%
D51*
%TO.C,D337*%
X212644605Y-234720818D03*
D13*
X211151630Y-236775721D03*
%TD*%
D52*
%TO.C,U9*%
X289560000Y-257810000D03*
D53*
X292100000Y-257810000D03*
X294640000Y-257810000D03*
X297180000Y-257810000D03*
X299720000Y-257810000D03*
X302260000Y-257810000D03*
X304800000Y-257810000D03*
X304800000Y-250190000D03*
X302260000Y-250190000D03*
X299720000Y-250190000D03*
X297180000Y-250190000D03*
X294640000Y-250190000D03*
X292100000Y-250190000D03*
X289560000Y-250190000D03*
%TD*%
D54*
%TO.C,D351*%
X306286184Y-224878691D03*
D13*
X308173772Y-226578283D03*
%TD*%
D55*
%TO.C,D11*%
X307448490Y-146941500D03*
D13*
X309648195Y-145671500D03*
%TD*%
D44*
%TO.C,C9*%
X201295000Y-266780000D03*
X201295000Y-271780000D03*
%TD*%
D56*
%TO.C,D341*%
X239371749Y-246620509D03*
D13*
X238843653Y-249105004D03*
%TD*%
D30*
%TO.C,D372*%
X261354414Y-107827428D03*
D13*
X261619916Y-105301342D03*
%TD*%
D18*
%TO.C,D34*%
X209819582Y-209898953D03*
D13*
X207764679Y-211391928D03*
%TD*%
D57*
%TO.C,D33*%
X206706353Y-205105000D03*
D13*
X204506648Y-206375000D03*
%TD*%
D58*
%TO.C,D326*%
X185179491Y-163171749D03*
D13*
X182694996Y-162643653D03*
%TD*%
D59*
%TO.C,D55*%
X305937196Y-194675418D03*
D13*
X308352880Y-195460321D03*
%TD*%
D60*
%TO.C,D18*%
X226695000Y-130506353D03*
D13*
X225425000Y-128306648D03*
%TD*%
D60*
%TO.C,D2*%
X223141500Y-124351510D03*
D13*
X221871500Y-122151805D03*
%TD*%
D32*
%TO.C,D321*%
X201713816Y-130721309D03*
D13*
X199826228Y-129021717D03*
%TD*%
D61*
%TO.C,D48*%
X281305000Y-225093647D03*
D13*
X282575000Y-227293352D03*
%TD*%
D37*
%TO.C,D317*%
X225382823Y-113524769D03*
D13*
X224349712Y-111204364D03*
%TD*%
D62*
%TO.C,D25*%
X202062804Y-160924582D03*
D13*
X199647120Y-160139679D03*
%TD*%
D34*
%TO.C,D331*%
X187085566Y-199541818D03*
D13*
X184669882Y-200326721D03*
%TD*%
D63*
%TO.C,D16*%
X237124582Y-125862804D03*
D13*
X236339679Y-123447120D03*
%TD*%
D57*
%TO.C,D5*%
X200551510Y-208658500D03*
D13*
X198351805Y-209928500D03*
%TD*%
D44*
%TO.C,C5*%
X324370127Y-244435000D03*
X320040000Y-241935000D03*
%TD*%
D29*
%TO.C,D44*%
X259708299Y-232110841D03*
D13*
X259973801Y-234636927D03*
%TD*%
D64*
%TO.C,D49*%
X286098953Y-221980418D03*
D13*
X287591928Y-224035321D03*
%TD*%
D65*
%TO.C,D12*%
X284858500Y-124351510D03*
D13*
X286128500Y-122151805D03*
%TD*%
D41*
%TO.C,D3*%
X200551510Y-146941500D03*
D13*
X198351805Y-145671500D03*
%TD*%
D66*
%TO.C,D361*%
X320914434Y-156058182D03*
D13*
X323330118Y-155273279D03*
%TD*%
D67*
%TO.C,D354*%
X318275231Y-206417177D03*
D13*
X320595636Y-207450288D03*
%TD*%
D68*
%TO.C,D353*%
X314931815Y-212979000D03*
D13*
X317131520Y-214249000D03*
%TD*%
D66*
%TO.C,D61*%
X305937196Y-160924582D03*
D13*
X308352880Y-160139679D03*
%TD*%
D52*
%TO.C,U8*%
X281940000Y-272415000D03*
D53*
X284480000Y-272415000D03*
X287020000Y-272415000D03*
X289560000Y-272415000D03*
X292100000Y-272415000D03*
X294640000Y-272415000D03*
X297180000Y-272415000D03*
X299720000Y-272415000D03*
X302260000Y-272415000D03*
X304800000Y-272415000D03*
X304800000Y-264795000D03*
X302260000Y-264795000D03*
X299720000Y-264795000D03*
X297180000Y-264795000D03*
X294640000Y-264795000D03*
X292100000Y-264795000D03*
X289560000Y-264795000D03*
X287020000Y-264795000D03*
X284480000Y-264795000D03*
X281940000Y-264795000D03*
%TD*%
D69*
%TO.C,D32*%
X204111283Y-200011888D03*
D13*
X201790878Y-201044999D03*
%TD*%
D51*
%TO.C,D37*%
X221901047Y-221980418D03*
D13*
X220408072Y-224035321D03*
%TD*%
D52*
%TO.C,U4*%
X238760000Y-276860000D03*
D53*
X241300000Y-276860000D03*
X243840000Y-276860000D03*
X246380000Y-276860000D03*
X248920000Y-276860000D03*
X251460000Y-276860000D03*
X254000000Y-276860000D03*
X256540000Y-276860000D03*
X259080000Y-276860000D03*
X261620000Y-276860000D03*
X264160000Y-276860000D03*
X266700000Y-276860000D03*
X269240000Y-276860000D03*
X271780000Y-276860000D03*
X271780000Y-261620000D03*
X269240000Y-261620000D03*
X266700000Y-261620000D03*
X264160000Y-261620000D03*
X261620000Y-261620000D03*
X259080000Y-261620000D03*
X256540000Y-261620000D03*
X254000000Y-261620000D03*
X251460000Y-261620000D03*
X248920000Y-261620000D03*
X246380000Y-261620000D03*
X243840000Y-261620000D03*
X241300000Y-261620000D03*
X238760000Y-261620000D03*
%TD*%
D42*
%TO.C,D70*%
X270875418Y-125862804D03*
D13*
X271660321Y-123447120D03*
%TD*%
D58*
%TO.C,D26*%
X200583360Y-166445943D03*
D13*
X198098865Y-165917847D03*
%TD*%
D19*
%TO.C,D313*%
X254000000Y-107442000D03*
D13*
X254000000Y-104902000D03*
%TD*%
D70*
%TO.C,D67*%
X286098953Y-133619582D03*
D13*
X287591928Y-131564679D03*
%TD*%
D31*
%TO.C,D15*%
X242645943Y-124383360D03*
D13*
X242117847Y-121898865D03*
%TD*%
D19*
%TO.C,D1*%
X254000000Y-116083000D03*
D13*
X254000000Y-113543000D03*
%TD*%
D63*
%TO.C,D316*%
X232258182Y-110885566D03*
D13*
X231473279Y-108469882D03*
%TD*%
D71*
%TO.C,D357*%
X323972572Y-185154414D03*
D13*
X326498658Y-185419916D03*
%TD*%
D72*
%TO.C,D366*%
X301078691Y-125513816D03*
D13*
X302778283Y-123626228D03*
%TD*%
D73*
%TO.C,D64*%
X298180418Y-145701047D03*
D13*
X300235321Y-144208072D03*
%TD*%
D74*
%TO.C,D319*%
X212644605Y-120879182D03*
D13*
X211151630Y-118824279D03*
%TD*%
D41*
%TO.C,D23*%
X206706353Y-150495000D03*
D13*
X204506648Y-149225000D03*
%TD*%
D44*
%TO.C,C3*%
X161664936Y-206355000D03*
X165995063Y-203855000D03*
%TD*%
D49*
%TO.C,D324*%
X189724769Y-149182823D03*
D13*
X187404364Y-148149712D03*
%TD*%
D72*
%TO.C,D66*%
X290541222Y-137216861D03*
D13*
X292240814Y-135329273D03*
%TD*%
D19*
%TO.C,D4*%
X192283000Y-177800000D03*
D13*
X189743000Y-177800000D03*
%TD*%
D64*
%TO.C,D349*%
X295355395Y-234720818D03*
D13*
X296848370Y-236775721D03*
%TD*%
D70*
%TO.C,D367*%
X295355395Y-120879182D03*
D13*
X296848370Y-118824279D03*
%TD*%
D75*
%TO.C,D30*%
X200583360Y-189154057D03*
D13*
X198098865Y-189682153D03*
%TD*%
D36*
%TO.C,D42*%
X248291701Y-232110841D03*
D13*
X248026199Y-234636927D03*
%TD*%
D76*
%TO.C,D320*%
X206921309Y-125513816D03*
D13*
X205221717Y-123626228D03*
%TD*%
D75*
%TO.C,D330*%
X185179491Y-192428251D03*
D13*
X182694996Y-192956347D03*
%TD*%
D61*
%TO.C,D8*%
X284858500Y-231248490D03*
D13*
X286128500Y-233448195D03*
%TD*%
D16*
%TO.C,D362*%
X318275231Y-149182823D03*
D13*
X320595636Y-148149712D03*
%TD*%
D50*
%TO.C,D335*%
X201713816Y-224878691D03*
D13*
X199826228Y-226578283D03*
%TD*%
D59*
%TO.C,D355*%
X320914434Y-199541818D03*
D13*
X323330118Y-200326721D03*
%TD*%
D47*
%TO.C,D36*%
X217458778Y-218383139D03*
D13*
X215759186Y-220270727D03*
%TD*%
D74*
%TO.C,D19*%
X221901047Y-133619582D03*
D13*
X220408072Y-131564679D03*
%TD*%
D76*
%TO.C,D20*%
X217458778Y-137216861D03*
D13*
X215759186Y-135329273D03*
%TD*%
D19*
%TO.C,D43*%
X254000000Y-232410000D03*
D13*
X254000000Y-234950000D03*
%TD*%
D61*
%TO.C,D348*%
X289179000Y-238731815D03*
D13*
X290449000Y-240931520D03*
%TD*%
D55*
%TO.C,D63*%
X301293647Y-150495000D03*
D13*
X303493352Y-149225000D03*
%TD*%
D60*
%TO.C,D318*%
X218821000Y-116868185D03*
D13*
X217551000Y-114668480D03*
%TD*%
D14*
%TO.C,D52*%
X298180418Y-209898953D03*
D13*
X300235321Y-211391928D03*
%TD*%
D40*
%TO.C,D6*%
X223141500Y-231248490D03*
D13*
X221871500Y-233448195D03*
%TD*%
D15*
%TO.C,D345*%
X268628251Y-246620509D03*
D13*
X269156347Y-249105004D03*
%TD*%
D17*
%TO.C,D314*%
X246645586Y-107827428D03*
D13*
X246380084Y-105301342D03*
%TD*%
D68*
%TO.C,D9*%
X307448490Y-208658500D03*
D13*
X309648195Y-209928500D03*
%TD*%
D25*
%TO.C,D56*%
X307416640Y-189154057D03*
D13*
X309901135Y-189682153D03*
%TD*%
D12*
%TO.C,D59*%
X308310841Y-172091701D03*
D13*
X310836927Y-171826199D03*
%TD*%
D77*
%TO.C,U2*%
X175831524Y-115071773D03*
D78*
X174561524Y-117271478D03*
X173291524Y-119471182D03*
X172021524Y-121670887D03*
X170751524Y-123870591D03*
X169481524Y-126070296D03*
X168211524Y-128270000D03*
X166941524Y-130469705D03*
X165671524Y-132669409D03*
X164401524Y-134869114D03*
X163131524Y-137068818D03*
X161861524Y-139268523D03*
X160591524Y-141468227D03*
X159321524Y-143667932D03*
X172519751Y-151287932D03*
X173789751Y-149088227D03*
X175059751Y-146888523D03*
X176329751Y-144688818D03*
X177599751Y-142489114D03*
X178869751Y-140289409D03*
X180139751Y-138089705D03*
X181409751Y-135890000D03*
X182679751Y-133690296D03*
X183949751Y-131490591D03*
X185219751Y-129290887D03*
X186489751Y-127091182D03*
X187759751Y-124891478D03*
X189029751Y-122691773D03*
%TD*%
D19*
%TO.C,D7*%
X254000000Y-239517000D03*
D13*
X254000000Y-242057000D03*
%TD*%
D79*
%TO.C,D360*%
X322820509Y-163171749D03*
D13*
X325305004Y-162643653D03*
%TD*%
D65*
%TO.C,D368*%
X289179000Y-116868185D03*
D13*
X290449000Y-114668480D03*
%TD*%
D19*
%TO.C,D10*%
X315717000Y-177800000D03*
D13*
X318257000Y-177800000D03*
%TD*%
D73*
%TO.C,D364*%
X310920818Y-136444605D03*
D13*
X312975721Y-134951630D03*
%TD*%
D80*
%TO.C,C10*%
X277400000Y-282575000D03*
D44*
X279400000Y-282575000D03*
%TD*%
D71*
%TO.C,D57*%
X308310841Y-183508299D03*
D13*
X310836927Y-183773801D03*
%TD*%
D33*
%TO.C,D327*%
X184027428Y-170445586D03*
D13*
X181501342Y-170180084D03*
%TD*%
D44*
%TO.C,C8*%
X277495000Y-266145000D03*
X277495000Y-271145000D03*
%TD*%
D54*
%TO.C,D51*%
X294583139Y-214341222D03*
D13*
X296470727Y-216040814D03*
%TD*%
D56*
%TO.C,D41*%
X242645943Y-231216640D03*
D13*
X242117847Y-233701135D03*
%TD*%
D40*
%TO.C,D338*%
X218821000Y-238731815D03*
D13*
X217551000Y-240931520D03*
%TD*%
D57*
%TO.C,D333*%
X193068185Y-212979000D03*
D13*
X190868480Y-214249000D03*
%TD*%
D43*
%TO.C,D47*%
X276211888Y-227688717D03*
D13*
X277244999Y-230009122D03*
%TD*%
D45*
%TO.C,D365*%
X306286184Y-130721309D03*
D13*
X308173772Y-129021717D03*
%TD*%
D24*
%TO.C,D46*%
X270875418Y-229737196D03*
D13*
X271660321Y-232152880D03*
%TD*%
D19*
%TO.C,D343*%
X254000000Y-248158000D03*
D13*
X254000000Y-250698000D03*
%TD*%
D48*
%TO.C,D71*%
X265354057Y-124383360D03*
D13*
X265882153Y-121898865D03*
%TD*%
D81*
%TO.C,D39*%
X231788112Y-227688717D03*
D13*
X230755001Y-230009122D03*
%TD*%
D82*
%TO.C,U1*%
X269240000Y-78740000D03*
D53*
X266700000Y-78740000D03*
X264160000Y-78740000D03*
X261620000Y-78740000D03*
X259080000Y-78740000D03*
X256540000Y-78740000D03*
X254000000Y-78740000D03*
X251460000Y-78740000D03*
X248920000Y-78740000D03*
X246380000Y-78740000D03*
X243840000Y-78740000D03*
X241300000Y-78740000D03*
X238760000Y-78740000D03*
X236220000Y-78740000D03*
X236220000Y-93980000D03*
X238760000Y-93980000D03*
X241300000Y-93980000D03*
X243840000Y-93980000D03*
X246380000Y-93980000D03*
X248920000Y-93980000D03*
X251460000Y-93980000D03*
X254000000Y-93980000D03*
X256540000Y-93980000D03*
X259080000Y-93980000D03*
X261620000Y-93980000D03*
X264160000Y-93980000D03*
X266700000Y-93980000D03*
X269240000Y-93980000D03*
%TD*%
D52*
%TO.C,U7*%
X207010000Y-273050000D03*
D53*
X209550000Y-273050000D03*
X212090000Y-273050000D03*
X214630000Y-273050000D03*
X217170000Y-273050000D03*
X219710000Y-273050000D03*
X222250000Y-273050000D03*
X224790000Y-273050000D03*
X224790000Y-265430000D03*
X222250000Y-265430000D03*
X219710000Y-265430000D03*
X217170000Y-265430000D03*
X214630000Y-265430000D03*
X212090000Y-265430000D03*
X209550000Y-265430000D03*
X207010000Y-265430000D03*
%TD*%
D69*
%TO.C,D332*%
X189724769Y-206417177D03*
D13*
X187404364Y-207450288D03*
%TD*%
D55*
%TO.C,D363*%
X314931815Y-142621000D03*
D13*
X317131520Y-141351000D03*
%TD*%
D81*
%TO.C,D339*%
X225382823Y-242075231D03*
D13*
X224349712Y-244395636D03*
%TD*%
D62*
%TO.C,D325*%
X187085566Y-156058182D03*
D13*
X184669882Y-155273279D03*
%TD*%
D44*
%TO.C,C1*%
X274955000Y-83900000D03*
X274955000Y-88900000D03*
%TD*%
D65*
%TO.C,D68*%
X281305000Y-130506353D03*
D13*
X282575000Y-128306648D03*
%TD*%
D67*
%TO.C,D54*%
X303888717Y-200011888D03*
D13*
X306209122Y-201044999D03*
%TD*%
D46*
%TO.C,D69*%
X276211888Y-127911283D03*
D13*
X277244999Y-125590878D03*
%TD*%
D19*
%TO.C,D328*%
X183642000Y-177800000D03*
D13*
X181102000Y-177800000D03*
%TD*%
D22*
%TO.C,D329*%
X184027428Y-185154414D03*
D13*
X181501342Y-185419916D03*
%TD*%
D19*
%TO.C,D358*%
X324358000Y-177800000D03*
D13*
X326898000Y-177800000D03*
%TD*%
D35*
%TO.C,D340*%
X232258182Y-244714434D03*
D13*
X231473279Y-247130118D03*
%TD*%
D79*
%TO.C,D60*%
X307416640Y-166445943D03*
D13*
X309901135Y-165917847D03*
%TD*%
D44*
%TO.C,C2*%
X184150000Y-111760000D03*
X188480127Y-114260000D03*
%TD*%
D68*
%TO.C,D53*%
X301293647Y-205105000D03*
D13*
X303493352Y-206375000D03*
%TD*%
D28*
%TO.C,D322*%
X197079182Y-136444605D03*
D13*
X195024279Y-134951630D03*
%TD*%
M02*
