M48
; DRILL file {KiCad 9.0.7-9.0.7~ubuntu24.04.1} date 2026-01-21T07:20:43-0500
; FORMAT={-:-/ absolute / metric / decimal}
; #@! TF.CreationDate,2026-01-21T07:20:43-05:00
; #@! TF.GenerationSoftware,Kicad,Pcbnew,9.0.7-9.0.7~ubuntu24.04.1
; #@! TF.FileFunction,Plated,1,2,PTH
FMAT,2
METRIC
; #@! TA.AperFunction,Plated,PTH,ComponentDrill
T1C0.800
; #@! TA.AperFunction,Plated,PTH,ComponentDrill
T2C0.900
; #@! TA.AperFunction,Plated,PTH,ComponentDrill
T3C1.000
%
G90
G05
T1
X159.322Y-143.668
X160.592Y-141.468
X160.592Y-214.132
X161.665Y-206.355
X161.862Y-139.269
X161.862Y-216.331
X163.132Y-137.069
X163.132Y-218.531
X164.402Y-134.869
X164.402Y-220.731
X165.672Y-132.669
X165.672Y-222.931
X165.995Y-203.855
X166.942Y-130.47
X166.942Y-225.13
X168.212Y-128.27
X168.212Y-227.33
X169.482Y-126.07
X169.482Y-229.53
X170.752Y-123.871
X170.752Y-231.729
X172.022Y-121.671
X172.022Y-233.929
X172.52Y-151.288
X173.292Y-119.471
X173.292Y-236.129
X173.79Y-149.088
X173.79Y-206.512
X174.562Y-117.271
X174.562Y-238.329
X175.06Y-146.889
X175.06Y-208.711
X175.832Y-115.072
X175.832Y-240.528
X176.33Y-144.689
X176.33Y-210.911
X177.102Y-242.728
X177.6Y-142.489
X177.6Y-213.111
X178.87Y-140.289
X178.87Y-215.311
X180.14Y-138.09
X180.14Y-217.51
X181.41Y-135.89
X181.41Y-219.71
X182.68Y-133.69
X182.68Y-221.91
X183.95Y-131.491
X183.95Y-224.109
X184.15Y-111.76
X185.22Y-129.291
X185.22Y-226.309
X186.49Y-127.091
X186.49Y-228.509
X187.76Y-124.891
X187.76Y-230.709
X188.48Y-114.26
X189.03Y-122.692
X189.03Y-232.908
X190.3Y-235.108
X201.295Y-266.78
X201.295Y-271.78
X207.01Y-265.43
X207.01Y-273.05
X209.55Y-265.43
X209.55Y-273.05
X212.09Y-265.43
X212.09Y-273.05
X214.63Y-265.43
X214.63Y-273.05
X217.17Y-265.43
X217.17Y-273.05
X219.71Y-265.43
X219.71Y-273.05
X222.25Y-265.43
X222.25Y-273.05
X224.79Y-265.43
X224.79Y-273.05
X233.68Y-266.7
X233.68Y-271.7
X236.22Y-78.74
X236.22Y-93.98
X238.76Y-78.74
X238.76Y-93.98
X238.76Y-261.62
X238.76Y-276.86
X241.3Y-78.74
X241.3Y-93.98
X241.3Y-261.62
X241.3Y-276.86
X243.84Y-78.74
X243.84Y-93.98
X243.84Y-261.62
X243.84Y-276.86
X246.38Y-78.74
X246.38Y-93.98
X246.38Y-261.62
X246.38Y-276.86
X248.92Y-78.74
X248.92Y-93.98
X248.92Y-261.62
X248.92Y-276.86
X251.46Y-78.74
X251.46Y-93.98
X251.46Y-261.62
X251.46Y-276.86
X254.0Y-78.74
X254.0Y-93.98
X254.0Y-261.62
X254.0Y-276.86
X256.54Y-78.74
X256.54Y-93.98
X256.54Y-261.62
X256.54Y-276.86
X259.08Y-78.74
X259.08Y-93.98
X259.08Y-261.62
X259.08Y-276.86
X261.62Y-78.74
X261.62Y-93.98
X261.62Y-261.62
X261.62Y-276.86
X264.16Y-78.74
X264.16Y-93.98
X264.16Y-261.62
X264.16Y-276.86
X266.7Y-78.74
X266.7Y-93.98
X266.7Y-261.62
X266.7Y-276.86
X269.24Y-78.74
X269.24Y-93.98
X269.24Y-261.62
X269.24Y-276.86
X271.78Y-261.62
X271.78Y-276.86
X274.955Y-83.9
X274.955Y-88.9
X277.4Y-282.575
X277.495Y-266.145
X277.495Y-271.145
X279.4Y-282.575
X281.94Y-264.795
X281.94Y-272.415
X284.48Y-251.46
X284.48Y-256.46
X284.48Y-264.795
X284.48Y-272.415
X287.02Y-264.795
X287.02Y-272.415
X289.56Y-250.19
X289.56Y-257.81
X289.56Y-264.795
X289.56Y-272.415
X292.1Y-250.19
X292.1Y-257.81
X292.1Y-264.795
X292.1Y-272.415
X294.64Y-250.19
X294.64Y-257.81
X294.64Y-264.795
X294.64Y-272.415
X297.18Y-250.19
X297.18Y-257.81
X297.18Y-264.795
X297.18Y-272.415
X299.72Y-250.19
X299.72Y-257.81
X299.72Y-264.795
X299.72Y-272.415
X302.26Y-250.19
X302.26Y-257.81
X302.26Y-264.795
X302.26Y-272.415
X304.8Y-250.19
X304.8Y-257.81
X304.8Y-264.795
X304.8Y-272.415
X317.7Y-120.492
X318.97Y-122.692
X318.97Y-232.908
X320.04Y-241.935
X320.24Y-124.891
X320.24Y-230.709
X321.51Y-127.091
X321.51Y-228.509
X322.78Y-129.291
X322.78Y-226.309
X324.05Y-131.491
X324.05Y-224.109
X324.37Y-244.435
X325.32Y-133.69
X325.32Y-221.91
X326.59Y-135.89
X326.59Y-219.71
X327.86Y-138.09
X327.86Y-217.51
X329.13Y-140.289
X329.13Y-215.311
X330.4Y-142.489
X330.4Y-213.111
X330.898Y-112.872
X331.67Y-144.689
X331.67Y-210.911
X332.168Y-115.072
X332.168Y-240.528
X332.94Y-146.889
X332.94Y-208.711
X333.438Y-117.271
X333.438Y-238.329
X334.21Y-149.088
X334.21Y-206.512
X334.708Y-119.471
X334.708Y-236.129
X335.48Y-204.312
X335.978Y-121.671
X335.978Y-233.929
X337.248Y-123.871
X337.248Y-231.729
X338.518Y-126.07
X338.518Y-229.53
X339.788Y-128.27
X339.788Y-227.33
X341.058Y-130.47
X341.058Y-225.13
X342.328Y-132.669
X342.328Y-222.931
X343.275Y-153.015
X343.598Y-134.869
X343.598Y-220.731
X344.868Y-137.069
X344.868Y-218.531
X346.138Y-139.269
X346.138Y-216.331
X347.408Y-141.468
X347.408Y-214.132
X347.605Y-150.515
X348.678Y-211.932
T2
X181.102Y-177.8
X181.501Y-170.18
X181.501Y-185.42
X182.695Y-162.644
X182.695Y-192.956
X183.642Y-177.8
X184.027Y-170.446
X184.027Y-185.154
X184.67Y-155.273
X184.67Y-200.327
X185.179Y-163.172
X185.179Y-192.428
X187.086Y-156.058
X187.086Y-199.542
X187.404Y-148.15
X187.404Y-207.45
X189.725Y-149.183
X189.725Y-206.417
X189.743Y-177.8
X190.868Y-141.351
X190.868Y-214.249
X192.283Y-177.8
X193.068Y-142.621
X193.068Y-212.979
X195.024Y-134.952
X195.024Y-220.648
X196.85Y-177.8
X197.079Y-136.445
X197.079Y-219.155
X197.163Y-171.826
X197.163Y-183.774
X198.099Y-165.918
X198.099Y-189.682
X198.352Y-145.671
X198.352Y-209.928
X199.39Y-177.8
X199.647Y-160.14
X199.647Y-195.46
X199.689Y-172.092
X199.689Y-183.508
X199.826Y-129.022
X199.826Y-226.578
X200.552Y-146.941
X200.552Y-208.659
X200.583Y-166.446
X200.583Y-189.154
X201.714Y-130.721
X201.714Y-224.879
X201.791Y-154.555
X201.791Y-201.045
X202.063Y-160.925
X202.063Y-194.675
X204.111Y-155.588
X204.111Y-200.012
X204.507Y-149.225
X204.507Y-206.375
X205.222Y-123.626
X205.222Y-231.974
X206.706Y-150.495
X206.706Y-205.105
X206.921Y-125.514
X206.921Y-230.086
X207.765Y-144.208
X207.765Y-211.392
X209.82Y-145.701
X209.82Y-209.899
X211.152Y-118.824
X211.152Y-236.776
X211.529Y-139.559
X211.529Y-216.041
X212.645Y-120.879
X212.645Y-234.721
X213.417Y-141.259
X213.417Y-214.341
X215.759Y-135.329
X215.759Y-220.271
X217.459Y-137.217
X217.459Y-218.383
X217.551Y-114.668
X217.551Y-240.932
X218.821Y-116.868
X218.821Y-238.732
X220.408Y-131.565
X220.408Y-224.035
X221.871Y-122.152
X221.871Y-233.448
X221.901Y-133.62
X221.901Y-221.98
X223.141Y-124.352
X223.141Y-231.248
X224.35Y-111.204
X224.35Y-244.396
X225.383Y-113.525
X225.383Y-242.075
X225.425Y-128.307
X225.425Y-227.293
X226.695Y-130.506
X226.695Y-225.094
X230.755Y-125.591
X230.755Y-230.009
X231.473Y-108.47
X231.473Y-247.13
X231.788Y-127.911
X231.788Y-227.689
X232.258Y-110.886
X232.258Y-244.714
X236.34Y-123.447
X236.34Y-232.153
X237.125Y-125.863
X237.125Y-229.737
X238.844Y-106.495
X238.844Y-249.105
X239.372Y-108.979
X239.372Y-246.621
X242.118Y-121.899
X242.118Y-233.701
X242.646Y-124.383
X242.646Y-231.217
X246.38Y-105.301
X246.38Y-250.299
X246.646Y-107.827
X246.646Y-247.773
X248.026Y-120.963
X248.026Y-234.637
X248.292Y-123.489
X248.292Y-232.111
X254.0Y-104.902
X254.0Y-107.442
X254.0Y-113.543
X254.0Y-116.083
X254.0Y-120.65
X254.0Y-123.19
X254.0Y-232.41
X254.0Y-234.95
X254.0Y-239.517
X254.0Y-242.057
X254.0Y-248.158
X254.0Y-250.698
X259.708Y-123.489
X259.708Y-232.111
X259.974Y-120.963
X259.974Y-234.637
X261.354Y-107.827
X261.354Y-247.773
X261.62Y-105.301
X261.62Y-250.299
X265.354Y-124.383
X265.354Y-231.217
X265.882Y-121.899
X265.882Y-233.701
X268.628Y-108.979
X268.628Y-246.621
X269.156Y-106.495
X269.156Y-249.105
X270.875Y-125.863
X270.875Y-229.737
X271.66Y-123.447
X271.66Y-232.153
X275.742Y-110.886
X275.742Y-244.714
X276.212Y-127.911
X276.212Y-227.689
X276.527Y-108.47
X276.527Y-247.13
X277.245Y-125.591
X277.245Y-230.009
X281.305Y-130.506
X281.305Y-225.094
X282.575Y-128.307
X282.575Y-227.293
X282.617Y-113.525
X282.617Y-242.075
X283.65Y-111.204
X283.65Y-244.396
X284.858Y-124.352
X284.858Y-231.248
X286.099Y-133.62
X286.099Y-221.98
X286.128Y-122.152
X286.128Y-233.448
X287.592Y-131.565
X287.592Y-224.035
X289.179Y-116.868
X289.179Y-238.732
X290.449Y-114.668
X290.449Y-240.932
X290.541Y-137.217
X290.541Y-218.383
X292.241Y-135.329
X292.241Y-220.271
X294.583Y-141.259
X294.583Y-214.341
X295.355Y-120.879
X295.355Y-234.721
X296.471Y-139.559
X296.471Y-216.041
X296.848Y-118.824
X296.848Y-236.776
X298.18Y-145.701
X298.18Y-209.899
X300.235Y-144.208
X300.235Y-211.392
X301.079Y-125.514
X301.079Y-230.086
X301.294Y-150.495
X301.294Y-205.105
X302.778Y-123.626
X302.778Y-231.974
X303.493Y-149.225
X303.493Y-206.375
X303.889Y-155.588
X303.889Y-200.012
X305.937Y-160.925
X305.937Y-194.675
X306.209Y-154.555
X306.209Y-201.045
X306.286Y-130.721
X306.286Y-224.879
X307.417Y-166.446
X307.417Y-189.154
X307.448Y-146.941
X307.448Y-208.659
X308.174Y-129.022
X308.174Y-226.578
X308.311Y-172.092
X308.311Y-183.508
X308.353Y-160.14
X308.353Y-195.46
X308.61Y-177.8
X309.648Y-145.671
X309.648Y-209.928
X309.901Y-165.918
X309.901Y-189.682
X310.837Y-171.826
X310.837Y-183.774
X310.921Y-136.445
X310.921Y-219.155
X311.15Y-177.8
X312.976Y-134.952
X312.976Y-220.648
X314.932Y-142.621
X314.932Y-212.979
X315.717Y-177.8
X317.132Y-141.351
X317.132Y-214.249
X318.257Y-177.8
X318.275Y-149.183
X318.275Y-206.417
X320.596Y-148.15
X320.596Y-207.45
X320.914Y-156.058
X320.914Y-199.542
X322.821Y-163.172
X322.821Y-192.428
X323.33Y-155.273
X323.33Y-200.327
X323.973Y-170.446
X323.973Y-185.154
X324.358Y-177.8
X325.305Y-162.644
X325.305Y-192.956
X326.499Y-170.18
X326.499Y-185.42
X326.898Y-177.8
T3
X243.84Y-285.75
X243.84Y-288.29
X246.38Y-285.75
X246.38Y-288.29
X248.92Y-285.75
X248.92Y-288.29
X251.46Y-285.75
X251.46Y-288.29
X254.0Y-285.75
X254.0Y-288.29
X256.54Y-285.75
X256.54Y-288.29
X259.08Y-285.75
X259.08Y-288.29
X261.62Y-285.75
X261.62Y-288.29
X264.16Y-285.75
X264.16Y-288.29
X266.7Y-285.75
X266.7Y-288.29
M30
